<?xml version="1.0" encoding="UTF-8"?>
<svg id="Layer_1" xmlns="http://www.w3.org/2000/svg" version="1.1" viewBox="0 0 750 100">
  <!-- Generator: Adobe Illustrator 30.2.1, SVG Export Plug-In . SVG Version: 2.1.1 Build 1)  -->
  <defs>
    <style>
      .st0 {
        fill: #fff;
      }
    </style>
  </defs>
  <g id="Layer_11">
    <g>
      <path class="st0" d="M30.8,57.1h0c-3.6-2.1-8.5-5.4-10.4-9.6-2-4.1-1.5-9-.8-14.1.2-1.7,0-3.4-.7-5-2.1-4.3-7.2-6.2-11.6-4.1-4.4,2.1-6.3,7.3-4.2,11.6.8,1.6,2,2.9,3.4,3.7,4.4,2.7,8.5,5.4,10.5,9.5s1.4,10.1.8,14.1h0c-.2,1.7,0,3.4.7,5,2.1,4.3,7.2,6.2,11.6,4.1,4.3-2.1,6.2-7.2,4.1-11.6-.8-1.7-2-2.9-3.5-3.8"/>
      <path class="st0" d="M54.2,57.1h0c-3.6-2.1-8.5-5.4-10.4-9.6-2-4.1-1.5-9-.8-14.1.2-1.7,0-3.4-.7-5-2.1-4.3-7.2-6.2-11.6-4.1-4.3,2.1-6.2,7.2-4.1,11.6.8,1.6,2,2.9,3.4,3.7,4.4,2.7,8.5,5.4,10.5,9.5s1.4,10.1.8,14.1h0c-.2,1.7,0,3.4.7,5,2.1,4.3,7.2,6.2,11.6,4.1,4.3-2.1,6.2-7.2,4.1-11.6-.8-1.7-2-2.9-3.5-3.8"/>
      <path class="st0" d="M67.9,26.9c-2.9-3.8-8.4-4.6-12.2-1.7-2.8,2.1-4,5.7-3.2,8.9h0c1.5,6.2,2.5,10.2,2.9,12h0c.3,1.2,1.5,2.1,2.8,1.8.5,0,1-.4,1.4-.8h0c1.1-1.3,3.8-4.5,8-9.4h0c2.6-3,2.8-7.6.3-10.9"/>
      <g>
        <path class="st0" d="M127.3,31.8l-6.7,25.1-4.6-11.3c-1-2.5-3.4-4.1-6.2-4.1s-5.1,1.6-6.1,4.1l-4.9,11.6-6.3-25.3h-11.6l9.8,36.1c.8,3,3.6,5.1,6.7,5.1s5.2-1.6,6.3-4.1l5.9-13,5.9,13.1c1.1,2.4,3.6,4,6.2,4s5.7-2,6.6-5l10.1-36.1h-11.2v-.2Z"/>
        <path class="st0" d="M149,47.3h16.2c-.2-5.1-4-7.5-8-7.5s-7.8,2.4-8.2,7.5M158.3,73.2c-11.3,0-21.2-7.3-21.2-21.4s9.5-21,20.4-21,19.1,7.6,19.5,19.8v4.1h-28.3c.4,5.7,4.7,9.2,10.1,9.2s7.6-2,9.7-5.4l8,5.4c-3.3,5.7-9.4,9.2-18.2,9.2"/>
        <path class="st0" d="M209.4,51.9c0-7.3-4.1-10.5-8.6-10.5s-8.1,3.1-8.2,8.1v5c0,5,3.7,8.1,8.2,8.1s8.6-3.3,8.6-10.7M191.9,67.9v4.4h-11V14h11.7v20.5c2.6-2.2,6-3.5,10.3-3.5,9.6,0,18.4,7,18.4,21s-8.9,21-18.4,21-8.6-2-11.1-5"/>
        <path class="st0" d="M241.7,23.6h3.6v-9.7h-6.3c-3.5,0-6.9.8-9.3,3-2.3,2.1-4.1,5.6-4.1,11.3v44.2h11.7v-30.9h8v-9.6h-7.9v-3.7c0-3,2.2-4.5,4.4-4.5"/>
        <path class="st0" d="M269.8,62.7h-3.6c-2.2,0-4.4-1.5-4.4-4.5V14h-11.7v44.2c0,5.6,1.8,9.1,4.1,11.3,2.4,2.1,5.7,3,9.3,3h6.3v-9.7h0Z"/>
        <path class="st0" d="M282.2,47.3h16.2c-.2-5.1-4-7.5-8-7.5s-7.8,2.4-8.2,7.5M291.5,73.2c-11.3,0-21.2-7.3-21.2-21.4s9.5-21,20.4-21,19.1,7.6,19.5,19.8v4.1h-28.3c.4,5.7,4.7,9.2,10.1,9.2s7.6-2,9.7-5.4l8,5.4c-3.3,5.7-9.4,9.2-18.2,9.2"/>
        <path class="st0" d="M324.5,47.3h16.2c-.2-5.1-4-7.5-8-7.5s-7.8,2.4-8.2,7.5M333.8,73.2c-11.3,0-21.2-7.3-21.2-21.4s9.5-21,20.4-21,19.1,7.6,19.5,19.8v4.1h-28.3c.4,5.7,4.7,9.2,10.1,9.2s7.6-2,9.7-5.4l8,5.4c-3.3,5.7-9.4,9.2-18.2,9.2"/>
        <path class="st0" d="M375.7,62.7h-3.5c-2.2,0-4.4-1.5-4.4-4.4v-16.7h7.9v-9.6h-7.9v-10.8h-11.7v37c0,5.6,1.8,9.1,4.1,11.3,2.4,2.1,5.7,3,9.3,3h6.2v-9.7h0Z"/>
      </g>
    </g>
  </g>
  <g>
    <path class="st0" d="M421,74.5c-4,0-7.3-1.1-9.9-3.3s-4-5.2-4-9.1v-.2c0-4.3,1.5-7.5,4.4-9.6,2.9-2.2,6.9-3.2,11.9-3.2s6.7.6,9.9,1.7v-.7c0-4.9-2.9-7.4-8.7-7.4s-7.2.7-11.2,2.2l-2.9-8.7c4.9-2.2,10.1-3.2,15.7-3.2s10.6,1.5,13.6,4.5c2.9,2.9,4.4,7.2,4.4,12.9v23.4h-11.1v-4.4c-3.1,3.4-7.1,5.1-12.2,5.1h.1ZM424.5,66.6c2.7,0,4.8-.7,6.5-2,1.7-1.3,2.5-3,2.5-5.1v-2c-2.2-1-4.6-1.5-7.3-1.5s-4.4.5-5.8,1.4c-1.4,1-2.1,2.3-2.1,4.1v.2c0,1.5.6,2.7,1.7,3.6,1.2.9,2.7,1.3,4.5,1.3h0Z"/>
    <path class="st0" d="M473.2,74.6c-6,0-11-2-15-6.1-4-4-6-9-6-14.8v-.2c0-5.8,2-10.8,6-14.9,4-4.1,9.1-6.1,15.1-6.1s12.1,2.3,16.1,6.8l-7,7.5c-2.8-3-5.9-4.4-9.2-4.4s-5.2,1.1-7,3.2c-1.9,2.2-2.8,4.7-2.8,7.8v.2c0,3.2.9,5.8,2.8,8,1.9,2.1,4.4,3.2,7.4,3.2s6.3-1.4,9.3-4.3l6.7,6.8c-2.2,2.4-4.6,4.2-7.1,5.5s-5.7,1.9-9.4,1.9h.1Z"/>
    <path class="st0" d="M508.6,74.5c-4,0-7.3-1.1-9.9-3.3-2.6-2.2-4-5.2-4-9.1v-.2c0-4.3,1.5-7.5,4.4-9.6,2.9-2.2,6.9-3.2,11.9-3.2s6.7.6,9.9,1.7v-.7c0-4.9-2.9-7.4-8.7-7.4s-7.2.7-11.2,2.2l-2.9-8.7c4.9-2.2,10.1-3.2,15.7-3.2s10.6,1.5,13.6,4.5c2.9,2.9,4.4,7.2,4.4,12.9v23.4h-11.1v-4.4c-3.1,3.4-7.1,5.1-12.2,5.1h.1ZM512.1,66.6c2.7,0,4.8-.7,6.5-2,1.7-1.3,2.5-3,2.5-5.1v-2c-2.2-1-4.6-1.5-7.3-1.5s-4.4.5-5.8,1.4c-1.4,1-2.1,2.3-2.1,4.1v.2c0,1.5.6,2.7,1.7,3.6,1.2.9,2.7,1.3,4.5,1.3Z"/>
    <path class="st0" d="M558.4,74.5c-5,0-9.3-1.9-13-5.6-3.6-3.7-5.4-8.8-5.4-15.3v-.2c0-6.4,1.8-11.5,5.4-15.3,3.6-3.7,7.9-5.6,13-5.6s9.2,2,12.6,6v-19.9h11.5v55h-11.5v-5.8c-3.2,4.4-7.4,6.6-12.6,6.6h0ZM554.3,61.7c1.9,2.1,4.2,3.1,7,3.1s5.1-1,7-3.1,2.8-4.8,2.8-8v-.2c0-3.3-.9-5.9-2.8-8-1.9-2.1-4.2-3.1-7-3.1s-5.1,1-7,3.1-2.9,4.7-2.9,8.1v.2c0,3.3,1,5.9,2.9,8h0Z"/>
    <path class="st0" d="M611.8,74.6c-6.1,0-11.2-1.9-15.1-5.8-4-3.9-6-8.9-6-15v-.2c0-5.9,1.9-10.9,5.7-14.9,3.8-4.1,8.5-6.1,14.3-6.1s11.3,2.1,14.6,6.3c3.4,4.2,5,9.4,5,15.6s0,1.6-.2,3h-28.1c.6,2.6,1.7,4.5,3.4,5.9s3.9,2,6.5,2,6.8-1.4,9.8-4.1l6.6,5.8c-4.1,5-9.6,7.5-16.5,7.5ZM601.9,50.4h17.3c-.4-2.6-1.3-4.7-2.8-6.3s-3.4-2.3-5.8-2.3-4.2.8-5.8,2.3c-1.5,1.5-2.5,3.6-3,6.3h0Z"/>
    <path class="st0" d="M638.9,73.7v-40.4h11.5v5.7c3.4-4.3,7.3-6.5,11.9-6.5s9.2,2.1,11.4,6.4c3.7-4.3,8.1-6.4,13.3-6.4s7.7,1.3,10.1,3.8c2.4,2.5,3.6,6.2,3.6,11v26.3h-11.5v-22.5c0-5.5-2.2-8.2-6.7-8.2s-3.9.7-5.1,2.1c-1.2,1.4-1.8,3.4-1.8,6.1v22.5h-11.5v-22.5c0-5.5-2.2-8.2-6.7-8.2s-3.9.7-5.1,2.1c-1.2,1.4-1.8,3.4-1.8,6.1v22.5h-11.6Z"/>
    <path class="st0" d="M727,60.9l8.8-27.5h11.9l-15.5,41.4c-1.6,4.2-3.3,7.1-5.3,8.8-2,1.7-4.6,2.5-8,2.5s-7-.9-10.2-2.8l3.8-8.3c1.8,1.1,3.4,1.6,4.9,1.6s3.1-.9,4-2.6l-15.8-40.5h12.1l9.2,27.5h0Z"/>
  </g>
</svg>