<?xml version="1.0" encoding="utf-8"?>
<!-- Generator: Adobe Illustrator 19.0.0, SVG Export Plug-In . SVG Version: 6.00 Build 0)  -->
<svg version="1.1" id="layer" xmlns="http://www.w3.org/2000/svg" xmlns:xlink="http://www.w3.org/1999/xlink" x="0px" y="0px"
	 viewBox="-153 -46 652 652" style="enable-background:new -153 -46 652 652;" xml:space="preserve">
<style type="text/css">
	.st0{fill:#3F4450;}
	.st1{fill:#FA4338;}
</style>
<path class="st0" d="M143.9,314.1h-43.2c-0.4,0-0.8-0.4-0.8-0.8v-30.2c0-0.4,0.4-0.8,0.8-0.8H131c3.7,0,6.7-2.9,6.7-6.6
	c0-3.8-3.1-6.7-6.7-6.7h-30.3c-0.4,0-0.8-0.4-0.8-0.8v-32c0-0.4,0.4-0.8,0.8-0.8H142c3.7,0,6.7-2.9,6.7-6.7c0-3.7-3.1-6.6-6.7-6.6
	H92.9c-3.8,0-7.2,3.4-7.2,7.3v90.6c0,4,3.4,7.3,7.2,7.3h51c3.7,0,6.7-2.9,6.7-6.6C150.6,317,147.5,314.1,143.9,314.1 M202.5,254.6
	c-7.8,0-18,3.7-22.3,12.2v-4.4c0-3.8-3.1-7-7-7c-3.8,0-6.9,3.2-6.9,7v58.8c0,3.8,3.1,7,6.9,7c4,0,7-3.2,7-7v-32.2
	c0-15.1,10.1-20.8,20.2-20.8c9.8,0,15.7,7,15.7,18.9v34.1c0,3.8,3.1,7,6.9,7c4,0,7-3.2,7-7v-35C230,266.2,220.2,254.6,202.5,254.6
	 M305.6,255.6c-3.7-1.1-7,0.8-8.6,4.6l-19.1,48.9c-0.3,0.7-1.2,0.7-1.5,0l-19.3-49c-1.5-3.8-4.9-5.7-8.6-4.6
	c-3.8,0.9-5.7,5.3-4.4,8.7l23.8,57.3c1.8,4.1,4.7,6.6,8.9,6.6h0.8c4.1,0,6.9-2.4,8.6-6.6l23.7-57.3C311,261,309.4,256.5,305.6,255.6
	 M356.5,254.6c-20.3,0-37.3,14.4-37.3,37s17,37.4,37.3,37.4c20.3,0,37.4-14.8,37.4-37.4S376.8,254.6,356.5,254.6 M356.5,315.5
	c-12.8,0-23.5-9.5-23.5-24c0-14.4,10.7-23.4,23.5-23.4c12.8,0,23.5,9,23.5,23.4C380,306,369.3,315.5,356.5,315.5 M464.2,255.8
	c-3.5-1.4-7.6,0.3-9,3.8l-19.1,46.3c-0.3,0.7-1.2,0.7-1.5,0l-19-45.9c-1.5-3.8-5-5.5-8.9-4.4c-3.7,1.1-5.3,5.5-4.1,9l24.9,60.3
	c0.1,0.2,0.1,0.4,0,0.6l-3.8,9.2c-4.3,10.1-7.3,15.7-16.5,15.7h-2.1c-3.4-0.2-6.4,2.4-6.6,6c-0.2,3.4,2.6,6.1,6,6.4
	c1.7,0.2,2.8,0.2,3.1,0.2c15,0,21.7-6.7,28.9-22.9l31.5-75.3C469.4,261.3,467.9,257.2,464.2,255.8"/>
<path class="st1" d="M-74.1,235.5h42.6c3.7,0,6.6-3,6.6-6.6c0-3.7-3-6.6-6.6-6.6h-42.6c-3.7,0-6.6,3-6.6,6.6
	C-80.8,232.5-77.8,235.5-74.1,235.5 M10.4,180.7h-125.1c-9.3,0-16.9,7.6-16.9,16.9v154.5c0,9.3,7.6,16.9,16.9,16.9H10.4
	c9.3,0,16.9-7.6,16.9-16.9V197.6C27.3,188.3,19.7,180.7,10.4,180.7L10.4,180.7z M14,348.2c0,4.1-3.3,7.5-7.5,7.5h-117.3
	c-4.1,0-7.5-3.3-7.5-7.5V201.4c0-4.1,3.3-7.5,7.5-7.5H6.5c4.1,0,7.5,3.3,7.5,7.5V348.2z M-30.2,314.2h-37.3v-17.1h21.1
	c3.7,0,6.6-3,6.6-6.6c0-3.7-3-6.6-6.6-6.6h-21.1v-15.9h35.6c3.7,0,6.6-3,6.6-6.6s-3-6.6-6.6-6.6h-42.3c-3.7,0-6.6,3-6.6,6.6v59.6
	c0,3.7,3,6.6,6.6,6.6h43.9c3.7,0,6.6-3,6.6-6.6C-23.6,317.2-26.6,314.2-30.2,314.2"/>
</svg>
