<?xml version="1.0" encoding="UTF-8"?>
<svg id="Layer_1" xmlns="http://www.w3.org/2000/svg" xmlns:xlink="http://www.w3.org/1999/xlink" version="1.1" viewBox="0 0 576 324">
  <!-- Generator: Adobe Illustrator 30.4.0, SVG Export Plug-In . SVG Version: 2.1.3 Build 159)  -->
  <defs>
    <style>
      .st0, .st1, .st2 {
        fill: none;
      }

      .st3 {
        fill: #3b3b3b;
      }

      .st4 {
        fill: #eaeaea;
      }

      .st4, .st5, .st1, .st2, .st6, .st7 {
        stroke: #4b4b4b;
        stroke-linecap: round;
      }

      .st4, .st5, .st1, .st7 {
        stroke-miterlimit: 10;
      }

      .st5, .st8 {
        fill: #fff;
      }

      .st2, .st6 {
        stroke-linejoin: round;
      }

      .st6, .st7 {
        fill: #ed1c24;
      }

      .st9 {
        clip-path: url(#clippath);
      }
    </style>
    <clipPath id="clippath">
      <rect class="st0" width="576" height="324"/>
    </clipPath>
  </defs>
  <g class="st9">
    <g>
      <path class="st4" d="M547.54,8h-180.98c-4.97,0-9,4.03-9,9v136c0,4.97,4.03,9,9,9h180.98c4.97,0,9-4.03,9-9V17c0-4.97-4.03-9-9-9Z"/>
      <path class="st5" d="M457.05,123.69c25.4,0,46-21.6,46-48.25s-20.59-48.25-46-48.25-45.99,21.6-45.99,48.25,20.59,48.25,45.99,48.25Z"/>
      <path class="st6" d="M445.63,56.19v38.52l32.05-19.26-32.05-19.26Z"/>
      <path class="st1" d="M379.33,142.75h155.44"/>
      <path class="st6" d="M515.57,137c-3.17,0-5.75,2.57-5.75,5.75s2.57,5.75,5.75,5.75,5.75-2.57,5.75-5.75-2.57-5.75-5.75-5.75Z"/>
      <path class="st7" d="M387.56,46.5H28.8c-4.97,0-9,4.03-9,9v29.5h376.76v-29.5c0-4.97-4.03-9-9-9Z"/>
      <path class="st5" d="M19.8,85v222c0,4.97,4.03,9,9,9h358.76c4.97,0,9-4.03,9-9V85H19.8Z"/>
      <path class="st5" d="M556.35,257.19c0,21.23-17.21,38.44-38.44,38.44h-16.7l-26.6,20.3v-20.3h-20.09c-21.23,0-38.44-17.21-38.44-38.44s17.21-38.44,38.44-38.44h63.39c21.23,0,38.44,17.21,38.44,38.44Z"/>
      <path class="st7" d="M462.6,258.33c0-3.18-2.57-5.75-5.75-5.75s-5.75,2.57-5.75,5.75,2.57,5.75,5.75,5.75,5.75-2.57,5.75-5.75Z"/>
      <path class="st7" d="M491.11,258.33c0-3.18-2.57-5.75-5.75-5.75s-5.75,2.57-5.75,5.75,2.57,5.75,5.75,5.75,5.75-2.57,5.75-5.75Z"/>
      <path class="st7" d="M519.62,258.33c0-3.18-2.57-5.75-5.75-5.75s-5.75,2.57-5.75,5.75,2.58,5.75,5.75,5.75,5.75-2.57,5.75-5.75Z"/>
      <path class="st4" d="M51.13,64.9c0-3.17-2.57-5.75-5.75-5.75s-5.75,2.57-5.75,5.75,2.57,5.75,5.75,5.75,5.75-2.57,5.75-5.75Z"/>
      <path class="st4" d="M79.64,64.9c0-3.17-2.57-5.75-5.75-5.75s-5.75,2.57-5.75,5.75,2.57,5.75,5.75,5.75,5.75-2.57,5.75-5.75Z"/>
      <path class="st4" d="M207.94,103.83h159.12c4.97,0,9,3.67,9,8.18v175.74c0,4.97-4.03,9-9,9h-159.12c-4.97,0-9-4.03-9-9V112.01c0-4.52,4.03-8.18,9-8.18Z"/>
      <path class="st5" d="M224.33,123.69c-3.18,0-5.75,2.57-5.75,5.75s2.57,5.75,5.75,5.75,5.75-2.57,5.75-5.75-2.57-5.75-5.75-5.75Z"/>
      <path class="st5" d="M321.75,123.69h-14.17c-3.18,0-5.75,2.57-5.75,5.75s2.57,5.75,5.75,5.75h14.17c3.17,0,5.75-2.57,5.75-5.75s-2.57-5.75-5.75-5.75Z"/>
      <path class="st1" d="M218.59,155.71h39.66"/>
      <path class="st1" d="M218.59,161.97h19.83"/>
      <path class="st1" d="M39.63,259.11h39.66"/>
      <path class="st1" d="M39.63,265.37h19.83"/>
      <path class="st5" d="M237.12,276.16c10.24,0,18.54-8.3,18.54-18.54s-8.3-18.54-18.54-18.54-18.54,8.3-18.54,18.54,8.3,18.54,18.54,18.54ZM227.38,257.77c.6-.6,1.58-.6,2.18,0l4.47,4.47,11.27-11.27c.6-.6,1.58-.6,2.18,0,.61.6.61,1.58,0,2.18l-12.36,12.36c-.3.3-.7.45-1.09.45s-.79-.15-1.09-.45l-5.56-5.56c-.6-.6-.6-1.58,0-2.18h0Z"/>
      <path class="st6" d="M232.94,265.52c.3.3.7.45,1.09.45s.79-.15,1.09-.45l12.36-12.36c.6-.6.6-1.58,0-2.18-.6-.6-1.58-.6-2.18,0l-11.27,11.27-4.47-4.47c-.6-.6-1.58-.6-2.18,0-.6.6-.6,1.58,0,2.18l5.56,5.56h0Z"/>
      <path class="st2" d="M345.52,253.16h-69.18"/>
      <path class="st2" d="M336.41,262.24h-60.08"/>
      <path class="st5" d="M237.12,218.83c10.24,0,18.54-8.3,18.54-18.54s-8.3-18.54-18.54-18.54-18.54,8.3-18.54,18.54,8.3,18.54,18.54,18.54ZM227.38,200.44c.6-.6,1.58-.6,2.18,0l4.47,4.47,11.27-11.27c.6-.6,1.58-.6,2.18,0,.61.6.61,1.58,0,2.18l-12.36,12.36c-.3.3-.7.45-1.09.45s-.79-.15-1.09-.45l-5.56-5.56c-.6-.6-.6-1.58,0-2.18h0Z"/>
      <path class="st6" d="M232.94,208.18c.3.3.7.45,1.09.45s.79-.15,1.09-.45l12.36-12.36c.6-.6.6-1.58,0-2.18-.6-.6-1.58-.6-2.18,0l-11.27,11.27-4.47-4.47c-.6-.6-1.58-.6-2.18,0-.6.6-.6,1.58,0,2.18l5.56,5.56h0Z"/>
      <path class="st2" d="M345.52,195.82h-69.18"/>
      <path class="st2" d="M336.41,204.9h-60.08"/>
      <path class="st5" d="M287.08,123.69h-42.25c-3.18,0-5.75,2.57-5.75,5.75s2.57,5.75,5.75,5.75h42.25c3.17,0,5.75-2.57,5.75-5.75s-2.57-5.75-5.75-5.75Z"/>
      <path class="st4" d="M169.44,104.36H48.52c-4.97,0-9,4.03-9,9v115.81c0,4.97,4.03,9,9,9h120.92c4.97,0,9-4.03,9-9v-115.81c0-4.97-4.03-9-9-9Z"/>
      <path class="st1" d="M138.4,158.84l6.68-2.16"/>
      <path class="st1" d="M131.46,149.01l5.8-4.78"/>
      <path class="st1" d="M120.81,142.15l3.61-6.32"/>
      <path class="st1" d="M108.98,139.99v-7.58"/>
      <path class="st1" d="M79.39,158.84l-6.68-2.16"/>
      <path class="st1" d="M86.34,149.01l-5.8-4.78"/>
      <path class="st1" d="M96.98,142.15l-3.61-6.32"/>
      <g>
        <path class="st3" d="M90.52,192.7h36.74v-12.07c-4.7-2.87-11.36-4.52-18.34-4.52s-13.69,1.66-18.39,4.55v12.04Z"/>
        <path class="st3" d="M129.47,185.11l14.65-8.82-35.23-20.57-35.05,20.37,6.72,4.13v8.91c-.93.38-1.59,1.29-1.59,2.36,0,.99.57,1.84,1.4,2.26l-2.52,6.65h7.1l-2.26-6.67c.81-.43,1.37-1.27,1.37-2.24,0-1.13-.74-2.07-1.75-2.41v-7.78l5.97,3.66v-6.3h.04c5.04-3.19,12.39-5.19,20.58-5.19s15.54,2,20.58,5.19h0v6.47Z"/>
      </g>
    </g>
  </g>
  <g id="Layer_11">
    <g>
      <path class="st8" d="M139.81,71.31h0c-1.35-.79-3.18-2.02-3.89-3.59-.75-1.54-.56-3.37-.3-5.28.07-.64,0-1.27-.26-1.87-.79-1.61-2.7-2.32-4.34-1.54-1.65.79-2.36,2.73-1.57,4.34.3.6.75,1.09,1.27,1.39,1.65,1.01,3.18,2.02,3.93,3.56s.52,3.78.3,5.28h0c-.07.64,0,1.27.26,1.87.79,1.61,2.7,2.32,4.34,1.54,1.61-.79,2.32-2.7,1.54-4.34-.3-.64-.75-1.09-1.31-1.42"/>
      <path class="st8" d="M148.58,71.31h0c-1.35-.79-3.18-2.02-3.89-3.59-.75-1.54-.56-3.37-.3-5.28.07-.64,0-1.27-.26-1.87-.79-1.61-2.7-2.32-4.34-1.54-1.61.79-2.32,2.7-1.54,4.34.3.6.75,1.09,1.27,1.39,1.65,1.01,3.18,2.02,3.93,3.56s.52,3.78.3,5.28h0c-.07.64,0,1.27.26,1.87.79,1.61,2.7,2.32,4.34,1.54,1.61-.79,2.32-2.7,1.54-4.34-.3-.64-.75-1.09-1.31-1.42"/>
      <path class="st8" d="M153.71,60c-1.09-1.42-3.15-1.72-4.57-.64-1.05.79-1.5,2.13-1.2,3.33h0c.56,2.32.94,3.82,1.09,4.49h0c.11.45.56.79,1.05.67.19,0,.37-.15.52-.3h0c.41-.49,1.42-1.68,3-3.52h0c.97-1.12,1.05-2.85.11-4.08"/>
      <g>
        <path class="st8" d="M175.95,61.83l-2.51,9.4-1.72-4.23c-.37-.94-1.27-1.54-2.32-1.54s-1.91.6-2.28,1.54l-1.83,4.34-2.36-9.47h-4.34l3.67,13.52c.3,1.12,1.35,1.91,2.51,1.91s1.95-.6,2.36-1.54l2.21-4.87,2.21,4.9c.41.9,1.35,1.5,2.32,1.5s2.13-.75,2.47-1.87l3.78-13.52h-4.19v-.07h.04Z"/>
        <path class="st8" d="M184.07,67.64h6.07c-.07-1.91-1.5-2.81-3-2.81s-2.92.9-3.07,2.81M187.55,77.33c-4.23,0-7.94-2.73-7.94-8.01s3.56-7.86,7.64-7.86,7.15,2.85,7.3,7.41v1.54h-10.6c.15,2.13,1.76,3.44,3.78,3.44s2.85-.75,3.63-2.02l3,2.02c-1.24,2.13-3.52,3.44-6.81,3.44"/>
        <path class="st8" d="M206.69,69.36c0-2.73-1.54-3.93-3.22-3.93s-3.03,1.16-3.07,3.03v1.87c0,1.87,1.39,3.03,3.07,3.03s3.22-1.24,3.22-4.01M200.13,75.35v1.65h-4.12v-21.83h4.38v7.68c.97-.82,2.25-1.31,3.86-1.31,3.59,0,6.89,2.62,6.89,7.86s-3.33,7.86-6.89,7.86-3.22-.75-4.16-1.87"/>
        <path class="st8" d="M218.78,58.76h1.35v-3.63h-2.36c-1.31,0-2.58.3-3.48,1.12-.86.79-1.54,2.1-1.54,4.23v16.55h4.38v-11.57h3v-3.59h-2.96v-1.39c0-1.12.82-1.68,1.65-1.68"/>
        <path class="st8" d="M229.3,73.4h-1.35c-.82,0-1.65-.56-1.65-1.68v-16.55h-4.38v16.55c0,2.1.67,3.41,1.54,4.23.9.79,2.13,1.12,3.48,1.12h2.36v-3.63h0v-.04Z"/>
        <path class="st8" d="M233.94,67.64h6.07c-.07-1.91-1.5-2.81-3-2.81s-2.92.9-3.07,2.81M237.43,77.33c-4.23,0-7.94-2.73-7.94-8.01s3.56-7.86,7.64-7.86,7.15,2.85,7.3,7.41v1.54h-10.6c.15,2.13,1.76,3.44,3.78,3.44s2.85-.75,3.63-2.02l3,2.02c-1.24,2.13-3.52,3.44-6.81,3.44"/>
        <path class="st8" d="M249.78,67.64h6.07c-.07-1.91-1.5-2.81-3-2.81s-2.92.9-3.07,2.81M253.26,77.33c-4.23,0-7.94-2.73-7.94-8.01s3.56-7.86,7.64-7.86,7.15,2.85,7.3,7.41v1.54h-10.6c.15,2.13,1.76,3.44,3.78,3.44s2.85-.75,3.63-2.02l3,2.02c-1.24,2.13-3.52,3.44-6.81,3.44"/>
        <path class="st8" d="M268.95,73.4h-1.31c-.82,0-1.65-.56-1.65-1.65v-6.25h2.96v-3.59h-2.96v-4.04h-4.38v13.85c0,2.1.67,3.41,1.54,4.23.9.79,2.13,1.12,3.48,1.12h2.32v-3.63h0v-.04Z"/>
      </g>
    </g>
  </g>
  <g>
    <path class="st3" d="M314.96,171.87h-14.13c-.42,0-.77.35-.77.77l-.69,4.82h16.89l-.53-4.82c0-.42-.35-.77-.77-.77Z"/>
    <path class="st3" d="M322.08,151.13c-.77-1.39-2.04-2.37-3.57-2.74-.36-.09-.72-.14-1.09-.16.1-1.03.16-1.7.16-1.7h-19.38s.06.67.16,1.7c-.37.02-.73.07-1.09.16-1.53.37-2.8,1.35-3.57,2.74-.88,1.6-1.02,3.6-.38,5.51,1.06,3.15,3.98,5.3,6.92,5.3.15,0,.31,0,.46-.02.24.29.5.56.77.8.91.84,2.21,1.47,2.67,2.45.38.81.34,1.69.07,2.46-.23.66-.71,1.14-1.3,1.23-.32.05-.46.07-.51.34-.03.29-.02,1.43-.02,1.43h11.03s0-1.14-.02-1.43c-.05-.27-.19-.29-.51-.34-.59-.09-1.08-.57-1.3-1.23-.27-.77-.31-1.65.07-2.46.46-.98,1.76-1.61,2.67-2.45.26-.24.52-.51.77-.8.15.01.31.02.46.02,2.94,0,5.86-2.15,6.92-5.3.64-1.9.5-3.91-.38-5.51ZM294.76,156.15c-.5-1.5-.41-3.07.27-4.29.56-1.02,1.48-1.73,2.6-2,.29-.07.58-.11.87-.12.32,3.46.81,8.59.95,9.54.06.39.17.76.31,1.11-2.14-.21-4.21-1.88-5-4.24ZM321.03,156.15c-.79,2.36-2.86,4.03-5,4.24.15-.35.25-.72.31-1.11.14-.95.62-6.08.95-9.54.29.01.58.05.87.12,1.11.27,2.04.98,2.6,2,.68,1.23.78,2.79.27,4.29Z"/>
  </g>
</svg>