<?xml version="1.0" encoding="utf-8"?>
<!-- Generator: Adobe Illustrator 26.3.1, SVG Export Plug-In . SVG Version: 6.00 Build 0)  -->
<svg version="1.1" id="Layer_1" xmlns="http://www.w3.org/2000/svg" xmlns:xlink="http://www.w3.org/1999/xlink" x="0px" y="0px"
	 viewBox="0 0 302.4 302.4" style="enable-background:new 0 0 302.4 302.4;" xml:space="preserve">
<metadata><?xpacket begin="﻿" id="W5M0MpCehiHzreSzNTczkc9d"?>
<x:xmpmeta xmlns:x="adobe:ns:meta/" x:xmptk="Adobe XMP Core 8.0-c001 1.000000, 0000/00/00-00:00:00        ">
   <rdf:RDF xmlns:rdf="http://www.w3.org/1999/02/22-rdf-syntax-ns#">
      <rdf:Description rdf:about=""
            xmlns:dc="http://purl.org/dc/elements/1.1/"
            xmlns:prism="http://prismstandard.org/namespaces/basic/2.1/"
            xmlns:tiff="http://ns.adobe.com/tiff/1.0/"
            xmlns:bsam="http://www.bsam.blog">
         <dc:modified>2025-09-09T17:14:16.992Z</dc:modified>
         <dc:format>image/svg+xml</dc:format>
         <prism:Date>2025-09-08T19:16:00.000+02:00</prism:Date>
         <tiff:ImageWidth>302</tiff:ImageWidth>
         <tiff:ImageLength>302</tiff:ImageLength>
         <bsam:rightsLimitedUnlimited>unlimited</bsam:rightsLimitedUnlimited>
         <bsam:subDigitalAssetType>
            <rdf:Bag>
               <rdf:li>enterprise:digital-asset-type/image/icon</rdf:li>
            </rdf:Bag>
         </bsam:subDigitalAssetType>
         <bsam:industry>
            <rdf:Bag>
               <rdf:li>enterprise:industry/generic-all-industries</rdf:li>
            </rdf:Bag>
         </bsam:industry>
         <bsam:assetOwner>
            <rdf:Bag>
               <rdf:li>enterprise:business-unit/webfleet</rdf:li>
            </rdf:Bag>
         </bsam:assetOwner>
         <bsam:usageCountry>
            <rdf:Bag>
               <rdf:li>enterprise:region-country/global</rdf:li>
            </rdf:Bag>
         </bsam:usageCountry>
      </rdf:Description>
   </rdf:RDF>
</x:xmpmeta>
                                                                                                    
                                                                                                    
                                                                                                    
                                                                                                    
                                                                                                    
                                                                                                    
                                                                                                    
                                                                                                    
                                                                                                    
                           
<?xpacket end="w"?></metadata>
<g>
	<path d="M247.7,183.2c2.7-8.6,4.3-17.5,4.7-26.4c1.5-28.7-8.3-56.2-27.6-77.6s-45.7-34-74.4-35.5c-1.9-0.1-3.8-0.2-5.6-0.2
		c-57.3,0-104.5,44.8-107.5,102.1c-3.1,59.3,42.7,110,102,113.1c1.9,0.1,3.8,0.1,5.6,0.1c21.7,0,42.6-6.5,60.6-18.8l0.1-0.1l0,0
		c1.7-1.1,2.9-2.8,3.3-4.7c0.5-2,0.1-4-1-5.8c-1.1-1.7-2.8-2.9-4.8-3.4c-2.2-0.5-4.6,0-6.3,1.4c-15.4,10.5-33.4,16.1-52,16.1
		c-1.6,0-3.2,0-4.8-0.1c-24.6-1.3-47.3-12.1-63.8-30.4c-16.5-18.4-25-42-23.7-66.6c2.5-49.2,43.1-87.6,92.3-87.6
		c1.6,0,3.2,0,4.8,0.1c24.6,1.3,47.3,12.1,63.8,30.5c16.6,18.4,25,42,23.7,66.6c-0.4,6.9-1.5,13.7-3.3,20.3L221.6,164l4.4,46
		l39.2-24.4L247.7,183.2z"/>
	<path d="M89.3,149.4l-15.8,12.1v8.8h33.4v-9.5H89.5l7.2-5.1c6.3-4.5,9.8-8,9.8-14.8v-0.1c0-7.9-6.3-13.4-15.6-13.4
		c-8.1,0-12.7,3.2-17.2,9l7.9,6.6c3.3-3.8,5.5-5.5,8.4-5.5c2.9,0,4.8,1.6,4.8,4.3C94.8,144.3,93.2,146.3,89.3,149.4z"/>
	<path d="M142.9,170.2V162h5.4v-8.7h-5.4v-25.6h-11.8l-21.9,26l1.9,8.3h20.5v8.2L142.9,170.2L142.9,170.2z M121.5,153.3l10.1-12.2
		v12.2H121.5z"/>
	<polygon points="181.9,122.1 172.6,122.1 145.9,177.9 155.1,177.9 	"/>
	<polygon points="182.7,137.9 202.2,137.9 183.6,170.2 196.5,170.2 215.1,136.8 215.1,128 182.7,128 	"/>
</g>
</svg>
