<?xml version="1.0" encoding="utf-8"?>
<!-- Generator: Adobe Illustrator 26.3.1, SVG Export Plug-In . SVG Version: 6.00 Build 0)  -->
<svg version="1.1" id="Layer_1" xmlns="http://www.w3.org/2000/svg" xmlns:xlink="http://www.w3.org/1999/xlink" x="0px" y="0px"
	 viewBox="0 0 302.4 302.4" style="enable-background:new 0 0 302.4 302.4;" xml:space="preserve">
<metadata><?xpacket begin="﻿" id="W5M0MpCehiHzreSzNTczkc9d"?>
<x:xmpmeta xmlns:x="adobe:ns:meta/" x:xmptk="Adobe XMP Core 8.0-c001 1.000000, 0000/00/00-00:00:00        ">
   <rdf:RDF xmlns:rdf="http://www.w3.org/1999/02/22-rdf-syntax-ns#">
      <rdf:Description rdf:about=""
            xmlns:bsam="http://www.bsam.blog"
            xmlns:tiff="http://ns.adobe.com/tiff/1.0/"
            xmlns:prism="http://prismstandard.org/namespaces/basic/2.1/"
            xmlns:dc="http://purl.org/dc/elements/1.1/">
         <bsam:rightsLimitedUnlimited>unlimited</bsam:rightsLimitedUnlimited>
         <bsam:assetOwner>
            <rdf:Bag>
               <rdf:li>enterprise:business-unit/webfleet</rdf:li>
            </rdf:Bag>
         </bsam:assetOwner>
         <bsam:industry>
            <rdf:Bag>
               <rdf:li>enterprise:industry/generic-all-industries</rdf:li>
            </rdf:Bag>
         </bsam:industry>
         <bsam:subDigitalAssetType>
            <rdf:Bag>
               <rdf:li>enterprise:digital-asset-type/image/icon</rdf:li>
            </rdf:Bag>
         </bsam:subDigitalAssetType>
         <bsam:usageCountry>
            <rdf:Bag>
               <rdf:li>enterprise:region-country/global</rdf:li>
            </rdf:Bag>
         </bsam:usageCountry>
         <tiff:ImageLength>302</tiff:ImageLength>
         <tiff:ImageWidth>302</tiff:ImageWidth>
         <prism:Date>2025-09-08T19:16:00.000+02:00</prism:Date>
         <dc:modified>2025-09-09T17:17:46.478Z</dc:modified>
         <dc:format>image/svg+xml</dc:format>
      </rdf:Description>
   </rdf:RDF>
</x:xmpmeta>
                                                                                                    
                                                                                                    
                                                                                                    
                                                                                                    
                                                                                                    
                                                                                                    
                                                                                                    
                                                                                                    
                                                                                                    
                                                                                                    
                                                                                                    
                                                                                                    
                                                                                                    
                                                                                                    
                                                                                                    
                                                                                                    
                                                                                                    
                                                                                                    
                                                                            
<?xpacket end="w"?></metadata>
<g>
	<path d="M284.2,133.1c0-36.7-30-66.4-66.9-66.4c-8.9,0-17.4,1.7-25.2,4.9c18.5,19.4,29.9,45.6,29.9,74.6c0,19.5-5.2,37.8-14.2,53.5
		c26.6,6.1,67.4,6.2,76.3,6l0.1-0.1l-22.1-23.1C275.7,170.2,284.2,152.6,284.2,133.1z"/>
	<path d="M113.9,70c42.8,0,77.5,34.4,77.5,76.8c0,29.6-17.5,56.9-44.7,69.6l-0.5,0.2l-0.3,0.1l-0.3,0.1
		c-20.2,9.9-58.4,15.6-85.4,15.9L76,216.3l-14-12.6c-16.2-14.6-25.5-35.3-25.5-56.9C36.4,104.5,71.2,70,113.9,70 M113.9,51.8
		c-52.9,0-95.8,42.5-95.8,95c0,28,12.2,53.1,31.6,70.5l-31.6,33l0.2,0.2c14.8,0.3,91.1,0.2,125.6-13.5c3.1-1,6.1-2.2,9.1-3.5
		c0.4-0.2,0.8-0.3,1.3-0.5c0,0,0.1-0.1,0.1-0.1c32.6-15.1,55.2-48,55.2-86.1C209.7,94.3,166.8,51.8,113.9,51.8L113.9,51.8z"/>
</g>
</svg>
