<?xml version="1.0" encoding="utf-8"?>
<!-- Generator: Adobe Illustrator 26.3.1, SVG Export Plug-In . SVG Version: 6.00 Build 0)  -->
<svg version="1.1" id="Layer_1" xmlns="http://www.w3.org/2000/svg" xmlns:xlink="http://www.w3.org/1999/xlink" x="0px" y="0px"
	 viewBox="0 0 302.4 302.4" style="enable-background:new 0 0 302.4 302.4;" xml:space="preserve">
<metadata><?xpacket begin="﻿" id="W5M0MpCehiHzreSzNTczkc9d"?>
<x:xmpmeta xmlns:x="adobe:ns:meta/" x:xmptk="Adobe XMP Core 8.0-c001 1.000000, 0000/00/00-00:00:00        ">
   <rdf:RDF xmlns:rdf="http://www.w3.org/1999/02/22-rdf-syntax-ns#">
      <rdf:Description rdf:about=""
            xmlns:bsam="http://www.bsam.blog"
            xmlns:tiff="http://ns.adobe.com/tiff/1.0/"
            xmlns:prism="http://prismstandard.org/namespaces/basic/2.1/"
            xmlns:dc="http://purl.org/dc/elements/1.1/">
         <bsam:rightsLimitedUnlimited>unlimited</bsam:rightsLimitedUnlimited>
         <bsam:assetOwner>
            <rdf:Bag>
               <rdf:li>enterprise:business-unit/webfleet</rdf:li>
            </rdf:Bag>
         </bsam:assetOwner>
         <bsam:industry>
            <rdf:Bag>
               <rdf:li>enterprise:industry/generic-all-industries</rdf:li>
            </rdf:Bag>
         </bsam:industry>
         <bsam:subDigitalAssetType>
            <rdf:Bag>
               <rdf:li>enterprise:digital-asset-type/image/icon</rdf:li>
            </rdf:Bag>
         </bsam:subDigitalAssetType>
         <bsam:usageCountry>
            <rdf:Bag>
               <rdf:li>enterprise:region-country/global</rdf:li>
            </rdf:Bag>
         </bsam:usageCountry>
         <tiff:ImageLength>302</tiff:ImageLength>
         <tiff:ImageWidth>302</tiff:ImageWidth>
         <prism:Date>2025-09-08T19:16:00.000+02:00</prism:Date>
         <dc:modified>2025-09-09T17:17:19.100Z</dc:modified>
         <dc:format>image/svg+xml</dc:format>
      </rdf:Description>
   </rdf:RDF>
</x:xmpmeta>
                                                                                                    
                                                                                                    
                                                                                                    
                                                                                                    
                                                                                                    
                                                                                                    
                                                                                                    
                                                                                                    
                                                                                                    
                                                                                                    
                                                                                                    
                                                                                                    
                                                                                                    
                                                                                                    
                                                                                                    
                                                                                                    
                                                                                                    
                                                                                                    
                                                                            
<?xpacket end="w"?></metadata>
<g>
	<polygon points="156.4,101.4 168,97.7 168,77.8 156.4,80.8 	"/>
	<polygon points="187.8,72.7 177.6,75.3 177.6,94.6 187.8,91.4 	"/>
	<polygon points="206.4,67.9 197.4,70.2 197.4,88.3 206.4,85.5 	"/>
	<polygon points="156.4,131.4 168,126.9 168,107.3 156.4,111 	"/>
	<polygon points="187.8,101 177.6,104.2 177.6,123.3 187.8,119.5 	"/>
	<polygon points="206.4,95.1 197.4,97.9 197.4,115.9 206.4,112.4 	"/>
	<polygon points="156.4,161.3 168,156.2 168,136.8 156.4,141.1 	"/>
	<polygon points="177,152.8 188.4,147.9 188.4,128.5 177,132.8 	"/>
	<polygon points="206.4,122.2 197.4,125.7 197.4,143.4 206.4,139.4 	"/>
	<path d="M218,100.4c-0.6-0.5-1.2-0.7-1.9-0.8l0.2-37.6l0-3.7l-3.7-0.9l-60-15l-1.3-0.3l-1.3,0.3l-59.7,15l-3.7,0.9l0,3.7l0.1,37.4
		c-0.8,0.1-1.5,0.3-2.1,0.9c-19.5,17.4-30.6,42.1-30.6,67.5c0,51.1,43.6,92.6,97.3,92.6s97.3-41.6,97.3-92.6
		C248.5,142,237.6,118.1,218,100.4z M173.9,160.8v27l-22.5,10.9V80.4l59-16.1v105.8l-18.8,9.1v-26.2L173.9,160.8z M150.5,49.4
		L201.6,62l-51.1,12.8L101.1,62L150.5,49.4z M135.3,126.5v-18.6l11,3.5v19.3L135.3,126.5z M146.3,141.5v19l-11-4.8v-18.4
		L146.3,141.5z M135.3,97.2V78.4l11,2.8v19.5L135.3,97.2z M115.5,119v-17.4l9.2,2.9v18L115.5,119z M124.7,133.4v17.8l-9.2-4v-17.2
		L124.7,133.4z M115.5,90.9V73.3l9.2,2.4v18.2L115.5,90.9z M97.2,68.5l7.7,2v17l-7.7-2.4V68.5z M97.2,95.8l7.7,2.4V115l-7.7-2.9
		V95.8z M97.2,123l7.7,2.9v16.6l-7.7-3.4V123z M86.7,108.2l0.2,61.1l0,2.9l2.7,1.3l59.3,29.4l2.3,1.1l2.3-1.1l59.6-29.6l2.7-1.3
		l0-2.9l0.3-60.7c15.7,15.6,24.5,35.7,25,57.4l-89.8,47l-89.7-47.2C62,144,70.8,123.8,86.7,108.2z M128.2,224.9l-26.7,14
		C80.7,225.7,66,204.5,62.3,180L128.2,224.9z M151.2,253.3c-5.1,0-10.2-0.4-15.1-1.2l15.8-10.9l15.6,10.7
		C162.2,252.8,156.8,253.3,151.2,253.3z M200.7,239l-25.9-13.6l65.2-44.8C236.1,204.9,221.4,225.9,200.7,239z"/>
</g>
</svg>
