<?xml version="1.0" encoding="utf-8"?>
<!-- Generator: Adobe Illustrator 26.3.1, SVG Export Plug-In . SVG Version: 6.00 Build 0)  -->
<svg version="1.1" id="Layer_1" xmlns="http://www.w3.org/2000/svg" xmlns:xlink="http://www.w3.org/1999/xlink" x="0px" y="0px"
	 viewBox="0 0 302.4 302.4" style="enable-background:new 0 0 302.4 302.4;" xml:space="preserve">
<metadata><?xpacket begin="﻿" id="W5M0MpCehiHzreSzNTczkc9d"?>
<x:xmpmeta xmlns:x="adobe:ns:meta/" x:xmptk="Adobe XMP Core 8.0-c001 1.000000, 0000/00/00-00:00:00        ">
   <rdf:RDF xmlns:rdf="http://www.w3.org/1999/02/22-rdf-syntax-ns#">
      <rdf:Description rdf:about=""
            xmlns:dc="http://purl.org/dc/elements/1.1/"
            xmlns:prism="http://prismstandard.org/namespaces/basic/2.1/"
            xmlns:tiff="http://ns.adobe.com/tiff/1.0/"
            xmlns:bsam="http://www.bsam.blog">
         <dc:modified>2025-09-09T17:15:46.224Z</dc:modified>
         <dc:format>image/svg+xml</dc:format>
         <prism:Date>2025-09-08T19:16:00.000+02:00</prism:Date>
         <tiff:ImageWidth>302</tiff:ImageWidth>
         <tiff:ImageLength>302</tiff:ImageLength>
         <bsam:rightsLimitedUnlimited>unlimited</bsam:rightsLimitedUnlimited>
         <bsam:subDigitalAssetType>
            <rdf:Bag>
               <rdf:li>enterprise:digital-asset-type/image/icon</rdf:li>
            </rdf:Bag>
         </bsam:subDigitalAssetType>
         <bsam:industry>
            <rdf:Bag>
               <rdf:li>enterprise:industry/generic-all-industries</rdf:li>
            </rdf:Bag>
         </bsam:industry>
         <bsam:assetOwner>
            <rdf:Bag>
               <rdf:li>enterprise:business-unit/webfleet</rdf:li>
            </rdf:Bag>
         </bsam:assetOwner>
         <bsam:usageCountry>
            <rdf:Bag>
               <rdf:li>enterprise:region-country/global</rdf:li>
            </rdf:Bag>
         </bsam:usageCountry>
      </rdf:Description>
   </rdf:RDF>
</x:xmpmeta>
                                                                                                    
                                                                                                    
                                                                                                    
                                                                                                    
                                                                                                    
                                                                                                    
                                                                                                    
                                                                                                    
                                                                                                    
                           
<?xpacket end="w"?></metadata>
<style type="text/css">
	.st0{fill-rule:evenodd;clip-rule:evenodd;}
</style>
<g>
	<path class="st0" d="M64.4,209.5L83.6,167l6.8,24.9l20.6,15.7L64.4,209.5z"/>
	<path class="st0" d="M240.1,93.5L223.4,137l-8.3-24.5L193.7,98L240.1,93.5z"/>
	<g>
		<g>
			<path d="M123.7,176.7l8.1-9.7c4.6,4.2,9.1,6.6,14.6,6.6c6.3,0,10.2-3.1,10.2-8.5V165c0-5.2-4.4-8.3-10.8-8.3
				c-3.8,0-7.3,1.1-10.2,2.3l-7.8-5.1l1.7-30.1H167v11.8h-26l-0.7,10.6c2.4-0.6,4.6-1.1,8-1.1c11.9,0,21.4,5.8,21.4,19.5v0.2
				c0,12.9-9.2,21.1-23.2,21.1C136.8,185.8,129.6,182.4,123.7,176.7"/>
		</g>
		<path d="M188.1,141.1l3.9-16.7h8.8l-6.3,16.7H188.1z M174.5,141.1l4-16.7h8.8l-6.3,16.7H174.5z"/>
	</g>
	<g>
		<g>
			<path d="M150,231.2c-50.7,0-94.7-3.5-95.1-3.5c-5.5-0.4-10.3-5.3-10.9-11.2c-0.1-1-2.6-25.4-2.6-70.9c0-39.7,2.2-59.4,2.3-60.2
				c0.8-5.9,5.5-10.6,11-11.1c0.3,0,34.4-3.1,95.2-3.1c58,0,95.9,3.1,96.2,3.1c5.6,0.5,10.3,5.4,10.9,11.2c0,0.5,1.3,14.2,1.3,59.9
				c0,52-1.3,70.1-1.4,70.9c-0.5,5.9-5.2,10.9-10.7,11.4C246.1,227.8,210.5,231.2,150,231.2z M150.1,82.7c-60.2,0-93.9,3-94.2,3
				c-0.1,0.1-0.7,0.6-0.7,1.1c0,0.1-2.2,19.8-2.2,58.8c0,44.9,2.5,69.5,2.5,69.7c0,0.5,0.4,0.9,0.6,0.9c0.3,0,43.8,3.4,94,3.4
				c59.9,0,95-3.3,95.4-3.4c0-0.1,0.4-0.5,0.4-0.9c0-0.1,1.4-18.5,1.4-70c0-44.9-1.3-58.8-1.3-58.9c0-0.4-0.4-0.8-0.6-0.9l0,0
				C245,85.7,207.5,82.7,150.1,82.7z"/>
		</g>
	</g>
</g>
</svg>
