<?xml version="1.0" encoding="utf-8"?>
<!-- Generator: Adobe Illustrator 26.3.1, SVG Export Plug-In . SVG Version: 6.00 Build 0)  -->
<svg version="1.1" id="Layer_1" xmlns="http://www.w3.org/2000/svg" xmlns:xlink="http://www.w3.org/1999/xlink" x="0px" y="0px"
	 viewBox="0 0 302.4 302.4" style="enable-background:new 0 0 302.4 302.4;" xml:space="preserve">
<metadata><?xpacket begin="﻿" id="W5M0MpCehiHzreSzNTczkc9d"?>
<x:xmpmeta xmlns:x="adobe:ns:meta/" x:xmptk="Adobe XMP Core 8.0-c001 1.000000, 0000/00/00-00:00:00        ">
   <rdf:RDF xmlns:rdf="http://www.w3.org/1999/02/22-rdf-syntax-ns#">
      <rdf:Description rdf:about=""
            xmlns:bsam="http://www.bsam.blog"
            xmlns:tiff="http://ns.adobe.com/tiff/1.0/"
            xmlns:prism="http://prismstandard.org/namespaces/basic/2.1/"
            xmlns:dc="http://purl.org/dc/elements/1.1/">
         <bsam:rightsLimitedUnlimited>unlimited</bsam:rightsLimitedUnlimited>
         <bsam:assetOwner>
            <rdf:Bag>
               <rdf:li>enterprise:business-unit/webfleet</rdf:li>
            </rdf:Bag>
         </bsam:assetOwner>
         <bsam:industry>
            <rdf:Bag>
               <rdf:li>enterprise:industry/generic-all-industries</rdf:li>
            </rdf:Bag>
         </bsam:industry>
         <bsam:subDigitalAssetType>
            <rdf:Bag>
               <rdf:li>enterprise:digital-asset-type/image/icon</rdf:li>
            </rdf:Bag>
         </bsam:subDigitalAssetType>
         <bsam:usageCountry>
            <rdf:Bag>
               <rdf:li>enterprise:region-country/global</rdf:li>
            </rdf:Bag>
         </bsam:usageCountry>
         <tiff:ImageLength>302</tiff:ImageLength>
         <tiff:ImageWidth>302</tiff:ImageWidth>
         <prism:Date>2025-09-08T19:16:00.000+02:00</prism:Date>
         <dc:modified>2025-09-09T17:17:18.907Z</dc:modified>
         <dc:format>image/svg+xml</dc:format>
      </rdf:Description>
   </rdf:RDF>
</x:xmpmeta>
                                                                                                    
                                                                                                    
                                                                                                    
                                                                                                    
                                                                                                    
                                                                                                    
                                                                                                    
                                                                                                    
                                                                                                    
                                                                                                    
                                                                                                    
                                                                                                    
                                                                                                    
                                                                                                    
                                                                                                    
                                                                                                    
                                                                                                    
                                                                                                    
                                                                            
<?xpacket end="w"?></metadata>
<g>
	<path d="M151.2,161.4c-11.9,0-20.3,5.2-20.3,14.4v0.3c0,8.1,7.5,14.6,20.3,14.6s20.3-6.4,20.3-14.6v-0.3
		C171.5,166.6,163.1,161.4,151.2,161.4z"/>
	<path d="M151.2,140.9c10.2,0,16.8-6,16.8-14.3v-0.3c0-7.2-6-13.8-16.8-13.8s-16.8,6.4-16.8,13.6v0.3
		C134.4,134.7,141,140.9,151.2,140.9z"/>
	<path d="M151.2,45.2c-58.4,0-106,47.5-106,106c0,58.4,47.5,106,106,106s106-47.5,106-106C257.2,92.8,209.6,45.2,151.2,45.2z
		 M196.5,177.5c0,21.8-19.3,34.6-45.3,34.6s-45.3-13.4-45.3-33.9v-0.3c0-14.3,6.4-22.5,19-28.4c-9.2-5.5-14.9-12.9-14.9-25.7v-0.3
		c0-18,16.5-32.2,41.3-32.2s41.3,14.1,41.3,32.2v0.3c0,12.8-5.7,20.1-14.9,25.7c11.9,6.2,19,13.8,19,27.7v0.3H196.5z"/>
</g>
</svg>
