<?xml version="1.0" encoding="UTF-8"?>
<svg id="Layer_1" xmlns="http://www.w3.org/2000/svg" version="1.1" viewBox="0 0 302.5 302.5">
  <!-- Generator: Adobe Illustrator 29.6.0, SVG Export Plug-In . SVG Version: 2.1.1 Build 207)  -->
  <metadata><?xpacket begin="﻿" id="W5M0MpCehiHzreSzNTczkc9d"?>
<x:xmpmeta xmlns:x="adobe:ns:meta/" x:xmptk="Adobe XMP Core 8.0-c001 1.000000, 0000/00/00-00:00:00        ">
   <rdf:RDF xmlns:rdf="http://www.w3.org/1999/02/22-rdf-syntax-ns#">
      <rdf:Description rdf:about=""
            xmlns:dc="http://purl.org/dc/elements/1.1/"
            xmlns:prism="http://prismstandard.org/namespaces/basic/2.1/"
            xmlns:tiff="http://ns.adobe.com/tiff/1.0/"
            xmlns:bsam="http://www.bsam.blog">
         <dc:modified>2025-09-09T17:05:35.194Z</dc:modified>
         <dc:format>image/svg+xml</dc:format>
         <prism:Date>2025-09-08T19:16:00.000+02:00</prism:Date>
         <tiff:ImageWidth>303</tiff:ImageWidth>
         <tiff:ImageLength>303</tiff:ImageLength>
         <bsam:rightsLimitedUnlimited>unlimited</bsam:rightsLimitedUnlimited>
         <bsam:subDigitalAssetType>
            <rdf:Bag>
               <rdf:li>enterprise:digital-asset-type/image/icon</rdf:li>
            </rdf:Bag>
         </bsam:subDigitalAssetType>
         <bsam:industry>
            <rdf:Bag>
               <rdf:li>enterprise:industry/generic-all-industries</rdf:li>
            </rdf:Bag>
         </bsam:industry>
         <bsam:assetOwner>
            <rdf:Bag>
               <rdf:li>enterprise:business-unit/webfleet</rdf:li>
            </rdf:Bag>
         </bsam:assetOwner>
         <bsam:usageCountry>
            <rdf:Bag>
               <rdf:li>enterprise:region-country/global</rdf:li>
            </rdf:Bag>
         </bsam:usageCountry>
      </rdf:Description>
   </rdf:RDF>
</x:xmpmeta>
                                                                                                    
                                                                                                    
                                                                                                    
                                                                                                    
                                                                                                    
                                                                                                    
                                                                                                    
                                                                                                    
                                                                                                    
                           
<?xpacket end="w"?></metadata>
<g>
    <g>
      <path d="M218.7,153.9c0-6.6-27.6-38.1-68.6-38.1s-68.6,31.6-68.6,38.1,27.6,38.1,68.6,38.1,68.6-31.6,68.6-38.1ZM180.6,153.9c0,16.8-13.6,30.5-30.5,30.5s-30.5-13.7-30.5-30.5,13.6-30.5,30.5-30.5c16.8,0,30.5,13.7,30.5,30.5ZM89.3,153.9c2.1-4.1,13.6-17.1,32-24.7-12.5,14.1-12.5,35.3,0,49.5-18.4-7.6-29.9-20.6-32-24.7ZM178.9,178.6c12.5-14.1,12.5-35.3,0-49.5,18.5,7.6,29.9,20.6,32,24.7-2.1,4.1-13.6,17.1-32,24.7Z"/>
      <path d="M150.1,193.1c-41.7,0-69.7-32.5-69.7-39.3s28-39.3,69.7-39.3,69.8,32.5,69.8,39.3-28,39.3-69.8,39.3ZM150.1,116.9c-40.3,0-67.4,30.6-67.4,37s27.1,37,67.4,37,67.4-30.6,67.4-37-27.1-37-67.4-37ZM150.1,185.5c-17.4,0-31.6-14.2-31.6-31.6s14.2-31.6,31.6-31.6c17.4,0,31.6,14.2,31.6,31.6h0c0,17.4-14.2,31.6-31.6,31.6ZM150.1,124.5c-16.2,0-29.3,13.2-29.3,29.3s13.2,29.3,29.3,29.3,29.3-13.2,29.3-29.3c0-16.2-13.2-29.3-29.3-29.3ZM174.7,181.6l3.3-3.7c12.1-13.7,12.1-34.3,0-47.9l-3.3-3.7,4.6,1.9c19,7.8,30.6,21.3,32.6,25.3l.3.5-.3.5c-2.1,4-13.6,17.4-32.6,25.3l-4.6,1.9ZM182.6,132.1c9,13.1,9,30.5,0,43.6,15.2-7.3,24.6-17.8,27-21.8-2.4-4-11.8-14.5-27-21.8ZM125.5,181.6l-4.6-1.9c-19-7.8-30.5-21.3-32.6-25.3l-.3-.5.3-.5c2.1-4,13.6-17.4,32.6-25.3l4.6-1.9-3.3,3.7c-12.1,13.7-12.1,34.3,0,47.9l3.3,3.7ZM90.7,153.9c2.4,4,11.8,14.5,26.9,21.8-9-13.1-9-30.5,0-43.6-15.1,7.3-24.5,17.8-26.9,21.8Z"/>
    </g>
    <path d="M150.1,170.3c-9,0-16.4-7.4-16.4-16.4,0-9,7.4-16.4,16.4-16.4h0c9,0,16.4,7.4,16.4,16.4s-7.4,16.4-16.4,16.4Z"/>
  </g>
  <path d="M235.7,113h20.4v-39.9c0-9-7.3-16.2-16.2-16.2h-39.9v20.4h35.8v35.8Z"/>
  <path d="M103.1,77.1v-20.4s-39.9,0-39.9,0c-9,0-16.2,7.3-16.2,16.2v39.9s20.4,0,20.4,0v-35.8h35.8Z"/>
  <path d="M67.3,190h-20.4s0,39.9,0,39.9c0,9,7.3,16.2,16.2,16.2h39.9s0-20.4,0-20.4h-35.8v-35.8Z"/>
  <path d="M199.9,225.9v20.4s39.9,0,39.9,0c9,0,16.2-7.3,16.2-16.2v-39.9s-20.4,0-20.4,0v35.8h-35.8Z"/>
</svg>