<?xml version="1.0" encoding="utf-8"?>
<!-- Generator: Adobe Illustrator 26.3.1, SVG Export Plug-In . SVG Version: 6.00 Build 0)  -->
<svg version="1.1" id="Layer_1" xmlns="http://www.w3.org/2000/svg" xmlns:xlink="http://www.w3.org/1999/xlink" x="0px" y="0px"
	 viewBox="0 0 302.4 302.4" style="enable-background:new 0 0 302.4 302.4;" xml:space="preserve">
<metadata><?xpacket begin="﻿" id="W5M0MpCehiHzreSzNTczkc9d"?>
<x:xmpmeta xmlns:x="adobe:ns:meta/" x:xmptk="Adobe XMP Core 8.0-c001 1.000000, 0000/00/00-00:00:00        ">
   <rdf:RDF xmlns:rdf="http://www.w3.org/1999/02/22-rdf-syntax-ns#">
      <rdf:Description rdf:about=""
            xmlns:dc="http://purl.org/dc/elements/1.1/"
            xmlns:prism="http://prismstandard.org/namespaces/basic/2.1/"
            xmlns:tiff="http://ns.adobe.com/tiff/1.0/"
            xmlns:bsam="http://www.bsam.blog">
         <dc:modified>2025-09-09T17:07:15.915Z</dc:modified>
         <dc:format>image/svg+xml</dc:format>
         <prism:Date>2025-09-08T19:16:00.000+02:00</prism:Date>
         <tiff:ImageWidth>302</tiff:ImageWidth>
         <tiff:ImageLength>302</tiff:ImageLength>
         <bsam:rightsLimitedUnlimited>unlimited</bsam:rightsLimitedUnlimited>
         <bsam:subDigitalAssetType>
            <rdf:Bag>
               <rdf:li>enterprise:digital-asset-type/image/icon</rdf:li>
            </rdf:Bag>
         </bsam:subDigitalAssetType>
         <bsam:industry>
            <rdf:Bag>
               <rdf:li>enterprise:industry/generic-all-industries</rdf:li>
            </rdf:Bag>
         </bsam:industry>
         <bsam:assetOwner>
            <rdf:Bag>
               <rdf:li>enterprise:business-unit/webfleet</rdf:li>
            </rdf:Bag>
         </bsam:assetOwner>
         <bsam:usageCountry>
            <rdf:Bag>
               <rdf:li>enterprise:region-country/global</rdf:li>
            </rdf:Bag>
         </bsam:usageCountry>
      </rdf:Description>
   </rdf:RDF>
</x:xmpmeta>
                                                                                                    
                                                                                                    
                                                                                                    
                                                                                                    
                                                                                                    
                                                                                                    
                                                                                                    
                                                                                                    
                                                                                                    
                           
<?xpacket end="w"?></metadata>
<g>
	<path d="M157.8,142.9h-9.3v18.7h9.6c6.1,0,9.6-4,9.6-9.2v-0.2C167.6,146.1,163.9,142.9,157.8,142.9z"/>
	<path d="M226.9,214.8L226.9,214.8c0-2.9-2.1-4.5-5.5-4.5h-6.8v8.9h6.8C224.8,219.2,226.9,217.5,226.9,214.8z"/>
	<polygon points="98.7,146.6 91.4,166.4 106,166.4 	"/>
	<path d="M232.7,49.3H69.7c-11.2,0-20.4,9.2-20.4,20.4v163c0,11.2,9.2,20.4,20.4,20.4h162.9c11.2,0,20.4-9.2,20.4-20.4v-163
		C253,58.5,243.9,49.3,232.7,49.3z M69.7,191.9l23.6-61.2h11.2l23.5,61.1h-12.6l-5-13.7H87.1l-5,13.7L69.7,191.9L69.7,191.9z
		 M83.3,233.1c-7.7,0-13.5-6-13.5-13.6v-0.1c0-7.5,5.7-13.7,13.7-13.7c4.9,0,7.8,1.7,10.4,4.1l-3,3.4c-2.1-2-4.4-3.3-7.4-3.3
		c-5,0-8.8,4.2-8.8,9.4v0.1c0,5.2,3.7,9.4,8.8,9.4c3.3,0,5.3-1.3,7.6-3.4l3,3C91.3,231.2,88.3,233.1,83.3,233.1z M119.9,232.6H100
		v-26.5h19.7v4.2h-15v6.9H118v4.2h-13.3v7.1h15.2C119.9,228.4,119.9,232.6,119.9,232.6z M150,232.6h-3.9l-14.6-18.9v18.9h-4.6v-26.5
		h4.3l14.2,18.4v-18.4h4.6V232.6z M177.3,210.4h-8.4v22.2h-4.7v-22.2h-8.4v-4.3h21.5V210.4z M179.9,152.1c0,14.1-9.9,21.5-22.2,21.5
		h-9.2v18.4h-12.1v-61.1h22.4c13.1,0,21.1,8.6,21.1,21.1L179.9,152.1L179.9,152.1z M202.9,232.6h-19.9v-26.5h19.7v4.2h-15v6.9h13.3
		v4.2h-13.3v7.1H203L202.9,232.6L202.9,232.6z M227,232.6l-6.5-9.2h-5.8v9.2h-4.7v-26.5h11.8c3.3,0,5.9,1,7.7,2.6
		c1.4,1.4,2.2,3.4,2.2,5.7v0.1c0,4.4-2.6,7-6.3,8l7.2,10.1L227,232.6L227,232.6z M232.6,152.1c0,14.1-9.9,21.5-22.2,21.5h-9.2v18.4
		h-12.1v-61.1h22.5c13.1,0,21,8.6,21,21.1V152.1z"/>
	<path d="M210.6,142.9h-9.3v18.7h9.6c6,0,9.6-4,9.6-9.2v-0.2C220.4,146.1,216.6,142.9,210.6,142.9z"/>
</g>
</svg>
