<?xml version="1.0" encoding="utf-8"?>
<!-- Generator: Adobe Illustrator 26.3.1, SVG Export Plug-In . SVG Version: 6.00 Build 0)  -->
<svg version="1.1" id="Layer_1" xmlns="http://www.w3.org/2000/svg" xmlns:xlink="http://www.w3.org/1999/xlink" x="0px" y="0px"
	 viewBox="0 0 302.4 302.4" style="enable-background:new 0 0 302.4 302.4;" xml:space="preserve">
<metadata><?xpacket begin="﻿" id="W5M0MpCehiHzreSzNTczkc9d"?>
<x:xmpmeta xmlns:x="adobe:ns:meta/" x:xmptk="Adobe XMP Core 8.0-c001 1.000000, 0000/00/00-00:00:00        ">
   <rdf:RDF xmlns:rdf="http://www.w3.org/1999/02/22-rdf-syntax-ns#">
      <rdf:Description rdf:about=""
            xmlns:dc="http://purl.org/dc/elements/1.1/"
            xmlns:prism="http://prismstandard.org/namespaces/basic/2.1/"
            xmlns:tiff="http://ns.adobe.com/tiff/1.0/"
            xmlns:bsam="http://www.bsam.blog">
         <dc:modified>2025-09-09T17:04:11.795Z</dc:modified>
         <dc:format>image/svg+xml</dc:format>
         <prism:Date>2025-09-08T19:16:00.000+02:00</prism:Date>
         <tiff:ImageWidth>302</tiff:ImageWidth>
         <tiff:ImageLength>302</tiff:ImageLength>
         <bsam:rightsLimitedUnlimited>unlimited</bsam:rightsLimitedUnlimited>
         <bsam:subDigitalAssetType>
            <rdf:Bag>
               <rdf:li>enterprise:digital-asset-type/image/icon</rdf:li>
            </rdf:Bag>
         </bsam:subDigitalAssetType>
         <bsam:industry>
            <rdf:Bag>
               <rdf:li>enterprise:industry/generic-all-industries</rdf:li>
            </rdf:Bag>
         </bsam:industry>
         <bsam:assetOwner>
            <rdf:Bag>
               <rdf:li>enterprise:business-unit/webfleet</rdf:li>
            </rdf:Bag>
         </bsam:assetOwner>
         <bsam:usageCountry>
            <rdf:Bag>
               <rdf:li>enterprise:region-country/global</rdf:li>
            </rdf:Bag>
         </bsam:usageCountry>
      </rdf:Description>
   </rdf:RDF>
</x:xmpmeta>
                                                                                                    
                                                                                                    
                                                                                                    
                                                                                                    
                                                                                                    
                                                                                                    
                                                                                                    
                                                                                                    
                                                                                                    
                           
<?xpacket end="w"?></metadata>
<g>
	<path d="M157.8,173.4h-9.3V192h9.6c6,0,9.6-4,9.6-9.2v-0.2C167.6,176.6,163.8,173.4,157.8,173.4z"/>
	<polygon points="98.8,177.1 91.5,196.8 106.1,196.8 	"/>
	<path d="M232.4,49.6H69.9c-11.2,0-20.3,9.1-20.3,20.3v162.5c0,11.2,9.1,20.3,20.3,20.3h162.5c11.2,0,20.3-9.1,20.3-20.3V69.9
		C252.8,58.8,243.6,49.6,232.4,49.6z M69.9,222.3l23.5-61h11.1l23.5,61h-12.6l-5-13.7H87.2l-5,13.7H69.9z M179.8,182.6
		c0,14.1-9.9,21.4-22.2,21.4h-9.2v18.3h-12.1v-61h22.4c13.1,0,21,8.6,21,21.1V182.6z M232.4,182.6c0,14.1-9.9,21.4-22.2,21.4h-9.2
		v18.3h-12.1v-61h22.4c13.1,0,21,8.6,21,21.1L232.4,182.6L232.4,182.6z"/>
	<path d="M210.4,173.4h-9.3V192h9.6c6,0,9.6-4,9.6-9.2v-0.2C220.2,176.6,216.5,173.4,210.4,173.4z"/>
</g>
</svg>
