<?xml version="1.0" encoding="UTF-8"?>
<svg id="Layer_1" xmlns="http://www.w3.org/2000/svg" width="106.7mm" height="106.7mm" version="1.1" viewBox="0 0 302.4 302.4">
  <!-- Generator: Adobe Illustrator 29.5.0, SVG Export Plug-In . SVG Version: 2.1.0 Build 137)  -->
  <metadata><?xpacket begin="﻿" id="W5M0MpCehiHzreSzNTczkc9d"?>
<x:xmpmeta xmlns:x="adobe:ns:meta/" x:xmptk="Adobe XMP Core 8.0-c001 1.000000, 0000/00/00-00:00:00        ">
   <rdf:RDF xmlns:rdf="http://www.w3.org/1999/02/22-rdf-syntax-ns#">
      <rdf:Description rdf:about=""
            xmlns:dc="http://purl.org/dc/elements/1.1/"
            xmlns:prism="http://prismstandard.org/namespaces/basic/2.1/"
            xmlns:tiff="http://ns.adobe.com/tiff/1.0/"
            xmlns:bsam="http://www.bsam.blog">
         <dc:modified>2025-09-09T17:04:41.273Z</dc:modified>
         <dc:format>image/svg+xml</dc:format>
         <prism:Date>2025-09-08T19:16:00.000+02:00</prism:Date>
         <tiff:ImageWidth>403</tiff:ImageWidth>
         <tiff:ImageLength>403</tiff:ImageLength>
         <bsam:rightsLimitedUnlimited>unlimited</bsam:rightsLimitedUnlimited>
         <bsam:subDigitalAssetType>
            <rdf:Bag>
               <rdf:li>enterprise:digital-asset-type/image/icon</rdf:li>
            </rdf:Bag>
         </bsam:subDigitalAssetType>
         <bsam:industry>
            <rdf:Bag>
               <rdf:li>enterprise:industry/generic-all-industries</rdf:li>
            </rdf:Bag>
         </bsam:industry>
         <bsam:assetOwner>
            <rdf:Bag>
               <rdf:li>enterprise:business-unit/webfleet</rdf:li>
            </rdf:Bag>
         </bsam:assetOwner>
         <bsam:usageCountry>
            <rdf:Bag>
               <rdf:li>enterprise:region-country/global</rdf:li>
            </rdf:Bag>
         </bsam:usageCountry>
      </rdf:Description>
   </rdf:RDF>
</x:xmpmeta>
                                                                                                    
                                                                                                    
                                                                                                    
                                                                                                    
                                                                                                    
                                                                                                    
                                                                                                    
                                                                                                    
                                                                                                    
                           
<?xpacket end="w"?></metadata>
<g>
    <path d="M154.9,185.8l-4.8-13.9h-29.4l-4.8,13.9h-12.3l25.1-69.1h13.6l25,69.1h-12.2ZM124.4,161.2h21.9l-11-31.2-11,31.2Z"/>
    <path d="M174.5,116.7h11.4v69.1h-11.4v-69.1Z"/>
  </g>
  <g id="_01">
    <path d="M251.8,120.4c4.3,0,7.7-3.5,7.7-7.7s-3.5-7.7-7.7-7.7h-23.2v-7.7c0-12.8-10.4-23.1-23.2-23.2h-7.7v-23.2c0-4.3-3.5-7.7-7.7-7.7s-7.7,3.5-7.7,7.7v23.2h-23.2v-23.2c0-4.3-3.5-7.7-7.7-7.7s-7.7,3.5-7.7,7.7v23.2h-23.2v-23.2c0-4.3-3.5-7.7-7.7-7.7s-7.7,3.5-7.7,7.7v23.2h-7.7c-12.8,0-23.1,10.4-23.2,23.2v7.7h-23.2c-4.3,0-7.7,3.5-7.7,7.7s3.5,7.7,7.7,7.7h23.2v23.2h-23.2c-4.3,0-7.7,3.5-7.7,7.7s3.5,7.7,7.7,7.7h23.2v23.2h-23.2c-4.3,0-7.7,3.5-7.7,7.7s3.5,7.7,7.7,7.7h23.2v7.7c0,12.8,10.4,23.1,23.2,23.2h7.7v23.2c0,4.3,3.5,7.7,7.7,7.7s7.7-3.5,7.7-7.7v-23.2h23.2v23.2c0,4.3,3.5,7.7,7.7,7.7s7.7-3.5,7.7-7.7v-23.2h23.2v23.2c0,4.3,3.5,7.7,7.7,7.7s7.7-3.5,7.7-7.7v-23.2h7.7c12.8,0,23.1-10.4,23.2-23.2v-7.7h23.2c4.3,0,7.7-3.5,7.7-7.7s-3.5-7.7-7.7-7.7h-23.2v-23.2h23.2c4.3,0,7.7-3.5,7.7-7.7s-3.5-7.7-7.7-7.7h-23.2v-23.2h23.2ZM213.2,205.3c0,4.3-3.5,7.7-7.7,7.7h-108.1c-4.3,0-7.7-3.5-7.7-7.7v-108.1c0-4.3,3.5-7.7,7.7-7.7h108.1c4.3,0,7.7,3.5,7.7,7.7v108.1Z"/>
  </g>
</svg>