<?xml version="1.0" encoding="utf-8"?>
<!-- Generator: Adobe Illustrator 26.3.1, SVG Export Plug-In . SVG Version: 6.00 Build 0)  -->
<svg version="1.1" id="Layer_1" xmlns="http://www.w3.org/2000/svg" xmlns:xlink="http://www.w3.org/1999/xlink" x="0px" y="0px"
	 viewBox="0 0 302.4 302.4" style="enable-background:new 0 0 302.4 302.4;" xml:space="preserve">
<metadata><?xpacket begin="﻿" id="W5M0MpCehiHzreSzNTczkc9d"?>
<x:xmpmeta xmlns:x="adobe:ns:meta/" x:xmptk="Adobe XMP Core 8.0-c001 1.000000, 0000/00/00-00:00:00        ">
   <rdf:RDF xmlns:rdf="http://www.w3.org/1999/02/22-rdf-syntax-ns#">
      <rdf:Description rdf:about=""
            xmlns:dc="http://purl.org/dc/elements/1.1/"
            xmlns:prism="http://prismstandard.org/namespaces/basic/2.1/"
            xmlns:tiff="http://ns.adobe.com/tiff/1.0/"
            xmlns:bsam="http://www.bsam.blog">
         <dc:modified>2025-09-09T17:11:40.330Z</dc:modified>
         <dc:format>image/svg+xml</dc:format>
         <prism:Date>2025-09-08T19:16:00.000+02:00</prism:Date>
         <tiff:ImageWidth>302</tiff:ImageWidth>
         <tiff:ImageLength>302</tiff:ImageLength>
         <bsam:rightsLimitedUnlimited>unlimited</bsam:rightsLimitedUnlimited>
         <bsam:subDigitalAssetType>
            <rdf:Bag>
               <rdf:li>enterprise:digital-asset-type/image/icon</rdf:li>
            </rdf:Bag>
         </bsam:subDigitalAssetType>
         <bsam:industry>
            <rdf:Bag>
               <rdf:li>enterprise:industry/generic-all-industries</rdf:li>
            </rdf:Bag>
         </bsam:industry>
         <bsam:assetOwner>
            <rdf:Bag>
               <rdf:li>enterprise:business-unit/webfleet</rdf:li>
            </rdf:Bag>
         </bsam:assetOwner>
         <bsam:usageCountry>
            <rdf:Bag>
               <rdf:li>enterprise:region-country/global</rdf:li>
            </rdf:Bag>
         </bsam:usageCountry>
      </rdf:Description>
   </rdf:RDF>
</x:xmpmeta>
                                                                                                    
                                                                                                    
                                                                                                    
                                                                                                    
                                                                                                    
                                                                                                    
                                                                                                    
                                                                                                    
                                                                                                    
                           
<?xpacket end="w"?></metadata>
<g>
	<path d="M198.4,105.9c-1.5-5.5-5.5-11.6-9-13.6s-6.3-3.6-6.3-3.6l-27-36.2c-3.4-4.5-10.6-7-16.1-5.6l-34.8,9.3l-34.8,9.3
		c-5.5,1.5-10.5,7.2-11.2,12.9l-5.3,44.8l-3.6,6.3c-2,3.5-2.4,10.8-1,16.2l16,59.6c1.5,5.5,7.1,8.8,12.6,7.3l9.9-2.7
		c5.5-1.5,8.8-7.1,7.3-12.6l-2.7-9.9l49.7-13.3l28.9-7.8l11-22.2c3.9-7.9,11.9-12.8,20.7-12.8c0.9,0,1.7,0.1,2.5,0.2L198.4,105.9z
		 M74.4,160.4c-5.5,1.5-11.1-1.8-12.6-7.3c-1.5-5.5,1.8-11.1,7.3-12.6c5.5-1.5,11.1,1.8,12.6,7.3C83.2,153.3,79.9,159,74.4,160.4z
		 M64.5,120.5l4.9-40.7c0.2-1.4,2.2-3.8,3.6-4.2l34.8-9.3l34.8-9.3c1.4-0.4,4.3,0.6,5.2,1.8l24.6,32.8L64.5,120.5z M159.3,159
		l-49.7,13.3c-2.7,0.7-5.6-0.9-6.3-3.6c-0.7-2.7,0.9-5.6,3.6-6.3l49.7-13.3c2.7-0.7,5.6,0.9,6.3,3.6
		C163.7,155.5,162,158.3,159.3,159z M182.7,131.5c-5.5,1.5-11.1-1.8-12.6-7.3c-1.5-5.5,1.8-11.1,7.3-12.6s11.1,1.8,12.6,7.3
		C191.4,124.4,188.2,130,182.7,131.5z"/>
	<g>
		<path d="M261.4,231.2L261.4,231.2l-45-83.7c-2.6-4.9-7.7-8.3-13.7-8.3c-6.1,0-11.3,3.5-13.8,8.6l-44.7,83.2
			c-1.8,3-3.2,5.9-3.2,9.5c0,8.5,6.9,15.4,15.4,15.4h93l0,0c8.3-0.2,15.1-7,15.1-15.4C264.5,236.9,263.1,234.1,261.4,231.2z
			 M202.7,244.2c-5.7,0-10.3-4.6-10.3-10.3s4.6-10.3,10.3-10.3c5.7,0,10.3,4.6,10.3,10.3C213,239.6,208.4,244.2,202.7,244.2z
			 M212.8,176.9l-2.4,29.2c0,4.3-3.4,7.7-7.7,7.7c-4.3,0-7.7-3.5-7.7-7.7l-2.4-29.2c-0.1-0.6-0.2-1.1-0.2-1.8
			c0-5.7,4.6-10.3,10.3-10.3c5.7,0,10.3,4.6,10.3,10.3C213,175.7,212.9,176.3,212.8,176.9z"/>
	</g>
</g>
</svg>
