<?xml version="1.0" encoding="utf-8"?>
<!-- Generator: Adobe Illustrator 26.3.1, SVG Export Plug-In . SVG Version: 6.00 Build 0)  -->
<svg version="1.1" id="Layer_1" xmlns="http://www.w3.org/2000/svg" xmlns:xlink="http://www.w3.org/1999/xlink" x="0px" y="0px"
	 viewBox="0 0 302.4 302.4" style="enable-background:new 0 0 302.4 302.4;" xml:space="preserve">
<metadata><?xpacket begin="﻿" id="W5M0MpCehiHzreSzNTczkc9d"?>
<x:xmpmeta xmlns:x="adobe:ns:meta/" x:xmptk="Adobe XMP Core 8.0-c001 1.000000, 0000/00/00-00:00:00        ">
   <rdf:RDF xmlns:rdf="http://www.w3.org/1999/02/22-rdf-syntax-ns#">
      <rdf:Description rdf:about=""
            xmlns:dc="http://purl.org/dc/elements/1.1/"
            xmlns:prism="http://prismstandard.org/namespaces/basic/2.1/"
            xmlns:tiff="http://ns.adobe.com/tiff/1.0/"
            xmlns:bsam="http://www.bsam.blog">
         <dc:modified>2025-09-09T17:04:05.130Z</dc:modified>
         <dc:format>image/svg+xml</dc:format>
         <prism:Date>2025-09-08T19:16:00.000+02:00</prism:Date>
         <tiff:ImageWidth>302</tiff:ImageWidth>
         <tiff:ImageLength>302</tiff:ImageLength>
         <bsam:rightsLimitedUnlimited>unlimited</bsam:rightsLimitedUnlimited>
         <bsam:subDigitalAssetType>
            <rdf:Bag>
               <rdf:li>enterprise:digital-asset-type/image/icon</rdf:li>
            </rdf:Bag>
         </bsam:subDigitalAssetType>
         <bsam:industry>
            <rdf:Bag>
               <rdf:li>enterprise:industry/generic-all-industries</rdf:li>
            </rdf:Bag>
         </bsam:industry>
         <bsam:assetOwner>
            <rdf:Bag>
               <rdf:li>enterprise:business-unit/webfleet</rdf:li>
            </rdf:Bag>
         </bsam:assetOwner>
         <bsam:usageCountry>
            <rdf:Bag>
               <rdf:li>enterprise:region-country/global</rdf:li>
            </rdf:Bag>
         </bsam:usageCountry>
      </rdf:Description>
   </rdf:RDF>
</x:xmpmeta>
                                                                                                    
                                                                                                    
                                                                                                    
                                                                                                    
                                                                                                    
                                                                                                    
                                                                                                    
                                                                                                    
                                                                                                    
                           
<?xpacket end="w"?></metadata>
<path d="M234.7,244h-167c-10.2,0-18.5-8.3-18.5-18.6v-37.1c0-10.2,8.3-18.6,18.5-18.6h167c10.2,0,18.6,8.3,18.6,18.6v37.1
	C253.2,235.7,244.9,244,234.7,244z M104.8,137.7c0.1,3.4,2.1,6.4,5.2,7.6c3,1.3,6.4,0.6,8.8-1.6c18-17.7,46.9-17.7,64.9,0
	c2.3,2.2,5.8,2.9,8.8,1.6c3-1.4,5-4.4,5.1-7.7c0-2.2-0.9-4.2-2.6-5.7c-24.4-23.7-63.2-23.7-87.7,0
	C105.7,133.4,104.8,135.4,104.8,137.7L104.8,137.7 M81.6,119.4c0.1,3.4,2.2,6.5,5.3,7.8c3,1.3,6.6,0.6,8.9-1.7
	c30.8-29.9,79.8-29.9,110.6,0c2.3,2.3,5.9,3,8.9,1.7c3.2-1.3,5.3-4.4,5.3-7.8c0-2.2-0.9-4.3-2.6-5.8c-37.3-36.3-96.7-36.3-134.1,0
	C82.5,115.1,81.6,117.2,81.6,119.4L81.6,119.4 M63.1,99.3c0.1,3.4,2.1,6.4,5.2,7.7c3,1.3,6.4,0.6,8.7-1.7
	c41.2-40.5,107.2-40.5,148.4,0c2.3,2.3,5.7,2.9,8.7,1.7c3.2-1.3,5.2-4.4,5.2-7.8c0-2.1-0.9-4.2-2.5-5.7
	c-47.5-46.8-123.8-46.8-171.4,0C63.9,95,63,97.1,63.1,99.3L63.1,99.3"/>
</svg>
