<?xml version="1.0" encoding="UTF-8"?>
<svg id="Layer_1" xmlns="http://www.w3.org/2000/svg" width="106.7mm" height="106.7mm" version="1.1" viewBox="0 0 302.4 302.4">
  <!-- Generator: Adobe Illustrator 29.5.0, SVG Export Plug-In . SVG Version: 2.1.0 Build 137)  -->
  <metadata><?xpacket begin="﻿" id="W5M0MpCehiHzreSzNTczkc9d"?>
<x:xmpmeta xmlns:x="adobe:ns:meta/" x:xmptk="Adobe XMP Core 8.0-c001 1.000000, 0000/00/00-00:00:00        ">
   <rdf:RDF xmlns:rdf="http://www.w3.org/1999/02/22-rdf-syntax-ns#">
      <rdf:Description rdf:about=""
            xmlns:dc="http://purl.org/dc/elements/1.1/"
            xmlns:prism="http://prismstandard.org/namespaces/basic/2.1/"
            xmlns:tiff="http://ns.adobe.com/tiff/1.0/"
            xmlns:bsam="http://www.bsam.blog">
         <dc:modified>2025-09-09T17:06:35.486Z</dc:modified>
         <dc:format>image/svg+xml</dc:format>
         <prism:Date>2025-09-08T19:16:00.000+02:00</prism:Date>
         <tiff:ImageWidth>403</tiff:ImageWidth>
         <tiff:ImageLength>403</tiff:ImageLength>
         <bsam:rightsLimitedUnlimited>unlimited</bsam:rightsLimitedUnlimited>
         <bsam:subDigitalAssetType>
            <rdf:Bag>
               <rdf:li>enterprise:digital-asset-type/image/icon</rdf:li>
            </rdf:Bag>
         </bsam:subDigitalAssetType>
         <bsam:industry>
            <rdf:Bag>
               <rdf:li>enterprise:industry/generic-all-industries</rdf:li>
            </rdf:Bag>
         </bsam:industry>
         <bsam:assetOwner>
            <rdf:Bag>
               <rdf:li>enterprise:business-unit/webfleet</rdf:li>
            </rdf:Bag>
         </bsam:assetOwner>
         <bsam:usageCountry>
            <rdf:Bag>
               <rdf:li>enterprise:region-country/global</rdf:li>
            </rdf:Bag>
         </bsam:usageCountry>
      </rdf:Description>
   </rdf:RDF>
</x:xmpmeta>
                                                                                                    
                                                                                                    
                                                                                                    
                                                                                                    
                                                                                                    
                                                                                                    
                                                                                                    
                                                                                                    
                                                                                                    
                           
<?xpacket end="w"?></metadata>
<path d="M248,181.5c4.5-.7,4.5-6.8,0-7.6-48.1-8.2-60.6-20.2-69.3-66.1-.7-4.3-7.1-4.3-7.9,0-8.7,45.9-21.2,57.9-69.3,66.1-4.5.7-4.5,6.8,0,7.6,48.1,8.2,60.6,20.2,69.3,66.1.8,4.3,7.1,4.3,7.9,0,8.7-45.9,21.2-57.9,69.3-66.1"/>
  <path d="M128,101.3c2.7-.4,2.7-4.2,0-4.6-23.6-4.3-30.3-10.6-34.7-33.1-.5-2.6-4.4-2.6-4.9,0-4.5,22.4-11.2,28.8-34.7,33.1-2.7.4-2.7,4.2,0,4.6,23.6,4.3,30.3,10.6,34.7,33.1.5,2.6,4.4,2.6,4.9,0,4.5-22.4,11.2-28.8,34.7-33.1"/>
</svg>