<?xml version="1.0" encoding="UTF-8"?>
<svg id="Layer_1" xmlns="http://www.w3.org/2000/svg" width="106.7mm" height="106.7mm" version="1.1" viewBox="0 0 302.4 302.4">
  <!-- Generator: Adobe Illustrator 29.5.0, SVG Export Plug-In . SVG Version: 2.1.0 Build 137)  -->
  <metadata><?xpacket begin="﻿" id="W5M0MpCehiHzreSzNTczkc9d"?>
<x:xmpmeta xmlns:x="adobe:ns:meta/" x:xmptk="Adobe XMP Core 8.0-c001 1.000000, 0000/00/00-00:00:00        ">
   <rdf:RDF xmlns:rdf="http://www.w3.org/1999/02/22-rdf-syntax-ns#">
      <rdf:Description rdf:about=""
            xmlns:dc="http://purl.org/dc/elements/1.1/"
            xmlns:prism="http://prismstandard.org/namespaces/basic/2.1/"
            xmlns:tiff="http://ns.adobe.com/tiff/1.0/"
            xmlns:bsam="http://www.bsam.blog">
         <dc:modified>2025-09-09T17:09:20.333Z</dc:modified>
         <dc:format>image/svg+xml</dc:format>
         <prism:Date>2025-09-08T19:16:00.000+02:00</prism:Date>
         <tiff:ImageWidth>403</tiff:ImageWidth>
         <tiff:ImageLength>403</tiff:ImageLength>
         <bsam:rightsLimitedUnlimited>unlimited</bsam:rightsLimitedUnlimited>
         <bsam:subDigitalAssetType>
            <rdf:Bag>
               <rdf:li>enterprise:digital-asset-type/image/icon</rdf:li>
            </rdf:Bag>
         </bsam:subDigitalAssetType>
         <bsam:industry>
            <rdf:Bag>
               <rdf:li>enterprise:industry/generic-all-industries</rdf:li>
            </rdf:Bag>
         </bsam:industry>
         <bsam:assetOwner>
            <rdf:Bag>
               <rdf:li>enterprise:business-unit/webfleet</rdf:li>
            </rdf:Bag>
         </bsam:assetOwner>
         <bsam:usageCountry>
            <rdf:Bag>
               <rdf:li>enterprise:region-country/global</rdf:li>
            </rdf:Bag>
         </bsam:usageCountry>
      </rdf:Description>
   </rdf:RDF>
</x:xmpmeta>
                                                                                                    
                                                                                                    
                                                                                                    
                                                                                                    
                                                                                                    
                                                                                                    
                                                                                                    
                                                                                                    
                                                                                                    
                           
<?xpacket end="w"?></metadata>
<defs>
    <style>
      .st0 {
        stroke: #000;
        stroke-miterlimit: 10;
        stroke-width: 2.3px;
      }
    </style>
  </defs>
  <g>
    <path d="M156,202.4l-5.1-14.7h-31l-5.1,14.7h-13l26.5-72.9h14.4l26.4,72.9h-12.9ZM123.8,176.5h23.1l-11.6-32.9-11.6,32.9Z"/>
    <path d="M176.7,129.5h12v72.9h-12v-72.9Z"/>
  </g>
  <path class="st0" d="M222.1,159.4v69.6c0,3-2.4,5.4-5.4,5.4H82.6c-3,0-5.4-2.4-5.4-5.4V90c0-3,2.4-5.4,5.4-5.4h67v-9.9h-67.8c-8,0-14.5,6.5-14.5,14.5v140.7c0,8,6.5,14.5,14.5,14.5h135.7c8,0,14.5-6.5,14.5-14.5v-70.4h-9.9Z"/>
  <g>
    <path d="M271.1,103.2c2.7-.4,2.7-4.1,0-4.6-29.3-5-36.9-12.3-42.2-40.3-.4-2.6-4.4-2.6-4.8,0-5.3,28-12.9,35.3-42.2,40.3-2.7.4-2.7,4.1,0,4.6,29.3,5,36.9,12.3,42.2,40.3.5,2.6,4.4,2.6,4.8,0,5.3-28,12.9-35.3,42.2-40.3"/>
    <path d="M198,54.3c1.6-.3,1.6-2.6,0-2.8-14.4-2.6-18.4-6.5-21.2-20.2-.3-1.6-2.7-1.6-3,0-2.7,13.7-6.8,17.6-21.2,20.2-1.6.3-1.6,2.6,0,2.8,14.4,2.6,18.4,6.5,21.2,20.2.3,1.6,2.7,1.6,3,0,2.7-13.7,6.8-17.6,21.2-20.2"/>
  </g>
</svg>