<?xml version="1.0" encoding="utf-8"?>
<!-- Generator: Adobe Illustrator 26.3.1, SVG Export Plug-In . SVG Version: 6.00 Build 0)  -->
<svg version="1.1" id="Layer_1" xmlns="http://www.w3.org/2000/svg" xmlns:xlink="http://www.w3.org/1999/xlink" x="0px" y="0px"
	 viewBox="0 0 302.4 302.4" style="enable-background:new 0 0 302.4 302.4;" xml:space="preserve">
<metadata><?xpacket begin="﻿" id="W5M0MpCehiHzreSzNTczkc9d"?>
<x:xmpmeta xmlns:x="adobe:ns:meta/" x:xmptk="Adobe XMP Core 8.0-c001 1.000000, 0000/00/00-00:00:00        ">
   <rdf:RDF xmlns:rdf="http://www.w3.org/1999/02/22-rdf-syntax-ns#">
      <rdf:Description rdf:about=""
            xmlns:dc="http://purl.org/dc/elements/1.1/"
            xmlns:prism="http://prismstandard.org/namespaces/basic/2.1/"
            xmlns:tiff="http://ns.adobe.com/tiff/1.0/"
            xmlns:bsam="http://www.bsam.blog">
         <dc:modified>2025-09-09T17:04:34.932Z</dc:modified>
         <dc:format>image/svg+xml</dc:format>
         <prism:Date>2025-09-08T19:16:00.000+02:00</prism:Date>
         <tiff:ImageWidth>302</tiff:ImageWidth>
         <tiff:ImageLength>302</tiff:ImageLength>
         <bsam:rightsLimitedUnlimited>unlimited</bsam:rightsLimitedUnlimited>
         <bsam:subDigitalAssetType>
            <rdf:Bag>
               <rdf:li>enterprise:digital-asset-type/image/icon</rdf:li>
            </rdf:Bag>
         </bsam:subDigitalAssetType>
         <bsam:industry>
            <rdf:Bag>
               <rdf:li>enterprise:industry/generic-all-industries</rdf:li>
            </rdf:Bag>
         </bsam:industry>
         <bsam:assetOwner>
            <rdf:Bag>
               <rdf:li>enterprise:business-unit/webfleet</rdf:li>
            </rdf:Bag>
         </bsam:assetOwner>
         <bsam:usageCountry>
            <rdf:Bag>
               <rdf:li>enterprise:region-country/global</rdf:li>
            </rdf:Bag>
         </bsam:usageCountry>
      </rdf:Description>
   </rdf:RDF>
</x:xmpmeta>
                                                                                                    
                                                                                                    
                                                                                                    
                                                                                                    
                                                                                                    
                                                                                                    
                                                                                                    
                                                                                                    
                                                                                                    
                           
<?xpacket end="w"?></metadata>
<g>
	<g>
		<g>
			<g>
				<path d="M150.1,60.9c-49.9,0-90.5,40.6-90.5,90.5s40.6,90.5,90.5,90.5s90.5-40.6,90.5-90.5C240.5,101.4,199.9,60.9,150.1,60.9z
					 M150,226.1c-41.2,0-74.8-33.6-74.8-74.8s33.5-74.8,74.8-74.8c41.2,0,74.8,33.6,74.8,74.8S191.3,226.1,150,226.1z"/>
			</g>
		</g>
		<g>
			<path d="M137.1,112.1c0-7.2,5.8-13,12.9-13c7.1,0,13,5.8,13,13h0.1l-4.3,43.5h-0.1c-0.1,4.7-3.9,8.6-8.6,8.6
				c-4.8,0-8.6-3.9-8.6-8.7c0-0.1,0-0.1,0-0.1l-4-40.1C137.2,114.1,137.1,113.1,137.1,112.1z M150.5,201c-7.2,0-13-5.8-13-13
				s5.8-13,13-13c7.2,0,13,5.8,13,13S157.6,201,150.5,201z"/>
		</g>
	</g>
	<g>
		<g>
			<path d="M232.9,72.2L232.9,72.2c1.8,0,3.5,0.8,4.8,2.2c40.1,43.1,40.2,110.7,0.2,154c-1.3,1.4-3,2.2-4.8,2.2
				c-2.8,0-5.4-1.9-6.6-4.7c-1.1-2.7-0.5-5.7,1.4-7.8c34.7-37.4,34.6-96-0.1-133.4c-2-2.1-2.5-5.1-1.4-7.8
				C227.5,74.1,230.1,72.2,232.9,72.2z"/>
		</g>
	</g>
	<g>
		<g>
			<path d="M68.7,230.1L68.7,230.1c-1.8,0-3.5-0.8-4.8-2.2c-40.1-43.1-40.2-110.7-0.2-154c1.3-1.4,3-2.2,4.8-2.2
				c2.8,0,5.4,1.9,6.6,4.7c1.1,2.7,0.5,5.7-1.4,7.8c-34.7,37.4-34.6,96,0.1,133.4c2,2.1,2.5,5.1,1.4,7.8
				C74.1,228.2,71.4,230.1,68.7,230.1z"/>
		</g>
	</g>
</g>
</svg>
