<?xml version="1.0" encoding="utf-8"?>
<!-- Generator: Adobe Illustrator 27.2.0, SVG Export Plug-In . SVG Version: 6.00 Build 0)  -->
<svg version="1.1" id="Layer_1" xmlns="http://www.w3.org/2000/svg" xmlns:xlink="http://www.w3.org/1999/xlink" x="0px" y="0px"
	 viewBox="0 0 302.4 302.4" style="enable-background:new 0 0 302.4 302.4;" xml:space="preserve">
<metadata><?xpacket begin="﻿" id="W5M0MpCehiHzreSzNTczkc9d"?>
<x:xmpmeta xmlns:x="adobe:ns:meta/" x:xmptk="Adobe XMP Core 8.0-c001 1.000000, 0000/00/00-00:00:00        ">
   <rdf:RDF xmlns:rdf="http://www.w3.org/1999/02/22-rdf-syntax-ns#">
      <rdf:Description rdf:about=""
            xmlns:bsam="http://www.bsam.blog"
            xmlns:tiff="http://ns.adobe.com/tiff/1.0/"
            xmlns:prism="http://prismstandard.org/namespaces/basic/2.1/"
            xmlns:dc="http://purl.org/dc/elements/1.1/">
         <bsam:rightsLimitedUnlimited>unlimited</bsam:rightsLimitedUnlimited>
         <bsam:assetOwner>
            <rdf:Bag>
               <rdf:li>enterprise:business-unit/webfleet</rdf:li>
            </rdf:Bag>
         </bsam:assetOwner>
         <bsam:industry>
            <rdf:Bag>
               <rdf:li>enterprise:industry/generic-all-industries</rdf:li>
            </rdf:Bag>
         </bsam:industry>
         <bsam:subDigitalAssetType>
            <rdf:Bag>
               <rdf:li>enterprise:digital-asset-type/image/icon</rdf:li>
            </rdf:Bag>
         </bsam:subDigitalAssetType>
         <bsam:usageCountry>
            <rdf:Bag>
               <rdf:li>enterprise:region-country/global</rdf:li>
            </rdf:Bag>
         </bsam:usageCountry>
         <tiff:ImageLength>302</tiff:ImageLength>
         <tiff:ImageWidth>302</tiff:ImageWidth>
         <prism:Date>2025-09-08T19:16:00.000+02:00</prism:Date>
         <dc:modified>2025-09-09T17:20:51.570Z</dc:modified>
         <dc:format>image/svg+xml</dc:format>
      </rdf:Description>
   </rdf:RDF>
</x:xmpmeta>
                                                                                                    
                                                                                                    
                                                                                                    
                                                                                                    
                                                                                                    
                                                                                                    
                                                                                                    
                                                                                                    
                                                                                                    
                                                                                                    
                                                                                                    
                                                                                                    
                                                                                                    
                                                                                                    
                                                                                                    
                                                                                                    
                                                                                                    
                                                                                                    
                                                                            
<?xpacket end="w"?></metadata>
<path d="M191.5,75.4h-10.8v-8.8c0-5.9-4.8-10.7-10.7-10.7h-37.6c-5.9,0-10.7,4.8-10.7,10.7v8.8h-10.8c-9.8,0-17.8,8-17.8,17.8V221
	c0,9.8,8,17.8,17.8,17.8h80.5c9.8,0,17.8-8,17.8-17.8V93.2C209.3,83.4,201.3,75.4,191.5,75.4z M154,193.9c-0.8,0.6-1.8,0.9-2.8,0.9
	c-1,0-2-0.3-2.8-0.9c-18.6-12.7-29.9-24.9-36-35.7h9c1.4,0,2.7-0.9,3.2-2.2l6.1-14.9l8.9,33c0.4,1.4,1.5,2.4,3,2.6
	c0.1,0,0.3,0,0.4,0c1.3,0,2.5-0.7,3.1-1.8l9.1-16.7h18.2c1.9,0,3.5-1.6,3.5-3.5s-1.6-3.5-3.5-3.5h-20.3c-1.3,0-2.5,0.7-3.1,1.8
	l-5.9,10.9l-9.3-34.5c-0.4-1.4-1.7-2.5-3.2-2.6c-1.5-0.1-2.9,0.8-3.5,2.2l-9.2,22.2h-10c-11.7-31.2,21.2-48.5,42-29.3l0,0l0,0
	C180.4,95,233.3,139.6,154,193.9z"/>
</svg>
