<?xml version="1.0" encoding="utf-8"?>
<!-- Generator: Adobe Illustrator 26.3.1, SVG Export Plug-In . SVG Version: 6.00 Build 0)  -->
<svg version="1.1" id="Layer_1" xmlns="http://www.w3.org/2000/svg" xmlns:xlink="http://www.w3.org/1999/xlink" x="0px" y="0px"
	 viewBox="0 0 302.4 302.4" style="enable-background:new 0 0 302.4 302.4;" xml:space="preserve">
<metadata><?xpacket begin="﻿" id="W5M0MpCehiHzreSzNTczkc9d"?>
<x:xmpmeta xmlns:x="adobe:ns:meta/" x:xmptk="Adobe XMP Core 8.0-c001 1.000000, 0000/00/00-00:00:00        ">
   <rdf:RDF xmlns:rdf="http://www.w3.org/1999/02/22-rdf-syntax-ns#">
      <rdf:Description rdf:about=""
            xmlns:dc="http://purl.org/dc/elements/1.1/"
            xmlns:prism="http://prismstandard.org/namespaces/basic/2.1/"
            xmlns:tiff="http://ns.adobe.com/tiff/1.0/"
            xmlns:bsam="http://www.bsam.blog">
         <dc:modified>2025-09-09T17:06:48.781Z</dc:modified>
         <dc:format>image/svg+xml</dc:format>
         <prism:Date>2025-09-08T19:16:00.000+02:00</prism:Date>
         <tiff:ImageWidth>302</tiff:ImageWidth>
         <tiff:ImageLength>302</tiff:ImageLength>
         <bsam:rightsLimitedUnlimited>unlimited</bsam:rightsLimitedUnlimited>
         <bsam:subDigitalAssetType>
            <rdf:Bag>
               <rdf:li>enterprise:digital-asset-type/image/icon</rdf:li>
            </rdf:Bag>
         </bsam:subDigitalAssetType>
         <bsam:industry>
            <rdf:Bag>
               <rdf:li>enterprise:industry/generic-all-industries</rdf:li>
            </rdf:Bag>
         </bsam:industry>
         <bsam:assetOwner>
            <rdf:Bag>
               <rdf:li>enterprise:business-unit/webfleet</rdf:li>
            </rdf:Bag>
         </bsam:assetOwner>
         <bsam:usageCountry>
            <rdf:Bag>
               <rdf:li>enterprise:region-country/global</rdf:li>
            </rdf:Bag>
         </bsam:usageCountry>
      </rdf:Description>
   </rdf:RDF>
</x:xmpmeta>
                                                                                                    
                                                                                                    
                                                                                                    
                                                                                                    
                                                                                                    
                                                                                                    
                                                                                                    
                                                                                                    
                                                                                                    
                           
<?xpacket end="w"?></metadata>
<g>
	<g>
		<g>
			<path d="M151.2,46.2c-57.9,0-105,47.1-105,105s47.1,105,105,105c31.3,0,60.7-13.8,80.7-38l-12.9-5.4
				c-17.4,19.1-42.1,30.1-67.9,30.1c-50.6,0-91.7-41.1-91.7-91.7c0-20.8,7.2-41.1,20.2-57.3l0.5-0.6l35.2,26.5
				c9.1-10.4,22.1-16.3,35.9-16.3c26.3,0,47.7,21.4,47.7,47.7c0,2.4-0.2,4.9-0.6,7.4l45.4,42.3c8.2-15.2,12.5-32.3,12.5-49.6
				C256.2,93.3,209.1,46.2,151.2,46.2z"/>
		</g>
	</g>
	<g>
		<path d="M168.4,182.3l0.3,0.1l70.4,32.2c0.2,0.1,0.3,0.1,0.4,0.2c1.2,0.4,2.4,0.1,3.2-0.7c0.2-0.1,0.3-0.3,0.4-0.6
			c0,0,0-0.1,0.1-0.1c0.1-0.2,0.2-0.4,0.2-0.5c0-0.1,0.1-0.1,0.1-0.2c0-0.1,0.1-0.3,0.1-0.4c0-0.1,0-0.2,0-0.2c0-0.2,0-0.4,0-0.6
			l0-0.1c-0.1-0.2-0.1-0.4-0.2-0.7c0-0.1-0.1-0.1-0.1-0.2c-0.1-0.3-0.3-0.5-0.5-0.6L186.2,158l0.1-0.4c0.4-2.2,0.6-4.5,0.6-6.6
			c0-19.7-16-35.7-35.7-35.7s-35.7,16-35.7,35.7s16,35.7,35.7,35.7c5.9,0,11.8-1.5,16.9-4.3L168.4,182.3z"/>
	</g>
</g>
</svg>
