<?xml version="1.0" encoding="utf-8"?>
<!-- Generator: Adobe Illustrator 26.3.1, SVG Export Plug-In . SVG Version: 6.00 Build 0)  -->
<svg version="1.1" id="Layer_1" xmlns="http://www.w3.org/2000/svg" xmlns:xlink="http://www.w3.org/1999/xlink" x="0px" y="0px"
	 viewBox="0 0 302.4 302.4" style="enable-background:new 0 0 302.4 302.4;" xml:space="preserve">
<metadata><?xpacket begin="﻿" id="W5M0MpCehiHzreSzNTczkc9d"?>
<x:xmpmeta xmlns:x="adobe:ns:meta/" x:xmptk="Adobe XMP Core 8.0-c001 1.000000, 0000/00/00-00:00:00        ">
   <rdf:RDF xmlns:rdf="http://www.w3.org/1999/02/22-rdf-syntax-ns#">
      <rdf:Description rdf:about=""
            xmlns:dc="http://purl.org/dc/elements/1.1/"
            xmlns:prism="http://prismstandard.org/namespaces/basic/2.1/"
            xmlns:tiff="http://ns.adobe.com/tiff/1.0/"
            xmlns:bsam="http://www.bsam.blog">
         <dc:modified>2025-09-09T17:15:31.877Z</dc:modified>
         <dc:format>image/svg+xml</dc:format>
         <prism:Date>2025-09-08T19:16:00.000+02:00</prism:Date>
         <tiff:ImageWidth>302</tiff:ImageWidth>
         <tiff:ImageLength>302</tiff:ImageLength>
         <bsam:rightsLimitedUnlimited>unlimited</bsam:rightsLimitedUnlimited>
         <bsam:subDigitalAssetType>
            <rdf:Bag>
               <rdf:li>enterprise:digital-asset-type/image/icon</rdf:li>
            </rdf:Bag>
         </bsam:subDigitalAssetType>
         <bsam:industry>
            <rdf:Bag>
               <rdf:li>enterprise:industry/generic-all-industries</rdf:li>
            </rdf:Bag>
         </bsam:industry>
         <bsam:assetOwner>
            <rdf:Bag>
               <rdf:li>enterprise:business-unit/webfleet</rdf:li>
            </rdf:Bag>
         </bsam:assetOwner>
         <bsam:usageCountry>
            <rdf:Bag>
               <rdf:li>enterprise:region-country/global</rdf:li>
            </rdf:Bag>
         </bsam:usageCountry>
      </rdf:Description>
   </rdf:RDF>
</x:xmpmeta>
                                                                                                    
                                                                                                    
                                                                                                    
                                                                                                    
                                                                                                    
                                                                                                    
                                                                                                    
                                                                                                    
                                                                                                    
                           
<?xpacket end="w"?></metadata>
<path d="M249,170c-5.8-4.2-9.6-11.1-9.6-18.8l0,0c0-7.7,3.8-14.6,9.6-18.8c5-3.7,7.2-10.2,5.2-16.1c-1.6-4.6-3.4-9-5.5-13.3
	c-2.8-5.6-8.9-8.6-15-7.6c-7.1,1.1-14.7-1-20.1-6.5l0,0c-5.5-5.5-7.6-13-6.5-20.1c1-6.1-2.1-12.2-7.6-15c-4.3-2.1-8.7-4-13.3-5.5
	c-5.9-2-12.4,0.2-16.1,5.2c-4.2,5.8-11.1,9.6-18.8,9.6l0,0c-7.7,0-14.6-3.8-18.8-9.6c-3.7-5-10.2-7.2-16.1-5.2
	c-4.6,1.5-9,3.4-13.3,5.5c-5.6,2.8-8.6,8.9-7.6,15c1.1,7.1-1,14.7-6.5,20.1l0,0c-5.5,5.5-13,7.6-20.1,6.5c-6.1-1-12.2,2.1-15,7.6
	c-2.1,4.3-4,8.7-5.5,13.3c-2,5.9,0.2,12.4,5.2,16.1c5.8,4.2,9.6,11.1,9.6,18.8l0,0c0,7.7-3.8,14.6-9.6,18.8
	c-5,3.7-7.2,10.1-5.2,16.1c1.5,4.6,3.4,9,5.5,13.3c2.8,5.6,8.9,8.6,15,7.6c7.1-1.1,14.7,1,20.1,6.5l0,0c5.5,5.5,7.6,13,6.5,20.1
	c-1,6.1,2.1,12.2,7.6,15c4.3,2.1,8.7,4,13.3,5.5c5.9,2,12.4-0.2,16.1-5.2c4.2-5.8,11.1-9.6,18.8-9.6l0,0c7.7,0,14.6,3.8,18.8,9.6
	c3.7,5,10.1,7.2,16.1,5.2c4.6-1.6,9-3.4,13.3-5.5c5.6-2.8,8.6-8.9,7.6-15c-1.1-7.1,1-14.7,6.5-20.1l0,0c5.5-5.5,13-7.6,20.1-6.5
	c6.1,1,12.2-2.1,15-7.6c2.1-4.3,4-8.7,5.5-13.3C256.2,180.2,254.1,173.7,249,170z M151.2,209.8c-32.4,0-58.6-26.2-58.6-58.6
	s26.2-58.6,58.6-58.6s58.6,26.2,58.6,58.6S183.6,209.8,151.2,209.8z"/>
</svg>
