<?xml version="1.0" encoding="utf-8"?>
<!-- Generator: Adobe Illustrator 26.3.1, SVG Export Plug-In . SVG Version: 6.00 Build 0)  -->
<svg version="1.1" id="Layer_1" xmlns="http://www.w3.org/2000/svg" xmlns:xlink="http://www.w3.org/1999/xlink" x="0px" y="0px"
	 viewBox="0 0 302.4 302.4" style="enable-background:new 0 0 302.4 302.4;" xml:space="preserve">
<metadata><?xpacket begin="﻿" id="W5M0MpCehiHzreSzNTczkc9d"?>
<x:xmpmeta xmlns:x="adobe:ns:meta/" x:xmptk="Adobe XMP Core 8.0-c001 1.000000, 0000/00/00-00:00:00        ">
   <rdf:RDF xmlns:rdf="http://www.w3.org/1999/02/22-rdf-syntax-ns#">
      <rdf:Description rdf:about=""
            xmlns:bsam="http://www.bsam.blog"
            xmlns:tiff="http://ns.adobe.com/tiff/1.0/"
            xmlns:prism="http://prismstandard.org/namespaces/basic/2.1/"
            xmlns:dc="http://purl.org/dc/elements/1.1/">
         <bsam:rightsLimitedUnlimited>unlimited</bsam:rightsLimitedUnlimited>
         <bsam:assetOwner>
            <rdf:Bag>
               <rdf:li>enterprise:business-unit/webfleet</rdf:li>
            </rdf:Bag>
         </bsam:assetOwner>
         <bsam:industry>
            <rdf:Bag>
               <rdf:li>enterprise:industry/generic-all-industries</rdf:li>
            </rdf:Bag>
         </bsam:industry>
         <bsam:subDigitalAssetType>
            <rdf:Bag>
               <rdf:li>enterprise:digital-asset-type/image/icon</rdf:li>
            </rdf:Bag>
         </bsam:subDigitalAssetType>
         <bsam:usageCountry>
            <rdf:Bag>
               <rdf:li>enterprise:region-country/global</rdf:li>
            </rdf:Bag>
         </bsam:usageCountry>
         <tiff:ImageLength>302</tiff:ImageLength>
         <tiff:ImageWidth>302</tiff:ImageWidth>
         <prism:Date>2025-09-08T19:16:00.000+02:00</prism:Date>
         <dc:modified>2025-09-09T17:22:32.184Z</dc:modified>
         <dc:format>image/svg+xml</dc:format>
      </rdf:Description>
   </rdf:RDF>
</x:xmpmeta>
                                                                                                    
                                                                                                    
                                                                                                    
                                                                                                    
                                                                                                    
                                                                                                    
                                                                                                    
                                                                                                    
                                                                                                    
                                                                                                    
                                                                                                    
                                                                                                    
                                                                                                    
                                                                                                    
                                                                                                    
                                                                                                    
                                                                                                    
                                                                                                    
                                                                            
<?xpacket end="w"?></metadata>
<style type="text/css">
	.st0{fill-rule:evenodd;clip-rule:evenodd;}
</style>
<g>
	<path class="st0" d="M248.6,194.7c12,0,21.8,9.8,21.8,21.8s-9.8,21.8-21.8,21.8c-12,0-21.8-9.8-21.8-21.8
		C226.8,204.4,236.6,194.7,248.6,194.7L248.6,194.7z"/>
	<path class="st0" d="M60.6,194.7c12,0,21.8,9.8,21.8,21.8s-9.8,21.8-21.8,21.8c-12,0-21.8-9.8-21.8-21.8S48.6,194.7,60.6,194.7
		L60.6,194.7z"/>
	<path d="M37.5,200.7H5.3v9.3c0,7.3,6.7,15.7,14,15.7l14.9,0.1l-0.7-2.6c-0.5-2.2-0.9-4.5-0.9-6.9C32.7,210.6,34.5,205.2,37.5,200.7
		z"/>
	<path d="M286.5,200.7c-0.8,0-1.5-0.7-1.5-1.5c0-0.8,0.7-1.5,1.5-1.5h7.7c0.2-41-2.8-67.2-19.6-89.8c-8.9-11.9-14.9-19-45.8-18.8
		l-42.1,0h-9.6l-159.7,0c0,0,0,0,0,0c-6.7,0-12.1,5.4-12.1,12.1l0,0v0v0v0v96.1h35c5.1-5.4,12.3-8.9,20.4-8.9
		c15.4,0,27.9,12.5,27.9,27.9c0,2.4-0.3,4.6-0.9,6.9l-0.7,2.6l135.5-0.1l-0.8-2.4c-0.6-2.2-0.9-4.5-0.9-6.8
		c0-15.4,12.5-27.9,27.9-27.9c15.4,0,27.9,12.5,27.9,27.9c0,2.4-0.3,4.6-0.9,6.8l-0.7,2.6l9.3-0.1c7.3,0,12.9-8.4,12.9-15.7v-9.3
		L286.5,200.7L286.5,200.7z M90.3,144.4c0,1.5-1.2,2.8-2.7,2.8H25.9c-1.5,0-2.7-1.2-2.7-2.8v-42.4c0-1.5,1.2-2.8,2.7-2.8h61.7
		c1.5,0,2.7,1.2,2.7,2.8V144.4z M165.4,144.4c0,1.5-1.2,2.8-2.7,2.8H101c-1.5,0-2.7-1.2-2.7-2.8v-42.4c0-1.5,1.2-2.8,2.7-2.8h61.7
		c1.5,0,2.7,1.2,2.7,2.8V144.4z M235.1,144.4c0,1.5-1.2,2.8-2.7,2.8h-56.4c-1.5,0-2.7-1.2-2.7-2.8v-42.4c0-1.5,1.2-2.8,2.7-2.8h56.4
		c1.5,0,2.7,1.2,2.7,2.8V144.4z M255.9,153.9L255.9,153.9h-9.6c-1.5,0-2.7-1.2-2.7-2.8v-49c0-1.5,1.2-2.8,2.7-2.8l2.2,0
		c6.8,0.2,11.3,1.8,20.3,13c13.4,16.7,15.6,41.6,15.6,41.6L255.9,153.9z"/>
</g>
</svg>
