<?xml version="1.0" encoding="utf-8"?>
<!-- Generator: Adobe Illustrator 26.3.1, SVG Export Plug-In . SVG Version: 6.00 Build 0)  -->
<svg version="1.1" id="Layer_1" xmlns="http://www.w3.org/2000/svg" xmlns:xlink="http://www.w3.org/1999/xlink" x="0px" y="0px"
	 viewBox="0 0 302.4 302.4" style="enable-background:new 0 0 302.4 302.4;" xml:space="preserve">
<metadata><?xpacket begin="﻿" id="W5M0MpCehiHzreSzNTczkc9d"?>
<x:xmpmeta xmlns:x="adobe:ns:meta/" x:xmptk="Adobe XMP Core 8.0-c001 1.000000, 0000/00/00-00:00:00        ">
   <rdf:RDF xmlns:rdf="http://www.w3.org/1999/02/22-rdf-syntax-ns#">
      <rdf:Description rdf:about=""
            xmlns:dc="http://purl.org/dc/elements/1.1/"
            xmlns:prism="http://prismstandard.org/namespaces/basic/2.1/"
            xmlns:tiff="http://ns.adobe.com/tiff/1.0/"
            xmlns:bsam="http://www.bsam.blog">
         <dc:modified>2025-09-09T17:04:41.566Z</dc:modified>
         <dc:format>image/svg+xml</dc:format>
         <prism:Date>2025-09-08T19:16:00.000+02:00</prism:Date>
         <tiff:ImageWidth>302</tiff:ImageWidth>
         <tiff:ImageLength>302</tiff:ImageLength>
         <bsam:rightsLimitedUnlimited>unlimited</bsam:rightsLimitedUnlimited>
         <bsam:subDigitalAssetType>
            <rdf:Bag>
               <rdf:li>enterprise:digital-asset-type/image/icon</rdf:li>
            </rdf:Bag>
         </bsam:subDigitalAssetType>
         <bsam:industry>
            <rdf:Bag>
               <rdf:li>enterprise:industry/generic-all-industries</rdf:li>
            </rdf:Bag>
         </bsam:industry>
         <bsam:assetOwner>
            <rdf:Bag>
               <rdf:li>enterprise:business-unit/webfleet</rdf:li>
            </rdf:Bag>
         </bsam:assetOwner>
         <bsam:usageCountry>
            <rdf:Bag>
               <rdf:li>enterprise:region-country/global</rdf:li>
            </rdf:Bag>
         </bsam:usageCountry>
      </rdf:Description>
   </rdf:RDF>
</x:xmpmeta>
                                                                                                    
                                                                                                    
                                                                                                    
                                                                                                    
                                                                                                    
                                                                                                    
                                                                                                    
                                                                                                    
                                                                                                    
                           
<?xpacket end="w"?></metadata>
<g>
	<path d="M79.2,186.4h7.4c-0.6-3.8-0.9-7.7-0.9-11.7c0-8,1.2-15.7,3.5-23V70.2h-10V186.4z"/>
	<rect x="52.9" y="70.2" width="14.8" height="116.2"/>
	<path d="M110.2,118.4V70.2h-10v59.6C103.1,125.7,106.5,121.9,110.2,118.4z"/>
	<path d="M166.5,97.8V70.2H121V110c12-7.7,26.3-12.2,41.6-12.2C163.9,97.7,165.2,97.8,166.5,97.8z"/>
	<path d="M203.5,70.2h-26.2v28.9c9.4,1.8,18.3,5.4,26.2,10.4V70.2z"/>
	<path d="M238.6,186.7h7.2V70.5h-10V151c2.4,7.5,3.7,15.4,3.7,23.7C239.5,178.7,239.2,182.7,238.6,186.7z"/>
	<path d="M224.6,129.2v-59h-10V118C218.3,121.4,221.7,125.2,224.6,129.2z"/>
	<path d="M162.6,108.5c-36.5,0-66.1,29.6-66.1,66.1s29.6,66.1,66.1,66.1s66.1-29.6,66.1-66.1S199.1,108.5,162.6,108.5z M162.6,226.8
		c-28.8,0-52.2-23.4-52.2-52.2c0-11.8,4-22.8,10.6-31.5v43.3h45.4v-63.8c3.7,0.3,7.4,0.9,10.9,2v61.8h26.2v-44.1
		c7.1,8.9,11.3,20.2,11.3,32.4C214.8,203.4,191.4,226.8,162.6,226.8z"/>
	<path d="M246.5,243.8l-21.7-21.7c-6.3,3.3-11.5,8.5-14.8,14.8l21.7,21.7c2,2,4.7,3.1,7.4,3.1s5.3-1,7.4-3.1
		C250.6,254.5,250.6,247.9,246.5,243.8z"/>
</g>
</svg>
