<?xml version="1.0" encoding="utf-8"?>
<!-- Generator: Adobe Illustrator 26.3.1, SVG Export Plug-In . SVG Version: 6.00 Build 0)  -->
<svg version="1.1" id="Layer_1" xmlns="http://www.w3.org/2000/svg" xmlns:xlink="http://www.w3.org/1999/xlink" x="0px" y="0px"
	 viewBox="0 0 302.4 302.4" style="enable-background:new 0 0 302.4 302.4;" xml:space="preserve">
<metadata><?xpacket begin="﻿" id="W5M0MpCehiHzreSzNTczkc9d"?>
<x:xmpmeta xmlns:x="adobe:ns:meta/" x:xmptk="Adobe XMP Core 8.0-c001 1.000000, 0000/00/00-00:00:00        ">
   <rdf:RDF xmlns:rdf="http://www.w3.org/1999/02/22-rdf-syntax-ns#">
      <rdf:Description rdf:about=""
            xmlns:prism="http://prismstandard.org/namespaces/basic/2.1/"
            xmlns:dc="http://purl.org/dc/elements/1.1/"
            xmlns:bsam="http://www.bsam.blog">
         <prism:Date>2025-09-08T19:16:00.000+02:00</prism:Date>
         <dc:format>image/svg+xml</dc:format>
         <dc:modified>2025-09-09T17:24:49.336Z</dc:modified>
         <bsam:rightsLimitedUnlimited>unlimited</bsam:rightsLimitedUnlimited>
         <bsam:industry>
            <rdf:Bag>
               <rdf:li>enterprise:industry/generic-all-industries</rdf:li>
            </rdf:Bag>
         </bsam:industry>
         <bsam:usageCountry>
            <rdf:Bag>
               <rdf:li>enterprise:region-country/global</rdf:li>
            </rdf:Bag>
         </bsam:usageCountry>
         <bsam:assetOwner>
            <rdf:Bag>
               <rdf:li>enterprise:business-unit/webfleet</rdf:li>
            </rdf:Bag>
         </bsam:assetOwner>
         <bsam:subDigitalAssetType>
            <rdf:Bag>
               <rdf:li>enterprise:digital-asset-type/image/icon</rdf:li>
            </rdf:Bag>
         </bsam:subDigitalAssetType>
      </rdf:Description>
   </rdf:RDF>
</x:xmpmeta>
                                                                                                    
                                                                                                    
                                                                                                    
                                                                                                    
                                                                                                    
                                                                                                    
                                                                                                    
                                                                                                    
                                                                                                    
                                                                                                    
                                                                                                    
                                                                                                    
                                                                                                    
                                                                                                    
                                                                                                    
                                                                                                    
                                                                                                    
                                                                                                    
                                                                                                    
                                                                                                    
                           
<?xpacket end="w"?></metadata>
<g>
	<g>
		<path d="M67.7,165.1l6,6c1.8,1.8,3.9,5.2,4.8,7.7l11.2,33.7c3.2,9.7,14.2,17.6,24.4,17.6h74.2c10.2,0,21.2-7.9,24.4-17.6
			l11.2-33.7c0.8-2.4,2.9-5.9,4.8-7.7c1.6-1.6,3.7-3.7,6-6c5.1-5.1,9.3-17.6,9.3-27.8V90.9v-9.3c0-5.1-4.1-9.3-9.3-9.3h-18.6
			c-5.1,0-9.3,4.2-9.3,9.3v9.3H95.5v-9.3c0-5.1-4.2-9.3-9.3-9.3H67.7c-5.1,0-9.3,4.2-9.3,9.3v55.7C58.4,147.5,62.6,160,67.7,165.1z
			 M220.8,118.7c7.7,0,13.9,6.2,13.9,13.9s-6.2,13.9-13.9,13.9s-13.9-6.2-13.9-13.9S213.1,118.7,220.8,118.7z M118.7,109.4h64.9
			c2.6,0,4.6,2.1,4.6,4.6s-2.1,4.6-4.6,4.6h-64.9c-2.6,0-4.6-2.1-4.6-4.6C114.1,111.5,116.2,109.4,118.7,109.4z M211,174.4
			c2.6,0,4,2,3.2,4.4l-10.2,30.7c-2,5.9-9.4,11.3-15.6,11.3h-74.2c-6.2,0-13.7-5.4-15.6-11.3l-10.2-30.7c-0.8-2.4,0.6-4.4,3.2-4.4
			H211z M81.6,118.7c7.7,0,13.9,6.2,13.9,13.9s-6.2,13.9-13.9,13.9s-13.9-6.2-13.9-13.9S73.9,118.7,81.6,118.7z"/>
	</g>
	<g>
		<path d="M134.9,210.4l11.6,5.5h-29.6c-5.2,0-11.4-4.5-13-9.4L96,183.9l11.1,7.9l9.8-12l3,14.8l16.3-7.5l-5.8,15.5l12.4-1.7
			L134.9,210.4z"/>
	</g>
</g>
</svg>
