<?xml version="1.0" encoding="utf-8"?>
<!-- Generator: Adobe Illustrator 26.3.1, SVG Export Plug-In . SVG Version: 6.00 Build 0)  -->
<svg version="1.1" id="Layer_1" xmlns="http://www.w3.org/2000/svg" xmlns:xlink="http://www.w3.org/1999/xlink" x="0px" y="0px"
	 viewBox="0 0 302.4 302.4" style="enable-background:new 0 0 302.4 302.4;" xml:space="preserve">
<metadata><?xpacket begin="﻿" id="W5M0MpCehiHzreSzNTczkc9d"?>
<x:xmpmeta xmlns:x="adobe:ns:meta/" x:xmptk="Adobe XMP Core 8.0-c001 1.000000, 0000/00/00-00:00:00        ">
   <rdf:RDF xmlns:rdf="http://www.w3.org/1999/02/22-rdf-syntax-ns#">
      <rdf:Description rdf:about=""
            xmlns:dc="http://purl.org/dc/elements/1.1/"
            xmlns:prism="http://prismstandard.org/namespaces/basic/2.1/"
            xmlns:tiff="http://ns.adobe.com/tiff/1.0/"
            xmlns:bsam="http://www.bsam.blog">
         <dc:modified>2025-09-09T17:06:17.892Z</dc:modified>
         <dc:format>image/svg+xml</dc:format>
         <prism:Date>2025-09-08T19:16:00.000+02:00</prism:Date>
         <tiff:ImageWidth>302</tiff:ImageWidth>
         <tiff:ImageLength>302</tiff:ImageLength>
         <bsam:rightsLimitedUnlimited>unlimited</bsam:rightsLimitedUnlimited>
         <bsam:subDigitalAssetType>
            <rdf:Bag>
               <rdf:li>enterprise:digital-asset-type/image/icon</rdf:li>
            </rdf:Bag>
         </bsam:subDigitalAssetType>
         <bsam:industry>
            <rdf:Bag>
               <rdf:li>enterprise:industry/generic-all-industries</rdf:li>
            </rdf:Bag>
         </bsam:industry>
         <bsam:assetOwner>
            <rdf:Bag>
               <rdf:li>enterprise:business-unit/webfleet</rdf:li>
            </rdf:Bag>
         </bsam:assetOwner>
         <bsam:usageCountry>
            <rdf:Bag>
               <rdf:li>enterprise:region-country/global</rdf:li>
            </rdf:Bag>
         </bsam:usageCountry>
      </rdf:Description>
   </rdf:RDF>
</x:xmpmeta>
                                                                                                    
                                                                                                    
                                                                                                    
                                                                                                    
                                                                                                    
                                                                                                    
                                                                                                    
                                                                                                    
                                                                                                    
                           
<?xpacket end="w"?></metadata>
<g>
	<g>
		<g>
			<path d="M77.8,49.5c-7.2,0-13.1,5.9-13.1,13.1v176c0,7.2,5.9,13.1,13.1,13.1h146.7c7.2,0,13.1-5.9,13.1-13.1V103.1l0-0.2v-0.1
				c0.1-6.3-2.3-12.3-6.7-16.7l-30-30c-4.3-4.3-10.1-6.7-16.2-6.7c-0.8,0-1.5,0-2.3,0.1L77.8,49.5z M221.1,235.3h-140V66H182l0,31
				c0.1,4.4,3.7,8,8.1,8.1l0.6,0l0.1,0.1h30.3L221.1,235.3L221.1,235.3z"/>
		</g>
	</g>
	<g>
		<path d="M201.6,132.8c-0.6-2.3-2.1-4.2-4.2-5.5c-1.5-0.9-3.2-1.4-5-1.4c-3.3,0-6.3,1.6-8,4.2l-36.5,54.8l-23.6-23.7
			c-3.6-3.4-9.8-3.4-13.3,0c-3.7,3.4-3.7,9.1,0,12.5l32,31.6c1.8,1.6,4.2,2.6,6.7,2.6c0.4,0,0.7,0,1.1-0.1c2.9-0.3,5.4-1.8,6.9-4.1
			l42.8-64.3C201.7,137.5,202.2,135.1,201.6,132.8z"/>
	</g>
</g>
</svg>
