<?xml version="1.0" encoding="utf-8"?>
<!-- Generator: Adobe Illustrator 26.3.1, SVG Export Plug-In . SVG Version: 6.00 Build 0)  -->
<svg version="1.1" id="Layer_1" xmlns="http://www.w3.org/2000/svg" xmlns:xlink="http://www.w3.org/1999/xlink" x="0px" y="0px"
	 viewBox="0 0 302.4 302.4" style="enable-background:new 0 0 302.4 302.4;" xml:space="preserve">
<metadata><?xpacket begin="﻿" id="W5M0MpCehiHzreSzNTczkc9d"?>
<x:xmpmeta xmlns:x="adobe:ns:meta/" x:xmptk="Adobe XMP Core 8.0-c001 1.000000, 0000/00/00-00:00:00        ">
   <rdf:RDF xmlns:rdf="http://www.w3.org/1999/02/22-rdf-syntax-ns#">
      <rdf:Description rdf:about=""
            xmlns:bsam="http://www.bsam.blog"
            xmlns:tiff="http://ns.adobe.com/tiff/1.0/"
            xmlns:prism="http://prismstandard.org/namespaces/basic/2.1/"
            xmlns:dc="http://purl.org/dc/elements/1.1/">
         <bsam:rightsLimitedUnlimited>unlimited</bsam:rightsLimitedUnlimited>
         <bsam:assetOwner>
            <rdf:Bag>
               <rdf:li>enterprise:business-unit/webfleet</rdf:li>
            </rdf:Bag>
         </bsam:assetOwner>
         <bsam:industry>
            <rdf:Bag>
               <rdf:li>enterprise:industry/generic-all-industries</rdf:li>
            </rdf:Bag>
         </bsam:industry>
         <bsam:subDigitalAssetType>
            <rdf:Bag>
               <rdf:li>enterprise:digital-asset-type/image/icon</rdf:li>
            </rdf:Bag>
         </bsam:subDigitalAssetType>
         <bsam:usageCountry>
            <rdf:Bag>
               <rdf:li>enterprise:region-country/global</rdf:li>
            </rdf:Bag>
         </bsam:usageCountry>
         <tiff:ImageLength>302</tiff:ImageLength>
         <tiff:ImageWidth>302</tiff:ImageWidth>
         <prism:Date>2025-09-08T19:16:00.000+02:00</prism:Date>
         <dc:modified>2025-09-09T17:20:02.998Z</dc:modified>
         <dc:format>image/svg+xml</dc:format>
      </rdf:Description>
   </rdf:RDF>
</x:xmpmeta>
                                                                                                    
                                                                                                    
                                                                                                    
                                                                                                    
                                                                                                    
                                                                                                    
                                                                                                    
                                                                                                    
                                                                                                    
                                                                                                    
                                                                                                    
                                                                                                    
                                                                                                    
                                                                                                    
                                                                                                    
                                                                                                    
                                                                                                    
                                                                                                    
                                                                            
<?xpacket end="w"?></metadata>
<g>
	<path d="M224.5,195.8c-12,0-21.8,9.8-21.8,21.8s9.8,21.8,21.8,21.8s21.8-9.8,21.8-21.8S236.5,195.8,224.5,195.8z"/>
	<path d="M77.6,195.8c-12,0-21.8,9.8-21.8,21.8s9.8,21.8,21.8,21.8c12,0,21.8-9.8,21.8-21.8S89.6,195.8,77.6,195.8z"/>
	<path d="M266.6,200.6H259c-0.8,0-1.6-0.7-1.6-1.6s0.7-1.6,1.6-1.6h6.8c-4.5-12.8-23.3-22.5-65.7-22.5
		c-21.6-13.2-42.9-29.7-68.4-29.7c-26.4,0-27.6-0.1-56.3,1.7C59,148,66,147.5,59.1,159.1c-2.3,3.9-11.6,10-18.1,17.6l-2.3,3.1
		c-1.8,2.8-3,5.8-3,9v19.5c0,9.3,11.6,16.6,15.6,18.6c-1.2-3.1-1.7-5.9-1.7-9.4c0-15.4,12.5-27.9,27.9-27.9s27.9,12.5,27.9,27.9
		c0,3.3-0.6,6.5-1.7,9.4c5.4,0,87.7,0,94.4,0c-1.1-2.9-1.6-6.1-1.6-9.4c0-15.4,12.5-27.9,27.9-27.9c15.4,0,27.9,12.5,27.9,27.9
		c0,3.3-0.6,6.5-1.6,9.4c2,0.1,3.4,0,3.4,0c7.7,0,12.6-4.8,12.6-12.4v-11.8C266.7,202.1,266.7,201.3,266.6,200.6z M113.1,170.9
		c-14.2-0.2-30.5,0-35.1,0c-7.2,0.1-7.3-3.8-4.2-6.1c15.9-11.4,25.2-13.4,39.3-13.6L113.1,170.9z M122.8,172.1
		c-0.3-0.1-2.7-1-3.2-1.1c0,0-2.9-19.8-2.8-19.8c5.7-0.2,11.8-0.1,19.7,0.2c15.4,0.6,39.1,12.1,52.8,25.5
		C153.8,176.8,136.6,178.6,122.8,172.1z"/>
</g>
</svg>
