<?xml version="1.0" encoding="UTF-8"?>
<svg xmlns="http://www.w3.org/2000/svg" width="10.7cm" height="10.7cm" xmlns:xlink="http://www.w3.org/1999/xlink" version="1.1" viewBox="0 0 302.4 302.4">
  <metadata><?xpacket begin="﻿" id="W5M0MpCehiHzreSzNTczkc9d"?>
<x:xmpmeta xmlns:x="adobe:ns:meta/" x:xmptk="Adobe XMP Core 8.0-c001 1.000000, 0000/00/00-00:00:00        ">
   <rdf:RDF xmlns:rdf="http://www.w3.org/1999/02/22-rdf-syntax-ns#">
      <rdf:Description rdf:about=""
            xmlns:bsam="http://www.bsam.blog"
            xmlns:tiff="http://ns.adobe.com/tiff/1.0/"
            xmlns:prism="http://prismstandard.org/namespaces/basic/2.1/"
            xmlns:dc="http://purl.org/dc/elements/1.1/">
         <bsam:rightsLimitedUnlimited>unlimited</bsam:rightsLimitedUnlimited>
         <bsam:assetOwner>
            <rdf:Bag>
               <rdf:li>enterprise:business-unit/webfleet</rdf:li>
            </rdf:Bag>
         </bsam:assetOwner>
         <bsam:industry>
            <rdf:Bag>
               <rdf:li>enterprise:industry/generic-all-industries</rdf:li>
            </rdf:Bag>
         </bsam:industry>
         <bsam:subDigitalAssetType>
            <rdf:Bag>
               <rdf:li>enterprise:digital-asset-type/image/icon</rdf:li>
            </rdf:Bag>
         </bsam:subDigitalAssetType>
         <bsam:usageCountry>
            <rdf:Bag>
               <rdf:li>enterprise:region-country/global</rdf:li>
            </rdf:Bag>
         </bsam:usageCountry>
         <tiff:ImageLength>404</tiff:ImageLength>
         <tiff:ImageWidth>404</tiff:ImageWidth>
         <prism:Date>2025-09-08T19:16:00.000+02:00</prism:Date>
         <dc:modified>2025-09-09T17:25:27.862Z</dc:modified>
         <dc:format>image/svg+xml</dc:format>
      </rdf:Description>
   </rdf:RDF>
</x:xmpmeta>
                                                                                                    
                                                                                                    
                                                                                                    
                                                                                                    
                                                                                                    
                                                                                                    
                                                                                                    
                                                                                                    
                                                                                                    
                                                                                                    
                                                                                                    
                                                                                                    
                                                                                                    
                                                                                                    
                                                                                                    
                                                                                                    
                                                                                                    
                                                                                                    
                                                                            
<?xpacket end="w"?></metadata>
<defs>
    <style>
      .cls-1 {
        fill: none;
      }

      .cls-2 {
        clip-path: url(#clippath);
      }
    </style>
    <clipPath id="clippath">
      <rect class="cls-1" x="32.7" y="37.3" width="237" height="227.8"/>
    </clipPath>
  </defs>
  <!-- Generator: Adobe Illustrator 28.7.2, SVG Export Plug-In . SVG Version: 1.2.0 Build 154)  -->
  <g>
    <g id="Layer_1">
      <g class="cls-2">
        <path d="M122.9,158.1c-8.9,0-15-7.4-15-16.3v-.2c0-8.9,6.3-16.1,15-16.1s9.2,2.2,13.1,5.8l6.8-7.8c-4.7-4.6-10.4-7.8-19.9-7.8-15.5,0-26.2,11.7-26.2,26.1v.2c0,14.5,11,25.9,25.8,25.9s15.5-3.4,20.6-9l-6.8-6.9c-4,3.7-7.5,6.1-13.4,6.1"/>
        <path d="M172.4,115.8c-15.5,0-26.8,11.8-26.8,26.1v.2c0,14.3,11.1,25.9,26.7,25.9s26.8-11.8,26.8-26.1v-.2c0-14.4-11.1-25.9-26.7-25.9M188,142c0,8.9-6.3,16.1-15.5,16.1s-15.7-7.4-15.7-16.3v-.2c0-8.9,6.3-16.1,15.5-16.1s15.7,7.4,15.7,16.3v.2Z"/>
        <path d="M217.9,165.9c4.2-3.4,6-5.8,6-9.7s-4-8.5-9.9-8.5-8.2,2.3-10.9,6.1l4.3,3.5c1.9-2.5,3.9-3.9,6.2-3.9s3.9,1.3,3.9,3.4-1.5,3.9-4.9,6.6l-9.6,7.9v5.2h21v-5.3h-12.8l6.6-5.2Z"/>
        <path d="M238.3,107.2c-3-18.5-17.2-33.6-35.5-37.6-5.4-19.3-22.9-32.3-44.3-32.3s-38.9,13.9-44.3,34.4c-19.9,2.5-35.1,16.8-38.8,36.4-24.1,1.7-42.6,21-42.6,45.3s15.9,40.9,37.6,44.7c4.4.8,8.5-2.7,8.5-7.2s-2.5-6.4-5.9-7c-14.8-2.6-25.7-15.1-25.7-30.5s13.9-31,31.6-31h9.8l.4-6.8c.9-16.7,14.7-29.8,31.4-29.9h6.1s.9-6.2.9-6.2c2.3-16.4,15.2-27.8,31.2-27.8s28.9,10.4,31.2,25.3l.9,5.5,5.6.6c15.6,1.6,27.7,14.3,28.3,30l.2,5.6,5.5,1.2c14.3,3.1,25.1,16.8,25.1,32s-11.1,28.8-25.3,31.9c-3.3.7-5.6,3.6-5.6,7s4.2,8.1,8.6,7.2c20.7-4.6,36.7-23.8,36.7-46s-13.2-38.3-31.4-44.7"/>
        <polygon points="148.7 184.8 148.7 215.1 124.3 206.9 160.4 265.1 196.4 206.9 172.1 215.1 172.1 184.8 148.7 184.8"/>
      </g>
    </g>
  </g>
</svg>