<?xml version="1.0" encoding="utf-8"?>
<!-- Generator: Adobe Illustrator 26.3.1, SVG Export Plug-In . SVG Version: 6.00 Build 0)  -->
<svg version="1.1" id="Layer_1" xmlns="http://www.w3.org/2000/svg" xmlns:xlink="http://www.w3.org/1999/xlink" x="0px" y="0px"
	 viewBox="0 0 302.4 302.4" style="enable-background:new 0 0 302.4 302.4;" xml:space="preserve">
<metadata><?xpacket begin="﻿" id="W5M0MpCehiHzreSzNTczkc9d"?>
<x:xmpmeta xmlns:x="adobe:ns:meta/" x:xmptk="Adobe XMP Core 8.0-c001 1.000000, 0000/00/00-00:00:00        ">
   <rdf:RDF xmlns:rdf="http://www.w3.org/1999/02/22-rdf-syntax-ns#">
      <rdf:Description rdf:about=""
            xmlns:bsam="http://www.bsam.blog"
            xmlns:tiff="http://ns.adobe.com/tiff/1.0/"
            xmlns:prism="http://prismstandard.org/namespaces/basic/2.1/"
            xmlns:dc="http://purl.org/dc/elements/1.1/">
         <bsam:rightsLimitedUnlimited>unlimited</bsam:rightsLimitedUnlimited>
         <bsam:assetOwner>
            <rdf:Bag>
               <rdf:li>enterprise:business-unit/webfleet</rdf:li>
            </rdf:Bag>
         </bsam:assetOwner>
         <bsam:industry>
            <rdf:Bag>
               <rdf:li>enterprise:industry/generic-all-industries</rdf:li>
            </rdf:Bag>
         </bsam:industry>
         <bsam:subDigitalAssetType>
            <rdf:Bag>
               <rdf:li>enterprise:digital-asset-type/image/icon</rdf:li>
            </rdf:Bag>
         </bsam:subDigitalAssetType>
         <bsam:usageCountry>
            <rdf:Bag>
               <rdf:li>enterprise:region-country/global</rdf:li>
            </rdf:Bag>
         </bsam:usageCountry>
         <tiff:ImageLength>302</tiff:ImageLength>
         <tiff:ImageWidth>302</tiff:ImageWidth>
         <prism:Date>2025-09-08T19:16:00.000+02:00</prism:Date>
         <dc:modified>2025-09-09T17:20:48.300Z</dc:modified>
         <dc:format>image/svg+xml</dc:format>
      </rdf:Description>
   </rdf:RDF>
</x:xmpmeta>
                                                                                                    
                                                                                                    
                                                                                                    
                                                                                                    
                                                                                                    
                                                                                                    
                                                                                                    
                                                                                                    
                                                                                                    
                                                                                                    
                                                                                                    
                                                                                                    
                                                                                                    
                                                                                                    
                                                                                                    
                                                                                                    
                                                                                                    
                                                                                                    
                                                                            
<?xpacket end="w"?></metadata>
<g>
	<path d="M159.7,244c-15.9,0-30.9-4.9-43.7-14.3H74.4c-27.3,0-48.8-21.2-48.8-48.2c0-25.8,19.5-46.2,45.1-48
		c4-20.8,20.1-35.9,41.2-38.6c5.7-21.8,24.2-36.5,46.9-36.5c22.7,0,41.3,13.8,47,34.2c19.4,4.3,34.4,20.2,37.6,39.8
		c19.3,6.8,33.2,26.1,33.2,47.3c0,27.1-22.3,49.9-48.8,49.9h-24.6C190.6,239.1,175.6,244,159.7,244z M74.4,148.7
		c-18.8,0-33.4,14.4-33.4,32.9c0,18.4,14.7,32.8,33.4,32.8h46.8l2.1,1.6c10.5,8.3,23.1,12.6,36.4,12.6s25.9-4.4,36.4-12.6l2.1-1.6
		H228c18.1,0,33.5-15.9,33.5-34.6c0-16.1-11.4-30.6-26.6-33.9l-5.8-1.2l-0.2-5.9c-0.7-16.5-13.6-30.1-30-31.8l-5.9-0.6l-0.9-5.9
		c-2.4-15.8-16-26.8-33.1-26.8c-17,0-30.6,12.1-33,29.5l-0.9,6.5l-6.6,0c-18.5,0.1-32.1,13.1-33.1,31.6l-0.4,7.2L74.4,148.7
		L74.4,148.7z"/>
</g>
</svg>
