<?xml version="1.0" encoding="utf-8"?>
<!-- Generator: Adobe Illustrator 27.2.0, SVG Export Plug-In . SVG Version: 6.00 Build 0)  -->
<svg version="1.1" id="Layer_1" xmlns="http://www.w3.org/2000/svg" xmlns:xlink="http://www.w3.org/1999/xlink" x="0px" y="0px"
	 viewBox="0 0 302.4 302.4" style="enable-background:new 0 0 302.4 302.4;" xml:space="preserve">
<metadata><?xpacket begin="﻿" id="W5M0MpCehiHzreSzNTczkc9d"?>
<x:xmpmeta xmlns:x="adobe:ns:meta/" x:xmptk="Adobe XMP Core 8.0-c001 1.000000, 0000/00/00-00:00:00        ">
   <rdf:RDF xmlns:rdf="http://www.w3.org/1999/02/22-rdf-syntax-ns#">
      <rdf:Description rdf:about=""
            xmlns:dc="http://purl.org/dc/elements/1.1/"
            xmlns:prism="http://prismstandard.org/namespaces/basic/2.1/"
            xmlns:tiff="http://ns.adobe.com/tiff/1.0/"
            xmlns:bsam="http://www.bsam.blog">
         <dc:modified>2025-09-09T17:19:41.338Z</dc:modified>
         <dc:format>image/svg+xml</dc:format>
         <prism:Date>2025-09-08T19:16:00.000+02:00</prism:Date>
         <tiff:ImageWidth>302</tiff:ImageWidth>
         <tiff:ImageLength>302</tiff:ImageLength>
         <bsam:rightsLimitedUnlimited>unlimited</bsam:rightsLimitedUnlimited>
         <bsam:subDigitalAssetType>
            <rdf:Bag>
               <rdf:li>enterprise:digital-asset-type/image/icon</rdf:li>
            </rdf:Bag>
         </bsam:subDigitalAssetType>
         <bsam:industry>
            <rdf:Bag>
               <rdf:li>enterprise:industry/generic-all-industries</rdf:li>
            </rdf:Bag>
         </bsam:industry>
         <bsam:assetOwner>
            <rdf:Bag>
               <rdf:li>enterprise:business-unit/webfleet</rdf:li>
            </rdf:Bag>
         </bsam:assetOwner>
         <bsam:usageCountry>
            <rdf:Bag>
               <rdf:li>enterprise:region-country/global</rdf:li>
            </rdf:Bag>
         </bsam:usageCountry>
      </rdf:Description>
   </rdf:RDF>
</x:xmpmeta>
                                                                                                    
                                                                                                    
                                                                                                    
                                                                                                    
                                                                                                    
                                                                                                    
                                                                                                    
                                                                                                    
                                                                                                    
                                                                                                    
                                                                                                    
                                                                                                    
                                                                                                    
                                                                                                    
                                                                                                    
                                                                                                    
                                                                                                    
                                                                                                    
                                                                            
<?xpacket end="w"?></metadata>
<g>
	<path d="M239.6,81.5c-2.1-8.6-8.3-15.6-16.4-18.8c0,0,0-0.1,0-0.1c-21.3-8.2-46.2-12.8-72.6-12.8c-26.9,0-52.1,4.8-73.6,13.2
		c0,0,0.1,0,0.1,0c-6.6,2.8-11.8,8.2-14.4,14.9c0,0-0.1,0-0.1,0c-8.2,21.3-12.8,46.2-12.8,72.6c0,26,4.6,50.3,12.5,71.4
		c2.5,7.8,8.3,14,15.9,16.9c0,0,0,0,0,0c21.3,8.2,46.2,12.8,72.6,12.8c26.4,0,51.2-4.7,72.5-12.9c0.3-0.1,0.7-0.2,1-0.3
		c0,0,0.1,0,0.1,0l0,0c7-3,12.4-9.1,14.8-16.4c7.8-21,12.4-45.3,12.4-71.2C251.4,125.6,247.1,102.1,239.6,81.5z M227.4,165.5
		c0,34.2-27.8,62.1-62.1,62.1h-29.6c-34.2,0-62.1-27.8-62.1-62.1v-29.6c0-34.2,27.8-62.1,62.1-62.1h29.6c34.2,0,62.1,27.8,62.1,62.1
		V165.5z"/>
	<path d="M165.3,78.9h-29.6c-31.4,0-57,25.6-57,57v29.6c0,31.4,25.6,57,57,57h29.6c31.4,0,57-25.6,57-57v-29.6
		C222.3,104.5,196.7,78.9,165.3,78.9z M195.3,162.1c0,4.7-4,8.6-9,8.6h-9v21.5c0,4.7-4,8.6-9,8.6s-9-3.8-9-8.6v-21.5h-18v21.5
		c0,4.7-4,8.6-9,8.6s-9-3.8-9-8.6v-21.5h-9c-5,0-9-3.8-9-8.6v-19.8c0-20.8,15.5-38.1,36.1-42.1c0,0,4.1-0.7,9-0.7
		c5.6,0,10.5,1,10.5,1c19.9,4.5,34.6,21.5,34.6,41.8V162.1z"/>
</g>
</svg>
