<?xml version="1.0" encoding="utf-8"?>
<!-- Generator: Adobe Illustrator 27.2.0, SVG Export Plug-In . SVG Version: 6.00 Build 0)  -->
<svg version="1.1" id="Layer_2_00000123427367684369545380000017962857169241055916_"
	 xmlns="http://www.w3.org/2000/svg" xmlns:xlink="http://www.w3.org/1999/xlink" x="0px" y="0px" viewBox="0 0 302.4 302.4"
	 style="enable-background:new 0 0 302.4 302.4;" xml:space="preserve">
<metadata><?xpacket begin="﻿" id="W5M0MpCehiHzreSzNTczkc9d"?>
<x:xmpmeta xmlns:x="adobe:ns:meta/" x:xmptk="Adobe XMP Core 8.0-c001 1.000000, 0000/00/00-00:00:00        ">
   <rdf:RDF xmlns:rdf="http://www.w3.org/1999/02/22-rdf-syntax-ns#">
      <rdf:Description rdf:about=""
            xmlns:bsam="http://www.bsam.blog"
            xmlns:tiff="http://ns.adobe.com/tiff/1.0/"
            xmlns:prism="http://prismstandard.org/namespaces/basic/2.1/"
            xmlns:dc="http://purl.org/dc/elements/1.1/">
         <bsam:rightsLimitedUnlimited>unlimited</bsam:rightsLimitedUnlimited>
         <bsam:assetOwner>
            <rdf:Bag>
               <rdf:li>enterprise:business-unit/webfleet</rdf:li>
            </rdf:Bag>
         </bsam:assetOwner>
         <bsam:industry>
            <rdf:Bag>
               <rdf:li>enterprise:industry/generic-all-industries</rdf:li>
            </rdf:Bag>
         </bsam:industry>
         <bsam:subDigitalAssetType>
            <rdf:Bag>
               <rdf:li>enterprise:digital-asset-type/image/icon</rdf:li>
            </rdf:Bag>
         </bsam:subDigitalAssetType>
         <bsam:usageCountry>
            <rdf:Bag>
               <rdf:li>enterprise:region-country/global</rdf:li>
            </rdf:Bag>
         </bsam:usageCountry>
         <tiff:ImageLength>302</tiff:ImageLength>
         <tiff:ImageWidth>302</tiff:ImageWidth>
         <prism:Date>2025-09-08T19:16:00.000+02:00</prism:Date>
         <dc:modified>2025-09-09T17:26:52.787Z</dc:modified>
         <dc:format>image/svg+xml</dc:format>
      </rdf:Description>
   </rdf:RDF>
</x:xmpmeta>
                                                                                                    
                                                                                                    
                                                                                                    
                                                                                                    
                                                                                                    
                                                                                                    
                                                                                                    
                                                                                                    
                                                                                                    
                                                                                                    
                                                                                                    
                                                                                                    
                                                                                                    
                                                                                                    
                                                                                                    
                                                                                                    
                                                                                                    
                                                                                                    
                                                                            
<?xpacket end="w"?></metadata>
<g>
	<path d="M249.6,127.3c-4.6-19.2-19.3-34.8-38.2-40.5c-7.8-21.3-28.3-35.4-52.5-35.4c-24.1,0-44.6,14.8-52.4,37.3
		c-20.2,4.2-35.8,18.7-41.4,38.4c-26.8,4.3-46.4,26.9-46.4,54.4c0,30.9,24.5,55.2,55.8,55.2h39.3c13.5,9.4,29.4,14.3,45.9,14.3
		c16.5,0,32.4-4.9,45.9-14.3H228c30.2,0,55.8-26.1,55.8-56.9C283.7,157.2,269.9,136.2,249.6,127.3z M228,222.7h-26.9l-1.8,1.4
		c-11.5,8.5-25.2,12.9-39.5,12.9c-14.3,0-28-4.5-39.5-12.9l-1.8-1.4H74.4c-23.4,0-41.8-18.1-41.8-41.2c0-21.9,16.6-39.5,38.6-41.1
		l5.4-0.4l1-5.3c3.4-17.8,17.2-30.7,35.2-33l4.7-0.6l1.2-4.6c5-19,20.7-31.2,40.2-31.2c19.5,0,35.3,11.4,40.2,29.1l1.1,4l4.1,0.9
		c16.6,3.7,29.5,17.4,32.2,34.1l0.7,4.1l3.9,1.4c16.8,5.9,28.6,22.6,28.6,40.7C269.7,203,250.6,222.7,228,222.7z"/>
	<path d="M126,179.2c-9.8,0-16.6-8.2-16.6-18v-0.2c0-9.8,7-17.8,16.6-17.8c5.7,0,10.2,2.4,14.5,6.4l7.5-8.6
		c-5.2-5.1-11.5-8.6-22-8.6c-17.1,0-29,12.9-29,28.8v0.2c0,16,12.2,28.6,28.5,28.6c10.7,0,17.1-3.8,22.8-9.9l-7.5-7.6
		C136.4,176.6,132.5,179.2,126,179.2z"/>
	<path d="M180.7,132.5c-17.1,0-29.6,13-29.6,28.8v0.2c0,15.8,12.3,28.6,29.5,28.6c17.1,0,29.6-13,29.6-28.8v-0.2
		C210.2,145.2,197.9,132.5,180.7,132.5z M197.9,161.4c0,9.8-7,17.8-17.1,17.8c-10.1,0-17.3-8.2-17.3-18v-0.2c0-9.8,7-17.8,17.1-17.8
		c10.1,0,17.3,8.2,17.3,18V161.4z"/>
	<path d="M230.9,187.8c4.7-3.7,6.6-6.4,6.6-10.7c0-5.6-4.4-9.4-10.9-9.4c-5.8,0-9,2.5-12.1,6.7l4.8,3.9c2.1-2.8,4.3-4.3,6.9-4.3
		c2.4,0,4.3,1.4,4.3,3.7c0,2.5-1.6,4.3-5.4,7.3l-10.6,8.7v5.7h23.2v-5.9h-14.1L230.9,187.8z"/>
</g>
</svg>
