<?xml version="1.0" encoding="utf-8"?>
<!-- Generator: Adobe Illustrator 26.3.1, SVG Export Plug-In . SVG Version: 6.00 Build 0)  -->
<svg version="1.1" id="Layer_1" xmlns="http://www.w3.org/2000/svg" xmlns:xlink="http://www.w3.org/1999/xlink" x="0px" y="0px"
	 viewBox="0 0 302.4 302.4" style="enable-background:new 0 0 302.4 302.4;" xml:space="preserve">
<metadata><?xpacket begin="﻿" id="W5M0MpCehiHzreSzNTczkc9d"?>
<x:xmpmeta xmlns:x="adobe:ns:meta/" x:xmptk="Adobe XMP Core 8.0-c001 1.000000, 0000/00/00-00:00:00        ">
   <rdf:RDF xmlns:rdf="http://www.w3.org/1999/02/22-rdf-syntax-ns#">
      <rdf:Description rdf:about=""
            xmlns:dc="http://purl.org/dc/elements/1.1/"
            xmlns:prism="http://prismstandard.org/namespaces/basic/2.1/"
            xmlns:bsam="http://www.bsam.blog">
         <dc:format>image/svg+xml</dc:format>
         <dc:modified>2025-09-09T17:19:08.288Z</dc:modified>
         <prism:Date>2025-09-08T19:16:00.000+02:00</prism:Date>
         <bsam:rightsLimitedUnlimited>unlimited</bsam:rightsLimitedUnlimited>
         <bsam:assetOwner>
            <rdf:Bag>
               <rdf:li>enterprise:business-unit/webfleet</rdf:li>
            </rdf:Bag>
         </bsam:assetOwner>
         <bsam:usageCountry>
            <rdf:Bag>
               <rdf:li>enterprise:region-country/global</rdf:li>
            </rdf:Bag>
         </bsam:usageCountry>
         <bsam:industry>
            <rdf:Bag>
               <rdf:li>enterprise:industry/generic-all-industries</rdf:li>
            </rdf:Bag>
         </bsam:industry>
         <bsam:subDigitalAssetType>
            <rdf:Bag>
               <rdf:li>enterprise:digital-asset-type/image/icon</rdf:li>
            </rdf:Bag>
         </bsam:subDigitalAssetType>
      </rdf:Description>
   </rdf:RDF>
</x:xmpmeta>
                                                                                                    
                                                                                                    
                                                                                                    
                                                                                                    
                                                                                                    
                                                                                                    
                                                                                                    
                                                                                                    
                                                                                                    
                                                                                                    
                                                                                                    
                                                                                                    
                                                                                                    
                                                                                                    
                                                                                                    
                                                                                                    
                                                                                                    
                                                                                                    
                                                                                                    
                                                                                                    
                           
<?xpacket end="w"?></metadata>
<g>
	<g>
		<path d="M225.6,169.8l-6-6c-1.8-1.8-3.9-5.2-4.7-7.7l-11.2-33.6c-3.2-9.7-14.2-17.6-24.4-17.6h-74.1c-10.2,0-21.2,7.9-24.4,17.6
			l-11.2,33.6c-0.8,2.4-2.9,5.9-4.7,7.7c-1.6,1.6-3.7,3.7-6,6c-5.1,5.1-9.3,17.6-9.3,27.8V244v9.3c0,5.1,4.2,9.3,9.3,9.3h18.5
			c5.1,0,9.3-4.1,9.3-9.3V244h111.2v9.3c0,5.1,4.1,9.3,9.3,9.3h18.5c5.1,0,9.3-4.1,9.3-9.3v-55.6
			C234.9,187.4,230.7,174.9,225.6,169.8z M72.7,216.2c-7.7,0-13.9-6.2-13.9-13.9s6.2-13.9,13.9-13.9s13.9,6.2,13.9,13.9
			S80.3,216.2,72.7,216.2z M174.6,225.4h-64.9c-2.6,0-4.6-2.1-4.6-4.6s2.1-4.6,4.6-4.6h64.9c2.6,0,4.6,2.1,4.6,4.6
			S177.2,225.4,174.6,225.4z M82.4,160.6c-2.6,0-4-2-3.2-4.4l10.2-30.7c2-5.9,9.4-11.2,15.6-11.2h74.1c6.2,0,13.6,5.4,15.6,11.2
			l10.2,30.7c0.8,2.4-0.6,4.4-3.2,4.4H82.4z M211.7,216.2c-7.7,0-13.9-6.2-13.9-13.9s6.2-13.9,13.9-13.9s13.9,6.2,13.9,13.9
			S219.4,216.2,211.7,216.2z"/>
	</g>
	<g>
		<g>
			<g>
				<path d="M173.8,61.3L173.8,61.3c1.6-1.6,3.8-2.4,6.2-2.4c36.4,0.9,64.5,29.1,65.6,65.4c0.1,2.4-0.8,4.6-2.4,6.2
					c-2.4,2.4-6.3,3.1-9.6,1.8c-3.2-1.3-5.3-4.2-5.4-7.8c-0.8-26.8-21.6-47.6-48.4-48.3c-3.5-0.1-6.5-2.1-7.8-5.4
					C170.6,67.6,171.4,63.8,173.8,61.3z"/>
			</g>
		</g>
		<g>
			<g>
				<path d="M173.7,28.5L173.7,28.5c1.6-1.6,3.8-2.4,6.1-2.4c54.2,0.9,97.5,44.1,98.6,98.3c0,2.4-0.8,4.6-2.4,6.1
					c-2.4,2.4-6.3,3.2-9.7,1.8c-3.2-1.3-5.2-4.3-5.3-7.8c-0.8-44.8-36.6-80.4-81.3-81.2c-3.5-0.1-6.5-2.1-7.8-5.3
					C170.6,34.8,171.3,30.9,173.7,28.5z"/>
			</g>
		</g>
	</g>
</g>
</svg>
