<?xml version="1.0" encoding="utf-8"?>
<!-- Generator: Adobe Illustrator 26.3.1, SVG Export Plug-In . SVG Version: 6.00 Build 0)  -->
<svg version="1.1" id="Layer_1" xmlns="http://www.w3.org/2000/svg" xmlns:xlink="http://www.w3.org/1999/xlink" x="0px" y="0px"
	 viewBox="0 0 302.4 302.4" style="enable-background:new 0 0 302.4 302.4;" xml:space="preserve">
<metadata><?xpacket begin="﻿" id="W5M0MpCehiHzreSzNTczkc9d"?>
<x:xmpmeta xmlns:x="adobe:ns:meta/" x:xmptk="Adobe XMP Core 8.0-c001 1.000000, 0000/00/00-00:00:00        ">
   <rdf:RDF xmlns:rdf="http://www.w3.org/1999/02/22-rdf-syntax-ns#">
      <rdf:Description rdf:about=""
            xmlns:bsam="http://www.bsam.blog"
            xmlns:tiff="http://ns.adobe.com/tiff/1.0/"
            xmlns:prism="http://prismstandard.org/namespaces/basic/2.1/"
            xmlns:dc="http://purl.org/dc/elements/1.1/">
         <bsam:rightsLimitedUnlimited>unlimited</bsam:rightsLimitedUnlimited>
         <bsam:assetOwner>
            <rdf:Bag>
               <rdf:li>enterprise:business-unit/webfleet</rdf:li>
            </rdf:Bag>
         </bsam:assetOwner>
         <bsam:industry>
            <rdf:Bag>
               <rdf:li>enterprise:industry/generic-all-industries</rdf:li>
            </rdf:Bag>
         </bsam:industry>
         <bsam:subDigitalAssetType>
            <rdf:Bag>
               <rdf:li>enterprise:digital-asset-type/image/icon</rdf:li>
            </rdf:Bag>
         </bsam:subDigitalAssetType>
         <bsam:usageCountry>
            <rdf:Bag>
               <rdf:li>enterprise:region-country/global</rdf:li>
            </rdf:Bag>
         </bsam:usageCountry>
         <tiff:ImageLength>302</tiff:ImageLength>
         <tiff:ImageWidth>302</tiff:ImageWidth>
         <prism:Date>2025-09-08T19:16:00.000+02:00</prism:Date>
         <dc:modified>2025-09-09T17:19:08.289Z</dc:modified>
         <dc:format>image/svg+xml</dc:format>
      </rdf:Description>
   </rdf:RDF>
</x:xmpmeta>
                                                                                                    
                                                                                                    
                                                                                                    
                                                                                                    
                                                                                                    
                                                                                                    
                                                                                                    
                                                                                                    
                                                                                                    
                                                                                                    
                                                                                                    
                                                                                                    
                                                                                                    
                                                                                                    
                                                                                                    
                                                                                                    
                                                                                                    
                                                                                                    
                                                                            
<?xpacket end="w"?></metadata>
<g>
	<path d="M214.1,145.9c-25.1,0-45.6,20.4-45.6,45.6s20.4,45.6,45.6,45.6s45.6-20.4,45.6-45.6S239.2,145.9,214.1,145.9z M214.1,226.3
		c-19.2,0-34.8-15.6-34.8-34.8s15.6-34.8,34.8-34.8s34.8,15.6,34.8,34.8C248.9,210.6,233.3,226.3,214.1,226.3z"/>
	<path d="M88.3,145.9c-25.1,0-45.6,20.4-45.6,45.6S63.2,237,88.3,237s45.6-20.4,45.6-45.6S113.5,145.9,88.3,145.9z M88.3,226.3
		c-19.2,0-34.8-15.6-34.8-34.8s15.6-34.8,34.8-34.8s34.8,15.6,34.8,34.8C123.2,210.6,107.5,226.3,88.3,226.3z"/>
	<path d="M167.1,147.5l-22.4-12.9l19.6-16.5l7.3,16.3c1.3,2.9,4.2,4.7,7.3,4.7h29.2c4.4,0,8-3.6,8-8c0-4.4-3.6-8-8-8h-24l-10.7-23.9
		c-0.5-2-1.5-3.9-2.9-5.6c-5.2-6.2-14.6-7-20.8-1.8l-31.8,26.7c-6.2,5.2-7,14.5-1.8,20.8c2,2.3,4.5,3.9,7.2,4.7l27.6,15.9
		l-12.2,34.4c-1.7,4.9,0.8,10.3,5.7,12c1,0.4,2.1,0.5,3.1,0.5c3.9,0,7.5-2.4,8.9-6.3l14.8-41.8C172.7,154.5,171,149.8,167.1,147.5z"
		/>
	<path d="M189.4,96.9c8.9,0,16.2-7.2,16.2-16.2c0-8.9-7.2-16.2-16.2-16.2c-8.9,0-16.2,7.2-16.2,16.2S180.5,96.9,189.4,96.9z"/>
</g>
</svg>
