<?xml version="1.0" encoding="utf-8"?>
<!-- Generator: Adobe Illustrator 26.3.1, SVG Export Plug-In . SVG Version: 6.00 Build 0)  -->
<svg version="1.1" id="Layer_1" xmlns="http://www.w3.org/2000/svg" xmlns:xlink="http://www.w3.org/1999/xlink" x="0px" y="0px"
	 viewBox="0 0 302.4 302.4" style="enable-background:new 0 0 302.4 302.4;" xml:space="preserve">
<metadata><?xpacket begin="﻿" id="W5M0MpCehiHzreSzNTczkc9d"?>
<x:xmpmeta xmlns:x="adobe:ns:meta/" x:xmptk="Adobe XMP Core 8.0-c001 1.000000, 0000/00/00-00:00:00        ">
   <rdf:RDF xmlns:rdf="http://www.w3.org/1999/02/22-rdf-syntax-ns#">
      <rdf:Description rdf:about=""
            xmlns:bsam="http://www.bsam.blog"
            xmlns:tiff="http://ns.adobe.com/tiff/1.0/"
            xmlns:prism="http://prismstandard.org/namespaces/basic/2.1/"
            xmlns:dc="http://purl.org/dc/elements/1.1/">
         <bsam:rightsLimitedUnlimited>unlimited</bsam:rightsLimitedUnlimited>
         <bsam:assetOwner>
            <rdf:Bag>
               <rdf:li>enterprise:business-unit/webfleet</rdf:li>
            </rdf:Bag>
         </bsam:assetOwner>
         <bsam:industry>
            <rdf:Bag>
               <rdf:li>enterprise:industry/generic-all-industries</rdf:li>
            </rdf:Bag>
         </bsam:industry>
         <bsam:subDigitalAssetType>
            <rdf:Bag>
               <rdf:li>enterprise:digital-asset-type/image/icon</rdf:li>
            </rdf:Bag>
         </bsam:subDigitalAssetType>
         <bsam:usageCountry>
            <rdf:Bag>
               <rdf:li>enterprise:region-country/global</rdf:li>
            </rdf:Bag>
         </bsam:usageCountry>
         <tiff:ImageLength>302</tiff:ImageLength>
         <tiff:ImageWidth>302</tiff:ImageWidth>
         <prism:Date>2025-09-08T19:16:00.000+02:00</prism:Date>
         <dc:modified>2025-09-09T17:17:18.917Z</dc:modified>
         <dc:format>image/svg+xml</dc:format>
      </rdf:Description>
   </rdf:RDF>
</x:xmpmeta>
                                                                                                    
                                                                                                    
                                                                                                    
                                                                                                    
                                                                                                    
                                                                                                    
                                                                                                    
                                                                                                    
                                                                                                    
                                                                                                    
                                                                                                    
                                                                                                    
                                                                                                    
                                                                                                    
                                                                                                    
                                                                                                    
                                                                                                    
                                                                                                    
                                                                            
<?xpacket end="w"?></metadata>
<g>
	<path d="M232.1,137.3l-6-6c-1.8-1.8-3.9-5.2-4.8-7.7l-11.2-33.7c-3.2-9.7-14.2-17.6-24.4-17.6h-74.2c-10.2,0-21.2,7.9-24.4,17.6
		l-11.2,33.7c-0.8,2.4-2.9,5.9-4.8,7.7c-1.6,1.6-3.7,3.7-6,6c-5.1,5.1-9.3,17.6-9.3,27.8v46.4v9.3c0,5.1,4.2,9.3,9.3,9.3h18.6
		c5.1,0,9.3-4.1,9.3-9.3v-9.3h111.3v9.3c0,5.1,4.1,9.3,9.3,9.3h18.6c5.1,0,9.3-4.1,9.3-9.3v-55.7
		C241.4,154.9,237.2,142.4,232.1,137.3z M79,183.7c-7.7,0-13.9-6.2-13.9-13.9s6.2-13.9,13.9-13.9s13.9,6.2,13.9,13.9
		C92.9,177.4,86.7,183.7,79,183.7z M181.1,192.9h-64.9c-2.6,0-4.6-2.1-4.6-4.6s2.1-4.6,4.6-4.6h64.9c2.6,0,4.6,2.1,4.6,4.6
		C185.7,190.9,183.6,192.9,181.1,192.9z M88.8,128c-2.6,0-4-2-3.2-4.4l10.2-30.7c2-5.9,9.4-11.3,15.6-11.3h74.2
		c6.2,0,13.7,5.4,15.6,11.3l10.2,30.7c0.8,2.4-0.6,4.4-3.2,4.4C208.4,128,88.8,128,88.8,128z M218.2,183.7
		c-7.7,0-13.9-6.2-13.9-13.9s6.2-13.9,13.9-13.9s13.9,6.2,13.9,13.9C232.1,177.4,225.9,183.7,218.2,183.7z"/>
</g>
</svg>
