<?xml version="1.0" encoding="utf-8"?>
<!-- Generator: Adobe Illustrator 27.0.0, SVG Export Plug-In . SVG Version: 6.00 Build 0)  -->
<svg version="1.1" id="Layer_1" xmlns="http://www.w3.org/2000/svg" xmlns:xlink="http://www.w3.org/1999/xlink" x="0px" y="0px"
	 viewBox="0 0 302.4 302.4" style="enable-background:new 0 0 302.4 302.4;" xml:space="preserve">
<metadata><?xpacket begin="﻿" id="W5M0MpCehiHzreSzNTczkc9d"?>
<x:xmpmeta xmlns:x="adobe:ns:meta/" x:xmptk="Adobe XMP Core 8.0-c001 1.000000, 0000/00/00-00:00:00        ">
   <rdf:RDF xmlns:rdf="http://www.w3.org/1999/02/22-rdf-syntax-ns#">
      <rdf:Description rdf:about=""
            xmlns:bsam="http://www.bsam.blog"
            xmlns:tiff="http://ns.adobe.com/tiff/1.0/"
            xmlns:prism="http://prismstandard.org/namespaces/basic/2.1/"
            xmlns:dc="http://purl.org/dc/elements/1.1/">
         <bsam:rightsLimitedUnlimited>unlimited</bsam:rightsLimitedUnlimited>
         <bsam:assetOwner>
            <rdf:Bag>
               <rdf:li>enterprise:business-unit/webfleet</rdf:li>
            </rdf:Bag>
         </bsam:assetOwner>
         <bsam:industry>
            <rdf:Bag>
               <rdf:li>enterprise:industry/generic-all-industries</rdf:li>
            </rdf:Bag>
         </bsam:industry>
         <bsam:subDigitalAssetType>
            <rdf:Bag>
               <rdf:li>enterprise:digital-asset-type/image/icon</rdf:li>
            </rdf:Bag>
         </bsam:subDigitalAssetType>
         <bsam:usageCountry>
            <rdf:Bag>
               <rdf:li>enterprise:region-country/global</rdf:li>
            </rdf:Bag>
         </bsam:usageCountry>
         <tiff:ImageLength>302</tiff:ImageLength>
         <tiff:ImageWidth>302</tiff:ImageWidth>
         <prism:Date>2025-09-08T19:16:00.000+02:00</prism:Date>
         <dc:modified>2025-09-09T17:26:21.839Z</dc:modified>
         <dc:format>image/svg+xml</dc:format>
      </rdf:Description>
   </rdf:RDF>
</x:xmpmeta>
                                                                                                    
                                                                                                    
                                                                                                    
                                                                                                    
                                                                                                    
                                                                                                    
                                                                                                    
                                                                                                    
                                                                                                    
                                                                                                    
                                                                                                    
                                                                                                    
                                                                                                    
                                                                                                    
                                                                                                    
                                                                                                    
                                                                                                    
                                                                                                    
                                                                            
<?xpacket end="w"?></metadata>
<g>
	<path d="M210.1,248.7v-41.8c0-7.7-6.3-14-14-14v-14.2l0,0c3.9,0,7-3.1,7-7v-21c0-3.9-3.1-7-7-7l0,0l0-35c0-3.9-3.1-7-7-7H84
		c-3.9,0-7,3.2-7,7v35c-3.9,0-7,3.1-7,7v21c0,3.9,3.1,7,7,7v14.2c-7.7,0-14,6.3-14,14v41.8h0v13.6c0,4.1,3.4,7.4,7.4,7.4h20.1
		c4.1,0,7.4-3.4,7.4-7.4v-6.1c0,0,0,0,0-0.1v-7.4h77v7.4v6.2c0,4.1,3.4,7.4,7.4,7.4h20.1c4.1,0,7.4-3.4,7.4-7.4L210.1,248.7
		L210.1,248.7z M84,224.2c-5.8,0-10.5-4.7-10.5-10.5c0-5.8,4.7-10.5,10.5-10.5s10.5,4.7,10.5,10.5C94.5,219.5,89.8,224.2,84,224.2z
		 M168.1,231.8c0,5.5-4.5,9.9-9.9,9.9h-43.2c-5.5,0-9.9-4.5-9.9-9.9v-22.2c0-5.5,4.5-9.9,9.9-9.9h43.2c5.5,0,9.9,4.5,9.9,9.9V231.8z
		 M182.1,175.7c0,5.5-4.5,9.9-9.9,9.9h-71.2c-5.5,0-9.9-4.5-9.9-9.9v-22.2c0-5.5,4.5-9.9,9.9-9.9h71.2c5.5,0,9.9,4.5,9.9,9.9V175.7z
		 M189.1,224.2c-5.8,0-10.5-4.7-10.5-10.5c0-5.8,4.7-10.5,10.5-10.5s10.5,4.7,10.5,10.5C199.6,219.5,194.9,224.2,189.1,224.2z"/>
	<g>
		<g>
			<g>
				<path d="M169.9,65C169.9,65,169.9,65,169.9,65c1.6-1.6,3.8-2.5,6.3-2.4c37,1,65.7,29.6,66.7,66.6c0.1,2.4-0.8,4.7-2.4,6.3
					c-2.5,2.5-6.4,3.2-9.8,1.9c-3.3-1.3-5.4-4.3-5.5-7.9c-0.8-27.3-22-48.5-49.3-49.2c-3.6-0.1-6.6-2.2-7.9-5.4
					C166.7,71.4,167.4,67.5,169.9,65z"/>
			</g>
		</g>
		<g>
			<g>
				<path d="M169.9,31.6L169.9,31.6c1.6-1.6,3.8-2.5,6.2-2.4C231.3,30,275.4,74,276.4,129.2c0,2.4-0.8,4.6-2.4,6.2
					c-2.5,2.5-6.4,3.2-9.8,1.9c-3.3-1.3-5.3-4.3-5.4-7.9c-0.9-45.6-37.2-81.8-82.8-82.6c-3.6-0.1-6.6-2.1-7.9-5.4
					C166.7,38,167.4,34,169.9,31.6z"/>
			</g>
		</g>
	</g>
</g>
</svg>
