<?xml version="1.0" encoding="utf-8"?>
<!-- Generator: Adobe Illustrator 26.3.1, SVG Export Plug-In . SVG Version: 6.00 Build 0)  -->
<svg version="1.1" id="Layer_1" xmlns="http://www.w3.org/2000/svg" xmlns:xlink="http://www.w3.org/1999/xlink" x="0px" y="0px"
	 viewBox="0 0 302.4 302.4" style="enable-background:new 0 0 302.4 302.4;" xml:space="preserve">
<metadata><?xpacket begin="﻿" id="W5M0MpCehiHzreSzNTczkc9d"?>
<x:xmpmeta xmlns:x="adobe:ns:meta/" x:xmptk="Adobe XMP Core 8.0-c001 1.000000, 0000/00/00-00:00:00        ">
   <rdf:RDF xmlns:rdf="http://www.w3.org/1999/02/22-rdf-syntax-ns#">
      <rdf:Description rdf:about=""
            xmlns:dc="http://purl.org/dc/elements/1.1/"
            xmlns:prism="http://prismstandard.org/namespaces/basic/2.1/"
            xmlns:tiff="http://ns.adobe.com/tiff/1.0/"
            xmlns:bsam="http://www.bsam.blog">
         <dc:modified>2025-09-09T17:05:21.227Z</dc:modified>
         <dc:format>image/svg+xml</dc:format>
         <prism:Date>2025-09-08T19:16:00.000+02:00</prism:Date>
         <tiff:ImageWidth>302</tiff:ImageWidth>
         <tiff:ImageLength>302</tiff:ImageLength>
         <bsam:rightsLimitedUnlimited>unlimited</bsam:rightsLimitedUnlimited>
         <bsam:subDigitalAssetType>
            <rdf:Bag>
               <rdf:li>enterprise:digital-asset-type/image/icon</rdf:li>
            </rdf:Bag>
         </bsam:subDigitalAssetType>
         <bsam:industry>
            <rdf:Bag>
               <rdf:li>enterprise:industry/generic-all-industries</rdf:li>
            </rdf:Bag>
         </bsam:industry>
         <bsam:assetOwner>
            <rdf:Bag>
               <rdf:li>enterprise:business-unit/webfleet</rdf:li>
            </rdf:Bag>
         </bsam:assetOwner>
         <bsam:usageCountry>
            <rdf:Bag>
               <rdf:li>enterprise:region-country/global</rdf:li>
            </rdf:Bag>
         </bsam:usageCountry>
      </rdf:Description>
   </rdf:RDF>
</x:xmpmeta>
                                                                                                    
                                                                                                    
                                                                                                    
                                                                                                    
                                                                                                    
                                                                                                    
                                                                                                    
                                                                                                    
                                                                                                    
                           
<?xpacket end="w"?></metadata>
<g>
	<g>
		<path d="M101.5,84.8c5.6,0,10.2-4.6,10.2-10.2V64.4c0-5.6-4.6-10.2-10.2-10.2s-10.2,4.6-10.2,10.2v10.2
			C91.3,80.2,95.9,84.8,101.5,84.8z"/>
		<path d="M200.9,84.8c5.6,0,10.2-4.6,10.2-10.2V64.4c0-5.6-4.6-10.2-10.2-10.2s-10.2,4.6-10.2,10.2v10.2
			C190.6,80.2,195.2,84.8,200.9,84.8z"/>
		<path d="M235.1,64.4h-13.8v10.2c0,11.3-9.2,20.4-20.4,20.4s-20.4-9.2-20.4-20.4V64.4H122v10.2c0,11.3-9.2,20.4-20.4,20.4
			s-20.4-9.2-20.4-20.4V64.4H67.3c-8.5,0-15.3,6.9-15.3,15.3v153.2c0,8.5,6.9,15.3,15.3,15.3h167.7c8.5,0,15.3-6.9,15.3-15.3V79.7
			C250.4,71.2,243.5,64.4,235.1,64.4z M240.2,227.8c0,5.6-4.6,10.2-10.2,10.2H72.4c-5.6,0-10.2-4.6-10.2-10.2V125.7
			c0-5.6,4.6-10.2,10.2-10.2H230c5.6,0,10.2,4.6,10.2,10.2L240.2,227.8L240.2,227.8z"/>
	</g>
	<g>
		<path d="M91.3,200.1l24.1-19.7c9-7.4,12.5-11.4,12.5-17.4c0-6.1-4-9.4-9.7-9.4c-5.6,0-9.4,3.1-14.8,9.7l-11.2-9
			c7.1-9.7,14.1-15,27-15c15,0,24.9,8.8,24.9,22.3v0.2c0,12.1-6.2,18.1-19,28l-11.8,9.1h31.5v13.8H91.3V200.1z"/>
		<path d="M154.6,201.5l11-10.4c5,5.6,10.1,8.7,17.5,8.7c6,0,10.2-3.4,10.2-8.8v-0.2c0-5.9-5.3-9.2-14.2-9.2h-6.6l-2.5-10.1
			l17.3-17.4h-28.4v-13.6h48.9v12l-18.3,17.5c9.8,1.6,19.4,6.8,19.4,20.3v0.2c0,13.6-9.9,23.7-26.1,23.7
			C169.8,214,160.8,208.8,154.6,201.5z"/>
	</g>
</g>
</svg>
