<?xml version="1.0" encoding="utf-8"?>
<!-- Generator: Adobe Illustrator 26.4.1, SVG Export Plug-In . SVG Version: 6.00 Build 0)  -->
<svg version="1.1" id="Layer_2" xmlns="http://www.w3.org/2000/svg" xmlns:xlink="http://www.w3.org/1999/xlink" x="0px" y="0px"
	 viewBox="0 0 302.4 302.4" style="enable-background:new 0 0 302.4 302.4;" xml:space="preserve">
<metadata><?xpacket begin="﻿" id="W5M0MpCehiHzreSzNTczkc9d"?>
<x:xmpmeta xmlns:x="adobe:ns:meta/" x:xmptk="Adobe XMP Core 8.0-c001 1.000000, 0000/00/00-00:00:00        ">
   <rdf:RDF xmlns:rdf="http://www.w3.org/1999/02/22-rdf-syntax-ns#">
      <rdf:Description rdf:about=""
            xmlns:bsam="http://www.bsam.blog"
            xmlns:tiff="http://ns.adobe.com/tiff/1.0/"
            xmlns:prism="http://prismstandard.org/namespaces/basic/2.1/"
            xmlns:dc="http://purl.org/dc/elements/1.1/">
         <bsam:rightsLimitedUnlimited>unlimited</bsam:rightsLimitedUnlimited>
         <bsam:assetOwner>
            <rdf:Bag>
               <rdf:li>enterprise:business-unit/webfleet</rdf:li>
            </rdf:Bag>
         </bsam:assetOwner>
         <bsam:industry>
            <rdf:Bag>
               <rdf:li>enterprise:industry/generic-all-industries</rdf:li>
            </rdf:Bag>
         </bsam:industry>
         <bsam:subDigitalAssetType>
            <rdf:Bag>
               <rdf:li>enterprise:digital-asset-type/image/icon</rdf:li>
            </rdf:Bag>
         </bsam:subDigitalAssetType>
         <bsam:usageCountry>
            <rdf:Bag>
               <rdf:li>enterprise:region-country/global</rdf:li>
            </rdf:Bag>
         </bsam:usageCountry>
         <tiff:ImageLength>302</tiff:ImageLength>
         <tiff:ImageWidth>302</tiff:ImageWidth>
         <prism:Date>2025-09-08T19:16:00.000+02:00</prism:Date>
         <dc:modified>2025-09-09T17:22:02.061Z</dc:modified>
         <dc:format>image/svg+xml</dc:format>
      </rdf:Description>
   </rdf:RDF>
</x:xmpmeta>
                                                                                                    
                                                                                                    
                                                                                                    
                                                                                                    
                                                                                                    
                                                                                                    
                                                                                                    
                                                                                                    
                                                                                                    
                                                                                                    
                                                                                                    
                                                                                                    
                                                                                                    
                                                                                                    
                                                                                                    
                                                                                                    
                                                                                                    
                                                                                                    
                                                                            
<?xpacket end="w"?></metadata>
<g>
	<path d="M234.4,193.8c-12,0-21.7,9.7-21.7,21.7s9.7,21.7,21.7,21.7s21.8-9.7,21.8-21.7S246.4,193.8,234.4,193.8z"/>
	<path d="M74.9,193.8c-12,0-21.7,9.7-21.7,21.7s9.7,21.7,21.7,21.7s21.8-9.7,21.8-21.7S86.9,193.8,74.9,193.8z"/>
	<path d="M272.9,194.9c-0.8,0-1.5-0.7-1.5-1.5s0.7-1.5,1.5-1.5h6.7c0.2-40.9-3.3-34.2-15.5-43.1c-5.1-13.4-12-31.7-17.1-40
		c-4.7-7.6-13.6-8.1-44.8-7.8h-10.4l0.1,94.7H94.2c7.3,6.5,9.2,14.3,8.3,22.4c-0.4,4.1,1.8,6.8,4.4,6.8h101.3l-0.7-2.6
		c-0.6-2.2-0.9-4.5-0.9-6.8c0-15.4,12.5-27.9,27.9-27.9s27.9,12.5,27.9,27.9c0,2.4-0.3,4.6-0.9,6.8l-0.6,2.5l9,0.1
		c7.3,0,12.7-8.5,12.7-15.8v-14.2L272.9,194.9L272.9,194.9z M251.4,148.5h-45c-2,0-3.6-1.5-3.6-3.4v-30.6c0-1.9,1.6-3.4,3.6-3.4
		l31.4,0.6c3,0,4.8,1.8,6.4,4.3c1.6,2.5,3.8,7,6,12.3c2.2,5.3,4.9,14,4.9,16.8C255.1,146.8,253.4,148.5,251.4,148.5z"/>
	<path d="M63.5,190.1c0.1-0.1,0.3-0.1,0.4-0.2c0.4-0.2,0.8-0.3,1.2-0.5c0.4-0.2,0.8-0.3,1.3-0.5s1-0.3,1.5-0.4
		c0.4-0.1,0.9-0.2,1.3-0.4c0.2,0,0.4-0.1,0.7-0.1c1.6-0.3,3.3-0.5,5.1-0.5c1.7,0,3.4,0.2,5,0.5c0.2,0.1,0.5,0.1,0.8,0.1
		c0.4,0.1,0.8,0.2,1.2,0.3c0.6,0.1,1.1,0.3,1.6,0.4c0.4,0.1,0.7,0.3,1.1,0.4c0.5,0.2,0.9,0.3,1.4,0.5c0.1,0.1,0.3,0.1,0.4,0.1h100
		v-125h-47.2h-105H32c-6.7,0-12.1,5.4-12.2,12.1v112.9h43.7V190.1z M62.2,119.2l11.4-3.5l-8.3-4.7c-2-1.4-2.5-4.3-1.1-6.3
		c0.8-1.2,2.2-1.9,3.7-1.9c0.9,0,1.8,0.3,2.6,0.8l6.5,3.6l-3.1-10.1c-0.6-1.8,0.5-3.8,2.3-4.4s3.8,0.4,4.4,2.3l5.1,16.3
		c0.1,0.2,0.1,0.5,0.1,0.7l14.6,8c0.2,0.2,0.5,0.2,0.8,0.2c0.2,0,0.4-0.1,0.6-0.2c0.4-0.2,0.7-0.7,0.7-1.2v-1.9l-0.1-12.3v-3
		c-0.3-0.2-0.6-0.3-0.9-0.6L89.4,89c-1.4-1.4-1.4-3.6,0-4.9c1.4-1.4,3.6-1.4,4.9,0l8,8v-9.8c0-2.5,2-4.5,4.5-4.5s4.5,2,4.5,4.5v9.8
		l8-8c1.4-1.4,3.6-1.4,4.9,0c1.4,1.4,1.4,3.6,0,4.9l-12,12c-0.3,0.2-0.6,0.4-0.9,0.6v17.1c0,0.5,0.3,0.9,0.7,1.2
		c0.2,0.1,0.4,0.2,0.6,0.2c0.3,0,0.5-0.1,0.8-0.2l14.6-8c0-0.2,0.1-0.5,0.1-0.7l5.1-16.3c0.6-1.8,2.6-2.9,4.4-2.3
		c1.8,0.6,2.9,2.5,2.3,4.4l-3.1,10.1l6.5-3.6c0.8-0.6,1.7-0.8,2.6-0.8c1.5,0,2.8,0.7,3.7,1.9c1.4,2,1,4.8-1.1,6.3l-8.3,4.7l11.4,3.5
		c1.8,0.6,2.9,2.5,2.3,4.4c-0.6,1.7-2.3,2.8-4.1,2.4c-0.1,0-0.2-0.1-0.3-0.1l-16.3-5.1c-0.4-0.1-0.8-0.3-1.1-0.6l-16.1,9.1
		c-0.3,0.2-0.6,0.6-0.6,1.1c0,0.4,0.2,0.8,0.5,1.1l12.9,7.8c0.3-0.2,0.6-0.3,1-0.4l16.6-3.7c0.1,0,0.2-0.1,0.3-0.1
		c1.8-0.2,3.4,0.9,3.9,2.7c0.4,1.9-0.8,3.8-2.6,4.2l-10.7,2.4l10.5,6.4c2,1.5,2.4,4.3,0.9,6.3c-0.9,1.1-2.2,1.8-3.6,1.8
		c-1,0-1.9-0.3-2.7-0.9l-10.2-6l2.5,11.1c0.4,1.9-0.8,3.8-2.6,4.2c-1.9,0.5-3.8-0.8-4.2-2.6l-3.7-16.6c-0.1-0.3-0.1-0.6-0.1-0.9
		l-10.5-6.2c-0.2-0.2-0.5-0.3-0.8-0.3c-0.2,0-0.4,0-0.6,0.1c-0.4,0.2-0.7,0.7-0.7,1.2v17.3c0.3,0.2,0.6,0.3,0.9,0.6l12,12
		c1.4,1.4,1.4,3.6,0,4.9c-0.7,0.7-1.6,1-2.5,1s-1.8-0.4-2.5-1l-8-8v9.2c0,2.5-2,4.5-4.5,4.5s-4.5-2-4.5-4.5v-9.2l-8,8
		c-0.7,0.7-1.6,1-2.5,1s-1.8-0.3-2.5-1c-1.4-1.4-1.4-3.6,0-4.9l12.1-12c0.3-0.3,0.6-0.4,0.9-0.6v-4.4l0.1-9.9v-3
		c0-0.5-0.3-1-0.7-1.2c-0.2-0.1-0.4-0.1-0.6-0.1c-0.3,0-0.6,0.1-0.8,0.3l-10.5,6.2c0,0.3,0,0.6-0.1,0.9l-3.7,16.6
		c-0.4,1.9-2.3,3.1-4.2,2.6c-1.9-0.4-3.1-2.3-2.6-4.2l2.5-11.1l-10.2,6c-0.8,0.6-1.7,0.9-2.7,0.9c-1.4,0-2.8-0.7-3.6-1.8
		c-1.5-2-1.1-4.8,0.9-6.3l10.5-6.4L65.8,142c-1.9-0.4-3.1-2.3-2.6-4.2c0.4-1.8,2.1-2.9,3.8-2.7c0.1,0,0.2,0,0.3,0.1l16.6,3.7
		c0.4,0.1,0.7,0.2,1,0.4l12.9-7.8c0.3-0.2,0.5-0.6,0.5-1.1c0-0.4-0.2-0.8-0.6-1.1l-16.1-9.1c-0.3,0.3-0.7,0.5-1.1,0.6l-16.3,5.1
		c-0.1,0-0.2,0.1-0.3,0.1c-1.7,0.4-3.5-0.7-4-2.4C59.4,121.7,60.4,119.8,62.2,119.2z"/>
	<path d="M55.5,195.6H19.8c0,0,0.1,3,0.8,9.7c1.3,13.8,14.4,20,28,19.6c-0.6-2.3-1.5-5.1-1.5-9.4C47.1,207.7,50.3,200.6,55.5,195.6z
		"/>
</g>
</svg>
