<?xml version="1.0" encoding="utf-8"?>
<!-- Generator: Adobe Illustrator 26.3.1, SVG Export Plug-In . SVG Version: 6.00 Build 0)  -->
<svg version="1.1" id="Layer_1" xmlns="http://www.w3.org/2000/svg" xmlns:xlink="http://www.w3.org/1999/xlink" x="0px" y="0px"
	 viewBox="0 0 302.4 302.4" style="enable-background:new 0 0 302.4 302.4;" xml:space="preserve">
<metadata><?xpacket begin="﻿" id="W5M0MpCehiHzreSzNTczkc9d"?>
<x:xmpmeta xmlns:x="adobe:ns:meta/" x:xmptk="Adobe XMP Core 8.0-c001 1.000000, 0000/00/00-00:00:00        ">
   <rdf:RDF xmlns:rdf="http://www.w3.org/1999/02/22-rdf-syntax-ns#">
      <rdf:Description rdf:about=""
            xmlns:bsam="http://www.bsam.blog"
            xmlns:tiff="http://ns.adobe.com/tiff/1.0/"
            xmlns:prism="http://prismstandard.org/namespaces/basic/2.1/"
            xmlns:dc="http://purl.org/dc/elements/1.1/">
         <bsam:rightsLimitedUnlimited>unlimited</bsam:rightsLimitedUnlimited>
         <bsam:assetOwner>
            <rdf:Bag>
               <rdf:li>enterprise:business-unit/webfleet</rdf:li>
            </rdf:Bag>
         </bsam:assetOwner>
         <bsam:industry>
            <rdf:Bag>
               <rdf:li>enterprise:industry/generic-all-industries</rdf:li>
            </rdf:Bag>
         </bsam:industry>
         <bsam:subDigitalAssetType>
            <rdf:Bag>
               <rdf:li>enterprise:digital-asset-type/image/icon</rdf:li>
            </rdf:Bag>
         </bsam:subDigitalAssetType>
         <bsam:usageCountry>
            <rdf:Bag>
               <rdf:li>enterprise:region-country/global</rdf:li>
            </rdf:Bag>
         </bsam:usageCountry>
         <tiff:ImageLength>302</tiff:ImageLength>
         <tiff:ImageWidth>302</tiff:ImageWidth>
         <prism:Date>2025-09-08T19:16:00.000+02:00</prism:Date>
         <dc:modified>2025-09-09T17:20:03.298Z</dc:modified>
         <dc:format>image/svg+xml</dc:format>
      </rdf:Description>
   </rdf:RDF>
</x:xmpmeta>
                                                                                                    
                                                                                                    
                                                                                                    
                                                                                                    
                                                                                                    
                                                                                                    
                                                                                                    
                                                                                                    
                                                                                                    
                                                                                                    
                                                                                                    
                                                                                                    
                                                                                                    
                                                                                                    
                                                                                                    
                                                                                                    
                                                                                                    
                                                                                                    
                                                                            
<?xpacket end="w"?></metadata>
<g>
	<g>
		<g>
			<path d="M67.2,228.3c-6.4,0-11.6-5.2-11.6-11.6c0-6.4,5.2-11.6,11.6-11.6s11.6,5.2,11.6,11.6C78.9,223.1,73.6,228.3,67.2,228.3
				 M75.4,181.8c-2.1,0-3.3-1.7-2.7-3.7l8.6-25.7c1.6-4.9,7.9-9.4,13.1-9.4h62c5.2,0,11.4,4.5,13.1,9.4l8.6,25.7
				c0.7,2-0.5,3.7-2.6,3.7H75.4z M98.2,236.1c-2.1,0-3.9-1.7-3.9-3.9c0-2.1,1.7-3.9,3.9-3.9h54.3c2.1,0,3.9,1.7,3.9,3.9
				c0,2.1-1.7,3.9-3.9,3.9H98.2 M183.5,228.3c-6.4,0-11.6-5.2-11.6-11.6c0-6.4,5.2-11.6,11.6-11.6c6.4,0,11.6,5.2,11.6,11.6
				C195.2,223.1,189.9,228.3,183.5,228.3 M55.6,189.6c-4.3,4.3-7.8,14.7-7.8,23.3v46.5c0,4.3,3.5,7.8,7.8,7.8h15.5
				c4.3,0,7.8-3.5,7.8-7.8v-7.8h93v7.8c0,4.3,3.5,7.8,7.8,7.8h15.5c4.3,0,7.8-3.5,7.8-7.8v-7.8v-38.8c0-8.6-3.5-19-7.8-23.3
				c-1.9-1.9-3.7-3.7-5-5c-1.5-1.5-3.3-4.4-4-6.4l-9.4-28.1c-2.7-8.1-11.9-14.7-20.4-14.7h-62c-8.6,0-17.7,6.6-20.4,14.7l-9.4,28.1
				c-0.7,2-2.5,4.9-4,6.4L55.6,189.6"/>
			<path d="M20.7,139.2c-2.1,2.1-3.9,7.3-3.9,11.6v38.8c0,4.3,3.5,7.8,7.8,7.8h7.8c4.3,0,7.8-3.5,7.8-7.8v-7.7h12.3l2.8-2.8
				c0.8-0.8,1.6-2.2,2-3.2l9.4-28.2c1.5-4.7,7.2-19.8,25.8-19.8l21.6-0.2h8.4l-8.1-20.2c-2.4-6-9.5-10.8-15.9-10.8H51.7
				c-6.4,0-13.6,4.8-15.9,10.8l-11.2,28L20.7,139.2"/>
		</g>
	</g>
	<path d="M246.1,121.1l1-0.5l-51,0.3l-3.5-46.3c-4.8,8.5-9.6,17.1-14.4,25.6l-6.1,10.3l-10.3-6.1c-6.2-3.8-12.5-7.6-18.8-11.4
		l4.8,14l-11.2,3.8l-14.9-44.1l13.7,8.1c10.8,6.4,21.7,13,32.5,19.6h0.1c7-12.6,14.2-25.3,21.4-37.9l12-21.1L207,109v0.1l78.7-0.3
		l-50.4,34.6L274,181l-69.6,1l-0.1-11.7l41.2-0.6l-30.4-29.3L246.1,121.1z"/>
</g>
</svg>
