<?xml version="1.0" encoding="utf-8"?>
<!-- Generator: Adobe Illustrator 26.3.1, SVG Export Plug-In . SVG Version: 6.00 Build 0)  -->
<svg version="1.1" id="Layer_1" xmlns="http://www.w3.org/2000/svg" xmlns:xlink="http://www.w3.org/1999/xlink" x="0px" y="0px"
	 viewBox="0 0 302.4 302.4" style="enable-background:new 0 0 302.4 302.4;" xml:space="preserve">
<metadata><?xpacket begin="﻿" id="W5M0MpCehiHzreSzNTczkc9d"?>
<x:xmpmeta xmlns:x="adobe:ns:meta/" x:xmptk="Adobe XMP Core 8.0-c001 1.000000, 0000/00/00-00:00:00        ">
   <rdf:RDF xmlns:rdf="http://www.w3.org/1999/02/22-rdf-syntax-ns#">
      <rdf:Description rdf:about=""
            xmlns:dc="http://purl.org/dc/elements/1.1/"
            xmlns:prism="http://prismstandard.org/namespaces/basic/2.1/"
            xmlns:bsam="http://www.bsam.blog">
         <dc:format>image/svg+xml</dc:format>
         <dc:modified>2025-09-09T17:23:32.533Z</dc:modified>
         <prism:Date>2025-09-08T19:16:00.000+02:00</prism:Date>
         <bsam:rightsLimitedUnlimited>unlimited</bsam:rightsLimitedUnlimited>
         <bsam:assetOwner>
            <rdf:Bag>
               <rdf:li>enterprise:business-unit/webfleet</rdf:li>
            </rdf:Bag>
         </bsam:assetOwner>
         <bsam:usageCountry>
            <rdf:Bag>
               <rdf:li>enterprise:region-country/global</rdf:li>
            </rdf:Bag>
         </bsam:usageCountry>
         <bsam:industry>
            <rdf:Bag>
               <rdf:li>enterprise:industry/generic-all-industries</rdf:li>
            </rdf:Bag>
         </bsam:industry>
         <bsam:subDigitalAssetType>
            <rdf:Bag>
               <rdf:li>enterprise:digital-asset-type/image/icon</rdf:li>
            </rdf:Bag>
         </bsam:subDigitalAssetType>
      </rdf:Description>
   </rdf:RDF>
</x:xmpmeta>
                                                                                                    
                                                                                                    
                                                                                                    
                                                                                                    
                                                                                                    
                                                                                                    
                                                                                                    
                                                                                                    
                                                                                                    
                                                                                                    
                                                                                                    
                                                                                                    
                                                                                                    
                                                                                                    
                                                                                                    
                                                                                                    
                                                                                                    
                                                                                                    
                                                                                                    
                                                                                                    
                           
<?xpacket end="w"?></metadata>
<g>
	<g>
		<polygon points="154.9,88 154.6,113.1 174,113.4 174.4,88.2 194.5,95.3 165.3,46.6 134.7,94.4 		"/>
	</g>
	<path d="M55.1,242.6h29.4c-5.5-5.3-12.2-12.5-19-21.7c-3.2-4.4-6-9.4-8-14L35,184.1c0,0,14.3-5.3,33.7-30.4
		c20.4-26.5,41.1-35.6,41.1-35.6l23.5,23.7c5-0.9,9.8-1.8,13.7-2.4c13.6-2.3,19.9-5,34.7-10.6c14.8-5.6,33.4-18.1,38.9-17.8
		c5.6,0.2,16.6,8.3,14.4,13.2s-11.3,24.9-46.5,52.4c-31.1,24.3-57.5,34.1-57.5,34.1l7.5,8.7L109,242.6h116.4L213.5,202l-20.3,10.7
		c-1.4,0.7-2.8,1.1-4.2,1.1c-3.3,0-6.4-1.8-8-4.8c-2.3-4.4-0.6-9.9,3.8-12.3l59.1-31.2c4.4-2.3,9.9-0.6,12.3,3.8
		c2.3,4.4,0.6,9.9-3.8,12.3l-24.2,12.8l14.1,48.3h20.3c3.3,0,6,2.7,6,6.1s-2.7,6.1-6,6.1H55.1c-3.3,0-6-2.7-6-6.1
		S51.7,242.6,55.1,242.6z"/>
</g>
</svg>
