<?xml version="1.0" encoding="utf-8"?>
<!-- Generator: Adobe Illustrator 26.3.1, SVG Export Plug-In . SVG Version: 6.00 Build 0)  -->
<svg version="1.1" id="Layer_1" xmlns="http://www.w3.org/2000/svg" xmlns:xlink="http://www.w3.org/1999/xlink" x="0px" y="0px"
	 viewBox="0 0 302.4 302.4" style="enable-background:new 0 0 302.4 302.4;" xml:space="preserve">
<metadata><?xpacket begin="﻿" id="W5M0MpCehiHzreSzNTczkc9d"?>
<x:xmpmeta xmlns:x="adobe:ns:meta/" x:xmptk="Adobe XMP Core 8.0-c001 1.000000, 0000/00/00-00:00:00        ">
   <rdf:RDF xmlns:rdf="http://www.w3.org/1999/02/22-rdf-syntax-ns#">
      <rdf:Description rdf:about=""
            xmlns:bsam="http://www.bsam.blog"
            xmlns:tiff="http://ns.adobe.com/tiff/1.0/"
            xmlns:prism="http://prismstandard.org/namespaces/basic/2.1/"
            xmlns:dc="http://purl.org/dc/elements/1.1/">
         <bsam:rightsLimitedUnlimited>unlimited</bsam:rightsLimitedUnlimited>
         <bsam:assetOwner>
            <rdf:Bag>
               <rdf:li>enterprise:business-unit/webfleet</rdf:li>
            </rdf:Bag>
         </bsam:assetOwner>
         <bsam:industry>
            <rdf:Bag>
               <rdf:li>enterprise:industry/generic-all-industries</rdf:li>
            </rdf:Bag>
         </bsam:industry>
         <bsam:subDigitalAssetType>
            <rdf:Bag>
               <rdf:li>enterprise:digital-asset-type/image/icon</rdf:li>
            </rdf:Bag>
         </bsam:subDigitalAssetType>
         <bsam:usageCountry>
            <rdf:Bag>
               <rdf:li>enterprise:region-country/global</rdf:li>
            </rdf:Bag>
         </bsam:usageCountry>
         <tiff:ImageLength>302</tiff:ImageLength>
         <tiff:ImageWidth>302</tiff:ImageWidth>
         <prism:Date>2025-09-08T19:16:00.000+02:00</prism:Date>
         <dc:modified>2025-09-09T17:25:51.711Z</dc:modified>
         <dc:format>image/svg+xml</dc:format>
      </rdf:Description>
   </rdf:RDF>
</x:xmpmeta>
                                                                                                    
                                                                                                    
                                                                                                    
                                                                                                    
                                                                                                    
                                                                                                    
                                                                                                    
                                                                                                    
                                                                                                    
                                                                                                    
                                                                                                    
                                                                                                    
                                                                                                    
                                                                                                    
                                                                                                    
                                                                                                    
                                                                                                    
                                                                                                    
                                                                            
<?xpacket end="w"?></metadata>
<g>
	<path d="M231.6,215.3c0.1-0.6,0.2-1.2,0.2-1.8v-58.2c-1.7-3.9-5.4-6.6-9.8-6.6c-6,0-10.8,5-10.8,11.2c0,9.6-7.5,17.3-16.8,17.3
		s-16.8-7.7-16.8-17.3c0-6.3-4.9-11.3-10.8-11.3c-6,0-10.8,5-10.8,11.2c0,9.8-7.5,17.5-16.8,17.5s-16.8-7.7-16.8-17.3
		c0-6.3-4.9-11.3-10.8-11.3s-10.8,5-10.8,11.3c0,9.6-7.5,17.3-16.8,17.3c-3.7,0-7-1.2-9.8-3.3v39.4c0,0.6,0.1,1.2,0.2,1.8
		c-6.9,0.4-12.4,6-12.4,13c0,7.3,5.9,13.1,13.1,13.1h156c7.3,0,13.1-5.9,13.1-13.1C244,221.3,238.5,215.7,231.6,215.3z"/>
	<path d="M83.8,171.5c6,0,10.8-5,10.8-11.3c0-9.6,7.5-17.3,16.8-17.3s16.8,7.7,16.8,17.3c0,6.3,4.9,11.3,10.8,11.3s10.8-5,10.8-11.3
		c0-9.8,7.5-17.5,16.8-17.5s16.8,7.7,16.8,17.2c0,6.3,4.9,11.3,10.8,11.3c6,0,10.8-5,10.8-11.3c0-9.6,7.5-17.3,16.8-17.3
		c3.7,0,7,1.2,9.8,3.3v-16.1c0-8.2-6.6-14.8-14.8-14.8h-18.4V89.9c3.6-4.5,6.1-14.2,6.1-25.6c0-15.6-10.5-28.2-10.5-28.2
		s-10.5,12.6-10.5,28.2c0,11.4,2.5,21.1,6.1,25.6v25.2H157V89.9c3.6-4.5,6.1-14.2,6.1-25.6c0-15.6-10.5-28.2-10.5-28.2
		s-10.5,12.6-10.5,28.2c0,11.4,2.5,21.1,6.1,25.6v25.2H116V89.9c3.6-4.5,6.1-14.2,6.1-25.6c0-15.6-10.5-28.2-10.5-28.2
		s-10.5,12.6-10.5,28.2c0,11.4,2.5,21.1,6.1,25.6v25.2H88.8c-8.2,0-14.8,6.6-14.8,14.8v34.9C75.7,168.7,79.5,171.5,83.8,171.5z"/>
</g>
</svg>
