<?xml version="1.0" encoding="utf-8"?>
<!-- Generator: Adobe Illustrator 26.3.1, SVG Export Plug-In . SVG Version: 6.00 Build 0)  -->
<svg version="1.1" id="Layer_1" xmlns="http://www.w3.org/2000/svg" xmlns:xlink="http://www.w3.org/1999/xlink" x="0px" y="0px"
	 viewBox="0 0 302.4 302.4" style="enable-background:new 0 0 302.4 302.4;" xml:space="preserve">
<metadata><?xpacket begin="﻿" id="W5M0MpCehiHzreSzNTczkc9d"?>
<x:xmpmeta xmlns:x="adobe:ns:meta/" x:xmptk="Adobe XMP Core 8.0-c001 1.000000, 0000/00/00-00:00:00        ">
   <rdf:RDF xmlns:rdf="http://www.w3.org/1999/02/22-rdf-syntax-ns#">
      <rdf:Description rdf:about=""
            xmlns:bsam="http://www.bsam.blog"
            xmlns:tiff="http://ns.adobe.com/tiff/1.0/"
            xmlns:prism="http://prismstandard.org/namespaces/basic/2.1/"
            xmlns:dc="http://purl.org/dc/elements/1.1/">
         <bsam:rightsLimitedUnlimited>unlimited</bsam:rightsLimitedUnlimited>
         <bsam:assetOwner>
            <rdf:Bag>
               <rdf:li>enterprise:business-unit/webfleet</rdf:li>
            </rdf:Bag>
         </bsam:assetOwner>
         <bsam:industry>
            <rdf:Bag>
               <rdf:li>enterprise:industry/generic-all-industries</rdf:li>
            </rdf:Bag>
         </bsam:industry>
         <bsam:subDigitalAssetType>
            <rdf:Bag>
               <rdf:li>enterprise:digital-asset-type/image/icon</rdf:li>
            </rdf:Bag>
         </bsam:subDigitalAssetType>
         <bsam:usageCountry>
            <rdf:Bag>
               <rdf:li>enterprise:region-country/global</rdf:li>
            </rdf:Bag>
         </bsam:usageCountry>
         <tiff:ImageLength>302</tiff:ImageLength>
         <tiff:ImageWidth>302</tiff:ImageWidth>
         <prism:Date>2025-09-08T19:16:00.000+02:00</prism:Date>
         <dc:modified>2025-09-09T17:24:36.408Z</dc:modified>
         <dc:format>image/svg+xml</dc:format>
      </rdf:Description>
   </rdf:RDF>
</x:xmpmeta>
                                                                                                    
                                                                                                    
                                                                                                    
                                                                                                    
                                                                                                    
                                                                                                    
                                                                                                    
                                                                                                    
                                                                                                    
                                                                                                    
                                                                                                    
                                                                                                    
                                                                                                    
                                                                                                    
                                                                                                    
                                                                                                    
                                                                                                    
                                                                                                    
                                                                            
<?xpacket end="w"?></metadata>
<g>
	<g>
		<path d="M110.2,174.1c31.1,53.9,49,43.5,67,33.2c-5.2-9-10.5-18.2-15.5-26.9c-13.6,7.8-17.9,10.5-33.5-16.6
			c-15.2-26.3-10.9-29.6,2.4-37.3c-5-8.7-10.4-18-15.5-27C97.1,109.8,79.2,120.2,110.2,174.1z"/>
		<g>
			<path d="M205.7,170.4c-0.8,0-1.6-0.1-2.4-0.5c-3.3-1.3-4.9-5.1-3.6-8.4c1.6-3.8,2.6-7.9,3-11.9c1.1-9.6-0.9-19.2-5.8-27.6
				c-6.1-10.6-16.1-18.1-27.9-21.2c-3.4-0.9-5.5-4.4-4.6-7.8s4.4-5.6,7.9-4.7c15.3,3.9,28,13.6,35.9,27.2
				c6.2,10.8,8.8,23.1,7.4,35.5c-0.6,5.2-1.9,10.4-3.9,15.3C210.6,168.9,208.2,170.4,205.7,170.4z"/>
		</g>
		<g>
			<path d="M180.4,163.5c-1.1,0-2.1-0.2-3.1-0.8c-3.1-1.7-4.3-5.6-2.6-8.8c0.9-1.7,1.6-3.6,2-5.5c0.9-4.6,0.2-9.4-2.2-13.5
				c-2.6-4.6-6.9-7.8-12-9.1c-3.4-0.9-5.5-4.4-4.7-7.8c0.9-3.4,4.4-5.6,7.8-4.7c8.5,2.2,15.6,7.5,19.9,15.1
				c3.9,6.8,5.2,14.9,3.7,22.6c-0.6,3.2-1.8,6.2-3.3,9.1C184.9,162.3,182.7,163.5,180.4,163.5z"/>
		</g>
	</g>
	<g>
		<path d="M151.2,256.7c-58.2,0-105.5-47.3-105.5-105.5C45.7,93,93,45.7,151.2,45.7S256.7,93,256.7,151.2S209.4,256.7,151.2,256.7z
			 M151.2,58.7c-51,0-92.4,41.5-92.4,92.4s41.5,92.4,92.4,92.4s92.4-41.5,92.4-92.4C243.6,100.2,202.2,58.7,151.2,58.7z"/>
	</g>
</g>
</svg>
