<?xml version="1.0" encoding="utf-8"?>
<!-- Generator: Adobe Illustrator 26.3.1, SVG Export Plug-In . SVG Version: 6.00 Build 0)  -->
<svg version="1.1" id="Layer_1" xmlns="http://www.w3.org/2000/svg" xmlns:xlink="http://www.w3.org/1999/xlink" x="0px" y="0px"
	 viewBox="0 0 302.4 302.4" style="enable-background:new 0 0 302.4 302.4;" xml:space="preserve">
<metadata><?xpacket begin="﻿" id="W5M0MpCehiHzreSzNTczkc9d"?>
<x:xmpmeta xmlns:x="adobe:ns:meta/" x:xmptk="Adobe XMP Core 8.0-c001 1.000000, 0000/00/00-00:00:00        ">
   <rdf:RDF xmlns:rdf="http://www.w3.org/1999/02/22-rdf-syntax-ns#">
      <rdf:Description rdf:about=""
            xmlns:dc="http://purl.org/dc/elements/1.1/"
            xmlns:prism="http://prismstandard.org/namespaces/basic/2.1/"
            xmlns:tiff="http://ns.adobe.com/tiff/1.0/"
            xmlns:bsam="http://www.bsam.blog">
         <dc:modified>2025-09-09T17:08:50.031Z</dc:modified>
         <dc:format>image/svg+xml</dc:format>
         <prism:Date>2025-09-08T19:16:00.000+02:00</prism:Date>
         <tiff:ImageWidth>302</tiff:ImageWidth>
         <tiff:ImageLength>302</tiff:ImageLength>
         <bsam:rightsLimitedUnlimited>unlimited</bsam:rightsLimitedUnlimited>
         <bsam:subDigitalAssetType>
            <rdf:Bag>
               <rdf:li>enterprise:digital-asset-type/image/icon</rdf:li>
            </rdf:Bag>
         </bsam:subDigitalAssetType>
         <bsam:industry>
            <rdf:Bag>
               <rdf:li>enterprise:industry/generic-all-industries</rdf:li>
            </rdf:Bag>
         </bsam:industry>
         <bsam:assetOwner>
            <rdf:Bag>
               <rdf:li>enterprise:business-unit/webfleet</rdf:li>
            </rdf:Bag>
         </bsam:assetOwner>
         <bsam:usageCountry>
            <rdf:Bag>
               <rdf:li>enterprise:region-country/global</rdf:li>
            </rdf:Bag>
         </bsam:usageCountry>
      </rdf:Description>
   </rdf:RDF>
</x:xmpmeta>
                                                                                                    
                                                                                                    
                                                                                                    
                                                                                                    
                                                                                                    
                                                                                                    
                                                                                                    
                                                                                                    
                                                                                                    
                           
<?xpacket end="w"?></metadata>
<path d="M150.6,46.1c-58.3,0-105.5,47.2-105.5,105.5s47.2,105.5,105.5,105.5s105.5-47.2,105.5-105.5
	C256.1,93.3,208.9,46.1,150.6,46.1 M150.6,65.3c47.6,0,86.3,38.7,86.3,86.3c0,0.4,0,0.9,0,1.3c-12.3-5.3-33.1-14-53.5-21.1
	c-6.7-11.1-18.9-18.5-32.8-18.5c-6.7,0-13.1,1.7-18.5,4.8c-21.2-4-43.5-6.9-56.8-8.4C90,83.2,118.2,65.3,150.6,65.3 M235.1,169.3
	c-0.6,3.1-1.5,6.2-2.5,9.3l-46.5-12.5c1.2-2.9,2-6,2.4-9.3L235.1,169.3z M132.9,236.1c-3.2-0.7-6.2-1.5-9.3-2.5l12.5-46.5
	c2.9,1.2,6,2,9.3,2.4L132.9,236.1z M126.6,151.6c0-13.2,10.7-24,24-24c13.2,0,24,10.7,24,24c0,13.2-10.7,24-24,24
	C137.4,175.6,126.6,164.9,126.6,151.6 M68.6,124.7l46.5,12.5c-1.2,2.9-2,6-2.4,9.3l-46.5-12.5C66.7,130.8,67.6,127.7,68.6,124.7
	 M64.3,151.6c0-0.4,0-0.9,0-1.3c12.2,5.2,32.4,13.7,52.5,20.8c-3.9,21-6.7,42.7-8.3,55.9C82.2,212.2,64.3,184,64.3,151.6
	 M150.6,237.9c-0.4,0-0.9,0-1.3,0c5.2-12.1,13.7-32.4,20.8-52.5c20.9,3.9,42.7,6.7,55.9,8.3C211.2,220,182.9,237.9,150.6,237.9"/>
</svg>
