<?xml version="1.0" encoding="utf-8"?>
<!-- Generator: Adobe Illustrator 26.3.1, SVG Export Plug-In . SVG Version: 6.00 Build 0)  -->
<svg version="1.1" id="Layer_1" xmlns="http://www.w3.org/2000/svg" xmlns:xlink="http://www.w3.org/1999/xlink" x="0px" y="0px"
	 viewBox="0 0 302.4 302.4" style="enable-background:new 0 0 302.4 302.4;" xml:space="preserve">
<metadata><?xpacket begin="﻿" id="W5M0MpCehiHzreSzNTczkc9d"?>
<x:xmpmeta xmlns:x="adobe:ns:meta/" x:xmptk="Adobe XMP Core 8.0-c001 1.000000, 0000/00/00-00:00:00        ">
   <rdf:RDF xmlns:rdf="http://www.w3.org/1999/02/22-rdf-syntax-ns#">
      <rdf:Description rdf:about=""
            xmlns:dc="http://purl.org/dc/elements/1.1/"
            xmlns:prism="http://prismstandard.org/namespaces/basic/2.1/"
            xmlns:tiff="http://ns.adobe.com/tiff/1.0/"
            xmlns:bsam="http://www.bsam.blog">
         <dc:modified>2025-09-09T17:10:50.673Z</dc:modified>
         <dc:format>image/svg+xml</dc:format>
         <prism:Date>2025-09-08T19:16:00.000+02:00</prism:Date>
         <tiff:ImageWidth>302</tiff:ImageWidth>
         <tiff:ImageLength>302</tiff:ImageLength>
         <bsam:rightsLimitedUnlimited>unlimited</bsam:rightsLimitedUnlimited>
         <bsam:subDigitalAssetType>
            <rdf:Bag>
               <rdf:li>enterprise:digital-asset-type/image/icon</rdf:li>
            </rdf:Bag>
         </bsam:subDigitalAssetType>
         <bsam:industry>
            <rdf:Bag>
               <rdf:li>enterprise:industry/generic-all-industries</rdf:li>
            </rdf:Bag>
         </bsam:industry>
         <bsam:assetOwner>
            <rdf:Bag>
               <rdf:li>enterprise:business-unit/webfleet</rdf:li>
            </rdf:Bag>
         </bsam:assetOwner>
         <bsam:usageCountry>
            <rdf:Bag>
               <rdf:li>enterprise:region-country/global</rdf:li>
            </rdf:Bag>
         </bsam:usageCountry>
      </rdf:Description>
   </rdf:RDF>
</x:xmpmeta>
                                                                                                    
                                                                                                    
                                                                                                    
                                                                                                    
                                                                                                    
                                                                                                    
                                                                                                    
                                                                                                    
                                                                                                    
                           
<?xpacket end="w"?></metadata>
<g>
	<path d="M154.6,166.7c-3.7,0-6.7,2.8-6.7,6.2s3,6.2,6.7,6.2c3.7,0,6.6-2.8,6.6-6.2C161.3,169.5,158.3,166.7,154.6,166.7z"/>
	<path d="M158.6,106.7c0-3.4-3-6.2-6.7-6.2c-3.7,0-6.7,2.8-6.7,6.2s3,6.2,6.7,6.2C155.7,112.9,158.6,110.2,158.6,106.7z"/>
	<ellipse cx="134.4" cy="134.1" rx="6.7" ry="6.2"/>
	<path d="M135.5,189.6c-3.7,0-6.7,2.8-6.7,6.2s3,6.2,6.7,6.2s6.6-2.8,6.6-6.2C142.1,192.4,139.1,189.6,135.5,189.6z"/>
	<path d="M94.6,193.2c-3.7,0-6.7,2.8-6.7,6.2c0,3.4,3,6.2,6.7,6.2c3.7,0,6.7-2.8,6.7-6.2C101.3,195.9,98.3,193.2,94.6,193.2z"/>
	<path d="M107.9,147.8c-3.7,0-6.7,2.8-6.7,6.2s3,6.2,6.7,6.2c3.7,0,6.7-2.8,6.7-6.2S111.6,147.8,107.9,147.8z"/>
	<path d="M74,166.4c-3.7,0-6.7,2.8-6.7,6.2s3,6.2,6.7,6.2c3.7,0,6.7-2.8,6.7-6.2C80.7,169.2,77.7,166.4,74,166.4z"/>
	<path d="M232.1,185.1c-3.7,0-6.7,2.8-6.7,6.2s3,6.2,6.7,6.2c3.7,0,6.6-2.8,6.6-6.2C238.8,187.9,235.8,185.1,232.1,185.1z"/>
	<path d="M164.3,140.5c-3.7,0-6.6,2.8-6.6,6.2s3,6.2,6.6,6.2s6.7-2.8,6.7-6.2S167.9,140.5,164.3,140.5z"/>
	<path d="M204.1,169.8c-3.7,0-6.6,2.8-6.6,6.2s3,6.2,6.6,6.2s6.7-2.8,6.7-6.2C210.7,172.6,207.8,169.8,204.1,169.8z"/>
	<path d="M185.4,192.9c-3.7,0-6.6,2.8-6.6,6.2s3,6.2,6.6,6.2c3.7,0,6.7-2.8,6.7-6.2S189.1,192.9,185.4,192.9z"/>
	<path d="M206.2,135.6c0-3.4-3-6.2-6.7-6.2s-6.6,2.8-6.6,6.2s3,6.2,6.6,6.2S206.2,139,206.2,135.6z"/>
	<path d="M237.8,140.3c-3-18.3-17.1-33.2-35.3-37.3c-5.3-19.1-22.8-32-44.1-32c-21.3,0-38.7,13.8-44.1,34.1
		c-19.8,2.5-34.9,16.6-38.7,36.1c-24,1.7-42.3,20.8-42.3,44.9c0,25.3,20.1,45.1,45.8,45.1h144.2c24.8,0,45.8-21.4,45.8-46.7
		C269.1,164.8,256,146.7,237.8,140.3z M223.3,217H79.1c-17.6,0-31.4-13.5-31.4-30.7c0-17.2,13.8-30.7,31.4-30.7h9.7l0.4-6.8
		c1-17.3,13.7-29.5,31.1-29.6l6.2,0l0.9-6.1c2.3-16.2,15.1-27.6,31-27.6c16,0,28.7,10.3,31,25.1l0.9,5.5l5.5,0.6
		c15.4,1.5,27.5,14.3,28.2,29.7l0.2,5.5l5.4,1.2c14.2,3.1,25,16.7,25,31.7C254.7,202.1,240.3,217,223.3,217z"/>
</g>
</svg>
