<?xml version="1.0" encoding="UTF-8"?>
<svg id="Layer_1" xmlns="http://www.w3.org/2000/svg" version="1.1" viewBox="0 0 302.4 302.4">
  <!-- Generator: Adobe Illustrator 29.6.0, SVG Export Plug-In . SVG Version: 2.1.1 Build 207)  -->
  <metadata><?xpacket begin="﻿" id="W5M0MpCehiHzreSzNTczkc9d"?>
<x:xmpmeta xmlns:x="adobe:ns:meta/" x:xmptk="Adobe XMP Core 8.0-c001 1.000000, 0000/00/00-00:00:00        ">
   <rdf:RDF xmlns:rdf="http://www.w3.org/1999/02/22-rdf-syntax-ns#">
      <rdf:Description rdf:about=""
            xmlns:bsam="http://www.bsam.blog"
            xmlns:tiff="http://ns.adobe.com/tiff/1.0/"
            xmlns:prism="http://prismstandard.org/namespaces/basic/2.1/"
            xmlns:dc="http://purl.org/dc/elements/1.1/">
         <bsam:rightsLimitedUnlimited>unlimited</bsam:rightsLimitedUnlimited>
         <bsam:assetOwner>
            <rdf:Bag>
               <rdf:li>enterprise:business-unit/webfleet</rdf:li>
            </rdf:Bag>
         </bsam:assetOwner>
         <bsam:industry>
            <rdf:Bag>
               <rdf:li>enterprise:industry/generic-all-industries</rdf:li>
            </rdf:Bag>
         </bsam:industry>
         <bsam:subDigitalAssetType>
            <rdf:Bag>
               <rdf:li>enterprise:digital-asset-type/image/icon</rdf:li>
            </rdf:Bag>
         </bsam:subDigitalAssetType>
         <bsam:usageCountry>
            <rdf:Bag>
               <rdf:li>enterprise:region-country/global</rdf:li>
            </rdf:Bag>
         </bsam:usageCountry>
         <tiff:ImageLength>302</tiff:ImageLength>
         <tiff:ImageWidth>302</tiff:ImageWidth>
         <prism:Date>2025-09-08T19:16:00.000+02:00</prism:Date>
         <dc:modified>2025-09-09T17:20:27.676Z</dc:modified>
         <dc:format>image/svg+xml</dc:format>
      </rdf:Description>
   </rdf:RDF>
</x:xmpmeta>
                                                                                                    
                                                                                                    
                                                                                                    
                                                                                                    
                                                                                                    
                                                                                                    
                                                                                                    
                                                                                                    
                                                                                                    
                                                                                                    
                                                                                                    
                                                                                                    
                                                                                                    
                                                                                                    
                                                                                                    
                                                                                                    
                                                                                                    
                                                                                                    
                                                                            
<?xpacket end="w"?></metadata>
<g>
    <polygon points="234.5 101.9 234.5 101.8 234.4 101.9 234.5 101.9"/>
    <path d="M234.4,102h0c0-.1,0,0,0,0,0,0,0,0,0,0Z"/>
    <path d="M246.3,80.3l-16.9-17.5c-2.8-2.9-7.5-3-10.4-.2l-11.6,11.2,27.1,28,11.6-11.2c2.9-2.8,3-7.5.2-10.4Z"/>
    <polygon points="199.8 81.2 164 116.2 191.6 143.8 226.9 109.2 199.8 81.2"/>
    <polygon points="70 208.5 97.1 236.6 142.9 191.7 115.3 164.1 70 208.5"/>
    <path d="M54.3,248.2c-.8,2.3.7,3.4,2.6,2.7l31.7-8.9-24.5-25.4-9.8,31.6Z"/>
  </g>
  <path d="M85.6,51.4l-33.9,33.9,165.7,165.7,33.9-33.9L85.6,51.4ZM206.6,231.5l9.3-9.3c1.2-1.2,1.2-3.2,0-4.4-1.2-1.2-3.2-1.2-4.4,0l-9.3,9.3-10.6-10.6,18.9-18.9c1.2-1.2,1.2-3.2,0-4.4-1.2-1.2-3.2-1.2-4.4,0l-18.9,18.9-12.5-12.5,9.3-9.3c1.2-1.2,1.2-3.2,0-4.4s-3.2-1.2-4.4,0l-9.3,9.3-12.5-12.5,9.3-9.3c1.2-1.2,1.2-3.2,0-4.4-1.2-1.2-3.2-1.2-4.4,0l-9.3,9.3-10.6-10.6,18.9-18.9c1.2-1.2,1.2-3.2,0-4.4-1.2-1.2-3.2-1.2-4.4,0l-18.9,18.9-12.5-12.5,9.3-9.3c1.2-1.2,1.2-3.2,0-4.4-1.2-1.2-3.2-1.2-4.4,0l-9.3,9.3-12.5-12.5,9.3-9.3c1.2-1.2,1.2-3.2,0-4.4-1.2-1.2-3.2-1.2-4.4,0l-9.3,9.3-10.6-10.6,18.9-18.9c1.2-1.2,1.2-3.2,0-4.4-1.2-1.2-3.2-1.2-4.4,0l-18.9,18.9-12.5-12.5,9.3-9.3c1.2-1.2,1.2-3.2,0-4.4-1.2-1.2-3.2-1.2-4.4,0l-9.3,9.3-12-12,25.1-25.1,156.9,156.9-25.1,25.1-10.8-10.8Z"/>
</svg>