<?xml version="1.0" encoding="UTF-8"?>
<svg id="Layer_1" xmlns="http://www.w3.org/2000/svg" width="106.7mm" height="106.7mm" version="1.1" viewBox="0 0 302.4 302.4">
  <!-- Generator: Adobe Illustrator 29.5.0, SVG Export Plug-In . SVG Version: 2.1.0 Build 137)  -->
  <metadata><?xpacket begin="﻿" id="W5M0MpCehiHzreSzNTczkc9d"?>
<x:xmpmeta xmlns:x="adobe:ns:meta/" x:xmptk="Adobe XMP Core 8.0-c001 1.000000, 0000/00/00-00:00:00        ">
   <rdf:RDF xmlns:rdf="http://www.w3.org/1999/02/22-rdf-syntax-ns#">
      <rdf:Description rdf:about=""
            xmlns:dc="http://purl.org/dc/elements/1.1/"
            xmlns:prism="http://prismstandard.org/namespaces/basic/2.1/"
            xmlns:tiff="http://ns.adobe.com/tiff/1.0/"
            xmlns:bsam="http://www.bsam.blog">
         <dc:modified>2025-09-09T17:09:21.254Z</dc:modified>
         <dc:format>image/svg+xml</dc:format>
         <prism:Date>2025-09-08T19:16:00.000+02:00</prism:Date>
         <tiff:ImageWidth>403</tiff:ImageWidth>
         <tiff:ImageLength>403</tiff:ImageLength>
         <bsam:rightsLimitedUnlimited>unlimited</bsam:rightsLimitedUnlimited>
         <bsam:subDigitalAssetType>
            <rdf:Bag>
               <rdf:li>enterprise:digital-asset-type/image/icon</rdf:li>
            </rdf:Bag>
         </bsam:subDigitalAssetType>
         <bsam:industry>
            <rdf:Bag>
               <rdf:li>enterprise:industry/generic-all-industries</rdf:li>
            </rdf:Bag>
         </bsam:industry>
         <bsam:assetOwner>
            <rdf:Bag>
               <rdf:li>enterprise:business-unit/webfleet</rdf:li>
            </rdf:Bag>
         </bsam:assetOwner>
         <bsam:usageCountry>
            <rdf:Bag>
               <rdf:li>enterprise:region-country/global</rdf:li>
            </rdf:Bag>
         </bsam:usageCountry>
      </rdf:Description>
   </rdf:RDF>
</x:xmpmeta>
                                                                                                    
                                                                                                    
                                                                                                    
                                                                                                    
                                                                                                    
                                                                                                    
                                                                                                    
                                                                                                    
                                                                                                    
                           
<?xpacket end="w"?></metadata>
<path d="M97.6,130.6h105.2c4.5,0,8.1-3.7,8.1-8.1h0c0-4.5-3.7-8.1-8.1-8.1h-105.2c-4.5,0-8.1,3.7-8.1,8.1h0c0,4.4,3.7,8.1,8.1,8.1Z"/>
  <path d="M249.8,126.9h-29.1c0,7-5.7,12.7-12.7,12.7h-115.5c-7,0-12.7-5.7-12.7-12.7h0s-26.6,0-26.6,0c-8.5,0-15.5,7-15.5,15.5v87.8c0,8.5,7,15.5,15.5,15.5h196.5c8.5,0,15.5-7,15.5-15.5v-87.8c.1-8.6-6.9-15.5-15.4-15.5ZM209.4,227.9c-20.4,0-36.8-16.5-36.8-36.9s16.5-36.9,36.8-36.9,36.9,16.5,36.9,36.9-16.6,36.9-36.9,36.9Z"/>
  <path d="M209.4,164.2c-14.9,0-26.9,12.1-26.9,26.9s12,26.9,26.9,26.9,26.9-12.1,26.9-26.9-12.1-26.9-26.9-26.9Z"/>
  <path d="M229.8,56.8H73.2c-4.5,0-8.1,3.7-8.1,8.1v46.1c0,4.5,3.7,8.2,8.1,8.2h6.3c0-7.2,5.8-13,13-13h115.1c7.2,0,13,5.8,13,13h9c4.5,0,8.1-3.7,8.1-8.1v-46.2c0-4.5-3.7-8.1-8.1-8.1Z"/>
</svg>