<?xml version="1.0" encoding="utf-8"?>
<!-- Generator: Adobe Illustrator 26.3.1, SVG Export Plug-In . SVG Version: 6.00 Build 0)  -->
<svg version="1.1" id="Layer_1" xmlns="http://www.w3.org/2000/svg" xmlns:xlink="http://www.w3.org/1999/xlink" x="0px" y="0px"
	 viewBox="0 0 302.4 302.4" style="enable-background:new 0 0 302.4 302.4;" xml:space="preserve">
<metadata><?xpacket begin="﻿" id="W5M0MpCehiHzreSzNTczkc9d"?>
<x:xmpmeta xmlns:x="adobe:ns:meta/" x:xmptk="Adobe XMP Core 8.0-c001 1.000000, 0000/00/00-00:00:00        ">
   <rdf:RDF xmlns:rdf="http://www.w3.org/1999/02/22-rdf-syntax-ns#">
      <rdf:Description rdf:about=""
            xmlns:dc="http://purl.org/dc/elements/1.1/"
            xmlns:prism="http://prismstandard.org/namespaces/basic/2.1/"
            xmlns:tiff="http://ns.adobe.com/tiff/1.0/"
            xmlns:bsam="http://www.bsam.blog">
         <dc:modified>2025-09-09T17:08:31.396Z</dc:modified>
         <dc:format>image/svg+xml</dc:format>
         <prism:Date>2025-09-08T19:16:00.000+02:00</prism:Date>
         <tiff:ImageWidth>302</tiff:ImageWidth>
         <tiff:ImageLength>302</tiff:ImageLength>
         <bsam:rightsLimitedUnlimited>unlimited</bsam:rightsLimitedUnlimited>
         <bsam:subDigitalAssetType>
            <rdf:Bag>
               <rdf:li>enterprise:digital-asset-type/image/icon</rdf:li>
            </rdf:Bag>
         </bsam:subDigitalAssetType>
         <bsam:industry>
            <rdf:Bag>
               <rdf:li>enterprise:industry/generic-all-industries</rdf:li>
            </rdf:Bag>
         </bsam:industry>
         <bsam:assetOwner>
            <rdf:Bag>
               <rdf:li>enterprise:business-unit/webfleet</rdf:li>
            </rdf:Bag>
         </bsam:assetOwner>
         <bsam:usageCountry>
            <rdf:Bag>
               <rdf:li>enterprise:region-country/global</rdf:li>
            </rdf:Bag>
         </bsam:usageCountry>
      </rdf:Description>
   </rdf:RDF>
</x:xmpmeta>
                                                                                                    
                                                                                                    
                                                                                                    
                                                                                                    
                                                                                                    
                                                                                                    
                                                                                                    
                                                                                                    
                                                                                                    
                           
<?xpacket end="w"?></metadata>
<g>
	<g>
		<path d="M149.6,137.7c-2.6,0-5,0.4-7.4,1.1L107,113.3c-0.2-0.2-0.5-0.3-0.7-0.4c-1.6-0.8-3.7-0.8-5.3,0.4
			c-2.3,1.6-2.9,4.8-1.2,7.1l25.2,35.8c-0.7,2.3-1,4.7-1,7.2c0,14.2,11.5,25.6,25.6,25.6c14.1,0,25.6-11.5,25.6-25.6
			C175.2,149.2,163.7,137.7,149.6,137.7z"/>
	</g>
	<g>
		<path d="M149.6,58.8c-27.9,0-54.1,10.8-73.8,30.4l0,0l-0.1,0.1c0,0-0.1,0.1-0.1,0.1c-40.6,40.7-40.6,106.9,0,147.7
			c0,0,0.1,0.1,0.1,0.1c1.4,1.4,3.2,2.1,5.1,2.1s3.7-0.8,5.1-2.1l8.9-8.9h0.4l0.4-0.9l4.8-4.8c2.8-2.8,2.8-7.4,0-10.2
			c-1.4-1.4-3.2-2.1-5.1-2.1s-3.7,0.8-5.1,2.1l-7.3,7.3l-0.2,0.2v0l-1.7,1.7c-12.2-14.3-19.7-32.4-21.2-51.2h2.7h3.9h6.4
			c4,0,7.2-3.2,7.2-7.2s-3.2-7.2-7.2-7.2h-6.4h-3.9h-2.7c1.5-18.9,9-36.9,21.2-51.2l1.9,1.9c1.4,1.4,3.2,2.1,5.1,2.1
			c1.9,0,3.7-0.8,5.1-2.1c2.8-2.8,2.8-7.4,0-10.2l-1.9-1.9c14.3-12.2,32.4-19.7,51.2-21.2v2.7v3.7v6.6c0,4,3.2,7.2,7.2,7.2
			s7.2-3.2,7.2-7.2v-6.6v-3.7v-2.7c18.9,1.5,36.9,9,51.2,21.2l-1.3,1.3l0,0l-0.6,0.6l-7.3,7.3c-1.4,1.4-2.1,3.2-2.1,5.1
			c0,1.9,0.8,3.7,2.1,5.1c1.4,1.4,3.2,2.1,5.1,2.1c1.9,0,3.7-0.8,5.1-2.1l3.5-3.5l5.7-5.7c12.2,14.3,19.6,32.4,21.2,51.2h-2.7h-2.4
			h-7.9c-4,0-7.2,3.2-7.2,7.2s3.2,7.2,7.2,7.2h7.9h2.4h2.7c-1.5,18.9-9,36.9-21.2,51.2l-5.7-5.7l-0.6-0.6l0,0l-2.9-2.9
			c-1.4-1.4-3.2-2.1-5.1-2.1c-1.9,0-3.7,0.8-5.1,2.1c-1.4,1.4-2.1,3.2-2.1,5.1c0,1.9,0.8,3.7,2.1,5.1l3.5,3.5l3.8,3.7l7.2,7.2
			l0.1,0.1c1.4,1.4,3.2,2.1,5.1,2.1c1.9,0,3.7-0.8,5.1-2.1c0.2-0.2,0.4-0.5,0.6-0.7c19.4-19.7,30-45.9,29.9-73.6
			c-0.1-27.8-10.9-53.9-30.6-73.6C203.8,69.6,177.6,58.8,149.6,58.8L149.6,58.8z"/>
	</g>
</g>
</svg>
