<?xml version="1.0" encoding="utf-8"?>
<!-- Generator: Adobe Illustrator 26.3.1, SVG Export Plug-In . SVG Version: 6.00 Build 0)  -->
<svg version="1.1" id="Layer_1" xmlns="http://www.w3.org/2000/svg" xmlns:xlink="http://www.w3.org/1999/xlink" x="0px" y="0px"
	 viewBox="0 0 302.4 302.4" style="enable-background:new 0 0 302.4 302.4;" xml:space="preserve">
<metadata><?xpacket begin="﻿" id="W5M0MpCehiHzreSzNTczkc9d"?>
<x:xmpmeta xmlns:x="adobe:ns:meta/" x:xmptk="Adobe XMP Core 8.0-c001 1.000000, 0000/00/00-00:00:00        ">
   <rdf:RDF xmlns:rdf="http://www.w3.org/1999/02/22-rdf-syntax-ns#">
      <rdf:Description rdf:about=""
            xmlns:dc="http://purl.org/dc/elements/1.1/"
            xmlns:prism="http://prismstandard.org/namespaces/basic/2.1/"
            xmlns:tiff="http://ns.adobe.com/tiff/1.0/"
            xmlns:bsam="http://www.bsam.blog">
         <dc:modified>2025-09-09T17:16:16.554Z</dc:modified>
         <dc:format>image/svg+xml</dc:format>
         <prism:Date>2025-09-08T19:16:00.000+02:00</prism:Date>
         <tiff:ImageWidth>302</tiff:ImageWidth>
         <tiff:ImageLength>302</tiff:ImageLength>
         <bsam:rightsLimitedUnlimited>unlimited</bsam:rightsLimitedUnlimited>
         <bsam:subDigitalAssetType>
            <rdf:Bag>
               <rdf:li>enterprise:digital-asset-type/image/icon</rdf:li>
            </rdf:Bag>
         </bsam:subDigitalAssetType>
         <bsam:industry>
            <rdf:Bag>
               <rdf:li>enterprise:industry/generic-all-industries</rdf:li>
            </rdf:Bag>
         </bsam:industry>
         <bsam:assetOwner>
            <rdf:Bag>
               <rdf:li>enterprise:business-unit/webfleet</rdf:li>
            </rdf:Bag>
         </bsam:assetOwner>
         <bsam:usageCountry>
            <rdf:Bag>
               <rdf:li>enterprise:region-country/global</rdf:li>
            </rdf:Bag>
         </bsam:usageCountry>
      </rdf:Description>
   </rdf:RDF>
</x:xmpmeta>
                                                                                                    
                                                                                                    
                                                                                                    
                                                                                                    
                                                                                                    
                                                                                                    
                                                                                                    
                                                                                                    
                                                                                                    
                           
<?xpacket end="w"?></metadata>
<path d="M248.6,114.1C248.6,114.1,248.6,114.1,248.6,114.1l0-58.1c0-8.9-7.2-16.1-16.1-16.1H69.9c-8.9,0-16.1,7.2-16.1,16.1l0,58.1
	c0,0,0,0,0,0c-5.1,0-9.3,4.2-9.3,9.3v27.8c0,5.1,4.2,9.3,9.3,9.3c0,0,0,0,0,0l0,59.7c0,6.4,3.8,11.9,9.2,14.5v18
	c0,5.4,4.4,9.9,9.9,9.9h26.7c5.4,0,9.9-4.4,9.9-9.9v-18h83.5v18c0,5.4,4.4,9.9,9.9,9.9h26.7c5.4,0,9.9-4.4,9.9-9.9v-18
	c5.5-2.6,9.3-8.1,9.3-14.6v-59.7c0,0,0,0,0,0c5.1,0,9.3-4.1,9.3-9.3v-27.8C257.9,118.2,253.7,114.1,248.6,114.1z M86.2,216.1
	c-7.7,0-13.9-6.2-13.9-13.9c0-7.7,6.2-13.9,13.9-13.9s13.9,6.2,13.9,13.9C100.1,209.9,93.9,216.1,86.2,216.1z M151.2,202.5v-44.6
	l-32.4-0.2L152.1,92v43.8h31.4L151.2,202.5z M193,67.7h-83.5c-5.1,0-9.3-4.2-9.3-9.3s4.2-9.3,9.3-9.3H193c5.1,0,9.3,4.2,9.3,9.3
	S198.1,67.7,193,67.7z M216.1,216.1c-7.7,0-13.9-6.2-13.9-13.9c0-7.7,6.2-13.9,13.9-13.9c7.7,0,13.9,6.2,13.9,13.9
	C230.1,209.9,223.8,216.1,216.1,216.1z"/>
</svg>
