<?xml version="1.0" encoding="utf-8"?>
<!-- Generator: Adobe Illustrator 26.3.1, SVG Export Plug-In . SVG Version: 6.00 Build 0)  -->
<svg version="1.1" id="Layer_1" xmlns="http://www.w3.org/2000/svg" xmlns:xlink="http://www.w3.org/1999/xlink" x="0px" y="0px"
	 viewBox="0 0 302.4 302.4" style="enable-background:new 0 0 302.4 302.4;" xml:space="preserve">
<metadata><?xpacket begin="﻿" id="W5M0MpCehiHzreSzNTczkc9d"?>
<x:xmpmeta xmlns:x="adobe:ns:meta/" x:xmptk="Adobe XMP Core 8.0-c001 1.000000, 0000/00/00-00:00:00        ">
   <rdf:RDF xmlns:rdf="http://www.w3.org/1999/02/22-rdf-syntax-ns#">
      <rdf:Description rdf:about=""
            xmlns:prism="http://prismstandard.org/namespaces/basic/2.1/"
            xmlns:dc="http://purl.org/dc/elements/1.1/"
            xmlns:bsam="http://www.bsam.blog">
         <prism:Date>2025-09-08T19:16:00.000+02:00</prism:Date>
         <dc:format>image/svg+xml</dc:format>
         <dc:modified>2025-09-09T17:19:11.223Z</dc:modified>
         <bsam:rightsLimitedUnlimited>unlimited</bsam:rightsLimitedUnlimited>
         <bsam:industry>
            <rdf:Bag>
               <rdf:li>enterprise:industry/generic-all-industries</rdf:li>
            </rdf:Bag>
         </bsam:industry>
         <bsam:usageCountry>
            <rdf:Bag>
               <rdf:li>enterprise:region-country/global</rdf:li>
            </rdf:Bag>
         </bsam:usageCountry>
         <bsam:assetOwner>
            <rdf:Bag>
               <rdf:li>enterprise:business-unit/webfleet</rdf:li>
            </rdf:Bag>
         </bsam:assetOwner>
         <bsam:subDigitalAssetType>
            <rdf:Bag>
               <rdf:li>enterprise:digital-asset-type/image/icon</rdf:li>
            </rdf:Bag>
         </bsam:subDigitalAssetType>
      </rdf:Description>
   </rdf:RDF>
</x:xmpmeta>
                                                                                                    
                                                                                                    
                                                                                                    
                                                                                                    
                                                                                                    
                                                                                                    
                                                                                                    
                                                                                                    
                                                                                                    
                                                                                                    
                                                                                                    
                                                                                                    
                                                                                                    
                                                                                                    
                                                                                                    
                                                                                                    
                                                                                                    
                                                                                                    
                                                                                                    
                                                                                                    
                           
<?xpacket end="w"?></metadata>
<path d="M240,99.1h-5.2V87.3c0-2.9-2.3-5.2-5.2-5.2s-5.2,2.3-5.2,5.2v11.8h-10.4V87.3c0-2.9-2.3-5.2-5.2-5.2s-5.2,2.3-5.2,5.2v11.8
	h-5.2c-2.9,0-5.2,2.3-5.2,5.2v10.4c0,12.3,8.6,22.7,20.1,25.4v73.4c0,5.1-4.1,9.3-9.3,9.4H200c-5.1,0-9.3-4.2-9.3-9.4v-37.3
	c0-11.3-9.1-20.4-20.4-20.5h-1.9v-11.2V63.2c0,0,0-0.1,0-0.1c0-3.3-2.7-5.9-6-5.9H63.2c0,0,0,0,0,0c-3.3,0-6,2.7-6,6.1v86.5v89.9
	c0,3.1,2.5,5.6,5.6,5.6h100.3c0,0,0,0,0.1,0c3.1,0,5.5-2.5,5.5-5.6v-72.8h1.9c0,0,0,0,0.1,0c5.1,0,9.3,4.2,9.2,9.4v37.3
	c0,11.3,9.1,20.5,20.4,20.5h3.7l0,0c11.3,0,20.4-9.2,20.4-20.5v-62.2v-11c11.9-2.4,20.9-13,20.9-25.6v-10.4
	C245.2,101.4,242.9,99.1,240,99.1z M112.8,197.8v-39.5l-28.7-0.2l29.5-58.2v38.8h27.9L112.8,197.8z"/>
</svg>
