<?xml version="1.0" encoding="utf-8"?>
<!-- Generator: Adobe Illustrator 26.3.1, SVG Export Plug-In . SVG Version: 6.00 Build 0)  -->
<svg version="1.1" id="Layer_1" xmlns="http://www.w3.org/2000/svg" xmlns:xlink="http://www.w3.org/1999/xlink" x="0px" y="0px"
	 viewBox="0 0 302.4 302.4" style="enable-background:new 0 0 302.4 302.4;" xml:space="preserve">
<metadata><?xpacket begin="﻿" id="W5M0MpCehiHzreSzNTczkc9d"?>
<x:xmpmeta xmlns:x="adobe:ns:meta/" x:xmptk="Adobe XMP Core 8.0-c001 1.000000, 0000/00/00-00:00:00        ">
   <rdf:RDF xmlns:rdf="http://www.w3.org/1999/02/22-rdf-syntax-ns#">
      <rdf:Description rdf:about=""
            xmlns:dc="http://purl.org/dc/elements/1.1/"
            xmlns:prism="http://prismstandard.org/namespaces/basic/2.1/"
            xmlns:tiff="http://ns.adobe.com/tiff/1.0/"
            xmlns:bsam="http://www.bsam.blog">
         <dc:modified>2025-09-09T17:19:41.380Z</dc:modified>
         <dc:format>image/svg+xml</dc:format>
         <prism:Date>2025-09-08T19:16:00.000+02:00</prism:Date>
         <tiff:ImageWidth>302</tiff:ImageWidth>
         <tiff:ImageLength>302</tiff:ImageLength>
         <bsam:rightsLimitedUnlimited>unlimited</bsam:rightsLimitedUnlimited>
         <bsam:subDigitalAssetType>
            <rdf:Bag>
               <rdf:li>enterprise:digital-asset-type/image/icon</rdf:li>
            </rdf:Bag>
         </bsam:subDigitalAssetType>
         <bsam:industry>
            <rdf:Bag>
               <rdf:li>enterprise:industry/generic-all-industries</rdf:li>
            </rdf:Bag>
         </bsam:industry>
         <bsam:assetOwner>
            <rdf:Bag>
               <rdf:li>enterprise:business-unit/webfleet</rdf:li>
            </rdf:Bag>
         </bsam:assetOwner>
         <bsam:usageCountry>
            <rdf:Bag>
               <rdf:li>enterprise:region-country/global</rdf:li>
            </rdf:Bag>
         </bsam:usageCountry>
      </rdf:Description>
   </rdf:RDF>
</x:xmpmeta>
                                                                                                    
                                                                                                    
                                                                                                    
                                                                                                    
                                                                                                    
                                                                                                    
                                                                                                    
                                                                                                    
                                                                                                    
                                                                                                    
                                                                                                    
                                                                                                    
                                                                                                    
                                                                                                    
                                                                                                    
                                                                                                    
                                                                                                    
                                                                                                    
                                                                            
<?xpacket end="w"?></metadata>
<g>
	<path d="M178.5,197.5H63.4c-9.7,0-17.6,7.9-17.6,17.6v7.1c0,9.7,7.9,17.6,17.6,17.6h115.1c9.7,0,17.6-7.9,17.6-17.6v-7.1
		C196.2,205.4,188.2,197.5,178.5,197.5z M79.2,231.5c-7,0-12.7-5.7-12.7-12.7S72.2,206,79.2,206c7,0,12.7,5.7,12.7,12.7
		S86.2,231.5,79.2,231.5z M121.5,231.5c-7,0-12.7-5.7-12.7-12.7s5.7-12.7,12.7-12.7c7,0,12.7,5.7,12.7,12.7S128.5,231.5,121.5,231.5
		z M162.5,231.5c-7,0-12.7-5.7-12.7-12.7s5.7-12.7,12.7-12.7c7,0,12.7,5.7,12.7,12.7S169.5,231.5,162.5,231.5z"/>
	<path d="M269.4,133.2l-22.6-62.2c0.3-1.1,0.4-2.2,0.4-3.4c0-7.6-6.2-13.8-13.8-13.8s-13.8,6.2-13.8,13.8c0,1.4,0.2,2.8,0.6,4.2
		l-39.4,70.3l-4.6-42c0,0-1-11.5-4.6-15.8c-3.1-4.7-10.5-4.9-10.5-4.9l-39-0.6c0,0-6.9-0.2-9.8,4.9C109,88.3,93,138.9,93,138.9
		L61.4,138c0,0-5.9,0.5-9.2,3.8c-3.3,3.3-3.3,8.9-3.3,8.9v26.9l12.5,12.1h119.1L229.7,81c1.2,0.3,2.4,0.5,3.7,0.5l27.9,54.6
		c-1.2,1.5-2,3.4-2,5.4c0,0.7,0.1,1.4,0.3,2l-42.8,20.5c0,0,15.1,23.3,38.4,12.1c14.7-7,17.5-19.5,17.6-27.8
		c2.1-1.5,3.6-4.1,3.6-6.9C276.3,137.4,273.3,133.9,269.4,133.2z M117,136.9l6.8-38.1c1.1-6.1,5.9-11.1,12.1-11.1H155
		c6.1,0,9.2,2.2,10.4,10.9c1.1,8.7,2.3,39.3,2.3,39.3L117,136.9z M233.4,75.7c-4.4,0-8-3.6-8-8s3.6-8,8-8s8,3.6,8,8
		S237.8,75.7,233.4,75.7z M267.8,145.6c-2.2,0-4-1.8-4-4.1s1.8-4.1,4-4.1c2.2,0,4,1.8,4,4.1S270,145.6,267.8,145.6z"/>
</g>
</svg>
