<?xml version="1.0" encoding="utf-8"?>
<!-- Generator: Adobe Illustrator 26.3.1, SVG Export Plug-In . SVG Version: 6.00 Build 0)  -->
<svg version="1.1" id="Layer_1" xmlns="http://www.w3.org/2000/svg" xmlns:xlink="http://www.w3.org/1999/xlink" x="0px" y="0px"
	 viewBox="0 0 302.4 302.4" style="enable-background:new 0 0 302.4 302.4;" xml:space="preserve">
<metadata><?xpacket begin="﻿" id="W5M0MpCehiHzreSzNTczkc9d"?>
<x:xmpmeta xmlns:x="adobe:ns:meta/" x:xmptk="Adobe XMP Core 8.0-c001 1.000000, 0000/00/00-00:00:00        ">
   <rdf:RDF xmlns:rdf="http://www.w3.org/1999/02/22-rdf-syntax-ns#">
      <rdf:Description rdf:about=""
            xmlns:bsam="http://www.bsam.blog"
            xmlns:tiff="http://ns.adobe.com/tiff/1.0/"
            xmlns:prism="http://prismstandard.org/namespaces/basic/2.1/"
            xmlns:dc="http://purl.org/dc/elements/1.1/">
         <bsam:rightsLimitedUnlimited>unlimited</bsam:rightsLimitedUnlimited>
         <bsam:assetOwner>
            <rdf:Bag>
               <rdf:li>enterprise:business-unit/webfleet</rdf:li>
            </rdf:Bag>
         </bsam:assetOwner>
         <bsam:industry>
            <rdf:Bag>
               <rdf:li>enterprise:industry/generic-all-industries</rdf:li>
            </rdf:Bag>
         </bsam:industry>
         <bsam:subDigitalAssetType>
            <rdf:Bag>
               <rdf:li>enterprise:digital-asset-type/image/icon</rdf:li>
            </rdf:Bag>
         </bsam:subDigitalAssetType>
         <bsam:usageCountry>
            <rdf:Bag>
               <rdf:li>enterprise:region-country/global</rdf:li>
            </rdf:Bag>
         </bsam:usageCountry>
         <tiff:ImageLength>302</tiff:ImageLength>
         <tiff:ImageWidth>302</tiff:ImageWidth>
         <prism:Date>2025-09-08T19:16:00.000+02:00</prism:Date>
         <dc:modified>2025-09-09T17:24:36.492Z</dc:modified>
         <dc:format>image/svg+xml</dc:format>
      </rdf:Description>
   </rdf:RDF>
</x:xmpmeta>
                                                                                                    
                                                                                                    
                                                                                                    
                                                                                                    
                                                                                                    
                                                                                                    
                                                                                                    
                                                                                                    
                                                                                                    
                                                                                                    
                                                                                                    
                                                                                                    
                                                                                                    
                                                                                                    
                                                                                                    
                                                                                                    
                                                                                                    
                                                                                                    
                                                                            
<?xpacket end="w"?></metadata>
<style type="text/css">
	.st0{fill-rule:evenodd;clip-rule:evenodd;}
</style>
<path class="st0" d="M23.6,66.2v170.1h255.1V66.2H23.6z M197.9,121l2.2-6.7l2.2,6.7h7l-5.7,4.1l2.2,6.7l-5.7-4.1l-5.7,4.1l2.2-6.7
	l-5.7-4.1C190.9,121,197.9,121,197.9,121z M100.2,121.1l2.2-6.7l2.2,6.7h7l-5.7,4.1l2.2,6.6l-5.7-4.1l-5.7,4.1l2.2-6.7l-5.7-4.1
	C93.2,121.1,100.2,121.1,100.2,121.1z M85.9,149.1h7l2.2-6.6l2.2,6.6h7l-5.7,4.1l2.2,6.7l-5.7-4.1l-5.7,4.1l2.2-6.7L85.9,149.1z
	 M108.2,187.9l-5.7-4.1l-5.7,4.1l2.2-6.6l-5.7-4.1h7l2.2-6.6l2.2,6.6h7l-5.7,4.1L108.2,187.9z M128.6,208.6l-5.7-4.1l-5.7,4.1
	l2.2-6.6l-5.7-4.1h7l2.2-6.6l2.2,6.6h7l-5.7,4.1L128.6,208.6z M126.5,104.6l2.2,6.7l-5.7-4.1l-5.7,4.1l2.2-6.7l-5.7-4.1h7l2.2-6.7
	l2.2,6.7h7L126.5,104.6z M156.8,216.1l-5.7-4.1l-5.7,4.1l2.2-6.7l-5.7-4.1h7l2.2-6.6l2.2,6.6h7l-5.7,4.1L156.8,216.1z M154.9,97
	l2.2,6.7l-5.7-4.1l-5.7,4.1l2.2-6.7l-5.7-4.1h7l2.2-6.7l2.2,6.7h7L154.9,97z M185.1,208.6l-5.7-4.1l-5.7,4.1l2.2-6.6l-5.7-4.1h7
	l2.2-6.6l2.2,6.6h7l-5.7,4.1L185.1,208.6z M182.9,104.3l2.2,6.7l-5.7-4.1l-5.7,4.1l2.2-6.7l-5.7-4.1h7l2.2-6.7l2.2,6.7h7
	L182.9,104.3z M205.5,188.2l-5.7-4.1l-5.7,4.1l2.2-6.6l-5.7-4.1h7l2.2-6.7l2.2,6.7h7l-5.7,4.1L205.5,188.2z M213,159.9l-5.7-4.1
	l-5.7,4.1l2.2-6.6l-5.7-4.1h7l2.2-6.6l2.2,6.6h7l-5.7,4.1L213,159.9z"/>
</svg>
