<?xml version="1.0" encoding="utf-8"?>
<!-- Generator: Adobe Illustrator 26.3.1, SVG Export Plug-In . SVG Version: 6.00 Build 0)  -->
<svg version="1.1" id="Layer_1" xmlns="http://www.w3.org/2000/svg" xmlns:xlink="http://www.w3.org/1999/xlink" x="0px" y="0px"
	 viewBox="0 0 302.4 302.4" style="enable-background:new 0 0 302.4 302.4;" xml:space="preserve">
<metadata><?xpacket begin="﻿" id="W5M0MpCehiHzreSzNTczkc9d"?>
<x:xmpmeta xmlns:x="adobe:ns:meta/" x:xmptk="Adobe XMP Core 8.0-c001 1.000000, 0000/00/00-00:00:00        ">
   <rdf:RDF xmlns:rdf="http://www.w3.org/1999/02/22-rdf-syntax-ns#">
      <rdf:Description rdf:about=""
            xmlns:bsam="http://www.bsam.blog"
            xmlns:tiff="http://ns.adobe.com/tiff/1.0/"
            xmlns:prism="http://prismstandard.org/namespaces/basic/2.1/"
            xmlns:dc="http://purl.org/dc/elements/1.1/">
         <bsam:rightsLimitedUnlimited>unlimited</bsam:rightsLimitedUnlimited>
         <bsam:assetOwner>
            <rdf:Bag>
               <rdf:li>enterprise:business-unit/webfleet</rdf:li>
            </rdf:Bag>
         </bsam:assetOwner>
         <bsam:industry>
            <rdf:Bag>
               <rdf:li>enterprise:industry/generic-all-industries</rdf:li>
            </rdf:Bag>
         </bsam:industry>
         <bsam:subDigitalAssetType>
            <rdf:Bag>
               <rdf:li>enterprise:digital-asset-type/image/icon</rdf:li>
            </rdf:Bag>
         </bsam:subDigitalAssetType>
         <bsam:usageCountry>
            <rdf:Bag>
               <rdf:li>enterprise:region-country/global</rdf:li>
            </rdf:Bag>
         </bsam:usageCountry>
         <tiff:ImageLength>302</tiff:ImageLength>
         <tiff:ImageWidth>302</tiff:ImageWidth>
         <prism:Date>2025-09-08T19:16:00.000+02:00</prism:Date>
         <dc:modified>2025-09-09T17:26:25.562Z</dc:modified>
         <dc:format>image/svg+xml</dc:format>
      </rdf:Description>
   </rdf:RDF>
</x:xmpmeta>
                                                                                                    
                                                                                                    
                                                                                                    
                                                                                                    
                                                                                                    
                                                                                                    
                                                                                                    
                                                                                                    
                                                                                                    
                                                                                                    
                                                                                                    
                                                                                                    
                                                                                                    
                                                                                                    
                                                                                                    
                                                                                                    
                                                                                                    
                                                                                                    
                                                                            
<?xpacket end="w"?></metadata>
<path d="M243.9,189c-0.2-36.9-5.6-46.1-5.6-46.1h0.4c5.1,0,5.3-4.1,5.3-9.3v-27.9c0-5.1-4.1-9.3-9.3-9.3l0.4,0.1
	c0,0-2.5-0.1-5.2-0.1c-1.5-11.6-3-26.7-5.7-37c-0.1-0.4-0.2-0.8-0.4-1.2c-1.6-5.8-7-10.1-13.3-10.1c-0.3,0-1,0-1,0h-2.2H95.2h-2.6
	c0,0-0.8,0-1.1,0c-6.3,0-11.6,4.2-13.3,10c-0.1,0.4-0.3,0.8-0.4,1.2c-2.8,10.3-4.2,25.2-5.6,37.2c-2.6,0-3.9,0.1-4.6,0.1
	c-5.1,0-9.3,4.2-9.3,9.3v27.8c0,5.1-0.1,8.9,5,9.4c-0.1,0.3-5,9.4-5,46.3v46.4v9.3c0,5.1,4.2,9.3,9.3,9.3h18.6
	c5.1,0,9.3-4.1,9.3-9.3v-18.6h111.3v18.6c0,5.1,4.1,9.3,9.3,9.3h18.6c5.1,0,9.3-4.1,9.3-9.3C244,244.9,244,210.7,243.9,189z
	 M81.6,199.7c-7.7,0-13.9-6.2-13.9-13.9s6.2-13.9,13.9-13.9s13.9,6.2,13.9,13.9C95.5,193.4,89.3,199.7,81.6,199.7z M151.2,194.2
	v-44.6l-32.4-0.2l33.4-65.8v43.8h31.4L151.2,194.2z M220.8,200.3c-7.7,0-13.9-6.2-13.9-13.9s6.2-13.9,13.9-13.9s13.9,6.2,13.9,13.9
	S228.4,200.3,220.8,200.3z"/>
</svg>
