<?xml version="1.0" encoding="utf-8"?>
<!-- Generator: Adobe Illustrator 26.3.1, SVG Export Plug-In . SVG Version: 6.00 Build 0)  -->
<svg version="1.1" id="Layer_1" xmlns="http://www.w3.org/2000/svg" xmlns:xlink="http://www.w3.org/1999/xlink" x="0px" y="0px"
	 viewBox="0 0 302.4 302.4" style="enable-background:new 0 0 302.4 302.4;" xml:space="preserve">
<metadata><?xpacket begin="﻿" id="W5M0MpCehiHzreSzNTczkc9d"?>
<x:xmpmeta xmlns:x="adobe:ns:meta/" x:xmptk="Adobe XMP Core 8.0-c001 1.000000, 0000/00/00-00:00:00        ">
   <rdf:RDF xmlns:rdf="http://www.w3.org/1999/02/22-rdf-syntax-ns#">
      <rdf:Description rdf:about=""
            xmlns:bsam="http://www.bsam.blog"
            xmlns:tiff="http://ns.adobe.com/tiff/1.0/"
            xmlns:prism="http://prismstandard.org/namespaces/basic/2.1/"
            xmlns:dc="http://purl.org/dc/elements/1.1/">
         <bsam:rightsLimitedUnlimited>unlimited</bsam:rightsLimitedUnlimited>
         <bsam:assetOwner>
            <rdf:Bag>
               <rdf:li>enterprise:business-unit/webfleet</rdf:li>
            </rdf:Bag>
         </bsam:assetOwner>
         <bsam:industry>
            <rdf:Bag>
               <rdf:li>enterprise:industry/generic-all-industries</rdf:li>
            </rdf:Bag>
         </bsam:industry>
         <bsam:subDigitalAssetType>
            <rdf:Bag>
               <rdf:li>enterprise:digital-asset-type/image/icon</rdf:li>
            </rdf:Bag>
         </bsam:subDigitalAssetType>
         <bsam:usageCountry>
            <rdf:Bag>
               <rdf:li>enterprise:region-country/global</rdf:li>
            </rdf:Bag>
         </bsam:usageCountry>
         <tiff:ImageLength>302</tiff:ImageLength>
         <tiff:ImageWidth>302</tiff:ImageWidth>
         <prism:Date>2025-09-08T19:16:00.000+02:00</prism:Date>
         <dc:modified>2025-09-09T17:17:46.112Z</dc:modified>
         <dc:format>image/svg+xml</dc:format>
      </rdf:Description>
   </rdf:RDF>
</x:xmpmeta>
                                                                                                    
                                                                                                    
                                                                                                    
                                                                                                    
                                                                                                    
                                                                                                    
                                                                                                    
                                                                                                    
                                                                                                    
                                                                                                    
                                                                                                    
                                                                                                    
                                                                                                    
                                                                                                    
                                                                                                    
                                                                                                    
                                                                                                    
                                                                                                    
                                                                            
<?xpacket end="w"?></metadata>
<style type="text/css">
	.st0{fill-rule:evenodd;clip-rule:evenodd;}
</style>
<g>
	<polygon class="st0" points="151.5,36.5 155.3,48.3 167.6,48.3 157.6,55.5 161.5,67.3 151.5,60 141.5,67.3 145.3,55.5 135.3,48.3 
		147.6,48.3 	"/>
	<polygon class="st0" points="201,49.5 204.8,61.2 217.2,61.2 207.2,68.5 211,80.2 201,72.9 191,80.2 194.8,68.5 184.8,61.2 
		197.2,61.2 	"/>
	<polygon class="st0" points="237.4,86.2 241.2,98 253.6,98 243.6,105.2 247.4,117 237.4,109.7 227.4,117 231.2,105.2 221.2,98 
		233.6,98 	"/>
	<polygon class="st0" points="250.3,135.8 254.1,147.6 266.4,147.6 256.4,154.9 260.3,166.6 250.3,159.3 240.3,166.6 244.1,154.9 
		234.1,147.6 246.4,147.6 	"/>
	<polygon class="st0" points="237,185.8 240.9,197.6 253.2,197.6 243.2,204.8 247,216.6 237,209.3 227,216.6 230.9,204.8 
		220.9,197.6 233.2,197.6 	"/>
	<polygon class="st0" points="201,221.9 204.8,233.6 217.2,233.6 207.2,240.9 211,252.6 201,245.4 191,252.6 194.8,240.9 
		184.8,233.6 197.2,233.6 	"/>
	<polygon class="st0" points="151,235.1 154.8,246.8 167.2,246.8 157.2,254.1 161,265.9 151,258.6 141,265.9 144.8,254.1 
		134.8,246.8 147.2,246.8 	"/>
	<polygon class="st0" points="101.4,221.9 105.2,233.6 117.6,233.6 107.6,240.9 111.4,252.6 101.4,245.4 91.4,252.6 95.2,240.9 
		85.2,233.6 97.6,233.6 	"/>
	<polygon class="st0" points="65.3,185.3 69.2,197 81.5,197 71.5,204.3 75.3,216 65.3,208.8 55.4,216 59.2,204.3 49.2,197 61.5,197 
			"/>
	<polygon class="st0" points="52.1,135.8 55.9,147.6 68.3,147.6 58.3,154.8 62.1,166.6 52.1,159.3 42.1,166.6 45.9,154.8 36,147.6 
		48.3,147.6 	"/>
	<polygon class="st0" points="65,86.4 68.8,98.1 81.2,98.1 71.2,105.4 75,117.2 65,109.9 55,117.2 58.8,105.4 48.8,98.1 61.2,98.1 	
		"/>
	<polygon class="st0" points="101.4,50 105.2,61.8 117.6,61.8 107.6,69 111.4,80.8 101.4,73.5 91.4,80.8 95.2,69 85.2,61.8 
		97.6,61.8 	"/>
</g>
</svg>
