<?xml version="1.0" encoding="UTF-8"?>
<svg xmlns="http://www.w3.org/2000/svg" width="10.7cm" height="10.7cm" xmlns:xlink="http://www.w3.org/1999/xlink" version="1.1" viewBox="0 0 302.4 302.4">
  <metadata><?xpacket begin="﻿" id="W5M0MpCehiHzreSzNTczkc9d"?>
<x:xmpmeta xmlns:x="adobe:ns:meta/" x:xmptk="Adobe XMP Core 8.0-c001 1.000000, 0000/00/00-00:00:00        ">
   <rdf:RDF xmlns:rdf="http://www.w3.org/1999/02/22-rdf-syntax-ns#">
      <rdf:Description rdf:about=""
            xmlns:bsam="http://www.bsam.blog"
            xmlns:tiff="http://ns.adobe.com/tiff/1.0/"
            xmlns:prism="http://prismstandard.org/namespaces/basic/2.1/"
            xmlns:dc="http://purl.org/dc/elements/1.1/">
         <bsam:rightsLimitedUnlimited>unlimited</bsam:rightsLimitedUnlimited>
         <bsam:assetOwner>
            <rdf:Bag>
               <rdf:li>enterprise:business-unit/webfleet</rdf:li>
            </rdf:Bag>
         </bsam:assetOwner>
         <bsam:industry>
            <rdf:Bag>
               <rdf:li>enterprise:industry/generic-all-industries</rdf:li>
            </rdf:Bag>
         </bsam:industry>
         <bsam:subDigitalAssetType>
            <rdf:Bag>
               <rdf:li>enterprise:digital-asset-type/image/icon</rdf:li>
            </rdf:Bag>
         </bsam:subDigitalAssetType>
         <bsam:usageCountry>
            <rdf:Bag>
               <rdf:li>enterprise:region-country/global</rdf:li>
            </rdf:Bag>
         </bsam:usageCountry>
         <tiff:ImageLength>404</tiff:ImageLength>
         <tiff:ImageWidth>404</tiff:ImageWidth>
         <prism:Date>2025-09-08T19:16:00.000+02:00</prism:Date>
         <dc:modified>2025-09-09T17:24:02.688Z</dc:modified>
         <dc:format>image/svg+xml</dc:format>
      </rdf:Description>
   </rdf:RDF>
</x:xmpmeta>
                                                                                                    
                                                                                                    
                                                                                                    
                                                                                                    
                                                                                                    
                                                                                                    
                                                                                                    
                                                                                                    
                                                                                                    
                                                                                                    
                                                                                                    
                                                                                                    
                                                                                                    
                                                                                                    
                                                                                                    
                                                                                                    
                                                                                                    
                                                                                                    
                                                                            
<?xpacket end="w"?></metadata>
<defs>
    <style>
      .cls-1 {
        fill: none;
      }

      .cls-2 {
        clip-path: url(#clippath);
      }
    </style>
    <clipPath id="clippath">
      <rect class="cls-1" x="64.7" y="50.1" width="172.9" height="202.3"/>
    </clipPath>
  </defs>
  <!-- Generator: Adobe Illustrator 28.7.2, SVG Export Plug-In . SVG Version: 1.2.0 Build 154)  -->
  <g>
    <g id="Layer_1">
      <g class="cls-2">
        <path d="M237.6,103.7v-.2s0,0,0,0c.1-6.4-2.3-12.3-6.7-16.7l-30-30c-4.3-4.3-10.1-6.7-16.2-6.7s-1.5,0-2.3.1h-104.6c-7.2,0-13.1,5.8-13.1,13.1v176c0,7.2,5.9,13.1,13.1,13.1h146.7c7.2,0,13.1-5.9,13.1-13.1V103.7ZM221.2,235.9H81.1V66.6h100.9v31c.1,4.4,3.7,8,8.1,8.1h.7s0,0,0,0h30.3v130.3Z"/>
        <path d="M111.3,126.6c-3.7,0-6.7,3-6.7,6.7h0,0v78.4c0,1.7.7,3.3,1.8,4.5,0,0,0,.1.1.2.2.2.5.4.8.6,1.1.8,2.4,1.4,3.9,1.4h78.3c3.7,0,6.7-3,6.7-6.6v-78.4c0-2.7-1.7-5.1-4.1-6.1-.8-.3-1.7-.5-2.6-.5h-78.3ZM157.1,166h25.9v12.8h-25.9v-12.8ZM143.8,178.8h-25.9v-12.8h25.9v12.8ZM157.1,139.9h25.9v12.8h-25.9v-12.8ZM143.8,152.7h-25.9v-12.8h25.9v12.8ZM117.9,192.1h25.9v12.8h-25.9v-12.8ZM157.1,192.1h25.9v12.8h-25.9v-12.8Z"/>
      </g>
    </g>
  </g>
</svg>