<?xml version="1.0" encoding="UTF-8"?>
<svg xmlns="http://www.w3.org/2000/svg" version="1.1" viewBox="0 0 302.4 302.4">
  <!-- Generator: Adobe Illustrator 28.7.1, SVG Export Plug-In . SVG Version: 1.2.0 Build 142)  -->
  <metadata><?xpacket begin="﻿" id="W5M0MpCehiHzreSzNTczkc9d"?>
<x:xmpmeta xmlns:x="adobe:ns:meta/" x:xmptk="Adobe XMP Core 8.0-c001 1.000000, 0000/00/00-00:00:00        ">
   <rdf:RDF xmlns:rdf="http://www.w3.org/1999/02/22-rdf-syntax-ns#">
      <rdf:Description rdf:about=""
            xmlns:dc="http://purl.org/dc/elements/1.1/"
            xmlns:prism="http://prismstandard.org/namespaces/basic/2.1/"
            xmlns:tiff="http://ns.adobe.com/tiff/1.0/"
            xmlns:bsam="http://www.bsam.blog">
         <dc:modified>2025-09-09T17:12:10.472Z</dc:modified>
         <dc:format>image/svg+xml</dc:format>
         <prism:Date>2025-09-08T19:16:00.000+02:00</prism:Date>
         <tiff:ImageWidth>302</tiff:ImageWidth>
         <tiff:ImageLength>302</tiff:ImageLength>
         <bsam:rightsLimitedUnlimited>unlimited</bsam:rightsLimitedUnlimited>
         <bsam:subDigitalAssetType>
            <rdf:Bag>
               <rdf:li>enterprise:digital-asset-type/image/icon</rdf:li>
            </rdf:Bag>
         </bsam:subDigitalAssetType>
         <bsam:industry>
            <rdf:Bag>
               <rdf:li>enterprise:industry/generic-all-industries</rdf:li>
            </rdf:Bag>
         </bsam:industry>
         <bsam:assetOwner>
            <rdf:Bag>
               <rdf:li>enterprise:business-unit/webfleet</rdf:li>
            </rdf:Bag>
         </bsam:assetOwner>
         <bsam:usageCountry>
            <rdf:Bag>
               <rdf:li>enterprise:region-country/global</rdf:li>
            </rdf:Bag>
         </bsam:usageCountry>
      </rdf:Description>
   </rdf:RDF>
</x:xmpmeta>
                                                                                                    
                                                                                                    
                                                                                                    
                                                                                                    
                                                                                                    
                                                                                                    
                                                                                                    
                                                                                                    
                                                                                                    
                           
<?xpacket end="w"?></metadata>
<g>
    <g id="Layer_1">
      <path d="M248.9,234.5v-55.3c0-10.2-8.4-18.6-18.6-18.6v-18.8h0c5.1,0,9.3-4.1,9.3-9.3v-27.8c0-5.1-4.2-9.3-9.3-9.3h0v-46.4c0-5.1-4.2-9.3-9.3-9.3H81.9c-5.1,0-9.3,4.2-9.3,9.3v46.4c-5.1,0-9.3,4.2-9.3,9.3v27.8c0,5.1,4.1,9.3,9.3,9.3v18.8c-10.2,0-18.5,8.4-18.5,18.6v55.3h0v18c0,5.4,4.4,9.9,9.9,9.9h26.7c5.4,0,9.9-4.4,9.9-9.9v-8.1s0,0,0,0v-9.7h102v17.9c0,5.4,4.4,9.9,9.9,9.9h26.7c5.4,0,9.9-4.4,9.9-9.9v-18h0ZM81.9,202c-7.7,0-13.9-6.2-13.9-13.9s6.2-13.9,13.9-13.9,13.9,6.2,13.9,13.9-6.2,13.9-13.9,13.9ZM151.5,197.5v-44.6l-32.4-.2,33.4-65.8v43.8h31.5l-32.4,66.7ZM221.1,202c-7.7,0-13.9-6.2-13.9-13.9s6.2-13.9,13.9-13.9,13.9,6.2,13.9,13.9-6.2,13.9-13.9,13.9Z"/>
    </g>
  </g>
</svg>