<?xml version="1.0" encoding="utf-8"?>
<!-- Generator: Adobe Illustrator 26.3.1, SVG Export Plug-In . SVG Version: 6.00 Build 0)  -->
<svg version="1.1" id="Layer_1" xmlns="http://www.w3.org/2000/svg" xmlns:xlink="http://www.w3.org/1999/xlink" x="0px" y="0px"
	 viewBox="0 0 302.4 302.4" style="enable-background:new 0 0 302.4 302.4;" xml:space="preserve">
<metadata><?xpacket begin="﻿" id="W5M0MpCehiHzreSzNTczkc9d"?>
<x:xmpmeta xmlns:x="adobe:ns:meta/" x:xmptk="Adobe XMP Core 8.0-c001 1.000000, 0000/00/00-00:00:00        ">
   <rdf:RDF xmlns:rdf="http://www.w3.org/1999/02/22-rdf-syntax-ns#">
      <rdf:Description rdf:about=""
            xmlns:bsam="http://www.bsam.blog"
            xmlns:tiff="http://ns.adobe.com/tiff/1.0/"
            xmlns:prism="http://prismstandard.org/namespaces/basic/2.1/"
            xmlns:dc="http://purl.org/dc/elements/1.1/">
         <bsam:rightsLimitedUnlimited>unlimited</bsam:rightsLimitedUnlimited>
         <bsam:assetOwner>
            <rdf:Bag>
               <rdf:li>enterprise:business-unit/webfleet</rdf:li>
            </rdf:Bag>
         </bsam:assetOwner>
         <bsam:industry>
            <rdf:Bag>
               <rdf:li>enterprise:industry/generic-all-industries</rdf:li>
            </rdf:Bag>
         </bsam:industry>
         <bsam:subDigitalAssetType>
            <rdf:Bag>
               <rdf:li>enterprise:digital-asset-type/image/icon</rdf:li>
            </rdf:Bag>
         </bsam:subDigitalAssetType>
         <bsam:usageCountry>
            <rdf:Bag>
               <rdf:li>enterprise:region-country/global</rdf:li>
            </rdf:Bag>
         </bsam:usageCountry>
         <tiff:ImageLength>302</tiff:ImageLength>
         <tiff:ImageWidth>302</tiff:ImageWidth>
         <prism:Date>2025-09-08T19:16:00.000+02:00</prism:Date>
         <dc:modified>2025-09-09T17:21:52.690Z</dc:modified>
         <dc:format>image/svg+xml</dc:format>
      </rdf:Description>
   </rdf:RDF>
</x:xmpmeta>
                                                                                                    
                                                                                                    
                                                                                                    
                                                                                                    
                                                                                                    
                                                                                                    
                                                                                                    
                                                                                                    
                                                                                                    
                                                                                                    
                                                                                                    
                                                                                                    
                                                                                                    
                                                                                                    
                                                                                                    
                                                                                                    
                                                                                                    
                                                                                                    
                                                                            
<?xpacket end="w"?></metadata>
<path d="M216.2,193c-10.9,12.1-25.8,19.5-42,20.7c-16.7,1.2-32.9-4.1-45.6-15c-5.1-4.4-9.3-9.5-12.7-15h67.2v-22.7h-75.5
	c-0.3-1.7-0.5-3.4-0.6-5.1c-0.4-6,0-11.9,1.2-17.7h75v-22.7h-65.1c1.2-1.8,2.6-3.5,4-5.2c10.9-12.7,26.1-20.4,42.8-21.6
	c19.5-1.4,38.3,6.1,51.4,20.7c4.3-3.9,11.4-9.9,16.9-15.1c-17.8-19.9-43.3-30.1-69.9-28.1c-22.7,1.7-43.4,12.2-58.3,29.4
	c-5.3,6.1-9.5,12.8-12.8,19.9H69.3v22.7h15.8c-1,6.3-1.2,12.8-0.8,19.4c0.1,1.1,0.2,2.2,0.3,3.4H69.3v22.7h21.2
	c5,12.3,12.9,23.3,23.3,32.2c15.6,13.4,35.1,20.6,55.5,20.6c2.2,0,4.3-0.1,6.5-0.2c22.1-1.7,42.4-11.7,57.2-28.2
	C227.1,202.7,221.2,197.6,216.2,193z"/>
</svg>
