<?xml version="1.0" encoding="utf-8"?>
<!-- Generator: Adobe Illustrator 27.2.0, SVG Export Plug-In . SVG Version: 6.00 Build 0)  -->
<svg version="1.1" id="Layer_1" xmlns="http://www.w3.org/2000/svg" xmlns:xlink="http://www.w3.org/1999/xlink" x="0px" y="0px"
	 viewBox="0 0 302.4 302.4" style="enable-background:new 0 0 302.4 302.4;" xml:space="preserve">
<metadata><?xpacket begin="﻿" id="W5M0MpCehiHzreSzNTczkc9d"?>
<x:xmpmeta xmlns:x="adobe:ns:meta/" x:xmptk="Adobe XMP Core 8.0-c001 1.000000, 0000/00/00-00:00:00        ">
   <rdf:RDF xmlns:rdf="http://www.w3.org/1999/02/22-rdf-syntax-ns#">
      <rdf:Description rdf:about=""
            xmlns:dc="http://purl.org/dc/elements/1.1/"
            xmlns:prism="http://prismstandard.org/namespaces/basic/2.1/"
            xmlns:tiff="http://ns.adobe.com/tiff/1.0/"
            xmlns:bsam="http://www.bsam.blog">
         <dc:modified>2025-09-09T17:22:55.577Z</dc:modified>
         <dc:format>image/svg+xml</dc:format>
         <prism:Date>2025-09-08T19:16:00.000+02:00</prism:Date>
         <tiff:ImageWidth>302</tiff:ImageWidth>
         <tiff:ImageLength>302</tiff:ImageLength>
         <bsam:rightsLimitedUnlimited>unlimited</bsam:rightsLimitedUnlimited>
         <bsam:subDigitalAssetType>
            <rdf:Bag>
               <rdf:li>enterprise:digital-asset-type/image/icon</rdf:li>
            </rdf:Bag>
         </bsam:subDigitalAssetType>
         <bsam:industry>
            <rdf:Bag>
               <rdf:li>enterprise:industry/generic-all-industries</rdf:li>
            </rdf:Bag>
         </bsam:industry>
         <bsam:assetOwner>
            <rdf:Bag>
               <rdf:li>enterprise:business-unit/webfleet</rdf:li>
            </rdf:Bag>
         </bsam:assetOwner>
         <bsam:usageCountry>
            <rdf:Bag>
               <rdf:li>enterprise:region-country/global</rdf:li>
            </rdf:Bag>
         </bsam:usageCountry>
      </rdf:Description>
   </rdf:RDF>
</x:xmpmeta>
                                                                                                    
                                                                                                    
                                                                                                    
                                                                                                    
                                                                                                    
                                                                                                    
                                                                                                    
                                                                                                    
                                                                                                    
                                                                                                    
                                                                                                    
                                                                                                    
                                                                                                    
                                                                                                    
                                                                                                    
                                                                                                    
                                                                                                    
                                                                                                    
                                                                            
<?xpacket end="w"?></metadata>
<path d="M257.3,122.6h-21.4v11.5h-12.5v-15.2h-26.8L182,102.7l0,0c-1.2-1.4-2.9-2.2-4.7-2.2c0,0-0.1,0-0.1,0l0,0h-26.2v-10h22.2
	c4.1,0,7.5-3.5,7.5-7.9v0c0-4.4-3.4-7.9-7.5-7.9H103c-4.1,0-7.5,3.5-7.5,7.9v0c0,4.4,3.4,7.9,7.5,7.9h22.1v10H100c0,0,0,0,0,0
	c-0.1,0-0.1,0-0.2,0c-2.5,0-4.6,1.5-5.7,3.6c0,0,0,0,0,0l-10.9,20.7l-23.9,0v32.6h-8.6v-32.6H36.9v40h6.6v38.5h7.1v-31.1h8.6v31.1
	l20.8,0l19.4,21.2l0,0c1.2,1.4,2.9,2.2,4.7,2.2c0,0,0.1,0,0.1,0l0,0h89.5l0,0c0,0,0.1,0,0.1,0c1.9,0,3.5-0.8,4.7-2.2l0,0l21.2-23.2
	h15.4l0,11.5c7.3,0,14.6,0,22,0l6.8-7.8c0-24.9,0-49.8,0-74.7L257.3,122.6z M150.5,209.6v-36.1l-24.5-0.1l25.2-53.2v35.5H175
	L150.5,209.6z"/>
</svg>
