<?xml version="1.0" encoding="utf-8"?>
<!-- Generator: Adobe Illustrator 26.3.1, SVG Export Plug-In . SVG Version: 6.00 Build 0)  -->
<svg version="1.1" id="Layer_1" xmlns="http://www.w3.org/2000/svg" xmlns:xlink="http://www.w3.org/1999/xlink" x="0px" y="0px"
	 viewBox="0 0 302.4 302.4" style="enable-background:new 0 0 302.4 302.4;" xml:space="preserve">
<metadata><?xpacket begin="﻿" id="W5M0MpCehiHzreSzNTczkc9d"?>
<x:xmpmeta xmlns:x="adobe:ns:meta/" x:xmptk="Adobe XMP Core 8.0-c001 1.000000, 0000/00/00-00:00:00        ">
   <rdf:RDF xmlns:rdf="http://www.w3.org/1999/02/22-rdf-syntax-ns#">
      <rdf:Description rdf:about=""
            xmlns:dc="http://purl.org/dc/elements/1.1/"
            xmlns:prism="http://prismstandard.org/namespaces/basic/2.1/"
            xmlns:tiff="http://ns.adobe.com/tiff/1.0/"
            xmlns:bsam="http://www.bsam.blog">
         <dc:modified>2025-09-09T17:08:54.797Z</dc:modified>
         <dc:format>image/svg+xml</dc:format>
         <prism:Date>2025-09-08T19:16:00.000+02:00</prism:Date>
         <tiff:ImageWidth>302</tiff:ImageWidth>
         <tiff:ImageLength>302</tiff:ImageLength>
         <bsam:rightsLimitedUnlimited>unlimited</bsam:rightsLimitedUnlimited>
         <bsam:subDigitalAssetType>
            <rdf:Bag>
               <rdf:li>enterprise:digital-asset-type/image/icon</rdf:li>
            </rdf:Bag>
         </bsam:subDigitalAssetType>
         <bsam:industry>
            <rdf:Bag>
               <rdf:li>enterprise:industry/generic-all-industries</rdf:li>
            </rdf:Bag>
         </bsam:industry>
         <bsam:assetOwner>
            <rdf:Bag>
               <rdf:li>enterprise:business-unit/webfleet</rdf:li>
            </rdf:Bag>
         </bsam:assetOwner>
         <bsam:usageCountry>
            <rdf:Bag>
               <rdf:li>enterprise:region-country/global</rdf:li>
            </rdf:Bag>
         </bsam:usageCountry>
      </rdf:Description>
   </rdf:RDF>
</x:xmpmeta>
                                                                                                    
                                                                                                    
                                                                                                    
                                                                                                    
                                                                                                    
                                                                                                    
                                                                                                    
                                                                                                    
                                                                                                    
                           
<?xpacket end="w"?></metadata>
<path d="M270.2,114.8H247v12.4h-13.6v-16.4h-29.1l-15.8-17.5l0,0c-1.3-1.5-3.1-2.4-5.1-2.4c0,0-0.1,0-0.1,0l0,0h-28.4V80h24.1
	c4.5,0,8.1-3.8,8.1-8.6l0,0c0-4.7-3.6-8.6-8.1-8.6h-76c-4.5,0-8.1,3.8-8.1,8.6l0,0c0,4.7,3.6,8.6,8.1,8.6h24v10.9H99.6c0,0,0,0,0,0
	c-0.1,0-0.2,0-0.2,0c-2.7,0-5,1.6-6.1,3.9l0,0l-11.8,22.4l-26,0v35.3h-9.3v-35.3H31.2v43.4h7.2v41.8h7.7v-33.7h9.3v33.7l22.5,0
	l21,23h0c1.3,1.5,3.1,2.4,5.1,2.4c0.1,0,0.1,0,0.1,0l0,0h97.1l0,0c0,0,0.1,0,0.1,0c2,0,3.8-0.9,5.1-2.3l0,0l23-25.2h16.7l0,12.4
	c7.9,0,15.9,0,23.8,0l7.4-8.4c0-27,0-54,0-81L270.2,114.8z"/>
</svg>
