<?xml version="1.0" encoding="utf-8"?>
<!-- Generator: Adobe Illustrator 26.3.1, SVG Export Plug-In . SVG Version: 6.00 Build 0)  -->
<svg version="1.1" id="Layer_1" xmlns="http://www.w3.org/2000/svg" xmlns:xlink="http://www.w3.org/1999/xlink" x="0px" y="0px"
	 viewBox="0 0 302.4 302.4" style="enable-background:new 0 0 302.4 302.4;" xml:space="preserve">
<metadata><?xpacket begin="﻿" id="W5M0MpCehiHzreSzNTczkc9d"?>
<x:xmpmeta xmlns:x="adobe:ns:meta/" x:xmptk="Adobe XMP Core 8.0-c001 1.000000, 0000/00/00-00:00:00        ">
   <rdf:RDF xmlns:rdf="http://www.w3.org/1999/02/22-rdf-syntax-ns#">
      <rdf:Description rdf:about=""
            xmlns:bsam="http://www.bsam.blog"
            xmlns:tiff="http://ns.adobe.com/tiff/1.0/"
            xmlns:prism="http://prismstandard.org/namespaces/basic/2.1/"
            xmlns:dc="http://purl.org/dc/elements/1.1/">
         <bsam:rightsLimitedUnlimited>unlimited</bsam:rightsLimitedUnlimited>
         <bsam:assetOwner>
            <rdf:Bag>
               <rdf:li>enterprise:business-unit/webfleet</rdf:li>
            </rdf:Bag>
         </bsam:assetOwner>
         <bsam:industry>
            <rdf:Bag>
               <rdf:li>enterprise:industry/generic-all-industries</rdf:li>
            </rdf:Bag>
         </bsam:industry>
         <bsam:subDigitalAssetType>
            <rdf:Bag>
               <rdf:li>enterprise:digital-asset-type/image/icon</rdf:li>
            </rdf:Bag>
         </bsam:subDigitalAssetType>
         <bsam:usageCountry>
            <rdf:Bag>
               <rdf:li>enterprise:region-country/global</rdf:li>
            </rdf:Bag>
         </bsam:usageCountry>
         <tiff:ImageLength>302</tiff:ImageLength>
         <tiff:ImageWidth>302</tiff:ImageWidth>
         <prism:Date>2025-09-08T19:16:00.000+02:00</prism:Date>
         <dc:modified>2025-09-09T17:22:01.892Z</dc:modified>
         <dc:format>image/svg+xml</dc:format>
      </rdf:Description>
   </rdf:RDF>
</x:xmpmeta>
                                                                                                    
                                                                                                    
                                                                                                    
                                                                                                    
                                                                                                    
                                                                                                    
                                                                                                    
                                                                                                    
                                                                                                    
                                                                                                    
                                                                                                    
                                                                                                    
                                                                                                    
                                                                                                    
                                                                                                    
                                                                                                    
                                                                                                    
                                                                                                    
                                                                            
<?xpacket end="w"?></metadata>
<g>
	<path d="M174.4,133.4H99.2V77h75.3V133.4z M233.4,127c-0.1,0.8-0.2,1.3-0.3,1.9c-2.3-0.6-4.2-2.3-4.9-4.7l-2.9-10.2
		c-0.5-1.7-0.3-3.6,0.6-5.2c0.7-1.3,1.8-2.2,3-2.8c0.5,1.1,0.9,2,1.2,2.8C232.5,114.7,234,123.2,233.4,127 M258.5,188.2
		c-0.9-5.8-2.6-13.4-4.5-21.5c-3-12.8-5.9-24.1-5.9-32.5c0-1.8,0-1.9,0.4-4.9c1.1-7.1-1.3-19.3-3.7-25.4
		c-4.5-11.8-22.7-34.3-27.2-38.4c-3.1-2.9-8-2.7-10.8,0.5c-2.9,3.1-2.6,8,0.5,10.8c5.9,5.4,11.1,12,15.2,18
		c-3.2,1.8-5.9,4.3-7.7,7.6c-2.6,4.6-3.2,9.9-1.8,15l2.9,10.2c2.3,8.2,9.5,13.7,17.5,14.4c1,8.2,3.3,17.4,5.8,28.1
		c1.8,7.8,3.5,15.1,4.2,20.3c1.1,7.8,1.6,10.8-2.9,17c-1.2,1.6-4.5,4.6-9.8,4.7c-4.1,0.1-6.6-1.2-8.8-2.8c-4.4-3.2-4.2-8.7-4.2-10.5
		c0.6-27.1,0.9-55.3-12.6-64.7c-3.8-2.6-8.4-3.3-11.8-3.1V79.5c0-11.8-9.6-21.4-21.4-21.4h-70.1c-11.8,0-21.4,9.6-21.4,21.4v147.9h0
		c-5.2,0-9.4,4.2-9.4,9.4c0,5.2,4.2,9.4,9.4,9.4h0.5c0,0,0.1,0,0.1,0h110.8c0,0,0.1,0,0.1,0h1.5c5.2,0,9.4-4.2,9.4-9.4
		c0-5.2-4.2-9.4-9.4-9.4h0v-80.7c0.7,0,1.3,0.1,1.8,0.4c3.6,2.4,9.3,4.2,7.4,50.1c-0.1,1.9-0.3,14.1,7.6,22.5
		c3.3,3.6,10,7.5,20.2,7.5c0.2,0,0.5,0,0.7,0c8.4-0.2,15.4-3.3,20.3-9.1C261,206.8,259.2,193.4,258.5,188.2"/>
</g>
</svg>
