<?xml version="1.0" encoding="utf-8"?>
<!-- Generator: Adobe Illustrator 26.3.1, SVG Export Plug-In . SVG Version: 6.00 Build 0)  -->
<svg version="1.1" id="Layer_1" xmlns="http://www.w3.org/2000/svg" xmlns:xlink="http://www.w3.org/1999/xlink" x="0px" y="0px"
	 viewBox="0 0 302.4 302.4" style="enable-background:new 0 0 302.4 302.4;" xml:space="preserve">
<metadata><?xpacket begin="﻿" id="W5M0MpCehiHzreSzNTczkc9d"?>
<x:xmpmeta xmlns:x="adobe:ns:meta/" x:xmptk="Adobe XMP Core 8.0-c001 1.000000, 0000/00/00-00:00:00        ">
   <rdf:RDF xmlns:rdf="http://www.w3.org/1999/02/22-rdf-syntax-ns#">
      <rdf:Description rdf:about=""
            xmlns:dc="http://purl.org/dc/elements/1.1/"
            xmlns:prism="http://prismstandard.org/namespaces/basic/2.1/"
            xmlns:tiff="http://ns.adobe.com/tiff/1.0/"
            xmlns:bsam="http://www.bsam.blog">
         <dc:modified>2025-09-09T17:11:50.905Z</dc:modified>
         <dc:format>image/svg+xml</dc:format>
         <prism:Date>2025-09-08T19:16:00.000+02:00</prism:Date>
         <tiff:ImageWidth>302</tiff:ImageWidth>
         <tiff:ImageLength>302</tiff:ImageLength>
         <bsam:rightsLimitedUnlimited>unlimited</bsam:rightsLimitedUnlimited>
         <bsam:subDigitalAssetType>
            <rdf:Bag>
               <rdf:li>enterprise:digital-asset-type/image/icon</rdf:li>
            </rdf:Bag>
         </bsam:subDigitalAssetType>
         <bsam:industry>
            <rdf:Bag>
               <rdf:li>enterprise:industry/generic-all-industries</rdf:li>
            </rdf:Bag>
         </bsam:industry>
         <bsam:assetOwner>
            <rdf:Bag>
               <rdf:li>enterprise:business-unit/webfleet</rdf:li>
            </rdf:Bag>
         </bsam:assetOwner>
         <bsam:usageCountry>
            <rdf:Bag>
               <rdf:li>enterprise:region-country/global</rdf:li>
            </rdf:Bag>
         </bsam:usageCountry>
      </rdf:Description>
   </rdf:RDF>
</x:xmpmeta>
                                                                                                    
                                                                                                    
                                                                                                    
                                                                                                    
                                                                                                    
                                                                                                    
                                                                                                    
                                                                                                    
                                                                                                    
                           
<?xpacket end="w"?></metadata>
<g>
	<g>
		<g>
			<path d="M165.2,93c-10.7-21.1-32.6-35.5-57.8-35.5c-35.8,0-64.8,29-64.8,64.8c0,35.8,29,64.9,64.8,64.9c8.3,0,16.2-1.6,23.4-4.4
				c-2.4-7.4-3.7-15.3-3.7-23.5C127.2,131.1,142.5,106.3,165.2,93z"/>
		</g>
		<path d="M142.2,205c-10.8,4.1-22.5,6.4-34.8,6.4c-22.1,0-42.5-7.4-59-19.8c-20,10-34.2,27-38.3,44.2l0,0h186
			C174,233.6,154.7,221.9,142.2,205z"/>
	</g>
	<g>
		<path d="M206.9,108.3c28.2,0,51.2,23,51.2,51.2s-23,51.2-51.2,51.2s-51.2-23-51.2-51.2S178.7,108.3,206.9,108.3 M206.9,94.7
			c-35.8,0-64.9,29-64.9,64.9s29,64.9,64.9,64.9s64.9-29,64.9-64.9S242.7,94.7,206.9,94.7L206.9,94.7z"/>
		<path d="M267.9,206.1c-6.2,3.2-11.2,8.3-14.5,14.5l21.3,21.3c2,2,4.6,3,7.2,3s5.2-1,7.2-3c4-4,4-10.5,0-14.5L267.9,206.1z"/>
	</g>
</g>
</svg>
