<?xml version="1.0" encoding="utf-8"?>
<!-- Generator: Adobe Illustrator 26.3.1, SVG Export Plug-In . SVG Version: 6.00 Build 0)  -->
<svg version="1.1" id="Layer_1" xmlns="http://www.w3.org/2000/svg" xmlns:xlink="http://www.w3.org/1999/xlink" x="0px" y="0px"
	 viewBox="0 0 302.4 302.4" style="enable-background:new 0 0 302.4 302.4;" xml:space="preserve">
<metadata><?xpacket begin="﻿" id="W5M0MpCehiHzreSzNTczkc9d"?>
<x:xmpmeta xmlns:x="adobe:ns:meta/" x:xmptk="Adobe XMP Core 8.0-c001 1.000000, 0000/00/00-00:00:00        ">
   <rdf:RDF xmlns:rdf="http://www.w3.org/1999/02/22-rdf-syntax-ns#">
      <rdf:Description rdf:about=""
            xmlns:bsam="http://www.bsam.blog"
            xmlns:tiff="http://ns.adobe.com/tiff/1.0/"
            xmlns:prism="http://prismstandard.org/namespaces/basic/2.1/"
            xmlns:dc="http://purl.org/dc/elements/1.1/">
         <bsam:rightsLimitedUnlimited>unlimited</bsam:rightsLimitedUnlimited>
         <bsam:assetOwner>
            <rdf:Bag>
               <rdf:li>enterprise:business-unit/webfleet</rdf:li>
            </rdf:Bag>
         </bsam:assetOwner>
         <bsam:industry>
            <rdf:Bag>
               <rdf:li>enterprise:industry/generic-all-industries</rdf:li>
            </rdf:Bag>
         </bsam:industry>
         <bsam:subDigitalAssetType>
            <rdf:Bag>
               <rdf:li>enterprise:digital-asset-type/image/icon</rdf:li>
            </rdf:Bag>
         </bsam:subDigitalAssetType>
         <bsam:usageCountry>
            <rdf:Bag>
               <rdf:li>enterprise:region-country/global</rdf:li>
            </rdf:Bag>
         </bsam:usageCountry>
         <tiff:ImageLength>302</tiff:ImageLength>
         <tiff:ImageWidth>302</tiff:ImageWidth>
         <prism:Date>2025-09-08T19:16:00.000+02:00</prism:Date>
         <dc:modified>2025-09-09T17:16:54.803Z</dc:modified>
         <dc:format>image/svg+xml</dc:format>
      </rdf:Description>
   </rdf:RDF>
</x:xmpmeta>
                                                                                                    
                                                                                                    
                                                                                                    
                                                                                                    
                                                                                                    
                                                                                                    
                                                                                                    
                                                                                                    
                                                                                                    
                                                                                                    
                                                                                                    
                                                                                                    
                                                                                                    
                                                                                                    
                                                                                                    
                                                                                                    
                                                                                                    
                                                                                                    
                                                                            
<?xpacket end="w"?></metadata>
<g>
	<path d="M110.9,177L110.9,177l-40,40.1c-6.5,6.5-6.5,17,0,23.5c3.2,3.2,7.5,4.9,11.7,4.9s8.5-1.6,11.7-4.9l40-40.1L110.9,177
		L110.9,177z"/>
	<path d="M179.3,156.4L179.3,156.4l-10.8-10.8l-18.9-18.9l0,0l-6.3-6.3l0,0l-5-5L86.1,63.3C82.2,59.4,76.9,57,71,57
		c-11.8,0-21.4,9.6-21.4,21.4c0,5.9,2.4,11.3,6.3,15.2l52.2,52.2l40.9,40.9l6.6-6.6l60.4,60.4c3,3,7.2,4.9,11.8,4.9
		c9.2,0,16.7-7.5,16.7-16.7c0-4.6-1.9-8.8-4.9-11.8L179.3,156.4z"/>
	<path d="M250.1,82.2l-29.8,28.4c-1.8,1.7-4.5,1.6-6.2-0.1c-1.7-1.7-1.8-4.5-0.1-6.2l28.7-30.1l-3.2-3.2l0,0l-3.2-3.2l-29.1,27.7
		l-1,1c-1.8,1.7-4.5,1.6-6.2-0.1c-1.7-1.7-1.8-4.5-0.1-6.2l28.4-29.8c-6.3-4-15.1-3.8-20.5,1.6l-18.9,17.6c-0.4,0.4-0.8,0.8-1.3,1.2
		l-5.6,5.6c-7.5,7.5-10.2,18-8,27.7l-6.7,6.7l23.4,23.5l7.4-7.4c9.2,1.5,18.9-1.2,26-8.3l5.6-5.6c0.5-0.5,1-1,1.5-1.6l17.3-18.6
		C253.9,97.3,254.1,88.6,250.1,82.2z"/>
</g>
</svg>
