<?xml version="1.0" encoding="utf-8"?>
<!-- Generator: Adobe Illustrator 26.3.1, SVG Export Plug-In . SVG Version: 6.00 Build 0)  -->
<svg version="1.1" id="Layer_1" xmlns="http://www.w3.org/2000/svg" xmlns:xlink="http://www.w3.org/1999/xlink" x="0px" y="0px"
	 viewBox="0 0 302.4 302.4" style="enable-background:new 0 0 302.4 302.4;" xml:space="preserve">
<metadata><?xpacket begin="﻿" id="W5M0MpCehiHzreSzNTczkc9d"?>
<x:xmpmeta xmlns:x="adobe:ns:meta/" x:xmptk="Adobe XMP Core 8.0-c001 1.000000, 0000/00/00-00:00:00        ">
   <rdf:RDF xmlns:rdf="http://www.w3.org/1999/02/22-rdf-syntax-ns#">
      <rdf:Description rdf:about=""
            xmlns:dc="http://purl.org/dc/elements/1.1/"
            xmlns:prism="http://prismstandard.org/namespaces/basic/2.1/"
            xmlns:tiff="http://ns.adobe.com/tiff/1.0/"
            xmlns:bsam="http://www.bsam.blog">
         <dc:modified>2025-09-09T17:22:31.153Z</dc:modified>
         <dc:format>image/svg+xml</dc:format>
         <prism:Date>2025-09-08T19:16:00.000+02:00</prism:Date>
         <tiff:ImageWidth>302</tiff:ImageWidth>
         <tiff:ImageLength>302</tiff:ImageLength>
         <bsam:rightsLimitedUnlimited>unlimited</bsam:rightsLimitedUnlimited>
         <bsam:subDigitalAssetType>
            <rdf:Bag>
               <rdf:li>enterprise:digital-asset-type/image/icon</rdf:li>
            </rdf:Bag>
         </bsam:subDigitalAssetType>
         <bsam:industry>
            <rdf:Bag>
               <rdf:li>enterprise:industry/generic-all-industries</rdf:li>
            </rdf:Bag>
         </bsam:industry>
         <bsam:assetOwner>
            <rdf:Bag>
               <rdf:li>enterprise:business-unit/webfleet</rdf:li>
            </rdf:Bag>
         </bsam:assetOwner>
         <bsam:usageCountry>
            <rdf:Bag>
               <rdf:li>enterprise:region-country/global</rdf:li>
            </rdf:Bag>
         </bsam:usageCountry>
      </rdf:Description>
   </rdf:RDF>
</x:xmpmeta>
                                                                                                    
                                                                                                    
                                                                                                    
                                                                                                    
                                                                                                    
                                                                                                    
                                                                                                    
                                                                                                    
                                                                                                    
                                                                                                    
                                                                                                    
                                                                                                    
                                                                                                    
                                                                                                    
                                                                                                    
                                                                                                    
                                                                                                    
                                                                                                    
                                                                            
<?xpacket end="w"?></metadata>
<g>
	<path d="M151.2,57.8c49.2,0,89.2,39.7,89.2,88.4c0,34.1-20.2,65.6-51.4,80.1l-0.6,0.3l-0.3,0.1l-0.4,0.2
		c-23.3,11.4-67.2,18-98.4,18.3l18.1-19l-16.2-14.5c-18.7-16.8-29.4-40.6-29.4-65.5C62,97.4,102,57.8,151.2,57.8 M151.2,36.8
		c-60.9,0-110.2,49-110.2,109.4c0,32.2,14.1,61.1,36.4,81.2l-36.4,38l0.2,0.2c17,0.3,104.9,0.2,144.6-15.6c3.6-1.2,7.1-2.5,10.5-4.1
		c0.5-0.2,1-0.4,1.4-0.6c0,0,0.1-0.1,0.1-0.1c37.6-17.4,63.6-55.3,63.6-99.1C261.4,85.7,212.1,36.8,151.2,36.8L151.2,36.8z"/>
	<g>
		<path d="M136.3,138.2l1.4-1.2c17.5-1.5,23.7-5.7,23.7-12.1v-0.3c0-5.1-4.2-8.3-11.5-8.3c-7.1,0-14.8,3.6-22.1,10l-15.1-19.8
			c9.2-9.2,21.8-15.9,39.2-15.9c22.2,0,37.8,11.9,37.8,31.8v0.3c0,19-12.7,27.1-29.5,31.3l-1.8,9.7h-18.1L136.3,138.2z M133.9,172.4
			h29.8v25.7h-29.8V172.4z"/>
	</g>
</g>
</svg>
