<?xml version="1.0" encoding="utf-8"?>
<!-- Generator: Adobe Illustrator 26.3.1, SVG Export Plug-In . SVG Version: 6.00 Build 0)  -->
<svg version="1.1" id="Layer_1" xmlns="http://www.w3.org/2000/svg" xmlns:xlink="http://www.w3.org/1999/xlink" x="0px" y="0px"
	 viewBox="0 0 302.4 302.4" style="enable-background:new 0 0 302.4 302.4;" xml:space="preserve">
<metadata><?xpacket begin="﻿" id="W5M0MpCehiHzreSzNTczkc9d"?>
<x:xmpmeta xmlns:x="adobe:ns:meta/" x:xmptk="Adobe XMP Core 8.0-c001 1.000000, 0000/00/00-00:00:00        ">
   <rdf:RDF xmlns:rdf="http://www.w3.org/1999/02/22-rdf-syntax-ns#">
      <rdf:Description rdf:about=""
            xmlns:dc="http://purl.org/dc/elements/1.1/"
            xmlns:prism="http://prismstandard.org/namespaces/basic/2.1/"
            xmlns:tiff="http://ns.adobe.com/tiff/1.0/"
            xmlns:bsam="http://www.bsam.blog">
         <dc:modified>2025-09-09T17:11:49.449Z</dc:modified>
         <dc:format>image/svg+xml</dc:format>
         <prism:Date>2025-09-08T19:20:00.000+02:00</prism:Date>
         <tiff:ImageWidth>302</tiff:ImageWidth>
         <tiff:ImageLength>302</tiff:ImageLength>
         <bsam:rightsLimitedUnlimited>unlimited</bsam:rightsLimitedUnlimited>
         <bsam:subDigitalAssetType>
            <rdf:Bag>
               <rdf:li>enterprise:digital-asset-type/image/icon</rdf:li>
            </rdf:Bag>
         </bsam:subDigitalAssetType>
         <bsam:industry>
            <rdf:Bag>
               <rdf:li>enterprise:industry/generic-all-industries</rdf:li>
            </rdf:Bag>
         </bsam:industry>
         <bsam:assetOwner>
            <rdf:Bag>
               <rdf:li>enterprise:business-unit/webfleet</rdf:li>
            </rdf:Bag>
         </bsam:assetOwner>
         <bsam:usageCountry>
            <rdf:Bag>
               <rdf:li>enterprise:region-country/global</rdf:li>
            </rdf:Bag>
         </bsam:usageCountry>
      </rdf:Description>
   </rdf:RDF>
</x:xmpmeta>
                                                                                                    
                                                                                                    
                                                                                                    
                                                                                                    
                                                                                                    
                                                                                                    
                                                                                                    
                                                                                                    
                                                                                                    
                           
<?xpacket end="w"?></metadata>
<g>
	<g>
		<path d="M151.2,256.2c-57.9,0-105-47.1-105-105s47.1-105,105-105s105,47.1,105,105S209.1,256.2,151.2,256.2z M104.1,210.1
			c10.1,22.4,25.9,37.4,43.7,39.1V217C132.4,216.7,117.5,214.3,104.1,210.1z M154.6,217v32.2c17.8-1.7,33.6-16.7,43.7-39.1
			C184.9,214.3,170,216.7,154.6,217z M207,207c-2.5,6.4-5.4,12.3-8.8,17.8c-4.9,8.1-10.6,14.7-16.7,19.7c29.7-9.7,53.3-33.2,63-63
			c-5,6.1-11.7,11.7-19.7,16.7C219.3,201.6,213.4,204.5,207,207z M57.9,181.6c9.7,29.7,33.2,53.3,63,63c-6.1-5-11.7-11.7-16.7-19.7
			c-3.4-5.5-6.3-11.4-8.8-17.8c-6.4-2.5-12.3-5.4-17.8-8.8C69.5,193.3,62.9,187.7,57.9,181.6z M154.6,154.6v55.5
			c17.2-0.4,33.2-3.4,47.1-8.4c5-13.9,8-29.9,8.4-47.1L154.6,154.6L154.6,154.6z M100.7,201.7c13.8,5,29.9,8,47.1,8.4v-55.5H92.3
			C92.7,171.8,95.7,187.9,100.7,201.7z M217,154.6c-0.3,15.4-2.7,30.2-6.9,43.7c22.4-10.1,37.4-25.9,39.1-43.7H217z M53.2,154.6
			c1.7,17.8,16.7,33.6,39.1,43.7c-4.2-13.4-6.6-28.3-6.9-43.7H53.2z M217,147.8h32.2c-1.7-17.8-16.7-33.6-39.1-43.7
			C214.3,117.5,216.7,132.4,217,147.8z M154.6,147.8h55.5c-0.4-17.2-3.4-33.2-8.4-47.1c-13.9-5-29.9-8-47.1-8.4V147.8z M92.3,147.8
			h55.5V92.3c-17.2,0.4-33.2,3.4-47.1,8.4C95.7,114.5,92.7,130.6,92.3,147.8z M53.2,147.8h32.2c0.3-15.4,2.7-30.2,6.9-43.7
			C69.9,114.2,54.9,129.9,53.2,147.8z M207,95.4c6.4,2.5,12.3,5.4,17.8,8.8c8.1,4.9,14.7,10.6,19.7,16.7c-9.7-29.7-33.2-53.3-63-63
			c6.1,5,11.7,11.7,16.7,19.7C201.6,83.1,204.5,89,207,95.4z M120.8,57.9c-29.7,9.7-53.3,33.2-63,63c5-6.1,11.7-11.7,19.7-16.7
			c5.5-3.4,11.4-6.3,17.8-8.8c2.5-6.4,5.4-12.3,8.8-17.8C109.1,69.5,114.7,62.9,120.8,57.9z M147.8,53.2
			c-17.8,1.7-33.6,16.7-43.7,39.1c13.4-4.2,28.3-6.6,43.7-6.9V53.2z M154.6,85.4c15.4,0.3,30.2,2.7,43.7,6.9
			c-10.1-22.4-25.9-37.4-43.7-39.1V85.4z"/>
	</g>
</g>
</svg>
