<?xml version="1.0" encoding="utf-8"?>
<!-- Generator: Adobe Illustrator 26.3.1, SVG Export Plug-In . SVG Version: 6.00 Build 0)  -->
<svg version="1.1" id="Layer_1" xmlns="http://www.w3.org/2000/svg" xmlns:xlink="http://www.w3.org/1999/xlink" x="0px" y="0px"
	 viewBox="0 0 302.4 302.4" style="enable-background:new 0 0 302.4 302.4;" xml:space="preserve">
<metadata><?xpacket begin="﻿" id="W5M0MpCehiHzreSzNTczkc9d"?>
<x:xmpmeta xmlns:x="adobe:ns:meta/" x:xmptk="Adobe XMP Core 8.0-c001 1.000000, 0000/00/00-00:00:00        ">
   <rdf:RDF xmlns:rdf="http://www.w3.org/1999/02/22-rdf-syntax-ns#">
      <rdf:Description rdf:about=""
            xmlns:dc="http://purl.org/dc/elements/1.1/"
            xmlns:prism="http://prismstandard.org/namespaces/basic/2.1/"
            xmlns:tiff="http://ns.adobe.com/tiff/1.0/"
            xmlns:bsam="http://www.bsam.blog">
         <dc:modified>2025-09-09T17:14:10.993Z</dc:modified>
         <dc:format>image/svg+xml</dc:format>
         <prism:Date>2025-09-08T19:20:00.000+02:00</prism:Date>
         <tiff:ImageWidth>302</tiff:ImageWidth>
         <tiff:ImageLength>302</tiff:ImageLength>
         <bsam:rightsLimitedUnlimited>unlimited</bsam:rightsLimitedUnlimited>
         <bsam:subDigitalAssetType>
            <rdf:Bag>
               <rdf:li>enterprise:digital-asset-type/image/icon</rdf:li>
            </rdf:Bag>
         </bsam:subDigitalAssetType>
         <bsam:industry>
            <rdf:Bag>
               <rdf:li>enterprise:industry/generic-all-industries</rdf:li>
            </rdf:Bag>
         </bsam:industry>
         <bsam:assetOwner>
            <rdf:Bag>
               <rdf:li>enterprise:business-unit/webfleet</rdf:li>
            </rdf:Bag>
         </bsam:assetOwner>
         <bsam:usageCountry>
            <rdf:Bag>
               <rdf:li>enterprise:region-country/global</rdf:li>
            </rdf:Bag>
         </bsam:usageCountry>
      </rdf:Description>
   </rdf:RDF>
</x:xmpmeta>
                                                                                                    
                                                                                                    
                                                                                                    
                                                                                                    
                                                                                                    
                                                                                                    
                                                                                                    
                                                                                                    
                                                                                                    
                           
<?xpacket end="w"?></metadata>
<path d="M245.6,150.7c-0.2-5.3-0.6-10.6-1.5-15.9c-0.1-0.9-0.5-1-1.3-1c-29.6,0-59.2,0-88.7,0c-0.8,0-1.1,0.1-1.1,1.1
	c0,11.7,0,23.4,0,35c0,0.9,0.3,1.1,1.1,1c7.6,0,15.2,0,22.9,0c9,0,18.1,0,27.1,0c0.5,0,1-0.2,0.8,0.7c-1.6,7.8-4.9,14.6-10.1,20.6
	c-2.6,3.1-5.7,5.6-9,8c-1.3,0.8-2.7,1.7-4,2.4c-8.3,4.5-17.3,6.4-26.6,6.7c-6.9,0.2-13.7-0.7-20.2-3c-15-5.4-25.9-15.4-33-29.5
	c-1.2-2.3-2-4.7-3-7.1c-0.7-2.5-1.5-5-2-7.6c-1.2-6.2-1.4-12.4-0.5-18.7c0.5-3.7,1.4-7.2,2.5-10.8c0.1-0.2,0.2-0.5,0.3-0.7
	c5.1-14,14-24.9,27.1-32.1c11.8-6.5,24.3-8.4,37.5-5.9c9.7,1.8,18.2,6.2,25.5,12.9c0.4,0.4,0.7,0.6,1.2,0
	c8.8-8.8,17.5-17.6,26.3-26.3c0.1-0.1,0.2-0.2,0.3-0.3c0.4-0.3,0.3-0.5,0-0.7c-0.7-0.6-1.3-1.2-2-1.8C199.2,64,180.8,56.4,159.9,55
	c-0.4-0.2-0.8,0.1-1.1-0.2h-0.9c-0.6,0.2-1.1,0.2-1.7,0h-4.9c-0.3,0.2-0.7,0-1,0.1c-0.4,0-0.8,0-1.2,0c-0.4,0-0.8,0.1-1.2-0.1h-0.2
	c-1.2,0.2-2.5,0.1-3.7,0.2c-4.6,0.4-9.1,1.2-13.6,2.3c-10.1,2.5-19.5,6.5-28.3,11.9c-8.1,5-15.2,11.2-21.5,18.3
	c-4.4,5-8.3,10.5-11.5,16.3c-0.7,1.3-1.6,2.5-2,4c0,0.1,0,0.1,0.1,0.2c-1.4,2.6-2.5,5.2-3.6,7.9c-4.1,10.4-6.2,21.1-6.6,32.3
	c0,0-0.1,0-0.2,0v1.7v2.6v1.5l0.1,0h0.1c0.3,7.9,1.5,15.7,3.6,23.4c1.7,5.8,3.8,11.5,6.6,16.9c0,0.1-0.1,0.1-0.1,0.1
	c0.4,1.6,1.3,2.9,2.1,4.3c5.9,10.4,13.4,19.4,22.6,26.9c6.6,5.5,13.9,10,21.8,13.5c6.3,2.8,12.7,5,19.5,6.4c4.8,1,9.7,1.8,14.6,1.8
	c0.3,0,0.6,0,0.9,0c0.4,0,0.8-0.1,1.1,0.1h0.6c0.4-0.2,0.9-0.2,1.3,0h2.3c0.7-0.2,1.4-0.2,2.1,0h0.6c0.5-0.2,1-0.2,1.5,0h1.3
	c0.1-0.1,0.2-0.1,0.4-0.1c4.1,0,8.1-0.5,12.1-1.2c8.9-1.5,17.4-4.1,25.5-8.1c6.4-3.1,12.3-6.9,17.7-11.5c0.9-0.7,1.9-1.3,2.4-2.4
	c0-0.1,0-0.1,0-0.1c2.4-2.1,4.6-4.4,6.6-6.8c9.4-11,15.6-23.7,19-37.7c1.9-7.7,2.8-15.5,3-23.5l0.1,0l0.1,0v-5.5
	C245.7,150.7,245.7,150.7,245.6,150.7"/>
</svg>
