<?xml version="1.0" encoding="utf-8"?>
<!-- Generator: Adobe Illustrator 26.3.1, SVG Export Plug-In . SVG Version: 6.00 Build 0)  -->
<svg version="1.1" id="Layer_1" xmlns="http://www.w3.org/2000/svg" xmlns:xlink="http://www.w3.org/1999/xlink" x="0px" y="0px"
	 viewBox="0 0 302.4 302.4" style="enable-background:new 0 0 302.4 302.4;" xml:space="preserve">
<metadata><?xpacket begin="﻿" id="W5M0MpCehiHzreSzNTczkc9d"?>
<x:xmpmeta xmlns:x="adobe:ns:meta/" x:xmptk="Adobe XMP Core 8.0-c001 1.000000, 0000/00/00-00:00:00        ">
   <rdf:RDF xmlns:rdf="http://www.w3.org/1999/02/22-rdf-syntax-ns#">
      <rdf:Description rdf:about=""
            xmlns:dc="http://purl.org/dc/elements/1.1/"
            xmlns:prism="http://prismstandard.org/namespaces/basic/2.1/"
            xmlns:tiff="http://ns.adobe.com/tiff/1.0/"
            xmlns:bsam="http://www.bsam.blog">
         <dc:modified>2025-09-09T17:20:27.317Z</dc:modified>
         <dc:format>image/svg+xml</dc:format>
         <prism:Date>2025-09-08T19:20:00.000+02:00</prism:Date>
         <tiff:ImageWidth>302</tiff:ImageWidth>
         <tiff:ImageLength>302</tiff:ImageLength>
         <bsam:rightsLimitedUnlimited>unlimited</bsam:rightsLimitedUnlimited>
         <bsam:subDigitalAssetType>
            <rdf:Bag>
               <rdf:li>enterprise:digital-asset-type/image/icon</rdf:li>
            </rdf:Bag>
         </bsam:subDigitalAssetType>
         <bsam:industry>
            <rdf:Bag>
               <rdf:li>enterprise:industry/generic-all-industries</rdf:li>
            </rdf:Bag>
         </bsam:industry>
         <bsam:assetOwner>
            <rdf:Bag>
               <rdf:li>enterprise:business-unit/webfleet</rdf:li>
            </rdf:Bag>
         </bsam:assetOwner>
         <bsam:usageCountry>
            <rdf:Bag>
               <rdf:li>enterprise:region-country/global</rdf:li>
            </rdf:Bag>
         </bsam:usageCountry>
      </rdf:Description>
   </rdf:RDF>
</x:xmpmeta>
                                                                                                    
                                                                                                    
                                                                                                    
                                                                                                    
                                                                                                    
                                                                                                    
                                                                                                    
                                                                                                    
                                                                                                    
                           
<?xpacket end="w"?></metadata>
<g>
	<g>
		<g>
			<g>
				<path d="M114,136.7L114,136.7c-1.7,0-3.2-0.7-4.5-2c-18.5-19.5-18.6-49-0.1-68.5c1.2-1.3,2.8-2,4.5-2c2.5,0,4.9,1.6,6,4.1
					c1,2.3,0.5,5-1.2,6.9c-13.7,14.4-13.6,36.2,0.1,50.6c1.8,1.9,2.3,4.5,1.3,6.9C118.9,135,116.5,136.7,114,136.7z"/>
			</g>
		</g>
		<g>
			<g>
				<path d="M96.8,153.9L96.8,153.9c-1.7,0-3.2-0.7-4.4-1.9c-27.9-28.9-28-74.1-0.1-103c1.2-1.3,2.8-2,4.4-2c2.6,0,5,1.7,6,4.1
					c1,2.3,0.5,5-1.3,6.8c-23,23.9-23,61.2,0.1,85c1.8,1.9,2.3,4.5,1.3,6.9C101.8,152.2,99.3,153.9,96.8,153.9z"/>
			</g>
		</g>
	</g>
	<g>
		<g>
			<g>
				<path d="M182.4,132.6c-1-2.4-0.5-5,1.3-6.9c13.7-14.4,13.7-36.2,0.1-50.6c-1.8-1.9-2.3-4.5-1.2-6.9c1.1-2.4,3.5-4.1,6-4.1
					c1.7,0,3.2,0.7,4.5,2c18.5,19.6,18.5,49-0.1,68.5c-1.2,1.3-2.8,2-4.5,2l0,0C185.9,136.7,183.5,135,182.4,132.6z"/>
			</g>
		</g>
		<g>
			<g>
				<path d="M199.6,149.8c-1-2.4-0.5-5,1.3-6.9c23.1-23.8,23.1-61.2,0.1-85c-1.8-1.9-2.3-4.5-1.3-6.8c1.1-2.5,3.5-4.1,6-4.1
					c1.6,0,3.2,0.7,4.4,2c27.9,28.9,27.8,74.2-0.1,103c-1.2,1.3-2.8,1.9-4.4,1.9l0,0C203.1,153.9,200.6,152.2,199.6,149.8z"/>
			</g>
		</g>
	</g>
	<path d="M167.1,135.6h-34.9L95.8,250.5c-0.5,1.6,0.2,3.4,1.8,4.3c0.8,0.4,1.6,0.7,2.5,0.7c1,0,2-0.3,2.8-0.9l47.5-32.8l46.9,32.8
		c1.5,1.1,3.7,1.1,5.3,0.2c1.6-0.9,2.4-2.7,1.8-4.4L167.1,135.6z M169.7,172.4l5.5,16.9l-16.9-10.1L169.7,172.4z M150.2,174.4
		l-9.2-5.5h18.5L150.2,174.4z M138.9,143.8l21.5,0.3L166,161h-32.5L138.9,143.8z M130,171.8l12.2,7.3l-17.8,10.6L130,171.8z
		 M108.1,240.9l12.7-39.9l22.4,15.7L108.1,240.9z M128.8,196.6l21.4-12.7l21.7,13l-21.5,14.8L128.8,196.6z M157.6,216.8l21.6-14.9
		l12.7,38.9L157.6,216.8z"/>
	<circle cx="150.9" cy="100.4" r="21.8"/>
</g>
</svg>
