<?xml version="1.0" encoding="utf-8"?>
<!-- Generator: Adobe Illustrator 26.3.1, SVG Export Plug-In . SVG Version: 6.00 Build 0)  -->
<svg version="1.1" id="Layer_1" xmlns="http://www.w3.org/2000/svg" xmlns:xlink="http://www.w3.org/1999/xlink" x="0px" y="0px"
	 viewBox="0 0 302.4 302.4" style="enable-background:new 0 0 302.4 302.4;" xml:space="preserve">
<metadata><?xpacket begin="﻿" id="W5M0MpCehiHzreSzNTczkc9d"?>
<x:xmpmeta xmlns:x="adobe:ns:meta/" x:xmptk="Adobe XMP Core 8.0-c001 1.000000, 0000/00/00-00:00:00        ">
   <rdf:RDF xmlns:rdf="http://www.w3.org/1999/02/22-rdf-syntax-ns#">
      <rdf:Description rdf:about=""
            xmlns:dc="http://purl.org/dc/elements/1.1/"
            xmlns:prism="http://prismstandard.org/namespaces/basic/2.1/"
            xmlns:tiff="http://ns.adobe.com/tiff/1.0/"
            xmlns:bsam="http://www.bsam.blog">
         <dc:modified>2025-09-09T17:20:57.398Z</dc:modified>
         <dc:format>image/svg+xml</dc:format>
         <prism:Date>2025-09-08T19:20:00.000+02:00</prism:Date>
         <tiff:ImageWidth>302</tiff:ImageWidth>
         <tiff:ImageLength>302</tiff:ImageLength>
         <bsam:rightsLimitedUnlimited>unlimited</bsam:rightsLimitedUnlimited>
         <bsam:subDigitalAssetType>
            <rdf:Bag>
               <rdf:li>enterprise:digital-asset-type/image/icon</rdf:li>
            </rdf:Bag>
         </bsam:subDigitalAssetType>
         <bsam:industry>
            <rdf:Bag>
               <rdf:li>enterprise:industry/generic-all-industries</rdf:li>
            </rdf:Bag>
         </bsam:industry>
         <bsam:assetOwner>
            <rdf:Bag>
               <rdf:li>enterprise:business-unit/webfleet</rdf:li>
            </rdf:Bag>
         </bsam:assetOwner>
         <bsam:usageCountry>
            <rdf:Bag>
               <rdf:li>enterprise:region-country/global</rdf:li>
            </rdf:Bag>
         </bsam:usageCountry>
      </rdf:Description>
   </rdf:RDF>
</x:xmpmeta>
                                                                                                    
                                                                                                    
                                                                                                    
                                                                                                    
                                                                                                    
                                                                                                    
                                                                                                    
                                                                                                    
                                                                                                    
                                                                                                    
                                                                                                    
                                                                                                    
                                                                                                    
                                                                                                    
                                                                                                    
                                                                                                    
                                                                                                    
                                                                                                    
                                                                            
<?xpacket end="w"?></metadata>
<g>
	<g>
		<g>
			<path d="M130,46.4c-51.1,0-92.7,41.6-92.7,92.7c0,46.9,34.9,86.3,81.4,92c0.1-0.3,0.2-0.5,0.3-0.8c-1.9-1.2-5.7-4.1-8.2-6.4
				l-0.7-0.7c-7.5-6.8-11.2-10.2-13.8-21.5c-0.7-2.9-0.9-6.1-0.6-9.4c-0.1-0.1-0.1-0.2-0.2-0.3l-0.8-1.7l1.1,0.3
				c0.4-3.1,1.3-6.3,2.7-9.5c-2.8-0.6-5.3-1.3-7.6-2l-0.5-0.1l-0.1-0.5c-3.1-10.3-5-21.5-5.4-33.4l0-0.9h40.3v6.1
				c9.4-7,19.2-12.2,30.4-16H135V94.1l0.9,0c11.8,0.5,23,2.3,33.3,5.4l0.5,0.1l0.1,0.5c2.7,8.9,4.4,18.7,5.1,29.1
				c2-0.4,3.8-0.7,5.6-1c0.9-0.2,2.3-0.3,4.3-0.6c-0.6-7.6-1.7-15-3.3-21.9l-0.4-1.8l1.7,0.8c3.2,1.5,5.8,2.8,8,4.2
				c5.9,3.6,13.9,9.4,18.5,17.5c1.4,0,2.7,0,3.8,0h0c2.7,0,5.4,0.1,8.7,0.2C215.6,80.8,176.4,46.4,130,46.4z M99,216l-3.4-1.6
				c-18.1-8.3-32.6-22.8-40.9-40.8l-1.6-3.5l3,2.4c7.2,5.7,16,10.4,26.1,14.1l0.4,0.1l0.2,0.4c3.7,10.1,8.3,18.8,13.9,25.9L99,216z
				 M79,174.6l-1.7-0.8c-3.1-1.4-5.6-2.8-7.8-4.1c-6.7-4-18.3-12.5-21.4-24.5l-0.3-1.1h27.1l0,0.9c0.3,9.5,1.6,18.9,3.7,27.8
				L79,174.6z M125.1,134.2H84.8l0-0.9c0.5-11.7,2.3-22.9,5.4-33.1l0.1-0.5l0.5-0.1c10.3-3.2,21.5-5,33.3-5.5l0.9,0L125.1,134.2
				L125.1,134.2z M74.9,134.2h-27l0.3-1.1c3.2-11.8,14.7-20.3,21.3-24.2c2.2-1.3,4.7-2.6,7.7-4.1l1.7-0.8l-0.4,1.8
				c-2,8.8-3.2,18.1-3.6,27.6L74.9,134.2z M52.9,108.6l1.6-3.4c8.3-18.4,23-33.1,41.3-41.4l3.4-1.6l-2.3,3
				c-5.7,7.2-10.5,16.1-14.2,26.4l-0.2,0.4l-0.4,0.2c-10.2,3.7-19,8.5-26.2,14.2L52.9,108.6z M206.9,108.3l-3-2.3
				c-7.2-5.6-16-10.3-26.1-14l-0.4-0.2l-0.1-0.4c-3.7-10.2-8.4-19.1-14.1-26.3l-2.4-3l3.4,1.6c18.2,8.3,32.8,22.9,41.1,41.1
				L206.9,108.3z M94.6,88.3l0.8-1.7c1.5-3.2,2.8-5.8,4.2-8.1c4-6.7,12.5-18.3,24.4-21.4l1.1-0.3v27.3l-0.9,0
				c-9.6,0.4-18.9,1.6-27.8,3.7L94.6,88.3z M165.4,88.2l-1.8-0.4c-8.9-2.1-18.2-3.3-27.7-3.6l-0.9,0V56.9l1.1,0.3
				c11.9,3.1,20.4,14.7,24.3,21.4c1.4,2.3,2.7,4.8,4.2,8L165.4,88.2z"/>
		</g>
	</g>
	<path d="M211.4,134.6c-8.4-0.2-25.4,0.9-29.5,1.7c-26.9,4.5-43.8,12.7-61.6,29.7c-10.8,10.4-17.3,24.4-14.5,36.2
		c2.4,10.4,8.6,14.1,16.2,22.5c8.6-20.5,24.1-40.3,59.6-57.8c28.4-14.5,69.9-17.9,100-6.7c0.6,1.4-25.4-9.1-59.7-2.4
		c-33.8,5.5-75.9,28.2-93.7,68.8c-4.7,9.9-6.5,24.2-6.2,35.3c-0.3,21.2,11.2,4.7,11.4,4.7c0,0-3.3-9,0.8-26.7
		c0.2,0.4,0.5,0.8,0.7,1.2c15.4,24.5,51.2,29.2,70.8,10.4c13.3-12.9,22.8-29.2,36-45.1c13.5-16.3,32-31.9,54.3-43.4
		C277.7,145.2,244.7,134.6,211.4,134.6z"/>
</g>
</svg>
