<?xml version="1.0" encoding="utf-8"?>
<!-- Generator: Adobe Illustrator 26.3.1, SVG Export Plug-In . SVG Version: 6.00 Build 0)  -->
<svg version="1.1" id="Layer_1" xmlns="http://www.w3.org/2000/svg" xmlns:xlink="http://www.w3.org/1999/xlink" x="0px" y="0px"
	 viewBox="0 0 302.4 302.4" style="enable-background:new 0 0 302.4 302.4;" xml:space="preserve">
<metadata><?xpacket begin="﻿" id="W5M0MpCehiHzreSzNTczkc9d"?>
<x:xmpmeta xmlns:x="adobe:ns:meta/" x:xmptk="Adobe XMP Core 8.0-c001 1.000000, 0000/00/00-00:00:00        ">
   <rdf:RDF xmlns:rdf="http://www.w3.org/1999/02/22-rdf-syntax-ns#">
      <rdf:Description rdf:about=""
            xmlns:dc="http://purl.org/dc/elements/1.1/"
            xmlns:prism="http://prismstandard.org/namespaces/basic/2.1/"
            xmlns:tiff="http://ns.adobe.com/tiff/1.0/"
            xmlns:bsam="http://www.bsam.blog">
         <dc:modified>2025-09-09T17:13:18.656Z</dc:modified>
         <dc:format>image/svg+xml</dc:format>
         <prism:Date>2025-09-08T19:20:00.000+02:00</prism:Date>
         <tiff:ImageWidth>302</tiff:ImageWidth>
         <tiff:ImageLength>302</tiff:ImageLength>
         <bsam:rightsLimitedUnlimited>unlimited</bsam:rightsLimitedUnlimited>
         <bsam:subDigitalAssetType>
            <rdf:Bag>
               <rdf:li>enterprise:digital-asset-type/image/icon</rdf:li>
            </rdf:Bag>
         </bsam:subDigitalAssetType>
         <bsam:industry>
            <rdf:Bag>
               <rdf:li>enterprise:industry/generic-all-industries</rdf:li>
            </rdf:Bag>
         </bsam:industry>
         <bsam:assetOwner>
            <rdf:Bag>
               <rdf:li>enterprise:business-unit/webfleet</rdf:li>
            </rdf:Bag>
         </bsam:assetOwner>
         <bsam:usageCountry>
            <rdf:Bag>
               <rdf:li>enterprise:region-country/global</rdf:li>
            </rdf:Bag>
         </bsam:usageCountry>
      </rdf:Description>
   </rdf:RDF>
</x:xmpmeta>
                                                                                                    
                                                                                                    
                                                                                                    
                                                                                                    
                                                                                                    
                                                                                                    
                                                                                                    
                                                                                                    
                                                                                                    
                           
<?xpacket end="w"?></metadata>
<g>
	<g>
		<path d="M80.2,206.5c-3.2,0-6.2-1.4-8.5-3.9c-2.5-2.7-3.8-6.3-3.8-10.1v0c0.7-6.3,6.1-11.2,12.6-11.2h52.1
			c4.6-34.1,33.8-60.4,69.2-60.4V40H80.2c-14.7,0-26.7,12.7-26.7,28.4v124.1c0,15.6,12,28.4,26.7,28.4h58.5c-2.2-4.5-3.9-9.3-5-14.3
			L80.2,206.5L80.2,206.5z M149.1,96.8L168.5,75h-18.7v-9h33.4v7.7l-19.3,21.8h19.3v9h-34L149.1,96.8L149.1,96.8z M126.1,82.7h18.1
			v9.1h-18.1C126.1,91.9,126.1,82.7,126.1,82.7z M97.6,65.7h10.3l16.4,38.8h-11.4l-2.8-6.9H95.2l-2.8,6.9H81.2L97.6,65.7z"/>
		<polygon points="102.6,78.4 98.3,89.3 106.9,89.3 		"/>
	</g>
	<g>
		<path d="M200.9,143.1c26.1,0,47.3,21.2,47.3,47.3s-21.2,47.3-47.3,47.3s-47.3-21.2-47.3-47.3S174.8,143.1,200.9,143.1
			 M200.9,130.4c-33.1,0-59.9,26.8-59.9,59.9s26.8,59.9,59.9,59.9s60-26.8,60-59.9S234,130.4,200.9,130.4L200.9,130.4z"/>
		<path d="M257.3,233.4c-5.7,3-10.4,7.7-13.4,13.4l19.7,19.7c1.9,1.9,4.3,2.8,6.7,2.8s4.9-0.9,6.7-2.8c3.7-3.7,3.7-9.7,0-13.4
			L257.3,233.4z"/>
	</g>
</g>
</svg>
