<?xml version="1.0" encoding="utf-8"?>
<!-- Generator: Adobe Illustrator 26.3.1, SVG Export Plug-In . SVG Version: 6.00 Build 0)  -->
<svg version="1.1" id="Layer_1" xmlns="http://www.w3.org/2000/svg" xmlns:xlink="http://www.w3.org/1999/xlink" x="0px" y="0px"
	 viewBox="0 0 302.4 302.4" style="enable-background:new 0 0 302.4 302.4;" xml:space="preserve">
<metadata><?xpacket begin="﻿" id="W5M0MpCehiHzreSzNTczkc9d"?>
<x:xmpmeta xmlns:x="adobe:ns:meta/" x:xmptk="Adobe XMP Core 8.0-c001 1.000000, 0000/00/00-00:00:00        ">
   <rdf:RDF xmlns:rdf="http://www.w3.org/1999/02/22-rdf-syntax-ns#">
      <rdf:Description rdf:about=""
            xmlns:dc="http://purl.org/dc/elements/1.1/"
            xmlns:prism="http://prismstandard.org/namespaces/basic/2.1/"
            xmlns:tiff="http://ns.adobe.com/tiff/1.0/"
            xmlns:bsam="http://www.bsam.blog">
         <dc:modified>2025-09-09T17:10:20.561Z</dc:modified>
         <dc:format>image/svg+xml</dc:format>
         <prism:Date>2025-09-08T19:20:00.000+02:00</prism:Date>
         <tiff:ImageWidth>302</tiff:ImageWidth>
         <tiff:ImageLength>302</tiff:ImageLength>
         <bsam:rightsLimitedUnlimited>unlimited</bsam:rightsLimitedUnlimited>
         <bsam:subDigitalAssetType>
            <rdf:Bag>
               <rdf:li>enterprise:digital-asset-type/image/icon</rdf:li>
            </rdf:Bag>
         </bsam:subDigitalAssetType>
         <bsam:industry>
            <rdf:Bag>
               <rdf:li>enterprise:industry/generic-all-industries</rdf:li>
            </rdf:Bag>
         </bsam:industry>
         <bsam:assetOwner>
            <rdf:Bag>
               <rdf:li>enterprise:business-unit/webfleet</rdf:li>
            </rdf:Bag>
         </bsam:assetOwner>
         <bsam:usageCountry>
            <rdf:Bag>
               <rdf:li>enterprise:region-country/global</rdf:li>
            </rdf:Bag>
         </bsam:usageCountry>
      </rdf:Description>
   </rdf:RDF>
</x:xmpmeta>
                                                                                                    
                                                                                                    
                                                                                                    
                                                                                                    
                                                                                                    
                                                                                                    
                                                                                                    
                                                                                                    
                                                                                                    
                           
<?xpacket end="w"?></metadata>
<g>
	<path d="M105,179.2c-5.6,0-11.2-1.5-16.9-4.6l-1,13.6c6,3.2,13.7,4.1,19.4,4.1c20.7,0,33.5-12.4,33.5-31.4
		c0-17.5-9.2-29.6-27.5-29.6c-2.9,0-5.7,0.4-8.2,1.3l0.7-21.9h30.6v-13H90.3L89.2,146c4.9-1.5,9.4-2.5,14.8-2.5c12.2,0,19,6,19,17.8
		C123,173.1,115.8,179.2,105,179.2z"/>
	<path d="M152.6,144.2c0,16.6,2.5,38.3,17.6,45.8c3.1,1.5,6.7,2.2,10.9,2.2c24.2,0,28.4-28.5,28.4-48.1c0-18.9-3.1-48.1-28.4-48.1
		C156.7,96.1,152.6,126,152.6,144.2z M193.3,144.2c0,16.6-0.6,35.5-12.2,35.5c-2.8,0-5-1-6.7-3.1c-4.8-6.1-5.6-19-5.6-32.4
		c0-16.9,1.1-35.5,12.3-35.5C192.8,108.7,193.3,127.7,193.3,144.2z"/>
	<path d="M264,184.3c-0.6-1.7-1.7-2.1-2.5-2.1c-1.1,0-2.6,0.7-4.2,2.1c-9.7,8.4-24.7,9.9-40.6,11.4c-11.9,1.2-24.2,2.4-36.1,6.4
		c-25.1,8.4-24.6,27.1-21.8,37.9H83c-11.6,0-21-9.4-21-21V78.9c0-11.6,9.4-21,21-21h130.6c11.6,0,21,9.4,21,21v105.9l0.6-0.1
		c1.7-0.2,4-1,6.4-1.7c1.1-0.4,2.2-0.7,3.3-1l0.4-0.1v-103c0-17.4-14.2-31.6-31.6-31.6H83c-17.4,0-31.6,14.2-31.6,31.6v140.2
		c0,17.4,14.2,31.6,31.6,31.6h79.8c6.4,12.8,15.7,19.3,27.4,19.3c11.1,0,24.1-5.8,38.4-17.2C253.1,233.5,267.1,193.2,264,184.3z
		 M222.4,244.8c-12.4,9.8-23.5,15-32.1,15c-2.6,0-9.6,0-16-9.6h0.1c0,0,0-0.1-0.1-0.2c0.6-0.1,1.1-0.1,1.7-0.2
		c28-3.7,50.6-31.4,50.6-31.4s-24.4,18.4-57,22.1h-0.2c-1.5-4.4-3.2-11.6-0.5-17.7c2.2-4.8,7.1-8.6,14.8-11.1
		c10.9-3.6,22.6-4.8,33.9-5.9c12.3-1.2,24.1-2.4,34.3-6.6C247.6,212.7,237.3,233,222.4,244.8z"/>
</g>
</svg>
