<?xml version="1.0" encoding="utf-8"?>
<!-- Generator: Adobe Illustrator 26.3.1, SVG Export Plug-In . SVG Version: 6.00 Build 0)  -->
<svg version="1.1" id="Layer_1" xmlns="http://www.w3.org/2000/svg" xmlns:xlink="http://www.w3.org/1999/xlink" x="0px" y="0px"
	 viewBox="0 0 302.4 302.4" style="enable-background:new 0 0 302.4 302.4;" xml:space="preserve">
<metadata><?xpacket begin="﻿" id="W5M0MpCehiHzreSzNTczkc9d"?>
<x:xmpmeta xmlns:x="adobe:ns:meta/" x:xmptk="Adobe XMP Core 8.0-c001 1.000000, 0000/00/00-00:00:00        ">
   <rdf:RDF xmlns:rdf="http://www.w3.org/1999/02/22-rdf-syntax-ns#">
      <rdf:Description rdf:about=""
            xmlns:dc="http://purl.org/dc/elements/1.1/"
            xmlns:prism="http://prismstandard.org/namespaces/basic/2.1/"
            xmlns:tiff="http://ns.adobe.com/tiff/1.0/"
            xmlns:bsam="http://www.bsam.blog">
         <dc:modified>2025-09-09T17:11:17.274Z</dc:modified>
         <dc:format>image/svg+xml</dc:format>
         <prism:Date>2025-09-08T19:20:00.000+02:00</prism:Date>
         <tiff:ImageWidth>302</tiff:ImageWidth>
         <tiff:ImageLength>302</tiff:ImageLength>
         <bsam:rightsLimitedUnlimited>unlimited</bsam:rightsLimitedUnlimited>
         <bsam:subDigitalAssetType>
            <rdf:Bag>
               <rdf:li>enterprise:digital-asset-type/image/icon</rdf:li>
            </rdf:Bag>
         </bsam:subDigitalAssetType>
         <bsam:industry>
            <rdf:Bag>
               <rdf:li>enterprise:industry/generic-all-industries</rdf:li>
            </rdf:Bag>
         </bsam:industry>
         <bsam:assetOwner>
            <rdf:Bag>
               <rdf:li>enterprise:business-unit/webfleet</rdf:li>
            </rdf:Bag>
         </bsam:assetOwner>
         <bsam:usageCountry>
            <rdf:Bag>
               <rdf:li>enterprise:region-country/global</rdf:li>
            </rdf:Bag>
         </bsam:usageCountry>
      </rdf:Description>
   </rdf:RDF>
</x:xmpmeta>
                                                                                                    
                                                                                                    
                                                                                                    
                                                                                                    
                                                                                                    
                                                                                                    
                                                                                                    
                                                                                                    
                                                                                                    
                           
<?xpacket end="w"?></metadata>
<g>
	<g>
		<path d="M151.2,42.5c-59.9,0-108.7,48.8-108.7,108.7s48.8,108.7,108.7,108.7s108.7-48.8,108.7-108.7
			C259.9,91.2,211.1,42.5,151.2,42.5z M151.1,242c-50.1,0-90.8-40.7-90.8-90.8s40.7-90.8,90.8-90.8c50.1,0,90.8,40.7,90.8,90.8
			S201.2,242,151.1,242z"/>
	</g>
	<path d="M193.1,172.2c-23.1,21.3-60.7,21.3-83.8,0c-3.7-3.4-9.5-3.2-12.9,0.6c-3.4,3.7-3.2,9.6,0.5,13c15,13.8,34.7,20.7,54.3,20.7
		c19.7,0,39.4-6.9,54.3-20.7c3.7-3.4,4-9.2,0.5-13C202.6,169.1,196.8,168.8,193.1,172.2z"/>
	<path d="M118.2,142.6c7.2,0,13-5.8,13-13c0-7.2-5.8-13-13-13s-13,5.8-13,13C105.2,136.8,111,142.6,118.2,142.6z"/>
	<path d="M184.2,142.6c7.2,0,13-5.8,13-13c0-7.2-5.8-13-13-13s-13,5.8-13,13C171.2,136.8,177,142.6,184.2,142.6z"/>
</g>
</svg>
