<?xml version="1.0" encoding="utf-8"?>
<!-- Generator: Adobe Illustrator 26.4.1, SVG Export Plug-In . SVG Version: 6.00 Build 0)  -->
<svg version="1.1" id="Layer_2" xmlns="http://www.w3.org/2000/svg" xmlns:xlink="http://www.w3.org/1999/xlink" x="0px" y="0px"
	 viewBox="0 0 302.4 302.4" style="enable-background:new 0 0 302.4 302.4;" xml:space="preserve">
<metadata><?xpacket begin="﻿" id="W5M0MpCehiHzreSzNTczkc9d"?>
<x:xmpmeta xmlns:x="adobe:ns:meta/" x:xmptk="Adobe XMP Core 8.0-c001 1.000000, 0000/00/00-00:00:00        ">
   <rdf:RDF xmlns:rdf="http://www.w3.org/1999/02/22-rdf-syntax-ns#">
      <rdf:Description rdf:about=""
            xmlns:dc="http://purl.org/dc/elements/1.1/"
            xmlns:prism="http://prismstandard.org/namespaces/basic/2.1/"
            xmlns:tiff="http://ns.adobe.com/tiff/1.0/"
            xmlns:bsam="http://www.bsam.blog">
         <dc:modified>2025-09-09T17:26:04.514Z</dc:modified>
         <dc:format>image/svg+xml</dc:format>
         <prism:Date>2025-09-08T19:20:00.000+02:00</prism:Date>
         <tiff:ImageWidth>302</tiff:ImageWidth>
         <tiff:ImageLength>302</tiff:ImageLength>
         <bsam:rightsLimitedUnlimited>unlimited</bsam:rightsLimitedUnlimited>
         <bsam:subDigitalAssetType>
            <rdf:Bag>
               <rdf:li>enterprise:digital-asset-type/image/icon</rdf:li>
            </rdf:Bag>
         </bsam:subDigitalAssetType>
         <bsam:industry>
            <rdf:Bag>
               <rdf:li>enterprise:industry/generic-all-industries</rdf:li>
            </rdf:Bag>
         </bsam:industry>
         <bsam:assetOwner>
            <rdf:Bag>
               <rdf:li>enterprise:business-unit/webfleet</rdf:li>
            </rdf:Bag>
         </bsam:assetOwner>
         <bsam:usageCountry>
            <rdf:Bag>
               <rdf:li>enterprise:region-country/global</rdf:li>
            </rdf:Bag>
         </bsam:usageCountry>
      </rdf:Description>
   </rdf:RDF>
</x:xmpmeta>
                                                                                                    
                                                                                                    
                                                                                                    
                                                                                                    
                                                                                                    
                                                                                                    
                                                                                                    
                                                                                                    
                                                                                                    
                                                                                                    
                                                                                                    
                                                                                                    
                                                                                                    
                                                                                                    
                                                                                                    
                                                                                                    
                                                                                                    
                                                                                                    
                                                                            
<?xpacket end="w"?></metadata>
<path d="M259.7,133.8c-8.6-53.6-54.2-92.5-108.4-92.5c-5.8,0-11.8,0.5-17.6,1.4c-59.8,9.6-100.7,66.1-91,125.9
	c8.6,53.6,54.2,92.5,108.4,92.5c5.8,0,11.8-0.5,17.6-1.4C228.4,250.1,269.3,193.6,259.7,133.8z M245.8,133.8l-31.9,1.9
	c-3.7-15.1-12.5-27.9-24.4-36.6l15.2-28C225.7,85.1,240.9,107.3,245.8,133.8z M159.3,201.5c-2.7,0.4-5.4,0.6-8.1,0.6
	c-25.1,0-46.2-18-50.2-42.8c-2.2-13.4,1-26.9,9-37.9s19.8-18.3,33.2-20.4c2.7-0.4,5.4-0.7,8.1-0.7c25.1,0,46.2,18,50.2,42.8
	C205.9,170.8,187,197,159.3,201.5z M133.6,56.7l2,31.8c-14.8,3.7-27.8,12.3-36.8,24.8L70.7,98.5C84.7,77.3,106.9,61.6,133.6,56.7z
	 M56.5,168.2l31.8-1.9c3.6,14.9,12.1,27.5,23.6,36.2L97.3,231C76.4,216.9,61.3,194.7,56.5,168.2z M168.5,245.8l-1.8-31.9
	c15.2-3.8,28-12.7,36.7-24.7l28.3,14.5C217.7,225.1,195.4,240.9,168.5,245.8z"/>
</svg>
