<?xml version="1.0" encoding="utf-8"?>
<!-- Generator: Adobe Illustrator 26.3.1, SVG Export Plug-In . SVG Version: 6.00 Build 0)  -->
<svg version="1.1" id="Layer_1" xmlns="http://www.w3.org/2000/svg" xmlns:xlink="http://www.w3.org/1999/xlink" x="0px" y="0px"
	 viewBox="0 0 302.4 302.4" style="enable-background:new 0 0 302.4 302.4;" xml:space="preserve">
<metadata><?xpacket begin="﻿" id="W5M0MpCehiHzreSzNTczkc9d"?>
<x:xmpmeta xmlns:x="adobe:ns:meta/" x:xmptk="Adobe XMP Core 8.0-c001 1.000000, 0000/00/00-00:00:00        ">
   <rdf:RDF xmlns:rdf="http://www.w3.org/1999/02/22-rdf-syntax-ns#">
      <rdf:Description rdf:about=""
            xmlns:dc="http://purl.org/dc/elements/1.1/"
            xmlns:prism="http://prismstandard.org/namespaces/basic/2.1/"
            xmlns:tiff="http://ns.adobe.com/tiff/1.0/"
            xmlns:bsam="http://www.bsam.blog">
         <dc:modified>2025-09-09T17:12:51.361Z</dc:modified>
         <dc:format>image/svg+xml</dc:format>
         <prism:Date>2025-09-08T19:20:00.000+02:00</prism:Date>
         <tiff:ImageWidth>302</tiff:ImageWidth>
         <tiff:ImageLength>302</tiff:ImageLength>
         <bsam:rightsLimitedUnlimited>unlimited</bsam:rightsLimitedUnlimited>
         <bsam:subDigitalAssetType>
            <rdf:Bag>
               <rdf:li>enterprise:digital-asset-type/image/icon</rdf:li>
            </rdf:Bag>
         </bsam:subDigitalAssetType>
         <bsam:industry>
            <rdf:Bag>
               <rdf:li>enterprise:industry/generic-all-industries</rdf:li>
            </rdf:Bag>
         </bsam:industry>
         <bsam:assetOwner>
            <rdf:Bag>
               <rdf:li>enterprise:business-unit/webfleet</rdf:li>
            </rdf:Bag>
         </bsam:assetOwner>
         <bsam:usageCountry>
            <rdf:Bag>
               <rdf:li>enterprise:region-country/global</rdf:li>
            </rdf:Bag>
         </bsam:usageCountry>
      </rdf:Description>
   </rdf:RDF>
</x:xmpmeta>
                                                                                                    
                                                                                                    
                                                                                                    
                                                                                                    
                                                                                                    
                                                                                                    
                                                                                                    
                                                                                                    
                                                                                                    
                           
<?xpacket end="w"?></metadata>
<g>
	<path d="M251.3,131.8l-5.9-5.8c-1.8-1.8-3.8-5.1-4.6-7.5l-10.9-32.8c-3.2-9.5-13.8-17.2-23.8-17.2h-72.3c-10,0-20.7,7.7-23.8,17.2
		l-6.2,18.7h9.5l5.3-15.8c1.9-5.7,9.2-11,15.2-11H206c6.1,0,13.3,5.2,15.2,11l10,29.9c0.8,2.4-0.6,4.3-3.1,4.3h-79.1V177h52.4
		c2.5,0,4.5,2,4.5,4.5s-2,4.5-4.5,4.5h-53.1c-1.2,6.4-4.1,12.5-8,18.1h83.7v9c0,5,4.1,9,9,9h18.1c5,0,9-4.1,9-9v-54.3
		C260.3,148.9,256.3,136.8,251.3,131.8z M237.7,177c-7.5,0-13.6-6.1-13.6-13.6c0-7.5,6.1-13.6,13.6-13.6c7.5,0,13.6,6.1,13.6,13.6
		C251.3,170.9,245.2,177,237.7,177z"/>
	<g>
		<path d="M129.2,113.3H53.3c-6.2,0-11.2,5-11.2,11.1v55c0,29.5,45.2,52.2,47.1,53.1l2.1,1l2.1-1.1c1.9-1,47-23.8,47.1-53.3v-54.9
			C140.4,118.3,135.4,113.3,129.2,113.3z M91.2,222l-5.4-3.2c0,0-32.8-18.6-32.8-39.4V126c0-0.9,0.9-1.8,2-1.8h30.8h10.9h30.8
			c1.1,0,2,0.8,2,1.8v53.2c0,21.3-32.8,39.6-32.8,39.6L91.2,222z"/>
	</g>
</g>
</svg>
