<?xml version="1.0" encoding="utf-8"?>
<!-- Generator: Adobe Illustrator 26.3.1, SVG Export Plug-In . SVG Version: 6.00 Build 0)  -->
<svg version="1.1" id="Layer_1" xmlns="http://www.w3.org/2000/svg" xmlns:xlink="http://www.w3.org/1999/xlink" x="0px" y="0px"
	 viewBox="0 0 302.4 302.4" style="enable-background:new 0 0 302.4 302.4;" xml:space="preserve">
<metadata><?xpacket begin="﻿" id="W5M0MpCehiHzreSzNTczkc9d"?>
<x:xmpmeta xmlns:x="adobe:ns:meta/" x:xmptk="Adobe XMP Core 8.0-c001 1.000000, 0000/00/00-00:00:00        ">
   <rdf:RDF xmlns:rdf="http://www.w3.org/1999/02/22-rdf-syntax-ns#">
      <rdf:Description rdf:about=""
            xmlns:dc="http://purl.org/dc/elements/1.1/"
            xmlns:prism="http://prismstandard.org/namespaces/basic/2.1/"
            xmlns:tiff="http://ns.adobe.com/tiff/1.0/"
            xmlns:bsam="http://www.bsam.blog">
         <dc:modified>2025-09-09T17:33:17.553Z</dc:modified>
         <dc:format>image/svg+xml</dc:format>
         <prism:Date>2025-09-08T19:20:00.000+02:00</prism:Date>
         <tiff:ImageWidth>302</tiff:ImageWidth>
         <tiff:ImageLength>302</tiff:ImageLength>
         <bsam:rightsLimitedUnlimited>unlimited</bsam:rightsLimitedUnlimited>
         <bsam:subDigitalAssetType>
            <rdf:Bag>
               <rdf:li>enterprise:digital-asset-type/image/icon</rdf:li>
            </rdf:Bag>
         </bsam:subDigitalAssetType>
         <bsam:industry>
            <rdf:Bag>
               <rdf:li>enterprise:industry/generic-all-industries</rdf:li>
            </rdf:Bag>
         </bsam:industry>
         <bsam:assetOwner>
            <rdf:Bag>
               <rdf:li>enterprise:business-unit/webfleet</rdf:li>
            </rdf:Bag>
         </bsam:assetOwner>
         <bsam:usageCountry>
            <rdf:Bag>
               <rdf:li>enterprise:region-country/global</rdf:li>
            </rdf:Bag>
         </bsam:usageCountry>
      </rdf:Description>
   </rdf:RDF>
</x:xmpmeta>
                                                                                                    
                                                                                                    
                                                                                                    
                                                                                                    
                                                                                                    
                                                                                                    
                                                                                                    
                                                                                                    
                                                                                                    
                                                                                                    
                                                                                                    
                                                                                                    
                                                                                                    
                                                                                                    
                                                                                                    
                                                                                                    
                                                                                                    
                                                                                                    
                                                                            
<?xpacket end="w"?></metadata>
<g>
	<g>
		<path d="M93.2,69.7H75.8c-0.7,0-1.1,1.3-1.1,2.6s0.4,2.6,1.1,2.6h6.1v14.7c0,0.7,1.3,1.1,2.6,1.1s2.6-0.4,2.6-1.1V75h6.1
			c0.7,0,1.1-1.3,1.1-2.6C94.4,71,94,69.7,93.2,69.7z"/>
		<path d="M105.7,69.5c-5.9,0-10.6,4.8-10.6,10.6c0,5.9,4.8,10.6,10.6,10.6c5.9,0,10.6-4.8,10.6-10.6
			C116.3,74.3,111.5,69.5,105.7,69.5z M105.7,85.5c-2.9,0-5.3-2.4-5.3-5.3s2.4-5.3,5.3-5.3s5.3,2.4,5.3,5.3
			C111,83.1,108.6,85.5,105.7,85.5z"/>
		<path d="M141.4,69.5c-2.5,0-4.8,1-6.4,2.7c-1.6-1.7-3.9-2.7-6.4-2.7c-5,0-9.1,4.1-9.1,9.1v11.1c0,0.7,1.3,1.1,2.6,1.1
			s2.6-0.4,2.6-1.1V78.6c0-2.1,1.7-3.8,3.8-3.8s3.8,1.7,3.8,3.8v11.1c0,0.7,1.3,1.1,2.6,1.1c1.3,0,2.6-0.4,2.6-1.1V78.6
			c0-2.1,1.7-3.8,3.8-3.8s3.8,1.7,3.8,3.8v11.1c0,0.7,1.3,1.1,2.6,1.1c1.3,0,2.6-0.4,2.6-1.1V78.6C150.5,73.6,146.4,69.5,141.4,69.5
			z"/>
		<path d="M218.5,69.5c-2.5,0-4.8,1-6.4,2.7c-1.6-1.7-3.9-2.7-6.4-2.7c-5,0-9.1,4.1-9.1,9.1v11.1c0,0.7,1.3,1.1,2.6,1.1
			c1.3,0,2.6-0.4,2.6-1.1V78.6c0-2.1,1.7-3.8,3.8-3.8s3.8,1.7,3.8,3.8v11.1c0,0.7,1.3,1.1,2.6,1.1c1.3,0,2.6-0.4,2.6-1.1V78.6
			c0-2.1,1.7-3.8,3.8-3.8s3.8,1.7,3.8,3.8v11.1c0,0.7,1.3,1.1,2.6,1.1c1.3,0,2.6-0.4,2.6-1.1V78.6C227.5,73.6,223.5,69.5,218.5,69.5
			z"/>
		<path d="M170.3,69.7h-17.4c-0.7,0-1.1,1.3-1.1,2.6s0.4,2.6,1.1,2.6h6.1v14.7c0,0.7,1.3,1.1,2.6,1.1c1.3,0,2.6-0.4,2.6-1.1V75h6.1
			c0.7,0,1.1-1.3,1.1-2.6C171.4,71,171,69.7,170.3,69.7z"/>
		<path d="M182.7,69.5c-5.9,0-10.6,4.8-10.6,10.6c0,5.9,4.8,10.6,10.6,10.6c5.9,0,10.6-4.8,10.6-10.6S188.6,69.5,182.7,69.5z
			 M182.7,85.5c-3,0-5.4-2.4-5.4-5.3s2.4-5.3,5.4-5.3c2.9,0,5.4,2.4,5.4,5.3C188.1,83.1,185.7,85.5,182.7,85.5z"/>
	</g>
	<g>
		<g>
			<path d="M100.9,200.8h4.7c1.9,0,2.9-0.8,2.9-2.8c0-1.9-1-2.7-2.9-2.7h-4.7V200.8z M96.6,192h10.5c3.5,0,5.7,2.4,5.7,5.4
				c0,2.3-0.9,4-3.1,4.9v0.1c2.1,0.5,2.7,2.6,2.8,4.5c0.1,1.2,0.1,3.5,0.8,4.6h-4.3c-0.5-1.2-0.5-3.1-0.7-4.7
				c-0.3-2-1.1-2.9-3.2-2.9h-4.3v7.6h-4.3L96.6,192L96.6,192z"/>
			<path d="M124.9,208.3c3.8,0,5.3-3.3,5.3-6.5c0-3.4-1.4-6.7-5.3-6.7c-3.8,0-5.3,3.3-5.3,6.7C119.7,205,121.1,208.3,124.9,208.3
				 M124.9,191.5c6,0,9.6,4.5,9.6,10.3c0,5.6-3.5,10.1-9.6,10.1s-9.6-4.5-9.6-10.1C115.4,196,118.9,191.5,124.9,191.5"/>
			<path d="M153.9,204.1c0,5.2-3.1,7.8-8.3,7.8c-5.2,0-8.3-2.5-8.3-7.8V192h4.3v12.1c0,2.1,0.6,4.2,4,4.2c3.1,0,4-1.3,4-4.2V192h4.3
				V204.1z"/>
		</g>
		<polygon points="161.9,195.6 156,195.6 156,192 172,192 172,195.6 166.1,195.6 166.1,211.4 161.9,211.4 		"/>
		<polygon points="174.2,192 188.7,192 188.7,195.6 178.5,195.6 178.5,199.7 187.9,199.7 187.9,203.1 178.5,203.1 178.5,207.8 
			188.9,207.8 188.9,211.4 174.2,211.4 		"/>
		<g>
			<path d="M194.7,205c0,2.6,2,3.6,4.3,3.6c1.5,0,3.8-0.4,3.8-2.4c0-2.1-2.9-2.4-5.8-3.2c-2.9-0.8-5.8-1.9-5.8-5.5
				c0-4,3.8-5.9,7.3-5.9c4.1,0,7.8,1.8,7.8,6.2h-4.1c-0.1-2.3-1.8-2.9-3.8-2.9c-1.4,0-2.9,0.6-2.9,2.2c0,1.5,0.9,1.7,5.8,2.9
				c1.4,0.4,5.8,1.3,5.8,5.7c0,3.6-2.8,6.2-8.1,6.2c-4.3,0-8.3-2.1-8.3-6.9L194.7,205L194.7,205z"/>
		</g>
		<polygon points="85.1,220.1 85.1,222.9 89.2,222.9 89.2,235.2 92.2,235.2 92.2,222.9 96.3,222.9 96.3,220.1 		"/>
		<polygon points="97.7,220.1 97.7,235.2 108,235.2 108,232.4 100.7,232.4 100.7,228.7 107.3,228.7 107.3,226.1 100.7,226.1 
			100.7,222.9 107.9,222.9 107.9,220.1 		"/>
		<g>
			<path d="M119,225.2c-0.2-1.5-1.5-2.6-3-2.6c-2.7,0-3.7,2.5-3.7,5.2c0,2.5,1,5.1,3.7,5.1c1.8,0,2.8-1.4,3.1-3.4h2.9
				c-0.3,3.8-2.7,6.2-6,6.2c-4.2,0-6.7-3.5-6.7-7.8c0-4.5,2.5-8,6.7-8c3,0,5.5,2,5.8,5.4L119,225.2L119,225.2z"/>
		</g>
		<polygon points="132.4,220.1 132.4,225.9 126.9,225.9 126.9,220.1 124,220.1 124,235.2 126.9,235.2 126.9,228.7 132.4,228.7 
			132.4,235.2 135.4,235.2 135.4,220.1 		"/>
		<polygon points="146.6,220.1 146.6,230.2 146.6,230.2 140.9,220.1 137.9,220.1 137.9,235.2 140.7,235.2 140.7,225.1 140.8,225.1 
			146.4,235.2 149.4,235.2 149.4,220.1 		"/>
		<g>
			<path d="M158,232.8c2.7,0,3.7-2.5,3.7-5.1c0-2.6-1-5.2-3.7-5.2s-3.7,2.6-3.7,5.2C154.4,230.2,155.4,232.8,158,232.8 M158,219.7
				c4.2,0,6.7,3.5,6.7,8c0,4.4-2.5,7.8-6.7,7.8c-4.2,0-6.7-3.5-6.7-7.8C151.4,223.2,153.8,219.7,158,219.7"/>
		</g>
		<polygon points="166.6,220.1 166.6,235.2 176.3,235.2 176.3,232.4 169.6,232.4 169.6,220.1 		"/>
		<g>
			<path d="M183.9,232.8c2.7,0,3.7-2.5,3.7-5.1c0-2.6-1-5.2-3.7-5.2s-3.7,2.6-3.7,5.2C180.2,230.2,181.2,232.8,183.9,232.8
				 M183.9,219.7c4.2,0,6.7,3.5,6.7,8c0,4.4-2.5,7.8-6.7,7.8c-4.2,0-6.7-3.5-6.7-7.8C177.2,223.2,179.7,219.7,183.9,219.7"/>
			<path d="M202.3,233.5c-1,1.5-2.4,2.1-3.7,2.1c-4.2,0-6.7-3.5-6.7-7.8c0-4.5,2.5-8,6.7-8c2.8,0,5.4,1.9,5.7,5.3h-2.9
				c-0.3-1.7-1.5-2.6-2.9-2.6c-2.7,0-3.7,2.6-3.7,5.2c0,2.5,1,5.1,3.7,5.1c1.9,0,3.1-1.2,3.2-3.3h-3V227h5.7v8.2h-1.9L202.3,233.5z"
				/>
		</g>
		<polygon points="210.4,229.3 205.4,220.1 208.7,220.1 211.9,226.1 215.1,220.1 218.4,220.1 213.4,229.4 213.4,235.2 210.4,235.2 
					"/>
		<g>
			<path d="M171,151.3c1.1-1.2,3.1-1.3,4.3-0.2l4.1,3.7c1.2,1.1,2.8,0.8,3.6-0.7c0,0,3.3-6.7,3.3-14.4c0-13.1-5.6-25.6-20.6-25.6
				c-15,0-20.6,12.5-20.6,25.6c0,12.4,5.6,25,20.6,25c2.4,0,5.5,0,6.7-1l-4.9-4.4c-1.2-1.1-1.3-3-0.2-4.2L171,151.3z M196.9,181.5
				c-1.1,1.2-3.1,1.3-4.3,0.2l-6.2-5.6c-1.2-1.1-3.5-1.5-5-0.9c0,0-8.4,3.3-15.5,3.3c-23.4,0-37.2-17.2-37.2-38.8
				c0-22.2,13.8-39.4,37.2-39.4s37.2,17.2,37.2,39.4c0,10.8-3.5,20.4-9.9,27.5l7.2,6.5c1.2,1.1,1.3,3,0.2,4.2L196.9,181.5z"/>
			<path d="M100.6,105.1c0-1.7,1.3-3,3-3h10.7c1.6,0,3,1.3,3,3v68.6c0,1.6-1.4,3-3,3h-10.7c-1.7,0-3-1.4-3-3V105.1z"/>
		</g>
	</g>
	<path d="M231.5,49.3H70.9c-9,0-16.5,7.4-16.5,16.5v170.8c0,9,7.4,16.4,16.5,16.4h160.6c9,0,16.4-7.4,16.4-16.4V65.8
		C247.9,56.7,240.5,49.3,231.5,49.3z M237.7,235.6c0,4-3.2,7.2-7.2,7.2H71.8c-4,0-7.2-3.2-7.2-7.2V66.8c0-4,3.2-7.2,7.2-7.2h158.7
		c4,0,7.2,3.2,7.2,7.2L237.7,235.6L237.7,235.6z"/>
</g>
</svg>
