<?xml version="1.0" encoding="utf-8"?>
<!-- Generator: Adobe Illustrator 26.3.1, SVG Export Plug-In . SVG Version: 6.00 Build 0)  -->
<svg version="1.1" id="Layer_1" xmlns="http://www.w3.org/2000/svg" xmlns:xlink="http://www.w3.org/1999/xlink" x="0px" y="0px"
	 viewBox="0 0 302.4 302.4" style="enable-background:new 0 0 302.4 302.4;" xml:space="preserve">
<metadata><?xpacket begin="﻿" id="W5M0MpCehiHzreSzNTczkc9d"?>
<x:xmpmeta xmlns:x="adobe:ns:meta/" x:xmptk="Adobe XMP Core 8.0-c001 1.000000, 0000/00/00-00:00:00        ">
   <rdf:RDF xmlns:rdf="http://www.w3.org/1999/02/22-rdf-syntax-ns#">
      <rdf:Description rdf:about=""
            xmlns:dc="http://purl.org/dc/elements/1.1/"
            xmlns:prism="http://prismstandard.org/namespaces/basic/2.1/"
            xmlns:tiff="http://ns.adobe.com/tiff/1.0/"
            xmlns:bsam="http://www.bsam.blog">
         <dc:modified>2025-09-09T17:24:49.774Z</dc:modified>
         <dc:format>image/svg+xml</dc:format>
         <prism:Date>2025-09-08T19:20:00.000+02:00</prism:Date>
         <tiff:ImageWidth>302</tiff:ImageWidth>
         <tiff:ImageLength>302</tiff:ImageLength>
         <bsam:rightsLimitedUnlimited>unlimited</bsam:rightsLimitedUnlimited>
         <bsam:subDigitalAssetType>
            <rdf:Bag>
               <rdf:li>enterprise:digital-asset-type/image/icon</rdf:li>
            </rdf:Bag>
         </bsam:subDigitalAssetType>
         <bsam:industry>
            <rdf:Bag>
               <rdf:li>enterprise:industry/generic-all-industries</rdf:li>
            </rdf:Bag>
         </bsam:industry>
         <bsam:assetOwner>
            <rdf:Bag>
               <rdf:li>enterprise:business-unit/webfleet</rdf:li>
            </rdf:Bag>
         </bsam:assetOwner>
         <bsam:usageCountry>
            <rdf:Bag>
               <rdf:li>enterprise:region-country/global</rdf:li>
            </rdf:Bag>
         </bsam:usageCountry>
      </rdf:Description>
   </rdf:RDF>
</x:xmpmeta>
                                                                                                    
                                                                                                    
                                                                                                    
                                                                                                    
                                                                                                    
                                                                                                    
                                                                                                    
                                                                                                    
                                                                                                    
                                                                                                    
                                                                                                    
                                                                                                    
                                                                                                    
                                                                                                    
                                                                                                    
                                                                                                    
                                                                                                    
                                                                                                    
                                                                            
<?xpacket end="w"?></metadata>
<g>
	<path d="M275.4,175.7c-3.4-2.5-5.7-6.6-5.7-11.1l0,0c0-4.6,2.2-8.6,5.7-11.1c3-2.2,4.3-6,3.1-9.5c-0.9-2.7-2-5.3-3.3-7.9
		c-1.6-3.3-5.2-5.1-8.9-4.5c-4.2,0.7-8.7-0.6-11.9-3.8l0,0c-3.2-3.2-4.5-7.7-3.8-11.9c0.6-3.6-1.2-7.2-4.5-8.9
		c-2.5-1.3-5.2-2.3-7.9-3.3c-3.5-1.2-7.3,0.1-9.5,3.1c-2.5,3.4-6.6,5.7-11.1,5.7l0,0c-4.6,0-8.6-2.2-11.1-5.7c-2.2-3-6-4.2-9.5-3.1
		c-2.7,0.9-5.3,2-7.9,3.3c-3.3,1.6-5.1,5.2-4.5,8.9c0.7,4.2-0.6,8.7-3.8,11.9l0,0c-3.2,3.2-7.7,4.5-11.9,3.8
		c-3.6-0.6-7.2,1.2-8.9,4.5c-1.3,2.5-2.4,5.2-3.3,7.9c-1.2,3.5,0.1,7.3,3.1,9.5c3.4,2.5,5.7,6.6,5.7,11.1l0,0
		c0,4.6-2.2,8.6-5.7,11.1c-3,2.2-4.2,6-3.1,9.5c0.9,2.7,2,5.3,3.3,7.9c1.6,3.3,5.2,5.1,8.9,4.5c4.2-0.7,8.7,0.6,11.9,3.8l0,0
		c3.2,3.2,4.5,7.7,3.8,11.9c-0.6,3.6,1.2,7.2,4.5,8.9c2.5,1.3,5.2,2.4,7.9,3.3c3.5,1.2,7.3-0.1,9.5-3.1c2.5-3.4,6.6-5.7,11.1-5.7
		l0,0c4.6,0,8.6,2.2,11.1,5.7c2.2,3,6,4.2,9.5,3.1c2.7-0.9,5.3-2,7.9-3.3c3.3-1.6,5.1-5.2,4.5-8.9c-0.7-4.2,0.6-8.7,3.8-11.9l0,0
		c3.2-3.2,7.7-4.5,11.9-3.8c3.6,0.6,7.2-1.2,8.9-4.5c1.3-2.5,2.4-5.2,3.3-7.9C279.6,181.7,278.4,177.8,275.4,175.7z M217.6,199.2
		c-19.1,0-34.6-15.5-34.6-34.7s15.5-34.6,34.6-34.6s34.6,15.5,34.6,34.6S236.7,199.2,217.6,199.2z"/>
	<g>
		<g>
			<path d="M178.6,97.5C167.9,76.5,146,62,120.8,62c-35.8,0-64.8,29-64.8,64.8c0,35.8,29,64.9,64.8,64.9c8.3,0,16.1-1.6,23.4-4.4
				c-2.4-7.4-3.7-15.3-3.7-23.5C140.5,135.6,155.8,110.9,178.6,97.5z"/>
		</g>
		<path d="M155.5,209.5c-10.8,4.1-22.5,6.4-34.8,6.4c-22.1,0-42.5-7.4-59-19.8c-20,10-34.2,27-38.3,44.2l0,0h186
			C187.4,238.1,168.1,226.5,155.5,209.5z"/>
	</g>
</g>
</svg>
