<?xml version="1.0" encoding="utf-8"?>
<!-- Generator: Adobe Illustrator 26.3.1, SVG Export Plug-In . SVG Version: 6.00 Build 0)  -->
<svg version="1.1" id="Layer_1" xmlns="http://www.w3.org/2000/svg" xmlns:xlink="http://www.w3.org/1999/xlink" x="0px" y="0px"
	 viewBox="0 0 302.4 302.4" style="enable-background:new 0 0 302.4 302.4;" xml:space="preserve">
<metadata><?xpacket begin="﻿" id="W5M0MpCehiHzreSzNTczkc9d"?>
<x:xmpmeta xmlns:x="adobe:ns:meta/" x:xmptk="Adobe XMP Core 8.0-c001 1.000000, 0000/00/00-00:00:00        ">
   <rdf:RDF xmlns:rdf="http://www.w3.org/1999/02/22-rdf-syntax-ns#">
      <rdf:Description rdf:about=""
            xmlns:dc="http://purl.org/dc/elements/1.1/"
            xmlns:prism="http://prismstandard.org/namespaces/basic/2.1/"
            xmlns:tiff="http://ns.adobe.com/tiff/1.0/"
            xmlns:bsam="http://www.bsam.blog">
         <dc:modified>2025-09-09T17:13:40.841Z</dc:modified>
         <dc:format>image/svg+xml</dc:format>
         <prism:Date>2025-09-08T19:20:00.000+02:00</prism:Date>
         <tiff:ImageWidth>302</tiff:ImageWidth>
         <tiff:ImageLength>302</tiff:ImageLength>
         <bsam:rightsLimitedUnlimited>unlimited</bsam:rightsLimitedUnlimited>
         <bsam:subDigitalAssetType>
            <rdf:Bag>
               <rdf:li>enterprise:digital-asset-type/image/icon</rdf:li>
            </rdf:Bag>
         </bsam:subDigitalAssetType>
         <bsam:industry>
            <rdf:Bag>
               <rdf:li>enterprise:industry/generic-all-industries</rdf:li>
            </rdf:Bag>
         </bsam:industry>
         <bsam:assetOwner>
            <rdf:Bag>
               <rdf:li>enterprise:business-unit/webfleet</rdf:li>
            </rdf:Bag>
         </bsam:assetOwner>
         <bsam:usageCountry>
            <rdf:Bag>
               <rdf:li>enterprise:region-country/global</rdf:li>
            </rdf:Bag>
         </bsam:usageCountry>
      </rdf:Description>
   </rdf:RDF>
</x:xmpmeta>
                                                                                                    
                                                                                                    
                                                                                                    
                                                                                                    
                                                                                                    
                                                                                                    
                                                                                                    
                                                                                                    
                                                                                                    
                           
<?xpacket end="w"?></metadata>
<g>
	<path d="M108,199.3c0.1-0.4,0.3-1.3,0.4-1.6c0.7-2.8,0.3-5.8-1.2-8.3c-0.5-0.8-1.1-1.5-1.7-2.2c0.4-0.9,0.7-1.8,0.9-2.8
		c1.4-5.6,0.6-11.4-2.4-16.5c-3.2-5.3-8.3-9.1-14.4-10.6c-0.8-0.2-1.6-0.4-2.5-0.5c0.3-0.9,0.6-1.8,0.9-2.7c1.7-6.4,0.7-13.2-2.8-19
		c-3.6-6.1-9.5-10.5-16.6-12.2c-5.3-1.3-10.9-1-16,0.9c-1.2-0.5-2.4-0.9-3.5-1.2c-2.1-0.5-4.3-0.8-6.5-0.8c-11.8,0-22,7.7-24.8,18.7
		c-1.6,6.1-0.7,12.5,2.5,18c-2.1,2.7-3.7,5.8-4.5,9.1c-1.6,6.3-0.7,12.9,2.7,18.6c3.6,6,9.3,10.2,16.2,12c2.1,0.5,4.3,0.8,6.5,0.8
		c4.9,0,9.6-1.3,13.6-3.8c2.7,5.6,8,10,14.5,11.6c3,0.7,6.1,0.9,9.1,0.3c1.5,2.4,3.9,4.2,6.8,5c2,0.5,4.3,0.4,6.4,0.1
		c1.9-0.2,3.5-0.3,4.9,0.2c2.3,0.8,4.3,1.2,6,1.2c4.8,0,6.7-3,7.3-4.2c1.6-3.3,0.4-7.2-0.9-8.8C108.3,199.9,108.1,199.5,108,199.3z
		 M98.5,195.2c-0.7,2.8-1,4.9-0.3,7.1c-1.3-0.3-2.7-0.5-4.2-0.5c-1.4,0-2.6,0.1-3.7,0.3c-1,0.1-2.1,0.3-2.7,0.1
		c-0.6-0.2-0.8-0.6-0.8-1c0.1-1.8-0.7-3.5-2.2-4.6c-1.5-1-3.4-1.2-5-0.5c-2.6,1.1-5.4,1.4-8,0.8c-5.3-1.3-9-5.9-8.9-11.1
		c0-2.2-1.3-4.2-3.4-4.9c-2.1-0.7-4.4,0-5.7,1.8c-3.6,4.8-10.4,7.1-16.6,5.6c-4.3-1.1-7.8-3.6-10-7.3c-2-3.3-2.5-7.1-1.6-10.8
		c0.7-2.8,2.3-5.3,4.5-7.2c2.1-1.8,2.4-5,0.6-7.1c-3.1-3.7-4.2-8.3-3-12.7c1.7-6.5,7.8-11,15-11c1.4,0,2.7,0.2,4.1,0.5
		c1.1,0.3,2.2,0.7,3.6,1.4c1.4,0.7,3.1,0.8,4.5,0.1c3.6-1.7,7.6-2.2,11.5-1.2c4.4,1.1,8.1,3.8,10.3,7.5c2.1,3.4,2.6,7.4,1.7,11.2
		c-0.8,3.1-2.7,5.9-5.4,8c-2.1,1.6-2.6,4.5-1.2,6.7c1.4,2.2,4.2,3.1,6.6,1.9c2.8-1.4,6.1-1.8,9.1-1c3.5,0.9,6.3,3,8.1,5.9
		c1.6,2.7,2.1,5.8,1.3,8.7c-0.4,1.5-1.1,2.9-2,4.1c-1,1.3-1.3,3.1-0.8,4.6s1.7,2.8,3.3,3.3c0.3,0.1,0.6,0.1,0.8,0.2
		c0.3,0.1,0.5,0.4,0.6,0.5C98.5,194.9,98.5,195.1,98.5,195.2z"/>
	<path d="M194.8,166c-22.2,0-40.3,18.1-40.3,40.3s18.1,40.3,40.3,40.3c22.2,0,40.3-18.1,40.3-40.3S217,166,194.8,166z"/>
	<path d="M190.8,75.7c-30.2,1.9-17.4,1.2-30.1,22.6c-4.3,7.3-21.4,18.5-33.4,32.6l-4.3,5.8c-3.4,5.2-5.6,10.8-5.6,16.6v36.1
		c0,20.9,32.4,37.8,31.7,36.2c-2.5-5.9-3.9-12.4-3.9-19.2c0-27.4,22.2-49.6,49.6-49.6c27.4,0,49.6,22.2,49.6,49.6
		c0,6.8-1.4,13.3-3.9,19.2c1.4,0,8.6,0,19.2,0V121.9V120V83.7v-4.1v-7.1C239.7,72.7,227.3,73.4,190.8,75.7z M250.2,119.7
		c-23.5-0.4-47.4,1-54.7-0.4c-6-1.2-15.8-4.8-7.6-10.5c25.6-17.8,41.7-23.3,62.3-24.8V119.7z"/>
</g>
</svg>
