<?xml version="1.0" encoding="utf-8"?>
<!-- Generator: Adobe Illustrator 26.3.1, SVG Export Plug-In . SVG Version: 6.00 Build 0)  -->
<svg version="1.1" id="Layer_1" xmlns="http://www.w3.org/2000/svg" xmlns:xlink="http://www.w3.org/1999/xlink" x="0px" y="0px"
	 viewBox="0 0 302.4 302.4" style="enable-background:new 0 0 302.4 302.4;" xml:space="preserve">
<metadata><?xpacket begin="﻿" id="W5M0MpCehiHzreSzNTczkc9d"?>
<x:xmpmeta xmlns:x="adobe:ns:meta/" x:xmptk="Adobe XMP Core 8.0-c001 1.000000, 0000/00/00-00:00:00        ">
   <rdf:RDF xmlns:rdf="http://www.w3.org/1999/02/22-rdf-syntax-ns#">
      <rdf:Description rdf:about=""
            xmlns:dc="http://purl.org/dc/elements/1.1/"
            xmlns:prism="http://prismstandard.org/namespaces/basic/2.1/"
            xmlns:tiff="http://ns.adobe.com/tiff/1.0/"
            xmlns:bsam="http://www.bsam.blog">
         <dc:modified>2025-09-09T17:10:15.628Z</dc:modified>
         <dc:format>image/svg+xml</dc:format>
         <prism:Date>2025-09-08T19:20:00.000+02:00</prism:Date>
         <tiff:ImageWidth>302</tiff:ImageWidth>
         <tiff:ImageLength>302</tiff:ImageLength>
         <bsam:rightsLimitedUnlimited>unlimited</bsam:rightsLimitedUnlimited>
         <bsam:subDigitalAssetType>
            <rdf:Bag>
               <rdf:li>enterprise:digital-asset-type/image/icon</rdf:li>
            </rdf:Bag>
         </bsam:subDigitalAssetType>
         <bsam:industry>
            <rdf:Bag>
               <rdf:li>enterprise:industry/generic-all-industries</rdf:li>
            </rdf:Bag>
         </bsam:industry>
         <bsam:assetOwner>
            <rdf:Bag>
               <rdf:li>enterprise:business-unit/webfleet</rdf:li>
            </rdf:Bag>
         </bsam:assetOwner>
         <bsam:usageCountry>
            <rdf:Bag>
               <rdf:li>enterprise:region-country/global</rdf:li>
            </rdf:Bag>
         </bsam:usageCountry>
      </rdf:Description>
   </rdf:RDF>
</x:xmpmeta>
                                                                                                    
                                                                                                    
                                                                                                    
                                                                                                    
                                                                                                    
                                                                                                    
                                                                                                    
                                                                                                    
                                                                                                    
                           
<?xpacket end="w"?></metadata>
<g>
	<g>
		<path d="M151.2,241.9c-10.9,0-20.2-4.1-26.2-11.6c-0.1-0.1-0.1-0.3-0.1-0.5c0.1-0.1,0.2-0.2,0.4-0.2H177c0.2,0,0.3,0.1,0.4,0.2
			c0.1,0.2,0.1,0.3-0.1,0.5C171.4,237.8,162.1,241.9,151.2,241.9z"/>
	</g>
	<g>
		<path d="M184.3,211.3h-66.1c-0.2,0-0.4-0.2-0.4-0.4c-0.1-1.3-0.2-2.5-0.2-3.6V202c0-0.1,0.1-0.2,0.1-0.3c0.1-0.1,0.2-0.1,0.3-0.1
			h66.5c0.1,0,0.2,0.1,0.3,0.1c0.1,0.1,0.1,0.2,0.1,0.3v5.3c0,1.2-0.1,2.4-0.2,3.6C184.7,211.1,184.5,211.3,184.3,211.3z"/>
	</g>
	<g>
		<path d="M179.8,225.4h-57.1c-0.2,0-0.3-0.1-0.4-0.2l-0.5-0.8c-1.5-2.7-2.7-5-3.5-8.5c0-0.1,0-0.3,0.1-0.4c0.1-0.1,0.2-0.2,0.3-0.2
			h64.8c0.1,0,0.3,0.1,0.4,0.2s0.1,0.2,0.1,0.4c-0.8,3.6-2.1,6.1-3.9,9.2C180.1,225.3,179.9,225.4,179.8,225.4z"/>
	</g>
	<path d="M196.4,75.2c-11.8-12.6-28.3-19.8-45.2-19.8s-33.3,7.2-45.2,19.8c-10.8,11.5-16.2,25.9-15.3,40.7
		c1.2,18.5,9,31.4,15.2,41.8c2.9,4.8,5.4,8.9,6.8,12.8c3.4,9.2,4.7,18.7,4.7,24v2.4c0,0.2,0.2,0.4,0.4,0.4h66.5
		c0.2,0,0.4-0.2,0.4-0.4v-2.4c0-5.3,1.3-14.8,4.7-24c1.5-3.9,3.9-8.1,6.8-12.8c6.3-10.4,14.1-23.3,15.2-41.8
		C212.6,101.2,207.1,86.7,196.4,75.2z M200.2,115c-1,15.7-7.7,26.8-13.6,36.6c-3.1,5-5.9,9.8-7.8,14.8c-2.8,7.7-4.2,14.8-4.8,19.4
		c0,0.2-0.2,0.4-0.4,0.4h-44.8c-0.2,0-0.4-0.2-0.4-0.4c-0.6-4.6-1.9-11.8-4.8-19.4c-1.8-5-4.7-9.7-7.8-14.8
		c-5.9-9.8-12.6-20.9-13.6-36.6c-0.7-11.6,3.6-23,12.2-32.1c9.5-10.1,23.3-16.2,36.8-16.2c13.5,0,27.3,6.1,36.8,16.2
		C196.6,92,200.9,103.4,200.2,115z"/>
</g>
</svg>
