<?xml version="1.0" encoding="utf-8"?>
<!-- Generator: Adobe Illustrator 26.3.1, SVG Export Plug-In . SVG Version: 6.00 Build 0)  -->
<svg version="1.1" id="Layer_1" xmlns="http://www.w3.org/2000/svg" xmlns:xlink="http://www.w3.org/1999/xlink" x="0px" y="0px"
	 viewBox="0 0 302.4 302.4" style="enable-background:new 0 0 302.4 302.4;" xml:space="preserve">
<metadata><?xpacket begin="﻿" id="W5M0MpCehiHzreSzNTczkc9d"?>
<x:xmpmeta xmlns:x="adobe:ns:meta/" x:xmptk="Adobe XMP Core 8.0-c001 1.000000, 0000/00/00-00:00:00        ">
   <rdf:RDF xmlns:rdf="http://www.w3.org/1999/02/22-rdf-syntax-ns#">
      <rdf:Description rdf:about=""
            xmlns:dc="http://purl.org/dc/elements/1.1/"
            xmlns:prism="http://prismstandard.org/namespaces/basic/2.1/"
            xmlns:tiff="http://ns.adobe.com/tiff/1.0/"
            xmlns:bsam="http://www.bsam.blog">
         <dc:modified>2025-09-09T17:20:36.176Z</dc:modified>
         <dc:format>image/svg+xml</dc:format>
         <prism:Date>2025-09-08T19:20:00.000+02:00</prism:Date>
         <tiff:ImageWidth>302</tiff:ImageWidth>
         <tiff:ImageLength>302</tiff:ImageLength>
         <bsam:rightsLimitedUnlimited>unlimited</bsam:rightsLimitedUnlimited>
         <bsam:subDigitalAssetType>
            <rdf:Bag>
               <rdf:li>enterprise:digital-asset-type/image/icon</rdf:li>
            </rdf:Bag>
         </bsam:subDigitalAssetType>
         <bsam:industry>
            <rdf:Bag>
               <rdf:li>enterprise:industry/generic-all-industries</rdf:li>
            </rdf:Bag>
         </bsam:industry>
         <bsam:assetOwner>
            <rdf:Bag>
               <rdf:li>enterprise:business-unit/webfleet</rdf:li>
            </rdf:Bag>
         </bsam:assetOwner>
         <bsam:usageCountry>
            <rdf:Bag>
               <rdf:li>enterprise:region-country/global</rdf:li>
            </rdf:Bag>
         </bsam:usageCountry>
      </rdf:Description>
   </rdf:RDF>
</x:xmpmeta>
                                                                                                    
                                                                                                    
                                                                                                    
                                                                                                    
                                                                                                    
                                                                                                    
                                                                                                    
                                                                                                    
                                                                                                    
                           
<?xpacket end="w"?></metadata>
<g>
	<g>
		<path d="M124.6,144.9H48.7c-6.2,0-11.2,5-11.2,11.1v55c0,29.5,45.2,52.2,47.1,53.1l2.1,1l2.1-1c1.9-1,47-23.8,47.1-53.3V156
			C135.8,149.9,130.8,144.9,124.6,144.9z M86.6,253.6l-5.4-3.2c0,0-32.8-18.6-32.8-39.4v-53.4c0-0.9,0.9-1.8,2-1.8h30.8h10.9h30.8
			c1.1,0,2,0.8,2,1.8v53.2c0,21.3-32.8,39.6-32.8,39.6L86.6,253.6z"/>
	</g>
	<path d="M265,227v-53.9c0-10-8.1-18.1-18.1-18.1v-18.4h0c5,0,9-4,9-9v-27.1c0-5-4.1-9.1-9-9.1l0,0V46.2c0-5-4.1-9-9-9H102.2
		c-5,0-9,4.1-9,9v45.2c-5,0-9,4.1-9,9.1v27.1c0,4.2,2.9,7.8,6.9,8.7h20.8c-0.3-1.1-0.5-2.3-0.5-3.5v-28.6c0-7.1,5.8-12.8,12.8-12.8
		H216c7.1,0,12.8,5.8,12.8,12.8v28.6c0,7.1-5.8,12.8-12.8,12.8h-71.7c0.3,1.1,0.4,2.1,0.4,3.3v14.8h53.2c7.1,0,12.8,5.8,12.8,12.8
		v28.6c0,7.1-5.8,12.8-12.8,12.8h-53.8c-0.6,3.1-1.6,6.1-2.9,9.1h78.6v9.5v8c0,5.3,4.3,9.6,9.6,9.6h26c5.3,0,9.6-4.3,9.6-9.6
		L265,227L265,227z M237.9,195.4c-7.5,0-13.6-6.1-13.6-13.6s6.1-13.6,13.6-13.6s13.6,6.1,13.6,13.6S245.4,195.4,237.9,195.4z"/>
</g>
</svg>
