<?xml version="1.0" encoding="utf-8"?>
<!-- Generator: Adobe Illustrator 26.3.1, SVG Export Plug-In . SVG Version: 6.00 Build 0)  -->
<svg version="1.1" id="Layer_1" xmlns="http://www.w3.org/2000/svg" xmlns:xlink="http://www.w3.org/1999/xlink" x="0px" y="0px"
	 viewBox="0 0 302.4 302.4" style="enable-background:new 0 0 302.4 302.4;" xml:space="preserve">
<metadata><?xpacket begin="﻿" id="W5M0MpCehiHzreSzNTczkc9d"?>
<x:xmpmeta xmlns:x="adobe:ns:meta/" x:xmptk="Adobe XMP Core 8.0-c001 1.000000, 0000/00/00-00:00:00        ">
   <rdf:RDF xmlns:rdf="http://www.w3.org/1999/02/22-rdf-syntax-ns#">
      <rdf:Description rdf:about=""
            xmlns:dc="http://purl.org/dc/elements/1.1/"
            xmlns:prism="http://prismstandard.org/namespaces/basic/2.1/"
            xmlns:tiff="http://ns.adobe.com/tiff/1.0/"
            xmlns:bsam="http://www.bsam.blog">
         <dc:modified>2025-09-09T17:27:34.800Z</dc:modified>
         <dc:format>image/svg+xml</dc:format>
         <prism:Date>2025-09-08T19:20:00.000+02:00</prism:Date>
         <tiff:ImageWidth>302</tiff:ImageWidth>
         <tiff:ImageLength>302</tiff:ImageLength>
         <bsam:rightsLimitedUnlimited>unlimited</bsam:rightsLimitedUnlimited>
         <bsam:subDigitalAssetType>
            <rdf:Bag>
               <rdf:li>enterprise:digital-asset-type/image/icon</rdf:li>
            </rdf:Bag>
         </bsam:subDigitalAssetType>
         <bsam:industry>
            <rdf:Bag>
               <rdf:li>enterprise:industry/generic-all-industries</rdf:li>
            </rdf:Bag>
         </bsam:industry>
         <bsam:assetOwner>
            <rdf:Bag>
               <rdf:li>enterprise:business-unit/webfleet</rdf:li>
            </rdf:Bag>
         </bsam:assetOwner>
         <bsam:usageCountry>
            <rdf:Bag>
               <rdf:li>enterprise:region-country/global</rdf:li>
            </rdf:Bag>
         </bsam:usageCountry>
      </rdf:Description>
   </rdf:RDF>
</x:xmpmeta>
                                                                                                    
                                                                                                    
                                                                                                    
                                                                                                    
                                                                                                    
                                                                                                    
                                                                                                    
                                                                                                    
                                                                                                    
                                                                                                    
                                                                                                    
                                                                                                    
                                                                                                    
                                                                                                    
                                                                                                    
                                                                                                    
                                                                                                    
                                                                                                    
                                                                            
<?xpacket end="w"?></metadata>
<g>
	<path d="M205.9,154.9L202,151c-1.2-1.2-2.6-3.4-3.1-5l-7.4-22.1c-2.1-6.4-9.3-11.5-16-11.5h-6.2l-3.8,6.1h9.9
		c4.1,0,8.9,3.5,10.2,7.4l6.7,20.1c0.5,1.6-0.4,2.9-2.1,2.9H112c-1.7,0-2.6-1.3-2.1-2.9l6.7-20.1c1.3-3.9,6.2-7.4,10.2-7.4h10.5
		l-3.8-6.1h-6.7c-6.7,0-13.9,5.2-16,11.5l-7.3,22.1c-0.5,1.6-1.9,3.8-3.1,5c-1.1,1.1-2.4,2.4-3.9,3.9c-3.4,3.4-6.1,11.5-6.1,18.2
		v30.4v6.1c0,3.4,2.7,6.1,6.1,6.1h12.2c3.4,0,6.1-2.7,6.1-6.1v-6.1h72.9v6.1c0,3.4,2.7,6.1,6.1,6.1h12.1c3.4,0,6.1-2.7,6.1-6.1
		v-36.5C212,166.5,209.2,158.3,205.9,154.9z M105.6,185.3c-5,0-9.1-4.1-9.1-9.1s4.1-9.1,9.1-9.1s9.1,4.1,9.1,9.1
		C114.7,181.2,110.7,185.3,105.6,185.3z M172.5,191.4h-42.5c-1.7,0-3-1.4-3-3s1.4-3,3-3h42.5c1.7,0,3,1.4,3,3
		S174.1,191.4,172.5,191.4z M196.8,185.3c-5,0-9.1-4.1-9.1-9.1s4.1-9.1,9.1-9.1s9.1,4.1,9.1,9.1
		C205.9,181.2,201.8,185.3,196.8,185.3z"/>
	<path d="M221.4,76.8h-30.1l-5.8,9.4h36c6.8,0,12.3,4.9,12.3,10.9v132.2c0,6-5.5,10.9-12.3,10.9H81c-6.8,0-12.3-4.9-12.3-10.9V97.2
		c0-6,5.5-10.9,12.3-10.9h36l-5.8-9.4H81c-12,0-21.7,9.1-21.7,20.4v132.2c0,11.2,9.7,20.4,21.7,20.4h140.4c12,0,21.7-9.1,21.7-20.4
		V97.2C243.1,86,233.4,76.8,221.4,76.8z"/>
	<g>
		<polygon points="166.6,61.3 166.6,34.6 135.9,34.6 135.9,61.3 110.9,61.3 151.2,126.3 191.5,61.3 		"/>
	</g>
</g>
</svg>
