<?xml version="1.0" encoding="utf-8"?>
<!-- Generator: Adobe Illustrator 26.3.1, SVG Export Plug-In . SVG Version: 6.00 Build 0)  -->
<svg version="1.1" id="Layer_1" xmlns="http://www.w3.org/2000/svg" xmlns:xlink="http://www.w3.org/1999/xlink" x="0px" y="0px"
	 viewBox="0 0 302.4 302.4" style="enable-background:new 0 0 302.4 302.4;" xml:space="preserve">
<metadata><?xpacket begin="﻿" id="W5M0MpCehiHzreSzNTczkc9d"?>
<x:xmpmeta xmlns:x="adobe:ns:meta/" x:xmptk="Adobe XMP Core 8.0-c001 1.000000, 0000/00/00-00:00:00        ">
   <rdf:RDF xmlns:rdf="http://www.w3.org/1999/02/22-rdf-syntax-ns#">
      <rdf:Description rdf:about=""
            xmlns:dc="http://purl.org/dc/elements/1.1/"
            xmlns:prism="http://prismstandard.org/namespaces/basic/2.1/"
            xmlns:tiff="http://ns.adobe.com/tiff/1.0/"
            xmlns:bsam="http://www.bsam.blog">
         <dc:modified>2025-09-09T17:23:18.997Z</dc:modified>
         <dc:format>image/svg+xml</dc:format>
         <prism:Date>2025-09-08T19:20:00.000+02:00</prism:Date>
         <tiff:ImageWidth>302</tiff:ImageWidth>
         <tiff:ImageLength>302</tiff:ImageLength>
         <bsam:rightsLimitedUnlimited>unlimited</bsam:rightsLimitedUnlimited>
         <bsam:subDigitalAssetType>
            <rdf:Bag>
               <rdf:li>enterprise:digital-asset-type/image/icon</rdf:li>
            </rdf:Bag>
         </bsam:subDigitalAssetType>
         <bsam:industry>
            <rdf:Bag>
               <rdf:li>enterprise:industry/generic-all-industries</rdf:li>
            </rdf:Bag>
         </bsam:industry>
         <bsam:assetOwner>
            <rdf:Bag>
               <rdf:li>enterprise:business-unit/webfleet</rdf:li>
            </rdf:Bag>
         </bsam:assetOwner>
         <bsam:usageCountry>
            <rdf:Bag>
               <rdf:li>enterprise:region-country/global</rdf:li>
            </rdf:Bag>
         </bsam:usageCountry>
      </rdf:Description>
   </rdf:RDF>
</x:xmpmeta>
                                                                                                    
                                                                                                    
                                                                                                    
                                                                                                    
                                                                                                    
                                                                                                    
                                                                                                    
                                                                                                    
                                                                                                    
                                                                                                    
                                                                                                    
                                                                                                    
                                                                                                    
                                                                                                    
                                                                                                    
                                                                                                    
                                                                                                    
                                                                                                    
                                                                            
<?xpacket end="w"?></metadata>
<g>
	<path d="M162.6,187.4c-6.3-0.2-25.8-0.1-36.9-4.3l22.7-25.3c-13.4-12.4-21.8-30.3-21.8-50.2c0-9.7,2-18.8,5.6-27.2
		c-0.8,0-1.7-0.1-2.5-0.1c-35.8,0-64.8,29-64.8,64.9c0,35.8,29,64.9,64.8,64.9c20.1,0,38-9.2,49.9-23.5
		C174.1,187.1,168.5,187.4,162.6,187.4z"/>
	<path d="M188.6,214.5c-16.5,12.4-36.9,19.8-59,19.8s-42.5-7.4-59-19.8c-20,10-34.2,27-38.3,44.2l0,0h194.5l0,0
		C222.8,241.5,208.6,224.5,188.6,214.5z"/>
	<g>
		<path d="M141.8,178.6c3.9,0.4,8.1,0.7,12.7,0.9c4,0.1,7.9,0.1,10.9,0.1c20.6,0,40.9-3.6,60.1-10.6c2.1-0.7,4.2-1.5,6.2-2.4
			l0.9-0.4c22.7-10.5,37.4-33.4,37.4-58.2c0-35.4-29.1-64.3-64.8-64.3s-64.8,28.8-64.8,64.3c0,18.1,7.8,35.5,21.4,47.7l1,0.9
			L141.8,178.6z M164.1,169.7l13-13.6l-8.7-7.8c-11.5-10.3-18.1-25-18.1-40.3c0-29.9,24.6-54.3,54.8-54.3
			c30.2,0,54.8,24.4,54.8,54.3c0,21-12.4,40.3-31.6,49.2l-0.8,0.3c-1.7,0.8-3.4,1.4-5.2,2l-0.4,0.1c-17.6,6.4-36.1,9.8-54.9,10
			L164.1,169.7z"/>
	</g>
</g>
</svg>
