<?xml version="1.0" encoding="utf-8"?>
<!-- Generator: Adobe Illustrator 26.3.1, SVG Export Plug-In . SVG Version: 6.00 Build 0)  -->
<svg version="1.1" id="Layer_1" xmlns="http://www.w3.org/2000/svg" xmlns:xlink="http://www.w3.org/1999/xlink" x="0px" y="0px"
	 viewBox="0 0 302.4 302.4" style="enable-background:new 0 0 302.4 302.4;" xml:space="preserve">
<metadata><?xpacket begin="﻿" id="W5M0MpCehiHzreSzNTczkc9d"?>
<x:xmpmeta xmlns:x="adobe:ns:meta/" x:xmptk="Adobe XMP Core 8.0-c001 1.000000, 0000/00/00-00:00:00        ">
   <rdf:RDF xmlns:rdf="http://www.w3.org/1999/02/22-rdf-syntax-ns#">
      <rdf:Description rdf:about=""
            xmlns:dc="http://purl.org/dc/elements/1.1/"
            xmlns:prism="http://prismstandard.org/namespaces/basic/2.1/"
            xmlns:tiff="http://ns.adobe.com/tiff/1.0/"
            xmlns:bsam="http://www.bsam.blog">
         <dc:modified>2025-09-09T17:14:18.385Z</dc:modified>
         <dc:format>image/svg+xml</dc:format>
         <prism:Date>2025-09-08T19:20:00.000+02:00</prism:Date>
         <tiff:ImageWidth>302</tiff:ImageWidth>
         <tiff:ImageLength>302</tiff:ImageLength>
         <bsam:rightsLimitedUnlimited>unlimited</bsam:rightsLimitedUnlimited>
         <bsam:subDigitalAssetType>
            <rdf:Bag>
               <rdf:li>enterprise:digital-asset-type/image/icon</rdf:li>
            </rdf:Bag>
         </bsam:subDigitalAssetType>
         <bsam:industry>
            <rdf:Bag>
               <rdf:li>enterprise:industry/generic-all-industries</rdf:li>
            </rdf:Bag>
         </bsam:industry>
         <bsam:assetOwner>
            <rdf:Bag>
               <rdf:li>enterprise:business-unit/webfleet</rdf:li>
            </rdf:Bag>
         </bsam:assetOwner>
         <bsam:usageCountry>
            <rdf:Bag>
               <rdf:li>enterprise:region-country/global</rdf:li>
            </rdf:Bag>
         </bsam:usageCountry>
      </rdf:Description>
   </rdf:RDF>
</x:xmpmeta>
                                                                                                    
                                                                                                    
                                                                                                    
                                                                                                    
                                                                                                    
                                                                                                    
                                                                                                    
                                                                                                    
                                                                                                    
                           
<?xpacket end="w"?></metadata>
<g>
	<g>
		<g>
			<path d="M68.5,168.6c-2.8,0-5,2.3-5,5.1s2.3,5.1,5,5.1h43.8c2.8,0,5.1-2.3,5.1-5.1s-2.3-5.1-5.1-5.1H68.5z"/>
		</g>
		<g>
			<path d="M68.4,190.5c-2.8,0-5,2.3-5,5.1s2.3,5.1,5,5.1h43.8c2.8,0,5.1-2.3,5.1-5.1s-2.3-5.1-5.1-5.1H68.4z"/>
		</g>
		<g>
			<g>
				<path d="M49.3,114.3c-4,0-7.3,3.3-7.3,7.3v98.5c0,4,3.3,7.3,7.3,7.3h82.1c4,0,7.3-3.3,7.3-7.3v-75.9l0-0.1v0
					c0.1-3.6-1.3-6.9-3.7-9.3L118.2,118c-2.4-2.4-5.6-3.7-9.1-3.7c-0.4,0-0.9,0-1.3,0.1L49.3,114.3z M129.6,218.3H51.2v-94.8h56.5
					l0,17.3c0,2.5,2.1,4.5,4.5,4.5h0.4l0,0h16.9L129.6,218.3L129.6,218.3z"/>
			</g>
		</g>
	</g>
	<path d="M251.3,131.9l-5.9-5.8c-1.8-1.8-3.8-5.1-4.6-7.5l-10.9-32.8c-3.2-9.5-13.8-17.2-23.8-17.2h-72.4c-10,0-20.7,7.7-23.8,17.2
		l-6.2,18.7h9.5l5.3-15.8c1.9-5.8,9.2-11,15.2-11H206c6.1,0,13.3,5.2,15.2,11l10,30c0.8,2.4-0.6,4.3-3.1,4.3H149v54.3h52.5
		c2.5,0,4.5,2,4.5,4.5s-2,4.5-4.5,4.5H149v18.1h75.1v9.1c0,5,4.1,9.1,9.1,9.1h18.1c5,0,9-4.1,9-9.1V159
		C260.3,149,256.3,136.9,251.3,131.9z M237.7,177.1c-7.5,0-13.6-6.1-13.6-13.6s6.1-13.6,13.6-13.6s13.6,6.1,13.6,13.6
		S245.2,177.1,237.7,177.1z"/>
</g>
</svg>
