<?xml version="1.0" encoding="utf-8"?>
<!-- Generator: Adobe Illustrator 26.3.1, SVG Export Plug-In . SVG Version: 6.00 Build 0)  -->
<svg version="1.1" id="Layer_1" xmlns="http://www.w3.org/2000/svg" xmlns:xlink="http://www.w3.org/1999/xlink" x="0px" y="0px"
	 viewBox="0 0 302.4 302.4" style="enable-background:new 0 0 302.4 302.4;" xml:space="preserve">
<metadata><?xpacket begin="﻿" id="W5M0MpCehiHzreSzNTczkc9d"?>
<x:xmpmeta xmlns:x="adobe:ns:meta/" x:xmptk="Adobe XMP Core 8.0-c001 1.000000, 0000/00/00-00:00:00        ">
   <rdf:RDF xmlns:rdf="http://www.w3.org/1999/02/22-rdf-syntax-ns#">
      <rdf:Description rdf:about=""
            xmlns:dc="http://purl.org/dc/elements/1.1/"
            xmlns:prism="http://prismstandard.org/namespaces/basic/2.1/"
            xmlns:tiff="http://ns.adobe.com/tiff/1.0/"
            xmlns:bsam="http://www.bsam.blog">
         <dc:modified>2025-09-09T17:21:54.672Z</dc:modified>
         <dc:format>image/svg+xml</dc:format>
         <prism:Date>2025-09-08T19:20:00.000+02:00</prism:Date>
         <tiff:ImageWidth>302</tiff:ImageWidth>
         <tiff:ImageLength>302</tiff:ImageLength>
         <bsam:rightsLimitedUnlimited>unlimited</bsam:rightsLimitedUnlimited>
         <bsam:subDigitalAssetType>
            <rdf:Bag>
               <rdf:li>enterprise:digital-asset-type/image/icon</rdf:li>
            </rdf:Bag>
         </bsam:subDigitalAssetType>
         <bsam:industry>
            <rdf:Bag>
               <rdf:li>enterprise:industry/generic-all-industries</rdf:li>
            </rdf:Bag>
         </bsam:industry>
         <bsam:assetOwner>
            <rdf:Bag>
               <rdf:li>enterprise:business-unit/webfleet</rdf:li>
            </rdf:Bag>
         </bsam:assetOwner>
         <bsam:usageCountry>
            <rdf:Bag>
               <rdf:li>enterprise:region-country/global</rdf:li>
            </rdf:Bag>
         </bsam:usageCountry>
      </rdf:Description>
   </rdf:RDF>
</x:xmpmeta>
                                                                                                    
                                                                                                    
                                                                                                    
                                                                                                    
                                                                                                    
                                                                                                    
                                                                                                    
                                                                                                    
                                                                                                    
                                                                                                    
                                                                                                    
                                                                                                    
                                                                                                    
                                                                                                    
                                                                                                    
                                                                                                    
                                                                                                    
                                                                                                    
                                                                            
<?xpacket end="w"?></metadata>
<path d="M243.8,133.3c5.5,0,9.9-4.5,9.9-9.9v-1.9c0-5.5-4.5-9.9-9.9-9.9h-20.3V99.9c0-8.8-7.2-16-16-16h-11.4V63.6
	c0-5.5-4.5-9.9-9.9-9.9h-1.9c-5.5,0-9.9,4.5-9.9,9.9v20.3h-12.7V63.6c0-5.5-4.5-9.9-9.9-9.9h-1.9c-5.5,0-9.9,4.5-9.9,9.9v20.3h-12.7
	V63.6c0-5.5-4.5-9.9-9.9-9.9h-1.9c-5.5,0-9.9,4.5-9.9,9.9v20.3H93.9c-8.8,0-16,7.2-16,16v11.6h-20c-5.5,0-9.9,4.5-9.9,9.9v1.9
	c0,5.5,4.5,9.9,9.9,9.9h20V146h-20c-5.5,0-9.9,4.5-9.9,9.9v1.9c0,5.5,4.5,9.9,9.9,9.9h20v12.7h-20c-5.5,0-9.9,4.5-9.9,9.9v1.9
	c0,5.5,4.5,9.9,9.9,9.9h20v11.2c0,8.8,7.2,16,16,16h11.4v20c0,5.5,4.5,9.9,9.9,9.9h1.9c5.5,0,9.9-4.5,9.9-9.9v-20h12.7v20
	c0,5.5,4.5,9.9,9.9,9.9h1.9c5.5,0,9.9-4.5,9.9-9.9v-20h12.7v20c0,5.5,4.5,9.9,9.9,9.9h1.9c5.5,0,9.9-4.5,9.9-9.9v-20h11.4
	c8.8,0,16-7.2,16-16v-11.2h20.3c5.5,0,9.9-4.5,9.9-9.9v-1.9c0-5.5-4.5-9.9-9.9-9.9h-20.3v-12.7h20.3c5.5,0,9.9-4.5,9.9-9.9v-1.9
	c0-5.5-4.5-9.9-9.9-9.9h-20.3v-12.7L243.8,133.3L243.8,133.3z M208.4,146v21.8v12.7v21.8v11.2c0,0.5-0.5,0.9-0.9,0.9h-11.4h-21.8
	h-12.7h-21.8h-12.7h-21.8H93.9c-0.5,0-0.9-0.5-0.9-0.9v-11.2v-21.8v-12.7V146v-12.7v-21.8V99.9c0-0.5,0.5-0.9,0.9-0.9h11.4h21.8
	h12.7h21.8h12.7h21.8h11.4c0.5,0,0.9,0.5,0.9,0.9v11.6v21.8L208.4,146L208.4,146z"/>
</svg>
