<?xml version="1.0" encoding="utf-8"?>
<!-- Generator: Adobe Illustrator 26.3.1, SVG Export Plug-In . SVG Version: 6.00 Build 0)  -->
<svg version="1.1" id="Layer_1" xmlns="http://www.w3.org/2000/svg" xmlns:xlink="http://www.w3.org/1999/xlink" x="0px" y="0px"
	 viewBox="0 0 302.4 302.4" style="enable-background:new 0 0 302.4 302.4;" xml:space="preserve">
<metadata><?xpacket begin="﻿" id="W5M0MpCehiHzreSzNTczkc9d"?>
<x:xmpmeta xmlns:x="adobe:ns:meta/" x:xmptk="Adobe XMP Core 8.0-c001 1.000000, 0000/00/00-00:00:00        ">
   <rdf:RDF xmlns:rdf="http://www.w3.org/1999/02/22-rdf-syntax-ns#">
      <rdf:Description rdf:about=""
            xmlns:dc="http://purl.org/dc/elements/1.1/"
            xmlns:prism="http://prismstandard.org/namespaces/basic/2.1/"
            xmlns:tiff="http://ns.adobe.com/tiff/1.0/"
            xmlns:bsam="http://www.bsam.blog">
         <dc:modified>2025-09-09T17:10:19.983Z</dc:modified>
         <dc:format>image/svg+xml</dc:format>
         <prism:Date>2025-09-08T19:20:00.000+02:00</prism:Date>
         <tiff:ImageWidth>302</tiff:ImageWidth>
         <tiff:ImageLength>302</tiff:ImageLength>
         <bsam:rightsLimitedUnlimited>unlimited</bsam:rightsLimitedUnlimited>
         <bsam:subDigitalAssetType>
            <rdf:Bag>
               <rdf:li>enterprise:digital-asset-type/image/icon</rdf:li>
            </rdf:Bag>
         </bsam:subDigitalAssetType>
         <bsam:industry>
            <rdf:Bag>
               <rdf:li>enterprise:industry/generic-all-industries</rdf:li>
            </rdf:Bag>
         </bsam:industry>
         <bsam:assetOwner>
            <rdf:Bag>
               <rdf:li>enterprise:business-unit/webfleet</rdf:li>
            </rdf:Bag>
         </bsam:assetOwner>
         <bsam:usageCountry>
            <rdf:Bag>
               <rdf:li>enterprise:region-country/global</rdf:li>
            </rdf:Bag>
         </bsam:usageCountry>
      </rdf:Description>
   </rdf:RDF>
</x:xmpmeta>
                                                                                                    
                                                                                                    
                                                                                                    
                                                                                                    
                                                                                                    
                                                                                                    
                                                                                                    
                                                                                                    
                                                                                                    
                           
<?xpacket end="w"?></metadata>
<g>
	<g>
		<g>
			<g>
				<path d="M161.5,103.6L161.5,103.6c0-1.7,0.7-3.2,2-4.4c19.4-18.4,48.7-18.5,68.2-0.1c1.3,1.2,2,2.8,2,4.4c0,2.5-1.6,4.9-4.1,6
					c-2.3,1-4.9,0.5-6.8-1.2c-14.4-13.6-36-13.6-50.4,0.1c-1.9,1.8-4.5,2.3-6.8,1.3C163.2,108.5,161.5,106.1,161.5,103.6z"/>
			</g>
		</g>
		<g>
			<g>
				<path d="M144.4,86.5L144.4,86.5c0-1.6,0.7-3.2,1.9-4.4C175,54.3,220.1,54.3,248.8,82c1.3,1.2,1.9,2.8,1.9,4.4
					c0,2.5-1.6,4.9-4.1,6c-2.3,1-4.9,0.5-6.8-1.3c-23.7-22.9-60.9-22.8-84.6,0.1c-1.9,1.8-4.5,2.3-6.8,1.3
					C146.1,91.5,144.4,89.1,144.4,86.5z"/>
			</g>
		</g>
	</g>
	<path d="M229.4,151.4H73c-18.7,0-34,15.3-34,34v2.6c0,18.7,15.3,34,34,34h156.4c18.7,0,34-15.3,34-34v-2.6
		C263.4,166.8,248.1,151.4,229.4,151.4z M77.4,196.7c-5.5,0-9.9-4.4-9.9-9.9c0-5.5,4.4-9.9,9.9-9.9s9.9,4.4,9.9,9.9
		C87.3,192.2,82.8,196.7,77.4,196.7z M111.8,196.7c-5.5,0-9.9-4.4-9.9-9.9c0-5.5,4.4-9.9,9.9-9.9s9.9,4.4,9.9,9.9
		C121.7,192.2,117.3,196.7,111.8,196.7z M146.3,196.7c-5.5,0-9.9-4.4-9.9-9.9c0-5.5,4.4-9.9,9.9-9.9s9.9,4.4,9.9,9.9
		C156.2,192.2,151.8,196.7,146.3,196.7z"/>
	<g>
		<path d="M209.5,142.3v-14.1c0-7-5.8-12.8-12.8-12.8l0,0c-7,0-12.8,5.8-12.8,12.8v14.1H209.5z"/>
	</g>
</g>
</svg>
