<?xml version="1.0" encoding="utf-8"?>
<!-- Generator: Adobe Illustrator 26.3.1, SVG Export Plug-In . SVG Version: 6.00 Build 0)  -->
<svg version="1.1" id="Layer_1" xmlns="http://www.w3.org/2000/svg" xmlns:xlink="http://www.w3.org/1999/xlink" x="0px" y="0px"
	 viewBox="0 0 302.4 302.4" style="enable-background:new 0 0 302.4 302.4;" xml:space="preserve">
<metadata><?xpacket begin="﻿" id="W5M0MpCehiHzreSzNTczkc9d"?>
<x:xmpmeta xmlns:x="adobe:ns:meta/" x:xmptk="Adobe XMP Core 8.0-c001 1.000000, 0000/00/00-00:00:00        ">
   <rdf:RDF xmlns:rdf="http://www.w3.org/1999/02/22-rdf-syntax-ns#">
      <rdf:Description rdf:about=""
            xmlns:bsam="http://www.bsam.blog"
            xmlns:tiff="http://ns.adobe.com/tiff/1.0/"
            xmlns:prism="http://prismstandard.org/namespaces/basic/2.1/"
            xmlns:dc="http://purl.org/dc/elements/1.1/">
         <bsam:rightsLimitedUnlimited>unlimited</bsam:rightsLimitedUnlimited>
         <bsam:assetOwner>
            <rdf:Bag>
               <rdf:li>enterprise:business-unit/webfleet</rdf:li>
            </rdf:Bag>
         </bsam:assetOwner>
         <bsam:industry>
            <rdf:Bag>
               <rdf:li>enterprise:industry/generic-all-industries</rdf:li>
            </rdf:Bag>
         </bsam:industry>
         <bsam:subDigitalAssetType>
            <rdf:Bag>
               <rdf:li>enterprise:digital-asset-type/image/icon</rdf:li>
            </rdf:Bag>
         </bsam:subDigitalAssetType>
         <bsam:usageCountry>
            <rdf:Bag>
               <rdf:li>enterprise:region-country/global</rdf:li>
            </rdf:Bag>
         </bsam:usageCountry>
         <tiff:ImageLength>302</tiff:ImageLength>
         <tiff:ImageWidth>302</tiff:ImageWidth>
         <prism:Date>2025-09-08T19:20:00.000+02:00</prism:Date>
         <dc:modified>2025-09-09T17:29:07.341Z</dc:modified>
         <dc:format>image/svg+xml</dc:format>
      </rdf:Description>
   </rdf:RDF>
</x:xmpmeta>
                                                                                                    
                                                                                                    
                                                                                                    
                                                                                                    
                                                                                                    
                                                                                                    
                                                                                                    
                                                                                                    
                                                                                                    
                                                                                                    
                                                                                                    
                                                                                                    
                                                                                                    
                                                                                                    
                                                                                                    
                                                                                                    
                                                                                                    
                                                                                                    
                                                                            
<?xpacket end="w"?></metadata>
<g>
	<path d="M153,175.2c-17.7,0-35.5,6.2-49,18.7c-3.4,3.1-3.6,8.3-0.5,11.7c3.1,3.4,8.3,3.6,11.7,0.5c20.8-19.2,54.8-19.2,75.6,0
		c3.4,3.1,8.6,2.9,11.7-0.5c3.1-3.4,2.9-8.6-0.5-11.7C188.4,181.4,170.7,175.2,153,175.2z"/>
	<path d="M107,131.4c0,7.2,5.8,13,13,13c7.1,0,12.8-5.7,13-12.7l0.6,0.3c1.3,0.7,2.6,1.1,4,1.1c2.8,0,5.4-1.4,6.9-4
		c2.2-3.8,0.9-8.7-2.9-10.9l-36.2-20.9c-3.8-2.2-8.7-0.9-10.9,2.9s-0.9,8.7,2.9,10.9l16,9.2C109.5,122.5,107,126.6,107,131.4z"/>
	<path d="M200.8,97.2l-36.2,20.9c-3.8,2.2-5.1,7.1-2.9,10.9c1.5,2.6,4.2,4,6.9,4c1.4,0,2.7-0.4,4-1.1l0.4-0.2
		c0.2,7,5.9,12.6,13,12.6c7.2,0,13-5.8,13-13c0-4.7-2.5-8.8-6.2-11.1l16-9.3c3.8-2.2,5.1-7.1,2.9-10.9
		C209.5,96.3,204.6,95,200.8,97.2z"/>
	<path d="M153,45.7C93.8,45.7,45.7,93.8,45.7,153S93.8,260.3,153,260.3S260.3,212.1,260.3,153S212.1,45.7,153,45.7z M153,245.3
		c-50.9,0-92.3-41.4-92.3-92.3s41.4-92.3,92.3-92.3s92.3,41.4,92.3,92.3S203.9,245.3,153,245.3z"/>
</g>
</svg>
