<?xml version="1.0" encoding="utf-8"?>
<!-- Generator: Adobe Illustrator 26.3.1, SVG Export Plug-In . SVG Version: 6.00 Build 0)  -->
<svg version="1.1" id="Layer_1" xmlns="http://www.w3.org/2000/svg" xmlns:xlink="http://www.w3.org/1999/xlink" x="0px" y="0px"
	 viewBox="0 0 302.4 302.4" style="enable-background:new 0 0 302.4 302.4;" xml:space="preserve">
<metadata><?xpacket begin="﻿" id="W5M0MpCehiHzreSzNTczkc9d"?>
<x:xmpmeta xmlns:x="adobe:ns:meta/" x:xmptk="Adobe XMP Core 8.0-c001 1.000000, 0000/00/00-00:00:00        ">
   <rdf:RDF xmlns:rdf="http://www.w3.org/1999/02/22-rdf-syntax-ns#">
      <rdf:Description rdf:about=""
            xmlns:dc="http://purl.org/dc/elements/1.1/"
            xmlns:prism="http://prismstandard.org/namespaces/basic/2.1/"
            xmlns:tiff="http://ns.adobe.com/tiff/1.0/"
            xmlns:bsam="http://www.bsam.blog">
         <dc:modified>2025-09-09T17:11:09.866Z</dc:modified>
         <dc:format>image/svg+xml</dc:format>
         <prism:Date>2025-09-08T19:20:00.000+02:00</prism:Date>
         <tiff:ImageWidth>302</tiff:ImageWidth>
         <tiff:ImageLength>302</tiff:ImageLength>
         <bsam:rightsLimitedUnlimited>unlimited</bsam:rightsLimitedUnlimited>
         <bsam:subDigitalAssetType>
            <rdf:Bag>
               <rdf:li>enterprise:digital-asset-type/image/icon</rdf:li>
            </rdf:Bag>
         </bsam:subDigitalAssetType>
         <bsam:industry>
            <rdf:Bag>
               <rdf:li>enterprise:industry/generic-all-industries</rdf:li>
            </rdf:Bag>
         </bsam:industry>
         <bsam:assetOwner>
            <rdf:Bag>
               <rdf:li>enterprise:business-unit/webfleet</rdf:li>
            </rdf:Bag>
         </bsam:assetOwner>
         <bsam:usageCountry>
            <rdf:Bag>
               <rdf:li>enterprise:region-country/global</rdf:li>
            </rdf:Bag>
         </bsam:usageCountry>
      </rdf:Description>
   </rdf:RDF>
</x:xmpmeta>
                                                                                                    
                                                                                                    
                                                                                                    
                                                                                                    
                                                                                                    
                                                                                                    
                                                                                                    
                                                                                                    
                                                                                                    
                           
<?xpacket end="w"?></metadata>
<g>
	<path d="M199.4,61.5c-2.7-0.8-6.3-1.2-9.8-1.2c-3.2,0-6.5,0.3-8.9,1l-54.1,14.4c-2.6,0.7-6,1-9.4,1s-6.8-0.3-9.4-1L44.2,58.8v165.3
		l63.5,16.9c2.6,0.7,6,1,9.4,1s6.8-0.4,9.4-1l54.1-14.4c2.5-0.7,5.7-1,8.9-1c3.5,0,7.1,0.4,9.8,1.2l58.7,16.8V78.3L199.4,61.5z
		 M189.6,79.8c2.5,0,4.1,0.3,4.4,0.4l44.6,12.8v15.9l-22,5.9c0.7,1.5,1.2,3,1.6,4.6c0.4,1.6,0.7,3.2,0.8,4.8l19.5-5.2v40.3
		l-32.5,8.7l-3.9-14.5c-1.5,0.7-3,1.2-4.6,1.7c-1.6,0.4-3.2,0.7-4.8,0.8l3.9,14.5l-39.9,10.7l-10.1-37.6l16.8-4.5
		c-0.7-1.5-1.2-3-1.6-4.6c-0.4-1.6-0.7-3.2-0.8-4.8l-16.9,4.5L133.5,94l39.9-10.7l4.5,17c1.5-0.7,3-1.2,4.6-1.7
		c1.6-0.4,3.2-0.7,4.8-0.8l-4.6-17l2.8-0.8C186,80,187.4,79.8,189.6,79.8z M147.5,183.6l-25.8,6.9c-7.8,2.1-15.8-2.5-17.9-10.3
		l-6.3-23.5l39.9-10.7L147.5,183.6z M117.2,96.2c1.9,0,4.3-0.1,6.8-0.3l10.9,40.7L95,147.3l-15.8-59l23.6,6.3
		C108,95.9,113.5,96.2,117.2,96.2z M68.3,85.4l17.3,64.5l-21.9,5.9V84.1L68.3,85.4z M63.7,165.8l24.4-6.6l6.3,23.5
		c2.9,10.9,12.8,18,23.5,18c2.1,0,4.2-0.3,6.3-0.8L150,193l5.4,20.3l-33.9,9c-0.4,0.1-2,0.4-4.4,0.4s-4-0.3-4.4-0.4l-49.1-13.1
		C63.7,209.2,63.7,165.8,63.7,165.8z M189.6,206.2c-3.6,0-8.9,0.3-14,1.6l-10.9,2.9l-5.4-20.3l39.9-10.7l7.8,29l-2.3-0.7
		C199.3,206.5,193.5,206.2,189.6,206.2z M218,211.9l-9.3-34.6l30-8v48.6L218,211.9z"/>
	<path d="M190.1,107.4c-1.7,0-3.4,0.2-5.1,0.7c-5,1.3-9.2,4.6-11.8,9.1c-2.6,4.5-3.3,9.7-1.9,14.8c2.3,8.5,10,14.4,18.8,14.4
		c1.7,0,3.4-0.2,5.1-0.7c10.4-2.8,16.5-13.5,13.8-23.8C206.6,113.4,198.9,107.4,190.1,107.4z"/>
</g>
</svg>
