<?xml version="1.0" encoding="utf-8"?>
<!-- Generator: Adobe Illustrator 26.3.1, SVG Export Plug-In . SVG Version: 6.00 Build 0)  -->
<svg version="1.1" id="Layer_1" xmlns="http://www.w3.org/2000/svg" xmlns:xlink="http://www.w3.org/1999/xlink" x="0px" y="0px"
	 viewBox="0 0 302.4 302.4" style="enable-background:new 0 0 302.4 302.4;" xml:space="preserve">
<g>
	<path d="M84.6,115.8H74.2c-2.3,0-4.2,1.9-4.2,4.2v48.8c0,2.3,1.9,4.2,4.2,4.2h10.4c2.3,0,4.2-1.9,4.2-4.2V120
		C88.8,117.7,86.9,115.8,84.6,115.8z"/>
	<path d="M231.3,67.4h-5.1c-1.7,0-3.2,1-3.8,2.5c-35.5,22-78.8,37.7-126.6,45v59.3c7.9,1.2,15.7,2.6,23.4,4.3v50.2
		c0,3.5,2.8,6.3,6.3,6.3h6.8c3.5,0,6.3-2.9,6.3-6.3v-45.5c30.9,8.5,59.2,20.7,83.7,35.8c0.7,1.5,2.1,2.5,3.8,2.5h5.1
		c2.3,0,4.2-1.9,4.2-4.2V71.6C235.5,69.3,233.6,67.4,231.3,67.4z"/>
</g>
</svg>
