<?xml version="1.0" encoding="utf-8"?>
<!-- Generator: Adobe Illustrator 26.3.1, SVG Export Plug-In . SVG Version: 6.00 Build 0)  -->
<svg version="1.1" id="Layer_1" xmlns="http://www.w3.org/2000/svg" xmlns:xlink="http://www.w3.org/1999/xlink" x="0px" y="0px"
	 viewBox="0 0 302.4 302.4" style="enable-background:new 0 0 302.4 302.4;" xml:space="preserve">
<metadata><?xpacket begin="﻿" id="W5M0MpCehiHzreSzNTczkc9d"?>
<x:xmpmeta xmlns:x="adobe:ns:meta/" x:xmptk="Adobe XMP Core 8.0-c001 1.000000, 0000/00/00-00:00:00        ">
   <rdf:RDF xmlns:rdf="http://www.w3.org/1999/02/22-rdf-syntax-ns#">
      <rdf:Description rdf:about=""
            xmlns:dc="http://purl.org/dc/elements/1.1/"
            xmlns:prism="http://prismstandard.org/namespaces/basic/2.1/"
            xmlns:tiff="http://ns.adobe.com/tiff/1.0/"
            xmlns:bsam="http://www.bsam.blog">
         <dc:modified>2025-09-09T17:11:19.342Z</dc:modified>
         <dc:format>image/svg+xml</dc:format>
         <prism:Date>2025-09-08T19:20:00.000+02:00</prism:Date>
         <tiff:ImageWidth>302</tiff:ImageWidth>
         <tiff:ImageLength>302</tiff:ImageLength>
         <bsam:rightsLimitedUnlimited>unlimited</bsam:rightsLimitedUnlimited>
         <bsam:subDigitalAssetType>
            <rdf:Bag>
               <rdf:li>enterprise:digital-asset-type/image/icon</rdf:li>
            </rdf:Bag>
         </bsam:subDigitalAssetType>
         <bsam:industry>
            <rdf:Bag>
               <rdf:li>enterprise:industry/generic-all-industries</rdf:li>
            </rdf:Bag>
         </bsam:industry>
         <bsam:assetOwner>
            <rdf:Bag>
               <rdf:li>enterprise:business-unit/webfleet</rdf:li>
            </rdf:Bag>
         </bsam:assetOwner>
         <bsam:usageCountry>
            <rdf:Bag>
               <rdf:li>enterprise:region-country/global</rdf:li>
            </rdf:Bag>
         </bsam:usageCountry>
      </rdf:Description>
   </rdf:RDF>
</x:xmpmeta>
                                                                                                    
                                                                                                    
                                                                                                    
                                                                                                    
                                                                                                    
                                                                                                    
                                                                                                    
                                                                                                    
                                                                                                    
                           
<?xpacket end="w"?></metadata>
<path d="M197.5,42.5h-92.6c-7.9,0-14.2,6.4-14.2,14.2v191.7c0,7.9,6.4,14.2,14.2,14.2h92.6c7.9,0,14.2-6.4,14.2-14.2V56.7
	C211.7,48.8,205.4,42.5,197.5,42.5z M193.9,205.7h-85.4V60.2h85.4V205.7z M153,252h-7.1c-7.9,0-14.2-6.4-14.2-14.2v-7.1
	c0-7.9,6.4-14.2,14.2-14.2h7.1c7.9,0,14.2,6.4,14.2,14.2v7.1C167.2,245.6,160.8,252,153,252z M145.9,223.5c-3.9,0-7.1,3.2-7.1,7.1
	v7.1c0,3.9,3.2,7.1,7.1,7.1h7.1c3.9,0,7.1-3.2,7.1-7.1v-7.1c0-3.9-3.2-7.1-7.1-7.1H145.9z"/>
</svg>
