<?xml version="1.0" encoding="utf-8"?>
<!-- Generator: Adobe Illustrator 26.3.1, SVG Export Plug-In . SVG Version: 6.00 Build 0)  -->
<svg version="1.1" id="Layer_1" xmlns="http://www.w3.org/2000/svg" xmlns:xlink="http://www.w3.org/1999/xlink" x="0px" y="0px"
	 viewBox="0 0 302.4 302.4" style="enable-background:new 0 0 302.4 302.4;" xml:space="preserve">
<metadata><?xpacket begin="﻿" id="W5M0MpCehiHzreSzNTczkc9d"?>
<x:xmpmeta xmlns:x="adobe:ns:meta/" x:xmptk="Adobe XMP Core 8.0-c001 1.000000, 0000/00/00-00:00:00        ">
   <rdf:RDF xmlns:rdf="http://www.w3.org/1999/02/22-rdf-syntax-ns#">
      <rdf:Description rdf:about=""
            xmlns:dc="http://purl.org/dc/elements/1.1/"
            xmlns:prism="http://prismstandard.org/namespaces/basic/2.1/"
            xmlns:tiff="http://ns.adobe.com/tiff/1.0/"
            xmlns:bsam="http://www.bsam.blog">
         <dc:modified>2025-09-09T17:23:55.149Z</dc:modified>
         <dc:format>image/svg+xml</dc:format>
         <prism:Date>2025-09-08T19:20:00.000+02:00</prism:Date>
         <tiff:ImageWidth>302</tiff:ImageWidth>
         <tiff:ImageLength>302</tiff:ImageLength>
         <bsam:rightsLimitedUnlimited>unlimited</bsam:rightsLimitedUnlimited>
         <bsam:subDigitalAssetType>
            <rdf:Bag>
               <rdf:li>enterprise:digital-asset-type/image/icon</rdf:li>
            </rdf:Bag>
         </bsam:subDigitalAssetType>
         <bsam:industry>
            <rdf:Bag>
               <rdf:li>enterprise:industry/generic-all-industries</rdf:li>
            </rdf:Bag>
         </bsam:industry>
         <bsam:assetOwner>
            <rdf:Bag>
               <rdf:li>enterprise:business-unit/webfleet</rdf:li>
            </rdf:Bag>
         </bsam:assetOwner>
         <bsam:usageCountry>
            <rdf:Bag>
               <rdf:li>enterprise:region-country/global</rdf:li>
            </rdf:Bag>
         </bsam:usageCountry>
      </rdf:Description>
   </rdf:RDF>
</x:xmpmeta>
                                                                                                    
                                                                                                    
                                                                                                    
                                                                                                    
                                                                                                    
                                                                                                    
                                                                                                    
                                                                                                    
                                                                                                    
                                                                                                    
                                                                                                    
                                                                                                    
                                                                                                    
                                                                                                    
                                                                                                    
                                                                                                    
                                                                                                    
                                                                                                    
                                                                            
<?xpacket end="w"?></metadata>
<g>
	<g>
		<path d="M150.2,132.2c-3.3,0-5.4,5.4-5.4,17.2v4c0,11.6,2,17.2,5.4,17.2s5.4-5.6,5.4-17.2v-4C155.5,137.5,153.5,132.2,150.2,132.2
			z"/>
		<path d="M87.9,132.2c-3.3,0-5.3,5.4-5.3,17.2v4c0,11.6,2,17.2,5.3,17.2s5.3-5.6,5.3-17.2v-4C93.3,137.5,91.3,132.2,87.9,132.2z"/>
		<path d="M243.5,99H58.9c-2.6,0-4.8,2.2-4.8,4.8v94.8c0,2.6,2.2,4.8,4.8,4.8h184.6c2.6,0,4.8-2.2,4.8-4.8v-94.8
			C248.3,101.1,246.1,99,243.5,99z M106.4,153.1c0,19.2-7.8,29.1-18.5,29.1s-18.5-9.9-18.5-29.1v-3.6c0-19.2,7.8-29.1,18.5-29.1
			s18.5,9.9,18.5,29.1V153.1z M168.7,153.1c0,19.2-7.8,29.1-18.5,29.1s-18.5-9.9-18.5-29.1v-3.6c0-19.2,7.8-29.1,18.5-29.1
			s18.5,9.9,18.5,29.1V153.1z M240.6,195.8h-58.9v-88.3h58.9V195.8z"/>
	</g>
	<g>
		<path d="M193.9,153.1v-3.6c0-19.2,7.8-29.1,18.5-29.1s18.5,9.9,18.5,29.1v3.6c0,19.2-7.8,29.1-18.5,29.1S193.9,172.3,193.9,153.1z
			 M217.8,153.3v-4c0-11.8-2-17.2-5.4-17.2c-3.3,0-5.4,5.4-5.4,17.2v4c0,11.6,2,17.2,5.4,17.2C215.8,170.5,217.8,164.9,217.8,153.3z
			"/>
	</g>
</g>
</svg>
