<?xml version="1.0" encoding="UTF-8"?>
<svg id="Layer_1" xmlns="http://www.w3.org/2000/svg" version="1.1" viewBox="0 0 302.4 302.4">
  <!-- Generator: Adobe Illustrator 29.6.0, SVG Export Plug-In . SVG Version: 2.1.1 Build 207)  -->
  <metadata><?xpacket begin="﻿" id="W5M0MpCehiHzreSzNTczkc9d"?>
<x:xmpmeta xmlns:x="adobe:ns:meta/" x:xmptk="Adobe XMP Core 8.0-c001 1.000000, 0000/00/00-00:00:00        ">
   <rdf:RDF xmlns:rdf="http://www.w3.org/1999/02/22-rdf-syntax-ns#">
      <rdf:Description rdf:about=""
            xmlns:dc="http://purl.org/dc/elements/1.1/"
            xmlns:prism="http://prismstandard.org/namespaces/basic/2.1/"
            xmlns:tiff="http://ns.adobe.com/tiff/1.0/"
            xmlns:bsam="http://www.bsam.blog">
         <dc:modified>2025-09-09T17:09:24.901Z</dc:modified>
         <dc:format>image/svg+xml</dc:format>
         <prism:Date>2025-09-08T19:20:00.000+02:00</prism:Date>
         <tiff:ImageWidth>302</tiff:ImageWidth>
         <tiff:ImageLength>302</tiff:ImageLength>
         <bsam:rightsLimitedUnlimited>unlimited</bsam:rightsLimitedUnlimited>
         <bsam:subDigitalAssetType>
            <rdf:Bag>
               <rdf:li>enterprise:digital-asset-type/image/icon</rdf:li>
            </rdf:Bag>
         </bsam:subDigitalAssetType>
         <bsam:industry>
            <rdf:Bag>
               <rdf:li>enterprise:industry/generic-all-industries</rdf:li>
            </rdf:Bag>
         </bsam:industry>
         <bsam:assetOwner>
            <rdf:Bag>
               <rdf:li>enterprise:business-unit/webfleet</rdf:li>
            </rdf:Bag>
         </bsam:assetOwner>
         <bsam:usageCountry>
            <rdf:Bag>
               <rdf:li>enterprise:region-country/global</rdf:li>
            </rdf:Bag>
         </bsam:usageCountry>
      </rdf:Description>
   </rdf:RDF>
</x:xmpmeta>
                                                                                                    
                                                                                                    
                                                                                                    
                                                                                                    
                                                                                                    
                                                                                                    
                                                                                                    
                                                                                                    
                                                                                                    
                           
<?xpacket end="w"?></metadata>
<g>
    <path d="M117.5,90.9h0c0-1.6.7-3,1.9-4.2,18.3-17.4,46-17.4,64.4,0,1.2,1.1,1.9,2.6,1.9,4.2,0,2.4-1.5,4.6-3.8,5.6-2.2.9-4.7.5-6.4-1.2-13.6-12.8-34-12.8-47.5,0-1.8,1.7-4.2,2.1-6.4,1.2-2.3-1-3.8-3.2-3.8-5.6Z"/>
    <path d="M101.3,74.8h0c0-1.5.6-3,1.8-4.2,27.1-26.2,69.6-26.3,96.7-.1,1.2,1.1,1.8,2.6,1.8,4.2,0,2.4-1.5,4.7-3.9,5.7-2.2.9-4.7.5-6.4-1.2-22.4-21.6-57.5-21.5-79.8,0-1.8,1.7-4.2,2.2-6.4,1.2-2.3-1-3.9-3.3-3.9-5.7Z"/>
  </g>
  <g>
    <polygon points="221.9 111.8 182.6 111.8 184.2 142.4 223.5 142.4 221.9 111.8"/>
    <polygon points="120.4 111.8 81.1 111.8 79.5 142.4 118.8 142.4 120.4 111.8"/>
    <path d="M184.7,153.3l1.6,31.7c-.2,19-15.8,34.4-34.9,34.4s-34.6-15.4-34.9-34.4l1.6-31.7h-39.3l-1.5,30.2v1c0,40.9,33.2,74.1,74.1,74.1s74.1-33.2,74.1-74.1v-.5l-1.6-30.7h-39.3Z"/>
  </g>
</svg>