<?xml version="1.0" encoding="utf-8"?>
<!-- Generator: Adobe Illustrator 26.3.1, SVG Export Plug-In . SVG Version: 6.00 Build 0)  -->
<svg version="1.1" id="Layer_1" xmlns="http://www.w3.org/2000/svg" xmlns:xlink="http://www.w3.org/1999/xlink" x="0px" y="0px"
	 viewBox="0 0 302.4 302.4" style="enable-background:new 0 0 302.4 302.4;" xml:space="preserve">
<metadata><?xpacket begin="﻿" id="W5M0MpCehiHzreSzNTczkc9d"?>
<x:xmpmeta xmlns:x="adobe:ns:meta/" x:xmptk="Adobe XMP Core 8.0-c001 1.000000, 0000/00/00-00:00:00        ">
   <rdf:RDF xmlns:rdf="http://www.w3.org/1999/02/22-rdf-syntax-ns#">
      <rdf:Description rdf:about=""
            xmlns:dc="http://purl.org/dc/elements/1.1/"
            xmlns:prism="http://prismstandard.org/namespaces/basic/2.1/"
            xmlns:tiff="http://ns.adobe.com/tiff/1.0/"
            xmlns:bsam="http://www.bsam.blog">
         <dc:modified>2025-09-09T17:29:19.475Z</dc:modified>
         <dc:format>image/svg+xml</dc:format>
         <prism:Date>2025-09-08T19:20:00.000+02:00</prism:Date>
         <tiff:ImageWidth>302</tiff:ImageWidth>
         <tiff:ImageLength>302</tiff:ImageLength>
         <bsam:rightsLimitedUnlimited>unlimited</bsam:rightsLimitedUnlimited>
         <bsam:subDigitalAssetType>
            <rdf:Bag>
               <rdf:li>enterprise:digital-asset-type/image/icon</rdf:li>
            </rdf:Bag>
         </bsam:subDigitalAssetType>
         <bsam:industry>
            <rdf:Bag>
               <rdf:li>enterprise:industry/generic-all-industries</rdf:li>
            </rdf:Bag>
         </bsam:industry>
         <bsam:assetOwner>
            <rdf:Bag>
               <rdf:li>enterprise:business-unit/webfleet</rdf:li>
            </rdf:Bag>
         </bsam:assetOwner>
         <bsam:usageCountry>
            <rdf:Bag>
               <rdf:li>enterprise:region-country/global</rdf:li>
            </rdf:Bag>
         </bsam:usageCountry>
      </rdf:Description>
   </rdf:RDF>
</x:xmpmeta>
                                                                                                    
                                                                                                    
                                                                                                    
                                                                                                    
                                                                                                    
                                                                                                    
                                                                                                    
                                                                                                    
                                                                                                    
                                                                                                    
                                                                                                    
                                                                                                    
                                                                                                    
                                                                                                    
                                                                                                    
                                                                                                    
                                                                                                    
                                                                                                    
                                                                            
<?xpacket end="w"?></metadata>
<style type="text/css">
	.st0{stroke:#455560;stroke-width:1.5749;stroke-miterlimit:10;}
</style>
<rect x="902.7" y="6879.6" class="st0" width="302.4" height="302.4"/>
<path d="M1154.8,6972.8h-4.8v-7.2c0-2.6-2.1-4.8-4.8-4.8h-0.1c-2.6,0-4.8,2.1-4.8,4.8v7.2h-19.2v-7.2c0-2.6-2.1-4.8-4.8-4.8h-0.1
	c-2.6,0-4.8,2.1-4.8,4.8v7.2h-16.8l-6.2-32.9c-0.5-6.1-5.6-10.9-11.8-10.9h-46c-6.2,0-11.3,4.8-11.8,10.9l-6.2,32.9h-16.7v-7.2
	c0-2.6-2.1-4.8-4.8-4.8h-0.1c-2.6,0-4.8,2.1-4.8,4.8v7.2h-19.2v-7.2c0-2.6-2.1-4.8-4.8-4.8h-0.1c-2.6,0-4.8,2.1-4.8,4.8v7.2h-4.8
	c-2.6,0-4.8,2.1-4.8,4.8v1.5c0,2.6,2.2,4.8,4.8,4.8l56.2,10.4l-20.4,109.4h-17.4c-7.5,0-13.6,6.1-13.6,13.6v1.6
	c0,7.5,6.1,13.6,13.6,13.6h165c7.5,0,13.6-6.1,13.6-13.6v-1.6c0-7.5-6.1-13.6-13.6-13.6h-17.4l-20.4-109.7l56.3-10.1
	c2.6,0,4.8-2.1,4.8-4.8v-1.5C1159.6,6974.9,1157.5,6972.8,1154.8,6972.8z M1092.2,7054.1l-69.7-17.6l61.1-31L1092.2,7054.1z
	 M1017.2,7045.1l71.1,17.9l-81.7,36.3L1017.2,7045.1z M1074,6952.1l6.3,35.3l-43.1-13.3L1074,6952.1z M1068.6,6944.2l-37.4,22.3
	l4-22.3H1068.6z M1028.5,6981.5l50.4,15.6l-58.4,29.7L1028.5,6981.5z M1019.4,7103.7l75.6-33.2l6.8,33.2H1019.4z"/>
<g>
	<path d="M77.3,123.6c-15.2,0-27.6,12.4-27.6,27.6s12.4,27.6,27.6,27.6s27.6-12.4,27.6-27.6S92.6,123.6,77.3,123.6z"/>
	<path d="M151.2,123.6c-15.2,0-27.6,12.4-27.6,27.6s12.4,27.6,27.6,27.6s27.6-12.4,27.6-27.6S166.4,123.6,151.2,123.6z"/>
	<path d="M225,123.6c-15.2,0-27.6,12.4-27.6,27.6s12.4,27.6,27.6,27.6s27.6-12.4,27.6-27.6S240.3,123.6,225,123.6z"/>
</g>
</svg>
