<?xml version="1.0" encoding="utf-8"?>
<!-- Generator: Adobe Illustrator 26.3.1, SVG Export Plug-In . SVG Version: 6.00 Build 0)  -->
<svg version="1.1" id="Layer_1" xmlns="http://www.w3.org/2000/svg" xmlns:xlink="http://www.w3.org/1999/xlink" x="0px" y="0px"
	 viewBox="0 0 302.4 302.4" style="enable-background:new 0 0 302.4 302.4;" xml:space="preserve">
<metadata><?xpacket begin="﻿" id="W5M0MpCehiHzreSzNTczkc9d"?>
<x:xmpmeta xmlns:x="adobe:ns:meta/" x:xmptk="Adobe XMP Core 8.0-c001 1.000000, 0000/00/00-00:00:00        ">
   <rdf:RDF xmlns:rdf="http://www.w3.org/1999/02/22-rdf-syntax-ns#">
      <rdf:Description rdf:about=""
            xmlns:dc="http://purl.org/dc/elements/1.1/"
            xmlns:prism="http://prismstandard.org/namespaces/basic/2.1/"
            xmlns:tiff="http://ns.adobe.com/tiff/1.0/"
            xmlns:bsam="http://www.bsam.blog">
         <dc:modified>2025-09-09T17:16:40.724Z</dc:modified>
         <dc:format>image/svg+xml</dc:format>
         <prism:Date>2025-09-08T19:20:00.000+02:00</prism:Date>
         <tiff:ImageWidth>302</tiff:ImageWidth>
         <tiff:ImageLength>302</tiff:ImageLength>
         <bsam:rightsLimitedUnlimited>unlimited</bsam:rightsLimitedUnlimited>
         <bsam:subDigitalAssetType>
            <rdf:Bag>
               <rdf:li>enterprise:digital-asset-type/image/icon</rdf:li>
            </rdf:Bag>
         </bsam:subDigitalAssetType>
         <bsam:industry>
            <rdf:Bag>
               <rdf:li>enterprise:industry/generic-all-industries</rdf:li>
            </rdf:Bag>
         </bsam:industry>
         <bsam:assetOwner>
            <rdf:Bag>
               <rdf:li>enterprise:business-unit/webfleet</rdf:li>
            </rdf:Bag>
         </bsam:assetOwner>
         <bsam:usageCountry>
            <rdf:Bag>
               <rdf:li>enterprise:region-country/global</rdf:li>
            </rdf:Bag>
         </bsam:usageCountry>
      </rdf:Description>
   </rdf:RDF>
</x:xmpmeta>
                                                                                                    
                                                                                                    
                                                                                                    
                                                                                                    
                                                                                                    
                                                                                                    
                                                                                                    
                                                                                                    
                                                                                                    
                           
<?xpacket end="w"?></metadata>
<g>
	<path d="M246.5,142.7c-3.8,1.7-7.8,3-12,3.8c0.6,1.4,1.1,2.6,1.4,4l0.2,0.9h-28.4l0-0.7c-0.1-1.9-0.2-3.8-0.3-5.6
		c-4-1.2-7.8-2.9-11.5-5c0.4,3.9,0.7,7.3,0.8,10.5l0,0.8h-42.2v-42.1l0.8,0c5.4,0.2,10.8,0.7,16.2,1.5c-1.3-3.7-2.2-7.5-2.7-11.4
		c-4.6-0.6-9.1-0.9-13.5-1.1l-0.7,0V70l0.9,0.2c5,1.3,9.9,4.2,14.5,8.5c1.5-5.8,3.8-11.2,7.1-16.3c-9.1-2.7-18.5-4-28-4
		c-54.3,0-98.4,44.1-98.4,98.4c0,25.7,9.9,50.1,27.8,68.5c17.9,18.4,41.8,29,67.4,29.8c2.3,0.2,4.2,0.2,6.4,0
		c24.9-0.8,48.4-10.9,66.1-28.5c17.7-17.5,28-40.9,29-65.7c0.2-1.6,0.2-2.8,0.2-4c0-1.1-0.1-2.4-0.2-3.8
		C247.3,149.8,247,146.2,246.5,142.7z M69.3,120.9c8.8-19.4,24.2-34.9,43.6-43.8l2.8-1.3l-1.9,2.4c-6.1,7.7-11.1,17.1-15,28
		l-0.1,0.3l-0.3,0.1c-10.8,3.9-20.2,9-27.9,15.1l-2.4,1.9L69.3,120.9z M62.6,150.5c3.3-12.5,15.5-21.4,22.5-25.6
		c2.3-1.4,4.9-2.8,8.2-4.3l1.4-0.7l-0.3,1.5c-2.2,9.4-3.4,19.2-3.8,29.2l0,0.7H62.3L62.6,150.5z M62.3,162.3h28.2l0,0.7
		c0.4,10.1,1.7,20,3.9,29.5l0.3,1.5l-1.4-0.7c-3.3-1.5-5.9-2.9-8.2-4.3c-7.1-4.2-19.3-13.2-22.6-25.8L62.3,162.3z M112.7,236.4
		c-19.1-8.8-34.4-24.1-43.2-43.2l-1.3-2.8l2.4,1.9c7.6,6,16.9,11,27.7,14.9l0.3,0.1l0.1,0.3c3.9,10.7,8.8,20,14.8,27.5l1.9,2.4
		L112.7,236.4z M143.7,243.8l-0.9-0.2c-12.6-3.3-21.5-15.5-25.7-22.5c-1.4-2.4-2.8-5-4.3-8.3l-0.7-1.4l1.5,0.4
		c9.4,2.2,19.3,3.5,29.4,3.9l0.7,0L143.7,243.8L143.7,243.8z M143.7,204.7l-0.8,0c-12.5-0.5-24.3-2.4-35.2-5.8l-0.4-0.1l-0.1-0.4
		c-3.3-10.9-5.2-22.7-5.8-35.3l0-0.8h42.2V204.7z M143.7,151.4h-42.2l0-0.8c0.5-12.4,2.4-24.2,5.7-35l0.1-0.4l0.4-0.1
		c10.9-3.3,22.7-5.3,35.2-5.8l0.8,0L143.7,151.4L143.7,151.4z M143.7,98.4l-0.7,0c-10.1,0.4-20.1,1.7-29.5,3.9l-1.5,0.3l0.7-1.4
		c1.6-3.4,3-6.1,4.4-8.5c4.2-7,13.2-19.3,25.7-22.6l0.9-0.2L143.7,98.4L143.7,98.4z M154.6,162.3h42.2l0,0.8
		c-0.5,12.6-2.4,24.4-5.8,35.4l-0.1,0.4l-0.4,0.1c-10.9,3.3-22.7,5.2-35.1,5.7l-0.8,0V162.3z M155.5,243.5l-0.9,0.2v-28.1l0.7,0
		c10.1-0.4,19.9-1.6,29.3-3.8l1.5-0.4l-0.7,1.4c-1.5,3.2-2.9,5.9-4.3,8.2C177,228,168.1,240.2,155.5,243.5z M228.5,193.6
		c-8.8,18.9-24.1,34.1-43,42.8l-2.8,1.3l1.9-2.4c5.9-7.5,10.8-16.7,14.7-27.4l0.1-0.3l0.3-0.1c10.7-3.8,20-8.8,27.6-14.7l2.4-1.9
		L228.5,193.6z M235.9,163.3c-3.2,12.6-15.5,21.6-22.6,25.8c-2.4,1.4-5.1,2.9-8.5,4.4l-1.4,0.6l0.4-1.5c2.2-9.5,3.5-19.5,3.9-29.6
		l0-0.7h28.4L235.9,163.3z"/>
	<polygon points="225.6,96.1 225.6,74.8 207.9,96.1 	"/>
	<path d="M223.7,44.2c-26.6,0-48.1,21.5-48.1,48.1c0,26.6,21.5,48.1,48.1,48.1c26.6,0,48.1-21.5,48.1-48.1
		C271.8,65.7,250.2,44.2,223.7,44.2z M242.4,103.9h-7.7V116h-9.1v-12.1h-27.1l-1.8-6.8l29.9-35.4h8.1v34.4h7.7L242.4,103.9
		L242.4,103.9z"/>
</g>
</svg>
