<?xml version="1.0" encoding="utf-8"?>
<!-- Generator: Adobe Illustrator 26.3.1, SVG Export Plug-In . SVG Version: 6.00 Build 0)  -->
<svg version="1.1" id="Layer_1" xmlns="http://www.w3.org/2000/svg" xmlns:xlink="http://www.w3.org/1999/xlink" x="0px" y="0px"
	 viewBox="0 0 302.4 302.4" style="enable-background:new 0 0 302.4 302.4;" xml:space="preserve">
<metadata><?xpacket begin="﻿" id="W5M0MpCehiHzreSzNTczkc9d"?>
<x:xmpmeta xmlns:x="adobe:ns:meta/" x:xmptk="Adobe XMP Core 8.0-c001 1.000000, 0000/00/00-00:00:00        ">
   <rdf:RDF xmlns:rdf="http://www.w3.org/1999/02/22-rdf-syntax-ns#">
      <rdf:Description rdf:about=""
            xmlns:dc="http://purl.org/dc/elements/1.1/"
            xmlns:prism="http://prismstandard.org/namespaces/basic/2.1/"
            xmlns:tiff="http://ns.adobe.com/tiff/1.0/"
            xmlns:bsam="http://www.bsam.blog">
         <dc:modified>2025-09-09T17:27:20.399Z</dc:modified>
         <dc:format>image/svg+xml</dc:format>
         <prism:Date>2025-09-08T19:20:00.000+02:00</prism:Date>
         <tiff:ImageWidth>302</tiff:ImageWidth>
         <tiff:ImageLength>302</tiff:ImageLength>
         <bsam:rightsLimitedUnlimited>unlimited</bsam:rightsLimitedUnlimited>
         <bsam:subDigitalAssetType>
            <rdf:Bag>
               <rdf:li>enterprise:digital-asset-type/image/icon</rdf:li>
            </rdf:Bag>
         </bsam:subDigitalAssetType>
         <bsam:industry>
            <rdf:Bag>
               <rdf:li>enterprise:industry/generic-all-industries</rdf:li>
            </rdf:Bag>
         </bsam:industry>
         <bsam:assetOwner>
            <rdf:Bag>
               <rdf:li>enterprise:business-unit/webfleet</rdf:li>
            </rdf:Bag>
         </bsam:assetOwner>
         <bsam:usageCountry>
            <rdf:Bag>
               <rdf:li>enterprise:region-country/global</rdf:li>
            </rdf:Bag>
         </bsam:usageCountry>
      </rdf:Description>
   </rdf:RDF>
</x:xmpmeta>
                                                                                                    
                                                                                                    
                                                                                                    
                                                                                                    
                                                                                                    
                                                                                                    
                                                                                                    
                                                                                                    
                                                                                                    
                                                                                                    
                                                                                                    
                                                                                                    
                                                                                                    
                                                                                                    
                                                                                                    
                                                                                                    
                                                                                                    
                                                                                                    
                                                                            
<?xpacket end="w"?></metadata>
<g>
	<g>
		<g>
			<path d="M245,56.1c-10.2-10.2-24.2-16.5-39.7-16.5c-15.5,0-29.5,6.3-39.7,16.5c-2.8,2.8-5.3,6-7.5,9.3c3,1.2,5.9,2.6,8.7,4.1
				c8.4-12.3,22.6-20.5,38.6-20.5c25.9,0,46.8,21,46.8,46.9c0,22.1-15.3,40.5-35.8,45.5c0.5,4,0.8,8.1,0.8,12.2c0,2-0.1,4-0.2,6
				c9.4-7.6,22-18,27.9-23.9c10.1-10.2,16.4-24.2,16.4-39.7C261.4,80.3,255.1,66.3,245,56.1z"/>
		</g>
	</g>
	<path d="M182.1,93.3c-15.5-15.5-36.9-25-60.5-25c-23.6,0-45,9.6-60.5,25.1S36,130.1,36,153.8c0,23.6,9.6,45,25.1,60.5
		c15.5,15.5,60.5,50.7,60.5,50.7s45-35.2,60.5-50.7c15.5-15.5,25.1-36.9,25.1-60.5C207.1,130.1,197.6,108.8,182.1,93.3z
		 M121.6,222.2c-37.8,0-68.4-30.6-68.4-68.4s30.6-68.4,68.4-68.4S190,116,190,153.8S159.4,222.2,121.6,222.2z"/>
	<g>
		<path d="M112.9,112.9h18.4l29.4,69.6h-20.5l-4.9-12.4h-26.7l-4.9,12.4h-20L112.9,112.9z M129.7,155.1l-7.7-19.5l-7.8,19.5H129.7z"
			/>
	</g>
	<g>
		<path d="M221.1,94.8c4.5-2,7.8-5.4,7.8-11.3v-0.1c0-3.5-1.2-6.2-3.3-8.3c-3-2.9-7.5-4.5-13.8-4.5h-26v12.1
			c0.8,0.8,1.7,1.6,2.5,2.4c4.8,4.7,9,10,12.7,15.6h9.2c4.7,0,6.9,1.8,6.9,4.6v0.1c0,3-2.4,4.6-6.7,4.6h-3.9
			c1.9,3.7,3.5,7.4,4.9,11.3h0.6c12.1,0,19.2-5.3,19.2-14v-0.1C231.2,100.3,227.3,96.8,221.1,94.8z M215.1,86.4c0,3-2.5,4.4-6.7,4.4
			h-8.8v-8.9h9.2c4.1,0,6.4,1.5,6.4,4.3L215.1,86.4L215.1,86.4z"/>
	</g>
</g>
</svg>
