<?xml version="1.0" encoding="utf-8"?>
<!-- Generator: Adobe Illustrator 26.3.1, SVG Export Plug-In . SVG Version: 6.00 Build 0)  -->
<svg version="1.1" id="Layer_1" xmlns="http://www.w3.org/2000/svg" xmlns:xlink="http://www.w3.org/1999/xlink" x="0px" y="0px"
	 viewBox="0 0 302.4 302.4" style="enable-background:new 0 0 302.4 302.4;" xml:space="preserve">
<metadata><?xpacket begin="﻿" id="W5M0MpCehiHzreSzNTczkc9d"?>
<x:xmpmeta xmlns:x="adobe:ns:meta/" x:xmptk="Adobe XMP Core 8.0-c001 1.000000, 0000/00/00-00:00:00        ">
   <rdf:RDF xmlns:rdf="http://www.w3.org/1999/02/22-rdf-syntax-ns#">
      <rdf:Description rdf:about=""
            xmlns:dc="http://purl.org/dc/elements/1.1/"
            xmlns:prism="http://prismstandard.org/namespaces/basic/2.1/"
            xmlns:tiff="http://ns.adobe.com/tiff/1.0/"
            xmlns:bsam="http://www.bsam.blog">
         <dc:modified>2025-09-09T17:21:30.496Z</dc:modified>
         <dc:format>image/svg+xml</dc:format>
         <prism:Date>2025-09-08T19:20:00.000+02:00</prism:Date>
         <tiff:ImageWidth>302</tiff:ImageWidth>
         <tiff:ImageLength>302</tiff:ImageLength>
         <bsam:rightsLimitedUnlimited>unlimited</bsam:rightsLimitedUnlimited>
         <bsam:subDigitalAssetType>
            <rdf:Bag>
               <rdf:li>enterprise:digital-asset-type/image/icon</rdf:li>
            </rdf:Bag>
         </bsam:subDigitalAssetType>
         <bsam:industry>
            <rdf:Bag>
               <rdf:li>enterprise:industry/generic-all-industries</rdf:li>
            </rdf:Bag>
         </bsam:industry>
         <bsam:assetOwner>
            <rdf:Bag>
               <rdf:li>enterprise:business-unit/webfleet</rdf:li>
            </rdf:Bag>
         </bsam:assetOwner>
         <bsam:usageCountry>
            <rdf:Bag>
               <rdf:li>enterprise:region-country/global</rdf:li>
            </rdf:Bag>
         </bsam:usageCountry>
      </rdf:Description>
   </rdf:RDF>
</x:xmpmeta>
                                                                                                    
                                                                                                    
                                                                                                    
                                                                                                    
                                                                                                    
                                                                                                    
                                                                                                    
                                                                                                    
                                                                                                    
                                                                                                    
                                                                                                    
                                                                                                    
                                                                                                    
                                                                                                    
                                                                                                    
                                                                                                    
                                                                                                    
                                                                                                    
                                                                            
<?xpacket end="w"?></metadata>
<style type="text/css">
	.st0{fill-rule:evenodd;clip-rule:evenodd;}
</style>
<path class="st0" d="M288.2,167.4c6,11.8,3.2,25.6-7,32.2c-5.5,3.5-12.1,3.5-17.6,0.1c-10.3-6.5-13.2-20.4-7.1-32.3
	c3.9-7.6,9.1-14.9,13.4-22.6c2.1-3.8,2.8-3.8,4.8-0.1C279.1,152.5,284.3,159.8,288.2,167.4L288.2,167.4z M139.7,109.9v13.9
	c10.9,0,17.5,0,28.4,0l8.5,11.3l67.4-26.6c7.3-2.9,13.7-2,19.1,3.4l11.5,11.5l-10.8,14.2l-8.3-6.3c-8.5-6.5-15.6,0.8-20.7,9.4
	L193,203.4c-4.3,7.2-9.6,11.4-16.3,11.6H95c-8.3,0-13-5.3-13.9-15.8c0-11.9,0-20.4,0-32.3l-50.4-16.4c-5.9-1.9-10.1-8.7-10.1-16.1
	v-27.8c0-9,6.5-15.4,13.6-13l51,16.6c5.1,1.7,9,7.3,9.8,13.7c11,0,17.8,0,28.8,0v-13.8h-14.7V93.2h45.3v16.8L139.7,109.9
	L139.7,109.9L139.7,109.9z M34.9,131.9l45.9,15v-18.5l-45.9-15L34.9,131.9L34.9,131.9z"/>
</svg>
