<?xml version="1.0" encoding="utf-8"?>
<!-- Generator: Adobe Illustrator 26.3.1, SVG Export Plug-In . SVG Version: 6.00 Build 0)  -->
<svg version="1.1" id="Layer_1" xmlns="http://www.w3.org/2000/svg" xmlns:xlink="http://www.w3.org/1999/xlink" x="0px" y="0px"
	 viewBox="0 0 302.4 302.4" style="enable-background:new 0 0 302.4 302.4;" xml:space="preserve">
<metadata><?xpacket begin="﻿" id="W5M0MpCehiHzreSzNTczkc9d"?>
<x:xmpmeta xmlns:x="adobe:ns:meta/" x:xmptk="Adobe XMP Core 8.0-c001 1.000000, 0000/00/00-00:00:00        ">
   <rdf:RDF xmlns:rdf="http://www.w3.org/1999/02/22-rdf-syntax-ns#">
      <rdf:Description rdf:about=""
            xmlns:bsam="http://www.bsam.blog"
            xmlns:tiff="http://ns.adobe.com/tiff/1.0/"
            xmlns:prism="http://prismstandard.org/namespaces/basic/2.1/"
            xmlns:dc="http://purl.org/dc/elements/1.1/">
         <bsam:rightsLimitedUnlimited>unlimited</bsam:rightsLimitedUnlimited>
         <bsam:assetOwner>
            <rdf:Bag>
               <rdf:li>enterprise:business-unit/webfleet</rdf:li>
            </rdf:Bag>
         </bsam:assetOwner>
         <bsam:industry>
            <rdf:Bag>
               <rdf:li>enterprise:industry/generic-all-industries</rdf:li>
            </rdf:Bag>
         </bsam:industry>
         <bsam:subDigitalAssetType>
            <rdf:Bag>
               <rdf:li>enterprise:digital-asset-type/image/icon</rdf:li>
            </rdf:Bag>
         </bsam:subDigitalAssetType>
         <bsam:usageCountry>
            <rdf:Bag>
               <rdf:li>enterprise:region-country/global</rdf:li>
            </rdf:Bag>
         </bsam:usageCountry>
         <tiff:ImageLength>302</tiff:ImageLength>
         <tiff:ImageWidth>302</tiff:ImageWidth>
         <prism:Date>2025-09-08T19:20:00.000+02:00</prism:Date>
         <dc:modified>2025-09-09T17:27:56.775Z</dc:modified>
         <dc:format>image/svg+xml</dc:format>
      </rdf:Description>
   </rdf:RDF>
</x:xmpmeta>
                                                                                                    
                                                                                                    
                                                                                                    
                                                                                                    
                                                                                                    
                                                                                                    
                                                                                                    
                                                                                                    
                                                                                                    
                                                                                                    
                                                                                                    
                                                                                                    
                                                                                                    
                                                                                                    
                                                                                                    
                                                                                                    
                                                                                                    
                                                                                                    
                                                                            
<?xpacket end="w"?></metadata>
<g>
	<path d="M250.1,83.2H55.9c-6.2,0-11.2,5.9-11.2,13.1v108c0,7.2,5,13.1,11.2,13.1h194.3c6.2,0,11.2-5.9,11.2-13.1v-108
		C261.3,89.1,256.3,83.2,250.1,83.2z M233.7,176.1c-2.1,8.4-5.6,14.2-12.5,14.2H82.9c-6.9,0-10.8-6.3-12.5-14.2l-10.6-49.4
		c0-7.9,5.6-14.2,12.5-14.2h159.6c6.9,0,12.5,6.4,12.5,14.2L233.7,176.1z"/>
	<g>
		<path d="M221.8,157.6H83.1c-2.4,0-4.3-2.1-4.3-4.7s1.9-4.7,4.3-4.7h138.7c2.4,0,4.3,2.1,4.3,4.7S224.2,157.6,221.8,157.6z"/>
	</g>
	<path d="M118.3,131.1c0,2.8-2.3,5.1-5.1,5.1s-5.1-2.3-5.1-5.1s2.3-5.1,5.1-5.1S118.3,128.3,118.3,131.1z"/>
	<path d="M141.9,131.1c0,2.8-2.3,5.1-5.1,5.1s-5.1-2.3-5.1-5.1s2.3-5.1,5.1-5.1S141.9,128.3,141.9,131.1z"/>
	<path d="M165.4,131.1c0,2.8-2.3,5.1-5.1,5.1c-2.8,0-5.1-2.3-5.1-5.1s2.3-5.1,5.1-5.1C163.1,126,165.4,128.3,165.4,131.1z"/>
	<path d="M188.9,131.1c0,2.8-2.3,5.1-5.1,5.1s-5.1-2.3-5.1-5.1s2.3-5.1,5.1-5.1S188.9,128.3,188.9,131.1z"/>
	<path d="M102.2,174.4c0,2.8-2.3,5.1-5.1,5.1s-5.1-2.3-5.1-5.1c0-2.8,2.3-5.1,5.1-5.1C99.9,169.3,102.2,171.6,102.2,174.4z"/>
	<path d="M125.7,174.4c0,2.8-2.3,5.1-5.1,5.1s-5.1-2.3-5.1-5.1c0-2.8,2.3-5.1,5.1-5.1C123.4,169.3,125.7,171.6,125.7,174.4z"/>
	<path d="M149.2,174.4c0,2.8-2.3,5.1-5.1,5.1c-2.8,0-5.1-2.3-5.1-5.1c0-2.8,2.3-5.1,5.1-5.1C146.9,169.3,149.2,171.6,149.2,174.4z"
		/>
	<path d="M211.2,174.4c0,2.8-2.3,5.1-5.1,5.1c-2.8,0-5.1-2.3-5.1-5.1c0-2.8,2.3-5.1,5.1-5.1C208.9,169.3,211.2,171.6,211.2,174.4z"
		/>
	<path d="M221.4,131.1c0,2.8-2.3,5.1-5.1,5.1s-5.1-2.3-5.1-5.1s2.3-5.1,5.1-5.1C219.1,126,221.4,128.3,221.4,131.1z"/>
</g>
</svg>
