<?xml version="1.0" encoding="utf-8"?>
<!-- Generator: Adobe Illustrator 26.3.1, SVG Export Plug-In . SVG Version: 6.00 Build 0)  -->
<svg version="1.1" id="Layer_1" xmlns="http://www.w3.org/2000/svg" xmlns:xlink="http://www.w3.org/1999/xlink" x="0px" y="0px"
	 viewBox="0 0 302.4 302.4" style="enable-background:new 0 0 302.4 302.4;" xml:space="preserve">
<metadata><?xpacket begin="﻿" id="W5M0MpCehiHzreSzNTczkc9d"?>
<x:xmpmeta xmlns:x="adobe:ns:meta/" x:xmptk="Adobe XMP Core 8.0-c001 1.000000, 0000/00/00-00:00:00        ">
   <rdf:RDF xmlns:rdf="http://www.w3.org/1999/02/22-rdf-syntax-ns#">
      <rdf:Description rdf:about=""
            xmlns:dc="http://purl.org/dc/elements/1.1/"
            xmlns:prism="http://prismstandard.org/namespaces/basic/2.1/"
            xmlns:tiff="http://ns.adobe.com/tiff/1.0/"
            xmlns:bsam="http://www.bsam.blog">
         <dc:modified>2025-09-09T17:31:32.055Z</dc:modified>
         <dc:format>image/svg+xml</dc:format>
         <prism:Date>2025-09-08T19:20:00.000+02:00</prism:Date>
         <tiff:ImageWidth>302</tiff:ImageWidth>
         <tiff:ImageLength>302</tiff:ImageLength>
         <bsam:rightsLimitedUnlimited>unlimited</bsam:rightsLimitedUnlimited>
         <bsam:subDigitalAssetType>
            <rdf:Bag>
               <rdf:li>enterprise:digital-asset-type/image/icon</rdf:li>
            </rdf:Bag>
         </bsam:subDigitalAssetType>
         <bsam:industry>
            <rdf:Bag>
               <rdf:li>enterprise:industry/generic-all-industries</rdf:li>
            </rdf:Bag>
         </bsam:industry>
         <bsam:assetOwner>
            <rdf:Bag>
               <rdf:li>enterprise:business-unit/webfleet</rdf:li>
            </rdf:Bag>
         </bsam:assetOwner>
         <bsam:usageCountry>
            <rdf:Bag>
               <rdf:li>enterprise:region-country/global</rdf:li>
            </rdf:Bag>
         </bsam:usageCountry>
      </rdf:Description>
   </rdf:RDF>
</x:xmpmeta>
                                                                                                    
                                                                                                    
                                                                                                    
                                                                                                    
                                                                                                    
                                                                                                    
                                                                                                    
                                                                                                    
                                                                                                    
                                                                                                    
                                                                                                    
                                                                                                    
                                                                                                    
                                                                                                    
                                                                                                    
                                                                                                    
                                                                                                    
                                                                                                    
                                                                            
<?xpacket end="w"?></metadata>
<g>
	<path d="M151.2,73.5c-5.4,0-9.8-4.4-9.8-9.8c0-5.4,4.4-9.8,9.8-9.8c5.4,0,9.8,4.4,9.8,9.8C161,69.1,156.6,73.5,151.2,73.5
		 M192.5,74l-21.8-10.9c-0.3-10.5-8.9-19-19.6-19s-19.2,8.5-19.6,19L109.8,74c-2,1-3.1,3.3-2.6,5.5s2.5,3.8,4.8,3.8h78.3
		c2.3,0,4.2-1.6,4.8-3.8C195.6,77.3,194.6,75,192.5,74"/>
	<g>
		<path d="M91.8,55.2c-9.8,0-19.2,3.8-26.2,10.8c-7.1,7-11,16.2-11,25.9v129.7c0,20.2,17,36.7,37.9,36.7H210
			c20.9,0,37.9-16.4,37.9-36.7V91.9c0-9.8-4-19-11.2-25.9c-7.2-7-17-10.8-27.4-10.8h-28.7c0.1,0.2,0.1,0.4,0.2,0.6l16.7,8.3
			c3.4,1.7,6.1,4.6,7.5,8.1h4.3c12,0,21.5,8.6,21.5,19.6v129.7c0,10.8-9.4,19.6-20.9,19.6H92.4c-11.5,0-20.8-8.8-20.8-19.6V91.9
			c0-10.6,9.3-19.6,20.2-19.6h5.5c1.5-3.5,4.1-6.4,7.5-8.1l16.7-8.3c0.1-0.2,0.1-0.4,0.2-0.6L91.8,55.2L91.8,55.2z"/>
	</g>
	<path d="M190.4,132.2H112c-5.4,0-9.8-4.4-9.8-9.8c0-5.4,4.4-9.8,9.8-9.8h78.3c5.4,0,9.8,4.4,9.8,9.8
		C200.1,127.9,195.8,132.2,190.4,132.2"/>
	<path d="M190.4,181.2H112c-5.4,0-9.8-4.4-9.8-9.8c0-5.4,4.4-9.8,9.8-9.8h78.3c5.4,0,9.8,4.4,9.8,9.8
		C200.1,176.8,195.8,181.2,190.4,181.2"/>
</g>
</svg>
