<?xml version="1.0" encoding="utf-8"?>
<!-- Generator: Adobe Illustrator 26.3.1, SVG Export Plug-In . SVG Version: 6.00 Build 0)  -->
<svg version="1.1" id="Layer_1" xmlns="http://www.w3.org/2000/svg" xmlns:xlink="http://www.w3.org/1999/xlink" x="0px" y="0px"
	 viewBox="0 0 302.4 302.4" style="enable-background:new 0 0 302.4 302.4;" xml:space="preserve">
<metadata><?xpacket begin="﻿" id="W5M0MpCehiHzreSzNTczkc9d"?>
<x:xmpmeta xmlns:x="adobe:ns:meta/" x:xmptk="Adobe XMP Core 8.0-c001 1.000000, 0000/00/00-00:00:00        ">
   <rdf:RDF xmlns:rdf="http://www.w3.org/1999/02/22-rdf-syntax-ns#">
      <rdf:Description rdf:about=""
            xmlns:bsam="http://www.bsam.blog"
            xmlns:tiff="http://ns.adobe.com/tiff/1.0/"
            xmlns:prism="http://prismstandard.org/namespaces/basic/2.1/"
            xmlns:dc="http://purl.org/dc/elements/1.1/">
         <bsam:rightsLimitedUnlimited>unlimited</bsam:rightsLimitedUnlimited>
         <bsam:assetOwner>
            <rdf:Bag>
               <rdf:li>enterprise:business-unit/webfleet</rdf:li>
            </rdf:Bag>
         </bsam:assetOwner>
         <bsam:industry>
            <rdf:Bag>
               <rdf:li>enterprise:industry/generic-all-industries</rdf:li>
            </rdf:Bag>
         </bsam:industry>
         <bsam:subDigitalAssetType>
            <rdf:Bag>
               <rdf:li>enterprise:digital-asset-type/image/icon</rdf:li>
            </rdf:Bag>
         </bsam:subDigitalAssetType>
         <bsam:usageCountry>
            <rdf:Bag>
               <rdf:li>enterprise:region-country/global</rdf:li>
            </rdf:Bag>
         </bsam:usageCountry>
         <tiff:ImageLength>302</tiff:ImageLength>
         <tiff:ImageWidth>302</tiff:ImageWidth>
         <prism:Date>2025-09-08T19:20:00.000+02:00</prism:Date>
         <dc:modified>2025-09-09T17:31:36.973Z</dc:modified>
         <dc:format>image/svg+xml</dc:format>
      </rdf:Description>
   </rdf:RDF>
</x:xmpmeta>
                                                                                                    
                                                                                                    
                                                                                                    
                                                                                                    
                                                                                                    
                                                                                                    
                                                                                                    
                                                                                                    
                                                                                                    
                                                                                                    
                                                                                                    
                                                                                                    
                                                                                                    
                                                                                                    
                                                                                                    
                                                                                                    
                                                                                                    
                                                                                                    
                                                                            
<?xpacket end="w"?></metadata>
<style type="text/css">
	.st0{fill-rule:evenodd;clip-rule:evenodd;}
</style>
<g>
	<g>
		<path d="M85.4,152.4l8.3-8.2c3.4,3.4,6.9,5.4,11.2,5.4c3.7,0,6-1.9,6-4.8v-0.1c0-3-2.7-4.9-7.7-4.9h-5.5l-1.8-6.8l10.8-9.8h-18
			v-10.6h34v9.3l-11.2,9.7c6.7,1.5,12.2,5.2,12.2,13.3v0.1c0,9.6-7.7,15.7-18.2,15.7C96.4,160.8,90.1,157.5,85.4,152.4z"/>
		<path d="M134.6,155.4c-3.5-3.5-5.8-8.8-5.8-17.6v-0.1c0-14.7,7.1-25.8,21.9-25.8c6.6,0,11.2,1.8,15.7,5.2l-6.1,9.2
			c-2.9-2.2-5.6-3.6-9.4-3.6c-6.8,0-8.6,6.3-8.9,10.1c3-2.4,6.1-3.6,10.2-3.6c8.3,0,15.5,5.2,15.5,14.7v0.1c0,10.5-8.4,17-18.7,17
			C142.3,160.8,138,158.8,134.6,155.4z M155,144.6v-0.1c0-3.4-2.6-6.1-6.7-6.1s-6.5,2.6-6.5,6v0.1c0,3.4,2.6,6.1,6.7,6.1
			C152.5,150.6,155,148,155,144.6z"/>
		<path d="M173.4,136.4v-0.1c0-13.3,8.5-24.5,21.9-24.5s21.7,11,21.7,24.4v0.1c0,13.3-8.4,24.5-21.9,24.5
			C181.7,160.8,173.4,149.8,173.4,136.4z M203.8,136.4v-0.1c0-7.5-3.5-13-8.8-13c-5.2,0-8.6,5.3-8.6,12.8v0.1
			c0,7.5,3.5,12.9,8.8,12.9C200.5,149.2,203.8,143.9,203.8,136.4z"/>
		<path d="M215.8,112.9L215.8,112.9c0-3.9,3.1-7.1,7.2-7.1s7.1,3.1,7.1,7v0.1c0,3.8-3.1,7-7.2,7
			C218.8,119.8,215.8,116.7,215.8,112.9z M227,112.9L227,112.9c0-2.4-1.7-4.4-4.1-4.4c-2.5,0-4,1.9-4,4.3v0.1c0,2.3,1.7,4.3,4.1,4.3
			C225.4,117.1,227,115.2,227,112.9z"/>
	</g>
	<g>
		<path d="M85.4,184.1L85.4,184.1c0-5.4,4.2-9.9,10-9.9c5.9,0,10,4.4,10,9.8v0.1c0,5.4-4.2,9.9-10,9.9
			C89.5,194,85.4,189.5,85.4,184.1z M101.9,184.1L101.9,184.1c0-3.8-2.7-6.9-6.5-6.9s-6.4,3-6.4,6.7v0.1c0,3.7,2.7,6.8,6.5,6.8
			S101.9,187.9,101.9,184.1z"/>
		<path d="M109.6,179.2h3.3v2.4c1.1-1.5,2.6-2.7,4.9-2.7c3.4,0,6.7,2.7,6.7,7.5v0.1c0,4.8-3.3,7.5-6.7,7.5c-2.4,0-3.9-1.2-4.9-2.5
			v6.6h-3.3V179.2z M121.1,186.5L121.1,186.5c0-2.8-1.9-4.7-4.1-4.7c-2.2,0-4.2,1.9-4.2,4.6v0.1c0,2.8,2,4.6,4.2,4.6
			C119.2,191.1,121.1,189.3,121.1,186.5z"/>
		<path d="M128.6,189.7v-7.6h-1.8v-2.8h1.8v-4h3.3v4h3.9v2.8h-3.9v7.1c0,1.3,0.6,1.8,1.8,1.8c0.7,0,1.4-0.2,2.1-0.5v2.7
			c-0.8,0.5-1.8,0.7-3,0.7C130.3,193.9,128.6,192.8,128.6,189.7z"/>
		<path d="M139.2,173.9h3.6v3.1h-3.6V173.9z M139.3,179.2h3.3v14.4h-3.3V179.2z"/>
		<path d="M147.6,174.5h7.1c6,0,10.2,4.1,10.2,9.5v0.1c0,5.4-4.1,9.6-10.2,9.6h-7.1V174.5z M154.8,190.6c4,0,6.6-2.7,6.6-6.4v-0.1
			c0-3.7-2.6-6.5-6.6-6.5H151v13H154.8z"/>
		<path d="M169,179.2h3.3v3.2c0.9-2.2,2.6-3.6,5.1-3.5v3.5h-0.2c-2.9,0-4.9,1.9-4.9,5.7v5.5H169V179.2z"/>
		<path d="M180.3,173.9h3.6v3.1h-3.6V173.9z M180.5,179.2h3.3v14.4h-3.3V179.2z"/>
		<path d="M186.7,179.2h3.6l3.9,10.6l3.9-10.6h3.5l-5.9,14.4h-3L186.7,179.2z"/>
		<path d="M203.1,186.5L203.1,186.5c0-4.2,2.9-7.6,7.1-7.6c4.6,0,6.9,3.6,6.9,7.8c0,0.3,0,0.6-0.1,0.9h-10.6c0.4,2.4,2,3.7,4.1,3.7
			c1.6,0,2.8-0.6,3.9-1.7l1.9,1.7c-1.4,1.6-3.2,2.7-5.9,2.7C206.3,194,203.1,190.9,203.1,186.5z M213.7,185.4
			c-0.2-2.1-1.5-3.8-3.7-3.8c-2,0-3.4,1.6-3.7,3.8H213.7z"/>
	</g>
	<path class="st0" d="M229.5,226.4c19.4-19.8,31.3-46.8,31.3-76.6c0-60.4-49.2-109.6-109.6-109.6S41.6,89.4,41.6,149.9
		s49.2,109.6,109.6,109.6c9.7,0,19.1-1.3,28-3.7l1.4,16.8l25.1-36.1l-43.5-6.4l11.3,12.6c-7.2,1.7-14.7,2.7-22.4,2.7
		c-52.7,0-95.5-42.8-95.5-95.5s42.8-95.5,95.5-95.5s95.5,42.8,95.5,95.5c0,26.2-10.6,50-27.8,67.2c0,0-0.1,0.1-0.1,0.1l0,0
		c0,0,0,0,0,0c-0.8,1.1-1.1,2.4-1.1,3.8c0,3.9,3.2,7.1,7.1,7.1C226.6,228.2,228.1,227.6,229.5,226.4
		C229.4,226.5,229.4,226.5,229.5,226.4L229.5,226.4C229.4,226.5,229.4,226.5,229.5,226.4z"/>
</g>
</svg>
