<?xml version="1.0" encoding="utf-8"?>
<!-- Generator: Adobe Illustrator 26.3.1, SVG Export Plug-In . SVG Version: 6.00 Build 0)  -->
<svg version="1.1" id="Layer_1" xmlns="http://www.w3.org/2000/svg" xmlns:xlink="http://www.w3.org/1999/xlink" x="0px" y="0px"
	 viewBox="0 0 302.4 302.4" style="enable-background:new 0 0 302.4 302.4;" xml:space="preserve">
<metadata><?xpacket begin="﻿" id="W5M0MpCehiHzreSzNTczkc9d"?>
<x:xmpmeta xmlns:x="adobe:ns:meta/" x:xmptk="Adobe XMP Core 8.0-c001 1.000000, 0000/00/00-00:00:00        ">
   <rdf:RDF xmlns:rdf="http://www.w3.org/1999/02/22-rdf-syntax-ns#">
      <rdf:Description rdf:about=""
            xmlns:dc="http://purl.org/dc/elements/1.1/"
            xmlns:prism="http://prismstandard.org/namespaces/basic/2.1/"
            xmlns:tiff="http://ns.adobe.com/tiff/1.0/"
            xmlns:bsam="http://www.bsam.blog">
         <dc:modified>2025-09-09T17:12:21.187Z</dc:modified>
         <dc:format>image/svg+xml</dc:format>
         <prism:Date>2025-09-08T19:20:00.000+02:00</prism:Date>
         <tiff:ImageWidth>302</tiff:ImageWidth>
         <tiff:ImageLength>302</tiff:ImageLength>
         <bsam:rightsLimitedUnlimited>unlimited</bsam:rightsLimitedUnlimited>
         <bsam:subDigitalAssetType>
            <rdf:Bag>
               <rdf:li>enterprise:digital-asset-type/image/icon</rdf:li>
            </rdf:Bag>
         </bsam:subDigitalAssetType>
         <bsam:industry>
            <rdf:Bag>
               <rdf:li>enterprise:industry/generic-all-industries</rdf:li>
            </rdf:Bag>
         </bsam:industry>
         <bsam:assetOwner>
            <rdf:Bag>
               <rdf:li>enterprise:business-unit/webfleet</rdf:li>
            </rdf:Bag>
         </bsam:assetOwner>
         <bsam:usageCountry>
            <rdf:Bag>
               <rdf:li>enterprise:region-country/global</rdf:li>
            </rdf:Bag>
         </bsam:usageCountry>
      </rdf:Description>
   </rdf:RDF>
</x:xmpmeta>
                                                                                                    
                                                                                                    
                                                                                                    
                                                                                                    
                                                                                                    
                                                                                                    
                                                                                                    
                                                                                                    
                                                                                                    
                           
<?xpacket end="w"?></metadata>
<g id="g9382" transform="matrix(0.61599701,0,0,0.61599701,-599.75295,6752.11)">
	<path id="path3313-9" d="M1221.1-10851.7c-12.7,0.1-25.9-0.2-35.4,5c-13.9,7.5-76.9,55.7-87.1,65.9c-11.3,11.3,23.2,37.1,56.3,21.9
		c29.5-13.6,49.5-36,62.5-37.5c2.8-0.5,4.5-0.7,8,2.3l139.7,160.1c6.2-3.4,14-6.5,20.3-6.2v-160.6c0,0-75-14.5-100.7-34.7
		C1270.6-10846.5,1245.3-10852,1221.1-10851.7L1221.1-10851.7z"/>
	<path id="path3315-2" d="M1116.2-10826.3c-17.8,5.6-21,10.9-29.6,18.1c-11.9,10-17,9.2-25.2,7v150.9c0,0,10.9-2.2,29.1,12
		c18.2,14.3,93.6,78.5,108.3,77.3c8.2,0.8,25.9-6.5,21.4-22.1c20.8,16.3,35.7,10.4,37.6,9.1c0,0,12.4-6.6,8.4-20.2
		c6.5,4.6,25,16.9,37.6,7.8c6.5-4.5,7.1-18.2,4.6-22.1c-2.6-3.9,44.5,20.6,43.4-18.7c0.2-1.2-0.1-2.3,0-3.5l-128.9-148.8
		c-3.7-4.2-10.7,0-16.3,3.9c-9.3,5.9-17.5,13.5-26.8,19.2c-21.9,15.9-53.1,22-77.5,8.1c-13.6-5.8-27.3-27.7-18.1-37.1
		c14.3-15.8,31.4-28.6,48.7-41C1129.7-10828.3,1119.9-10827.4,1116.2-10826.3L1116.2-10826.3z"/>
</g>
</svg>
