<?xml version="1.0" encoding="utf-8"?>
<!-- Generator: Adobe Illustrator 26.3.1, SVG Export Plug-In . SVG Version: 6.00 Build 0)  -->
<svg version="1.1" id="Layer_1" xmlns="http://www.w3.org/2000/svg" xmlns:xlink="http://www.w3.org/1999/xlink" x="0px" y="0px"
	 viewBox="0 0 302.4 302.4" style="enable-background:new 0 0 302.4 302.4;" xml:space="preserve">
<metadata><?xpacket begin="﻿" id="W5M0MpCehiHzreSzNTczkc9d"?>
<x:xmpmeta xmlns:x="adobe:ns:meta/" x:xmptk="Adobe XMP Core 8.0-c001 1.000000, 0000/00/00-00:00:00        ">
   <rdf:RDF xmlns:rdf="http://www.w3.org/1999/02/22-rdf-syntax-ns#">
      <rdf:Description rdf:about=""
            xmlns:dc="http://purl.org/dc/elements/1.1/"
            xmlns:prism="http://prismstandard.org/namespaces/basic/2.1/"
            xmlns:tiff="http://ns.adobe.com/tiff/1.0/"
            xmlns:bsam="http://www.bsam.blog">
         <dc:modified>2025-09-09T17:22:00.755Z</dc:modified>
         <dc:format>image/svg+xml</dc:format>
         <prism:Date>2025-09-08T19:20:00.000+02:00</prism:Date>
         <tiff:ImageWidth>302</tiff:ImageWidth>
         <tiff:ImageLength>302</tiff:ImageLength>
         <bsam:rightsLimitedUnlimited>unlimited</bsam:rightsLimitedUnlimited>
         <bsam:subDigitalAssetType>
            <rdf:Bag>
               <rdf:li>enterprise:digital-asset-type/image/icon</rdf:li>
            </rdf:Bag>
         </bsam:subDigitalAssetType>
         <bsam:industry>
            <rdf:Bag>
               <rdf:li>enterprise:industry/generic-all-industries</rdf:li>
            </rdf:Bag>
         </bsam:industry>
         <bsam:assetOwner>
            <rdf:Bag>
               <rdf:li>enterprise:business-unit/webfleet</rdf:li>
            </rdf:Bag>
         </bsam:assetOwner>
         <bsam:usageCountry>
            <rdf:Bag>
               <rdf:li>enterprise:region-country/global</rdf:li>
            </rdf:Bag>
         </bsam:usageCountry>
      </rdf:Description>
   </rdf:RDF>
</x:xmpmeta>
                                                                                                    
                                                                                                    
                                                                                                    
                                                                                                    
                                                                                                    
                                                                                                    
                                                                                                    
                                                                                                    
                                                                                                    
                                                                                                    
                                                                                                    
                                                                                                    
                                                                                                    
                                                                                                    
                                                                                                    
                                                                                                    
                                                                                                    
                                                                                                    
                                                                            
<?xpacket end="w"?></metadata>
<g>
	<path d="M194.8,194.2h-87.9c-2.9,0-5.2-2.4-5.2-5.2v-0.5c0-2.9,2.3-5.2,5.2-5.2h87.9c2.9,0,5.2,2.4,5.2,5.2v0.5
		C200,191.9,197.6,194.2,194.8,194.2z"/>
	<path d="M194.8,216.1h-87.9c-2.9,0-5.2-2.4-5.2-5.2v-0.5c0-2.9,2.3-5.2,5.2-5.2h87.9c2.9,0,5.2,2.4,5.2,5.2v0.5
		C200,213.8,197.7,216.1,194.8,216.1z"/>
	<path d="M239.1,84.9h-17.3V61.6c0-5.2-4.2-9.3-9.3-9.3H89.2c-5.2,0-9.3,4.2-9.3,9.3v23.4H62.6c-8.5,0-15.5,7-15.5,15.5v78.3
		c0,8.5,7,15.5,15.5,15.5h17.2v45.4c0,5.1,4.2,9.3,9.3,9.3h123.3c5.1,0,9.3-4.2,9.3-9.3v-45.4h17.3c8.5,0,15.5-7,15.5-15.5v-78.3
		C254.6,91.9,247.6,84.9,239.1,84.9z M90.7,63.2h120.2v21.8H90.7V63.2z M90.7,237.9v-76.5h120.2v76.5L90.7,237.9L90.7,237.9z"/>
</g>
</svg>
