<?xml version="1.0" encoding="utf-8"?>
<!-- Generator: Adobe Illustrator 26.3.1, SVG Export Plug-In . SVG Version: 6.00 Build 0)  -->
<svg version="1.1" id="Layer_1" xmlns="http://www.w3.org/2000/svg" xmlns:xlink="http://www.w3.org/1999/xlink" x="0px" y="0px"
	 viewBox="0 0 302.4 302.4" style="enable-background:new 0 0 302.4 302.4;" xml:space="preserve">
<metadata><?xpacket begin="﻿" id="W5M0MpCehiHzreSzNTczkc9d"?>
<x:xmpmeta xmlns:x="adobe:ns:meta/" x:xmptk="Adobe XMP Core 8.0-c001 1.000000, 0000/00/00-00:00:00        ">
   <rdf:RDF xmlns:rdf="http://www.w3.org/1999/02/22-rdf-syntax-ns#">
      <rdf:Description rdf:about=""
            xmlns:dc="http://purl.org/dc/elements/1.1/"
            xmlns:prism="http://prismstandard.org/namespaces/basic/2.1/"
            xmlns:tiff="http://ns.adobe.com/tiff/1.0/"
            xmlns:bsam="http://www.bsam.blog">
         <dc:modified>2025-09-09T17:12:40.613Z</dc:modified>
         <dc:format>image/svg+xml</dc:format>
         <prism:Date>2025-09-08T19:20:00.000+02:00</prism:Date>
         <tiff:ImageWidth>302</tiff:ImageWidth>
         <tiff:ImageLength>302</tiff:ImageLength>
         <bsam:rightsLimitedUnlimited>unlimited</bsam:rightsLimitedUnlimited>
         <bsam:subDigitalAssetType>
            <rdf:Bag>
               <rdf:li>enterprise:digital-asset-type/image/icon</rdf:li>
            </rdf:Bag>
         </bsam:subDigitalAssetType>
         <bsam:industry>
            <rdf:Bag>
               <rdf:li>enterprise:industry/generic-all-industries</rdf:li>
            </rdf:Bag>
         </bsam:industry>
         <bsam:assetOwner>
            <rdf:Bag>
               <rdf:li>enterprise:business-unit/webfleet</rdf:li>
            </rdf:Bag>
         </bsam:assetOwner>
         <bsam:usageCountry>
            <rdf:Bag>
               <rdf:li>enterprise:region-country/global</rdf:li>
            </rdf:Bag>
         </bsam:usageCountry>
      </rdf:Description>
   </rdf:RDF>
</x:xmpmeta>
                                                                                                    
                                                                                                    
                                                                                                    
                                                                                                    
                                                                                                    
                                                                                                    
                                                                                                    
                                                                                                    
                                                                                                    
                           
<?xpacket end="w"?></metadata>
<g>
	<path d="M237.3,59.5h-174c-7,0-12.7,5.7-12.7,12.7v28.2c0,7,5.7,12.7,12.7,12.7h174c7,0,12.7-5.7,12.7-12.7V72.2
		C249.9,65.2,244.3,59.5,237.3,59.5z M77,101.5c-8.4,0-15.3-6.8-15.3-15.3S68.6,71,77,71s15.3,6.8,15.3,15.3S85.4,101.5,77,101.5z"
		/>
	<path d="M237.3,123.6h-174c-7,0-12.7,5.7-12.7,12.7v28.1c0,7,5.7,12.7,12.7,12.7h174c7,0,12.7-5.7,12.7-12.7v-28.1
		C249.9,129.3,244.3,123.6,237.3,123.6z M77,165.6c-8.4,0-15.3-6.9-15.3-15.3c0-8.4,6.8-15.3,15.3-15.3s15.3,6.8,15.3,15.3
		C92.2,158.8,85.4,165.6,77,165.6z"/>
	<path d="M237.3,187.7h-174c-7,0-12.7,5.7-12.7,12.7v28.1c0,7,5.7,12.7,12.7,12.7h174c7,0,12.7-5.7,12.7-12.7v-28.1
		C249.9,193.4,244.3,187.7,237.3,187.7z M77,229.7c-8.4,0-15.3-6.8-15.3-15.3c0-8.4,6.8-15.3,15.3-15.3s15.3,6.8,15.3,15.3
		C92.2,222.8,85.4,229.7,77,229.7z"/>
</g>
</svg>
