<?xml version="1.0" encoding="utf-8"?>
<!-- Generator: Adobe Illustrator 26.3.1, SVG Export Plug-In . SVG Version: 6.00 Build 0)  -->
<svg version="1.1" id="Layer_1" xmlns="http://www.w3.org/2000/svg" xmlns:xlink="http://www.w3.org/1999/xlink" x="0px" y="0px"
	 viewBox="0 0 302.4 302.4" style="enable-background:new 0 0 302.4 302.4;" xml:space="preserve">
<metadata><?xpacket begin="﻿" id="W5M0MpCehiHzreSzNTczkc9d"?>
<x:xmpmeta xmlns:x="adobe:ns:meta/" x:xmptk="Adobe XMP Core 8.0-c001 1.000000, 0000/00/00-00:00:00        ">
   <rdf:RDF xmlns:rdf="http://www.w3.org/1999/02/22-rdf-syntax-ns#">
      <rdf:Description rdf:about=""
            xmlns:dc="http://purl.org/dc/elements/1.1/"
            xmlns:prism="http://prismstandard.org/namespaces/basic/2.1/"
            xmlns:tiff="http://ns.adobe.com/tiff/1.0/"
            xmlns:bsam="http://www.bsam.blog">
         <dc:modified>2025-09-09T17:10:15.934Z</dc:modified>
         <dc:format>image/svg+xml</dc:format>
         <prism:Date>2025-09-08T19:20:00.000+02:00</prism:Date>
         <tiff:ImageWidth>302</tiff:ImageWidth>
         <tiff:ImageLength>302</tiff:ImageLength>
         <bsam:rightsLimitedUnlimited>unlimited</bsam:rightsLimitedUnlimited>
         <bsam:subDigitalAssetType>
            <rdf:Bag>
               <rdf:li>enterprise:digital-asset-type/image/icon</rdf:li>
            </rdf:Bag>
         </bsam:subDigitalAssetType>
         <bsam:industry>
            <rdf:Bag>
               <rdf:li>enterprise:industry/generic-all-industries</rdf:li>
            </rdf:Bag>
         </bsam:industry>
         <bsam:assetOwner>
            <rdf:Bag>
               <rdf:li>enterprise:business-unit/webfleet</rdf:li>
            </rdf:Bag>
         </bsam:assetOwner>
         <bsam:usageCountry>
            <rdf:Bag>
               <rdf:li>enterprise:region-country/global</rdf:li>
            </rdf:Bag>
         </bsam:usageCountry>
      </rdf:Description>
   </rdf:RDF>
</x:xmpmeta>
                                                                                                    
                                                                                                    
                                                                                                    
                                                                                                    
                                                                                                    
                                                                                                    
                                                                                                    
                                                                                                    
                                                                                                    
                           
<?xpacket end="w"?></metadata>
<g>
	<path d="M151.2,44.8c-58.7,0-106.4,47.7-106.4,106.4s47.7,106.4,106.4,106.4s106.4-47.7,106.4-106.4S209.8,44.8,151.2,44.8z
		 M170.7,211.4v-40.3h36.2v40.3H170.7z M206.9,213.8v10.4c-10.5,8.1-22.8,13.9-36.2,16.8v-27.2L206.9,213.8L206.9,213.8z
		 M59.3,151.2c0-7.5,0.9-14.9,2.7-21.9h19.2v39.4H61C59.9,163.1,59.3,157.2,59.3,151.2z M83.6,129.3h16.9
		c1.1,11.6,10.1,20.8,21.5,22.5v17H83.6V129.3z M86.8,85.7h35.1V102c-10.6,1.5-19.1,9.7-21.1,20.2H83.6V89.1
		C84.6,88,85.7,86.8,86.8,85.7z M89.3,83.4c9.3-8.5,20.4-15.1,32.6-19.2v19.2H89.3z M206.9,83.4h-36.2V61.4
		c13.4,2.9,25.7,8.7,36.2,16.8V83.4z M209.3,80.1c1.3,1.1,2.6,2.1,3.8,3.3h-3.8V80.1z M206.9,85.7v36.5h-36.2V85.7H206.9z
		 M168.4,122.2h-18.2c-2-10.5-10.5-18.6-21.1-20.2V85.7h39.4V122.2z M125.4,109.4c9.6,0,17.5,7.8,17.5,17.5s-7.8,17.5-17.5,17.5
		s-17.5-7.8-17.5-17.5S115.8,109.4,125.4,109.4z M129,151.8c11.4-1.6,20.4-10.9,21.4-22.4h17.9v39.4H129V151.8z M121.9,171.1v40.3
		H83.6v-40.3H121.9z M129,171.1h39.4v40.3H129V171.1z M170.7,168.7v-39.4h36.2v39.4H170.7z M209.3,129.3h31.1
		c1.7,7,2.6,14.3,2.6,21.9c0,6-0.6,11.9-1.7,17.5h-32.1L209.3,129.3L209.3,129.3z M238.3,122.2h-29.1V85.7h6.3
		C225.8,95.8,233.7,108.3,238.3,122.2z M168.4,61v22.4H129V62.1c7.1-1.8,14.5-2.7,22.2-2.7C157.1,59.3,162.8,59.9,168.4,61z
		 M81.2,91.8v30.4H64.1C67.8,110.9,73.7,100.7,81.2,91.8z M61.5,171.1h19.7v39.5C71.7,199.4,64.8,185.9,61.5,171.1z M84,213.8h37.8
		v24.4C107.3,233.3,94.3,224.8,84,213.8z M129,240.3v-26.6h39.4v27.6c-5.6,1.1-11.3,1.6-17.2,1.6C143.5,243.1,136.1,242.1,129,240.3
		z M209.3,222.3v-8.5h9.1C215.5,216.8,212.5,219.7,209.3,222.3z M220.1,211.8v-0.4h-10.9v-40.3h31.6
		C237.4,186.5,230.2,200.4,220.1,211.8z"/>
	<path d="M125.4,138.7c6.5,0,11.7-5.3,11.7-11.8c0-6.5-5.3-11.8-11.8-11.8c-6.5,0-11.8,5.3-11.8,11.8
		C113.7,133.4,118.9,138.7,125.4,138.7z"/>
</g>
</svg>
