<?xml version="1.0" encoding="utf-8"?>
<!-- Generator: Adobe Illustrator 26.3.1, SVG Export Plug-In . SVG Version: 6.00 Build 0)  -->
<svg version="1.1" id="Layer_1" xmlns="http://www.w3.org/2000/svg" xmlns:xlink="http://www.w3.org/1999/xlink" x="0px" y="0px"
	 viewBox="0 0 302.4 302.4" style="enable-background:new 0 0 302.4 302.4;" xml:space="preserve">
<metadata><?xpacket begin="﻿" id="W5M0MpCehiHzreSzNTczkc9d"?>
<x:xmpmeta xmlns:x="adobe:ns:meta/" x:xmptk="Adobe XMP Core 8.0-c001 1.000000, 0000/00/00-00:00:00        ">
   <rdf:RDF xmlns:rdf="http://www.w3.org/1999/02/22-rdf-syntax-ns#">
      <rdf:Description rdf:about=""
            xmlns:dc="http://purl.org/dc/elements/1.1/"
            xmlns:prism="http://prismstandard.org/namespaces/basic/2.1/"
            xmlns:tiff="http://ns.adobe.com/tiff/1.0/"
            xmlns:bsam="http://www.bsam.blog">
         <dc:modified>2025-09-09T17:11:40.028Z</dc:modified>
         <dc:format>image/svg+xml</dc:format>
         <prism:Date>2025-09-08T19:20:00.000+02:00</prism:Date>
         <tiff:ImageWidth>302</tiff:ImageWidth>
         <tiff:ImageLength>302</tiff:ImageLength>
         <bsam:rightsLimitedUnlimited>unlimited</bsam:rightsLimitedUnlimited>
         <bsam:subDigitalAssetType>
            <rdf:Bag>
               <rdf:li>enterprise:digital-asset-type/image/icon</rdf:li>
            </rdf:Bag>
         </bsam:subDigitalAssetType>
         <bsam:industry>
            <rdf:Bag>
               <rdf:li>enterprise:industry/generic-all-industries</rdf:li>
            </rdf:Bag>
         </bsam:industry>
         <bsam:assetOwner>
            <rdf:Bag>
               <rdf:li>enterprise:business-unit/webfleet</rdf:li>
            </rdf:Bag>
         </bsam:assetOwner>
         <bsam:usageCountry>
            <rdf:Bag>
               <rdf:li>enterprise:region-country/global</rdf:li>
            </rdf:Bag>
         </bsam:usageCountry>
      </rdf:Description>
   </rdf:RDF>
</x:xmpmeta>
                                                                                                    
                                                                                                    
                                                                                                    
                                                                                                    
                                                                                                    
                                                                                                    
                                                                                                    
                                                                                                    
                                                                                                    
                           
<?xpacket end="w"?></metadata>
<g>
	<g>
		<path d="M87.8,119.2c0,0-0.3-13.9-14.1-13.9c-14.3,0-14,13.9-14,13.9l0,39.9c8.3-5.2,17.8-8.7,28-9.9L87.8,119.2z"/>
		<path d="M138.7,147.1c0,0-0.3-13.9-14.1-13.9c-14.3,0-14,13.9-14,13.9v3c10.4,2.2,19.9,6.7,28.1,12.9L138.7,147.1z"/>
		<path d="M175.5,205.9c14.3,0,14-13.9,14-13.9l0-98.2c0,0-0.3-13.9-14.1-13.9c-14.3,0-14,13.9-14,13.9l0,98.2
			C161.4,192,161.7,205.9,175.5,205.9z"/>
		<path d="M226.4,205.9c14.3,0,14-13.9,14-13.9l0-130.7c0,0-0.3-13.9-14.1-13.9c-14.3,0-14,13.9-14,13.9l0,130.7
			C212.3,192,212.6,205.9,226.4,205.9z"/>
		<path d="M238.9,224l-73.6,0c-0.9,10.1-4,19.7-8.8,28.1l82.3,0c0,0,13.9-0.3,13.9-14.1C252.9,223.7,238.9,224,238.9,224z"/>
	</g>
	<g>
		<g>
			<path d="M95.8,182.3c7.7,0.8,18.7,4.8,27.3,9.8l14.4-11.5c-4.3-3-9.1-5.9-14.6-8c-0.1,0-0.2-0.1-0.3-0.1
				c-0.8-0.3-1.5-0.5-2.3-0.8c-0.4-0.1-0.8-0.2-1.2-0.4c-0.5-0.2-1-0.3-1.5-0.5c-0.6-0.2-1.3-0.4-1.9-0.5c-0.3-0.1-0.6-0.1-0.8-0.2
				c-0.8-0.2-1.7-0.4-2.5-0.6c-0.1,0-0.2-0.1-0.4-0.1c-1-0.2-1.9-0.4-2.9-0.5c0,0-0.1,0-0.1,0c-1-0.2-2-0.3-3-0.4c0,0-0.1,0-0.1,0
				c0,0-0.1,0-0.1,0c-0.9-0.1-1.8-0.2-2.8-0.3c-0.2,0-0.4,0-0.6-0.1c-0.7-0.1-1.5-0.1-2.2-0.1c-0.4,0-0.8,0-1.3,0c-0.5,0-1,0-1.5,0
				c-0.7,0-1.3,0-2,0c-0.3,0-0.6,0-0.9,0c-0.8,0-1.7,0.1-2.5,0.1c-0.1,0-0.1,0-0.2,0c-0.1,0-0.2,0-0.2,0c-0.9,0.1-1.9,0.2-2.8,0.3
				c-0.1,0-0.2,0-0.3,0c-0.9,0.1-1.8,0.2-2.7,0.4c-0.2,0-0.4,0.1-0.6,0.1c-0.8,0.1-1.6,0.3-2.3,0.4c-0.4,0.1-0.7,0.1-1.1,0.2
				c-0.6,0.1-1.1,0.3-1.7,0.4c-0.6,0.1-1.2,0.3-1.7,0.5c-0.3,0.1-0.7,0.2-1,0.3c-0.8,0.2-1.7,0.5-2.5,0.8c-0.1,0-0.1,0-0.2,0.1
				c-10.3,3.4-19.4,9.1-26.7,16.7c-0.4,0.4-0.6,1-0.6,1.5c0,0.5,0.1,1,0.5,1.4c0.8,1,2.3,1.1,3.5,0.4
				C62.5,184.4,79.6,180.6,95.8,182.3z"/>
		</g>
		<path d="M149.2,193.3c-0.1-0.2-0.2-0.3-0.4-0.4c-0.1,0-0.1-0.1-0.1-0.1c-0.1-0.1-0.2-0.2-0.3-0.2c-0.1,0-0.1-0.1-0.2-0.1
			c-0.1-0.1-0.2-0.1-0.4-0.1c-0.1,0-0.1,0-0.2-0.1c-0.2,0-0.4-0.1-0.5-0.1c0,0,0,0,0,0c0,0,0,0,0,0c-0.2,0-0.4,0-0.6,0.1
			c-0.1,0-0.1,0-0.2,0.1c-0.2,0.1-0.4,0.2-0.6,0.3l-41.8,31.2c-2.6-1-5.4-1.5-8.4-1.5c-13.3,0-24.1,10.8-24.1,24.1
			c0,13.3,10.8,24.1,24.1,24.1s24.1-10.8,24.1-24.1c0-2.4-0.4-4.8-1.1-7l30.5-42.9c0.1-0.1,0.2-0.2,0.2-0.3
			C149.8,195.2,149.8,194.2,149.2,193.3z"/>
	</g>
</g>
</svg>
