<?xml version="1.0" encoding="utf-8"?>
<!-- Generator: Adobe Illustrator 26.3.1, SVG Export Plug-In . SVG Version: 6.00 Build 0)  -->
<svg version="1.1" id="Layer_1" xmlns="http://www.w3.org/2000/svg" xmlns:xlink="http://www.w3.org/1999/xlink" x="0px" y="0px"
	 viewBox="0 0 302.4 302.4" style="enable-background:new 0 0 302.4 302.4;" xml:space="preserve">
<metadata><?xpacket begin="﻿" id="W5M0MpCehiHzreSzNTczkc9d"?>
<x:xmpmeta xmlns:x="adobe:ns:meta/" x:xmptk="Adobe XMP Core 8.0-c001 1.000000, 0000/00/00-00:00:00        ">
   <rdf:RDF xmlns:rdf="http://www.w3.org/1999/02/22-rdf-syntax-ns#">
      <rdf:Description rdf:about=""
            xmlns:dc="http://purl.org/dc/elements/1.1/"
            xmlns:prism="http://prismstandard.org/namespaces/basic/2.1/"
            xmlns:tiff="http://ns.adobe.com/tiff/1.0/"
            xmlns:bsam="http://www.bsam.blog">
         <dc:modified>2025-09-09T17:18:30.955Z</dc:modified>
         <dc:format>image/svg+xml</dc:format>
         <prism:Date>2025-09-08T19:20:00.000+02:00</prism:Date>
         <tiff:ImageWidth>302</tiff:ImageWidth>
         <tiff:ImageLength>302</tiff:ImageLength>
         <bsam:rightsLimitedUnlimited>unlimited</bsam:rightsLimitedUnlimited>
         <bsam:subDigitalAssetType>
            <rdf:Bag>
               <rdf:li>enterprise:digital-asset-type/image/icon</rdf:li>
            </rdf:Bag>
         </bsam:subDigitalAssetType>
         <bsam:industry>
            <rdf:Bag>
               <rdf:li>enterprise:industry/generic-all-industries</rdf:li>
            </rdf:Bag>
         </bsam:industry>
         <bsam:assetOwner>
            <rdf:Bag>
               <rdf:li>enterprise:business-unit/webfleet</rdf:li>
            </rdf:Bag>
         </bsam:assetOwner>
         <bsam:usageCountry>
            <rdf:Bag>
               <rdf:li>enterprise:region-country/global</rdf:li>
            </rdf:Bag>
         </bsam:usageCountry>
      </rdf:Description>
   </rdf:RDF>
</x:xmpmeta>
                                                                                                    
                                                                                                    
                                                                                                    
                                                                                                    
                                                                                                    
                                                                                                    
                                                                                                    
                                                                                                    
                                                                                                    
                           
<?xpacket end="w"?></metadata>
<g>
	<g>
		<g>
			<path d="M136.6,250.2l-53-53l0,0L70.4,184c0.4-1.6,0.7-3.3,0.7-5.1c0-10.9-8.8-19.7-19.7-19.7c-1.8,0-3.5,0.2-5.1,0.7
				c-0.4,0.1-0.7,0.2-1.1,0.3l9.3,9.3l2.6,2.6c0.3,5-7.5,12.8-12.5,12.5l-2.6-2.6l0,0l-9.3-9.3c-0.6,1.9-1,4-1,6.1
				c0,10.9,8.8,19.7,19.7,19.7c1.8,0,3.5-0.2,5.1-0.7l13.2,13.2l0,0l53,53c1.8,1.8,4.2,2.9,7,2.9c5.4,0,9.8-4.4,9.8-9.8
				C139.5,254.5,138.4,252,136.6,250.2z M129.7,262.1c-2.7,0-4.9-2.2-4.9-4.9s2.2-4.9,4.9-4.9s4.9,2.2,4.9,4.9
				C134.6,259.9,132.4,262.1,129.7,262.1z"/>
		</g>
		<g>
			<path d="M69.7,225.7L69.7,225.7L69.7,225.7L45,250.4c-3.8,3.8-3.8,10,0,13.8c1.9,1.9,4.4,2.9,6.9,2.9c2.5,0,5-1,6.9-2.9
				l24.7-24.7L69.7,225.7z"/>
			<path d="M153.5,189.8c-1.6-1.6-4.1-1.9-6-0.9c0,0,0,0-0.1,0c-1.5,0.7-3.7,0.9-5.8-1.1c-4.5-4.5-3-10.4-13.1-18.7
				c-23.6-21-44-1.6-44-1.6c22.9-7.1,27.8,15.4,21.4,21.8l-7.9,7.9l0,0l0,0l13.8,13.8l5-5c0,0,0,0,0,0c1.2-1.2,2.3-2.3,2.9-2.9
				c3.2-3.1,4.9-5.4,9-2.9c2.6,2.4,2,4.8,1.3,6.1c-0.1,0.1-0.1,0.2-0.2,0.3c-0.9,1.9-0.6,4.3,1,5.9c1,1,2.3,1.5,3.6,1.5
				s2.6-0.5,3.6-1.5l15.5-15.5C155.5,195,155.5,191.8,153.5,189.8z"/>
		</g>
	</g>
	<g>
		<path d="M79.3,104.4c-14.3,0-14,13.9-14,13.9l0,30.1h27c0.3-0.1,0.7-0.1,1-0.1l0-29.9C93.4,118.3,93.1,104.4,79.3,104.4z"/>
		<path d="M144.2,146.1c0,0-0.3-13.9-14.1-13.9c-14.3,0-14,13.9-14,13.9v3c10.4,2.2,19.9,6.7,28.1,12.9L144.2,146.1z"/>
		<path d="M181.1,204.9c14.3,0,14-13.9,14-13.9l0-98.2c0,0-0.3-13.9-14.1-13.9c-14.3,0-14,13.9-14,13.9l0,98.2
			C167,191,167.3,204.9,181.1,204.9z"/>
		<path d="M231.9,204.9c14.3,0,14-13.9,14-13.9l0-130.7c0,0-0.3-13.9-14.1-13.9c-14.3,0-14,13.9-14,13.9l0,130.7
			C217.8,191,218.1,204.9,231.9,204.9z"/>
		<path d="M244.5,223.1l-73.6,0c0,0.5-0.1,1-0.2,1.4v26.6l73.8,0c0,0,13.9-0.3,13.9-14.1C258.4,222.7,244.5,223.1,244.5,223.1z"/>
	</g>
</g>
</svg>
