<?xml version="1.0" encoding="utf-8"?>
<!-- Generator: Adobe Illustrator 26.3.1, SVG Export Plug-In . SVG Version: 6.00 Build 0)  -->
<svg version="1.1" id="Layer_1" xmlns="http://www.w3.org/2000/svg" xmlns:xlink="http://www.w3.org/1999/xlink" x="0px" y="0px"
	 viewBox="0 0 302.4 302.4" style="enable-background:new 0 0 302.4 302.4;" xml:space="preserve">
<metadata><?xpacket begin="﻿" id="W5M0MpCehiHzreSzNTczkc9d"?>
<x:xmpmeta xmlns:x="adobe:ns:meta/" x:xmptk="Adobe XMP Core 8.0-c001 1.000000, 0000/00/00-00:00:00        ">
   <rdf:RDF xmlns:rdf="http://www.w3.org/1999/02/22-rdf-syntax-ns#">
      <rdf:Description rdf:about=""
            xmlns:dc="http://purl.org/dc/elements/1.1/"
            xmlns:prism="http://prismstandard.org/namespaces/basic/2.1/"
            xmlns:tiff="http://ns.adobe.com/tiff/1.0/"
            xmlns:bsam="http://www.bsam.blog">
         <dc:modified>2025-09-09T17:11:17.798Z</dc:modified>
         <dc:format>image/svg+xml</dc:format>
         <prism:Date>2025-09-08T19:20:00.000+02:00</prism:Date>
         <tiff:ImageWidth>302</tiff:ImageWidth>
         <tiff:ImageLength>302</tiff:ImageLength>
         <bsam:rightsLimitedUnlimited>unlimited</bsam:rightsLimitedUnlimited>
         <bsam:subDigitalAssetType>
            <rdf:Bag>
               <rdf:li>enterprise:digital-asset-type/image/icon</rdf:li>
            </rdf:Bag>
         </bsam:subDigitalAssetType>
         <bsam:industry>
            <rdf:Bag>
               <rdf:li>enterprise:industry/generic-all-industries</rdf:li>
            </rdf:Bag>
         </bsam:industry>
         <bsam:assetOwner>
            <rdf:Bag>
               <rdf:li>enterprise:business-unit/webfleet</rdf:li>
            </rdf:Bag>
         </bsam:assetOwner>
         <bsam:usageCountry>
            <rdf:Bag>
               <rdf:li>enterprise:region-country/global</rdf:li>
            </rdf:Bag>
         </bsam:usageCountry>
      </rdf:Description>
   </rdf:RDF>
</x:xmpmeta>
                                                                                                    
                                                                                                    
                                                                                                    
                                                                                                    
                                                                                                    
                                                                                                    
                                                                                                    
                                                                                                    
                                                                                                    
                           
<?xpacket end="w"?></metadata>
<g>
	<path d="M88.9,120.9c0,0-0.3-13.8-14-13.8C60.7,107,61,120.9,61,120.9l0,72.3c0,0,0.3,13.8,14,13.8c14.2,0,13.9-13.8,13.9-13.8
		L88.9,120.9z"/>
	<path d="M139.4,148.5c0,0-0.3-13.8-14-13.8c-14.2,0-13.9,13.8-13.9,13.8l0,44.7c0,0,0.3,13.8,14,13.8c14.2,0,13.9-13.8,13.9-13.8
		L139.4,148.5z"/>
	<path d="M190,95.5c0,0-0.3-13.8-14-13.8c-14.2,0-13.9,13.8-13.9,13.8l0,97.7c0,0,0.3,13.8,14,13.8c14.2,0,13.9-13.8,13.9-13.8
		L190,95.5z"/>
	<path d="M240.6,63.2c0,0-0.3-13.8-14-13.8c-14.2,0-13.9,13.8-13.9,13.8l0,130c0,0,0.3,13.8,14,13.8c14.2,0,13.9-13.8,13.9-13.8
		L240.6,63.2z"/>
	<path d="M239.2,253c0,0,13.8-0.3,13.8-14c0-14.2-13.8-13.9-13.8-13.9l-176,0c0,0-13.8,0.3-13.8,14c0,14.2,13.8,13.9,13.8,13.9
		L239.2,253z"/>
</g>
</svg>
