<?xml version="1.0" encoding="utf-8"?>
<!-- Generator: Adobe Illustrator 26.3.1, SVG Export Plug-In . SVG Version: 6.00 Build 0)  -->
<svg version="1.1" id="Layer_1" xmlns="http://www.w3.org/2000/svg" xmlns:xlink="http://www.w3.org/1999/xlink" x="0px" y="0px"
	 viewBox="0 0 302.4 302.4" style="enable-background:new 0 0 302.4 302.4;" xml:space="preserve">
<metadata><?xpacket begin="﻿" id="W5M0MpCehiHzreSzNTczkc9d"?>
<x:xmpmeta xmlns:x="adobe:ns:meta/" x:xmptk="Adobe XMP Core 8.0-c001 1.000000, 0000/00/00-00:00:00        ">
   <rdf:RDF xmlns:rdf="http://www.w3.org/1999/02/22-rdf-syntax-ns#">
      <rdf:Description rdf:about=""
            xmlns:dc="http://purl.org/dc/elements/1.1/"
            xmlns:prism="http://prismstandard.org/namespaces/basic/2.1/"
            xmlns:tiff="http://ns.adobe.com/tiff/1.0/"
            xmlns:bsam="http://www.bsam.blog">
         <dc:modified>2025-09-09T17:31:17.011Z</dc:modified>
         <dc:format>image/svg+xml</dc:format>
         <prism:Date>2025-09-08T19:20:00.000+02:00</prism:Date>
         <tiff:ImageWidth>302</tiff:ImageWidth>
         <tiff:ImageLength>302</tiff:ImageLength>
         <bsam:rightsLimitedUnlimited>unlimited</bsam:rightsLimitedUnlimited>
         <bsam:subDigitalAssetType>
            <rdf:Bag>
               <rdf:li>enterprise:digital-asset-type/image/icon</rdf:li>
            </rdf:Bag>
         </bsam:subDigitalAssetType>
         <bsam:industry>
            <rdf:Bag>
               <rdf:li>enterprise:industry/generic-all-industries</rdf:li>
            </rdf:Bag>
         </bsam:industry>
         <bsam:assetOwner>
            <rdf:Bag>
               <rdf:li>enterprise:business-unit/webfleet</rdf:li>
            </rdf:Bag>
         </bsam:assetOwner>
         <bsam:usageCountry>
            <rdf:Bag>
               <rdf:li>enterprise:region-country/global</rdf:li>
            </rdf:Bag>
         </bsam:usageCountry>
      </rdf:Description>
   </rdf:RDF>
</x:xmpmeta>
                                                                                                    
                                                                                                    
                                                                                                    
                                                                                                    
                                                                                                    
                                                                                                    
                                                                                                    
                                                                                                    
                                                                                                    
                                                                                                    
                                                                                                    
                                                                                                    
                                                                                                    
                                                                                                    
                                                                                                    
                                                                                                    
                                                                                                    
                                                                                                    
                                                                            
<?xpacket end="w"?></metadata>
<g>
	<g>
		<path d="M99.6,152.2l0-33.1c0,0-0.3-13.9-14.1-13.9c-14.3,0-14,13.9-14,13.9l0,34.1c6.5-0.8,13.2-1.2,19.7-1.2
			C93.6,152,96.6,152.1,99.6,152.2z"/>
		<path d="M150.4,146.9c0,0-0.3-13.9-14.1-13.9c-14.3,0-14,13.9-14,13.9v7.4c10.4,2,20,6.4,28.1,12.7L150.4,146.9z"/>
		<path d="M187.2,205.7c14.3,0,14-13.9,14-13.9l0-98.2c0,0-0.3-13.9-14.1-13.9c-14.3,0-14,13.9-14,13.9l0,98.2
			C173.2,191.8,173.5,205.7,187.2,205.7z"/>
		<path d="M238.1,205.7c14.3,0,14-13.9,14-13.9l0-130.7c0,0-0.3-13.9-14.1-13.9c-14.3,0-14,13.9-14,13.9l0,130.7
			C224,191.8,224.3,205.7,238.1,205.7z"/>
		<path d="M250.7,223.9l-74.9,0c-0.7,10.2-3.8,19.7-8.6,28.1l83.6,0c0,0,13.9-0.3,13.9-14.1C264.6,223.6,250.7,223.9,250.7,223.9z"
			/>
	</g>
	<path d="M93.4,164.4c5.9,0.4,17.8,2.1,20.7,3c18.7,4.8,30.1,11.6,41.7,24.6c7,8,10.8,18.3,8.1,26.4c-2.3,7.2-6.9,9.4-12.8,14.9
		c-4.8-15-14.6-29.9-38.6-44.4c-19.2-12-48.3-16.8-70.2-10.7c-0.5,1,18.5-4.9,42.3,1.9c23.5,5.9,51.9,24.4,62,54.2
		c2.7,7.3,3.1,17.5,2.3,25.3c-1.1,15-8.2,2.6-8.3,2.6c0,0,2.9-6.1,1-18.9c-0.2,0.3-0.4,0.5-0.6,0.8c-12.3,16.4-37.9,17.5-50.6,3.1
		c-8.6-9.9-14.3-21.9-22.7-34C59.1,201,47,188.9,32,179.4C45.9,168,69.8,162.4,93.4,164.4z"/>
</g>
</svg>
