<?xml version="1.0" encoding="utf-8"?>
<!-- Generator: Adobe Illustrator 26.3.1, SVG Export Plug-In . SVG Version: 6.00 Build 0)  -->
<svg version="1.1" id="Layer_1" xmlns="http://www.w3.org/2000/svg" xmlns:xlink="http://www.w3.org/1999/xlink" x="0px" y="0px"
	 viewBox="0 0 302.4 302.4" style="enable-background:new 0 0 302.4 302.4;" xml:space="preserve">
<metadata><?xpacket begin="﻿" id="W5M0MpCehiHzreSzNTczkc9d"?>
<x:xmpmeta xmlns:x="adobe:ns:meta/" x:xmptk="Adobe XMP Core 8.0-c001 1.000000, 0000/00/00-00:00:00        ">
   <rdf:RDF xmlns:rdf="http://www.w3.org/1999/02/22-rdf-syntax-ns#">
      <rdf:Description rdf:about=""
            xmlns:dc="http://purl.org/dc/elements/1.1/"
            xmlns:prism="http://prismstandard.org/namespaces/basic/2.1/"
            xmlns:tiff="http://ns.adobe.com/tiff/1.0/"
            xmlns:bsam="http://www.bsam.blog">
         <dc:modified>2025-09-09T17:12:10.125Z</dc:modified>
         <dc:format>image/svg+xml</dc:format>
         <prism:Date>2025-09-08T19:20:00.000+02:00</prism:Date>
         <tiff:ImageWidth>302</tiff:ImageWidth>
         <tiff:ImageLength>302</tiff:ImageLength>
         <bsam:rightsLimitedUnlimited>unlimited</bsam:rightsLimitedUnlimited>
         <bsam:subDigitalAssetType>
            <rdf:Bag>
               <rdf:li>enterprise:digital-asset-type/image/icon</rdf:li>
            </rdf:Bag>
         </bsam:subDigitalAssetType>
         <bsam:industry>
            <rdf:Bag>
               <rdf:li>enterprise:industry/generic-all-industries</rdf:li>
            </rdf:Bag>
         </bsam:industry>
         <bsam:assetOwner>
            <rdf:Bag>
               <rdf:li>enterprise:business-unit/webfleet</rdf:li>
            </rdf:Bag>
         </bsam:assetOwner>
         <bsam:usageCountry>
            <rdf:Bag>
               <rdf:li>enterprise:region-country/global</rdf:li>
            </rdf:Bag>
         </bsam:usageCountry>
      </rdf:Description>
   </rdf:RDF>
</x:xmpmeta>
                                                                                                    
                                                                                                    
                                                                                                    
                                                                                                    
                                                                                                    
                                                                                                    
                                                                                                    
                                                                                                    
                                                                                                    
                           
<?xpacket end="w"?></metadata>
<g>
	<g>
		<path d="M88,118.9c0,0-0.3-13.8-14-13.8c-14.2,0-13.9,13.8-13.9,13.8l0,44.8c8.1-5.8,17.6-9.9,27.9-11.5L88,118.9z"/>
		<path d="M138.6,146.6c0,0-0.3-13.8-14-13.8c-14.2,0-13.9,13.8-13.9,13.8v6c10.4,2,19.9,6.4,27.9,12.6V146.6z"/>
		<path d="M175.2,205.1c14.2,0,13.9-13.8,13.9-13.8l0-97.7c0,0-0.3-13.8-14-13.8c-14.2,0-13.9,13.8-13.9,13.8l0,97.7
			C161.2,191.3,161.6,205.1,175.2,205.1z"/>
		<path d="M225.8,205.1c14.2,0,13.9-13.8,13.9-13.8l0-130c0,0-0.3-13.8-14-13.8c-14.2,0-13.9,13.8-13.9,13.8l0,130
			C211.8,191.3,212.1,205.1,225.8,205.1z"/>
		<path d="M238.4,223.2l-74.7,0c-0.9,10.1-4.2,19.6-9.2,27.9l83.9,0c0,0,13.8-0.3,13.8-14C252.2,222.9,238.4,223.2,238.4,223.2z"/>
	</g>
	<g>
		<g>
			<g>
				<path d="M134.6,272.8H50.2v-10.7l13-3.2v-27.5h-13v-14.6h13v-14.2c0-11.7,3.7-21.8,10.4-28.3c6.5-6.3,15.4-9.6,26-9.6
					c18.9,0,28.5,9.1,34.8,17.1l1.3,1.7l-12.8,9.8l-1.3-1.6c-5.7-7-11.7-11.7-22.2-11.7c-5.6,0-10.1,1.6-13.7,5
					c-3.9,4-6,10.1-6,17.8v14.2h43.2v14.6H79.7v26.6h54.9V272.8z"/>
			</g>
		</g>
	</g>
</g>
</svg>
