<?xml version="1.0" encoding="utf-8"?>
<!-- Generator: Adobe Illustrator 26.3.1, SVG Export Plug-In . SVG Version: 6.00 Build 0)  -->
<svg version="1.1" id="Layer_1" xmlns="http://www.w3.org/2000/svg" xmlns:xlink="http://www.w3.org/1999/xlink" x="0px" y="0px"
	 viewBox="0 0 302.4 302.4" style="enable-background:new 0 0 302.4 302.4;" xml:space="preserve">
<metadata><?xpacket begin="﻿" id="W5M0MpCehiHzreSzNTczkc9d"?>
<x:xmpmeta xmlns:x="adobe:ns:meta/" x:xmptk="Adobe XMP Core 8.0-c001 1.000000, 0000/00/00-00:00:00        ">
   <rdf:RDF xmlns:rdf="http://www.w3.org/1999/02/22-rdf-syntax-ns#">
      <rdf:Description rdf:about=""
            xmlns:dc="http://purl.org/dc/elements/1.1/"
            xmlns:prism="http://prismstandard.org/namespaces/basic/2.1/"
            xmlns:tiff="http://ns.adobe.com/tiff/1.0/"
            xmlns:bsam="http://www.bsam.blog">
         <dc:modified>2025-09-09T17:21:24.566Z</dc:modified>
         <dc:format>image/svg+xml</dc:format>
         <prism:Date>2025-09-08T19:20:00.000+02:00</prism:Date>
         <tiff:ImageWidth>302</tiff:ImageWidth>
         <tiff:ImageLength>302</tiff:ImageLength>
         <bsam:rightsLimitedUnlimited>unlimited</bsam:rightsLimitedUnlimited>
         <bsam:subDigitalAssetType>
            <rdf:Bag>
               <rdf:li>enterprise:digital-asset-type/image/icon</rdf:li>
            </rdf:Bag>
         </bsam:subDigitalAssetType>
         <bsam:industry>
            <rdf:Bag>
               <rdf:li>enterprise:industry/generic-all-industries</rdf:li>
            </rdf:Bag>
         </bsam:industry>
         <bsam:assetOwner>
            <rdf:Bag>
               <rdf:li>enterprise:business-unit/webfleet</rdf:li>
            </rdf:Bag>
         </bsam:assetOwner>
         <bsam:usageCountry>
            <rdf:Bag>
               <rdf:li>enterprise:region-country/global</rdf:li>
            </rdf:Bag>
         </bsam:usageCountry>
      </rdf:Description>
   </rdf:RDF>
</x:xmpmeta>
                                                                                                    
                                                                                                    
                                                                                                    
                                                                                                    
                                                                                                    
                                                                                                    
                                                                                                    
                                                                                                    
                                                                                                    
                                                                                                    
                                                                                                    
                                                                                                    
                                                                                                    
                                                                                                    
                                                                                                    
                                                                                                    
                                                                                                    
                                                                                                    
                                                                            
<?xpacket end="w"?></metadata>
<g>
	<g>
		<path d="M87.8,119.1c0,0-0.3-13.8-14-13.8c-14.2,0-13.9,13.8-13.9,13.8l0,44.8c8.1-5.8,17.6-9.9,27.9-11.5L87.8,119.1z"/>
		<path d="M138.4,146.7c0,0-0.3-13.8-14-13.8c-14.2,0-13.9,13.8-13.9,13.8v6c10.4,2,19.9,6.4,27.9,12.6V146.7z"/>
		<path d="M175.1,205.2c14.2,0,13.9-13.8,13.9-13.8l0-97.7c0,0-0.3-13.8-14-13.8c-14.2,0-13.9,13.8-13.9,13.8l0,97.7
			C161.1,191.4,161.4,205.2,175.1,205.2z"/>
		<path d="M225.6,205.2c14.2,0,13.9-13.8,13.9-13.8l0-130c0,0-0.3-13.8-14-13.8c-14.2,0-13.9,13.8-13.9,13.8l0,130
			C211.6,191.4,211.9,205.2,225.6,205.2z"/>
		<path d="M238.1,223.3l-74.7,0c-0.9,10.1-4.2,19.6-9.2,27.9l83.9,0c0,0,13.8-0.3,13.8-14C252,223,238.1,223.3,238.1,223.3z"/>
	</g>
	<g>
		<path d="M107.7,275.6H90.1v-10.5c-10.3-1.9-19.7-6.4-27.8-13.5l-0.4-0.3l10.3-12l0.4,0.3c9.4,8,18.3,11.6,28.7,11.6
			c9.6,0,15.8-4.2,15.8-10.8v-0.3c0-5.9-3.1-9.3-20.4-13.2c-20.1-4.7-31-10.5-31-27.2v-0.3c0-13.1,9.5-23.2,24.3-25.8V162h17.6v11.7
			c8.7,1.5,16.4,4.9,23.5,10.6l0.4,0.3l-9.2,12.7l-0.4-0.3c-8.4-6.1-16.5-9.1-24.7-9.1c-8.7,0-14.5,4.1-14.5,10.2v0.2
			c0,6.1,3,9.3,21.4,13.6c21.2,5.1,29.9,12.8,29.9,26.7v0.3c0,14.4-10.1,24.6-26.5,26.8L107.7,275.6L107.7,275.6z"/>
	</g>
</g>
</svg>
