<?xml version="1.0" encoding="utf-8"?>
<!-- Generator: Adobe Illustrator 26.3.1, SVG Export Plug-In . SVG Version: 6.00 Build 0)  -->
<svg version="1.1" id="Layer_1" xmlns="http://www.w3.org/2000/svg" xmlns:xlink="http://www.w3.org/1999/xlink" x="0px" y="0px"
	 viewBox="0 0 302.4 302.4" style="enable-background:new 0 0 302.4 302.4;" xml:space="preserve">
<metadata><?xpacket begin="﻿" id="W5M0MpCehiHzreSzNTczkc9d"?>
<x:xmpmeta xmlns:x="adobe:ns:meta/" x:xmptk="Adobe XMP Core 8.0-c001 1.000000, 0000/00/00-00:00:00        ">
   <rdf:RDF xmlns:rdf="http://www.w3.org/1999/02/22-rdf-syntax-ns#">
      <rdf:Description rdf:about=""
            xmlns:dc="http://purl.org/dc/elements/1.1/"
            xmlns:prism="http://prismstandard.org/namespaces/basic/2.1/"
            xmlns:tiff="http://ns.adobe.com/tiff/1.0/"
            xmlns:bsam="http://www.bsam.blog">
         <dc:modified>2025-09-09T17:23:25.057Z</dc:modified>
         <dc:format>image/svg+xml</dc:format>
         <prism:Date>2025-09-08T19:20:00.000+02:00</prism:Date>
         <tiff:ImageWidth>302</tiff:ImageWidth>
         <tiff:ImageLength>302</tiff:ImageLength>
         <bsam:rightsLimitedUnlimited>unlimited</bsam:rightsLimitedUnlimited>
         <bsam:subDigitalAssetType>
            <rdf:Bag>
               <rdf:li>enterprise:digital-asset-type/image/icon</rdf:li>
            </rdf:Bag>
         </bsam:subDigitalAssetType>
         <bsam:industry>
            <rdf:Bag>
               <rdf:li>enterprise:industry/generic-all-industries</rdf:li>
            </rdf:Bag>
         </bsam:industry>
         <bsam:assetOwner>
            <rdf:Bag>
               <rdf:li>enterprise:business-unit/webfleet</rdf:li>
            </rdf:Bag>
         </bsam:assetOwner>
         <bsam:usageCountry>
            <rdf:Bag>
               <rdf:li>enterprise:region-country/global</rdf:li>
            </rdf:Bag>
         </bsam:usageCountry>
      </rdf:Description>
   </rdf:RDF>
</x:xmpmeta>
                                                                                                    
                                                                                                    
                                                                                                    
                                                                                                    
                                                                                                    
                                                                                                    
                                                                                                    
                                                                                                    
                                                                                                    
                                                                                                    
                                                                                                    
                                                                                                    
                                                                                                    
                                                                                                    
                                                                                                    
                                                                                                    
                                                                                                    
                                                                                                    
                                                                            
<?xpacket end="w"?></metadata>
<g>
	<g>
		<path d="M88.4,120.7c0,0-0.3-13.8-14-13.8c-14.2,0-13.9,13.8-13.9,13.8l0,44.8c8.1-5.8,17.6-9.9,27.9-11.5L88.4,120.7z"/>
		<path d="M139,148.3c0,0-0.3-13.8-14-13.8c-14.2,0-13.9,13.8-13.9,13.8v6c10.4,2,19.9,6.4,27.9,12.6V148.3z"/>
		<path d="M175.6,206.8c14.2,0,13.9-13.8,13.9-13.8l0-97.7c0,0-0.3-13.8-14-13.8c-14.2,0-13.9,13.8-13.9,13.8l0,97.7
			C161.6,193,161.9,206.8,175.6,206.8z"/>
		<path d="M226.2,206.8c14.2,0,13.9-13.8,13.9-13.8l0-130c0,0-0.3-13.8-14-13.8c-14.2,0-13.9,13.8-13.9,13.8l0,130
			C212.2,193,212.5,206.8,226.2,206.8z"/>
		<path d="M238.7,224.9l-74.7,0c-0.9,10.1-4.2,19.6-9.2,27.9l83.9,0c0,0,13.8-0.3,13.8-14C252.6,224.6,238.7,224.9,238.7,224.9z"/>
	</g>
	<path d="M128.6,245.9c-6.7,7.5-15.9,12.1-26,12.8c-10.3,0.8-20.3-2.5-28.2-9.3c-3.2-2.7-5.8-5.9-7.9-9.3h41.6v-14.1H61.4
		c-0.2-1-0.3-2.1-0.4-3.1c-0.3-3.7,0-7.4,0.7-10.9h46.3V198H67.8c0.8-1.1,1.6-2.2,2.5-3.2c6.8-7.9,16.2-12.6,26.5-13.4
		c12.1-0.9,23.7,3.8,31.8,12.8c2.7-2.4,7.1-6.1,10.4-9.4c-11-12.3-26.8-18.6-43.2-17.4c-14.1,1.1-26.9,7.5-36,18.2
		c-3.2,3.8-5.9,7.9-7.9,12.3h-14V212h9.7c-0.6,3.9-0.8,7.9-0.5,12c0,0.7,0.1,1.4,0.2,2.1h-9.5v14.1h13.1c3.1,7.6,8,14.4,14.4,19.9
		c9.7,8.3,21.7,12.8,34.3,12.8c1.3,0,2.7,0,4-0.1c13.7-1,26.2-7.2,35.4-17.4C135.3,251.9,131.7,248.8,128.6,245.9z"/>
</g>
</svg>
