<?xml version="1.0" encoding="utf-8"?>
<!-- Generator: Adobe Illustrator 26.3.1, SVG Export Plug-In . SVG Version: 6.00 Build 0)  -->
<svg version="1.1" id="Layer_1" xmlns="http://www.w3.org/2000/svg" xmlns:xlink="http://www.w3.org/1999/xlink" x="0px" y="0px"
	 viewBox="0 0 302.4 302.4" style="enable-background:new 0 0 302.4 302.4;" xml:space="preserve">
<metadata><?xpacket begin="﻿" id="W5M0MpCehiHzreSzNTczkc9d"?>
<x:xmpmeta xmlns:x="adobe:ns:meta/" x:xmptk="Adobe XMP Core 8.0-c001 1.000000, 0000/00/00-00:00:00        ">
   <rdf:RDF xmlns:rdf="http://www.w3.org/1999/02/22-rdf-syntax-ns#">
      <rdf:Description rdf:about=""
            xmlns:dc="http://purl.org/dc/elements/1.1/"
            xmlns:prism="http://prismstandard.org/namespaces/basic/2.1/"
            xmlns:tiff="http://ns.adobe.com/tiff/1.0/"
            xmlns:bsam="http://www.bsam.blog">
         <dc:modified>2025-09-09T17:15:16.257Z</dc:modified>
         <dc:format>image/svg+xml</dc:format>
         <prism:Date>2025-09-08T19:20:00.000+02:00</prism:Date>
         <tiff:ImageWidth>302</tiff:ImageWidth>
         <tiff:ImageLength>302</tiff:ImageLength>
         <bsam:rightsLimitedUnlimited>unlimited</bsam:rightsLimitedUnlimited>
         <bsam:subDigitalAssetType>
            <rdf:Bag>
               <rdf:li>enterprise:digital-asset-type/image/icon</rdf:li>
            </rdf:Bag>
         </bsam:subDigitalAssetType>
         <bsam:industry>
            <rdf:Bag>
               <rdf:li>enterprise:industry/generic-all-industries</rdf:li>
            </rdf:Bag>
         </bsam:industry>
         <bsam:assetOwner>
            <rdf:Bag>
               <rdf:li>enterprise:business-unit/webfleet</rdf:li>
            </rdf:Bag>
         </bsam:assetOwner>
         <bsam:usageCountry>
            <rdf:Bag>
               <rdf:li>enterprise:region-country/global</rdf:li>
            </rdf:Bag>
         </bsam:usageCountry>
      </rdf:Description>
   </rdf:RDF>
</x:xmpmeta>
                                                                                                    
                                                                                                    
                                                                                                    
                                                                                                    
                                                                                                    
                                                                                                    
                                                                                                    
                                                                                                    
                                                                                                    
                           
<?xpacket end="w"?></metadata>
<g>
	<path d="M233.1,148.1l-5.8-5.8c-1.8-1.8-3.8-5.1-4.6-7.5L211.7,102c-3.2-9.5-13.8-17.2-23.8-17.2h-50.6v9h50.6
		c6.1,0,13.3,5.2,15.2,11l10,29.9c0.8,2.4-0.6,4.3-3.1,4.3h-90.6v54.2h63.9c2.5,0,4.5,2,4.5,4.5s-2,4.5-4.5,4.5h-63.9v18.1H206v9
		c0,5,4.1,9,9,9h18.1c5,0,9-4.1,9-9v-54.3C242.2,165.2,238.1,153.1,233.1,148.1z M219.6,193.3c-7.5,0-13.6-6.1-13.6-13.6
		s6.1-13.6,13.6-13.6c7.5,0,13.6,6.1,13.6,13.6S227.1,193.3,219.6,193.3z"/>
	<path d="M119.3,63.9H69.7c-5.2,0-9.5,5-9.5,11.1v30.3v7.2V123c0,3,2.1,5.5,4.7,5.5h11.2v1.2c0,3.2,1.9,5.9,4.5,6.8v81.5l4.5,2.2
		V137H90v85.7l7.5,3.7l10.8-8.3v-81.5c2.6-1,4.5-3.6,4.5-6.8v-1.2H124c2.6,0,4.7-2.5,4.7-5.5v-10.6v-7.2V75
		C128.8,68.9,124.5,63.9,119.3,63.9z M119.7,86.9c0,3-2.3,5.5-5.1,5.5H74.2c-2.8,0-5.1-2.5-5.1-5.5v-3.8c0-3,2.3-5.5,5.1-5.5h40.4
		c2.8,0,5.1,2.5,5.1,5.5C119.7,83.1,119.7,86.9,119.7,86.9z"/>
</g>
</svg>
