<?xml version="1.0" encoding="utf-8"?>
<!-- Generator: Adobe Illustrator 26.3.1, SVG Export Plug-In . SVG Version: 6.00 Build 0)  -->
<svg version="1.1" id="Layer_1" xmlns="http://www.w3.org/2000/svg" xmlns:xlink="http://www.w3.org/1999/xlink" x="0px" y="0px"
	 viewBox="0 0 302.4 302.4" style="enable-background:new 0 0 302.4 302.4;" xml:space="preserve">
<metadata><?xpacket begin="﻿" id="W5M0MpCehiHzreSzNTczkc9d"?>
<x:xmpmeta xmlns:x="adobe:ns:meta/" x:xmptk="Adobe XMP Core 8.0-c001 1.000000, 0000/00/00-00:00:00        ">
   <rdf:RDF xmlns:rdf="http://www.w3.org/1999/02/22-rdf-syntax-ns#">
      <rdf:Description rdf:about=""
            xmlns:dc="http://purl.org/dc/elements/1.1/"
            xmlns:prism="http://prismstandard.org/namespaces/basic/2.1/"
            xmlns:tiff="http://ns.adobe.com/tiff/1.0/"
            xmlns:bsam="http://www.bsam.blog">
         <dc:modified>2025-09-09T17:23:55.917Z</dc:modified>
         <dc:format>image/svg+xml</dc:format>
         <prism:Date>2025-09-08T19:20:00.000+02:00</prism:Date>
         <tiff:ImageWidth>302</tiff:ImageWidth>
         <tiff:ImageLength>302</tiff:ImageLength>
         <bsam:rightsLimitedUnlimited>unlimited</bsam:rightsLimitedUnlimited>
         <bsam:subDigitalAssetType>
            <rdf:Bag>
               <rdf:li>enterprise:digital-asset-type/image/icon</rdf:li>
            </rdf:Bag>
         </bsam:subDigitalAssetType>
         <bsam:industry>
            <rdf:Bag>
               <rdf:li>enterprise:industry/generic-all-industries</rdf:li>
            </rdf:Bag>
         </bsam:industry>
         <bsam:assetOwner>
            <rdf:Bag>
               <rdf:li>enterprise:business-unit/webfleet</rdf:li>
            </rdf:Bag>
         </bsam:assetOwner>
         <bsam:usageCountry>
            <rdf:Bag>
               <rdf:li>enterprise:region-country/global</rdf:li>
            </rdf:Bag>
         </bsam:usageCountry>
      </rdf:Description>
   </rdf:RDF>
</x:xmpmeta>
                                                                                                    
                                                                                                    
                                                                                                    
                                                                                                    
                                                                                                    
                                                                                                    
                                                                                                    
                                                                                                    
                                                                                                    
                                                                                                    
                                                                                                    
                                                                                                    
                                                                                                    
                                                                                                    
                                                                                                    
                                                                                                    
                                                                                                    
                                                                                                    
                                                                            
<?xpacket end="w"?></metadata>
<g>
	<g>
		<path d="M107.5,118.7c0,0-0.3-13.9-14.1-13.9c-14.3,0-14,13.9-14,13.9l0,20.4h28L107.5,118.7z"/>
		<path d="M144.3,205.3c14.3,0,14-13.9,14-13.9l0-44.9c0,0-0.3-13.9-14.1-13.9c-14.3,0-14,13.9-14,13.9l0,44.9
			C130.3,191.4,130.6,205.3,144.3,205.3z"/>
		<path d="M195.2,205.3c14.3,0,14-13.9,14-13.9l0-98.2c0,0-0.3-13.9-14.1-13.9c-14.3,0-14,13.9-14,13.9l0,98.2
			C181.1,191.4,181.4,205.3,195.2,205.3z"/>
		<path d="M246,205.3c14.3,0,14-13.9,14-13.9l0-130.7c0,0-0.3-13.9-14.1-13.9c-14.3,0-14,13.9-14,13.9l0,130.7
			C231.9,191.4,232.2,205.3,246,205.3z"/>
		<path d="M258.6,223.4l-130.5,0c-0.8,10.1-5.8,19.6-12.7,28.1l143.2,0c0,0,13.9-0.3,13.9-14.1C272.5,223.1,258.6,223.4,258.6,223.4
			z"/>
	</g>
	<g>
		<path d="M106.2,153.5H30.3c-6.2,0-11.2,5-11.2,11.1v55c0,29.5,45.2,52.2,47.1,53.1l2.1,1l2.1-1c1.9-1,47-23.8,47.1-53.3v-54.9
			C117.5,158.4,112.4,153.5,106.2,153.5z M68.3,262.2l-5.4-3.2c0,0-32.8-18.6-32.8-39.4v-53.4c0-0.9,0.9-1.8,2-1.8h30.8h10.9h30.8
			c1.1,0,2,0.8,2,1.8v53.2c0,21.3-32.8,39.6-32.8,39.6L68.3,262.2z"/>
	</g>
</g>
</svg>
