<?xml version="1.0" encoding="utf-8"?>
<!-- Generator: Adobe Illustrator 26.3.1, SVG Export Plug-In . SVG Version: 6.00 Build 0)  -->
<svg version="1.1" id="Layer_1" xmlns="http://www.w3.org/2000/svg" xmlns:xlink="http://www.w3.org/1999/xlink" x="0px" y="0px"
	 viewBox="0 0 302.4 302.4" style="enable-background:new 0 0 302.4 302.4;" xml:space="preserve">
<metadata><?xpacket begin="﻿" id="W5M0MpCehiHzreSzNTczkc9d"?>
<x:xmpmeta xmlns:x="adobe:ns:meta/" x:xmptk="Adobe XMP Core 8.0-c001 1.000000, 0000/00/00-00:00:00        ">
   <rdf:RDF xmlns:rdf="http://www.w3.org/1999/02/22-rdf-syntax-ns#">
      <rdf:Description rdf:about=""
            xmlns:dc="http://purl.org/dc/elements/1.1/"
            xmlns:prism="http://prismstandard.org/namespaces/basic/2.1/"
            xmlns:tiff="http://ns.adobe.com/tiff/1.0/"
            xmlns:bsam="http://www.bsam.blog">
         <dc:modified>2025-09-09T17:31:50.110Z</dc:modified>
         <dc:format>image/svg+xml</dc:format>
         <prism:Date>2025-09-08T19:20:00.000+02:00</prism:Date>
         <tiff:ImageWidth>302</tiff:ImageWidth>
         <tiff:ImageLength>302</tiff:ImageLength>
         <bsam:rightsLimitedUnlimited>unlimited</bsam:rightsLimitedUnlimited>
         <bsam:subDigitalAssetType>
            <rdf:Bag>
               <rdf:li>enterprise:digital-asset-type/image/icon</rdf:li>
            </rdf:Bag>
         </bsam:subDigitalAssetType>
         <bsam:industry>
            <rdf:Bag>
               <rdf:li>enterprise:industry/generic-all-industries</rdf:li>
            </rdf:Bag>
         </bsam:industry>
         <bsam:assetOwner>
            <rdf:Bag>
               <rdf:li>enterprise:business-unit/webfleet</rdf:li>
            </rdf:Bag>
         </bsam:assetOwner>
         <bsam:usageCountry>
            <rdf:Bag>
               <rdf:li>enterprise:region-country/global</rdf:li>
            </rdf:Bag>
         </bsam:usageCountry>
      </rdf:Description>
   </rdf:RDF>
</x:xmpmeta>
                                                                                                    
                                                                                                    
                                                                                                    
                                                                                                    
                                                                                                    
                                                                                                    
                                                                                                    
                                                                                                    
                                                                                                    
                                                                                                    
                                                                                                    
                                                                                                    
                                                                                                    
                                                                                                    
                                                                                                    
                                                                                                    
                                                                                                    
                                                                                                    
                                                                            
<?xpacket end="w"?></metadata>
<g>
	<g>
		<path d="M105.3,145.7l4.1,4.1l0-30.6c0,0-0.3-13.9-14.1-13.9c-14.3,0-14,13.9-14,13.9l0,21.8H92
			C96.8,140.5,101.7,142.1,105.3,145.7z"/>
		<path d="M146.3,205.9c14.3,0,14-13.9,14-13.9l0-44.9c0,0-0.3-13.9-14.1-13.9c-14.3,0-14,13.9-14,13.9l0,44.9
			C132.2,192,132.5,205.9,146.3,205.9z"/>
		<path d="M197.1,205.9c14.3,0,14-13.9,14-13.9l0-98.2c0,0-0.3-13.9-14.1-13.9c-14.3,0-14,13.9-14,13.9l0,98.2
			C183,192,183.3,205.9,197.1,205.9z"/>
		<path d="M247.9,205.9c14.3,0,14-13.9,14-13.9l0-130.7c0,0-0.3-13.9-14.1-13.9c-14.3,0-14,13.9-14,13.9l0,130.7
			C233.9,192,234.2,205.9,247.9,205.9z"/>
		<path d="M260.5,224l-130.4,0v28.1l130.4,0c0,0,13.9-0.3,13.9-14.1C274.4,223.7,260.5,224,260.5,224z"/>
	</g>
	<g>
		<g>
			<path d="M94.7,203.9c-0.3-1.1-1-2.1-2-2.7c-0.7-0.4-1.6-0.7-2.4-0.7c-1.6,0-3.1,0.8-3.9,2l-17.8,26.6l-11.5-11.5
				c-1.7-1.6-4.7-1.6-6.5,0c-1.8,1.7-1.8,4.4,0,6.1l15.6,15.4c0.8,0.8,2,1.3,3.2,1.3c0.2,0,0.3,0,0.5,0c1.4-0.1,2.6-0.9,3.4-2
				l20.8-31.2C94.8,206.2,95,205,94.7,203.9z"/>
		</g>
		<g>
			<path d="M115,189.2c0.1-3.3-1.2-6.6-3.7-9.1l-15.5-15.4c-2.8-2.8-6.5-4-10.2-3.6L32,161c-4.2,0-7.5,3.4-7.5,7.6v90.6
				c0,4.2,3.4,7.5,7.5,7.5h75.5c4.2,0,7.6-3.4,7.6-7.5v-69.9C115,189.2,115,189.2,115,189.2z M105,256.6H34.5V171h50.3v15.1l0,0
				c0,2.7,2.2,4.9,5,5l0,0H105L105,256.6L105,256.6z"/>
		</g>
	</g>
</g>
</svg>
