<?xml version="1.0" encoding="utf-8"?>
<!-- Generator: Adobe Illustrator 26.3.1, SVG Export Plug-In . SVG Version: 6.00 Build 0)  -->
<svg version="1.1" id="Layer_1" xmlns="http://www.w3.org/2000/svg" xmlns:xlink="http://www.w3.org/1999/xlink" x="0px" y="0px"
	 viewBox="0 0 302.4 302.4" style="enable-background:new 0 0 302.4 302.4;" xml:space="preserve">
<metadata><?xpacket begin="﻿" id="W5M0MpCehiHzreSzNTczkc9d"?>
<x:xmpmeta xmlns:x="adobe:ns:meta/" x:xmptk="Adobe XMP Core 8.0-c001 1.000000, 0000/00/00-00:00:00        ">
   <rdf:RDF xmlns:rdf="http://www.w3.org/1999/02/22-rdf-syntax-ns#">
      <rdf:Description rdf:about=""
            xmlns:dc="http://purl.org/dc/elements/1.1/"
            xmlns:prism="http://prismstandard.org/namespaces/basic/2.1/"
            xmlns:tiff="http://ns.adobe.com/tiff/1.0/"
            xmlns:bsam="http://www.bsam.blog">
         <dc:modified>2025-09-09T17:15:20.214Z</dc:modified>
         <dc:format>image/svg+xml</dc:format>
         <prism:Date>2025-09-08T19:20:00.000+02:00</prism:Date>
         <tiff:ImageWidth>302</tiff:ImageWidth>
         <tiff:ImageLength>302</tiff:ImageLength>
         <bsam:rightsLimitedUnlimited>unlimited</bsam:rightsLimitedUnlimited>
         <bsam:subDigitalAssetType>
            <rdf:Bag>
               <rdf:li>enterprise:digital-asset-type/image/icon</rdf:li>
            </rdf:Bag>
         </bsam:subDigitalAssetType>
         <bsam:industry>
            <rdf:Bag>
               <rdf:li>enterprise:industry/generic-all-industries</rdf:li>
            </rdf:Bag>
         </bsam:industry>
         <bsam:assetOwner>
            <rdf:Bag>
               <rdf:li>enterprise:business-unit/webfleet</rdf:li>
            </rdf:Bag>
         </bsam:assetOwner>
         <bsam:usageCountry>
            <rdf:Bag>
               <rdf:li>enterprise:region-country/global</rdf:li>
            </rdf:Bag>
         </bsam:usageCountry>
      </rdf:Description>
   </rdf:RDF>
</x:xmpmeta>
                                                                                                    
                                                                                                    
                                                                                                    
                                                                                                    
                                                                                                    
                                                                                                    
                                                                                                    
                                                                                                    
                                                                                                    
                           
<?xpacket end="w"?></metadata>
<g>
	<path d="M270.6,99.4l-43-69.4l-42.9,69.4l29-9.7v48c0,0.2,0,0.4,0,0.6l0,53.8c0,0,0.3,13.8,14,13.8c14.2,0,13.9-13.8,13.9-13.8
		l0-102.5L270.6,99.4z"/>
	<path d="M240.2,252c0,0,13.8-0.3,13.8-14c0-14.2-13.8-13.9-13.8-13.9l-176.1,0c0,0-13.8,0.3-13.8,14c0,14.2,13.8,13.9,13.8,13.9
		L240.2,252z"/>
	<path d="M191,128.7c0,0-0.3-13.8-14-13.8c-14.2,0-13.9,13.8-13.9,13.8l0,63.5c0,0,0.3,13.8,14,13.8c14.2,0,13.9-13.8,13.9-13.8
		L191,128.7z"/>
	<path d="M89.8,147.4c0,0-0.3-13.9-14-13.9c-14.2,0-13.9,13.9-13.9,13.9l0,44.7c0,0,0.3,13.8,14,13.8c14.2,0,13.9-13.8,13.9-13.8
		L89.8,147.4z"/>
	<path d="M140.4,157.4c0,0-0.3-13.9-14-13.9c-14.2,0-13.9,13.9-13.9,13.9l0,34.8c0,0,0.3,13.8,14,13.8c14.2,0,13.9-13.8,13.9-13.8
		L140.4,157.4z"/>
</g>
</svg>
