<?xml version="1.0" encoding="utf-8"?>
<!-- Generator: Adobe Illustrator 26.3.1, SVG Export Plug-In . SVG Version: 6.00 Build 0)  -->
<svg version="1.1" id="Layer_1" xmlns="http://www.w3.org/2000/svg" xmlns:xlink="http://www.w3.org/1999/xlink" x="0px" y="0px"
	 viewBox="0 0 302.4 302.4" style="enable-background:new 0 0 302.4 302.4;" xml:space="preserve">
<metadata><?xpacket begin="﻿" id="W5M0MpCehiHzreSzNTczkc9d"?>
<x:xmpmeta xmlns:x="adobe:ns:meta/" x:xmptk="Adobe XMP Core 8.0-c001 1.000000, 0000/00/00-00:00:00        ">
   <rdf:RDF xmlns:rdf="http://www.w3.org/1999/02/22-rdf-syntax-ns#">
      <rdf:Description rdf:about=""
            xmlns:dc="http://purl.org/dc/elements/1.1/"
            xmlns:prism="http://prismstandard.org/namespaces/basic/2.1/"
            xmlns:tiff="http://ns.adobe.com/tiff/1.0/"
            xmlns:bsam="http://www.bsam.blog">
         <dc:modified>2025-09-09T17:13:10.355Z</dc:modified>
         <dc:format>image/svg+xml</dc:format>
         <prism:Date>2025-09-08T19:20:00.000+02:00</prism:Date>
         <tiff:ImageWidth>302</tiff:ImageWidth>
         <tiff:ImageLength>302</tiff:ImageLength>
         <bsam:rightsLimitedUnlimited>unlimited</bsam:rightsLimitedUnlimited>
         <bsam:subDigitalAssetType>
            <rdf:Bag>
               <rdf:li>enterprise:digital-asset-type/image/icon</rdf:li>
            </rdf:Bag>
         </bsam:subDigitalAssetType>
         <bsam:industry>
            <rdf:Bag>
               <rdf:li>enterprise:industry/generic-all-industries</rdf:li>
            </rdf:Bag>
         </bsam:industry>
         <bsam:assetOwner>
            <rdf:Bag>
               <rdf:li>enterprise:business-unit/webfleet</rdf:li>
            </rdf:Bag>
         </bsam:assetOwner>
         <bsam:usageCountry>
            <rdf:Bag>
               <rdf:li>enterprise:region-country/global</rdf:li>
            </rdf:Bag>
         </bsam:usageCountry>
      </rdf:Description>
   </rdf:RDF>
</x:xmpmeta>
                                                                                                    
                                                                                                    
                                                                                                    
                                                                                                    
                                                                                                    
                                                                                                    
                                                                                                    
                                                                                                    
                                                                                                    
                           
<?xpacket end="w"?></metadata>
<g>
	<g>
		<path d="M151.2,51.5c-55,0-99.7,44.7-99.7,99.7s44.7,99.7,99.7,99.7s99.7-44.7,99.7-99.7c0-15.6-3.7-31.1-10.7-44.9L228.8,121
			c3.8,9.7,5.7,19.8,5.7,30.2c0,46-37.4,83.4-83.4,83.4c-46,0-83.4-37.4-83.4-83.4s37.4-83.4,83.4-83.4c17.2,0,33.7,5.2,47.7,15.1
			l9.8-13.1C191.8,57.8,171.9,51.5,151.2,51.5z"/>
	</g>
	<g>
		<path d="M107.2,124c-4.8,0-9.2,2.1-12.2,5.8c-2.7,3.2-3.9,7.4-3.4,11.6s2.5,8,5.7,10.6l47.7,38.8c2.8,2.3,6.3,3.5,9.9,3.5l0,0
			c4.8,0,9.2-2.1,12.2-5.8c0.1-0.1,0.3-0.4,0.6-0.7c0.6-0.7,1.5-1.6,1.8-2.1l76-99.1c5.3-6.9,4-16.8-2.9-22.1
			c-2.8-2.1-6.1-3.2-9.6-3.2c-5,0-9.5,2.2-12.5,6.1l-68.1,88.9l-35.3-28.7C114.3,125.3,110.8,124,107.2,124z"/>
	</g>
</g>
</svg>
