<?xml version="1.0" encoding="UTF-8"?>
<svg id="Layer_1" xmlns="http://www.w3.org/2000/svg" version="1.1" viewBox="0 0 302.4 302.4">
  <!-- Generator: Adobe Illustrator 29.6.0, SVG Export Plug-In . SVG Version: 2.1.1 Build 207)  -->
  <metadata><?xpacket begin="﻿" id="W5M0MpCehiHzreSzNTczkc9d"?>
<x:xmpmeta xmlns:x="adobe:ns:meta/" x:xmptk="Adobe XMP Core 8.0-c001 1.000000, 0000/00/00-00:00:00        ">
   <rdf:RDF xmlns:rdf="http://www.w3.org/1999/02/22-rdf-syntax-ns#">
      <rdf:Description rdf:about=""
            xmlns:dc="http://purl.org/dc/elements/1.1/"
            xmlns:prism="http://prismstandard.org/namespaces/basic/2.1/"
            xmlns:tiff="http://ns.adobe.com/tiff/1.0/"
            xmlns:bsam="http://www.bsam.blog">
         <dc:modified>2025-09-09T17:15:16.096Z</dc:modified>
         <dc:format>image/svg+xml</dc:format>
         <prism:Date>2025-09-08T19:20:00.000+02:00</prism:Date>
         <tiff:ImageWidth>302</tiff:ImageWidth>
         <tiff:ImageLength>302</tiff:ImageLength>
         <bsam:rightsLimitedUnlimited>unlimited</bsam:rightsLimitedUnlimited>
         <bsam:subDigitalAssetType>
            <rdf:Bag>
               <rdf:li>enterprise:digital-asset-type/image/icon</rdf:li>
            </rdf:Bag>
         </bsam:subDigitalAssetType>
         <bsam:industry>
            <rdf:Bag>
               <rdf:li>enterprise:industry/generic-all-industries</rdf:li>
            </rdf:Bag>
         </bsam:industry>
         <bsam:assetOwner>
            <rdf:Bag>
               <rdf:li>enterprise:business-unit/webfleet</rdf:li>
            </rdf:Bag>
         </bsam:assetOwner>
         <bsam:usageCountry>
            <rdf:Bag>
               <rdf:li>enterprise:region-country/global</rdf:li>
            </rdf:Bag>
         </bsam:usageCountry>
      </rdf:Description>
   </rdf:RDF>
</x:xmpmeta>
                                                                                                    
                                                                                                    
                                                                                                    
                                                                                                    
                                                                                                    
                                                                                                    
                                                                                                    
                                                                                                    
                                                                                                    
                           
<?xpacket end="w"?></metadata>
<path d="M214.8,205.3c-11.8-19.9-32.2-59.5-35.5-66.2v-41.5c4.5-1.9,7.7-6.3,7.7-11.5s-5.6-12.5-12.5-12.5h-46.1c-6.9,0-12.5,5.6-12.5,12.5s3.2,9.6,7.6,11.5v41.5c-3.5,6.9-23.8,46.5-35.4,66.2-4.7,8-2.7,14.1-1,17,2.5,4.4,7.3,7.2,12.3,7.2h104.1c4.9,0,9.8-2.8,12.3-7.2,1.6-2.9,3.7-8.9-1-17ZM132.7,142.4c.3-.7.5-1.4.5-2.2v-46.5c0-2.6-2.1-4.8-4.8-4.8-1.6,0-2.9-1.3-2.9-2.9s1.3-2.9,2.9-2.9h46.1c1.6,0,2.9,1.3,2.9,2.9s-1.3,2.9-2.9,2.9c-2.6,0-4.8,2.1-4.8,4.8v46.5c0,0,0,.2,0,.3.1,1.7,8.6,18,17.5,34.4h-71.3c9-17,16.7-32.3,16.9-32.5Z"/>
</svg>