<?xml version="1.0" encoding="utf-8"?>
<!-- Generator: Adobe Illustrator 26.3.1, SVG Export Plug-In . SVG Version: 6.00 Build 0)  -->
<svg version="1.1" id="Layer_1" xmlns="http://www.w3.org/2000/svg" xmlns:xlink="http://www.w3.org/1999/xlink" x="0px" y="0px"
	 viewBox="0 0 302.4 302.4" style="enable-background:new 0 0 302.4 302.4;" xml:space="preserve">
<metadata><?xpacket begin="﻿" id="W5M0MpCehiHzreSzNTczkc9d"?>
<x:xmpmeta xmlns:x="adobe:ns:meta/" x:xmptk="Adobe XMP Core 8.0-c001 1.000000, 0000/00/00-00:00:00        ">
   <rdf:RDF xmlns:rdf="http://www.w3.org/1999/02/22-rdf-syntax-ns#">
      <rdf:Description rdf:about=""
            xmlns:dc="http://purl.org/dc/elements/1.1/"
            xmlns:prism="http://prismstandard.org/namespaces/basic/2.1/"
            xmlns:tiff="http://ns.adobe.com/tiff/1.0/"
            xmlns:bsam="http://www.bsam.blog">
         <dc:modified>2025-09-09T17:14:31.661Z</dc:modified>
         <dc:format>image/svg+xml</dc:format>
         <prism:Date>2025-09-08T19:20:00.000+02:00</prism:Date>
         <tiff:ImageWidth>302</tiff:ImageWidth>
         <tiff:ImageLength>302</tiff:ImageLength>
         <bsam:rightsLimitedUnlimited>unlimited</bsam:rightsLimitedUnlimited>
         <bsam:subDigitalAssetType>
            <rdf:Bag>
               <rdf:li>enterprise:digital-asset-type/image/icon</rdf:li>
            </rdf:Bag>
         </bsam:subDigitalAssetType>
         <bsam:industry>
            <rdf:Bag>
               <rdf:li>enterprise:industry/generic-all-industries</rdf:li>
            </rdf:Bag>
         </bsam:industry>
         <bsam:assetOwner>
            <rdf:Bag>
               <rdf:li>enterprise:business-unit/webfleet</rdf:li>
            </rdf:Bag>
         </bsam:assetOwner>
         <bsam:usageCountry>
            <rdf:Bag>
               <rdf:li>enterprise:region-country/global</rdf:li>
            </rdf:Bag>
         </bsam:usageCountry>
      </rdf:Description>
   </rdf:RDF>
</x:xmpmeta>
                                                                                                    
                                                                                                    
                                                                                                    
                                                                                                    
                                                                                                    
                                                                                                    
                                                                                                    
                                                                                                    
                                                                                                    
                           
<?xpacket end="w"?></metadata>
<g>
	<g>
		<path d="M203.8,244.1h-104c-10.9,0-19.7-8.9-19.7-19.7V73.5c0-10.9,8.8-19.7,19.7-19.7h104c10.9,0,19.7,8.9,19.7,19.7v150.8
			C223.5,235.2,214.6,244.1,203.8,244.1z M99.8,63.8c-5.4,0-9.7,4.4-9.7,9.7v150.8c0,5.4,4.4,9.7,9.7,9.7h104c5.4,0,9.7-4.4,9.7-9.7
			V73.5c0-5.4-4.4-9.7-9.7-9.7C203.8,63.8,99.8,63.8,99.8,63.8z"/>
	</g>
	<g>
		<path d="M175.6,138.2c-1.6,0.7-3.4,0.4-4.6-0.8c-9.9-9.1-24.6-8.8-34.2,0.6c-1.2,1.2-3,1.6-4.6,0.9c-1.7-0.7-2.8-2.3-2.8-4l0,0
			c0-1.1,0.4-2.2,1.3-3c13-12.8,32.9-13.1,46.3-0.9c0.9,0.8,1.4,1.9,1.4,3C178.3,135.8,177.2,137.4,175.6,138.2z"/>
		<path d="M187,124.1c-1.6,0.7-3.4,0.4-4.6-0.8c-16.4-15.3-41.6-14.8-57.5,1.1c-1.2,1.2-3,1.6-4.6,1c-1.7-0.7-2.8-2.3-2.8-4l0,0
			c0-1.1,0.4-2.2,1.3-3c19.2-19.2,49.8-19.8,69.6-1.3c0.9,0.8,1.4,1.9,1.4,3C189.7,121.8,188.6,123.4,187,124.1z"/>
		<path d="M197.5,109.9c-1.6,0.7-3.4,0.4-4.6-0.8c-22.6-21.2-57.3-20.6-79.1,1.4c-1.2,1.2-3,1.6-4.6,1c-1.7-0.7-2.8-2.3-2.9-4
			c0-1.1,0.4-2.2,1.2-3c25.1-25.4,65.2-26.1,91.3-1.7c0.9,0.8,1.4,1.9,1.4,3C200.2,107.6,199.1,109.2,197.5,109.9z"/>
	</g>
</g>
</svg>
