<?xml version="1.0" encoding="utf-8"?>
<!-- Generator: Adobe Illustrator 26.3.1, SVG Export Plug-In . SVG Version: 6.00 Build 0)  -->
<svg version="1.1" id="Layer_1" xmlns="http://www.w3.org/2000/svg" xmlns:xlink="http://www.w3.org/1999/xlink" x="0px" y="0px"
	 viewBox="0 0 302.4 302.4" style="enable-background:new 0 0 302.4 302.4;" xml:space="preserve">
<metadata><?xpacket begin="﻿" id="W5M0MpCehiHzreSzNTczkc9d"?>
<x:xmpmeta xmlns:x="adobe:ns:meta/" x:xmptk="Adobe XMP Core 8.0-c001 1.000000, 0000/00/00-00:00:00        ">
   <rdf:RDF xmlns:rdf="http://www.w3.org/1999/02/22-rdf-syntax-ns#">
      <rdf:Description rdf:about=""
            xmlns:dc="http://purl.org/dc/elements/1.1/"
            xmlns:prism="http://prismstandard.org/namespaces/basic/2.1/"
            xmlns:tiff="http://ns.adobe.com/tiff/1.0/"
            xmlns:bsam="http://www.bsam.blog">
         <dc:modified>2025-09-09T17:12:19.549Z</dc:modified>
         <dc:format>image/svg+xml</dc:format>
         <prism:Date>2025-09-08T19:20:00.000+02:00</prism:Date>
         <tiff:ImageWidth>302</tiff:ImageWidth>
         <tiff:ImageLength>302</tiff:ImageLength>
         <bsam:rightsLimitedUnlimited>unlimited</bsam:rightsLimitedUnlimited>
         <bsam:subDigitalAssetType>
            <rdf:Bag>
               <rdf:li>enterprise:digital-asset-type/image/icon</rdf:li>
            </rdf:Bag>
         </bsam:subDigitalAssetType>
         <bsam:industry>
            <rdf:Bag>
               <rdf:li>enterprise:industry/generic-all-industries</rdf:li>
            </rdf:Bag>
         </bsam:industry>
         <bsam:assetOwner>
            <rdf:Bag>
               <rdf:li>enterprise:business-unit/webfleet</rdf:li>
            </rdf:Bag>
         </bsam:assetOwner>
         <bsam:usageCountry>
            <rdf:Bag>
               <rdf:li>enterprise:region-country/global</rdf:li>
            </rdf:Bag>
         </bsam:usageCountry>
      </rdf:Description>
   </rdf:RDF>
</x:xmpmeta>
                                                                                                    
                                                                                                    
                                                                                                    
                                                                                                    
                                                                                                    
                                                                                                    
                                                                                                    
                                                                                                    
                                                                                                    
                           
<?xpacket end="w"?></metadata>
<g>
	<g>
		<path d="M236.8,223.7h-19.2v-11.4c-11.3-2.1-21.4-7-30.3-14.7l-0.4-0.3l11.3-13.1l0.4,0.3c10.3,8.7,19.9,12.6,31.3,12.6
			c10.5,0,17.2-4.6,17.2-11.8v-0.3c0-6.4-3.3-10.2-22.2-14.4c-21.9-5.2-33.8-11.4-33.8-29.7v-0.3c0-14.3,10.4-25.3,26.5-28.2V99.8
			h19.2v12.8c9.4,1.6,17.8,5.4,25.7,11.5l0.4,0.3l-10,13.8l-0.4-0.3c-9.2-6.7-18-10-26.9-10c-9.4,0-15.8,4.4-15.8,11.1v0.3
			c0,6.6,3.2,10.2,23.4,14.9c23.2,5.5,32.6,14,32.6,29.2v0.3c0,15.7-11.1,26.8-28.9,29.2L236.8,223.7L236.8,223.7z"/>
	</g>
	<g>
		<g>
			<path d="M194.7,96.5c-10.9-21.5-33.2-36.2-58.9-36.2c-36.5,0-66.1,29.6-66.1,66.1s29.6,66,66.1,66c8.4,0,16.4-1.6,23.9-4.5
				c-2.4-7.5-3.7-15.6-3.7-23.9C155.9,135.3,171.5,110.1,194.7,96.5z"/>
		</g>
		<path d="M171.2,210.6c-11,4.2-22.9,6.5-35.4,6.5c-22.5,0-43.3-7.6-60.1-20.1c-20.4,10.2-34.8,27.5-39,45l0,0h189.5
			C203.7,239.7,184,227.9,171.2,210.6z"/>
	</g>
</g>
</svg>
