<?xml version="1.0" encoding="utf-8"?>
<!-- Generator: Adobe Illustrator 26.3.1, SVG Export Plug-In . SVG Version: 6.00 Build 0)  -->
<svg version="1.1" id="Layer_1" xmlns="http://www.w3.org/2000/svg" xmlns:xlink="http://www.w3.org/1999/xlink" x="0px" y="0px"
	 viewBox="0 0 302.4 302.4" style="enable-background:new 0 0 302.4 302.4;" xml:space="preserve">
<metadata><?xpacket begin="﻿" id="W5M0MpCehiHzreSzNTczkc9d"?>
<x:xmpmeta xmlns:x="adobe:ns:meta/" x:xmptk="Adobe XMP Core 8.0-c001 1.000000, 0000/00/00-00:00:00        ">
   <rdf:RDF xmlns:rdf="http://www.w3.org/1999/02/22-rdf-syntax-ns#">
      <rdf:Description rdf:about=""
            xmlns:dc="http://purl.org/dc/elements/1.1/"
            xmlns:prism="http://prismstandard.org/namespaces/basic/2.1/"
            xmlns:tiff="http://ns.adobe.com/tiff/1.0/"
            xmlns:bsam="http://www.bsam.blog">
         <dc:modified>2025-09-09T17:17:04.531Z</dc:modified>
         <dc:format>image/svg+xml</dc:format>
         <prism:Date>2025-09-08T19:20:00.000+02:00</prism:Date>
         <tiff:ImageWidth>302</tiff:ImageWidth>
         <tiff:ImageLength>302</tiff:ImageLength>
         <bsam:rightsLimitedUnlimited>unlimited</bsam:rightsLimitedUnlimited>
         <bsam:subDigitalAssetType>
            <rdf:Bag>
               <rdf:li>enterprise:digital-asset-type/image/icon</rdf:li>
            </rdf:Bag>
         </bsam:subDigitalAssetType>
         <bsam:industry>
            <rdf:Bag>
               <rdf:li>enterprise:industry/generic-all-industries</rdf:li>
            </rdf:Bag>
         </bsam:industry>
         <bsam:assetOwner>
            <rdf:Bag>
               <rdf:li>enterprise:business-unit/webfleet</rdf:li>
            </rdf:Bag>
         </bsam:assetOwner>
         <bsam:usageCountry>
            <rdf:Bag>
               <rdf:li>enterprise:region-country/global</rdf:li>
            </rdf:Bag>
         </bsam:usageCountry>
      </rdf:Description>
   </rdf:RDF>
</x:xmpmeta>
                                                                                                    
                                                                                                    
                                                                                                    
                                                                                                    
                                                                                                    
                                                                                                    
                                                                                                    
                                                                                                    
                                                                                                    
                           
<?xpacket end="w"?></metadata>
<g>
	<g>
		<path d="M162.4,196.4l-4.1-4.1c-1.2-1.2-2.7-3.6-3.2-5.2l-7.6-22.8c-2.2-6.6-9.6-11.9-16.5-11.9H80.7c-6.9,0-14.3,5.3-16.5,11.9
			l-7.6,22.8c-0.5,1.6-2,4-3.2,5.2c-1.1,1.1-2.5,2.5-4.1,4.1c-3.5,3.5-6.3,11.9-6.3,18.8v31.4v6.3c0,3.5,2.8,6.3,6.3,6.3h12.6
			c3.5,0,6.3-2.8,6.3-6.3v-6.3h75.4v6.3c0,3.5,2.8,6.3,6.3,6.3h12.6c3.5,0,6.3-2.8,6.3-6.3v-37.7
			C168.6,208.3,165.8,199.8,162.4,196.4z M58.7,227.8c-5.2,0-9.4-4.2-9.4-9.4s4.2-9.4,9.4-9.4s9.4,4.2,9.4,9.4
			S63.9,227.8,58.7,227.8z M127.8,234h-44c-1.7,0-3.1-1.4-3.1-3.1s1.4-3.1,3.1-3.1h44c1.7,0,3.1,1.4,3.1,3.1S129.5,234,127.8,234z
			 M65.3,190.1c-1.7,0-2.7-1.3-2.2-3l6.9-20.8c1.3-4,6.4-7.6,10.6-7.6H131c4.2,0,9.2,3.6,10.6,7.6l6.9,20.8c0.6,1.6-0.4,3-2.1,3
			L65.3,190.1L65.3,190.1z M152.9,227.8c-5.2,0-9.4-4.2-9.4-9.4s4.2-9.4,9.4-9.4s9.4,4.2,9.4,9.4S158.1,227.8,152.9,227.8z"/>
	</g>
	<g>
		<path d="M84.2,97.3c-14,0-13.7,13.6-13.7,13.6l0,31.7c0.9-0.1,1.8-0.2,2.8-0.2H98l0-31.4C98,110.9,97.7,97.3,84.2,97.3z"/>
		<path d="M133.9,124.5c-14,0-13.7,13.6-13.7,13.6v4.2h14.2c4.6,0,9.4,1.9,13.2,5v-9.2C147.7,138.1,147.4,124.5,133.9,124.5z"/>
		<path d="M197.4,182l0-96.1c0,0-0.3-13.6-13.8-13.6c-14,0-13.7,13.6-13.7,13.6l0,96.1c0,0,0.3,13.6,13.8,13.6
			C197.7,195.6,197.4,182,197.4,182z"/>
		<path d="M233.5,195.6c14,0,13.7-13.6,13.7-13.6l0-127.8c0,0-0.3-13.6-13.8-13.6c-14,0-13.7,13.6-13.7,13.6l0,127.8
			C219.7,182,220,195.6,233.5,195.6z"/>
		<path d="M245.8,213.4l-66.3,0v27.5l66.3,0c0,0,13.6-0.3,13.6-13.8C259.4,213.1,245.8,213.4,245.8,213.4z"/>
	</g>
</g>
</svg>
