<?xml version="1.0" encoding="utf-8"?>
<!-- Generator: Adobe Illustrator 26.3.1, SVG Export Plug-In . SVG Version: 6.00 Build 0)  -->
<svg version="1.1" id="Layer_1" xmlns="http://www.w3.org/2000/svg" xmlns:xlink="http://www.w3.org/1999/xlink" x="0px" y="0px"
	 viewBox="0 0 302.4 302.4" style="enable-background:new 0 0 302.4 302.4;" xml:space="preserve">
<metadata><?xpacket begin="﻿" id="W5M0MpCehiHzreSzNTczkc9d"?>
<x:xmpmeta xmlns:x="adobe:ns:meta/" x:xmptk="Adobe XMP Core 8.0-c001 1.000000, 0000/00/00-00:00:00        ">
   <rdf:RDF xmlns:rdf="http://www.w3.org/1999/02/22-rdf-syntax-ns#">
      <rdf:Description rdf:about=""
            xmlns:dc="http://purl.org/dc/elements/1.1/"
            xmlns:prism="http://prismstandard.org/namespaces/basic/2.1/"
            xmlns:tiff="http://ns.adobe.com/tiff/1.0/"
            xmlns:bsam="http://www.bsam.blog">
         <dc:modified>2025-09-09T17:15:47.302Z</dc:modified>
         <dc:format>image/svg+xml</dc:format>
         <prism:Date>2025-09-08T19:20:00.000+02:00</prism:Date>
         <tiff:ImageWidth>302</tiff:ImageWidth>
         <tiff:ImageLength>302</tiff:ImageLength>
         <bsam:rightsLimitedUnlimited>unlimited</bsam:rightsLimitedUnlimited>
         <bsam:subDigitalAssetType>
            <rdf:Bag>
               <rdf:li>enterprise:digital-asset-type/image/icon</rdf:li>
            </rdf:Bag>
         </bsam:subDigitalAssetType>
         <bsam:industry>
            <rdf:Bag>
               <rdf:li>enterprise:industry/generic-all-industries</rdf:li>
            </rdf:Bag>
         </bsam:industry>
         <bsam:assetOwner>
            <rdf:Bag>
               <rdf:li>enterprise:business-unit/webfleet</rdf:li>
            </rdf:Bag>
         </bsam:assetOwner>
         <bsam:usageCountry>
            <rdf:Bag>
               <rdf:li>enterprise:region-country/global</rdf:li>
            </rdf:Bag>
         </bsam:usageCountry>
      </rdf:Description>
   </rdf:RDF>
</x:xmpmeta>
                                                                                                    
                                                                                                    
                                                                                                    
                                                                                                    
                                                                                                    
                                                                                                    
                                                                                                    
                                                                                                    
                                                                                                    
                           
<?xpacket end="w"?></metadata>
<g>
	<path d="M263.9,193.6c-7.3,8.2-17.4,13.1-28.3,14c-11.3,0.8-22.2-2.7-30.7-10.1c-3.4-2.9-6.3-6.4-8.6-10.1h45.3V172h-50.9
		c-0.2-1.1-0.3-2.3-0.4-3.4c-0.3-4.1,0-8.1,0.8-11.9h50.5v-15.3h-43.9c0.8-1.2,1.7-2.4,2.7-3.5c7.4-8.6,17.6-13.7,28.9-14.6
		c13.2-1,25.8,4.1,34.7,13.9c2.9-2.6,7.7-6.7,11.4-10.2c-12-13.4-29.2-20.3-47.2-19c-15.3,1.2-29.3,8.2-39.3,19.8
		c-3.5,4.1-6.4,8.7-8.6,13.5h-15.2v15.3h10.6c-0.6,4.3-0.8,8.6-0.5,13.1c0.1,0.8,0.1,1.5,0.2,2.3h-10.4v15.3h14.3
		c3.4,8.3,8.7,15.7,15.7,21.7c10.5,9.1,23.7,13.9,37.4,13.9c1.5,0,2.9-0.1,4.4-0.2c14.9-1.1,28.6-7.9,38.6-19
		C271.2,200.1,267.2,196.7,263.9,193.6z"/>
	<g>
		<g>
			<path d="M185.1,96.5c-10.9-21.5-33.2-36.2-58.9-36.2c-36.5,0-66.1,29.6-66.1,66.1s29.6,66,66.1,66c8.4,0,16.5-1.6,23.8-4.5
				c-2.4-7.5-3.7-15.6-3.7-23.9C146.3,135.3,161.9,110.1,185.1,96.5z"/>
		</g>
		<path d="M161.6,210.6c-11,4.2-22.9,6.5-35.4,6.5c-22.5,0-43.3-7.6-60.1-20.1c-20.4,10.2-34.8,27.5-39,45l0,0h189.5
			C194.1,239.7,174.4,227.9,161.6,210.6z"/>
	</g>
</g>
</svg>
