<?xml version="1.0" encoding="utf-8"?>
<!-- Generator: Adobe Illustrator 26.3.1, SVG Export Plug-In . SVG Version: 6.00 Build 0)  -->
<svg version="1.1" id="Layer_1" xmlns="http://www.w3.org/2000/svg" xmlns:xlink="http://www.w3.org/1999/xlink" x="0px" y="0px"
	 viewBox="0 0 302.4 302.4" style="enable-background:new 0 0 302.4 302.4;" xml:space="preserve">
<metadata><?xpacket begin="﻿" id="W5M0MpCehiHzreSzNTczkc9d"?>
<x:xmpmeta xmlns:x="adobe:ns:meta/" x:xmptk="Adobe XMP Core 8.0-c001 1.000000, 0000/00/00-00:00:00        ">
   <rdf:RDF xmlns:rdf="http://www.w3.org/1999/02/22-rdf-syntax-ns#">
      <rdf:Description rdf:about=""
            xmlns:dc="http://purl.org/dc/elements/1.1/"
            xmlns:prism="http://prismstandard.org/namespaces/basic/2.1/"
            xmlns:tiff="http://ns.adobe.com/tiff/1.0/"
            xmlns:bsam="http://www.bsam.blog">
         <dc:modified>2025-09-09T17:14:15.897Z</dc:modified>
         <dc:format>image/svg+xml</dc:format>
         <prism:Date>2025-09-08T19:20:00.000+02:00</prism:Date>
         <tiff:ImageWidth>302</tiff:ImageWidth>
         <tiff:ImageLength>302</tiff:ImageLength>
         <bsam:rightsLimitedUnlimited>unlimited</bsam:rightsLimitedUnlimited>
         <bsam:subDigitalAssetType>
            <rdf:Bag>
               <rdf:li>enterprise:digital-asset-type/image/icon</rdf:li>
            </rdf:Bag>
         </bsam:subDigitalAssetType>
         <bsam:industry>
            <rdf:Bag>
               <rdf:li>enterprise:industry/generic-all-industries</rdf:li>
            </rdf:Bag>
         </bsam:industry>
         <bsam:assetOwner>
            <rdf:Bag>
               <rdf:li>enterprise:business-unit/webfleet</rdf:li>
            </rdf:Bag>
         </bsam:assetOwner>
         <bsam:usageCountry>
            <rdf:Bag>
               <rdf:li>enterprise:region-country/global</rdf:li>
            </rdf:Bag>
         </bsam:usageCountry>
      </rdf:Description>
   </rdf:RDF>
</x:xmpmeta>
                                                                                                    
                                                                                                    
                                                                                                    
                                                                                                    
                                                                                                    
                                                                                                    
                                                                                                    
                                                                                                    
                                                                                                    
                           
<?xpacket end="w"?></metadata>
<g>
	<path d="M243.7,44.4h-64.6c-1.6,0-3.2,0.7-4.3,1.8L47.6,175.5c-1.7,1.7-0.5,4.6,1.9,4.6h64.6c1.6,0,3.2-0.7,4.3-1.8L245.7,49
		C247.3,47.3,246.1,44.4,243.7,44.4z"/>
	<path d="M133.1,250.9H43.9c-2.3,0-4.1-1.8-4.1-4.1V194c0-2.3,1.8-4.1,4.1-4.1h89.2V250.9z"/>
	<path d="M262.5,258H247c-10.8,0-19.5-8.7-19.5-19.5v-38.3c0-10.8,8.7-19.5,19.5-19.5h15.5V258z"/>
	<g>
		<path d="M213.5,244.1h-29.3c-2.2,0-4-1.8-4-4v-39.5c0-2.2,1.8-4,4-4h29.3c2.2,0,4,1.8,4,4v39.5
			C217.5,242.3,215.7,244.1,213.5,244.1z M188.2,236.1h21.3v-31.5h-21.3V236.1z"/>
	</g>
	<path d="M189.8,246.5l-17.4,10.9c-0.5,0.3-1.1,0.5-1.8,0.5h-25.5c-1.2,0-2.2-1-2.2-2.2v-70.6c0-1.2,1-2.2,2.2-2.2h26.8
		c0.6,0,1.3,0.2,1.8,0.5l16.1,10.4c1,0.7,1.6,1.8,1.6,3v46.6C191.5,244.7,190.8,245.8,189.8,246.5z"/>
</g>
</svg>
