<?xml version="1.0" encoding="utf-8"?>
<!-- Generator: Adobe Illustrator 26.3.1, SVG Export Plug-In . SVG Version: 6.00 Build 0)  -->
<svg version="1.1" id="Layer_1" xmlns="http://www.w3.org/2000/svg" xmlns:xlink="http://www.w3.org/1999/xlink" x="0px" y="0px"
	 viewBox="0 0 302.4 302.4" style="enable-background:new 0 0 302.4 302.4;" xml:space="preserve">
<metadata><?xpacket begin="﻿" id="W5M0MpCehiHzreSzNTczkc9d"?>
<x:xmpmeta xmlns:x="adobe:ns:meta/" x:xmptk="Adobe XMP Core 8.0-c001 1.000000, 0000/00/00-00:00:00        ">
   <rdf:RDF xmlns:rdf="http://www.w3.org/1999/02/22-rdf-syntax-ns#">
      <rdf:Description rdf:about=""
            xmlns:dc="http://purl.org/dc/elements/1.1/"
            xmlns:prism="http://prismstandard.org/namespaces/basic/2.1/"
            xmlns:tiff="http://ns.adobe.com/tiff/1.0/"
            xmlns:bsam="http://www.bsam.blog">
         <dc:modified>2025-09-09T17:16:47.522Z</dc:modified>
         <dc:format>image/svg+xml</dc:format>
         <prism:Date>2025-09-08T19:20:00.000+02:00</prism:Date>
         <tiff:ImageWidth>302</tiff:ImageWidth>
         <tiff:ImageLength>302</tiff:ImageLength>
         <bsam:rightsLimitedUnlimited>unlimited</bsam:rightsLimitedUnlimited>
         <bsam:subDigitalAssetType>
            <rdf:Bag>
               <rdf:li>enterprise:digital-asset-type/image/icon</rdf:li>
            </rdf:Bag>
         </bsam:subDigitalAssetType>
         <bsam:industry>
            <rdf:Bag>
               <rdf:li>enterprise:industry/generic-all-industries</rdf:li>
            </rdf:Bag>
         </bsam:industry>
         <bsam:assetOwner>
            <rdf:Bag>
               <rdf:li>enterprise:business-unit/webfleet</rdf:li>
            </rdf:Bag>
         </bsam:assetOwner>
         <bsam:usageCountry>
            <rdf:Bag>
               <rdf:li>enterprise:region-country/global</rdf:li>
            </rdf:Bag>
         </bsam:usageCountry>
      </rdf:Description>
   </rdf:RDF>
</x:xmpmeta>
                                                                                                    
                                                                                                    
                                                                                                    
                                                                                                    
                                                                                                    
                                                                                                    
                                                                                                    
                                                                                                    
                                                                                                    
                           
<?xpacket end="w"?></metadata>
<g>
	<path d="M90.8,197.6c-1,2.3-3.2,3.8-5.6,3.8l0,0c-1.5,0-3-0.6-4.2-1.8c-26.1-26.9-26.1-69.2-0.1-96.2c1.1-1.2,2.6-1.8,4.2-1.8
		c2.4,0,4.6,1.5,5.6,3.8c0.9,2.2,0.5,4.6-1.2,6.4C68,134.2,68.1,169,89.6,191.2C91.2,193,91.7,195.4,90.8,197.6z M106.8,181.6
		c-1,2.3-3.2,3.8-5.6,3.8l0,0c-1.6,0-3-0.7-4.2-1.9c-17.3-18.2-17.3-45.7-0.1-64c1.1-1.2,2.6-1.9,4.2-1.9c2.4,0,4.6,1.5,5.6,3.8
		c0.9,2.2,0.5,4.7-1.2,6.4c-12.8,13.5-12.7,33.8,0.1,47.2C107.3,176.9,107.8,179.4,106.8,181.6z"/>
	<path d="M210.7,126l-63.6,0v15.9c-3.1-11.7-11.7-21.2-22.9-25.4v70.1c11.2-4.2,19.8-13.7,22.9-25.4v15.6l63.6,0
		c12.6,0,23-10.4,23-23V149C233.6,136.3,223.3,126,210.7,126z"/>
	<g>
		<path d="M210.1,120.2h-60.6V45.2h60.6V120.2z M157.5,112.2h44.6V53.2h-44.6V112.2z"/>
	</g>
	<g>
		<path d="M210.1,257.8h-60.6v-74.9h60.6V257.8z M157.5,249.8h44.6v-58.9h-44.6V249.8z"/>
	</g>
</g>
</svg>
