<?xml version="1.0" encoding="utf-8"?>
<!-- Generator: Adobe Illustrator 26.3.1, SVG Export Plug-In . SVG Version: 6.00 Build 0)  -->
<svg version="1.1" id="Layer_1" xmlns="http://www.w3.org/2000/svg" xmlns:xlink="http://www.w3.org/1999/xlink" x="0px" y="0px"
	 viewBox="0 0 302.4 302.4" style="enable-background:new 0 0 302.4 302.4;" xml:space="preserve">
<metadata><?xpacket begin="﻿" id="W5M0MpCehiHzreSzNTczkc9d"?>
<x:xmpmeta xmlns:x="adobe:ns:meta/" x:xmptk="Adobe XMP Core 8.0-c001 1.000000, 0000/00/00-00:00:00        ">
   <rdf:RDF xmlns:rdf="http://www.w3.org/1999/02/22-rdf-syntax-ns#">
      <rdf:Description rdf:about=""
            xmlns:dc="http://purl.org/dc/elements/1.1/"
            xmlns:prism="http://prismstandard.org/namespaces/basic/2.1/"
            xmlns:tiff="http://ns.adobe.com/tiff/1.0/"
            xmlns:bsam="http://www.bsam.blog">
         <dc:modified>2025-09-09T17:17:04.868Z</dc:modified>
         <dc:format>image/svg+xml</dc:format>
         <prism:Date>2025-09-08T19:20:00.000+02:00</prism:Date>
         <tiff:ImageWidth>302</tiff:ImageWidth>
         <tiff:ImageLength>302</tiff:ImageLength>
         <bsam:rightsLimitedUnlimited>unlimited</bsam:rightsLimitedUnlimited>
         <bsam:subDigitalAssetType>
            <rdf:Bag>
               <rdf:li>enterprise:digital-asset-type/image/icon</rdf:li>
            </rdf:Bag>
         </bsam:subDigitalAssetType>
         <bsam:industry>
            <rdf:Bag>
               <rdf:li>enterprise:industry/generic-all-industries</rdf:li>
            </rdf:Bag>
         </bsam:industry>
         <bsam:assetOwner>
            <rdf:Bag>
               <rdf:li>enterprise:business-unit/webfleet</rdf:li>
            </rdf:Bag>
         </bsam:assetOwner>
         <bsam:usageCountry>
            <rdf:Bag>
               <rdf:li>enterprise:region-country/global</rdf:li>
            </rdf:Bag>
         </bsam:usageCountry>
      </rdf:Description>
   </rdf:RDF>
</x:xmpmeta>
                                                                                                    
                                                                                                    
                                                                                                    
                                                                                                    
                                                                                                    
                                                                                                    
                                                                                                    
                                                                                                    
                                                                                                    
                           
<?xpacket end="w"?></metadata>
<path d="M202,217.1c0,8.5,6.9,15.4,15.4,15.4s15.4-6.9,15.4-15.4s-6.9-15.4-15.4-15.4C208.9,201.8,202,208.6,202,217.1 M136.3,244.6
	c0,8.5,6.9,15.4,15.4,15.4s15.4-6.9,15.4-15.4c0-8.5-6.9-15.4-15.4-15.4C143.2,229.2,136.3,236.1,136.3,244.6 M70,217.3
	c0,8.5,6.9,15.4,15.4,15.4s15.4-6.9,15.4-15.4c0-8.5-6.9-15.4-15.4-15.4S70,208.8,70,217.3 M73.4,151.5c0-8.5-6.9-15.4-15.4-15.4
	c-8.5,0-15.4,6.9-15.4,15.4s6.9,15.4,15.4,15.4C66.5,166.9,73.4,160,73.4,151.5 M100.7,84.7c0-8.5-6.9-15.4-15.4-15.4
	c-8.5,0-15.4,6.9-15.4,15.4c0,8.5,6.9,15.4,15.4,15.4C93.8,100.1,100.7,93.2,100.7,84.7 M167.1,57.8c0-8.5-6.9-15.4-15.4-15.4
	s-15.4,6.9-15.4,15.4c0,8.5,6.9,15.4,15.4,15.4C160.2,73.1,167.1,66.2,167.1,57.8 M218.6,151.2c0-37.1-30.1-67.2-67.2-67.2
	s-67.2,30.1-67.2,67.2s30.1,67.2,67.2,67.2S218.6,188.3,218.6,151.2 M232.7,84.8c0-8.5-6.9-15.4-15.4-15.4
	c-8.5,0-15.4,6.9-15.4,15.4c0,8.5,6.9,15.4,15.4,15.4C225.9,100.2,232.7,93.3,232.7,84.8 M259.8,151.5c0-8.5-6.9-15.4-15.4-15.4
	S229,143,229,151.5s6.9,15.4,15.4,15.4C252.9,166.9,259.8,160,259.8,151.5"/>
</svg>
