<?xml version="1.0" encoding="utf-8"?>
<!-- Generator: Adobe Illustrator 26.3.1, SVG Export Plug-In . SVG Version: 6.00 Build 0)  -->
<svg version="1.1" id="Layer_1" xmlns="http://www.w3.org/2000/svg" xmlns:xlink="http://www.w3.org/1999/xlink" x="0px" y="0px"
	 viewBox="0 0 302.4 302.4" style="enable-background:new 0 0 302.4 302.4;" xml:space="preserve">
<metadata><?xpacket begin="﻿" id="W5M0MpCehiHzreSzNTczkc9d"?>
<x:xmpmeta xmlns:x="adobe:ns:meta/" x:xmptk="Adobe XMP Core 8.0-c001 1.000000, 0000/00/00-00:00:00        ">
   <rdf:RDF xmlns:rdf="http://www.w3.org/1999/02/22-rdf-syntax-ns#">
      <rdf:Description rdf:about=""
            xmlns:dc="http://purl.org/dc/elements/1.1/"
            xmlns:prism="http://prismstandard.org/namespaces/basic/2.1/"
            xmlns:tiff="http://ns.adobe.com/tiff/1.0/"
            xmlns:bsam="http://www.bsam.blog">
         <dc:modified>2025-09-09T17:10:55.241Z</dc:modified>
         <dc:format>image/svg+xml</dc:format>
         <prism:Date>2025-09-08T19:20:00.000+02:00</prism:Date>
         <tiff:ImageWidth>302</tiff:ImageWidth>
         <tiff:ImageLength>302</tiff:ImageLength>
         <bsam:rightsLimitedUnlimited>unlimited</bsam:rightsLimitedUnlimited>
         <bsam:subDigitalAssetType>
            <rdf:Bag>
               <rdf:li>enterprise:digital-asset-type/image/icon</rdf:li>
            </rdf:Bag>
         </bsam:subDigitalAssetType>
         <bsam:industry>
            <rdf:Bag>
               <rdf:li>enterprise:industry/generic-all-industries</rdf:li>
            </rdf:Bag>
         </bsam:industry>
         <bsam:assetOwner>
            <rdf:Bag>
               <rdf:li>enterprise:business-unit/webfleet</rdf:li>
            </rdf:Bag>
         </bsam:assetOwner>
         <bsam:usageCountry>
            <rdf:Bag>
               <rdf:li>enterprise:region-country/global</rdf:li>
            </rdf:Bag>
         </bsam:usageCountry>
      </rdf:Description>
   </rdf:RDF>
</x:xmpmeta>
                                                                                                    
                                                                                                    
                                                                                                    
                                                                                                    
                                                                                                    
                                                                                                    
                                                                                                    
                                                                                                    
                                                                                                    
                           
<?xpacket end="w"?></metadata>
<g>
	<g>
		<path d="M146.1,98.4c13,1.3,31.6,8.1,46.1,16.6l24.4-19.4c-7.2-5.1-15.3-9.9-24.7-13.5c-0.2-0.1-0.4-0.1-0.6-0.2
			c-1.3-0.5-2.5-0.9-3.8-1.3c-0.6-0.2-1.3-0.4-1.9-0.6c-0.9-0.3-1.7-0.5-2.6-0.8c-1.1-0.3-2.1-0.6-3.2-0.9c-0.5-0.1-1-0.2-1.4-0.4
			c-1.4-0.3-2.9-0.7-4.3-1c-0.2,0-0.4-0.1-0.6-0.1c-1.6-0.3-3.3-0.6-4.9-0.9c-0.1,0-0.1,0-0.2,0c-1.7-0.3-3.4-0.5-5.1-0.7
			c-0.1,0-0.1,0-0.2,0c0,0-0.1,0-0.1,0c-1.6-0.2-3.1-0.3-4.7-0.4c-0.3,0-0.7-0.1-1-0.1c-1.2-0.1-2.5-0.1-3.8-0.2
			c-0.7,0-1.4-0.1-2.1-0.1c-0.9,0-1.7,0-2.6,0c-1.1,0-2.2,0-3.3,0c-0.5,0-1,0-1.4,0.1c-1.4,0.1-2.9,0.1-4.3,0.2c-0.1,0-0.2,0-0.3,0
			c-0.1,0-0.3,0-0.4,0c-1.6,0.1-3.2,0.3-4.7,0.5c-0.2,0-0.4,0-0.6,0.1c-1.5,0.2-3.1,0.4-4.6,0.7c-0.3,0.1-0.7,0.1-1,0.2
			c-1.3,0.2-2.6,0.5-3.9,0.7c-0.6,0.1-1.2,0.3-1.8,0.4c-1,0.2-1.9,0.4-2.9,0.7c-1,0.2-2,0.5-2.9,0.8c-0.6,0.2-1.1,0.3-1.6,0.5
			c-1.4,0.4-2.8,0.8-4.2,1.3c-0.1,0-0.2,0.1-0.3,0.1c-17.4,5.8-32.8,15.3-45.1,28.2c-0.7,0.7-1,1.6-1,2.5c0,0.8,0.2,1.6,0.8,2.3
			c1.4,1.7,3.9,1.8,5.9,0.6C89.8,102,118.7,95.7,146.1,98.4z"/>
	</g>
	<path d="M141.2,138.5l-3.3-1.1c6.4,2,12.4,4.5,17.9,8.1L176,127c-3.1-1.8-6.3-3.5-9.6-4.9c-0.2-0.1-0.3-0.1-0.5-0.2
		c-1-0.4-2.1-0.8-3.1-1.2c-0.5-0.2-1.1-0.4-1.6-0.6c-0.7-0.2-1.4-0.5-2.1-0.7c-0.9-0.3-1.7-0.6-2.6-0.8c-0.4-0.1-0.8-0.2-1.2-0.3
		c-1.1-0.3-2.3-0.6-3.5-0.9c-0.2,0-0.3-0.1-0.5-0.1c-1.3-0.3-2.7-0.6-4-0.8c-0.1,0-0.1,0-0.1,0c-1.4-0.2-2.8-0.5-4.1-0.6
		c0,0-0.1,0-0.1,0c0,0-0.1,0-0.1,0c-1.3-0.2-2.5-0.3-3.8-0.4c-0.3,0-0.6,0-0.8-0.1c-1-0.1-2-0.1-3-0.2c-0.6,0-1.2-0.1-1.7-0.1
		c-0.7,0-1.4,0-2.1,0c-0.9,0-1.8,0-2.7,0c-0.4,0-0.8,0-1.2,0c-1.2,0.1-2.3,0.1-3.5,0.2c-0.1,0-0.2,0-0.3,0c-0.1,0-0.2,0-0.3,0
		c-1.3,0.1-2.6,0.3-3.8,0.4c-0.2,0-0.3,0-0.5,0.1c-1.2,0.2-2.5,0.4-3.7,0.6c-0.3,0-0.5,0.1-0.8,0.2c-1.1,0.2-2.1,0.4-3.2,0.7
		c-0.5,0.1-1,0.2-1.5,0.4c-0.8,0.2-1.6,0.4-2.3,0.6c-0.8,0.2-1.6,0.5-2.4,0.7c-0.4,0.1-0.9,0.3-1.3,0.4c-1.1,0.4-2.3,0.8-3.4,1.2
		c-0.1,0-0.2,0.1-0.2,0.1l-0.4,0.1c-6.1,2.3-12,5.3-17.4,9c-2.4,1.6-4.8,3.4-7,5.4c-0.7,0.6-1,1.3-1.1,2.1c-0.1,0.7,0,1.5,0.4,2.2
		c0.9,1.8,3,2.5,4.7,1.7C98.5,132,120.4,131,141.2,138.5z"/>
	<path d="M236.3,117.1c-0.2-0.3-0.4-0.5-0.6-0.8c-0.1-0.1-0.2-0.1-0.2-0.2c-0.2-0.1-0.4-0.3-0.5-0.4c-0.1-0.1-0.2-0.1-0.3-0.2
		c-0.2-0.1-0.4-0.2-0.6-0.2c-0.1,0-0.2-0.1-0.3-0.1c-0.3-0.1-0.6-0.1-0.9-0.1c0,0,0,0,0,0c0,0-0.1,0-0.1,0c-0.3,0-0.7,0.1-1,0.2
		c-0.1,0-0.2,0.1-0.3,0.1c-0.4,0.1-0.7,0.3-1,0.5l-70.6,52.7c-4.4-1.6-9.2-2.6-14.2-2.6c-22.5,0-40.7,18.2-40.7,40.7
		c0,22.5,18.2,40.7,40.7,40.7s40.7-18.2,40.7-40.7c0-4.1-0.6-8.1-1.8-11.9l51.6-72.6c0.1-0.2,0.3-0.4,0.4-0.6
		C237.3,120.3,237.3,118.5,236.3,117.1z"/>
</g>
</svg>
