<?xml version="1.0" encoding="utf-8"?>
<!-- Generator: Adobe Illustrator 26.3.1, SVG Export Plug-In . SVG Version: 6.00 Build 0)  -->
<svg version="1.1" id="Layer_1" xmlns="http://www.w3.org/2000/svg" xmlns:xlink="http://www.w3.org/1999/xlink" x="0px" y="0px"
	 viewBox="0 0 302.4 302.4" style="enable-background:new 0 0 302.4 302.4;" xml:space="preserve">
<metadata><?xpacket begin="﻿" id="W5M0MpCehiHzreSzNTczkc9d"?>
<x:xmpmeta xmlns:x="adobe:ns:meta/" x:xmptk="Adobe XMP Core 8.0-c001 1.000000, 0000/00/00-00:00:00        ">
   <rdf:RDF xmlns:rdf="http://www.w3.org/1999/02/22-rdf-syntax-ns#">
      <rdf:Description rdf:about=""
            xmlns:dc="http://purl.org/dc/elements/1.1/"
            xmlns:prism="http://prismstandard.org/namespaces/basic/2.1/"
            xmlns:tiff="http://ns.adobe.com/tiff/1.0/"
            xmlns:bsam="http://www.bsam.blog">
         <dc:modified>2025-09-09T17:25:50.484Z</dc:modified>
         <dc:format>image/svg+xml</dc:format>
         <prism:Date>2025-09-08T19:20:00.000+02:00</prism:Date>
         <tiff:ImageWidth>302</tiff:ImageWidth>
         <tiff:ImageLength>302</tiff:ImageLength>
         <bsam:rightsLimitedUnlimited>unlimited</bsam:rightsLimitedUnlimited>
         <bsam:subDigitalAssetType>
            <rdf:Bag>
               <rdf:li>enterprise:digital-asset-type/image/icon</rdf:li>
            </rdf:Bag>
         </bsam:subDigitalAssetType>
         <bsam:industry>
            <rdf:Bag>
               <rdf:li>enterprise:industry/generic-all-industries</rdf:li>
            </rdf:Bag>
         </bsam:industry>
         <bsam:assetOwner>
            <rdf:Bag>
               <rdf:li>enterprise:business-unit/webfleet</rdf:li>
            </rdf:Bag>
         </bsam:assetOwner>
         <bsam:usageCountry>
            <rdf:Bag>
               <rdf:li>enterprise:region-country/global</rdf:li>
            </rdf:Bag>
         </bsam:usageCountry>
      </rdf:Description>
   </rdf:RDF>
</x:xmpmeta>
                                                                                                    
                                                                                                    
                                                                                                    
                                                                                                    
                                                                                                    
                                                                                                    
                                                                                                    
                                                                                                    
                                                                                                    
                                                                                                    
                                                                                                    
                                                                                                    
                                                                                                    
                                                                                                    
                                                                                                    
                                                                                                    
                                                                                                    
                                                                                                    
                                                                            
<?xpacket end="w"?></metadata>
<path d="M88.4,170L88.4,170c0,18.4-14.3,28.8-34.4,28.8c-14.8,0.2-29.1-5-40.4-14.6l12.3-14.5c7.8,7,17.8,11,28.2,11.3
	c8.5,0,13.8-3.3,13.8-8.7l0,0c0-5.2-3.2-7.8-19-11.8c-19-4.8-31.3-10-31.3-28.5l0,0c0-16.9,13.8-28.1,33.1-28.1
	c12.7-0.2,25.1,3.9,35.1,11.8l-10.9,14.9c-7.1-5.4-15.6-8.6-24.6-9.2c-8,0-12.2,3.6-12.2,8.1l0,0c0,6.1,4.1,8.1,20.6,12.2
	C77.6,146.9,88.4,153.7,88.4,170z M202.6,151.2L202.6,151.2c-0.2,26.8-22,48.4-48.8,48.2c-0.5,0-1,0-1.5,0
	c-26.6,1.1-49-19.6-50-46.2c0-0.6,0-1.3,0-2l0,0c0.2-26.8,22-48.4,48.8-48.2c0.5,0,1,0,1.6,0c26.6-1,48.9,19.7,50,46.3
	C202.6,149.9,202.6,150.6,202.6,151.2z M181,151.2c0.4-15.7-12-28.8-27.7-29.2c-0.3,0-0.6,0-0.9,0c-15.5-0.2-28.2,12.2-28.4,27.6
	c0,0.5,0,1.1,0,1.6l0,0c-0.4,15.7,12,28.8,27.7,29.2c0.3,0,0.6,0,0.9,0c15.5,0.2,28.2-12.2,28.4-27.6C181,152.3,181,151.7,181,151.2
	z M258.9,142c-16.3-4.1-20.6-6.1-20.6-12.2l0,0c0-4.5,4.2-8.1,12.1-8.1c8.9,0.4,17.5,3.5,24.7,8.9l10.8-15.4
	c-9.9-7.9-22.2-12.2-34.9-12.1c-19.3,0-33,11.1-33,28.1l0,0c0,18.4,12.2,23.7,31.3,28.5c15.8,4,19,6.9,19,11.8l0,0
	c0,5.4-5.1,8.7-13.8,8.7c-10.4-0.3-20.4-4.3-28.1-11.3l-12.2,15.3c11.1,9.8,25.5,15.2,40.3,15.1c20.6,0,34.4-10.4,34.4-28.8l0,0
	C288.8,153.7,278,146.9,258.9,142z"/>
</svg>
