<?xml version="1.0" encoding="utf-8"?>
<!-- Generator: Adobe Illustrator 26.3.1, SVG Export Plug-In . SVG Version: 6.00 Build 0)  -->
<svg version="1.1" id="Layer_1" xmlns="http://www.w3.org/2000/svg" xmlns:xlink="http://www.w3.org/1999/xlink" x="0px" y="0px"
	 viewBox="0 0 302.4 302.4" style="enable-background:new 0 0 302.4 302.4;" xml:space="preserve">
<metadata><?xpacket begin="﻿" id="W5M0MpCehiHzreSzNTczkc9d"?>
<x:xmpmeta xmlns:x="adobe:ns:meta/" x:xmptk="Adobe XMP Core 8.0-c001 1.000000, 0000/00/00-00:00:00        ">
   <rdf:RDF xmlns:rdf="http://www.w3.org/1999/02/22-rdf-syntax-ns#">
      <rdf:Description rdf:about=""
            xmlns:dc="http://purl.org/dc/elements/1.1/"
            xmlns:prism="http://prismstandard.org/namespaces/basic/2.1/"
            xmlns:tiff="http://ns.adobe.com/tiff/1.0/"
            xmlns:bsam="http://www.bsam.blog">
         <dc:modified>2025-09-09T17:17:31.962Z</dc:modified>
         <dc:format>image/svg+xml</dc:format>
         <prism:Date>2025-09-08T19:20:00.000+02:00</prism:Date>
         <tiff:ImageWidth>302</tiff:ImageWidth>
         <tiff:ImageLength>302</tiff:ImageLength>
         <bsam:rightsLimitedUnlimited>unlimited</bsam:rightsLimitedUnlimited>
         <bsam:subDigitalAssetType>
            <rdf:Bag>
               <rdf:li>enterprise:digital-asset-type/image/icon</rdf:li>
            </rdf:Bag>
         </bsam:subDigitalAssetType>
         <bsam:industry>
            <rdf:Bag>
               <rdf:li>enterprise:industry/generic-all-industries</rdf:li>
            </rdf:Bag>
         </bsam:industry>
         <bsam:assetOwner>
            <rdf:Bag>
               <rdf:li>enterprise:business-unit/webfleet</rdf:li>
            </rdf:Bag>
         </bsam:assetOwner>
         <bsam:usageCountry>
            <rdf:Bag>
               <rdf:li>enterprise:region-country/global</rdf:li>
            </rdf:Bag>
         </bsam:usageCountry>
      </rdf:Description>
   </rdf:RDF>
</x:xmpmeta>
                                                                                                    
                                                                                                    
                                                                                                    
                                                                                                    
                                                                                                    
                                                                                                    
                                                                                                    
                                                                                                    
                                                                                                    
                           
<?xpacket end="w"?></metadata>
<style type="text/css">
	.st0{fill-rule:evenodd;clip-rule:evenodd;}
</style>
<g>
	<g>
		<g>
			<path d="M174.6,101.4c-10.7-21.1-32.6-35.5-57.8-35.5c-35.8,0-64.8,29-64.8,64.9c0,35.8,29,64.9,64.8,64.9
				c8.3,0,16.1-1.6,23.4-4.4c-2.4-7.4-3.7-15.3-3.7-23.5C136.5,139.5,151.8,114.8,174.6,101.4z"/>
		</g>
		<path d="M151.5,213.4c-10.8,4.1-22.5,6.4-34.8,6.4c-22.1,0-42.5-7.4-59-19.8c-20,10-34.2,27-38.3,44.2l0,0h186
			C183.4,242,164,230.4,151.5,213.4z"/>
	</g>
	<g>
		<g>
			<path d="M217.3,232.2c-36.1,0-65.4-29.3-65.4-65.4s29.3-65.4,65.4-65.4s65.4,29.3,65.4,65.4S253.4,232.2,217.3,232.2z
				 M217.3,110.6c-31,0-56.3,25.2-56.3,56.3s25.2,56.3,56.3,56.3s56.3-25.2,56.3-56.3S248.4,110.6,217.3,110.6z"/>
		</g>
		<path class="st0" d="M247.1,156.4h-19.3v-19.3c0-5.7-4.7-10.4-10.4-10.4s-10.4,4.7-10.4,10.4v19.3h-19.3
			c-5.7,0-10.4,4.7-10.4,10.4l0,0c0,5.7,4.7,10.4,10.4,10.4h19.3v19.3c0,5.7,4.7,10.4,10.4,10.4s10.4-4.7,10.4-10.4v-19.3h19.3
			c5.7,0,10.4-4.7,10.4-10.4l0,0C257.5,161.1,252.8,156.4,247.1,156.4z"/>
	</g>
</g>
</svg>
