<?xml version="1.0" encoding="utf-8"?>
<!-- Generator: Adobe Illustrator 26.3.1, SVG Export Plug-In . SVG Version: 6.00 Build 0)  -->
<svg version="1.1" id="Layer_1" xmlns="http://www.w3.org/2000/svg" xmlns:xlink="http://www.w3.org/1999/xlink" x="0px" y="0px"
	 viewBox="0 0 302.4 302.4" style="enable-background:new 0 0 302.4 302.4;" xml:space="preserve">
<metadata><?xpacket begin="﻿" id="W5M0MpCehiHzreSzNTczkc9d"?>
<x:xmpmeta xmlns:x="adobe:ns:meta/" x:xmptk="Adobe XMP Core 8.0-c001 1.000000, 0000/00/00-00:00:00        ">
   <rdf:RDF xmlns:rdf="http://www.w3.org/1999/02/22-rdf-syntax-ns#">
      <rdf:Description rdf:about=""
            xmlns:dc="http://purl.org/dc/elements/1.1/"
            xmlns:prism="http://prismstandard.org/namespaces/basic/2.1/"
            xmlns:tiff="http://ns.adobe.com/tiff/1.0/"
            xmlns:bsam="http://www.bsam.blog">
         <dc:modified>2025-09-09T17:33:39.875Z</dc:modified>
         <dc:format>image/svg+xml</dc:format>
         <prism:Date>2025-09-08T19:20:00.000+02:00</prism:Date>
         <tiff:ImageWidth>302</tiff:ImageWidth>
         <tiff:ImageLength>302</tiff:ImageLength>
         <bsam:rightsLimitedUnlimited>unlimited</bsam:rightsLimitedUnlimited>
         <bsam:subDigitalAssetType>
            <rdf:Bag>
               <rdf:li>enterprise:digital-asset-type/image/icon</rdf:li>
            </rdf:Bag>
         </bsam:subDigitalAssetType>
         <bsam:industry>
            <rdf:Bag>
               <rdf:li>enterprise:industry/generic-all-industries</rdf:li>
            </rdf:Bag>
         </bsam:industry>
         <bsam:assetOwner>
            <rdf:Bag>
               <rdf:li>enterprise:business-unit/webfleet</rdf:li>
            </rdf:Bag>
         </bsam:assetOwner>
         <bsam:usageCountry>
            <rdf:Bag>
               <rdf:li>enterprise:region-country/global</rdf:li>
            </rdf:Bag>
         </bsam:usageCountry>
      </rdf:Description>
   </rdf:RDF>
</x:xmpmeta>
                                                                                                    
                                                                                                    
                                                                                                    
                                                                                                    
                                                                                                    
                                                                                                    
                                                                                                    
                                                                                                    
                                                                                                    
                                                                                                    
                                                                                                    
                                                                                                    
                                                                                                    
                                                                                                    
                                                                                                    
                                                                                                    
                                                                                                    
                                                                                                    
                                                                            
<?xpacket end="w"?></metadata>
<style type="text/css">
	.st0{fill-rule:evenodd;clip-rule:evenodd;}
</style>
<g>
	<g>
		<path d="M144.5,103c-26.5,0-48.1,21.6-48.1,48.1c0,25.4,19.8,46.3,44.9,48l-2.4-24.2c-10.8-2.6-18.9-12.3-18.9-23.9
			c0-13.5,11-24.5,24.5-24.5s24.5,11,24.5,24.5c0,0.4,0,0.7-0.1,1.1l22.7,8.7c0.6-3.1,1-6.4,1-9.8C192.6,124.6,171,103,144.5,103z"
			/>
		<path d="M72.8,151.2c0-39.5,32.1-71.6,71.6-71.6s71.6,32.1,71.6,71.6c0,6.3-0.8,12.4-2.4,18.2l22.1,8.4c2.5-8.5,3.8-17.4,3.8-26.7
			c0-52.5-42.7-95.2-95.2-95.2s-95.2,42.7-95.2,95.2s42.7,95.2,95.2,95.2c0.5,0,0.9,0,1.4,0l-2.3-23.6
			C104.5,222.3,72.8,190.4,72.8,151.2z"/>
	</g>
	<path class="st0" d="M144.5,151.2l120.1,45.9l-67.5,22.9l-40,59.2L144.5,151.2z"/>
</g>
</svg>
