<?xml version="1.0" encoding="utf-8"?>
<!-- Generator: Adobe Illustrator 26.3.1, SVG Export Plug-In . SVG Version: 6.00 Build 0)  -->
<svg version="1.1" id="Layer_1" xmlns="http://www.w3.org/2000/svg" xmlns:xlink="http://www.w3.org/1999/xlink" x="0px" y="0px"
	 viewBox="0 0 302.4 302.4" style="enable-background:new 0 0 302.4 302.4;" xml:space="preserve">
<metadata><?xpacket begin="﻿" id="W5M0MpCehiHzreSzNTczkc9d"?>
<x:xmpmeta xmlns:x="adobe:ns:meta/" x:xmptk="Adobe XMP Core 8.0-c001 1.000000, 0000/00/00-00:00:00        ">
   <rdf:RDF xmlns:rdf="http://www.w3.org/1999/02/22-rdf-syntax-ns#">
      <rdf:Description rdf:about=""
            xmlns:dc="http://purl.org/dc/elements/1.1/"
            xmlns:prism="http://prismstandard.org/namespaces/basic/2.1/"
            xmlns:tiff="http://ns.adobe.com/tiff/1.0/"
            xmlns:bsam="http://www.bsam.blog">
         <dc:modified>2025-09-09T17:32:20.233Z</dc:modified>
         <dc:format>image/svg+xml</dc:format>
         <prism:Date>2025-09-08T19:20:00.000+02:00</prism:Date>
         <tiff:ImageWidth>302</tiff:ImageWidth>
         <tiff:ImageLength>302</tiff:ImageLength>
         <bsam:rightsLimitedUnlimited>unlimited</bsam:rightsLimitedUnlimited>
         <bsam:subDigitalAssetType>
            <rdf:Bag>
               <rdf:li>enterprise:digital-asset-type/image/icon</rdf:li>
            </rdf:Bag>
         </bsam:subDigitalAssetType>
         <bsam:industry>
            <rdf:Bag>
               <rdf:li>enterprise:industry/generic-all-industries</rdf:li>
            </rdf:Bag>
         </bsam:industry>
         <bsam:assetOwner>
            <rdf:Bag>
               <rdf:li>enterprise:business-unit/webfleet</rdf:li>
            </rdf:Bag>
         </bsam:assetOwner>
         <bsam:usageCountry>
            <rdf:Bag>
               <rdf:li>enterprise:region-country/global</rdf:li>
            </rdf:Bag>
         </bsam:usageCountry>
      </rdf:Description>
   </rdf:RDF>
</x:xmpmeta>
                                                                                                    
                                                                                                    
                                                                                                    
                                                                                                    
                                                                                                    
                                                                                                    
                                                                                                    
                                                                                                    
                                                                                                    
                                                                                                    
                                                                                                    
                                                                                                    
                                                                                                    
                                                                                                    
                                                                                                    
                                                                                                    
                                                                                                    
                                                                                                    
                                                                            
<?xpacket end="w"?></metadata>
<g>
	<g>
		<path d="M225.7,214.2l-90.1-90.1l0,0l-22.5-22.5c0.7-2.8,1.2-5.6,1.2-8.6c0-18.5-15-33.4-33.4-33.4c-3,0-5.9,0.4-8.6,1.2
			c-0.6,0.2-1.2,0.3-1.8,0.5l15.8,15.8l4.5,4.5c0.5,8.6-12.7,21.8-21.3,21.3l-4.5-4.5l0,0L49.2,82.6c-1.1,3.3-1.7,6.8-1.7,10.5
			c0,18.4,15,33.4,33.4,33.4c3,0,5.9-0.4,8.6-1.2l22.5,22.5l0,0l90.1,90.1c3,3,7.2,4.9,11.8,4.9c9.2,0,16.7-7.5,16.7-16.7
			C230.6,221.4,228.7,217.2,225.7,214.2z M213.9,234.4c-4.6,0-8.4-3.8-8.4-8.4c0-4.6,3.7-8.4,8.4-8.4s8.4,3.7,8.4,8.4
			S218.5,234.4,213.9,234.4z"/>
	</g>
	<g>
		<path d="M111.9,172.4L111.9,172.4L111.9,172.4l-42,42.1c-6.5,6.5-6.5,17,0,23.5c3.2,3.2,7.5,4.9,11.7,4.9s8.5-1.6,11.7-4.9
			l42-42.1L111.9,172.4z"/>
		<path d="M254.4,111.4c-2.8-2.8-6.9-3.2-10.2-1.5c0,0,0,0-0.1,0c-2.5,1.2-6.2,1.6-9.8-2c-7.6-7.6-5.1-17.6-22.3-31.8
			c-40.1-35.7-74.8-2.8-74.8-2.8c38.9-12.1,47.3,26.2,36.4,37.1l-13.5,13.5l0,0l0,0l23.5,23.5l8.5-8.5c0,0,0,0,0,0
			c2-2.1,3.9-3.9,4.9-4.9c5.4-5.4,8.4-9.1,15.2-5c4.4,4,3.4,8.1,2.3,10.4c-0.1,0.2-0.2,0.3-0.3,0.5c-1.6,3.2-1.1,7.3,1.6,10
			c1.7,1.7,3.9,2.5,6.1,2.5c2.2,0,4.4-0.8,6.1-2.5l26.3-26.3C257.7,120.3,257.7,114.8,254.4,111.4z"/>
	</g>
</g>
</svg>
