<?xml version="1.0" encoding="utf-8"?>
<!-- Generator: Adobe Illustrator 26.3.1, SVG Export Plug-In . SVG Version: 6.00 Build 0)  -->
<svg version="1.1" id="Layer_1" xmlns="http://www.w3.org/2000/svg" xmlns:xlink="http://www.w3.org/1999/xlink" x="0px" y="0px"
	 viewBox="0 0 302.4 302.4" style="enable-background:new 0 0 302.4 302.4;" xml:space="preserve">
<metadata><?xpacket begin="﻿" id="W5M0MpCehiHzreSzNTczkc9d"?>
<x:xmpmeta xmlns:x="adobe:ns:meta/" x:xmptk="Adobe XMP Core 8.0-c001 1.000000, 0000/00/00-00:00:00        ">
   <rdf:RDF xmlns:rdf="http://www.w3.org/1999/02/22-rdf-syntax-ns#">
      <rdf:Description rdf:about=""
            xmlns:dc="http://purl.org/dc/elements/1.1/"
            xmlns:prism="http://prismstandard.org/namespaces/basic/2.1/"
            xmlns:tiff="http://ns.adobe.com/tiff/1.0/"
            xmlns:bsam="http://www.bsam.blog">
         <dc:modified>2025-09-09T17:18:30.927Z</dc:modified>
         <dc:format>image/svg+xml</dc:format>
         <prism:Date>2025-09-08T19:20:00.000+02:00</prism:Date>
         <tiff:ImageWidth>302</tiff:ImageWidth>
         <tiff:ImageLength>302</tiff:ImageLength>
         <bsam:rightsLimitedUnlimited>unlimited</bsam:rightsLimitedUnlimited>
         <bsam:subDigitalAssetType>
            <rdf:Bag>
               <rdf:li>enterprise:digital-asset-type/image/icon</rdf:li>
            </rdf:Bag>
         </bsam:subDigitalAssetType>
         <bsam:industry>
            <rdf:Bag>
               <rdf:li>enterprise:industry/generic-all-industries</rdf:li>
            </rdf:Bag>
         </bsam:industry>
         <bsam:assetOwner>
            <rdf:Bag>
               <rdf:li>enterprise:business-unit/webfleet</rdf:li>
            </rdf:Bag>
         </bsam:assetOwner>
         <bsam:usageCountry>
            <rdf:Bag>
               <rdf:li>enterprise:region-country/global</rdf:li>
            </rdf:Bag>
         </bsam:usageCountry>
      </rdf:Description>
   </rdf:RDF>
</x:xmpmeta>
                                                                                                    
                                                                                                    
                                                                                                    
                                                                                                    
                                                                                                    
                                                                                                    
                                                                                                    
                                                                                                    
                                                                                                    
                           
<?xpacket end="w"?></metadata>
<path d="M141.5,203.8v9.3c-0.7,0.3-1.4,0.7-1.9,1.3l-25.7,25.7c-2.9,2.9-2.9,7.6,0,10.6c1.5,1.5,3.4,2.2,5.3,2.2
	c1.9,0,3.8-0.7,5.3-2.2l17-17v19.6c0,5.3,4.3,9.6,9.6,9.6c5.3,0,9.6-4.3,9.6-9.6v-19.6l17,17c1.5,1.5,3.4,2.2,5.3,2.2
	s3.8-0.7,5.3-2.2c2.9-2.9,2.9-7.6,0-10.6l-25.7-25.7c-0.6-0.6-1.2-0.9-1.9-1.2v-37c0-1.1,0.6-2,1.6-2.5c0.4-0.2,0.8-0.3,1.3-0.3
	c0.6,0,1.2,0.2,1.7,0.6l22.5,13.3c0,0.6,0,1.2,0.2,1.9l8,35.5c0.9,4,5,6.6,8.9,5.6c4-0.9,6.6-4.9,5.6-8.9l-5.4-23.8l21.8,12.9
	c1.7,1.3,3.7,1.9,5.8,1.9c3.1,0,5.9-1.4,7.7-3.9c3.2-4.2,2.4-10.3-1.9-13.5L216,181.3l22.9-5.2c4-0.9,6.5-4.9,5.6-8.9
	c-0.9-3.8-4.4-6.2-8.2-5.8c-0.2,0-0.5,0.1-0.7,0.1l-35.4,8c-0.8,0.2-1.5,0.5-2.1,0.9l-27.5-16.7c-0.7-0.5-1.1-1.4-1.1-2.3
	c0-0.9,0.4-1.7,1.2-2.3l34.3-19.4c0.7,0.6,1.5,1,2.4,1.3l34.7,10.8c0.2,0.1,0.5,0.1,0.7,0.2c3.7,0.8,7.5-1.4,8.6-5.1
	c1.2-3.9-1-8.1-4.9-9.3l-24.2-7.5l17.8-10.1c4.3-3.1,5.4-9.1,2.3-13.4c-1.8-2.5-4.7-4.1-7.9-4.1c-2,0-3.9,0.6-5.6,1.8l-13.9,7.7
	l6.7-21.6c1.2-3.9-1-8.1-4.9-9.3c-3.9-1.3-8.1,1-9.4,4.9l-10.8,34.7c-0.2,0.5-0.2,1-0.3,1.6l-31.1,17.1c-0.5,0.4-1.1,0.5-1.6,0.5
	c-0.4,0-0.9-0.1-1.3-0.3c-0.9-0.5-1.5-1.4-1.5-2.5V90.6c0.6-0.3,1.3-0.7,1.9-1.2l25.7-25.7c2.9-2.9,2.9-7.7,0-10.6
	c-2.9-2.9-7.6-2.9-10.6,0l-17,17V49.2c0-5.3-4.3-9.6-9.6-9.6c-5.3,0-9.6,4.3-9.6,9.6v20.9l-17.1-17c-2.9-2.9-7.6-2.9-10.6,0
	c-2.9,2.9-2.9,7.6,0,10.6l25.7,25.7c0.6,0.5,1.2,0.9,1.9,1.2V97l0.1,26.2v4.1c0,1.1-0.6,2-1.5,2.5c-0.4,0.2-0.9,0.3-1.3,0.3
	c-0.6,0-1.1-0.2-1.6-0.5l-31.1-17.1c0-0.5-0.1-1.1-0.3-1.6L95.1,76.2c-1.2-3.9-5.5-6.2-9.4-4.9c-3.9,1.2-6.1,5.4-4.9,9.3l6.7,21.6
	l-13.9-7.7c-1.6-1.2-3.6-1.8-5.6-1.8c-3.1,0-6.1,1.5-7.8,4.1c-3.1,4.3-2,10.3,2.3,13.4l17.8,10.1L56,127.8c-3.9,1.2-6.1,5.4-4.9,9.3
	c1.2,3.7,4.9,5.9,8.6,5.1c0.2,0,0.5-0.1,0.7-0.2l34.7-10.8c0.9-0.3,1.7-0.7,2.4-1.3l34.3,19.4c0.7,0.5,1.2,1.4,1.2,2.3
	c0,0.9-0.4,1.8-1.1,2.3l-27.5,16.7c-0.7-0.4-1.3-0.7-2.1-0.9l-35.5-8c-0.2-0.1-0.5-0.1-0.7-0.1c-3.8-0.5-7.4,2-8.2,5.8
	c-0.9,4,1.6,8,5.6,8.9l22.9,5.2L64,195.1c-4.2,3.2-5.1,9.2-1.9,13.5c1.8,2.4,4.6,3.9,7.7,3.9c2.1,0,4.1-0.7,5.8-1.9l21.8-12.9
	L92,221.4c-0.9,4,1.6,8,5.6,8.9c4,1,8-1.6,8.9-5.6l8-35.5c0.1-0.6,0.2-1.2,0.2-1.9l22.5-13.3c0.5-0.4,1.1-0.6,1.7-0.6
	c0.4,0,0.9,0.1,1.3,0.3c0.9,0.5,1.6,1.5,1.6,2.5v6.3L141.5,203.8z"/>
</svg>
