<?xml version="1.0" encoding="utf-8"?>
<!-- Generator: Adobe Illustrator 26.3.1, SVG Export Plug-In . SVG Version: 6.00 Build 0)  -->
<svg version="1.1" id="Layer_1" xmlns="http://www.w3.org/2000/svg" xmlns:xlink="http://www.w3.org/1999/xlink" x="0px" y="0px"
	 viewBox="0 0 302.4 302.4" style="enable-background:new 0 0 302.4 302.4;" xml:space="preserve">
<metadata><?xpacket begin="﻿" id="W5M0MpCehiHzreSzNTczkc9d"?>
<x:xmpmeta xmlns:x="adobe:ns:meta/" x:xmptk="Adobe XMP Core 8.0-c001 1.000000, 0000/00/00-00:00:00        ">
   <rdf:RDF xmlns:rdf="http://www.w3.org/1999/02/22-rdf-syntax-ns#">
      <rdf:Description rdf:about=""
            xmlns:dc="http://purl.org/dc/elements/1.1/"
            xmlns:prism="http://prismstandard.org/namespaces/basic/2.1/"
            xmlns:tiff="http://ns.adobe.com/tiff/1.0/"
            xmlns:bsam="http://www.bsam.blog">
         <dc:modified>2025-09-09T17:21:30.483Z</dc:modified>
         <dc:format>image/svg+xml</dc:format>
         <prism:Date>2025-09-08T19:20:00.000+02:00</prism:Date>
         <tiff:ImageWidth>302</tiff:ImageWidth>
         <tiff:ImageLength>302</tiff:ImageLength>
         <bsam:rightsLimitedUnlimited>unlimited</bsam:rightsLimitedUnlimited>
         <bsam:subDigitalAssetType>
            <rdf:Bag>
               <rdf:li>enterprise:digital-asset-type/image/icon</rdf:li>
            </rdf:Bag>
         </bsam:subDigitalAssetType>
         <bsam:industry>
            <rdf:Bag>
               <rdf:li>enterprise:industry/generic-all-industries</rdf:li>
            </rdf:Bag>
         </bsam:industry>
         <bsam:assetOwner>
            <rdf:Bag>
               <rdf:li>enterprise:business-unit/webfleet</rdf:li>
            </rdf:Bag>
         </bsam:assetOwner>
         <bsam:usageCountry>
            <rdf:Bag>
               <rdf:li>enterprise:region-country/global</rdf:li>
            </rdf:Bag>
         </bsam:usageCountry>
      </rdf:Description>
   </rdf:RDF>
</x:xmpmeta>
                                                                                                    
                                                                                                    
                                                                                                    
                                                                                                    
                                                                                                    
                                                                                                    
                                                                                                    
                                                                                                    
                                                                                                    
                                                                                                    
                                                                                                    
                                                                                                    
                                                                                                    
                                                                                                    
                                                                                                    
                                                                                                    
                                                                                                    
                                                                                                    
                                                                            
<?xpacket end="w"?></metadata>
<g>
	<g>
		<g>
			<g>
				<path d="M272.1,215.7h-90.6v-11.4l13.9-3.4v-29.6h-13.9v-15.7h13.9v-15.2c0-12.6,3.9-23.4,11.1-30.4
					c6.9-6.8,16.6-10.3,27.9-10.3c20.2,0,30.6,9.8,37.3,18.3l1.4,1.8l-13.7,10.5l-1.4-1.7c-6.2-7.6-12.6-12.6-23.8-12.6
					c-6,0-10.8,1.8-14.7,5.4c-4.2,4.2-6.4,10.8-6.4,19.1v15.2h46.3v15.7h-46.3v28.6h58.9L272.1,215.7L272.1,215.7z"/>
			</g>
		</g>
	</g>
	<g>
		<g>
			<path d="M187.2,96.5c-10.9-21.5-33.2-36.2-58.9-36.2c-36.5,0-66.1,29.6-66.1,66.1s29.6,66,66.1,66c8.4,0,16.4-1.6,23.9-4.5
				c-2.4-7.5-3.7-15.6-3.7-23.9C148.4,135.3,164,110.1,187.2,96.5z"/>
		</g>
		<path d="M163.7,210.6c-11,4.2-22.9,6.5-35.4,6.5c-22.5,0-43.3-7.6-60.1-20.1c-20.4,10.2-34.8,27.5-39,45l0,0h189.5
			C196.1,239.7,176.4,227.9,163.7,210.6z"/>
	</g>
</g>
</svg>
