<?xml version="1.0" encoding="utf-8"?>
<!-- Generator: Adobe Illustrator 26.3.1, SVG Export Plug-In . SVG Version: 6.00 Build 0)  -->
<svg version="1.1" id="Layer_1" xmlns="http://www.w3.org/2000/svg" xmlns:xlink="http://www.w3.org/1999/xlink" x="0px" y="0px"
	 viewBox="0 0 302.4 302.4" style="enable-background:new 0 0 302.4 302.4;" xml:space="preserve">
<metadata><?xpacket begin="﻿" id="W5M0MpCehiHzreSzNTczkc9d"?>
<x:xmpmeta xmlns:x="adobe:ns:meta/" x:xmptk="Adobe XMP Core 8.0-c001 1.000000, 0000/00/00-00:00:00        ">
   <rdf:RDF xmlns:rdf="http://www.w3.org/1999/02/22-rdf-syntax-ns#">
      <rdf:Description rdf:about=""
            xmlns:dc="http://purl.org/dc/elements/1.1/"
            xmlns:prism="http://prismstandard.org/namespaces/basic/2.1/"
            xmlns:tiff="http://ns.adobe.com/tiff/1.0/"
            xmlns:bsam="http://www.bsam.blog">
         <dc:modified>2025-09-09T17:24:25.246Z</dc:modified>
         <dc:format>image/svg+xml</dc:format>
         <prism:Date>2025-09-08T19:20:00.000+02:00</prism:Date>
         <tiff:ImageWidth>302</tiff:ImageWidth>
         <tiff:ImageLength>302</tiff:ImageLength>
         <bsam:rightsLimitedUnlimited>unlimited</bsam:rightsLimitedUnlimited>
         <bsam:subDigitalAssetType>
            <rdf:Bag>
               <rdf:li>enterprise:digital-asset-type/image/icon</rdf:li>
            </rdf:Bag>
         </bsam:subDigitalAssetType>
         <bsam:industry>
            <rdf:Bag>
               <rdf:li>enterprise:industry/generic-all-industries</rdf:li>
            </rdf:Bag>
         </bsam:industry>
         <bsam:assetOwner>
            <rdf:Bag>
               <rdf:li>enterprise:business-unit/webfleet</rdf:li>
            </rdf:Bag>
         </bsam:assetOwner>
         <bsam:usageCountry>
            <rdf:Bag>
               <rdf:li>enterprise:region-country/global</rdf:li>
            </rdf:Bag>
         </bsam:usageCountry>
      </rdf:Description>
   </rdf:RDF>
</x:xmpmeta>
                                                                                                    
                                                                                                    
                                                                                                    
                                                                                                    
                                                                                                    
                                                                                                    
                                                                                                    
                                                                                                    
                                                                                                    
                                                                                                    
                                                                                                    
                                                                                                    
                                                                                                    
                                                                                                    
                                                                                                    
                                                                                                    
                                                                                                    
                                                                                                    
                                                                            
<?xpacket end="w"?></metadata>
<g>
	<path d="M87.2,102.4L87.2,102.4c0-6.2-3-10.7-7.3-10.7s-7.2,4.4-7.2,10.5v0.1c0,6.1,2.9,10.6,7.3,10.6
		C84.4,112.9,87.2,108.4,87.2,102.4 M65.1,102.4L65.1,102.4c0-9.8,6-17.4,14.9-17.4c8.8,0,14.8,7.5,14.8,17.2v0.1
		c0,9.7-6,17.3-14.9,17.3S65.1,112.1,65.1,102.4"/>
	<polygon points="106.8,92.8 100.9,94.2 99.4,88.2 109,85.3 114,85.3 114,119 106.8,119 	"/>
	<g>
		<path d="M144.3,102.4L144.3,102.4c0-6.2-3-10.7-7.3-10.7c-4.4,0-7.2,4.4-7.2,10.5v0.1c0,6.1,2.9,10.6,7.3,10.6
			C141.5,112.9,144.3,108.4,144.3,102.4 M122.2,102.4L122.2,102.4c0-9.8,6-17.4,14.9-17.4c8.8,0,14.8,7.5,14.8,17.2v0.1
			c0,9.7-6,17.3-14.9,17.3S122.2,112.1,122.2,102.4"/>
	</g>
	<polygon points="163.9,92.8 158,94.2 156.5,88.2 166.1,85.3 171.1,85.3 171.1,119 163.9,119 	"/>
	<g>
		<path d="M201.4,102.4L201.4,102.4c0-6.2-3-10.7-7.3-10.7c-4.4,0-7.2,4.4-7.2,10.5v0.1c0,6.1,2.9,10.6,7.3,10.6
			C198.6,112.9,201.4,108.4,201.4,102.4 M179.3,102.4L179.3,102.4c0-9.8,6-17.4,14.9-17.4c8.8,0,14.8,7.5,14.8,17.2v0.1
			c0,9.7-6,17.3-14.9,17.3C185.1,119.5,179.3,112.1,179.3,102.4"/>
	</g>
	<polygon points="220.9,92.8 215.1,94.2 213.6,88.2 223.2,85.3 228.2,85.3 228.2,119 220.9,119 	"/>
	<g>
		<path d="M87.2,150.5v-0.1c0-6.1-3-10.6-7.3-10.6s-7.2,4.4-7.2,10.5v0.1c0,6.1,2.9,10.6,7.3,10.6C84.4,161.1,87.2,156.6,87.2,150.5
			 M65.1,150.5v-0.1c0-9.7,6-17.3,14.9-17.3c8.8,0,14.8,7.5,14.8,17.2v0.1c0,9.7-6,17.3-14.9,17.3S65.1,160.2,65.1,150.5"/>
		<path d="M121.8,150.5v-0.1c0-6.1-3-10.6-7.3-10.6c-4.4,0-7.2,4.4-7.2,10.5v0.1c0,6.1,2.9,10.6,7.3,10.6
			C119,161.1,121.8,156.6,121.8,150.5 M99.6,150.5v-0.1c0-9.7,6-17.3,14.9-17.3c8.8,0,14.8,7.5,14.8,17.2v0.1
			c0,9.7-6,17.3-14.9,17.3C105.5,167.7,99.6,160.2,99.6,150.5"/>
	</g>
	<polygon points="139.9,140.9 134.1,142.4 132.6,136.4 142.1,133.5 147.1,133.5 147.1,167.1 139.9,167.1 	"/>
	<g>
		<path d="M176,150.5v-0.1c0-6.1-3-10.6-7.3-10.6c-4.4,0-7.2,4.4-7.2,10.5v0.1c0,6.1,2.9,10.6,7.3,10.6
			C173.2,161.1,176,156.6,176,150.5 M153.9,150.5v-0.1c0-9.7,6-17.3,14.9-17.3c8.8,0,14.8,7.5,14.8,17.2v0.1c0,9.7-6,17.3-14.9,17.3
			C159.8,167.7,153.9,160.2,153.9,150.5"/>
	</g>
	<polygon points="194.1,140.9 188.3,142.4 186.8,136.4 196.4,133.5 201.4,133.5 201.4,167.1 194.1,167.1 	"/>
	<g>
		<path d="M230.2,150.5v-0.1c0-6.1-3-10.6-7.3-10.6c-4.4,0-7.2,4.4-7.2,10.5v0.1c0,6.1,2.9,10.6,7.3,10.6
			C227.4,161.1,230.2,156.6,230.2,150.5 M208.1,150.5v-0.1c0-9.7,6-17.3,14.9-17.3c8.8,0,14.8,7.5,14.8,17.2v0.1
			c0,9.7-6,17.3-14.9,17.3C214,167.7,208.1,160.2,208.1,150.5"/>
	</g>
	<g>
		<path d="M251.4,47.9H51c-5.2,0-9.4,4.2-9.4,9.4v156.8c0,5.2,4.2,9.4,9.4,9.4h200.4c5.2,0,9.4-4.2,9.4-9.4V57.3
			C260.8,52.1,256.6,47.9,251.4,47.9z M247.4,192.5H54.9V61.2h192.5V192.5z"/>
		<path d="M194,254.5c0-9.1-7.4-20.7-16.6-20.7H125c-9.2,0-16.6,11.6-16.6,20.7H194z"/>
	</g>
</g>
</svg>
