<?xml version="1.0" encoding="utf-8"?>
<!-- Generator: Adobe Illustrator 26.3.1, SVG Export Plug-In . SVG Version: 6.00 Build 0)  -->
<svg version="1.1" id="Layer_1" xmlns="http://www.w3.org/2000/svg" xmlns:xlink="http://www.w3.org/1999/xlink" x="0px" y="0px"
	 viewBox="0 0 302.4 302.4" style="enable-background:new 0 0 302.4 302.4;" xml:space="preserve">
<metadata><?xpacket begin="﻿" id="W5M0MpCehiHzreSzNTczkc9d"?>
<x:xmpmeta xmlns:x="adobe:ns:meta/" x:xmptk="Adobe XMP Core 8.0-c001 1.000000, 0000/00/00-00:00:00        ">
   <rdf:RDF xmlns:rdf="http://www.w3.org/1999/02/22-rdf-syntax-ns#">
      <rdf:Description rdf:about=""
            xmlns:dc="http://purl.org/dc/elements/1.1/"
            xmlns:prism="http://prismstandard.org/namespaces/basic/2.1/"
            xmlns:tiff="http://ns.adobe.com/tiff/1.0/"
            xmlns:bsam="http://www.bsam.blog">
         <dc:modified>2025-09-09T17:32:15.549Z</dc:modified>
         <dc:format>image/svg+xml</dc:format>
         <prism:Date>2025-09-08T19:20:00.000+02:00</prism:Date>
         <tiff:ImageWidth>302</tiff:ImageWidth>
         <tiff:ImageLength>302</tiff:ImageLength>
         <bsam:rightsLimitedUnlimited>unlimited</bsam:rightsLimitedUnlimited>
         <bsam:subDigitalAssetType>
            <rdf:Bag>
               <rdf:li>enterprise:digital-asset-type/image/icon</rdf:li>
            </rdf:Bag>
         </bsam:subDigitalAssetType>
         <bsam:industry>
            <rdf:Bag>
               <rdf:li>enterprise:industry/generic-all-industries</rdf:li>
            </rdf:Bag>
         </bsam:industry>
         <bsam:assetOwner>
            <rdf:Bag>
               <rdf:li>enterprise:business-unit/webfleet</rdf:li>
            </rdf:Bag>
         </bsam:assetOwner>
         <bsam:usageCountry>
            <rdf:Bag>
               <rdf:li>enterprise:region-country/global</rdf:li>
            </rdf:Bag>
         </bsam:usageCountry>
      </rdf:Description>
   </rdf:RDF>
</x:xmpmeta>
                                                                                                    
                                                                                                    
                                                                                                    
                                                                                                    
                                                                                                    
                                                                                                    
                                                                                                    
                                                                                                    
                                                                                                    
                                                                                                    
                                                                                                    
                                                                                                    
                                                                                                    
                                                                                                    
                                                                                                    
                                                                                                    
                                                                                                    
                                                                                                    
                                                                            
<?xpacket end="w"?></metadata>
<g>
	<rect x="137.7" y="193.1" width="14.8" height="27.4"/>
	<path d="M112.7,208.4c0,6.7,5.4,12.1,12.1,12.1h8.6v-27.4h-20.7V208.4z"/>
	<rect x="156.8" y="193.1" width="14.8" height="27.4"/>
	<rect x="137.3" y="127.8" width="14.8" height="26.9"/>
	<rect x="156.4" y="127.8" width="14.8" height="26.9"/>
	<path d="M183.7,127.8h-8.1v26.9h20.3v-14.8C195.9,133.2,190.4,127.8,183.7,127.8z"/>
	<path d="M177.7,57.2H93.8c-7.2,0-13.1,5.9-13.1,13.1v163.4c0,7.2,5.9,13.1,13.1,13.1H214c7.2,0,13.1-5.9,13.1-13.1V106.6
		L177.7,57.2z M200.2,208.4c0,9.1-7.4,16.4-16.4,16.4h-58.9c-9.1,0-16.4-7.4-16.4-16.4v-68.5c0-9.1,7.4-16.4,16.4-16.4h58.9
		c9.1,0,16.4,7.4,16.4,16.4V208.4z"/>
	<path d="M176,220.5h7.8c6.7,0,12.1-5.4,12.1-12.1v-15.2H176V220.5z"/>
	<path d="M133,154.7L133,154.7v-26.9h-8.2c-6.7,0-12.1,5.4-12.1,12.1v48.9h83.2V159H133V154.7z"/>
</g>
</svg>
