<?xml version="1.0" encoding="utf-8"?>
<!-- Generator: Adobe Illustrator 26.3.1, SVG Export Plug-In . SVG Version: 6.00 Build 0)  -->
<svg version="1.1" id="Layer_1" xmlns="http://www.w3.org/2000/svg" xmlns:xlink="http://www.w3.org/1999/xlink" x="0px" y="0px"
	 viewBox="0 0 302.4 302.4" style="enable-background:new 0 0 302.4 302.4;" xml:space="preserve">
<metadata><?xpacket begin="﻿" id="W5M0MpCehiHzreSzNTczkc9d"?>
<x:xmpmeta xmlns:x="adobe:ns:meta/" x:xmptk="Adobe XMP Core 8.0-c001 1.000000, 0000/00/00-00:00:00        ">
   <rdf:RDF xmlns:rdf="http://www.w3.org/1999/02/22-rdf-syntax-ns#">
      <rdf:Description rdf:about=""
            xmlns:dc="http://purl.org/dc/elements/1.1/"
            xmlns:prism="http://prismstandard.org/namespaces/basic/2.1/"
            xmlns:tiff="http://ns.adobe.com/tiff/1.0/"
            xmlns:bsam="http://www.bsam.blog">
         <dc:modified>2025-09-09T17:22:49.186Z</dc:modified>
         <dc:format>image/svg+xml</dc:format>
         <prism:Date>2025-09-08T19:20:00.000+02:00</prism:Date>
         <tiff:ImageWidth>302</tiff:ImageWidth>
         <tiff:ImageLength>302</tiff:ImageLength>
         <bsam:rightsLimitedUnlimited>unlimited</bsam:rightsLimitedUnlimited>
         <bsam:subDigitalAssetType>
            <rdf:Bag>
               <rdf:li>enterprise:digital-asset-type/image/icon</rdf:li>
            </rdf:Bag>
         </bsam:subDigitalAssetType>
         <bsam:industry>
            <rdf:Bag>
               <rdf:li>enterprise:industry/generic-all-industries</rdf:li>
            </rdf:Bag>
         </bsam:industry>
         <bsam:assetOwner>
            <rdf:Bag>
               <rdf:li>enterprise:business-unit/webfleet</rdf:li>
            </rdf:Bag>
         </bsam:assetOwner>
         <bsam:usageCountry>
            <rdf:Bag>
               <rdf:li>enterprise:region-country/global</rdf:li>
            </rdf:Bag>
         </bsam:usageCountry>
      </rdf:Description>
   </rdf:RDF>
</x:xmpmeta>
                                                                                                    
                                                                                                    
                                                                                                    
                                                                                                    
                                                                                                    
                                                                                                    
                                                                                                    
                                                                                                    
                                                                                                    
                                                                                                    
                                                                                                    
                                                                                                    
                                                                                                    
                                                                                                    
                                                                                                    
                                                                                                    
                                                                                                    
                                                                                                    
                                                                            
<?xpacket end="w"?></metadata>
<g>
	<rect x="143.5" y="220.2" width="17.6" height="35.2"/>
	<path d="M73.2,70.8l0.1,70.5V193c0,0.3-0.1,0.6-0.1,0.9c0,9.7,7.9,17.6,17.6,17.6c0.8,0,1.5,0.1,2.3,0h118.6c0.7,0.1,1.5,0,2.3,0
		c9.6,0,17.4-8.1,17.6-17.6v-8.8V70.8H73.2z M152.3,185.1c-24.3,0-44-19.7-44-44c0-24.3,19.7-44,44-44c24.3,0,44,19.7,44,44
		C196.3,165.4,176.6,185.1,152.3,185.1z"/>
	<path d="M64.4,141.1V70.8c0-4.8,4-8.8,8.8-8.8h158.3c4.8,0,8.8,4,8.8,8.8v70.4h8.8V70.8c0-9.7-7.9-17.6-17.6-17.6H73.2
		c-9.7,0-17.6,7.9-17.6,17.6v70.4H64.4z"/>
	<path d="M187.5,141.1c0,19.4-15.8,35.2-35.2,35.2s-35.2-15.8-35.2-35.2s15.8-35.2,35.2-35.2C171.7,105.9,187.5,121.7,187.5,141.1z"
		/>
</g>
</svg>
