<?xml version="1.0" encoding="utf-8"?>
<!-- Generator: Adobe Illustrator 26.3.1, SVG Export Plug-In . SVG Version: 6.00 Build 0)  -->
<svg version="1.1" id="Layer_1" xmlns="http://www.w3.org/2000/svg" xmlns:xlink="http://www.w3.org/1999/xlink" x="0px" y="0px"
	 viewBox="0 0 302.4 302.4" style="enable-background:new 0 0 302.4 302.4;" xml:space="preserve">
<metadata><?xpacket begin="﻿" id="W5M0MpCehiHzreSzNTczkc9d"?>
<x:xmpmeta xmlns:x="adobe:ns:meta/" x:xmptk="Adobe XMP Core 8.0-c001 1.000000, 0000/00/00-00:00:00        ">
   <rdf:RDF xmlns:rdf="http://www.w3.org/1999/02/22-rdf-syntax-ns#">
      <rdf:Description rdf:about=""
            xmlns:dc="http://purl.org/dc/elements/1.1/"
            xmlns:prism="http://prismstandard.org/namespaces/basic/2.1/"
            xmlns:tiff="http://ns.adobe.com/tiff/1.0/"
            xmlns:bsam="http://www.bsam.blog">
         <dc:modified>2025-09-09T17:14:01.562Z</dc:modified>
         <dc:format>image/svg+xml</dc:format>
         <prism:Date>2025-09-08T19:20:00.000+02:00</prism:Date>
         <tiff:ImageWidth>302</tiff:ImageWidth>
         <tiff:ImageLength>302</tiff:ImageLength>
         <bsam:rightsLimitedUnlimited>unlimited</bsam:rightsLimitedUnlimited>
         <bsam:subDigitalAssetType>
            <rdf:Bag>
               <rdf:li>enterprise:digital-asset-type/image/icon</rdf:li>
            </rdf:Bag>
         </bsam:subDigitalAssetType>
         <bsam:industry>
            <rdf:Bag>
               <rdf:li>enterprise:industry/generic-all-industries</rdf:li>
            </rdf:Bag>
         </bsam:industry>
         <bsam:assetOwner>
            <rdf:Bag>
               <rdf:li>enterprise:business-unit/webfleet</rdf:li>
            </rdf:Bag>
         </bsam:assetOwner>
         <bsam:usageCountry>
            <rdf:Bag>
               <rdf:li>enterprise:region-country/global</rdf:li>
            </rdf:Bag>
         </bsam:usageCountry>
      </rdf:Description>
   </rdf:RDF>
</x:xmpmeta>
                                                                                                    
                                                                                                    
                                                                                                    
                                                                                                    
                                                                                                    
                                                                                                    
                                                                                                    
                                                                                                    
                                                                                                    
                           
<?xpacket end="w"?></metadata>
<g>
	<path d="M295.2,154.9l-79.6-26.4L251.2,83l-74,9.3l1.5,12.6l43.9-5.6l-27.9,35.7l45.2,15l-62.6,8.5l3.2,49.4l-26.9-35l-10,8
		c-6.1,4.9-12.2,9.9-18.2,14.8l2.9-15.4l-12.4-2.3l-9.3,49.2l13.3-10.9c10.5-8.6,21-17,31.6-25.5v-0.1l44.2,57.6l-5-79L295.2,154.9z
		"/>
	<path d="M119.8,134.5c5,4.7,3.9,9.4,2.6,12c-0.1,0.2-0.3,0.4-0.4,0.6c-1.9,3.7-1.2,8.4,1.9,11.5c1.9,1.9,4.5,2.9,7.1,2.9
		s5.1-1,7.1-2.9l30.4-30.4c3.9-3.9,3.9-10.2,0-14.1c-3.2-3.2-8-3.7-11.8-1.7c0,0-0.1,0-0.1,0c-2.9,1.3-7.2,1.8-11.3-2.3
		c-8.8-8.8-5.9-20.4-25.7-36.7c-46.3-41.3-86.5-3.2-86.5-3.2c45-14,54.7,30.2,42.1,42.9l-15.6,15.6v0l0,0L7.2,181.2L35,207.6
		l51.6-51.8l0.1,0.1l9.8-9.8c0,0,0,0,0,0c2.3-2.4,4.5-4.5,5.7-5.7C108.4,134.1,111.9,129.7,119.8,134.5z"/>
</g>
</svg>
