<?xml version="1.0" encoding="utf-8"?>
<!-- Generator: Adobe Illustrator 26.3.1, SVG Export Plug-In . SVG Version: 6.00 Build 0)  -->
<svg version="1.1" id="Layer_1" xmlns="http://www.w3.org/2000/svg" xmlns:xlink="http://www.w3.org/1999/xlink" x="0px" y="0px"
	 viewBox="0 0 302.4 302.4" style="enable-background:new 0 0 302.4 302.4;" xml:space="preserve">
<metadata><?xpacket begin="﻿" id="W5M0MpCehiHzreSzNTczkc9d"?>
<x:xmpmeta xmlns:x="adobe:ns:meta/" x:xmptk="Adobe XMP Core 8.0-c001 1.000000, 0000/00/00-00:00:00        ">
   <rdf:RDF xmlns:rdf="http://www.w3.org/1999/02/22-rdf-syntax-ns#">
      <rdf:Description rdf:about=""
            xmlns:bsam="http://www.bsam.blog"
            xmlns:tiff="http://ns.adobe.com/tiff/1.0/"
            xmlns:prism="http://prismstandard.org/namespaces/basic/2.1/"
            xmlns:dc="http://purl.org/dc/elements/1.1/">
         <bsam:rightsLimitedUnlimited>unlimited</bsam:rightsLimitedUnlimited>
         <bsam:assetOwner>
            <rdf:Bag>
               <rdf:li>enterprise:business-unit/webfleet</rdf:li>
            </rdf:Bag>
         </bsam:assetOwner>
         <bsam:industry>
            <rdf:Bag>
               <rdf:li>enterprise:industry/generic-all-industries</rdf:li>
            </rdf:Bag>
         </bsam:industry>
         <bsam:subDigitalAssetType>
            <rdf:Bag>
               <rdf:li>enterprise:digital-asset-type/image/icon</rdf:li>
            </rdf:Bag>
         </bsam:subDigitalAssetType>
         <bsam:usageCountry>
            <rdf:Bag>
               <rdf:li>enterprise:region-country/global</rdf:li>
            </rdf:Bag>
         </bsam:usageCountry>
         <tiff:ImageLength>302</tiff:ImageLength>
         <tiff:ImageWidth>302</tiff:ImageWidth>
         <prism:Date>2025-09-08T19:20:00.000+02:00</prism:Date>
         <dc:modified>2025-09-09T17:27:26.442Z</dc:modified>
         <dc:format>image/svg+xml</dc:format>
      </rdf:Description>
   </rdf:RDF>
</x:xmpmeta>
                                                                                                    
                                                                                                    
                                                                                                    
                                                                                                    
                                                                                                    
                                                                                                    
                                                                                                    
                                                                                                    
                                                                                                    
                                                                                                    
                                                                                                    
                                                                                                    
                                                                                                    
                                                                                                    
                                                                                                    
                                                                                                    
                                                                                                    
                                                                                                    
                                                                            
<?xpacket end="w"?></metadata>
<g>
	<path d="M108.9,89c4.8,0,8.7-3.9,8.7-8.7v-8.7c0-4.8-3.9-8.7-8.7-8.7c-4.8,0-8.7,3.9-8.7,8.7v8.7C100.2,85.1,104.1,89,108.9,89z"/>
	<path d="M193.5,89c4.8,0,8.7-3.9,8.7-8.7v-8.7c0-4.8-3.9-8.7-8.7-8.7s-8.7,3.9-8.7,8.7v8.7C184.8,85.1,188.7,89,193.5,89z"/>
	<path d="M222.6,71.6h-11.7v8.7c0,9.6-7.8,17.4-17.4,17.4c-9.6,0-17.4-7.8-17.4-17.4v-8.7h-49.8v8.7c0,9.6-7.8,17.4-17.4,17.4
		s-17.4-7.8-17.4-17.4v-8.7H79.8c-7.2,0-13,5.8-13,13V215c0,7.2,5.8,13,13,13h142.8c7.2,0,13-5.8,13-13V84.7
		C235.7,77.4,229.8,71.6,222.6,71.6z M227,210.7c0,4.8-3.9,8.7-8.7,8.7H84.1c-4.8,0-8.7-3.9-8.7-8.7V118c0-4.8,3.9-8.7,8.7-8.7
		h134.2c4.8,0,8.7,3.9,8.7,8.7L227,210.7L227,210.7z"/>
	<path d="M105.4,123.3c-11,0-19.9,8.9-19.9,19.9s8.9,19.9,19.9,19.9s19.9-8.9,19.9-19.9C125.3,132.3,116.3,123.3,105.4,123.3z
		 M105.4,158.2c-8.3,0-15-6.7-15-15s6.7-15,15-15s15,6.7,15,15C120.3,151.5,113.6,158.2,105.4,158.2z"/>
	<path d="M151.2,168.2c-11,0-19.9,8.9-19.9,19.9s8.9,19.9,19.9,19.9s19.9-8.9,19.9-19.9C171,177.2,162.1,168.2,151.2,168.2z
		 M151.2,203.1c-8.3,0-15-6.7-15-15s6.7-15,15-15s15,6.7,15,15C166.1,196.4,159.4,203.1,151.2,203.1z"/>
	<path d="M98.9,183.6c-0.5-0.4-1.2-0.7-1.9-0.7c-0.9,0-1.8,0.4-2.3,1.1c-0.5,0.6-0.7,1.4-0.7,2.2c0.1,0.8,0.5,1.5,1.1,2l9.1,7.4
		c0.5,0.4,1.2,0.7,1.9,0.7c0.9,0,1.8-0.4,2.3-1.1l0.1-0.1c0.1-0.1,0.3-0.3,0.3-0.4l14.5-18.9c1-1.3,0.8-3.2-0.6-4.2
		c-0.5-0.4-1.2-0.6-1.8-0.6c-0.9,0-1.8,0.4-2.4,1.2l-13,16.9L98.9,183.6z"/>
	<path d="M119.5,183.5c0.5,1.5,0.8,3,0.8,4.6c0,8.3-6.7,15-15,15s-15-6.7-15-15s6.7-15,15-15c3.1,0,6,0.9,8.4,2.6l3-3.9
		c-3.2-2.3-7.1-3.6-11.4-3.6c-11,0-19.9,8.9-19.9,19.9s8.9,19.9,19.9,19.9s19.9-8.9,19.9-19.9c0-3.3-0.9-6.3-2.3-9.1L119.5,183.5z"
		/>
	<path d="M197,123.3c-11,0-19.9,8.9-19.9,19.9s8.9,19.9,19.9,19.9s19.9-8.9,19.9-19.9S208,123.3,197,123.3z M197,158.1
		c-8.3,0-15-6.7-15-15s6.7-15,15-15s15,6.7,15,15C212,151.4,205.3,158.1,197,158.1z"/>
	<path d="M190.5,183.6c-0.5-0.4-1.2-0.7-1.9-0.7c-0.9,0-1.8,0.4-2.3,1.1c-0.5,0.6-0.7,1.4-0.7,2.2c0.1,0.8,0.5,1.5,1.1,2l9.1,7.4
		c0.5,0.4,1.2,0.7,1.9,0.7c0.9,0,1.8-0.4,2.3-1.1l0.1-0.1c0.1-0.1,0.3-0.3,0.3-0.4l14.5-18.9c1-1.3,0.8-3.2-0.6-4.2
		c-0.5-0.4-1.2-0.6-1.8-0.6c-0.9,0-1.8,0.4-2.4,1.2l-13,16.9L190.5,183.6z"/>
	<path d="M211.2,183.4c0.5,1.5,0.8,3,0.8,4.6c0,8.3-6.7,15-15,15s-15-6.7-15-15s6.7-15,15-15c3.1,0,6,0.9,8.4,2.6l3-3.9
		c-3.2-2.3-7.1-3.6-11.3-3.6c-11,0-19.9,8.9-19.9,19.9s8.9,19.9,19.9,19.9S217,199,217,188c0-3.3-0.9-6.3-2.3-9.1L211.2,183.4z"/>
	<path d="M144.7,138.7c-0.5-0.4-1.2-0.7-1.9-0.7c-0.9,0-1.8,0.4-2.3,1.1c-0.5,0.6-0.7,1.4-0.7,2.2c0.1,0.8,0.5,1.5,1.1,2l9.1,7.4
		c0.5,0.4,1.2,0.7,1.9,0.7c0.9,0,1.8-0.4,2.3-1.1l0.1-0.1c0.1-0.1,0.3-0.3,0.3-0.4l14.5-18.9c1-1.3,0.8-3.2-0.6-4.2
		c-0.5-0.4-1.2-0.6-1.8-0.6c-0.9,0-1.8,0.4-2.4,1.2l-13,16.9L144.7,138.7z"/>
	<path d="M165.4,138.6c0.5,1.5,0.8,3,0.8,4.6c0,8.3-6.7,15-15,15s-15-6.7-15-15s6.7-15,15-15c3.1,0,6,0.9,8.4,2.6l3-3.9
		c-3.2-2.3-7.1-3.6-11.4-3.6c-11,0-19.9,8.9-19.9,19.9s8.9,19.9,19.9,19.9s19.9-8.9,19.9-19.9c0-3.3-0.9-6.3-2.3-9.1L165.4,138.6z"
		/>
</g>
</svg>
