<?xml version="1.0" encoding="utf-8"?>
<!-- Generator: Adobe Illustrator 26.3.1, SVG Export Plug-In . SVG Version: 6.00 Build 0)  -->
<svg version="1.1" id="Layer_1" xmlns="http://www.w3.org/2000/svg" xmlns:xlink="http://www.w3.org/1999/xlink" x="0px" y="0px"
	 viewBox="0 0 302.4 302.4" style="enable-background:new 0 0 302.4 302.4;" xml:space="preserve">
<metadata><?xpacket begin="﻿" id="W5M0MpCehiHzreSzNTczkc9d"?>
<x:xmpmeta xmlns:x="adobe:ns:meta/" x:xmptk="Adobe XMP Core 8.0-c001 1.000000, 0000/00/00-00:00:00        ">
   <rdf:RDF xmlns:rdf="http://www.w3.org/1999/02/22-rdf-syntax-ns#">
      <rdf:Description rdf:about=""
            xmlns:dc="http://purl.org/dc/elements/1.1/"
            xmlns:prism="http://prismstandard.org/namespaces/basic/2.1/"
            xmlns:tiff="http://ns.adobe.com/tiff/1.0/"
            xmlns:bsam="http://www.bsam.blog">
         <dc:modified>2025-09-09T17:23:55.727Z</dc:modified>
         <dc:format>image/svg+xml</dc:format>
         <prism:Date>2025-09-08T19:20:00.000+02:00</prism:Date>
         <tiff:ImageWidth>302</tiff:ImageWidth>
         <tiff:ImageLength>302</tiff:ImageLength>
         <bsam:rightsLimitedUnlimited>unlimited</bsam:rightsLimitedUnlimited>
         <bsam:subDigitalAssetType>
            <rdf:Bag>
               <rdf:li>enterprise:digital-asset-type/image/icon</rdf:li>
            </rdf:Bag>
         </bsam:subDigitalAssetType>
         <bsam:industry>
            <rdf:Bag>
               <rdf:li>enterprise:industry/generic-all-industries</rdf:li>
            </rdf:Bag>
         </bsam:industry>
         <bsam:assetOwner>
            <rdf:Bag>
               <rdf:li>enterprise:business-unit/webfleet</rdf:li>
            </rdf:Bag>
         </bsam:assetOwner>
         <bsam:usageCountry>
            <rdf:Bag>
               <rdf:li>enterprise:region-country/global</rdf:li>
            </rdf:Bag>
         </bsam:usageCountry>
      </rdf:Description>
   </rdf:RDF>
</x:xmpmeta>
                                                                                                    
                                                                                                    
                                                                                                    
                                                                                                    
                                                                                                    
                                                                                                    
                                                                                                    
                                                                                                    
                                                                                                    
                                                                                                    
                                                                                                    
                                                                                                    
                                                                                                    
                                                                                                    
                                                                                                    
                                                                                                    
                                                                                                    
                                                                                                    
                                                                            
<?xpacket end="w"?></metadata>
<path d="M257.8,125.2h-12.1c-4.1-13.1-12-24.9-22.7-34.4c1.7-3.2,3.9-7,6.7-10.9c5.9-8.2,13.4-11.8,14-14.5c0.6-2.6-11-7.8-25.9-2.8
	c-8.2,2.8-16.7,7.5-22.7,11.1c-12-4.8-25.4-7.6-39.6-7.6c-47.9,0-87.4,30.8-92.8,70.5c-0.6-0.1-1-0.2-1-0.2
	c-1.4-0.3-2.9-0.6-4.3-1.1c1.8-1.5,3.2-3.2,3.9-5.2c0.8-2.2,1-5.6-2.2-9.6c-3-3.7-8.3-4.4-12.6-1.8c-3.7,2.3-6.3,7.1-3.8,12.6
	c0.5,1.2,1.2,2.2,1.9,3.2c-1.7,0.6-3.4,1.1-4.9,1.4c-1.8,0.4-2.9,2.2-2.5,4s2.1,2.9,4,2.5c1.3-0.3,5.2-1.2,9.3-3
	c3.4,1.9,7.1,2.9,10.4,3.5c0.4,0.1,0.9,0.2,1.4,0.3c0,0.9-0.2,1.7-0.2,2.6c0,24.1,12.6,45.7,32.4,60.3v27.9c0,4.2,3.1,7.6,6.8,7.6
	h27.9c3.8,0,6.9-3.4,6.9-7.6V224c6.3,1.1,12.9,1.8,19.6,1.8c5.9,0,11.7-0.5,17.3-1.4v9.8c0,4.2,3.1,7.6,6.9,7.6h27.9
	c3.8,0,6.9-3.4,6.9-7.6v-26.2c15-10.4,26.1-24.7,31.3-41.1h12.1c4.2,0,7.6-3.1,7.6-6.9v-27.9C265.4,128.3,262,125.2,257.8,125.2z
	 M51.6,130.6c-1.8,0-3.3-1.5-3.3-3.3c0-1.8,1.5-3.3,3.3-3.3s3.3,1.5,3.3,3.3C54.9,129.1,53.4,130.6,51.6,130.6z M173.7,92
	c-14-2.8-28-2.8-42,0l-2.1-10.4c15.4-3,30.8-3,46.1,0L173.7,92z"/>
</svg>
