<?xml version="1.0" encoding="utf-8"?>
<!-- Generator: Adobe Illustrator 26.3.1, SVG Export Plug-In . SVG Version: 6.00 Build 0)  -->
<svg version="1.1" id="Layer_1" xmlns="http://www.w3.org/2000/svg" xmlns:xlink="http://www.w3.org/1999/xlink" x="0px" y="0px"
	 viewBox="0 0 302.4 302.4" style="enable-background:new 0 0 302.4 302.4;" xml:space="preserve">
<metadata><?xpacket begin="﻿" id="W5M0MpCehiHzreSzNTczkc9d"?>
<x:xmpmeta xmlns:x="adobe:ns:meta/" x:xmptk="Adobe XMP Core 8.0-c001 1.000000, 0000/00/00-00:00:00        ">
   <rdf:RDF xmlns:rdf="http://www.w3.org/1999/02/22-rdf-syntax-ns#">
      <rdf:Description rdf:about=""
            xmlns:dc="http://purl.org/dc/elements/1.1/"
            xmlns:prism="http://prismstandard.org/namespaces/basic/2.1/"
            xmlns:tiff="http://ns.adobe.com/tiff/1.0/"
            xmlns:bsam="http://www.bsam.blog">
         <dc:modified>2025-09-09T17:25:40.423Z</dc:modified>
         <dc:format>image/svg+xml</dc:format>
         <prism:Date>2025-09-08T19:20:00.000+02:00</prism:Date>
         <tiff:ImageWidth>302</tiff:ImageWidth>
         <tiff:ImageLength>302</tiff:ImageLength>
         <bsam:rightsLimitedUnlimited>unlimited</bsam:rightsLimitedUnlimited>
         <bsam:subDigitalAssetType>
            <rdf:Bag>
               <rdf:li>enterprise:digital-asset-type/image/icon</rdf:li>
            </rdf:Bag>
         </bsam:subDigitalAssetType>
         <bsam:industry>
            <rdf:Bag>
               <rdf:li>enterprise:industry/generic-all-industries</rdf:li>
            </rdf:Bag>
         </bsam:industry>
         <bsam:assetOwner>
            <rdf:Bag>
               <rdf:li>enterprise:business-unit/webfleet</rdf:li>
            </rdf:Bag>
         </bsam:assetOwner>
         <bsam:usageCountry>
            <rdf:Bag>
               <rdf:li>enterprise:region-country/global</rdf:li>
            </rdf:Bag>
         </bsam:usageCountry>
      </rdf:Description>
   </rdf:RDF>
</x:xmpmeta>
                                                                                                    
                                                                                                    
                                                                                                    
                                                                                                    
                                                                                                    
                                                                                                    
                                                                                                    
                                                                                                    
                                                                                                    
                                                                                                    
                                                                                                    
                                                                                                    
                                                                                                    
                                                                                                    
                                                                                                    
                                                                                                    
                                                                                                    
                                                                                                    
                                                                            
<?xpacket end="w"?></metadata>
<g>
	<path d="M77,138.2l28.4-31.8l24.9,26.4c0,0,24.9-20.5,48.1-31.7c30.8-14.8,59.9-9.4,59.9-9.4s-24.1,5.1-52.3,26.4
		c-27.9,21.1-55.6,68-55.6,68L77,138.2z"/>
	<path d="M184,225.5c-15.8,10.9-34.3,16.6-53.5,16.6c0,0-0.1,0-0.1,0v10c0,0,0.1,0,0.1,0c21.2,0,41.6-6.4,59.1-18.4
		c44.1-30.3,57.6-88.6,33.2-134.8c-2.8,1.2-5.8,2.6-9.1,4.2C236.2,145,224,198,184,225.5"/>
	<path d="M216.6,88.5c-19.5-28.3-51.7-45.3-86.1-45.3v10c29.6,0,57.3,13.9,75.1,37.2c4-0.7,7.8-1.2,11.3-1.4
		C216.8,88.8,216.7,88.6,216.6,88.5"/>
	<path d="M195.4,159.7c-3.2,17.3-13,32.4-27.5,42.3c-11.1,7.6-24,11.6-37.3,11.6c0,0,0,0-0.1,0V227c0,0,0,0,0.1,0
		c16.1,0,31.6-4.8,44.9-14c17.5-12,29.2-30.1,33.1-50.9c3.3-17.8,0.5-35.7-7.9-51.5c-3.6,2.2-7.3,4.8-11.1,7.6
		C195.9,131,198,145.4,195.4,159.7"/>
	<path d="M189.4,94.6c-14.9-16.6-36.3-26.2-58.9-26.2v13.4c17.2,0,33.5,6.8,45.7,18.4c0.6-0.3,1.3-0.7,1.9-1
		C181.9,97.3,185.7,95.8,189.4,94.6"/>
</g>
</svg>
