<?xml version="1.0" encoding="utf-8"?>
<!-- Generator: Adobe Illustrator 26.3.1, SVG Export Plug-In . SVG Version: 6.00 Build 0)  -->
<svg version="1.1" id="Layer_1" xmlns="http://www.w3.org/2000/svg" xmlns:xlink="http://www.w3.org/1999/xlink" x="0px" y="0px"
	 viewBox="0 0 302.4 302.4" style="enable-background:new 0 0 302.4 302.4;" xml:space="preserve">
<metadata><?xpacket begin="﻿" id="W5M0MpCehiHzreSzNTczkc9d"?>
<x:xmpmeta xmlns:x="adobe:ns:meta/" x:xmptk="Adobe XMP Core 8.0-c001 1.000000, 0000/00/00-00:00:00        ">
   <rdf:RDF xmlns:rdf="http://www.w3.org/1999/02/22-rdf-syntax-ns#">
      <rdf:Description rdf:about=""
            xmlns:dc="http://purl.org/dc/elements/1.1/"
            xmlns:prism="http://prismstandard.org/namespaces/basic/2.1/"
            xmlns:tiff="http://ns.adobe.com/tiff/1.0/"
            xmlns:bsam="http://www.bsam.blog">
         <dc:modified>2025-09-09T17:18:00.551Z</dc:modified>
         <dc:format>image/svg+xml</dc:format>
         <prism:Date>2025-09-08T19:23:00.000+02:00</prism:Date>
         <tiff:ImageWidth>302</tiff:ImageWidth>
         <tiff:ImageLength>302</tiff:ImageLength>
         <bsam:rightsLimitedUnlimited>unlimited</bsam:rightsLimitedUnlimited>
         <bsam:subDigitalAssetType>
            <rdf:Bag>
               <rdf:li>enterprise:digital-asset-type/image/icon</rdf:li>
            </rdf:Bag>
         </bsam:subDigitalAssetType>
         <bsam:industry>
            <rdf:Bag>
               <rdf:li>enterprise:industry/generic-all-industries</rdf:li>
            </rdf:Bag>
         </bsam:industry>
         <bsam:assetOwner>
            <rdf:Bag>
               <rdf:li>enterprise:business-unit/webfleet</rdf:li>
            </rdf:Bag>
         </bsam:assetOwner>
         <bsam:usageCountry>
            <rdf:Bag>
               <rdf:li>enterprise:region-country/global</rdf:li>
            </rdf:Bag>
         </bsam:usageCountry>
      </rdf:Description>
   </rdf:RDF>
</x:xmpmeta>
                                                                                                    
                                                                                                    
                                                                                                    
                                                                                                    
                                                                                                    
                                                                                                    
                                                                                                    
                                                                                                    
                                                                                                    
                           
<?xpacket end="w"?></metadata>
<g>
	<path d="M221.2,66.3c-17.9-17.9-42.7-29-70-29s-52.1,11.1-70.1,29s-29,42.7-29,70.1c0,27.4,11.1,52.1,29,70.1
		c17.9,17.9,70,58.7,70,58.7s52.1-40.8,70.1-58.7s29-42.7,29-70.1C250.3,109,239.2,84.2,221.2,66.3z M151.2,215.6
		c-43.8,0-79.2-35.5-79.2-79.2s35.5-79.2,79.2-79.2s79.2,35.5,79.2,79.2C230.4,180.1,195,215.6,151.2,215.6z"/>
	<path d="M199.4,145.8c0-5.1-4.1-9.2-9.2-9.2v-9.3l0,0c2.5,0,4.6-2.1,4.6-4.6V109c0-2.5-2.1-4.6-4.6-4.6l0,0V81.4
		c0-2.5-2.1-4.6-4.6-4.6h-68.8c-2.5,0-4.6,2.1-4.6,4.6v22.9c-2.5,0-4.6,2.1-4.6,4.6v13.8c0,2.5,2.1,4.6,4.6,4.6v9.3
		c-5,0-9.2,4.1-9.2,9.2v27.4h0v8.9c0,2.7,2.2,4.9,4.9,4.9h13.2c2.7,0,4.9-2.2,4.9-4.9v-4c0,0,0,0,0-0.1v-4.8h50.5v4.8v4.1
		c0,2.7,2.2,4.9,4.9,4.9h13.2c2.7,0,4.9-2.2,4.9-4.9v-8.9l0,0V145.8z M116.8,157.1c-3.8,0-6.9-3.1-6.9-6.9s3.1-6.9,6.9-6.9
		s6.9,3.1,6.9,6.9S120.6,157.1,116.8,157.1z M171.9,162.1c0,3.6-2.9,6.5-6.5,6.5h-28.3c-3.6,0-6.5-2.9-6.5-6.5v-14.5
		c0-3.6,2.9-6.5,6.5-6.5h28.3c3.6,0,6.5,2.9,6.5,6.5V162.1z M174.5,131.9h-46.7c-3.6,0-6.5-2.9-6.5-6.5v-14.5c0-3.6,2.9-6.5,6.5-6.5
		h46.7c3.6,0,6.5,2.9,6.5,6.5v14.5C181,129,178.1,131.9,174.5,131.9z M185.6,157.1c-3.8,0-6.9-3.1-6.9-6.9s3.1-6.9,6.9-6.9
		s6.9,3.1,6.9,6.9S189.4,157.1,185.6,157.1z"/>
</g>
</svg>
