<?xml version="1.0" encoding="utf-8"?>
<!-- Generator: Adobe Illustrator 26.3.1, SVG Export Plug-In . SVG Version: 6.00 Build 0)  -->
<svg version="1.1" id="Layer_1" xmlns="http://www.w3.org/2000/svg" xmlns:xlink="http://www.w3.org/1999/xlink" x="0px" y="0px"
	 viewBox="0 0 302.4 302.4" style="enable-background:new 0 0 302.4 302.4;" xml:space="preserve">
<metadata><?xpacket begin="﻿" id="W5M0MpCehiHzreSzNTczkc9d"?>
<x:xmpmeta xmlns:x="adobe:ns:meta/" x:xmptk="Adobe XMP Core 8.0-c001 1.000000, 0000/00/00-00:00:00        ">
   <rdf:RDF xmlns:rdf="http://www.w3.org/1999/02/22-rdf-syntax-ns#">
      <rdf:Description rdf:about=""
            xmlns:dc="http://purl.org/dc/elements/1.1/"
            xmlns:prism="http://prismstandard.org/namespaces/basic/2.1/"
            xmlns:tiff="http://ns.adobe.com/tiff/1.0/"
            xmlns:bsam="http://www.bsam.blog">
         <dc:modified>2025-09-09T17:20:57.391Z</dc:modified>
         <dc:format>image/svg+xml</dc:format>
         <prism:Date>2025-09-08T19:23:00.000+02:00</prism:Date>
         <tiff:ImageWidth>302</tiff:ImageWidth>
         <tiff:ImageLength>302</tiff:ImageLength>
         <bsam:rightsLimitedUnlimited>unlimited</bsam:rightsLimitedUnlimited>
         <bsam:subDigitalAssetType>
            <rdf:Bag>
               <rdf:li>enterprise:digital-asset-type/image/icon</rdf:li>
            </rdf:Bag>
         </bsam:subDigitalAssetType>
         <bsam:industry>
            <rdf:Bag>
               <rdf:li>enterprise:industry/generic-all-industries</rdf:li>
            </rdf:Bag>
         </bsam:industry>
         <bsam:assetOwner>
            <rdf:Bag>
               <rdf:li>enterprise:business-unit/webfleet</rdf:li>
            </rdf:Bag>
         </bsam:assetOwner>
         <bsam:usageCountry>
            <rdf:Bag>
               <rdf:li>enterprise:region-country/global</rdf:li>
            </rdf:Bag>
         </bsam:usageCountry>
      </rdf:Description>
   </rdf:RDF>
</x:xmpmeta>
                                                                                                    
                                                                                                    
                                                                                                    
                                                                                                    
                                                                                                    
                                                                                                    
                                                                                                    
                                                                                                    
                                                                                                    
                           
<?xpacket end="w"?></metadata>
<style type="text/css">
	.st0{fill-rule:evenodd;clip-rule:evenodd;}
</style>
<g>
	<g>
		<path d="M161.7,98h-35c-3.5,0-6.7,3.2-6.7,6.6v34.6c0,3.5,3.2,6.6,6.7,6.6h7.3l10.1,11.6l10.2-11.6h7.4c3.5,0,6.7-3.1,6.7-6.6
			v-34.6C168.4,101.1,165.2,98,161.7,98z"/>
		<path class="st0" d="M252.5,212.8L252.5,212.8l-37.9-37.7l-0.1,0.1c-0.1-0.1-0.1-0.2-0.2-0.2c-1.4-1.4-3.8-1.5-6.5-0.7l-6.2-6.1
			c9.7-12.2,15.5-27.7,15.5-44.4c0-39.8-32.6-72.1-72.8-72.1s-72.8,32.3-72.8,72.1s32.6,72.1,72.8,72.1c15.5,0,29.9-4.8,41.7-13l7,7
			c-0.5,2.2-0.2,4.1,1,5.3c0.1,0.1,0.2,0.1,0.2,0.2l-0.1,0.1l38,37.6l0.1-0.1c2.4,2.5,5.8,4,9.8,3.8c7.6-0.4,14-6.7,14.4-14.2
			C256.5,218.5,255,215.1,252.5,212.8z M90.6,123.7c0-29.4,24.1-53.3,53.8-53.3c29.7,0,53.8,23.8,53.8,53.3
			c0,29.4-24.1,53.3-53.8,53.3C114.6,176.9,90.6,153.1,90.6,123.7z"/>
	</g>
	<g>
		<path d="M58.3,206.6h-5.4v-2.8h13.7v2.8h-5.4v14.1h-3L58.3,206.6L58.3,206.6z"/>
		<path d="M66,214.4L66,214.4c0-3.7,2.9-6.7,6.8-6.7c3.9,0,6.8,3,6.8,6.6v0.1c0,3.6-2.9,6.6-6.8,6.6C68.8,221,66,218,66,214.4z
			 M76.6,214.4L76.6,214.4c0-2.3-1.6-4.2-3.9-4.2c-2.3,0-3.8,1.8-3.8,4.1v0.1c0,2.2,1.6,4.1,3.9,4.1
			C75.1,218.4,76.6,216.6,76.6,214.4z"/>
		<path d="M82.5,207.9h2.9v1.9c0.8-1.1,1.9-2.2,3.9-2.2c1.8,0,3.1,0.9,3.8,2.2c1-1.4,2.4-2.2,4.3-2.2c2.8,0,4.5,1.8,4.5,4.9v8.1H99
			v-7.2c0-2-0.9-3.1-2.6-3.1c-1.6,0-2.7,1.1-2.7,3.2v7.2h-2.9v-7.3c0-2-1-3.1-2.6-3.1c-1.6,0-2.7,1.2-2.7,3.2v7.2h-2.9L82.5,207.9
			L82.5,207.9z"/>
		<path d="M110,206.6h-5.4v-2.8h13.7v2.8H113v14.1h-3L110,206.6L110,206.6z"/>
		<path d="M117.7,214.4L117.7,214.4c0-3.7,2.9-6.7,6.8-6.7c3.9,0,6.8,3,6.8,6.6v0.1c0,3.6-2.9,6.6-6.8,6.6
			C120.6,221,117.7,218,117.7,214.4z M128.4,214.4L128.4,214.4c0-2.3-1.6-4.2-3.9-4.2c-2.3,0-3.8,1.8-3.8,4.1v0.1
			c0,2.2,1.6,4.1,3.9,4.1C126.8,218.4,128.4,216.6,128.4,214.4z"/>
		<path d="M134.2,207.9h2.9v1.9c0.8-1.1,1.9-2.2,3.9-2.2c1.8,0,3.1,0.9,3.8,2.2c1-1.4,2.4-2.2,4.3-2.2c2.8,0,4.5,1.8,4.5,4.9v8.1
			h-2.9v-7.2c0-2-0.9-3.1-2.6-3.1c-1.6,0-2.7,1.1-2.7,3.2v7.2h-2.9v-7.3c0-2-1-3.1-2.6-3.1c-1.6,0-2.7,1.2-2.7,3.2v7.2h-2.9
			L134.2,207.9L134.2,207.9z"/>
		<path d="M55.2,229.1h11.1c6.4,0,10.4,3.8,10.4,9.4v0.1c0,6.3-4.9,9.5-10.9,9.5h-4.5v8.1h-6V229.1z M65.8,242.7
			c3,0,4.7-1.8,4.7-4.1v-0.1c0-2.7-1.8-4.1-4.8-4.1h-4.6v8.3L65.8,242.7L65.8,242.7z"/>
		<path d="M80.7,227.9h5.9v28.2h-5.9V227.9z"/>
		<path d="M90.8,250.2L90.8,250.2c0-4.6,3.4-6.7,8.3-6.7c2.1,0,3.6,0.4,5.1,0.9V244c0-2.4-1.5-3.8-4.4-3.8c-2.2,0-3.8,0.4-5.7,1.1
			l-1.5-4.5c2.3-1,4.5-1.7,8-1.7c3.2,0,5.5,0.9,7,2.3c1.6,1.6,2.2,3.8,2.2,6.6v12h-5.7v-2.2c-1.4,1.6-3.4,2.6-6.3,2.6
			C94,256.5,90.8,254.3,90.8,250.2z M104.3,248.8v-1c-1-0.5-2.3-0.8-3.8-0.8c-2.5,0-4.1,1-4.1,2.9v0.1c0,1.6,1.3,2.5,3.2,2.5
			C102.4,252.4,104.3,250.9,104.3,248.8z"/>
		<path d="M113.9,245.9L113.9,245.9c0-6,4.5-10.9,10.9-10.9c3.9,0,6.3,1.3,8.3,3.5l-3.6,3.9c-1.3-1.4-2.6-2.3-4.7-2.3
			c-2.9,0-5,2.6-5,5.6v0.1c0,3.2,2.1,5.7,5.3,5.7c2,0,3.3-0.9,4.8-2.2l3.4,3.5c-2,2.2-4.3,3.8-8.5,3.8
			C118.5,256.6,113.9,251.8,113.9,245.9z"/>
		<path d="M135.4,245.9L135.4,245.9c0-6,4.2-10.9,10.2-10.9c6.9,0,10.1,5.4,10.1,11.2c0,0.5,0,1-0.1,1.6h-14.4
			c0.6,2.7,2.4,4.1,5.1,4.1c2,0,3.4-0.6,5-2.1l3.4,3c-1.9,2.4-4.7,3.9-8.5,3.9C140,256.6,135.4,252.2,135.4,245.9z M150,244.1
			c-0.4-2.6-1.9-4.4-4.4-4.4c-2.4,0-4,1.7-4.5,4.4H150z"/>
		<path d="M158.5,253.4l2.5-3.9c2.2,1.6,4.6,2.5,6.5,2.5c1.7,0,2.5-0.6,2.5-1.6v-0.1c0-1.3-2-1.7-4.3-2.4c-2.9-0.9-6.2-2.2-6.2-6.2
			v-0.1c0-4.2,3.4-6.6,7.6-6.6c2.6,0,5.5,0.9,7.7,2.4l-2.2,4.1c-2.1-1.2-4.1-1.9-5.6-1.9c-1.4,0-2.2,0.6-2.2,1.4v0.1
			c0,1.2,2,1.7,4.2,2.5c2.9,1,6.3,2.4,6.3,6.1v0.1c0,4.6-3.4,6.7-7.9,6.7C164.5,256.5,161.2,255.5,158.5,253.4z"/>
	</g>
</g>
</svg>
