<?xml version="1.0" encoding="utf-8"?>
<!-- Generator: Adobe Illustrator 26.3.1, SVG Export Plug-In . SVG Version: 6.00 Build 0)  -->
<svg version="1.1" id="Layer_1" xmlns="http://www.w3.org/2000/svg" xmlns:xlink="http://www.w3.org/1999/xlink" x="0px" y="0px"
	 viewBox="0 0 302.4 302.4" style="enable-background:new 0 0 302.4 302.4;" xml:space="preserve">
<metadata><?xpacket begin="﻿" id="W5M0MpCehiHzreSzNTczkc9d"?>
<x:xmpmeta xmlns:x="adobe:ns:meta/" x:xmptk="Adobe XMP Core 8.0-c001 1.000000, 0000/00/00-00:00:00        ">
   <rdf:RDF xmlns:rdf="http://www.w3.org/1999/02/22-rdf-syntax-ns#">
      <rdf:Description rdf:about=""
            xmlns:dc="http://purl.org/dc/elements/1.1/"
            xmlns:prism="http://prismstandard.org/namespaces/basic/2.1/"
            xmlns:tiff="http://ns.adobe.com/tiff/1.0/"
            xmlns:bsam="http://www.bsam.blog">
         <dc:modified>2025-09-09T17:29:05.133Z</dc:modified>
         <dc:format>image/svg+xml</dc:format>
         <prism:Date>2025-09-08T19:23:00.000+02:00</prism:Date>
         <tiff:ImageWidth>302</tiff:ImageWidth>
         <tiff:ImageLength>302</tiff:ImageLength>
         <bsam:rightsLimitedUnlimited>unlimited</bsam:rightsLimitedUnlimited>
         <bsam:subDigitalAssetType>
            <rdf:Bag>
               <rdf:li>enterprise:digital-asset-type/image/icon</rdf:li>
            </rdf:Bag>
         </bsam:subDigitalAssetType>
         <bsam:industry>
            <rdf:Bag>
               <rdf:li>enterprise:industry/generic-all-industries</rdf:li>
            </rdf:Bag>
         </bsam:industry>
         <bsam:assetOwner>
            <rdf:Bag>
               <rdf:li>enterprise:business-unit/webfleet</rdf:li>
            </rdf:Bag>
         </bsam:assetOwner>
         <bsam:usageCountry>
            <rdf:Bag>
               <rdf:li>enterprise:region-country/global</rdf:li>
            </rdf:Bag>
         </bsam:usageCountry>
      </rdf:Description>
   </rdf:RDF>
</x:xmpmeta>
                                                                                                    
                                                                                                    
                                                                                                    
                                                                                                    
                                                                                                    
                                                                                                    
                                                                                                    
                                                                                                    
                                                                                                    
                                                                                                    
                                                                                                    
                                                                                                    
                                                                                                    
                                                                                                    
                                                                                                    
                                                                                                    
                                                                                                    
                                                                                                    
                                                                            
<?xpacket end="w"?></metadata>
<style type="text/css">
	.st0{fill-rule:evenodd;clip-rule:evenodd;}
</style>
<g>
	<path class="st0" d="M102.6,192.4c13.5,0,24.5,11,24.5,24.5s-11,24.5-24.5,24.5c-13.5,0-24.5-11-24.5-24.5S89.1,192.4,102.6,192.4
		L102.6,192.4z"/>
	<path d="M260.7,74.1h-59.8H59h-2.5c-7.5,0-13.6,6.1-13.8,13.6l0,100.5h47c0.2-0.1,0.3-0.1,0.5-0.2c0.4-0.2,0.9-0.4,1.4-0.5
		c0.5-0.2,0.9-0.4,1.4-0.5c0.6-0.2,1.1-0.3,1.7-0.5c0.5-0.1,1-0.3,1.5-0.4c0.2-0.1,0.5-0.1,0.7-0.1c1.8-0.4,3.7-0.6,5.7-0.6
		c1.9,0,3.8,0.2,5.6,0.6c0.3,0.1,0.6,0.1,0.9,0.1c0.5,0.1,0.9,0.2,1.4,0.4c0.6,0.2,1.2,0.3,1.8,0.5c0.4,0.1,0.8,0.3,1.2,0.5
		c0.5,0.2,1,0.4,1.5,0.6c0.1,0.1,0.3,0.1,0.4,0.2h145.2V74.1z"/>
	<path d="M42.7,194.5c0,0,0.1,3.4,0.8,10.9c1.5,15.6,14,22.5,29.4,22.1c-0.7-2.6-1.7-5.8-1.7-10.6c0.1-8.9,3.7-16.8,9.6-22.4
		L42.7,194.5L42.7,194.5z"/>
	<path d="M260.7,194.6h-6.7v0h-46v0h-60.5l-23.1,0c7.2,6.4,9.8,13.6,9.6,21.6c0,0.1,0,0.1,0,0.2c0,0,0,0.1,0,0.1c0,0.1,0,0.1,0,0.1
		c0,0,0,0,0,0c0.1,4.1,3.5,7.3,7.6,7.3c1.6,0,3.1-0.5,4.3-1.4l0,0c0,0,0,0,0,0c0.2-0.1,0.4-0.3,0.6-0.5c6.3-5,9.4-13,10.9-19.1h50.6
		v13.9h18v15.9h-3.5v8.3h17v-8.3H236v-15.9h18V203h6.7L260.7,194.6L260.7,194.6z"/>
</g>
</svg>
