<?xml version="1.0" encoding="utf-8"?>
<!-- Generator: Adobe Illustrator 26.3.1, SVG Export Plug-In . SVG Version: 6.00 Build 0)  -->
<svg version="1.1" id="Layer_1" xmlns="http://www.w3.org/2000/svg" xmlns:xlink="http://www.w3.org/1999/xlink" x="0px" y="0px"
	 viewBox="0 0 302.4 302.4" style="enable-background:new 0 0 302.4 302.4;" xml:space="preserve">
<metadata><?xpacket begin="﻿" id="W5M0MpCehiHzreSzNTczkc9d"?>
<x:xmpmeta xmlns:x="adobe:ns:meta/" x:xmptk="Adobe XMP Core 8.0-c001 1.000000, 0000/00/00-00:00:00        ">
   <rdf:RDF xmlns:rdf="http://www.w3.org/1999/02/22-rdf-syntax-ns#">
      <rdf:Description rdf:about=""
            xmlns:dc="http://purl.org/dc/elements/1.1/"
            xmlns:prism="http://prismstandard.org/namespaces/basic/2.1/"
            xmlns:tiff="http://ns.adobe.com/tiff/1.0/"
            xmlns:bsam="http://www.bsam.blog">
         <dc:modified>2025-09-09T17:16:16.321Z</dc:modified>
         <dc:format>image/svg+xml</dc:format>
         <prism:Date>2025-09-08T19:23:00.000+02:00</prism:Date>
         <tiff:ImageWidth>302</tiff:ImageWidth>
         <tiff:ImageLength>302</tiff:ImageLength>
         <bsam:rightsLimitedUnlimited>unlimited</bsam:rightsLimitedUnlimited>
         <bsam:subDigitalAssetType>
            <rdf:Bag>
               <rdf:li>enterprise:digital-asset-type/image/icon</rdf:li>
            </rdf:Bag>
         </bsam:subDigitalAssetType>
         <bsam:industry>
            <rdf:Bag>
               <rdf:li>enterprise:industry/generic-all-industries</rdf:li>
            </rdf:Bag>
         </bsam:industry>
         <bsam:assetOwner>
            <rdf:Bag>
               <rdf:li>enterprise:business-unit/webfleet</rdf:li>
            </rdf:Bag>
         </bsam:assetOwner>
         <bsam:usageCountry>
            <rdf:Bag>
               <rdf:li>enterprise:region-country/global</rdf:li>
            </rdf:Bag>
         </bsam:usageCountry>
      </rdf:Description>
   </rdf:RDF>
</x:xmpmeta>
                                                                                                    
                                                                                                    
                                                                                                    
                                                                                                    
                                                                                                    
                                                                                                    
                                                                                                    
                                                                                                    
                                                                                                    
                           
<?xpacket end="w"?></metadata>
<g>
	<g>
		<path d="M203,206.9c-7.7,0-13.9-6.2-13.9-13.9c0-7.7,6.2-13.9,13.9-13.9s13.9,6.2,13.9,13.9C216.9,200.6,210.7,206.9,203,206.9
			 M73.6,151.2c-2.6,0-4-2-3.2-4.4L80.7,116c2-5.9,9.4-11.3,15.6-11.3h74.2c6.2,0,13.7,5.4,15.6,11.3l10.2,30.8
			c0.8,2.4-0.6,4.4-3.2,4.4H73.6z M165.9,216.2h-65c-2.6,0-4.6-2.1-4.6-4.6c0-2.6,2.1-4.6,4.6-4.6h65c2.6,0,4.6,2.1,4.6,4.6
			C170.5,214.1,168.4,216.2,165.9,216.2 M63.8,206.9c-7.7,0-13.9-6.2-13.9-13.9c0-7.7,6.2-13.9,13.9-13.9s13.9,6.2,13.9,13.9
			C77.7,200.6,71.5,206.9,63.8,206.9 M216.9,160.5l-6-6c-1.8-1.8-3.9-5.2-4.7-7.7l-11.2-33.7c-3.2-9.7-14.2-17.6-24.4-17.6H96.3
			c-10.2,0-21.2,7.9-24.4,17.6l-11.2,33.7c-0.8,2.4-2.9,5.9-4.8,7.7c-1.6,1.6-3.7,3.7-6,6c-5.1,5.1-9.3,17.6-9.3,27.8v46.4v9.3
			c0,5.1,4.2,9.3,9.3,9.3h18.6c5.1,0,9.3-4.1,9.3-9.3v-9.3h111.4v9.3c0,5.1,4.2,9.3,9.3,9.3h18.6c5.1,0,9.3-4.1,9.3-9.3v-55.7
			C226.2,178.1,222.1,165.6,216.9,160.5"/>
		<path d="M244.8,132.6c-5.1,0-9.3-4.2-9.3-9.3c0-5.1,4.2-9.3,9.3-9.3s9.3,4.2,9.3,9.3C254.1,128.5,249.9,132.6,244.8,132.6
			 M258.7,100.2l-4.6-4.7L240.7,62c-2.9-7.1-11.4-12.9-19.1-12.9h-55.7c-7.7,0-16.2,5.8-19.1,12.9l-9.7,24.2h10l8.3-20.8
			c1.4-3.7,6.6-7.1,10.5-7.1h55.7c3.9,0,9,3.4,10.5,7.1l11.1,27.9c0.5,1.2-0.2,2.2-1.5,2.2h-48.1c4.6,4,8.2,9.1,10.1,14.7L215,144
			c0.4,1.2,1.5,2.9,2.4,3.9l3.4,3.4h14.7v9.3c0,5.1,4.2,9.3,9.3,9.3h9.3c5.1,0,9.3-4.2,9.3-9.3v-46.4
			C263.3,108.9,261.2,102.7,258.7,100.2"/>
	</g>
</g>
</svg>
