<?xml version="1.0" encoding="utf-8"?>
<!-- Generator: Adobe Illustrator 26.3.1, SVG Export Plug-In . SVG Version: 6.00 Build 0)  -->
<svg version="1.1" id="Layer_1" xmlns="http://www.w3.org/2000/svg" xmlns:xlink="http://www.w3.org/1999/xlink" x="0px" y="0px"
	 viewBox="0 0 302.4 302.4" style="enable-background:new 0 0 302.4 302.4;" xml:space="preserve">
<metadata><?xpacket begin="﻿" id="W5M0MpCehiHzreSzNTczkc9d"?>
<x:xmpmeta xmlns:x="adobe:ns:meta/" x:xmptk="Adobe XMP Core 8.0-c001 1.000000, 0000/00/00-00:00:00        ">
   <rdf:RDF xmlns:rdf="http://www.w3.org/1999/02/22-rdf-syntax-ns#">
      <rdf:Description rdf:about=""
            xmlns:dc="http://purl.org/dc/elements/1.1/"
            xmlns:prism="http://prismstandard.org/namespaces/basic/2.1/"
            xmlns:tiff="http://ns.adobe.com/tiff/1.0/"
            xmlns:bsam="http://www.bsam.blog">
         <dc:modified>2025-09-09T17:15:11.197Z</dc:modified>
         <dc:format>image/svg+xml</dc:format>
         <prism:Date>2025-09-08T19:23:00.000+02:00</prism:Date>
         <tiff:ImageWidth>302</tiff:ImageWidth>
         <tiff:ImageLength>302</tiff:ImageLength>
         <bsam:rightsLimitedUnlimited>unlimited</bsam:rightsLimitedUnlimited>
         <bsam:subDigitalAssetType>
            <rdf:Bag>
               <rdf:li>enterprise:digital-asset-type/image/icon</rdf:li>
            </rdf:Bag>
         </bsam:subDigitalAssetType>
         <bsam:industry>
            <rdf:Bag>
               <rdf:li>enterprise:industry/generic-all-industries</rdf:li>
            </rdf:Bag>
         </bsam:industry>
         <bsam:assetOwner>
            <rdf:Bag>
               <rdf:li>enterprise:business-unit/webfleet</rdf:li>
            </rdf:Bag>
         </bsam:assetOwner>
         <bsam:usageCountry>
            <rdf:Bag>
               <rdf:li>enterprise:region-country/global</rdf:li>
            </rdf:Bag>
         </bsam:usageCountry>
      </rdf:Description>
   </rdf:RDF>
</x:xmpmeta>
                                                                                                    
                                                                                                    
                                                                                                    
                                                                                                    
                                                                                                    
                                                                                                    
                                                                                                    
                                                                                                    
                                                                                                    
                           
<?xpacket end="w"?></metadata>
<style type="text/css">
	.st0{fill-rule:evenodd;clip-rule:evenodd;}
</style>
<g>
	<path class="st0" d="M248.8,194.6c12,0,21.8,9.8,21.8,21.8c0,12-9.8,21.8-21.8,21.8c-12,0-21.8-9.8-21.8-21.8
		C227,204.4,236.8,194.6,248.8,194.6L248.8,194.6z"/>
	<path class="st0" d="M60.5,194.6c12,0,21.8,9.8,21.8,21.8c0,12-9.8,21.8-21.8,21.8c-12,0-21.8-9.8-21.8-21.8
		C38.7,204.4,48.5,194.6,60.5,194.6L60.5,194.6z"/>
	<g>
		<path d="M287.4,195.7c-0.8,0-1.5-0.7-1.5-1.5c0-0.8,0.7-1.5,1.5-1.5h6.7c0.2-41-3.4-34.3-15.5-43.2c-5.2-13.4-12-31.8-17.1-40.1
			c-4.7-7.6-13.6-8.2-44.9-7.9h-10.4l0.1,94.9H79.9c7.3,6.5,9.2,14.3,8.3,22.5c-0.4,4.1,1.8,6.9,4.4,6.9l129.9,0l-0.7-2.6
			c-0.6-2.2-0.9-4.5-0.9-6.8c0-15.4,12.5-27.9,27.9-27.9c15.4,0,27.9,12.5,27.9,27.9c0,2.4-0.3,4.6-0.9,6.8l-0.6,2.5l9.1,0.1
			c7.3,0,12.7-8.5,12.7-15.8v-14.3L287.4,195.7L287.4,195.7z M265.8,149.3h-45.1c-2,0-3.6-1.5-3.6-3.4v-30.7c0-1.9,1.6-3.4,3.6-3.4
			l31.5,0.6c3,0,4.8,1.8,6.4,4.3c1.6,2.5,3.8,7.1,6,12.3c2.2,5.3,4.9,14,4.9,16.8C269.5,147.6,267.8,149.3,265.8,149.3z"/>
		<path d="M200.6,89.4h-47.3H19.8h-2.3c-6.7,0-12.1,5.4-12.2,12.1l0,89.4H49c0.1-0.1,0.3-0.1,0.4-0.2c0.4-0.2,0.8-0.3,1.2-0.5
			c0.4-0.2,0.8-0.3,1.3-0.5c0.5-0.2,1-0.3,1.5-0.4c0.5-0.1,0.9-0.2,1.3-0.4c0.2,0,0.4-0.1,0.7-0.1c1.6-0.3,3.3-0.5,5.1-0.5
			c1.7,0,3.4,0.2,5,0.5c0.2,0.1,0.5,0.1,0.8,0.1c0.4,0.1,0.8,0.2,1.2,0.3c0.6,0.1,1.1,0.3,1.6,0.4c0.4,0.1,0.7,0.3,1.1,0.4
			c0.5,0.2,0.9,0.3,1.4,0.5c0.1,0.1,0.3,0.1,0.4,0.1h128.6L200.6,89.4L200.6,89.4z"/>
		<path d="M5.3,196.5c0,0,0.1,3,0.8,9.7c1.3,13.9,14.4,20,28.1,19.6c-0.6-2.3-1.5-5.1-1.5-9.4c0.1-7.9,3.3-15,8.5-19.9H5.3z"/>
	</g>
</g>
</svg>
