<?xml version="1.0" encoding="utf-8"?>
<!-- Generator: Adobe Illustrator 26.3.1, SVG Export Plug-In . SVG Version: 6.00 Build 0)  -->
<svg version="1.1" id="Layer_1" xmlns="http://www.w3.org/2000/svg" xmlns:xlink="http://www.w3.org/1999/xlink" x="0px" y="0px"
	 viewBox="0 0 302.4 302.4" style="enable-background:new 0 0 302.4 302.4;" xml:space="preserve">
<metadata><?xpacket begin="﻿" id="W5M0MpCehiHzreSzNTczkc9d"?>
<x:xmpmeta xmlns:x="adobe:ns:meta/" x:xmptk="Adobe XMP Core 8.0-c001 1.000000, 0000/00/00-00:00:00        ">
   <rdf:RDF xmlns:rdf="http://www.w3.org/1999/02/22-rdf-syntax-ns#">
      <rdf:Description rdf:about=""
            xmlns:dc="http://purl.org/dc/elements/1.1/"
            xmlns:prism="http://prismstandard.org/namespaces/basic/2.1/"
            xmlns:tiff="http://ns.adobe.com/tiff/1.0/"
            xmlns:bsam="http://www.bsam.blog">
         <dc:modified>2025-09-09T17:19:11.254Z</dc:modified>
         <dc:format>image/svg+xml</dc:format>
         <prism:Date>2025-09-08T19:20:00.000+02:00</prism:Date>
         <tiff:ImageWidth>302</tiff:ImageWidth>
         <tiff:ImageLength>302</tiff:ImageLength>
         <bsam:rightsLimitedUnlimited>unlimited</bsam:rightsLimitedUnlimited>
         <bsam:subDigitalAssetType>
            <rdf:Bag>
               <rdf:li>enterprise:digital-asset-type/image/icon</rdf:li>
            </rdf:Bag>
         </bsam:subDigitalAssetType>
         <bsam:industry>
            <rdf:Bag>
               <rdf:li>enterprise:industry/generic-all-industries</rdf:li>
            </rdf:Bag>
         </bsam:industry>
         <bsam:assetOwner>
            <rdf:Bag>
               <rdf:li>enterprise:business-unit/webfleet</rdf:li>
            </rdf:Bag>
         </bsam:assetOwner>
         <bsam:usageCountry>
            <rdf:Bag>
               <rdf:li>enterprise:region-country/global</rdf:li>
            </rdf:Bag>
         </bsam:usageCountry>
      </rdf:Description>
   </rdf:RDF>
</x:xmpmeta>
                                                                                                    
                                                                                                    
                                                                                                    
                                                                                                    
                                                                                                    
                                                                                                    
                                                                                                    
                                                                                                    
                                                                                                    
                           
<?xpacket end="w"?></metadata>
<g>
	<g>
		<path d="M89.4,215.4v4.1h-6.9v18.8h-4.8v-18.8h-6.9v-4.1H89.4z"/>
		<path d="M106.7,216c0.8,0.4,1.6,0.9,2.1,1.6c0.5,0.6,0.9,1.2,1.2,1.9c0.3,0.7,0.4,1.5,0.4,2.4c0,1.1-0.3,2.1-0.8,3.2
			c-0.6,1-1.4,1.8-2.7,2.2c1.1,0.4,1.8,1,2.2,1.8c0.4,0.8,0.7,2,0.7,3.6v1.5c0,1,0,1.8,0.1,2.1c0.1,0.6,0.4,1,0.9,1.3v0.6h-5.3
			c-0.1-0.5-0.2-0.9-0.3-1.2c-0.1-0.6-0.2-1.3-0.2-2l0-2.1c0-1.5-0.3-2.4-0.8-2.9c-0.5-0.5-1.4-0.7-2.7-0.7h-4.6v8.9h-4.7v-22.8
			h10.9C104.7,215.5,105.8,215.7,106.7,216z M96.8,219.4v6.1h5.1c1,0,1.8-0.1,2.3-0.4c0.9-0.4,1.3-1.3,1.3-2.6
			c0-1.4-0.4-2.3-1.3-2.8c-0.5-0.3-1.2-0.4-2.2-0.4L96.8,219.4L96.8,219.4z"/>
		<path d="M121.4,215.4h5.4l8,22.8h-5.2l-1.5-4.7h-8.4l-1.5,4.7h-5L121.4,215.4z M121.1,229.6h5.8l-2.9-9L121.1,229.6z"/>
		<path d="M137.8,215.4h16.2v4h-11.5v5.3h10.1v3.9h-10.1v9.6h-4.7V215.4z"/>
		<path d="M157.2,215.4h16.2v4h-11.5v5.3H172v3.9h-10.1v9.6h-4.7L157.2,215.4L157.2,215.4z"/>
		<path d="M180.9,238.2h-4.7v-22.8h4.7V238.2z"/>
		<path d="M187.5,217.8c1.8-1.9,4.2-2.8,7-2.8c3.8,0,6.6,1.3,8.3,3.8c1,1.4,1.5,2.8,1.6,4.3h-4.7c-0.3-1.1-0.7-1.9-1.2-2.5
			c-0.9-1-2.1-1.5-3.8-1.5c-1.7,0-3,0.7-4,2.1c-1,1.4-1.5,3.4-1.5,5.9c0,2.6,0.5,4.5,1.6,5.8s2.3,1.9,3.9,1.9c1.6,0,2.9-0.6,3.7-1.6
			c0.5-0.6,0.9-1.5,1.2-2.6h4.7c-0.4,2.5-1.4,4.5-3.1,6.1c-1.7,1.6-3.8,2.3-6.4,2.3c-3.2,0-5.8-1.1-7.6-3.2c-1.9-2.1-2.8-5-2.8-8.7
			C184.4,223,185.4,220,187.5,217.8z"/>
	</g>
	<g>
		<path d="M168.4,182.1c-4.1,0-7.4-3.3-7.4-7.4c0-4.1,3.3-7.4,7.4-7.4c4.1,0,7.4,3.3,7.4,7.4C175.7,178.8,172.4,182.1,168.4,182.1
			 M99.9,152.7c-1.3,0-2.1-1.1-1.7-2.3l5.4-16.3c1-3.1,5-6,8.3-6h39.3c3.3,0,7.2,2.8,8.3,6l5.4,16.3c0.4,1.3-0.3,2.3-1.7,2.3H99.9z
			 M148.7,187h-34.4c-1.4,0-2.4-1.1-2.4-2.4c0-1.4,1.1-2.5,2.4-2.5h34.4c1.4,0,2.5,1.1,2.5,2.5C151.2,185.9,150.1,187,148.7,187
			 M94.7,182.1c-4.1,0-7.4-3.3-7.4-7.4c0-4.1,3.3-7.4,7.4-7.4c4.1,0,7.4,3.3,7.4,7.4C102.1,178.8,98.8,182.1,94.7,182.1
			 M175.7,157.6l-3.2-3.2c-1-0.9-2.1-2.8-2.5-4.1l-5.9-17.8c-1.7-5.2-7.5-9.3-12.9-9.3h-39.3c-5.4,0-11.2,4.2-12.9,9.3L93,150.3
			c-0.4,1.3-1.6,3.1-2.5,4.1c-0.8,0.9-2,2-3.2,3.2c-2.7,2.7-4.9,9.3-4.9,14.7v24.6v4.9c0,2.7,2.2,4.9,4.9,4.9h9.8
			c2.7,0,4.9-2.2,4.9-4.9v-4.9H161v4.9c0,2.7,2.2,4.9,4.9,4.9h9.8c2.7,0,4.9-2.2,4.9-4.9v-29.5C180.6,166.9,178.4,160.3,175.7,157.6
			"/>
		<path d="M190.5,142.8c-2.7,0-4.9-2.2-4.9-4.9s2.2-4.9,4.9-4.9s4.9,2.2,4.9,4.9S193.2,142.8,190.5,142.8 M197.8,125.7l-2.4-2.5
			l-7.1-17.7c-1.5-3.8-6-6.8-10.1-6.8h-29.5c-4.1,0-8.6,3.1-10.1,6.8l-5.1,12.8h5.3l4.4-11c0.8-1.9,3.5-3.8,5.5-3.8h29.5
			c2.1,0,4.8,1.8,5.5,3.8l5.9,14.8c0.2,0.6-0.1,1.1-0.8,1.1h-25.4c2.4,2.1,4.4,4.8,5.3,7.8l6,17.9c0.2,0.6,0.8,1.6,1.3,2l1.8,1.8
			h7.8v4.9c0,2.7,2.2,4.9,4.9,4.9h4.9c2.7,0,4.9-2.2,4.9-4.9V133C200.3,130.3,199.2,127,197.8,125.7"/>
	</g>
	<g>
		<path d="M93.2,69.7H75.8c-0.7,0-1.1,1.3-1.1,2.6s0.4,2.6,1.1,2.6h6.1v14.7c0,0.7,1.3,1.1,2.6,1.1s2.6-0.4,2.6-1.1V75h6.1
			c0.7,0,1.1-1.3,1.1-2.6C94.4,71,94,69.7,93.2,69.7z"/>
		<path d="M105.7,69.5c-5.9,0-10.6,4.8-10.6,10.6c0,5.9,4.8,10.6,10.6,10.6c5.9,0,10.6-4.8,10.6-10.6
			C116.3,74.3,111.5,69.5,105.7,69.5z M105.7,85.5c-2.9,0-5.3-2.4-5.3-5.3s2.4-5.3,5.3-5.3s5.3,2.4,5.3,5.3
			C111,83.1,108.6,85.5,105.7,85.5z"/>
		<path d="M141.4,69.5c-2.5,0-4.8,1-6.4,2.7c-1.6-1.7-3.9-2.7-6.4-2.7c-5,0-9.1,4.1-9.1,9.1v11.1c0,0.7,1.3,1.1,2.6,1.1
			s2.6-0.4,2.6-1.1V78.6c0-2.1,1.7-3.8,3.8-3.8s3.8,1.7,3.8,3.8v11.1c0,0.7,1.3,1.1,2.6,1.1c1.3,0,2.6-0.4,2.6-1.1V78.6
			c0-2.1,1.7-3.8,3.8-3.8s3.8,1.7,3.8,3.8v11.1c0,0.7,1.3,1.1,2.6,1.1c1.3,0,2.6-0.4,2.6-1.1V78.6C150.5,73.6,146.4,69.5,141.4,69.5
			z"/>
		<path d="M218.5,69.5c-2.5,0-4.8,1-6.4,2.7c-1.6-1.7-3.9-2.7-6.4-2.7c-5,0-9.1,4.1-9.1,9.1v11.1c0,0.7,1.3,1.1,2.6,1.1
			c1.3,0,2.6-0.4,2.6-1.1V78.6c0-2.1,1.7-3.8,3.8-3.8s3.8,1.7,3.8,3.8v11.1c0,0.7,1.3,1.1,2.6,1.1c1.3,0,2.6-0.4,2.6-1.1V78.6
			c0-2.1,1.7-3.8,3.8-3.8s3.8,1.7,3.8,3.8v11.1c0,0.7,1.3,1.1,2.6,1.1c1.3,0,2.6-0.4,2.6-1.1V78.6C227.5,73.6,223.5,69.5,218.5,69.5
			z"/>
		<path d="M170.3,69.7h-17.4c-0.7,0-1.1,1.3-1.1,2.6s0.4,2.6,1.1,2.6h6.1v14.7c0,0.7,1.3,1.1,2.6,1.1c1.3,0,2.6-0.4,2.6-1.1V75h6.1
			c0.7,0,1.1-1.3,1.1-2.6C171.4,71,171,69.7,170.3,69.7z"/>
		<path d="M182.7,69.5c-5.9,0-10.6,4.8-10.6,10.6c0,5.9,4.8,10.6,10.6,10.6c5.9,0,10.6-4.8,10.6-10.6S188.6,69.5,182.7,69.5z
			 M182.7,85.5c-3,0-5.4-2.4-5.4-5.3s2.4-5.3,5.4-5.3c2.9,0,5.4,2.4,5.4,5.3C188.1,83.1,185.7,85.5,182.7,85.5z"/>
	</g>
	<path d="M231.5,49.3H70.9c-9,0-16.5,7.4-16.5,16.5v170.8c0,9,7.4,16.4,16.5,16.4h160.6c9,0,16.4-7.4,16.4-16.4V65.8
		C247.9,56.7,240.5,49.3,231.5,49.3z M207.2,235.6c0,4-3.2,7.2-7.2,7.2l-128.1,0.1c-4,0-7.2-3.2-7.2-7.2V66.8c0-4,3.2-7.2,7.2-7.2
		h158.7c4,0,7.2,3.2,7.2,7.2l0,33.5L207.2,235.6z"/>
</g>
</svg>
