<?xml version="1.0" encoding="utf-8"?>
<!-- Generator: Adobe Illustrator 26.3.1, SVG Export Plug-In . SVG Version: 6.00 Build 0)  -->
<svg version="1.1" id="Layer_1" xmlns="http://www.w3.org/2000/svg" xmlns:xlink="http://www.w3.org/1999/xlink" x="0px" y="0px"
	 viewBox="0 0 302.4 302.4" style="enable-background:new 0 0 302.4 302.4;" xml:space="preserve">
<metadata><?xpacket begin="﻿" id="W5M0MpCehiHzreSzNTczkc9d"?>
<x:xmpmeta xmlns:x="adobe:ns:meta/" x:xmptk="Adobe XMP Core 8.0-c001 1.000000, 0000/00/00-00:00:00        ">
   <rdf:RDF xmlns:rdf="http://www.w3.org/1999/02/22-rdf-syntax-ns#">
      <rdf:Description rdf:about=""
            xmlns:dc="http://purl.org/dc/elements/1.1/"
            xmlns:prism="http://prismstandard.org/namespaces/basic/2.1/"
            xmlns:tiff="http://ns.adobe.com/tiff/1.0/"
            xmlns:bsam="http://www.bsam.blog">
         <dc:modified>2025-09-09T17:16:05.000Z</dc:modified>
         <dc:format>image/svg+xml</dc:format>
         <prism:Date>2025-09-08T19:23:00.000+02:00</prism:Date>
         <tiff:ImageWidth>302</tiff:ImageWidth>
         <tiff:ImageLength>302</tiff:ImageLength>
         <bsam:rightsLimitedUnlimited>unlimited</bsam:rightsLimitedUnlimited>
         <bsam:subDigitalAssetType>
            <rdf:Bag>
               <rdf:li>enterprise:digital-asset-type/image/icon</rdf:li>
            </rdf:Bag>
         </bsam:subDigitalAssetType>
         <bsam:industry>
            <rdf:Bag>
               <rdf:li>enterprise:industry/generic-all-industries</rdf:li>
            </rdf:Bag>
         </bsam:industry>
         <bsam:assetOwner>
            <rdf:Bag>
               <rdf:li>enterprise:business-unit/webfleet</rdf:li>
            </rdf:Bag>
         </bsam:assetOwner>
         <bsam:usageCountry>
            <rdf:Bag>
               <rdf:li>enterprise:region-country/global</rdf:li>
            </rdf:Bag>
         </bsam:usageCountry>
      </rdf:Description>
   </rdf:RDF>
</x:xmpmeta>
                                                                                                    
                                                                                                    
                                                                                                    
                                                                                                    
                                                                                                    
                                                                                                    
                                                                                                    
                                                                                                    
                                                                                                    
                           
<?xpacket end="w"?></metadata>
<g>
	<path d="M140.5,145.7v0.2c0,5.9,4.8,10.7,10.6,10.7c5.6,0,10.3-4.4,10.6-10h0.1l5.1-51.3l0-0.6h-0.1c-0.3-8.4-7.2-15.2-15.7-15.2
		c-8.6,0-15.7,7.1-15.7,15.8c0,1.3,0.1,2.5,0.4,3.6L140.5,145.7z"/>
	<path d="M151.2,199.8c8.7,0,15.7-7.1,15.7-15.7s-7.1-15.7-15.7-15.7s-15.7,7.1-15.7,15.7C135.5,192.8,142.5,199.8,151.2,199.8z"/>
	<path d="M256.2,144.6c-2-19.1-9.1-37.2-20.7-52.6c-3-3.9-4.9-8.7-5.4-13.7L228.6,61c-0.2-2.3-2.1-4-4.4-4h-13.6
		c-2,0-3.6,1.6-3.6,3.5v8.1c0.1,5.7,1.9,11.2,5.4,15.8l16.6,26.5c1.5,2.4,7.8,14.7,8.6,17.5c8.9,28.4-1.3,66-27.7,91.8h-58.6H151
		H92.4c-26.4-25.9-36.6-63.4-27.7-91.8c0.9-2.8,7.1-15.1,8.6-17.5l16.6-26.5c3.4-4.6,5.3-10.1,5.3-15.8v-8.1c0-2-1.6-3.5-3.6-3.5
		H78.2c-2.3,0-4.2,1.8-4.4,4l-1.6,17.3c-0.5,5-2.3,9.7-5.3,13.7c-11.5,15.3-18.7,33.5-20.7,52.6c-0.8,15.1,1.8,30.1,7.2,44l0,0
		l0.3,0.8c0.1,0.3,0.2,0.5,0.3,0.8l21.4,52.3c0.1,0.2,0.1,0.3,0.2,0.5l0.1,0.1h0c0.8,1.5,2.3,2.5,4.1,2.4h13.9c0,0,0.1,0,0.1,0
		c2.5,0,4.5-2.1,4.5-4.6v-8.8h9.8v8c0,3,2.4,5.4,5.3,5.4h10.7c3,0,5.3-2.4,5.3-5.4v-8h10.7v8c0,3,2.4,5.4,5.4,5.4h5.4h0.4h5.4
		c3,0,5.4-2.4,5.4-5.4v-8h10.7v8c0,3,2.4,5.4,5.4,5.4h10.7c3,0,5.4-2.4,5.4-5.4v-8h9.9v8.8c0,2.5,2,4.6,4.5,4.6c0,0,0.1,0,0.1,0
		h13.9c1.8,0,3.3-1,4.1-2.4h0l0.1-0.1c0.1-0.1,0.1-0.3,0.2-0.5l21.4-52.3c0.1-0.3,0.2-0.5,0.3-0.8l0.3-0.8l0,0
		C254.4,174.7,257,159.7,256.2,144.6z"/>
</g>
</svg>
