<?xml version="1.0" encoding="utf-8"?>
<!-- Generator: Adobe Illustrator 26.3.1, SVG Export Plug-In . SVG Version: 6.00 Build 0)  -->
<svg version="1.1" id="Layer_1" xmlns="http://www.w3.org/2000/svg" xmlns:xlink="http://www.w3.org/1999/xlink" x="0px" y="0px"
	 viewBox="0 0 302.4 302.4" style="enable-background:new 0 0 302.4 302.4;" xml:space="preserve">
<metadata><?xpacket begin="﻿" id="W5M0MpCehiHzreSzNTczkc9d"?>
<x:xmpmeta xmlns:x="adobe:ns:meta/" x:xmptk="Adobe XMP Core 8.0-c001 1.000000, 0000/00/00-00:00:00        ">
   <rdf:RDF xmlns:rdf="http://www.w3.org/1999/02/22-rdf-syntax-ns#">
      <rdf:Description rdf:about=""
            xmlns:dc="http://purl.org/dc/elements/1.1/"
            xmlns:prism="http://prismstandard.org/namespaces/basic/2.1/"
            xmlns:tiff="http://ns.adobe.com/tiff/1.0/"
            xmlns:bsam="http://www.bsam.blog">
         <dc:modified>2025-09-09T17:20:54.455Z</dc:modified>
         <dc:format>image/svg+xml</dc:format>
         <prism:Date>2025-09-08T19:23:00.000+02:00</prism:Date>
         <tiff:ImageWidth>302</tiff:ImageWidth>
         <tiff:ImageLength>302</tiff:ImageLength>
         <bsam:rightsLimitedUnlimited>unlimited</bsam:rightsLimitedUnlimited>
         <bsam:subDigitalAssetType>
            <rdf:Bag>
               <rdf:li>enterprise:digital-asset-type/image/icon</rdf:li>
            </rdf:Bag>
         </bsam:subDigitalAssetType>
         <bsam:industry>
            <rdf:Bag>
               <rdf:li>enterprise:industry/generic-all-industries</rdf:li>
            </rdf:Bag>
         </bsam:industry>
         <bsam:assetOwner>
            <rdf:Bag>
               <rdf:li>enterprise:business-unit/webfleet</rdf:li>
            </rdf:Bag>
         </bsam:assetOwner>
         <bsam:usageCountry>
            <rdf:Bag>
               <rdf:li>enterprise:region-country/global</rdf:li>
            </rdf:Bag>
         </bsam:usageCountry>
      </rdf:Description>
   </rdf:RDF>
</x:xmpmeta>
                                                                                                    
                                                                                                    
                                                                                                    
                                                                                                    
                                                                                                    
                                                                                                    
                                                                                                    
                                                                                                    
                                                                                                    
                           
<?xpacket end="w"?></metadata>
<path d="M248.6,234.7v-55.3c0-10.2-8.4-18.6-18.6-18.6v-18.8h0c5.1,0,9.3-4.1,9.3-9.3v-27.8c0-5.1-4.1-9.3-9.3-9.3l0,0V49.2
	c0-5.1-4.2-9.3-9.3-9.3H81.6c-5.1,0-9.3,4.2-9.3,9.3v46.4c-5.1,0-9.3,4.2-9.3,9.3v27.8c0,5.1,4.1,9.3,9.3,9.3v18.8
	c-10.2,0-18.5,8.4-18.5,18.6v55.3h0v18c0,5.4,4.4,9.9,9.9,9.9h26.7c5.4,0,9.9-4.4,9.9-9.9v-8.1c0,0,0-0.1,0-0.1v-9.7h102.1v9.7v8.2
	c0,5.4,4.4,9.9,9.9,9.9h26.7c5.4,0,9.9-4.4,9.9-9.9L248.6,234.7L248.6,234.7z M81.6,202.2c-7.7,0-13.9-6.2-13.9-13.9
	c0-7.7,6.2-13.9,13.9-13.9s13.9,6.2,13.9,13.9C95.5,196,89.3,202.2,81.6,202.2z M192.9,212.3c0,7.2-5.9,13.1-13.1,13.1h-57.2
	c-7.2,0-13.2-5.9-13.2-13.1v-29.4c0-7.2,5.9-13.1,13.2-13.1h57.2c7.2,0,13.1,5.9,13.1,13.1V212.3z M211.5,138.1
	c0,7.2-5.9,13.1-13.1,13.1H104c-7.2,0-13.2-5.9-13.2-13.1v-29.4c0-7.2,5.9-13.2,13.2-13.2h94.3c7.2,0,13.1,5.9,13.1,13.2V138.1z
	 M220.8,202.2c-7.7,0-13.9-6.2-13.9-13.9c0-7.7,6.2-13.9,13.9-13.9c7.7,0,13.9,6.2,13.9,13.9C234.7,196,228.4,202.2,220.8,202.2z"/>
</svg>
