<?xml version="1.0" encoding="utf-8"?>
<!-- Generator: Adobe Illustrator 26.3.1, SVG Export Plug-In . SVG Version: 6.00 Build 0)  -->
<svg version="1.1" id="Layer_1" xmlns="http://www.w3.org/2000/svg" xmlns:xlink="http://www.w3.org/1999/xlink" x="0px" y="0px"
	 viewBox="0 0 302.4 302.4" style="enable-background:new 0 0 302.4 302.4;" xml:space="preserve">
<metadata><?xpacket begin="﻿" id="W5M0MpCehiHzreSzNTczkc9d"?>
<x:xmpmeta xmlns:x="adobe:ns:meta/" x:xmptk="Adobe XMP Core 8.0-c001 1.000000, 0000/00/00-00:00:00        ">
   <rdf:RDF xmlns:rdf="http://www.w3.org/1999/02/22-rdf-syntax-ns#">
      <rdf:Description rdf:about=""
            xmlns:dc="http://purl.org/dc/elements/1.1/"
            xmlns:prism="http://prismstandard.org/namespaces/basic/2.1/"
            xmlns:tiff="http://ns.adobe.com/tiff/1.0/"
            xmlns:bsam="http://www.bsam.blog">
         <dc:modified>2025-09-09T17:26:04.748Z</dc:modified>
         <dc:format>image/svg+xml</dc:format>
         <prism:Date>2025-09-08T19:23:00.000+02:00</prism:Date>
         <tiff:ImageWidth>302</tiff:ImageWidth>
         <tiff:ImageLength>302</tiff:ImageLength>
         <bsam:rightsLimitedUnlimited>unlimited</bsam:rightsLimitedUnlimited>
         <bsam:subDigitalAssetType>
            <rdf:Bag>
               <rdf:li>enterprise:digital-asset-type/image/icon</rdf:li>
            </rdf:Bag>
         </bsam:subDigitalAssetType>
         <bsam:industry>
            <rdf:Bag>
               <rdf:li>enterprise:industry/generic-all-industries</rdf:li>
            </rdf:Bag>
         </bsam:industry>
         <bsam:assetOwner>
            <rdf:Bag>
               <rdf:li>enterprise:business-unit/webfleet</rdf:li>
            </rdf:Bag>
         </bsam:assetOwner>
         <bsam:usageCountry>
            <rdf:Bag>
               <rdf:li>enterprise:region-country/global</rdf:li>
            </rdf:Bag>
         </bsam:usageCountry>
      </rdf:Description>
   </rdf:RDF>
</x:xmpmeta>
                                                                                                    
                                                                                                    
                                                                                                    
                                                                                                    
                                                                                                    
                                                                                                    
                                                                                                    
                                                                                                    
                                                                                                    
                                                                                                    
                                                                                                    
                                                                                                    
                                                                                                    
                                                                                                    
                                                                                                    
                                                                                                    
                                                                                                    
                                                                                                    
                                                                            
<?xpacket end="w"?></metadata>
<path d="M242.9,120.3h-44.3v-6.5c35.6,0,44.3-55.3,44.3-55.3h-44.3V54c0-4-3-7.2-6.8-7.2h-81.5c-3.8,0-6.8,3.2-6.8,7.2v4.4h-44
	c0,0,8.6,55.3,44,55.3v6.5h-44c0,0,8.6,55.3,44,55.3v7.5h-44c0,0,8.6,55.3,44,55.3v10c0,4,3,7.2,6.8,7.2h81.5c3.8,0,6.8-3.2,6.8-7.2
	v-10c35.6,0,44.3-55.3,44.3-55.3h-44.3v-7.5C234.2,175.6,242.9,120.3,242.9,120.3z M151.4,236.5c-12.6,0-22.8-10.2-22.8-22.8
	s10.2-22.7,22.8-22.7s22.8,10.2,22.8,22.7C174.1,226.3,164,236.5,151.4,236.5z M151.5,173.6c-12.6,0-22.8-10.2-22.8-22.8
	s10.2-22.7,22.8-22.7s22.7,10.2,22.7,22.7C174.3,163.4,164.1,173.6,151.5,173.6z M151.7,109.9c-12.6,0-22.8-10.2-22.8-22.8
	s10.2-22.7,22.8-22.7s22.8,10.2,22.8,22.7S164.2,109.9,151.7,109.9z"/>
</svg>
