<?xml version="1.0" encoding="utf-8"?>
<!-- Generator: Adobe Illustrator 26.3.1, SVG Export Plug-In . SVG Version: 6.00 Build 0)  -->
<svg version="1.1" id="Layer_1" xmlns="http://www.w3.org/2000/svg" xmlns:xlink="http://www.w3.org/1999/xlink" x="0px" y="0px"
	 viewBox="0 0 302.4 302.4" style="enable-background:new 0 0 302.4 302.4;" xml:space="preserve">
<metadata><?xpacket begin="﻿" id="W5M0MpCehiHzreSzNTczkc9d"?>
<x:xmpmeta xmlns:x="adobe:ns:meta/" x:xmptk="Adobe XMP Core 8.0-c001 1.000000, 0000/00/00-00:00:00        ">
   <rdf:RDF xmlns:rdf="http://www.w3.org/1999/02/22-rdf-syntax-ns#">
      <rdf:Description rdf:about=""
            xmlns:bsam="http://www.bsam.blog"
            xmlns:tiff="http://ns.adobe.com/tiff/1.0/"
            xmlns:prism="http://prismstandard.org/namespaces/basic/2.1/"
            xmlns:dc="http://purl.org/dc/elements/1.1/">
         <bsam:rightsLimitedUnlimited>unlimited</bsam:rightsLimitedUnlimited>
         <bsam:assetOwner>
            <rdf:Bag>
               <rdf:li>enterprise:business-unit/webfleet</rdf:li>
            </rdf:Bag>
         </bsam:assetOwner>
         <bsam:industry>
            <rdf:Bag>
               <rdf:li>enterprise:industry/generic-all-industries</rdf:li>
            </rdf:Bag>
         </bsam:industry>
         <bsam:subDigitalAssetType>
            <rdf:Bag>
               <rdf:li>enterprise:digital-asset-type/image/icon</rdf:li>
            </rdf:Bag>
         </bsam:subDigitalAssetType>
         <bsam:usageCountry>
            <rdf:Bag>
               <rdf:li>enterprise:region-country/global</rdf:li>
            </rdf:Bag>
         </bsam:usageCountry>
         <tiff:ImageLength>302</tiff:ImageLength>
         <tiff:ImageWidth>302</tiff:ImageWidth>
         <prism:Date>2025-09-08T19:20:00.000+02:00</prism:Date>
         <dc:modified>2025-09-09T17:29:06.149Z</dc:modified>
         <dc:format>image/svg+xml</dc:format>
      </rdf:Description>
   </rdf:RDF>
</x:xmpmeta>
                                                                                                    
                                                                                                    
                                                                                                    
                                                                                                    
                                                                                                    
                                                                                                    
                                                                                                    
                                                                                                    
                                                                                                    
                                                                                                    
                                                                                                    
                                                                                                    
                                                                                                    
                                                                                                    
                                                                                                    
                                                                                                    
                                                                                                    
                                                                                                    
                                                                            
<?xpacket end="w"?></metadata>
<g>
	<path d="M249.5,246L249.5,246c-4.1-17.2-18.3-34.2-38.3-44.2c-16.5,12.4-36.8,19.8-59,19.8s-42.5-7.4-59-19.8
		c-20,10-34.2,27-38.3,44.2l0,0H249.5z"/>
	<g>
		<path d="M152.3,67.7c-35.8,0-64.8,29-64.8,64.9c0,13.8,4.3,26.6,11.7,37.1c0.2,0.2,11.5,4.9,17.5,5.8c2.7,0.4,5.5,0.6,8.2,0.6
			c-0.1-0.6-0.4-1.1-0.4-1.7c0-8.1,6.8-14.8,15.1-14.8h16.9c8.3,0,15.1,6.7,15.1,14.8c0,8.1-6.8,14.8-15.1,14.8h-16.9
			c-5.1,0-9.4-2.6-12.1-6.4c-0.8,0-1.6,0.2-2.4,0.2c-3.2,0-6.3-0.2-9.5-0.7c-2.3-0.4-4.6-0.9-6.8-1.6c21.6,13.2,26.8,16.8,43.5,16.8
			c35.8,0,64.8-29,64.8-64.9C217.1,96.7,188.1,67.7,152.3,67.7z"/>
	</g>
	<path d="M98.8,169.3c-7.8-4-14.9-10.6-20.1-17.4c-1.7-6.3-2.6-12.9-2.6-19.6c0-41.8,33.9-75.7,75.7-75.7s75.6,33.9,75.6,75.7
		c0,9.9-1.9,19.4-5.4,28.1l4-0.1c13.5,0,24.4-10.9,24.4-24.4v-9.5c0-13-10.2-23.6-23-24.3c-11.4-30.1-41-51.6-75.7-51.6
		c-34.9,0-64.6,21.8-75.9,52.2c-11.9,1.7-21.1,11.8-21.1,24.1v9.5c0,12.6,9.5,22.8,21.7,24.2c2.8,3.4,6,6.4,9.5,9c0,0,0-0.1,0-0.1
		c6.1,4.5,15.4,9.2,22.9,11.3c0,0-2.3-1.9-5.2-5.2C100.7,172.1,98.8,169.3,98.8,169.3z"/>
</g>
</svg>
