<?xml version="1.0" encoding="utf-8"?>
<!-- Generator: Adobe Illustrator 26.3.1, SVG Export Plug-In . SVG Version: 6.00 Build 0)  -->
<svg version="1.1" id="Layer_1" xmlns="http://www.w3.org/2000/svg" xmlns:xlink="http://www.w3.org/1999/xlink" x="0px" y="0px"
	 viewBox="0 0 302.4 302.4" style="enable-background:new 0 0 302.4 302.4;" xml:space="preserve">
<metadata><?xpacket begin="﻿" id="W5M0MpCehiHzreSzNTczkc9d"?>
<x:xmpmeta xmlns:x="adobe:ns:meta/" x:xmptk="Adobe XMP Core 8.0-c001 1.000000, 0000/00/00-00:00:00        ">
   <rdf:RDF xmlns:rdf="http://www.w3.org/1999/02/22-rdf-syntax-ns#">
      <rdf:Description rdf:about=""
            xmlns:dc="http://purl.org/dc/elements/1.1/"
            xmlns:prism="http://prismstandard.org/namespaces/basic/2.1/"
            xmlns:tiff="http://ns.adobe.com/tiff/1.0/"
            xmlns:bsam="http://www.bsam.blog">
         <dc:modified>2025-09-09T17:30:05.322Z</dc:modified>
         <dc:format>image/svg+xml</dc:format>
         <prism:Date>2025-09-08T19:23:00.000+02:00</prism:Date>
         <tiff:ImageWidth>302</tiff:ImageWidth>
         <tiff:ImageLength>302</tiff:ImageLength>
         <bsam:rightsLimitedUnlimited>unlimited</bsam:rightsLimitedUnlimited>
         <bsam:subDigitalAssetType>
            <rdf:Bag>
               <rdf:li>enterprise:digital-asset-type/image/icon</rdf:li>
            </rdf:Bag>
         </bsam:subDigitalAssetType>
         <bsam:industry>
            <rdf:Bag>
               <rdf:li>enterprise:industry/generic-all-industries</rdf:li>
            </rdf:Bag>
         </bsam:industry>
         <bsam:assetOwner>
            <rdf:Bag>
               <rdf:li>enterprise:business-unit/webfleet</rdf:li>
            </rdf:Bag>
         </bsam:assetOwner>
         <bsam:usageCountry>
            <rdf:Bag>
               <rdf:li>enterprise:region-country/global</rdf:li>
            </rdf:Bag>
         </bsam:usageCountry>
      </rdf:Description>
   </rdf:RDF>
</x:xmpmeta>
                                                                                                    
                                                                                                    
                                                                                                    
                                                                                                    
                                                                                                    
                                                                                                    
                                                                                                    
                                                                                                    
                                                                                                    
                                                                                                    
                                                                                                    
                                                                                                    
                                                                                                    
                                                                                                    
                                                                                                    
                                                                                                    
                                                                                                    
                                                                                                    
                                                                            
<?xpacket end="w"?></metadata>
<g>
	<path d="M230.2,93.3h-15.2l5.7,7.9l-22.8,63.7c-8.1-6.8-25-8.3-54.7,0.4c-20.3-5.4-41.1-13.6-61.4-7.6c-21,6.2-22,6.4-44.4,14.6
		c-12.8,4.7-7.4,2.7-10.1,13.5c-0.9,3.7-6.9,10.7-10.2,18.3l-1.1,3c-0.3,1.1-0.6,2.2-0.7,3.4l7.5,24.4c4.1,4.3,11.4,6.3,14.2,6.8
		c-1.7-2.2-2.7-4.3-3.5-7.1c-3.6-12.3,3.4-25.1,15.7-28.8s25.2,3.4,28.8,15.7c0.8,2.6,1.1,5.3,0.9,7.9c4.3-1.3,69.8-20.6,75.1-22.1
		c-1.5-2.1-2.8-4.5-3.5-7.1c-3.6-12.3,3.4-25.1,15.7-28.8s25.1,3.4,28.8,15.7c0.8,2.6,1.1,5.3,0.9,7.9c1.6-0.4,2.7-0.8,2.7-0.8
		c6.1-1.8,8.9-6.7,7.1-12.8l-2.8-9.4c-0.2-0.6-0.4-1.2-0.6-1.8l-0.7-1.3l23-62.8l43,59.5l0,0l1.7,2.4h0l2.1,2.8l-48.6-0.1v23.7v10.1
		h0c0,0,0.1,2.8,0.7,8.9c1.2,12.7,7.3,18.4,19.9,18.1c-0.6-2.1-1.4-4.7-1.4-8.7c0.1-7.2,3-13.8,7.8-18.3h-0.2l3.4-2.6
		c4.1-2.9,9.1-4.6,14.6-4.6c8,0,15.1,3.6,19.8,9.4c0.1,0.1,0.2,0.2,0.3,0.2V141L230.2,93.3z M45,190.8c-5.8,1.8-6.7-1.3-4.8-3.9
		c10-12.8,16.9-16.5,28.1-20.1l4.6,15.7C61.5,185.7,48.7,189.7,45,190.8z M80.9,181.3c-0.3,0-2.4-0.2-2.8-0.1c0,0-7-15.1-6.9-15.1
		c4.5-1.5,9.4-2.9,15.7-4.5c12.4-3.2,33.9,0.5,47.9,7.9C106.7,177.7,93.4,183.2,80.9,181.3z"/>
	<path d="M267.2,202.7c-11,0-20,9-20,20s9,20,20,20c11,0,20-9,20-20C287.2,211.7,278.3,202.7,267.2,202.7z"/>
	<path d="M167.4,176.3c-9.6,2.8-15.1,12.9-12.2,22.4c2.8,9.6,12.9,15.1,22.4,12.2c9.6-2.8,15.1-12.9,12.2-22.4
		C187,178.9,176.9,173.5,167.4,176.3z"/>
	<path d="M50.5,210.7c-9.6,2.8-15,12.9-12.2,22.4c2.8,9.6,12.9,15.1,22.5,12.2c9.6-2.8,15.1-12.9,12.2-22.4
		C70.1,213.4,60,207.9,50.5,210.7z"/>
</g>
</svg>
