<?xml version="1.0" encoding="utf-8"?>
<!-- Generator: Adobe Illustrator 26.3.1, SVG Export Plug-In . SVG Version: 6.00 Build 0)  -->
<svg version="1.1" id="Layer_1" xmlns="http://www.w3.org/2000/svg" xmlns:xlink="http://www.w3.org/1999/xlink" x="0px" y="0px"
	 viewBox="0 0 302.4 302.4" style="enable-background:new 0 0 302.4 302.4;" xml:space="preserve">
<metadata><?xpacket begin="﻿" id="W5M0MpCehiHzreSzNTczkc9d"?>
<x:xmpmeta xmlns:x="adobe:ns:meta/" x:xmptk="Adobe XMP Core 8.0-c001 1.000000, 0000/00/00-00:00:00        ">
   <rdf:RDF xmlns:rdf="http://www.w3.org/1999/02/22-rdf-syntax-ns#">
      <rdf:Description rdf:about=""
            xmlns:dc="http://purl.org/dc/elements/1.1/"
            xmlns:prism="http://prismstandard.org/namespaces/basic/2.1/"
            xmlns:tiff="http://ns.adobe.com/tiff/1.0/"
            xmlns:bsam="http://www.bsam.blog">
         <dc:modified>2025-09-09T17:16:17.396Z</dc:modified>
         <dc:format>image/svg+xml</dc:format>
         <prism:Date>2025-09-08T19:23:00.000+02:00</prism:Date>
         <tiff:ImageWidth>302</tiff:ImageWidth>
         <tiff:ImageLength>302</tiff:ImageLength>
         <bsam:rightsLimitedUnlimited>unlimited</bsam:rightsLimitedUnlimited>
         <bsam:subDigitalAssetType>
            <rdf:Bag>
               <rdf:li>enterprise:digital-asset-type/image/icon</rdf:li>
            </rdf:Bag>
         </bsam:subDigitalAssetType>
         <bsam:industry>
            <rdf:Bag>
               <rdf:li>enterprise:industry/generic-all-industries</rdf:li>
            </rdf:Bag>
         </bsam:industry>
         <bsam:assetOwner>
            <rdf:Bag>
               <rdf:li>enterprise:business-unit/webfleet</rdf:li>
            </rdf:Bag>
         </bsam:assetOwner>
         <bsam:usageCountry>
            <rdf:Bag>
               <rdf:li>enterprise:region-country/global</rdf:li>
            </rdf:Bag>
         </bsam:usageCountry>
      </rdf:Description>
   </rdf:RDF>
</x:xmpmeta>
                                                                                                    
                                                                                                    
                                                                                                    
                                                                                                    
                                                                                                    
                                                                                                    
                                                                                                    
                                                                                                    
                                                                                                    
                           
<?xpacket end="w"?></metadata>
<g>
	<g>
		<path d="M118.4,162.1h65.7c6.1,0,10.9-4.9,10.9-10.9V96.3c0-6.1-4.9-10.9-10.9-10.9h-65.7c-6.1,0-10.9,4.9-10.9,10.9v54.8
			C107.4,157.2,112.3,162.1,118.4,162.1z"/>
		<path d="M189.5,190.4H183c-3,0-5.5,2.4-5.5,5.5c0-3-2.4-5.5-5.5-5.5h-6.6c-3,0-5.5,2.4-5.5,5.5v3.3h-17.5v-3.3
			c0-3-2.4-5.5-5.5-5.5h-6.6c-3,0-5.5,2.4-5.5,5.5c0-3-2.4-5.5-5.5-5.5h-6.6c-3,0-5.5,2.4-5.5,5.5v15.4c0,3,2.4,5.5,5.5,5.5h6.6
			c3,0,5.5-2.4,5.5-5.5c0,3,2.4,5.5,5.5,5.5h6.6c3,0,5.5-2.4,5.5-5.5v-3.3H160v3.3c0,3,2.4,5.5,5.5,5.5h6.6c3,0,5.5-2.4,5.5-5.5
			c0,3,2.4,5.5,5.5,5.5h6.6c3,0,5.5-2.4,5.5-5.5v-15.4C195,192.8,192.6,190.4,189.5,190.4z"/>
		<path d="M190.7,173h-78.8c-2.4,0-4.4,2-4.4,4.4s2,4.4,4.4,4.4h78.8c2.4,0,4.4-2,4.4-4.4S193.1,173,190.7,173z"/>
	</g>
	<g>
		<g>
			<path d="M151.2,42.2c-60.1,0-109,48.9-109,109s48.9,109,109,109s109-48.9,109-109S211.3,42.2,151.2,42.2z M151.2,239.2
				c-48.6,0-88.1-39.5-88.1-88.1S102.6,63,151.2,63s88.1,39.5,88.1,88.1S199.8,239.2,151.2,239.2z"/>
		</g>
	</g>
</g>
</svg>
