<?xml version="1.0" encoding="utf-8"?>
<!-- Generator: Adobe Illustrator 26.3.1, SVG Export Plug-In . SVG Version: 6.00 Build 0)  -->
<svg version="1.1" id="Layer_1" xmlns="http://www.w3.org/2000/svg" xmlns:xlink="http://www.w3.org/1999/xlink" x="0px" y="0px"
	 viewBox="0 0 302.4 302.4" style="enable-background:new 0 0 302.4 302.4;" xml:space="preserve">
<metadata><?xpacket begin="﻿" id="W5M0MpCehiHzreSzNTczkc9d"?>
<x:xmpmeta xmlns:x="adobe:ns:meta/" x:xmptk="Adobe XMP Core 8.0-c001 1.000000, 0000/00/00-00:00:00        ">
   <rdf:RDF xmlns:rdf="http://www.w3.org/1999/02/22-rdf-syntax-ns#">
      <rdf:Description rdf:about=""
            xmlns:dc="http://purl.org/dc/elements/1.1/"
            xmlns:prism="http://prismstandard.org/namespaces/basic/2.1/"
            xmlns:tiff="http://ns.adobe.com/tiff/1.0/"
            xmlns:bsam="http://www.bsam.blog">
         <dc:modified>2025-09-09T17:32:05.808Z</dc:modified>
         <dc:format>image/svg+xml</dc:format>
         <prism:Date>2025-09-08T19:20:00.000+02:00</prism:Date>
         <tiff:ImageWidth>302</tiff:ImageWidth>
         <tiff:ImageLength>302</tiff:ImageLength>
         <bsam:rightsLimitedUnlimited>unlimited</bsam:rightsLimitedUnlimited>
         <bsam:subDigitalAssetType>
            <rdf:Bag>
               <rdf:li>enterprise:digital-asset-type/image/icon</rdf:li>
            </rdf:Bag>
         </bsam:subDigitalAssetType>
         <bsam:industry>
            <rdf:Bag>
               <rdf:li>enterprise:industry/generic-all-industries</rdf:li>
            </rdf:Bag>
         </bsam:industry>
         <bsam:assetOwner>
            <rdf:Bag>
               <rdf:li>enterprise:business-unit/webfleet</rdf:li>
            </rdf:Bag>
         </bsam:assetOwner>
         <bsam:usageCountry>
            <rdf:Bag>
               <rdf:li>enterprise:region-country/global</rdf:li>
            </rdf:Bag>
         </bsam:usageCountry>
      </rdf:Description>
   </rdf:RDF>
</x:xmpmeta>
                                                                                                    
                                                                                                    
                                                                                                    
                                                                                                    
                                                                                                    
                                                                                                    
                                                                                                    
                                                                                                    
                                                                                                    
                                                                                                    
                                                                                                    
                                                                                                    
                                                                                                    
                                                                                                    
                                                                                                    
                                                                                                    
                                                                                                    
                                                                                                    
                                                                            
<?xpacket end="w"?></metadata>
<g>
	<path d="M194.4,190.7v-35.4c0-4-2.9-7.3-6.5-7.3c-3.6,0-6.4,3.3-6.4,7.3v35.4c-9.7,2.8-16.8,11.7-16.8,22.3
		c0,12.8,10.4,23.2,23.2,23.2c12.9,0,23.3-10.4,23.3-23.2C211.2,202.5,204.1,193.5,194.4,190.7z"/>
	<path d="M213.5,176.2v-21.9h11.7c1.6,0,3-1.3,3-3c0-1.7-1.3-3-3-3h-11.7v-12.2h11.7c1.6,0,3-1.3,3-3c0-1.6-1.3-3-3-3h-11.7v-12.2
		h11.7c1.6,0,3-1.3,3-3c0-1.7-1.3-3-3-3h-11.7V100h11.7c1.6,0,3-1.3,3-3c0-1.7-1.3-3-3-3h-11.7V74.5c0-10.8-11.9-19.1-22.1-19.1
		h-6.9c-10.2,0-22.1,8.3-22.1,19.1v101.8c-11.4,7.2-17.7,20.2-17.7,36.8c0,23.8,19.4,43.2,43.2,43.2c23.8,0,43.2-19.4,43.2-43.2
		C231.2,196.4,224.9,183.4,213.5,176.2z M188,247.3c-18.9,0-34.3-15.4-34.3-34.3c0-8.3,2-23.3,15.3-30.3l2.4-1.2v-107
		c0-5.2,7.4-10.2,13.1-10.2h6.9c5.8,0,13.1,4.9,13.1,10.2v107l2.4,1.2c13.3,7.1,15.3,22,15.3,30.3
		C222.2,231.9,206.9,247.3,188,247.3z"/>
	<g>
		<path d="M141.9,113.4c-0.4-0.3-0.7-0.8-0.7-1.4c0-0.5,0.3-1,0.7-1.3l9.3-5.2V92.2L138.7,99c-0.3,0.2-0.6,0.3-0.9,0.3
			c-0.3,0-0.5-0.1-0.8-0.2c-0.5-0.2-0.7-0.7-0.8-1.2c0-0.3,0-0.6,0-0.7V76.2c0.4-0.2,0.8-0.4,1.1-0.7l15.2-15.2
			c1.7-1.7,1.7-4.5,0-6.2c-1.7-1.7-4.5-1.7-6.2,0l-10.1,10.1V51.8c0-3.1-2.5-5.7-5.7-5.7c-3.1,0-5.7,2.5-5.7,5.7v12.3l-10.1-10.1
			c-1.7-1.7-4.5-1.7-6.2,0s-1.7,4.5,0,6.2l15.2,15.2c0.3,0.3,0.7,0.5,1.1,0.7v21.6c0,0.6-0.3,1.2-0.9,1.5c-0.2,0.1-0.5,0.2-0.8,0.2
			c-0.3,0-0.7-0.1-0.9-0.3l-18.3-10.1c0-0.3-0.1-0.6-0.2-0.9l-6.4-20.5c-0.7-2.3-3.2-3.7-5.5-2.9c-2.3,0.7-3.6,3.2-2.9,5.5l4,12.8
			l-8.2-4.5c-1-0.7-2.1-1-3.3-1c-1.8,0-3.6,0.9-4.6,2.4c-1.8,2.5-1.2,6.1,1.3,7.9l10.5,5.9l-14.3,4.4c-2.3,0.7-3.6,3.2-2.9,5.5
			c0.7,2.2,2.9,3.5,5.1,3c0.2,0,0.3-0.1,0.4-0.1l20.5-6.4c0.5-0.2,1-0.4,1.4-0.8l20.2,11.4c0.4,0.3,0.7,0.8,0.7,1.3
			c0,0.5-0.2,1-0.7,1.3l-16.2,9.8c-0.4-0.2-0.8-0.4-1.3-0.5l-20.9-4.7c-0.2,0-0.3-0.1-0.4-0.1c-2.2-0.3-4.3,1.2-4.8,3.4
			c-0.5,2.4,0.9,4.7,3.3,5.3l13.5,3l-13.2,8c-2.5,1.9-3,5.4-1.1,7.9c1.1,1.4,2.7,2.3,4.5,2.3c1.2,0,2.4-0.4,3.4-1.1l12.9-7.6
			l-3.2,14.1c-0.5,2.4,0.9,4.7,3.3,5.3c2.3,0.6,4.7-0.9,5.3-3.3l4.7-20.9c0.1-0.4,0.1-0.7,0.1-1.1l13.3-7.8c0.3-0.2,0.6-0.3,1-0.3
			c0.3,0,0.5,0.1,0.8,0.2c0.6,0.3,0.9,0.9,0.9,1.5v21.8c-0.4,0.2-0.8,0.4-1.1,0.7l-15.2,15.2c-1.7,1.7-1.7,4.5,0,6.2
			c0.9,0.9,2,1.3,3.1,1.3c1.1,0,2.2-0.4,3.1-1.3l10.1-10.1v11.6c0,3.1,2.6,5.7,5.7,5.7c3.1,0,5.7-2.5,5.7-5.7v-11.6l10.1,10.1
			c0.9,0.9,2,1.3,3.1,1.3c1.1,0,2.2-0.4,3.1-1.3c1.7-1.7,1.7-4.5,0-6.2l-15.2-15.2c-0.3-0.3-0.7-0.5-1.1-0.7v-22.3
			c0.1-0.5,0.4-0.9,0.8-1.1c0.2-0.1,0.5-0.2,0.7-0.2c0.4,0,0.7,0.1,1,0.3l12.4,7.3V119L141.9,113.4z"/>
	</g>
</g>
</svg>
