<?xml version="1.0" encoding="utf-8"?>
<!-- Generator: Adobe Illustrator 26.3.1, SVG Export Plug-In . SVG Version: 6.00 Build 0)  -->
<svg version="1.1" id="Layer_1" xmlns="http://www.w3.org/2000/svg" xmlns:xlink="http://www.w3.org/1999/xlink" x="0px" y="0px"
	 viewBox="0 0 302.4 302.4" style="enable-background:new 0 0 302.4 302.4;" xml:space="preserve">
<metadata><?xpacket begin="﻿" id="W5M0MpCehiHzreSzNTczkc9d"?>
<x:xmpmeta xmlns:x="adobe:ns:meta/" x:xmptk="Adobe XMP Core 8.0-c001 1.000000, 0000/00/00-00:00:00        ">
   <rdf:RDF xmlns:rdf="http://www.w3.org/1999/02/22-rdf-syntax-ns#">
      <rdf:Description rdf:about=""
            xmlns:dc="http://purl.org/dc/elements/1.1/"
            xmlns:prism="http://prismstandard.org/namespaces/basic/2.1/"
            xmlns:tiff="http://ns.adobe.com/tiff/1.0/"
            xmlns:bsam="http://www.bsam.blog">
         <dc:modified>2025-09-09T17:29:50.977Z</dc:modified>
         <dc:format>image/svg+xml</dc:format>
         <prism:Date>2025-09-08T19:23:00.000+02:00</prism:Date>
         <tiff:ImageWidth>302</tiff:ImageWidth>
         <tiff:ImageLength>302</tiff:ImageLength>
         <bsam:rightsLimitedUnlimited>unlimited</bsam:rightsLimitedUnlimited>
         <bsam:subDigitalAssetType>
            <rdf:Bag>
               <rdf:li>enterprise:digital-asset-type/image/icon</rdf:li>
            </rdf:Bag>
         </bsam:subDigitalAssetType>
         <bsam:industry>
            <rdf:Bag>
               <rdf:li>enterprise:industry/generic-all-industries</rdf:li>
            </rdf:Bag>
         </bsam:industry>
         <bsam:assetOwner>
            <rdf:Bag>
               <rdf:li>enterprise:business-unit/webfleet</rdf:li>
            </rdf:Bag>
         </bsam:assetOwner>
         <bsam:usageCountry>
            <rdf:Bag>
               <rdf:li>enterprise:region-country/global</rdf:li>
            </rdf:Bag>
         </bsam:usageCountry>
      </rdf:Description>
   </rdf:RDF>
</x:xmpmeta>
                                                                                                    
                                                                                                    
                                                                                                    
                                                                                                    
                                                                                                    
                                                                                                    
                                                                                                    
                                                                                                    
                                                                                                    
                                                                                                    
                                                                                                    
                                                                                                    
                                                                                                    
                                                                                                    
                                                                                                    
                                                                                                    
                                                                                                    
                                                                                                    
                                                                            
<?xpacket end="w"?></metadata>
<g>
	<path d="M244.6,79h-42.5c0-4.7-3.8-8.5-8.5-8.5h-25.5c-4.7,0-8.5,3.8-8.5,8.5h-17.2c0-9.3-7.7-17-17-17H74.8v0H58.3c-5,0-9,4.1-9,9
		v24.4c0,5,4.1,9,9,9h7.4c0,0,0.1,0,0.1,0h8.9v93.4h-8.9h-7.5c-5,0-9,4.1-9,9v24.4c0,5,4.1,9,9,9h16.5l0,0h50.6c9.4,0,17-7.6,17-17
		h17.2v0c0,4.7,3.8,8.5,8.5,8.5h25.5c4.7,0,8.5-3.8,8.5-8.5l0,0h42.5c4.7,0,8.5-3.8,8.5-8.5V87.5C253.1,82.8,249.3,79,244.6,79z
		 M117.2,74.8c7,0,12.7,5.7,12.7,12.7s-5.7,12.7-12.7,12.7s-12.7-5.7-12.7-12.7S110.2,74.8,117.2,74.8z M117.2,227.6
		c-7,0-12.7-5.7-12.7-12.7s5.7-12.7,12.7-12.7s12.7,5.7,12.7,12.7S124.2,227.6,117.2,227.6z M134.2,177.4c0,6.6-5.4,12-12,12H95.3
		c-6.6,0-12-5.4-12-12V125c0-6.6,5.4-12,12-12h26.9c6.6,0,12,5.4,12,12V177.4z M202.1,194.4c0,6.6-5.4,12-12,12h-26.9
		c-6.6,0-12-5.4-12-12V108c0-6.6,5.4-12,12-12h26.9c6.6,0,12,5.4,12,12V194.4z"/>
	<path d="M190.5,170.9l-9.3-10.8l1.6,15.4l-13.8-5.2l7,14.6l-11.2-0.1l8.1,8.4l-12.8,7.7h24.7c6.4,0,12.1-4.2,12.1-10.7l-0.5-35.2
		L190.5,170.9z"/>
</g>
</svg>
