<?xml version="1.0" encoding="utf-8"?>
<!-- Generator: Adobe Illustrator 26.3.1, SVG Export Plug-In . SVG Version: 6.00 Build 0)  -->
<svg version="1.1" id="Layer_1" xmlns="http://www.w3.org/2000/svg" xmlns:xlink="http://www.w3.org/1999/xlink" x="0px" y="0px"
	 viewBox="0 0 302.4 302.4" style="enable-background:new 0 0 302.4 302.4;" xml:space="preserve">
<metadata><?xpacket begin="﻿" id="W5M0MpCehiHzreSzNTczkc9d"?>
<x:xmpmeta xmlns:x="adobe:ns:meta/" x:xmptk="Adobe XMP Core 8.0-c001 1.000000, 0000/00/00-00:00:00        ">
   <rdf:RDF xmlns:rdf="http://www.w3.org/1999/02/22-rdf-syntax-ns#">
      <rdf:Description rdf:about=""
            xmlns:bsam="http://www.bsam.blog"
            xmlns:tiff="http://ns.adobe.com/tiff/1.0/"
            xmlns:prism="http://prismstandard.org/namespaces/basic/2.1/"
            xmlns:dc="http://purl.org/dc/elements/1.1/">
         <bsam:rightsLimitedUnlimited>unlimited</bsam:rightsLimitedUnlimited>
         <bsam:assetOwner>
            <rdf:Bag>
               <rdf:li>enterprise:business-unit/webfleet</rdf:li>
            </rdf:Bag>
         </bsam:assetOwner>
         <bsam:industry>
            <rdf:Bag>
               <rdf:li>enterprise:industry/generic-all-industries</rdf:li>
            </rdf:Bag>
         </bsam:industry>
         <bsam:subDigitalAssetType>
            <rdf:Bag>
               <rdf:li>enterprise:digital-asset-type/image/icon</rdf:li>
            </rdf:Bag>
         </bsam:subDigitalAssetType>
         <bsam:usageCountry>
            <rdf:Bag>
               <rdf:li>enterprise:region-country/global</rdf:li>
            </rdf:Bag>
         </bsam:usageCountry>
         <tiff:ImageLength>302</tiff:ImageLength>
         <tiff:ImageWidth>302</tiff:ImageWidth>
         <prism:Date>2025-09-08T19:20:00.000+02:00</prism:Date>
         <dc:modified>2025-09-09T17:30:06.457Z</dc:modified>
         <dc:format>image/svg+xml</dc:format>
      </rdf:Description>
   </rdf:RDF>
</x:xmpmeta>
                                                                                                    
                                                                                                    
                                                                                                    
                                                                                                    
                                                                                                    
                                                                                                    
                                                                                                    
                                                                                                    
                                                                                                    
                                                                                                    
                                                                                                    
                                                                                                    
                                                                                                    
                                                                                                    
                                                                                                    
                                                                                                    
                                                                                                    
                                                                                                    
                                                                            
<?xpacket end="w"?></metadata>
<g>
	<g id="Wereldbol_3_">
		<path d="M204.3,233.2c20.4-13.1,35.6-30.9,42.8-49.9c0.2-0.4,0.6-0.7,1.1-0.5c0.4,0.1,0.7,0.6,0.6,1.1
			c-7.1,25-20.5,44.1-39.8,56.6c-19.4,12.5-42.2,16.8-68,12.9c-0.5-0.1-0.8-0.5-0.7-1c0.1-0.5,0.5-0.8,0.9-0.8
			C161.5,252.9,183.9,246.4,204.3,233.2z"/>
		<path d="M91.3,75.1C69,92.7,54.4,118.5,51.1,145.9c0,0.5-0.5,0.8-0.9,0.8c-0.5,0-0.8-0.4-0.8-0.9C48.8,115.8,62.5,86.9,86,68.4
			c23.5-18.5,54.8-25.2,83.8-17.7c0.5,0.1,0.7,0.6,0.6,1c-0.1,0.5-0.5,0.8-1,0.7C142,49.2,113.5,57.5,91.3,75.1z"/>
	</g>
	<g id="Handjes_1_">
		<path d="M254.2,114.9c-10.1-30-27.3-43.4-30.2-45.7c-1-0.8-6.6-5.3-9.9-6.1c-1.1-0.3-1.6-0.4-2.6-0.4c0.1,0,0.1,0,0.2,0
			c-1.2-0.1-2.1,0-2.8,0.5c-0.6,0.4-0.8,0.8-0.9,1.3c-0.2,1.9,1.4,2.9,4.4,5.8c7.5,7.4,11.6,11.5,14.6,16c1,1.5,1.4,3.4-0.5,4.7
			c-0.8,0.4-1.5,0.4-2.2,0.1c-0.8-0.4-1.7-1.1-3-2.4c-7.2-7-23.9-21.4-34.1-28.2c-4.6-3.1-8.6-3.5-12.4-2.7
			c-0.2,0.1-0.4,0.2-0.7,0.2c0.2-0.1,0.4-0.2,0.6-0.2c-0.7,0.2-2.8,0.8-3.6,2.3c-0.7,1.3-0.1,3,1.1,4c4.4,4,26,22.9,30,27.4
			c3,3.3,3.8,5.8,1.6,7.2c-0.8,0.5-1.9,0.8-4.3-0.5c-0.8-0.4-1.6-1.1-2.6-1.8c-10.7-8.7-34.6-24-40.1-26.8c-6.1-3.1-8.3-4-13.8-1.1
			c-0.2,0.1-0.4,0.2-0.6,0.4c0,0,0,0,0,0c0,0,0,0,0,0c-0.4,0.2-0.7,0.5-1,0.7c-0.1,0.1-0.3,0.2-0.4,0.3c-0.1,0.1-0.1,0.1-0.2,0.2
			s-0.1,0.1-0.2,0.2c-1.1,1.1-1.9,2.3-2,3.5c-0.2,2.1,0.8,3.7,3.1,5.3c14.5,10.2,30.7,19.9,46.3,32.1c1.8,1.4,3.1,2.8,2.9,4.3
			c-0.1,1-0.7,2-1.4,2.4c-0.5,0.3-0.9,0.4-1.3,0.4c-0.1,0-0.1,0-0.2,0c-0.1,0-0.3,0-0.4,0c-0.2,0-0.3,0-0.5-0.1
			c-1.7-0.3-3.7-1.4-5.6-2.5c-10.1-6-27.6-15.1-36.9-18.7c-6.4-2.4-10.3,0.1-12.8,3.3c-1.9,2.6-2.4,5.7-1.9,7.6c0.6,2.5,3.1,4,4.7,5
			c13,7.6,23.1,12,35.9,20c4.1,2.5,4.7,2.8,8.7,5.4c4.5,3,11.5,7.4,13.2,13.1c0.3,1.2,0.4,1.9,0.3,3.5c-0.1,0.6-0.4,4.3-4.2,6.9
			c-6.7,4.5-17.9,3-27.7,2.3c-0.9-0.1-3.3-0.3-7-0.4c-4-0.1-7.8,0.5-10,3.7c-1.4,2.1-1.7,5.9-1.5,8.5c0.1,1.3,0.4,2.3,0.8,3.1
			c0,0,0,0,0,0c0.1,0.3,0.3,0.5,0.4,0.7c0.1,0.1,0.2,0.3,0.3,0.4c0.1,0.1,0.1,0.1,0.1,0.1l0,0c0,0,0,0,0,0c0,0,0,0,0,0
			c2.3,2.9,6.8,3.9,11.9,4.4c9.1,0.5,18.7,0.7,29.8,0.9c26,0.5,55.5-1.1,67-16.9C260.8,157.6,260.2,132.4,254.2,114.9z"/>
		<path d="M184.4,203c0-0.3-0.1-0.5-0.1-0.8c0,0,0,0,0-0.1c-0.3-1.3-0.9-2.3-1.5-3.1c-1.2-1.6-1.7-2.1-2.9-3.1
			c-1.9-1.6-7.7-4-14,1.4c0,0-0.5,0.4-0.5,0.4c-6.5,5.9-18.5,17-27.5,14.9c-6.2-1.5-8.1-6.6-7.5-14.6c0-0.2,0-0.4,0.1-0.6
			c0-0.1,0-0.2,0-0.2c0.1-0.9,0.2-1.9,0.3-2.8c0.2-1.2,0.4-2.4,0.6-3.5c0.9-4.6,8.4-37.5,12.3-54.4c0.6-2.4,1.1-5.5,0.8-7.9
			c-0.5-3.6-3.4-4.8-7.3-5.8c-4.7-1-10.9,0.8-12.6,6.1c-1.9,6.2-3.9,14.7-9,40.2c-0.3,1.2-0.6,2.6-1,3.9c-0.1,0.3-0.2,0.5-0.3,0.8
			c0,0,0,0.1-0.1,0.1c-0.9,2.2-2.2,3.3-4.8,2.8c-2.7-0.8-2.9-4.1-3-6.7l0-0.6l-0.2-6.3c-0.5-9.6-0.5-19.7,0-30.9l0.3-6.6l0.5-10.9
			c0.2-3.5-0.3-4.7-1.6-5.8c-0.6-0.5-2.8-1.7-6.5-1.2c-0.3,0-0.7,0.1-1.1,0.2c-0.1,0-0.1,0-0.2,0c0,0,0,0,0,0s0,0,0,0
			c-2.3,0.4-4.6,1.4-6.2,3.2c-1.5,1.8-2.1,4-2.3,6.2c-0.5,5.5-0.9,11.1-1.2,16.6c-0.5,11.1-0.6,22.2-0.2,33.3c0,0.8,0.1,1.6,0.1,2.2
			c0,0.2,0,0.3,0,0.5c0,0.4,0,0.7,0,1.1c0,0.4-0.1,0.8-0.1,1.1c0,0,0,0.1,0,0.1c-0.3,2.5-1.3,4.1-3.7,4.1c-2.6,0.1-3.4-2.4-4-4.7
			l-0.4-1.6c-1.3-6.5-2.4-13-3.3-19.4c0,0-0.6-3.9-0.6-3.9c-1.1-6.6-1.8-10.9-2.5-16.8c-0.4-2.7-1.1-3.7-2.3-4.3
			c-1.4-0.6-4.2,0.4-5.2,1.1h0l0,0c-0.1,0.1-0.2,0.1-0.2,0.1c-3.6,2.3-5.3,5.6-5.2,9.8c0.1,5,0.5,10.9,1.1,15.9
			c1.3,11.5,2.7,19.1,4.7,28.3c0.1,0.3,0.1,0.6,0.2,0.9c-0.1-0.4-0.1-0.7-0.2-1.1c0.6,3,0.5,4.8-0.8,5.7c-0.9,0.5-1.6,0.4-2.1,0.2
			c-1.6-0.6-3.3-3.9-4-5.3l-0.2-0.4c-2.9-6.9-5.2-14.6-7.3-22.2l-0.2-0.5c-0.3-1-0.7-1.9-2.1-2.2c-1.8-0.3-3.6,1.4-4.6,2.8
			c-2.6,3.2-0.5,11.2,0.4,15.7c4.5,23,22.9,58.9,56.9,72.5c26.2,10.5,42.5-2.9,75.5-31.8c2.7-2.4,5.7-6.2,6.5-9.9
			c0,0.2-0.1,0.3-0.1,0.5c0.1-0.3,0.1-0.6,0.2-0.9c0,0,0,0,0,0c0.1-0.3,0.1-0.6,0.1-0.8c0-0.1,0-0.2,0-0.3c0-0.2,0-0.4,0-0.6
			C184.4,203.3,184.4,203.1,184.4,203z"/>
	</g>
</g>
</svg>
