<?xml version="1.0" encoding="utf-8"?>
<!-- Generator: Adobe Illustrator 26.3.1, SVG Export Plug-In . SVG Version: 6.00 Build 0)  -->
<svg version="1.1" id="Layer_1" xmlns="http://www.w3.org/2000/svg" xmlns:xlink="http://www.w3.org/1999/xlink" x="0px" y="0px"
	 viewBox="0 0 302.4 302.4" style="enable-background:new 0 0 302.4 302.4;" xml:space="preserve">
<metadata><?xpacket begin="﻿" id="W5M0MpCehiHzreSzNTczkc9d"?>
<x:xmpmeta xmlns:x="adobe:ns:meta/" x:xmptk="Adobe XMP Core 8.0-c001 1.000000, 0000/00/00-00:00:00        ">
   <rdf:RDF xmlns:rdf="http://www.w3.org/1999/02/22-rdf-syntax-ns#">
      <rdf:Description rdf:about=""
            xmlns:dc="http://purl.org/dc/elements/1.1/"
            xmlns:prism="http://prismstandard.org/namespaces/basic/2.1/"
            xmlns:tiff="http://ns.adobe.com/tiff/1.0/"
            xmlns:bsam="http://www.bsam.blog">
         <dc:modified>2025-09-09T17:31:35.690Z</dc:modified>
         <dc:format>image/svg+xml</dc:format>
         <prism:Date>2025-09-08T19:23:00.000+02:00</prism:Date>
         <tiff:ImageWidth>302</tiff:ImageWidth>
         <tiff:ImageLength>302</tiff:ImageLength>
         <bsam:rightsLimitedUnlimited>unlimited</bsam:rightsLimitedUnlimited>
         <bsam:subDigitalAssetType>
            <rdf:Bag>
               <rdf:li>enterprise:digital-asset-type/image/icon</rdf:li>
            </rdf:Bag>
         </bsam:subDigitalAssetType>
         <bsam:industry>
            <rdf:Bag>
               <rdf:li>enterprise:industry/generic-all-industries</rdf:li>
            </rdf:Bag>
         </bsam:industry>
         <bsam:assetOwner>
            <rdf:Bag>
               <rdf:li>enterprise:business-unit/webfleet</rdf:li>
            </rdf:Bag>
         </bsam:assetOwner>
         <bsam:usageCountry>
            <rdf:Bag>
               <rdf:li>enterprise:region-country/global</rdf:li>
            </rdf:Bag>
         </bsam:usageCountry>
      </rdf:Description>
   </rdf:RDF>
</x:xmpmeta>
                                                                                                    
                                                                                                    
                                                                                                    
                                                                                                    
                                                                                                    
                                                                                                    
                                                                                                    
                                                                                                    
                                                                                                    
                                                                                                    
                                                                                                    
                                                                                                    
                                                                                                    
                                                                                                    
                                                                                                    
                                                                                                    
                                                                                                    
                                                                                                    
                                                                            
<?xpacket end="w"?></metadata>
<style type="text/css">
	.st0{fill-rule:evenodd;clip-rule:evenodd;}
</style>
<g>
	<path class="st0" d="M93.4,132.6c-23.1,0-41.8,18.7-41.8,41.8c0,23.1,18.7,41.8,41.8,41.8c23.1,0,41.8-18.7,41.8-41.8
		C135.2,151.3,116.5,132.6,93.4,132.6z"/>
	<path class="st0" d="M238.8,172.6c-12,0-21.8,9.8-21.8,21.8c0,12,9.8,21.8,21.8,21.8c12,0,21.8-9.8,21.8-21.8
		C260.5,182.4,250.8,172.6,238.8,172.6z"/>
	<path class="st0" d="M238.3,165.7c3.6,0,7.1,0.7,10.3,2v-32.1c0-4.8-3.9-8.7-8.7-8.7h-38.1V92.2c0-1.6-1.3-2.9-2.9-2.9h-4.9
		c-1.6,0-2.9,1.3-2.9,2.9v34.6h-26.5c-4.9-21.9-10.4-45.9-11.1-49.1c-1.4-5.9-5.2-11.6-11.6-11.6H89.6c-6.4,0-11.6,5.2-11.6,11.6
		v39.3c-8.2,2.2-15.6,6.1-22,11.2l8.4,6.5c8.1-6,18.2-9.5,29-9.5c27.1,0,49.1,22,49.1,49.1c0,6.8-1.4,13.3-3.9,19.2l71.9,0.1
		c0-0.1,0-0.1,0-0.2C210.5,178.2,222.9,165.7,238.3,165.7z M128.9,126.9c-9.9-7.4-22.2-11.8-35.5-11.8c-1.8,0-3.5,0.1-5.3,0.2V84.1
		c0-5.2,3.9-9.4,8.7-9.4h38.9c4.8,0,7.6,4.6,8.6,9.4c0.6,3,5.5,25.9,9,42.8L128.9,126.9L128.9,126.9z"/>
</g>
</svg>
