<?xml version="1.0" encoding="utf-8"?>
<!-- Generator: Adobe Illustrator 26.3.1, SVG Export Plug-In . SVG Version: 6.00 Build 0)  -->
<svg version="1.1" id="Layer_1" xmlns="http://www.w3.org/2000/svg" xmlns:xlink="http://www.w3.org/1999/xlink" x="0px" y="0px"
	 viewBox="0 0 302.4 302.4" style="enable-background:new 0 0 302.4 302.4;" xml:space="preserve">
<metadata><?xpacket begin="﻿" id="W5M0MpCehiHzreSzNTczkc9d"?>
<x:xmpmeta xmlns:x="adobe:ns:meta/" x:xmptk="Adobe XMP Core 8.0-c001 1.000000, 0000/00/00-00:00:00        ">
   <rdf:RDF xmlns:rdf="http://www.w3.org/1999/02/22-rdf-syntax-ns#">
      <rdf:Description rdf:about=""
            xmlns:dc="http://purl.org/dc/elements/1.1/"
            xmlns:prism="http://prismstandard.org/namespaces/basic/2.1/"
            xmlns:tiff="http://ns.adobe.com/tiff/1.0/"
            xmlns:bsam="http://www.bsam.blog">
         <dc:modified>2025-09-09T17:10:46.098Z</dc:modified>
         <dc:format>image/svg+xml</dc:format>
         <prism:Date>2025-09-08T19:23:00.000+02:00</prism:Date>
         <tiff:ImageWidth>302</tiff:ImageWidth>
         <tiff:ImageLength>302</tiff:ImageLength>
         <bsam:rightsLimitedUnlimited>unlimited</bsam:rightsLimitedUnlimited>
         <bsam:subDigitalAssetType>
            <rdf:Bag>
               <rdf:li>enterprise:digital-asset-type/image/icon</rdf:li>
            </rdf:Bag>
         </bsam:subDigitalAssetType>
         <bsam:industry>
            <rdf:Bag>
               <rdf:li>enterprise:industry/generic-all-industries</rdf:li>
            </rdf:Bag>
         </bsam:industry>
         <bsam:assetOwner>
            <rdf:Bag>
               <rdf:li>enterprise:business-unit/webfleet</rdf:li>
            </rdf:Bag>
         </bsam:assetOwner>
         <bsam:usageCountry>
            <rdf:Bag>
               <rdf:li>enterprise:region-country/global</rdf:li>
            </rdf:Bag>
         </bsam:usageCountry>
      </rdf:Description>
   </rdf:RDF>
</x:xmpmeta>
                                                                                                    
                                                                                                    
                                                                                                    
                                                                                                    
                                                                                                    
                                                                                                    
                                                                                                    
                                                                                                    
                                                                                                    
                           
<?xpacket end="w"?></metadata>
<g>
	<path d="M196.1,150.9c-0.9,7.3-3.6,14.3-7.9,20.3l15.1,23c12.6-13.2,19.5-30.7,19.4-48.9c-0.2-3.1-0.5-6.1-1-9.3l-25.7,9.9
		C196.2,147.6,196.2,149.2,196.1,150.9z"/>
	<path d="M187,118.8l26.6-7.2c-10.1-19.1-28.4-32.5-49.6-36.4l1.4,27.8C174.1,105.8,181.7,111.4,187,118.8z"/>
	<path d="M123.4,155.3C123.4,155.3,123.4,155.4,123.4,155.3c5.6,15.4,22.5,23.3,37.9,17.7c15.3-5.6,23.2-22.5,17.7-37.9
		c-5.6-15.3-22.5-23.2-37.8-17.7v0.1c-0.1,0.1-0.3,0.1-0.4,0.2C125.5,123.4,117.8,140.2,123.4,155.3z M144.1,126.2
		c10.5-3.8,22.1,1.6,25.9,12.1c3.8,10.5-1.6,22.1-12.1,25.9s-22.1-1.6-25.9-12.1v0.1C128.1,141.7,133.5,130,144.1,126.2z"/>
	<path d="M181.8,209.9l-17.2-21.6c-6.1,2-12.5,2.6-18.8,1.7c-2.7-0.3-5.3-0.9-7.9-1.7l-17.2,21.6c9.6,4.6,20.1,7,30.7,7
		C161.8,216.7,172.2,214.4,181.8,209.9z"/>
	<path d="M138.1,75.1c-21.2,4-39.4,17.3-49.6,36.3l26.3,7.1c5.7-7.2,13.3-12.7,22-15.6L138.1,75.1z"/>
	<path d="M80.4,136c-0.5,3.1-0.7,6.2-0.7,9.3c0,18.3,7.1,35.9,19.7,49.1l15.1-23c-5.3-7.4-8.2-16.2-8.3-25.4L80.4,136z"/>
	<path d="M220.2,233.4c26.1-20.5,42.9-52.3,42.9-88c0-0.1,0-0.2,0-0.4c-0.1-61.7-50.2-111.7-112-111.6c-61.8,0-112,50.1-112,112
		c0,46.8,28.8,86.9,69.5,103.6H39.7V269h223V249h-31.5c-8.6,0-16.4-0.5-16.9-6.8C214.1,238.6,219.6,234.1,220.2,233.4z M67.4,145.4
		c0-46.3,37.5-83.8,83.8-83.8S235,99.1,235,145.4c0,46.3-37.5,83.8-83.8,83.8S67.4,191.6,67.4,145.4z"/>
</g>
</svg>
