<?xml version="1.0" encoding="utf-8"?>
<!-- Generator: Adobe Illustrator 26.3.1, SVG Export Plug-In . SVG Version: 6.00 Build 0)  -->
<svg version="1.1" id="Layer_1" xmlns="http://www.w3.org/2000/svg" xmlns:xlink="http://www.w3.org/1999/xlink" x="0px" y="0px"
	 viewBox="0 0 302.4 302.4" style="enable-background:new 0 0 302.4 302.4;" xml:space="preserve">
<metadata><?xpacket begin="﻿" id="W5M0MpCehiHzreSzNTczkc9d"?>
<x:xmpmeta xmlns:x="adobe:ns:meta/" x:xmptk="Adobe XMP Core 8.0-c001 1.000000, 0000/00/00-00:00:00        ">
   <rdf:RDF xmlns:rdf="http://www.w3.org/1999/02/22-rdf-syntax-ns#">
      <rdf:Description rdf:about=""
            xmlns:dc="http://purl.org/dc/elements/1.1/"
            xmlns:prism="http://prismstandard.org/namespaces/basic/2.1/"
            xmlns:tiff="http://ns.adobe.com/tiff/1.0/"
            xmlns:bsam="http://www.bsam.blog">
         <dc:modified>2025-09-09T17:13:19.763Z</dc:modified>
         <dc:format>image/svg+xml</dc:format>
         <prism:Date>2025-09-08T19:20:00.000+02:00</prism:Date>
         <tiff:ImageWidth>302</tiff:ImageWidth>
         <tiff:ImageLength>302</tiff:ImageLength>
         <bsam:rightsLimitedUnlimited>unlimited</bsam:rightsLimitedUnlimited>
         <bsam:subDigitalAssetType>
            <rdf:Bag>
               <rdf:li>enterprise:digital-asset-type/image/icon</rdf:li>
            </rdf:Bag>
         </bsam:subDigitalAssetType>
         <bsam:industry>
            <rdf:Bag>
               <rdf:li>enterprise:industry/generic-all-industries</rdf:li>
            </rdf:Bag>
         </bsam:industry>
         <bsam:assetOwner>
            <rdf:Bag>
               <rdf:li>enterprise:business-unit/webfleet</rdf:li>
            </rdf:Bag>
         </bsam:assetOwner>
         <bsam:usageCountry>
            <rdf:Bag>
               <rdf:li>enterprise:region-country/global</rdf:li>
            </rdf:Bag>
         </bsam:usageCountry>
      </rdf:Description>
   </rdf:RDF>
</x:xmpmeta>
                                                                                                    
                                                                                                    
                                                                                                    
                                                                                                    
                                                                                                    
                                                                                                    
                                                                                                    
                                                                                                    
                                                                                                    
                           
<?xpacket end="w"?></metadata>
<style type="text/css">
	.st0{stroke:#4C575D;stroke-miterlimit:10;}
</style>
<path class="st0" d="M262.8,87.4h-209c-6.9,0-12.5,6.2-12.5,13.9v99.1c0,7.6,5.6,13.9,12.5,13.9h209c6.9,0,12.5-6.2,12.5-13.9v-99.1
	C275.3,93.6,269.7,87.4,262.8,87.4z M58.4,112.8c0-3.9,2.8-7.1,6.3-7.1h114.7c3.5,0,6.4,3.2,6.4,7.1v46.9c0,3.9-2.9,7.1-6.4,7.1
	H64.7c-3.5,0-6.3-3.2-6.3-7.1L58.4,112.8L58.4,112.8z M84.9,201.1c0,0.8-0.6,1.5-1.3,1.5H59.4c-0.7,0-1.3-0.7-1.3-1.5v-9.9
	c0-0.8,0.6-1.5,1.3-1.5h24.1c0.7,0,1.3,0.7,1.3,1.5C84.9,191.2,84.9,201.1,84.9,201.1z M115.6,201.1c0,0.8-0.6,1.5-1.3,1.5H90.1
	c-0.7,0-1.3-0.7-1.3-1.5v-9.9c0-0.8,0.6-1.5,1.3-1.5h24.1c0.7,0,1.3,0.7,1.3,1.5C115.6,191.2,115.6,201.1,115.6,201.1z M155.2,201.1
	c0,0.8-0.6,1.5-1.3,1.5h-24.1c-0.7,0-1.3-0.7-1.3-1.5v-9.9c0-0.8,0.6-1.5,1.3-1.5h24.1c0.7,0,1.3,0.7,1.3,1.5V201.1z M185.9,201.1
	c0,0.8-0.6,1.5-1.3,1.5h-24.1c-0.7,0-1.3-0.7-1.3-1.5v-9.9c0-0.8,0.6-1.5,1.3-1.5h24.1c0.7,0,1.3,0.7,1.3,1.5V201.1z M231.3,163.2
	c-15.1,0-27.3-12.5-27.3-28s12.2-28,27.3-28s27.3,12.5,27.3,28S246.4,163.2,231.3,163.2z"/>
</svg>
