<?xml version="1.0" encoding="utf-8"?>
<!-- Generator: Adobe Illustrator 26.3.1, SVG Export Plug-In . SVG Version: 6.00 Build 0)  -->
<svg version="1.1" id="Layer_1" xmlns="http://www.w3.org/2000/svg" xmlns:xlink="http://www.w3.org/1999/xlink" x="0px" y="0px"
	 viewBox="0 0 302.4 302.4" style="enable-background:new 0 0 302.4 302.4;" xml:space="preserve">
<metadata><?xpacket begin="﻿" id="W5M0MpCehiHzreSzNTczkc9d"?>
<x:xmpmeta xmlns:x="adobe:ns:meta/" x:xmptk="Adobe XMP Core 8.0-c001 1.000000, 0000/00/00-00:00:00        ">
   <rdf:RDF xmlns:rdf="http://www.w3.org/1999/02/22-rdf-syntax-ns#">
      <rdf:Description rdf:about=""
            xmlns:dc="http://purl.org/dc/elements/1.1/"
            xmlns:prism="http://prismstandard.org/namespaces/basic/2.1/"
            xmlns:tiff="http://ns.adobe.com/tiff/1.0/"
            xmlns:bsam="http://www.bsam.blog">
         <dc:modified>2025-09-09T17:20:27.188Z</dc:modified>
         <dc:format>image/svg+xml</dc:format>
         <prism:Date>2025-09-08T19:23:00.000+02:00</prism:Date>
         <tiff:ImageWidth>302</tiff:ImageWidth>
         <tiff:ImageLength>302</tiff:ImageLength>
         <bsam:rightsLimitedUnlimited>unlimited</bsam:rightsLimitedUnlimited>
         <bsam:subDigitalAssetType>
            <rdf:Bag>
               <rdf:li>enterprise:digital-asset-type/image/icon</rdf:li>
            </rdf:Bag>
         </bsam:subDigitalAssetType>
         <bsam:industry>
            <rdf:Bag>
               <rdf:li>enterprise:industry/generic-all-industries</rdf:li>
            </rdf:Bag>
         </bsam:industry>
         <bsam:assetOwner>
            <rdf:Bag>
               <rdf:li>enterprise:business-unit/webfleet</rdf:li>
            </rdf:Bag>
         </bsam:assetOwner>
         <bsam:usageCountry>
            <rdf:Bag>
               <rdf:li>enterprise:region-country/global</rdf:li>
            </rdf:Bag>
         </bsam:usageCountry>
      </rdf:Description>
   </rdf:RDF>
</x:xmpmeta>
                                                                                                    
                                                                                                    
                                                                                                    
                                                                                                    
                                                                                                    
                                                                                                    
                                                                                                    
                                                                                                    
                                                                                                    
                           
<?xpacket end="w"?></metadata>
<g>
	<path d="M262.4,168.3c-6.5,0-11.8,5.3-11.8,11.8s5.3,11.8,11.8,11.8s11.8-5.3,11.8-11.8C274.2,173.6,268.9,168.3,262.4,168.3z"/>
	<path d="M187.3,168.3c-6.5,0-11.8,5.3-11.8,11.8s5.3,11.8,11.8,11.8s11.8-5.3,11.8-11.8C199.2,173.6,193.9,168.3,187.3,168.3z"/>
	<path d="M283.3,157.5c-0.4,0-0.8-0.4-0.8-0.8c0-0.4,0.4-0.8,0.8-0.8h4.8c0-4.7,0.1-10.9-0.7-13.2c-2.5-7.8-5-16-7.8-20.6
		c-2.5-4.1-7.4-4.4-24.4-4.3h-15.9l0.1,51.5h-41.5c4,3.5,5,7.8,4.5,12.2c-0.2,2.3,1,3.7,2.4,3.7h43.4l-0.4-1.4
		c-0.3-1.2-0.5-2.4-0.5-3.7c0-8.4,6.8-15.2,15.2-15.2c8.4,0,15.2,6.8,15.2,15.2c0,1.3-0.2,2.5-0.5,3.7l-0.3,1.3h4.9
		c4,0,6.9-4.6,6.9-8.6v-19.1h-5.4V157.5z M257.5,143.7c-1.1,0-2-0.8-2-1.9v-16.6c0-1,0.9-1.9,2-1.9l17.1,0.3c1.9,0,3,1.4,3.7,2.8
		c0.6,1.2,2.3,5.9,3.4,9.1c1,2.9,2.2,7.4,2.2,8.9c0,0.9-0.9,1.9-2,1.9L257.5,143.7z"/>
	<path d="M176.8,169.3h-7.6c0,0-1.9,1.5-1.9,5.3c0,7.6,0,10.7,5.7,10.7c-0.3-1.2-0.8-2.8-0.8-5.1C172.2,175.9,174,172,176.8,169.3z"
		/>
	<path d="M146.3,169.3L146.3,169.3h-38.7c2.4,2.1,3.7,4.4,4.3,6.9c0,0,20.3,0.1,20.4,0v-3.3h29.9h2.3c0,0,0-2.1,1.4-3.6h-3.7
		L146.3,169.3L146.3,169.3z"/>
	<path d="M28.1,169.3H16.4v4.5c0,1.3,1.1,2.3,2.3,2.3h5.1C24.4,173.7,25.7,171.4,28.1,169.3z"/>
	<path d="M67.8,168.1c-6.6,0-11.9,5.3-11.9,11.9c0,6.6,5.3,11.9,11.9,11.9s11.9-5.3,11.9-11.9C79.7,173.5,74.4,168.1,67.8,168.1z"/>
	<path d="M225.1,114.5c-0.1-3.7-1.4-5-5.1-5h-2.9h-40H42.9H13.8V165h211.3V114.5z"/>
	<path d="M38.5,168.1c-6.6,0-11.9,5.3-11.9,11.9c0,6.6,5.3,11.9,11.9,11.9s11.9-5.3,11.9-11.9C50.4,173.5,45.1,168.1,38.5,168.1z"/>
	<path d="M56.8,169.3h-3.7h-3.7c1.9,1.6,3,3.3,3.7,5.1C53.8,172.6,55,170.9,56.8,169.3z"/>
	<path d="M97.2,168.1c-6.6,0-11.9,5.3-11.9,11.9c0,6.6,5.3,11.9,11.9,11.9s11.9-5.3,11.9-11.9C109.1,173.5,103.7,168.1,97.2,168.1z"
		/>
	<path d="M86.2,169.3h-3.7h-3.7c1.9,1.6,3,3.3,3.7,5.1C83.2,172.6,84.4,170.9,86.2,169.3z"/>
</g>
</svg>
