<?xml version="1.0" encoding="utf-8"?>
<!-- Generator: Adobe Illustrator 26.3.1, SVG Export Plug-In . SVG Version: 6.00 Build 0)  -->
<svg version="1.1" id="Layer_1" xmlns="http://www.w3.org/2000/svg" xmlns:xlink="http://www.w3.org/1999/xlink" x="0px" y="0px"
	 viewBox="0 0 302.4 302.4" style="enable-background:new 0 0 302.4 302.4;" xml:space="preserve">
<metadata><?xpacket begin="﻿" id="W5M0MpCehiHzreSzNTczkc9d"?>
<x:xmpmeta xmlns:x="adobe:ns:meta/" x:xmptk="Adobe XMP Core 8.0-c001 1.000000, 0000/00/00-00:00:00        ">
   <rdf:RDF xmlns:rdf="http://www.w3.org/1999/02/22-rdf-syntax-ns#">
      <rdf:Description rdf:about=""
            xmlns:dc="http://purl.org/dc/elements/1.1/"
            xmlns:prism="http://prismstandard.org/namespaces/basic/2.1/"
            xmlns:tiff="http://ns.adobe.com/tiff/1.0/"
            xmlns:bsam="http://www.bsam.blog">
         <dc:modified>2025-09-09T17:17:17.614Z</dc:modified>
         <dc:format>image/svg+xml</dc:format>
         <prism:Date>2025-09-08T19:20:00.000+02:00</prism:Date>
         <tiff:ImageWidth>302</tiff:ImageWidth>
         <tiff:ImageLength>302</tiff:ImageLength>
         <bsam:rightsLimitedUnlimited>unlimited</bsam:rightsLimitedUnlimited>
         <bsam:subDigitalAssetType>
            <rdf:Bag>
               <rdf:li>enterprise:digital-asset-type/image/icon</rdf:li>
            </rdf:Bag>
         </bsam:subDigitalAssetType>
         <bsam:industry>
            <rdf:Bag>
               <rdf:li>enterprise:industry/generic-all-industries</rdf:li>
            </rdf:Bag>
         </bsam:industry>
         <bsam:assetOwner>
            <rdf:Bag>
               <rdf:li>enterprise:business-unit/webfleet</rdf:li>
            </rdf:Bag>
         </bsam:assetOwner>
         <bsam:usageCountry>
            <rdf:Bag>
               <rdf:li>enterprise:region-country/global</rdf:li>
            </rdf:Bag>
         </bsam:usageCountry>
      </rdf:Description>
   </rdf:RDF>
</x:xmpmeta>
                                                                                                    
                                                                                                    
                                                                                                    
                                                                                                    
                                                                                                    
                                                                                                    
                                                                                                    
                                                                                                    
                                                                                                    
                           
<?xpacket end="w"?></metadata>
<g>
	<g>
		<g>
			<g>
				<path d="M193.1,244.7h-44.7l7.2-11.6h36.8c1.7,0,3-1.4,3-3V116.5c0-1.7-1.4-3-3-3H78.6c-1.7,0-3,1.4-3,3v113.6c0,1.7,1.4,3,3,3
					h36.3l7.2,11.6H78c-7.7,0-13.9-6.3-13.9-13.9v-115c0-7.7,6.3-13.9,13.9-13.9h115.2c7.7,0,13.9,6.3,13.9,13.9v115
					C207.1,238.5,200.8,244.7,193.1,244.7z"/>
			</g>
		</g>
		<g>
			<polygon points="150.2,186.7 150.2,148.9 120.9,148.9 120.9,186.7 90.6,176.5 135.6,249.1 180.5,176.5 			"/>
		</g>
	</g>
	<g>
		<g>
			<g>
				<path d="M182.5,74.2L182.5,74.2c1.3-1.3,3-1.9,4.9-1.9c28.8,0.7,51.1,23,51.9,51.8c0.1,1.9-0.6,3.6-1.9,4.9
					c-1.9,1.9-5,2.5-7.6,1.4c-2.5-1-4.2-3.4-4.2-6.1c-0.6-21.2-17.1-37.7-38.3-38.2c-2.8-0.1-5.1-1.7-6.1-4.2
					C180,79.2,180.6,76.1,182.5,74.2z"/>
			</g>
		</g>
		<g>
			<g>
				<path d="M182.5,48.2L182.5,48.2c1.2-1.2,3-1.9,4.8-1.9c42.9,0.7,77.2,34.9,78,77.8c0,1.9-0.6,3.6-1.9,4.8
					c-1.9,1.9-5,2.5-7.7,1.4c-2.5-1-4.1-3.4-4.2-6.2c-0.7-35.4-28.9-63.7-64.4-64.2c-2.8,0-5.1-1.7-6.2-4.2
					C180,53.2,180.5,50.2,182.5,48.2z"/>
			</g>
		</g>
	</g>
</g>
</svg>
