<?xml version="1.0" encoding="utf-8"?>
<!-- Generator: Adobe Illustrator 26.3.1, SVG Export Plug-In . SVG Version: 6.00 Build 0)  -->
<svg version="1.1" id="Layer_1" xmlns="http://www.w3.org/2000/svg" xmlns:xlink="http://www.w3.org/1999/xlink" x="0px" y="0px"
	 viewBox="0 0 302.4 302.4" style="enable-background:new 0 0 302.4 302.4;" xml:space="preserve">
<metadata><?xpacket begin="﻿" id="W5M0MpCehiHzreSzNTczkc9d"?>
<x:xmpmeta xmlns:x="adobe:ns:meta/" x:xmptk="Adobe XMP Core 8.0-c001 1.000000, 0000/00/00-00:00:00        ">
   <rdf:RDF xmlns:rdf="http://www.w3.org/1999/02/22-rdf-syntax-ns#">
      <rdf:Description rdf:about=""
            xmlns:dc="http://purl.org/dc/elements/1.1/"
            xmlns:prism="http://prismstandard.org/namespaces/basic/2.1/"
            xmlns:tiff="http://ns.adobe.com/tiff/1.0/"
            xmlns:bsam="http://www.bsam.blog">
         <dc:modified>2025-09-09T17:13:46.880Z</dc:modified>
         <dc:format>image/svg+xml</dc:format>
         <prism:Date>2025-09-08T19:23:00.000+02:00</prism:Date>
         <tiff:ImageWidth>302</tiff:ImageWidth>
         <tiff:ImageLength>302</tiff:ImageLength>
         <bsam:rightsLimitedUnlimited>unlimited</bsam:rightsLimitedUnlimited>
         <bsam:subDigitalAssetType>
            <rdf:Bag>
               <rdf:li>enterprise:digital-asset-type/image/icon</rdf:li>
            </rdf:Bag>
         </bsam:subDigitalAssetType>
         <bsam:industry>
            <rdf:Bag>
               <rdf:li>enterprise:industry/generic-all-industries</rdf:li>
            </rdf:Bag>
         </bsam:industry>
         <bsam:assetOwner>
            <rdf:Bag>
               <rdf:li>enterprise:business-unit/webfleet</rdf:li>
            </rdf:Bag>
         </bsam:assetOwner>
         <bsam:usageCountry>
            <rdf:Bag>
               <rdf:li>enterprise:region-country/global</rdf:li>
            </rdf:Bag>
         </bsam:usageCountry>
      </rdf:Description>
   </rdf:RDF>
</x:xmpmeta>
                                                                                                    
                                                                                                    
                                                                                                    
                                                                                                    
                                                                                                    
                                                                                                    
                                                                                                    
                                                                                                    
                                                                                                    
                           
<?xpacket end="w"?></metadata>
<path d="M164.5,194.1l17.2,21.6c-9.6,4.5-20,6.9-30.6,7c-10.6,0.1-21.1-2.3-30.7-7l17.2-21.6c2.6,0.8,5.2,1.4,7.9,1.7
	C152,196.7,158.4,196.1,164.5,194.1z M138.1,81c-21.2,4-39.4,17.3-49.6,36.3l26.3,7.1c5.7-7.2,13.3-12.7,22-15.6L138.1,81z
	 M80.4,141.9c-0.5,3.1-0.7,6.2-0.7,9.3c0,18.3,7.1,35.9,19.7,49.1l15.1-23c-5.3-7.4-8.2-16.2-8.3-25.4L80.4,141.9z M221.8,141.9
	l-25.7,9.9c0.1,1.7,0.1,3.4,0,5c-0.9,7.3-3.6,14.3-7.9,20.3l15.1,23c12.6-13.2,19.5-30.7,19.4-48.9
	C222.5,148.1,222.2,145.1,221.8,141.9z M263.2,151.2c0,61.8-50.1,112-112,112s-112-50.1-112-112s50.1-112,112-112
	c61.7-0.1,111.9,49.9,112,111.6C263.2,150.9,263.2,151.1,263.2,151.2z M235,151.2c0-46.3-37.5-83.8-83.8-83.8
	c-46.3,0-83.8,37.5-83.8,83.8c0,46.3,37.5,83.8,83.8,83.8l0,0C197.5,235,235,197.5,235,151.2z M164,81l1.4,27.8
	c8.7,2.9,16.2,8.4,21.6,15.8l26.6-7.2C203.5,98.4,185.2,84.9,164,81z M141.1,123.3c15.3-5.6,32.3,2.3,37.9,17.7s-2.3,32.3-17.7,37.8
	c-15.3,5.6-32.3-2.3-37.8-17.7c0,0,0,0,0,0c-5.6-15.1,2.1-32,17.3-37.6c0.1-0.1,0.3-0.1,0.4-0.2V123.3z M131.9,157.9
	c3.8,10.5,15.4,15.9,25.9,12.1s15.9-15.4,12.1-25.9c-3.8-10.5-15.4-15.9-25.9-12.1c-10.5,3.9-15.9,15.5-12.1,26V157.9z"/>
</svg>
