<?xml version="1.0" encoding="utf-8"?>
<!-- Generator: Adobe Illustrator 26.3.1, SVG Export Plug-In . SVG Version: 6.00 Build 0)  -->
<svg version="1.1" id="Layer_1" xmlns="http://www.w3.org/2000/svg" xmlns:xlink="http://www.w3.org/1999/xlink" x="0px" y="0px"
	 viewBox="0 0 302.4 302.4" style="enable-background:new 0 0 302.4 302.4;" xml:space="preserve">
<metadata><?xpacket begin="﻿" id="W5M0MpCehiHzreSzNTczkc9d"?>
<x:xmpmeta xmlns:x="adobe:ns:meta/" x:xmptk="Adobe XMP Core 8.0-c001 1.000000, 0000/00/00-00:00:00        ">
   <rdf:RDF xmlns:rdf="http://www.w3.org/1999/02/22-rdf-syntax-ns#">
      <rdf:Description rdf:about=""
            xmlns:dc="http://purl.org/dc/elements/1.1/"
            xmlns:prism="http://prismstandard.org/namespaces/basic/2.1/"
            xmlns:tiff="http://ns.adobe.com/tiff/1.0/"
            xmlns:bsam="http://www.bsam.blog">
         <dc:modified>2025-09-09T17:24:56.312Z</dc:modified>
         <dc:format>image/svg+xml</dc:format>
         <prism:Date>2025-09-08T19:23:00.000+02:00</prism:Date>
         <tiff:ImageWidth>302</tiff:ImageWidth>
         <tiff:ImageLength>302</tiff:ImageLength>
         <bsam:rightsLimitedUnlimited>unlimited</bsam:rightsLimitedUnlimited>
         <bsam:subDigitalAssetType>
            <rdf:Bag>
               <rdf:li>enterprise:digital-asset-type/image/icon</rdf:li>
            </rdf:Bag>
         </bsam:subDigitalAssetType>
         <bsam:industry>
            <rdf:Bag>
               <rdf:li>enterprise:industry/generic-all-industries</rdf:li>
            </rdf:Bag>
         </bsam:industry>
         <bsam:assetOwner>
            <rdf:Bag>
               <rdf:li>enterprise:business-unit/webfleet</rdf:li>
            </rdf:Bag>
         </bsam:assetOwner>
         <bsam:usageCountry>
            <rdf:Bag>
               <rdf:li>enterprise:region-country/global</rdf:li>
            </rdf:Bag>
         </bsam:usageCountry>
      </rdf:Description>
   </rdf:RDF>
</x:xmpmeta>
                                                                                                    
                                                                                                    
                                                                                                    
                                                                                                    
                                                                                                    
                                                                                                    
                                                                                                    
                                                                                                    
                                                                                                    
                                                                                                    
                                                                                                    
                                                                                                    
                                                                                                    
                                                                                                    
                                                                                                    
                                                                                                    
                                                                                                    
                                                                                                    
                                                                            
<?xpacket end="w"?></metadata>
<g>
	<path d="M224.1,179.6c-13.8,0-25,11.2-25,25c0,13.8,11.2,25,25,25c13.8,0,25-11.2,25-25S237.9,179.6,224.1,179.6z"/>
	<path d="M65.3,179.6c-13.8,0-25,11.2-25,25c0,13.8,11.2,25,25,25c13.8,0,25-11.2,25-25C90.3,190.8,79.1,179.6,65.3,179.6z"/>
	<path d="M268.4,156.8c-0.9,0-1.7-0.8-1.7-1.7c0-0.9,0.8-1.7,1.7-1.7h10.1c0-10,0.2-23.1-1.6-28c-5.2-16.5-10.6-33.9-16.5-43.5
		c-5.4-8.7-15.6-9.4-51.6-9h-33.7l0.1,108.9H87.5c8.4,7.5,10.5,16.4,9.5,25.8c-0.5,4.8,2.1,7.9,5.1,7.9l91.7,0l-0.8-3
		c-0.6-2.5-1-5.1-1-7.9c0-17.7,14.4-32.1,32.1-32.1s32,14.4,32,32.1c0,2.7-0.4,5.3-1,7.9l-0.7,2.8l10.4,0.1
		c8.4,0,14.6-9.8,14.6-18.1v-40.5L268.4,156.8L268.4,156.8z M213.7,127.5c-2.3,0-4.2-1.8-4.2-3.9V88.4c0-2.2,1.9-3.9,4.2-3.9
		l36.2,0.7c4,0,6.4,2.9,7.9,5.9c1.2,2.5,4.8,12.5,7.2,19.3c2.1,6.2,4.7,15.7,4.7,18.9c0,2-1.9,3.9-4.2,3.9L213.7,127.5z"/>
	<path d="M43,181.7H27c0,0-4.1,3.1-4.1,11.2c0,16-0.1,22.6,12.1,22.6c-0.7-2.6-1.8-5.9-1.7-10.8C33.3,195.6,37,187.4,43,181.7z"/>
</g>
</svg>
