<?xml version="1.0" encoding="utf-8"?>
<!-- Generator: Adobe Illustrator 26.3.1, SVG Export Plug-In . SVG Version: 6.00 Build 0)  -->
<svg version="1.1" id="Layer_1" xmlns="http://www.w3.org/2000/svg" xmlns:xlink="http://www.w3.org/1999/xlink" x="0px" y="0px"
	 viewBox="0 0 302.4 302.4" style="enable-background:new 0 0 302.4 302.4;" xml:space="preserve">
<metadata><?xpacket begin="﻿" id="W5M0MpCehiHzreSzNTczkc9d"?>
<x:xmpmeta xmlns:x="adobe:ns:meta/" x:xmptk="Adobe XMP Core 8.0-c001 1.000000, 0000/00/00-00:00:00        ">
   <rdf:RDF xmlns:rdf="http://www.w3.org/1999/02/22-rdf-syntax-ns#">
      <rdf:Description rdf:about=""
            xmlns:dc="http://purl.org/dc/elements/1.1/"
            xmlns:prism="http://prismstandard.org/namespaces/basic/2.1/"
            xmlns:tiff="http://ns.adobe.com/tiff/1.0/"
            xmlns:bsam="http://www.bsam.blog">
         <dc:modified>2025-09-09T17:24:25.902Z</dc:modified>
         <dc:format>image/svg+xml</dc:format>
         <prism:Date>2025-09-08T19:20:00.000+02:00</prism:Date>
         <tiff:ImageWidth>302</tiff:ImageWidth>
         <tiff:ImageLength>302</tiff:ImageLength>
         <bsam:rightsLimitedUnlimited>unlimited</bsam:rightsLimitedUnlimited>
         <bsam:subDigitalAssetType>
            <rdf:Bag>
               <rdf:li>enterprise:digital-asset-type/image/icon</rdf:li>
            </rdf:Bag>
         </bsam:subDigitalAssetType>
         <bsam:industry>
            <rdf:Bag>
               <rdf:li>enterprise:industry/generic-all-industries</rdf:li>
            </rdf:Bag>
         </bsam:industry>
         <bsam:assetOwner>
            <rdf:Bag>
               <rdf:li>enterprise:business-unit/webfleet</rdf:li>
            </rdf:Bag>
         </bsam:assetOwner>
         <bsam:usageCountry>
            <rdf:Bag>
               <rdf:li>enterprise:region-country/global</rdf:li>
            </rdf:Bag>
         </bsam:usageCountry>
      </rdf:Description>
   </rdf:RDF>
</x:xmpmeta>
                                                                                                    
                                                                                                    
                                                                                                    
                                                                                                    
                                                                                                    
                                                                                                    
                                                                                                    
                                                                                                    
                                                                                                    
                                                                                                    
                                                                                                    
                                                                                                    
                                                                                                    
                                                                                                    
                                                                                                    
                                                                                                    
                                                                                                    
                                                                                                    
                                                                            
<?xpacket end="w"?></metadata>
<g>
	<path d="M271,222.5c-1.2-1.2-2.6-3.5-3.2-5.1l-7.5-22.5c-2.2-6.5-9.5-11.8-16.4-11.8h-10.2v6.2H244c4.2,0,9.1,3.6,10.5,7.5
		l6.9,20.6c0.5,1.6-0.4,2.9-2.1,2.9h-26.7c0.7,5.3,1.2,12.6,1.3,22.5c0,4.5,0,9.6,0,14.8h7.1c1.7,0,3.1,1.4,3.1,3.1
		c0,1.7-1.4,3.1-3.1,3.1h-7c0,4.5,0,8.9,0,12.4h22.6v6.2c0,3.4,2.8,6.2,6.2,6.2H275c3.4,0,6.2-2.8,6.2-6.2v-37.3
		c0-6.9-2.8-15.2-6.2-18.6L271,222.5z M265.7,257.6c-5.1,0-9.3-4.2-9.3-9.3c0-5.1,4.2-9.3,9.3-9.3c5.1,0,9.3,4.2,9.3,9.3
		C275,253.4,270.9,257.6,265.7,257.6z"/>
	<path d="M179,74.8c32.6,0.8,57.9,26.1,58.9,58.7c0.1,4.3,2.6,7.9,6.5,9.4c4.1,1.6,8.8,0.7,11.7-2.2c1.9-1.9,3-4.6,2.9-7.5
		c-1.2-44.2-35.5-78.4-79.7-79.5c-2.9-0.1-5.6,1-7.5,2.9l0,0c-2.9,2.9-3.8,7.6-2.2,11.7C171.1,72.2,174.7,74.7,179,74.8z"/>
	<path d="M179.2,13.7c-2.9-0.1-5.5,1-7.4,2.9l0,0c-3,3-3.9,7.7-2.2,11.8c1.6,3.9,5.2,6.3,9.5,6.4c54.4,0.9,97.8,44.2,98.9,98.6
		c0.1,4.3,2.5,7.9,6.4,9.5c4.1,1.6,8.8,0.7,11.8-2.2c1.9-1.9,3-4.6,2.9-7.4C297.7,67.3,245.1,14.8,179.2,13.7z"/>
	<path d="M221.5,209.2h0.2c3.7,0,3.8-3,3.8-6.6v-19.9c0-3.7-3-6.6-6.6-6.6l0.3,0c0,0-1.8-0.1-3.7-0.1c-1.1-8.3-2.2-19.1-4.1-26.5
		c-0.1-0.3-0.2-0.6-0.2-0.8c-1.2-4.2-5-7.2-9.5-7.2c-0.2,0-0.7,0-0.7,0h-1.6h-41.9c4.6,0,8.2,5.1,8.2,9.7v15.5h34
		c6.6,0,6.2,6.7,7.6,13.3l3.1,26.2c0.1,1.7-1.3,3.1-3.1,3.1h-35c1,2.1,1.6,4.6,1.6,7.1v6.1h5.4c5.2,0,9.4,4.2,9.4,9.4v14.3
		c0,5.2-4.2,9.4-9.4,9.4H174v10l0,0v3.2h25V282c0,3.7,3,6.6,6.6,6.6h13.3c3.7,0,6.6-3,6.6-6.6c0,0,0.1-24.5,0-39.9
		C225.4,215.7,221.5,209.2,221.5,209.2z M209,250.1c-5.5,0-9.9-4.4-9.9-9.9s4.4-9.9,9.9-9.9s9.9,4.4,9.9,9.9
		C218.9,245.7,214.5,250.1,209,250.1z"/>
	<path d="M165.7,219.4c0-8.5-7-15.5-15.4-15.5v-15.7l0,0c4.3,0,7.7-3.4,7.7-7.7v-23.2c0-4.3-3.5-7.7-7.7-7.7l0,0V111
		c0-4.2-3.5-7.7-7.7-7.7H26.6c-4.2,0-7.7,3.5-7.7,7.7v38.6c-4.3,0-7.7,3.5-7.7,7.7v23.2c0,4.3,3.4,7.7,7.7,7.7v15.7
		c-8.5,0-15.4,7-15.4,15.5v46.1h0v15c0,4.5,3.7,8.2,8.2,8.2h22.2c4.5,0,8.2-3.7,8.2-8.2v-6.7c0,0,0,0,0-0.1v-8.1h85v8.1v6.8
		c0,4.5,3.7,8.2,8.2,8.2h22.2c4.5,0,8.2-3.7,8.2-8.2v-15l0,0L165.7,219.4L165.7,219.4z M26.6,238.5c-6.4,0-11.6-5.2-11.6-11.6
		s5.2-11.6,11.6-11.6c6.4,0,11.6,5.2,11.6,11.6S33,238.5,26.6,238.5z M119.3,246.9c0,6-4.9,11-10.9,11H60.7c-6,0-11-4.9-11-10.9
		v-24.5c0-6,4.9-10.9,11-10.9h47.6c6,0,10.9,4.9,10.9,10.9V246.9z M123.8,196H45.3c-6,0-11-4.9-11-10.9v-24.4c0-6,4.9-10.9,11-10.9
		h78.5c6,0,10.9,4.9,10.9,10.9v24.4C134.8,191.1,129.8,196,123.8,196z M142.5,238.5c-6.4,0-11.6-5.2-11.6-11.6s5.2-11.6,11.6-11.6
		s11.6,5.2,11.6,11.6S148.9,238.5,142.5,238.5z"/>
</g>
</svg>
