<?xml version="1.0" encoding="utf-8"?>
<!-- Generator: Adobe Illustrator 26.3.1, SVG Export Plug-In . SVG Version: 6.00 Build 0)  -->
<svg version="1.1" id="Layer_1" xmlns="http://www.w3.org/2000/svg" xmlns:xlink="http://www.w3.org/1999/xlink" x="0px" y="0px"
	 viewBox="0 0 302.4 302.4" style="enable-background:new 0 0 302.4 302.4;" xml:space="preserve">
<metadata><?xpacket begin="﻿" id="W5M0MpCehiHzreSzNTczkc9d"?>
<x:xmpmeta xmlns:x="adobe:ns:meta/" x:xmptk="Adobe XMP Core 8.0-c001 1.000000, 0000/00/00-00:00:00        ">
   <rdf:RDF xmlns:rdf="http://www.w3.org/1999/02/22-rdf-syntax-ns#">
      <rdf:Description rdf:about=""
            xmlns:dc="http://purl.org/dc/elements/1.1/"
            xmlns:prism="http://prismstandard.org/namespaces/basic/2.1/"
            xmlns:tiff="http://ns.adobe.com/tiff/1.0/"
            xmlns:bsam="http://www.bsam.blog">
         <dc:modified>2025-09-09T17:09:45.816Z</dc:modified>
         <dc:format>image/svg+xml</dc:format>
         <prism:Date>2025-09-08T19:23:00.000+02:00</prism:Date>
         <tiff:ImageWidth>302</tiff:ImageWidth>
         <tiff:ImageLength>302</tiff:ImageLength>
         <bsam:rightsLimitedUnlimited>unlimited</bsam:rightsLimitedUnlimited>
         <bsam:subDigitalAssetType>
            <rdf:Bag>
               <rdf:li>enterprise:digital-asset-type/image/icon</rdf:li>
            </rdf:Bag>
         </bsam:subDigitalAssetType>
         <bsam:industry>
            <rdf:Bag>
               <rdf:li>enterprise:industry/generic-all-industries</rdf:li>
            </rdf:Bag>
         </bsam:industry>
         <bsam:assetOwner>
            <rdf:Bag>
               <rdf:li>enterprise:business-unit/webfleet</rdf:li>
            </rdf:Bag>
         </bsam:assetOwner>
         <bsam:usageCountry>
            <rdf:Bag>
               <rdf:li>enterprise:region-country/global</rdf:li>
            </rdf:Bag>
         </bsam:usageCountry>
      </rdf:Description>
   </rdf:RDF>
</x:xmpmeta>
                                                                                                    
                                                                                                    
                                                                                                    
                                                                                                    
                                                                                                    
                                                                                                    
                                                                                                    
                                                                                                    
                                                                                                    
                           
<?xpacket end="w"?></metadata>
<style type="text/css">
	.st0{stroke:#455560;stroke-width:1.5749;stroke-miterlimit:10;}
</style>
<rect x="902.7" y="6879.6" class="st0" width="302.4" height="302.4"/>
<path d="M1154.8,6972.8h-4.8v-7.2c0-2.6-2.1-4.8-4.8-4.8h-0.1c-2.6,0-4.8,2.1-4.8,4.8v7.2h-19.2v-7.2c0-2.6-2.1-4.8-4.8-4.8h-0.1
	c-2.6,0-4.8,2.1-4.8,4.8v7.2h-16.8l-6.2-32.9c-0.5-6.1-5.6-10.9-11.8-10.9h-46c-6.2,0-11.3,4.8-11.8,10.9l-6.2,32.9h-16.7v-7.2
	c0-2.6-2.1-4.8-4.8-4.8h-0.1c-2.6,0-4.8,2.1-4.8,4.8v7.2h-19.2v-7.2c0-2.6-2.1-4.8-4.8-4.8h-0.1c-2.6,0-4.8,2.1-4.8,4.8v7.2h-4.8
	c-2.6,0-4.8,2.1-4.8,4.8v1.5c0,2.6,2.2,4.8,4.8,4.8l56.2,10.4l-20.4,109.4h-17.4c-7.5,0-13.6,6.1-13.6,13.6v1.6
	c0,7.5,6.1,13.6,13.6,13.6h165c7.5,0,13.6-6.1,13.6-13.6v-1.6c0-7.5-6.1-13.6-13.6-13.6h-17.4l-20.4-109.7l56.3-10.1
	c2.6,0,4.8-2.1,4.8-4.8v-1.5C1159.6,6974.9,1157.5,6972.8,1154.8,6972.8z M1092.2,7054.1l-69.7-17.6l61.1-31L1092.2,7054.1z
	 M1017.2,7045.1l71.1,17.9l-81.7,36.3L1017.2,7045.1z M1074,6952.1l6.3,35.3l-43.1-13.3L1074,6952.1z M1068.6,6944.2l-37.4,22.3
	l4-22.3H1068.6z M1028.5,6981.5l50.4,15.6l-58.4,29.7L1028.5,6981.5z M1019.4,7103.7l75.6-33.2l6.8,33.2H1019.4z"/>
<path d="M243,97.7c-1-2.6-3.6-4.3-6.5-4.3h-45.9l-2.1-7.1l28.4-24.8c2.1-1.9,2.9-4.8,1.8-7.4s-3.6-4.3-6.5-4.3H89.3
	c-2.9,0-5.5,1.7-6.5,4.3c-1,2.6-0.3,5.5,1.8,7.4L113,86.3l-2,7.1H66.3c-2.9,0-5.5,1.7-6.5,4.3c-1,2.6-0.3,5.6,1.9,7.4l36.9,31.5
	l-31.7,110c-0.8,2.8,0.3,5.8,2.9,7.4c1.2,0.8,2.5,1.1,3.9,1.1c1.5,0,3.1-0.5,4.3-1.4l73.9-56.2l72.9,56.2c2.4,1.8,5.7,2,8.2,0.4
	c2.5-1.6,3.7-4.6,2.9-7.5l-32.2-109.1l37.5-32.3C243.3,103.2,244,100.3,243,97.7z M190.4,141.8L164,124.4l17.8-11.6L190.4,141.8z
	 M151.6,116.2l-14.3-9.4h28.8L151.6,116.2z M120.2,111.8l19,12.5l-27.8,18.1L120.2,111.8z M184.2,71.8l-2.5-8.5H194L184.2,71.8z
	 M107.5,63.3h12.2l-2.4,8.5L107.5,63.3z M134,63.8l33.5,0.6l8.6,29h-50.5L134,63.8z M84.7,106.8h22.4l-4.4,15.3L84.7,106.8z
	 M86.1,230.3l19.7-68.4l34.9,26.9L86.1,230.3z M118.2,154.2l33.3-21.7l33.7,22.2l-33.4,25.4L118.2,154.2z M163.1,188.8l33.6-25.6
	l19.7,66.7L163.1,188.8z M199.4,123l-4.8-16.2h23.6L199.4,123z"/>
</svg>
