<?xml version="1.0" encoding="utf-8"?>
<!-- Generator: Adobe Illustrator 26.3.1, SVG Export Plug-In . SVG Version: 6.00 Build 0)  -->
<svg version="1.1" id="Layer_1" xmlns="http://www.w3.org/2000/svg" xmlns:xlink="http://www.w3.org/1999/xlink" x="0px" y="0px"
	 viewBox="0 0 302.4 302.4" style="enable-background:new 0 0 302.4 302.4;" xml:space="preserve">
<metadata><?xpacket begin="﻿" id="W5M0MpCehiHzreSzNTczkc9d"?>
<x:xmpmeta xmlns:x="adobe:ns:meta/" x:xmptk="Adobe XMP Core 8.0-c001 1.000000, 0000/00/00-00:00:00        ">
   <rdf:RDF xmlns:rdf="http://www.w3.org/1999/02/22-rdf-syntax-ns#">
      <rdf:Description rdf:about=""
            xmlns:dc="http://purl.org/dc/elements/1.1/"
            xmlns:prism="http://prismstandard.org/namespaces/basic/2.1/"
            xmlns:tiff="http://ns.adobe.com/tiff/1.0/"
            xmlns:bsam="http://www.bsam.blog">
         <dc:modified>2025-09-09T17:19:11.173Z</dc:modified>
         <dc:format>image/svg+xml</dc:format>
         <prism:Date>2025-09-08T19:23:00.000+02:00</prism:Date>
         <tiff:ImageWidth>302</tiff:ImageWidth>
         <tiff:ImageLength>302</tiff:ImageLength>
         <bsam:rightsLimitedUnlimited>unlimited</bsam:rightsLimitedUnlimited>
         <bsam:subDigitalAssetType>
            <rdf:Bag>
               <rdf:li>enterprise:digital-asset-type/image/icon</rdf:li>
            </rdf:Bag>
         </bsam:subDigitalAssetType>
         <bsam:industry>
            <rdf:Bag>
               <rdf:li>enterprise:industry/generic-all-industries</rdf:li>
            </rdf:Bag>
         </bsam:industry>
         <bsam:assetOwner>
            <rdf:Bag>
               <rdf:li>enterprise:business-unit/webfleet</rdf:li>
            </rdf:Bag>
         </bsam:assetOwner>
         <bsam:usageCountry>
            <rdf:Bag>
               <rdf:li>enterprise:region-country/global</rdf:li>
            </rdf:Bag>
         </bsam:usageCountry>
      </rdf:Description>
   </rdf:RDF>
</x:xmpmeta>
                                                                                                    
                                                                                                    
                                                                                                    
                                                                                                    
                                                                                                    
                                                                                                    
                                                                                                    
                                                                                                    
                                                                                                    
                           
<?xpacket end="w"?></metadata>
<g>
	<g>
		<path d="M260.6,165.1c-8.9,0-16.1,7.2-16.1,16.1c0,8.9,7.2,16.1,16.1,16.1c8.9,0,16.1-7.2,16.1-16.1
			C276.7,172.3,269.5,165.1,260.6,165.1z"/>
		<g>
			<path d="M287.4,167.2c-0.6,0-1.2-0.5-1.2-1.2c0-0.6,0.5-1.2,1.2-1.2h4.4c0.4-20.1-5.2-19.4-30.5-30.6
				c-12-10.1-25.8-29.1-39.1-29.1H121.9c-4.5,0-7.7,3.7-8.3,8.3l-2.7,23.4c3.1,1.9,6.2,3.8,9.2,5.8c2.2,1.4,4.4,2.8,6.6,4.2
				c14.7,0.1,26.5,1.7,34.9,5c8.2,3.1,13.4,7.7,15.5,13.6c0,0,0.7,1.8,0.8,3.9c0.1,0.5,0,0.7,0,1v8.7c0,2.4-0.6,4.6-1.6,6.4h63.9
				c-0.3-1.4-0.4-2.7-0.4-4.2c0-11.4,9.2-20.6,20.6-20.6c11.4,0,20.6,9.2,20.6,20.6c0,1.4-0.1,2.8-0.4,4.2h5.1c4.5,0,7-3.7,7-8.3
				v-9.9L287.4,167.2L287.4,167.2z M248,137.5l-38-0.3c-3.4-0.2-6.2-2.8-6.2-6.2v-14.5c0-2,1.7-3.7,3.7-3.7c9.7,0,15.8-0.5,21.1,1.1
				c10.8,3.1,14.9,9.8,22.4,17.9C253,133.9,251.2,137.9,248,137.5z"/>
		</g>
	</g>
	<g>
		<path d="M143.9,165.1c-8.9,0-16.1,7.2-16.1,16.1c0,8.9,7.2,16.1,16.1,16.1c8.9,0,16.1-7.2,16.1-16.1S152.8,165.1,143.9,165.1z"/>
		<path d="M40.4,165.1c-8.9,0-16.1,7.2-16.1,16.1c0,8.9,7.2,16.1,16.1,16.1c8.9,0,16.1-7.2,16.1-16.1
			C56.4,172.3,49.2,165.1,40.4,165.1z"/>
		<path d="M174.9,168.6h-5.6c-0.6,0-1.1-0.5-1.1-1.1c0-0.6,0.5-1.1,1.1-1.1h5c-3.3-9.4-17.2-16.6-48.4-16.6
			c-15.9-9.7-26.8-21.9-45.7-21.9c-19.5,0-20.3-0.1-41.5,1.3c-12.1,0.8-7,0.5-12,9c-1.7,2.9-8.6,7.4-13.3,13l-1.7,2.3
			c-1.4,2.1-2.2,4.3-2.2,6.6v14.4c0,6.9,8.6,12.3,11.5,13.7c-0.9-2.3-1.2-4.4-1.2-7c0-11.4,9.2-20.6,20.6-20.6S61,169.8,61,181.2
			c0,2.4-0.4,4.8-1.2,7c4,0,59.9,0,64.8,0c-0.8-2.2-1.2-4.5-1.2-7c0-11.4,9.2-20.6,20.6-20.6s20.6,9.2,20.6,20.6
			c0,2.4-0.4,4.8-1.2,7c1.5,0.1,2.5,0,2.5,0c5.7,0,9.3-3.5,9.3-9.2v-8.7C175.1,169.7,175,169.2,174.9,168.6z M66.6,146.7
			c-10.5-0.2-22.5,0-25.9,0c-5.3,0.1-5.4-2.8-3.1-4.5c11.7-8.4,18.6-9.9,29-10.1L66.6,146.7z M73.7,147.6c-0.2-0.1-2-0.8-2.4-0.9
			c0,0-2.2-14.6-2.1-14.6c4.2-0.1,8.7-0.1,14.5,0.1c11.4,0.4,24,8.9,34.1,18.8C91.8,151.1,83.9,152.4,73.7,147.6z"/>
	</g>
</g>
</svg>
