<?xml version="1.0" encoding="utf-8"?>
<!-- Generator: Adobe Illustrator 26.3.1, SVG Export Plug-In . SVG Version: 6.00 Build 0)  -->
<svg version="1.1" id="Layer_1" xmlns="http://www.w3.org/2000/svg" xmlns:xlink="http://www.w3.org/1999/xlink" x="0px" y="0px"
	 viewBox="0 0 302.4 302.4" style="enable-background:new 0 0 302.4 302.4;" xml:space="preserve">
<metadata><?xpacket begin="﻿" id="W5M0MpCehiHzreSzNTczkc9d"?>
<x:xmpmeta xmlns:x="adobe:ns:meta/" x:xmptk="Adobe XMP Core 8.0-c001 1.000000, 0000/00/00-00:00:00        ">
   <rdf:RDF xmlns:rdf="http://www.w3.org/1999/02/22-rdf-syntax-ns#">
      <rdf:Description rdf:about=""
            xmlns:dc="http://purl.org/dc/elements/1.1/"
            xmlns:prism="http://prismstandard.org/namespaces/basic/2.1/"
            xmlns:tiff="http://ns.adobe.com/tiff/1.0/"
            xmlns:bsam="http://www.bsam.blog">
         <dc:modified>2025-09-09T17:21:06.334Z</dc:modified>
         <dc:format>image/svg+xml</dc:format>
         <prism:Date>2025-09-08T19:23:00.000+02:00</prism:Date>
         <tiff:ImageWidth>302</tiff:ImageWidth>
         <tiff:ImageLength>302</tiff:ImageLength>
         <bsam:rightsLimitedUnlimited>unlimited</bsam:rightsLimitedUnlimited>
         <bsam:subDigitalAssetType>
            <rdf:Bag>
               <rdf:li>enterprise:digital-asset-type/image/icon</rdf:li>
            </rdf:Bag>
         </bsam:subDigitalAssetType>
         <bsam:industry>
            <rdf:Bag>
               <rdf:li>enterprise:industry/generic-all-industries</rdf:li>
            </rdf:Bag>
         </bsam:industry>
         <bsam:assetOwner>
            <rdf:Bag>
               <rdf:li>enterprise:business-unit/webfleet</rdf:li>
            </rdf:Bag>
         </bsam:assetOwner>
         <bsam:usageCountry>
            <rdf:Bag>
               <rdf:li>enterprise:region-country/global</rdf:li>
            </rdf:Bag>
         </bsam:usageCountry>
      </rdf:Description>
   </rdf:RDF>
</x:xmpmeta>
                                                                                                    
                                                                                                    
                                                                                                    
                                                                                                    
                                                                                                    
                                                                                                    
                                                                                                    
                                                                                                    
                                                                                                    
                           
<?xpacket end="w"?></metadata>
<path d="M224.1,84.9c-5.8-0.6-9.6,2.3-10.9,8c-3.3,14.5-6.8,22.4-10.3,36.8c-0.6,2.6-2.1,5.1-3.2,7.6c-0.6-0.8-2,0.2-2.3-0.6
	c-1.1-2.3-0.4-6.1-0.4-8.2c0.3-14,0.9-21.5,1.2-35.5c0.2-10.5,0.4-21,0.2-31.5c-0.1-5.1-2.8-9-8.7-9.3c-5.8-0.3-9.8,2.3-11.5,7.8
	c-0.4,1.3-0.7,2.6-0.9,3.9c-1.2,11.8-2.3,23.6-3.6,35.4c-1.4,11.9-1.4,18.1-2.9,30.1c-1,0-5-0.5-6-0.5c-0.6-3.7,0.1-7.7-0.2-11.4
	c-1.7-24.8-3.3-29.9-5-54.6c-0.7-9.9-5.4-14.8-13.5-14.4c-8.5,0.4-12,5.2-12,15.2c0.1,25.9,0.2,32.1,0.1,58c0,2.7,0.2,6.4-0.3,9.1
	c-0.8,0-3.2,1-4,1.1c-1.1-4.6-2.3-10.9-2.9-15.6c-2.3-17.6-4.3-28.8-6.6-46.4c-1-7.7-5.9-11.8-12.8-11.2c-7.4,0.7-11,5.7-10.1,14.1
	c2.4,24.7,4.9,42.8,7.2,67.5c1,11.1,1.4,22.2,2,33.3c-1.3,0.9-0.4,0.9-1.7,1.7c-2.1-3.2-4.3-6.2-6-9c-3.3-5.5-6.4-9.7-9.5-15.1
	c-5.4-9.3-12.5-17.3-23.3-13.5c-7.9,2.8-8.4,12.2-4.7,18.9c2.5,4.6,0.9,1.7,3.5,6.1c14.6,24.1,28.1,49.1,52.7,66
	c6.6,4.6,8.6,9.7,8.7,17.7c0,0.5,0.3,0.9,0.4,1.4h77.9c0.1-0.5,0.4-0.8,0.3-1.4c-0.1-5.7,0.8-11.7,2.5-17.2
	c2.1-6.6,6.5-12.6,8.4-19.3c11.2-39.8,14.1-74.2,16-115.1C232.2,89.5,229.8,85.5,224.1,84.9z M167.1,218c-1.5,1-3.4,1-4.9,0
	c-16.7-11.4-26.6-22.3-31.8-32l-1.9-4.1c-11.6-28,17.8-43.8,36.2-26.8C190.1,131.6,236.4,170.6,167.1,218z"/>
</svg>
