<?xml version="1.0" encoding="utf-8"?>
<!-- Generator: Adobe Illustrator 26.3.1, SVG Export Plug-In . SVG Version: 6.00 Build 0)  -->
<svg version="1.1" id="Layer_1" xmlns="http://www.w3.org/2000/svg" xmlns:xlink="http://www.w3.org/1999/xlink" x="0px" y="0px"
	 viewBox="0 0 302.4 302.4" style="enable-background:new 0 0 302.4 302.4;" xml:space="preserve">
<metadata><?xpacket begin="﻿" id="W5M0MpCehiHzreSzNTczkc9d"?>
<x:xmpmeta xmlns:x="adobe:ns:meta/" x:xmptk="Adobe XMP Core 8.0-c001 1.000000, 0000/00/00-00:00:00        ">
   <rdf:RDF xmlns:rdf="http://www.w3.org/1999/02/22-rdf-syntax-ns#">
      <rdf:Description rdf:about=""
            xmlns:dc="http://purl.org/dc/elements/1.1/"
            xmlns:prism="http://prismstandard.org/namespaces/basic/2.1/"
            xmlns:tiff="http://ns.adobe.com/tiff/1.0/"
            xmlns:bsam="http://www.bsam.blog">
         <dc:modified>2025-09-09T17:27:51.112Z</dc:modified>
         <dc:format>image/svg+xml</dc:format>
         <prism:Date>2025-09-08T19:23:00.000+02:00</prism:Date>
         <tiff:ImageWidth>302</tiff:ImageWidth>
         <tiff:ImageLength>302</tiff:ImageLength>
         <bsam:rightsLimitedUnlimited>unlimited</bsam:rightsLimitedUnlimited>
         <bsam:subDigitalAssetType>
            <rdf:Bag>
               <rdf:li>enterprise:digital-asset-type/image/icon</rdf:li>
            </rdf:Bag>
         </bsam:subDigitalAssetType>
         <bsam:industry>
            <rdf:Bag>
               <rdf:li>enterprise:industry/generic-all-industries</rdf:li>
            </rdf:Bag>
         </bsam:industry>
         <bsam:assetOwner>
            <rdf:Bag>
               <rdf:li>enterprise:business-unit/webfleet</rdf:li>
            </rdf:Bag>
         </bsam:assetOwner>
         <bsam:usageCountry>
            <rdf:Bag>
               <rdf:li>enterprise:region-country/global</rdf:li>
            </rdf:Bag>
         </bsam:usageCountry>
      </rdf:Description>
   </rdf:RDF>
</x:xmpmeta>
                                                                                                    
                                                                                                    
                                                                                                    
                                                                                                    
                                                                                                    
                                                                                                    
                                                                                                    
                                                                                                    
                                                                                                    
                                                                                                    
                                                                                                    
                                                                                                    
                                                                                                    
                                                                                                    
                                                                                                    
                                                                                                    
                                                                                                    
                                                                                                    
                                                                            
<?xpacket end="w"?></metadata>
<path d="M36.7,180.3c0,4.4,0,8.8,0,13.2c0,4.4,0,4.7,4.4,4.3c8.5-0.8,15.4,2.1,22,7.6c13.9,11.6,32.2,12.6,46.7,3.2
	c3.1-2,5.9-4.5,8.9-6.7c7.2-5.5,16.2-5.5,23.4,0c1.6,1.2,3.1,2.4,4.6,3.6c11.3,9,24,11.4,37.8,7.4c5.5-1.6,10-4.8,14.4-8.2
	c2.9-2.2,6-4.7,9.4-5.9c7.8-2.6,14.6,0,20.5,5.4c9.9,9.1,22,11.4,34.9,10.7c0.7,0,1.9-1.3,2-2c0.2-2.6,0.1-5.3,0.1-7.9
	c0-2.2-0.2-4.5,0-6.8c0.3-2.8-0.9-3.6-3.5-3.4c-8.7,0.8-16.5-1.4-22.9-7.7c-0.6-0.6-1.4-1.1-2.1-1.6c-13.8-10.2-32.1-10.3-46.1-0.4
	c-2.6,1.8-5,3.8-7.5,5.7c-6.6,5.1-15.9,5.3-22.6,0.4c-1.8-1.3-3.5-2.8-5.3-4.2c-14.3-11.4-33-12.3-47.8-2.2
	c-2.2,1.5-4.3,3.1-6.3,4.8c-7.7,7.1-19,6.5-26.5,0c-3.7-3.2-8-6-12.4-8.3c-7.5-4-15.9-3.7-24.1-3.6
	C36.9,177.8,36.6,178.8,36.7,180.3 M36.7,142.6c0,2.2,0.2,4.3,0,6.5c-0.3,2.8,0.7,3.9,3.6,3.6c8.8-1,16,1.8,22.8,7.6
	c11.2,9.4,24.2,11.9,38.3,7.2c6.4-2.1,11.6-6,16.6-10.3c4.7-4,10.1-5.1,16.2-4.1c4.7,0.8,7.9,3.7,11.3,6.5
	c10.5,8.5,22.2,12.1,35.6,9.1c7.5-1.7,13.9-5.5,19.4-10.6c7.8-7.2,19.1-7.2,26.6-0.2c10.2,9.4,22.4,12.9,36,11.9
	c2.1-0.1,2.7-0.9,2.6-2.8c-0.1-3.7,0-7.5,0-11.2c0-6.2,0-6.4-6.3-6.1c-7.2,0.3-13.3-1.7-18.6-6.6c-1.6-1.4-3.4-2.7-5.2-3.8
	c-12-7.8-24.8-8.8-37.7-3.1c-5,2.2-9.4,5.9-13.9,9.3c-4.9,3.7-10.1,4.7-16.1,3.7c-4.8-0.8-8-4-11.5-6.8c-14-11.3-31-13.1-45.7-4.5
	c-3.9,2.3-7.5,5.3-11.2,8.1c-3.2,2.4-6.7,3.5-10.6,3.6c-6.2,0.2-10.9-2.6-15.3-6.4c-10-8.9-22-11.4-35-10.6c-0.8,0.1-1.9,1.3-2,2
	C36.5,137.3,36.7,139.9,36.7,142.6 M265.8,108c0.4-3.1-1-4.1-3.8-3.7c-8.6,1.1-15.8-1.6-22.4-7.3c-9.6-8.4-21.1-10.7-33.5-8.7
	c-8.2,1.4-14.8,5.7-20.7,11.1c-7.3,6.7-19.6,6.6-26.2,0c-1.5-1.5-3.4-2.7-5.1-4c-9-6.7-19.1-8.8-30-7.3c-7.6,1-14.1,4.6-20,9.3
	c-2.6,2.1-5.2,4.4-8.2,5.6c-7.6,3-14.7,1.7-20.7-3.9C65,89.7,52.9,86.6,39.3,87.5c-2,0.1-2.8,0.8-2.7,2.8c0.1,4.5,0.2,9,0,13.5
	c-0.2,2.9,1,3.8,3.7,3.5c9.1-1,16.6,2.2,23.5,8.2c8.6,7.4,18.9,9.8,30.2,8.4c9.3-1.2,16.7-5.9,23.6-11.7c7.8-6.5,17.2-6.6,25.2-0.2
	c2.1,1.7,4.2,3.5,6.5,5c12.3,8.3,25.5,9.8,39,3.6c4.8-2.2,8.9-6,13.4-8.8c2.4-1.5,5-3.2,7.7-3.9c7-1.8,13.1,0.3,18.4,5.2
	c10.1,9.3,22.2,12.2,35.6,11.2c1.6-0.1,2.3-0.7,2.2-2.3c-0.1-2.6,0-5.1,0-7.6C265.7,112.3,265.5,110.1,265.8,108"/>
</svg>
