<?xml version="1.0" encoding="utf-8"?>
<!-- Generator: Adobe Illustrator 26.3.1, SVG Export Plug-In . SVG Version: 6.00 Build 0)  -->
<svg version="1.1" id="Layer_1" xmlns="http://www.w3.org/2000/svg" xmlns:xlink="http://www.w3.org/1999/xlink" x="0px" y="0px"
	 viewBox="0 0 302.4 302.4" style="enable-background:new 0 0 302.4 302.4;" xml:space="preserve">
<metadata><?xpacket begin="﻿" id="W5M0MpCehiHzreSzNTczkc9d"?>
<x:xmpmeta xmlns:x="adobe:ns:meta/" x:xmptk="Adobe XMP Core 8.0-c001 1.000000, 0000/00/00-00:00:00        ">
   <rdf:RDF xmlns:rdf="http://www.w3.org/1999/02/22-rdf-syntax-ns#">
      <rdf:Description rdf:about=""
            xmlns:dc="http://purl.org/dc/elements/1.1/"
            xmlns:prism="http://prismstandard.org/namespaces/basic/2.1/"
            xmlns:tiff="http://ns.adobe.com/tiff/1.0/"
            xmlns:bsam="http://www.bsam.blog">
         <dc:modified>2025-09-09T17:20:54.539Z</dc:modified>
         <dc:format>image/svg+xml</dc:format>
         <prism:Date>2025-09-08T19:23:00.000+02:00</prism:Date>
         <tiff:ImageWidth>302</tiff:ImageWidth>
         <tiff:ImageLength>302</tiff:ImageLength>
         <bsam:rightsLimitedUnlimited>unlimited</bsam:rightsLimitedUnlimited>
         <bsam:subDigitalAssetType>
            <rdf:Bag>
               <rdf:li>enterprise:digital-asset-type/image/icon</rdf:li>
            </rdf:Bag>
         </bsam:subDigitalAssetType>
         <bsam:industry>
            <rdf:Bag>
               <rdf:li>enterprise:industry/generic-all-industries</rdf:li>
            </rdf:Bag>
         </bsam:industry>
         <bsam:assetOwner>
            <rdf:Bag>
               <rdf:li>enterprise:business-unit/webfleet</rdf:li>
            </rdf:Bag>
         </bsam:assetOwner>
         <bsam:usageCountry>
            <rdf:Bag>
               <rdf:li>enterprise:region-country/global</rdf:li>
            </rdf:Bag>
         </bsam:usageCountry>
      </rdf:Description>
   </rdf:RDF>
</x:xmpmeta>
                                                                                                    
                                                                                                    
                                                                                                    
                                                                                                    
                                                                                                    
                                                                                                    
                                                                                                    
                                                                                                    
                                                                                                    
                           
<?xpacket end="w"?></metadata>
<path d="M243.4,187.4c-0.2-36.9-5.6-46.1-5.6-46.1h0.4c5.1,0,5.3-4.1,5.3-9.3v-27.9c0-5.1-4.1-9.3-9.3-9.3l0.4,0.1
	c0,0-2.5-0.1-5.2-0.1c-1.5-11.6-3-26.7-5.7-37c-0.1-0.4-0.2-0.8-0.4-1.2c-1.6-5.8-7-10.1-13.3-10.1c-0.3,0-1,0-1,0h-2.2H94.7h-2.6
	c0,0-0.8,0-1.1,0c-6.3,0-11.6,4.2-13.3,10c-0.1,0.4-0.3,0.8-0.4,1.2C74.5,68,73,82.9,71.7,94.9c-2.6,0-3.9,0.1-4.6,0.1
	c-5.1,0-9.3,4.2-9.3,9.3V132c0,5.1-0.1,8.9,5,9.4c-0.1,0.3-5,9.4-5,46.3V234v9.3c0,5.1,4.2,9.3,9.3,9.3h18.6c5.1,0,9.3-4.1,9.3-9.3
	v-18.6h111.3v18.6c0,5.1,4.1,9.3,9.3,9.3h18.6c5.1,0,9.3-4.1,9.3-9.3C243.4,243.2,243.5,209,243.4,187.4z M81,198
	c-7.7,0-13.9-6.2-13.9-13.9s6.2-13.9,13.9-13.9s13.9,6.2,13.9,13.9C94.9,191.8,88.7,198,81,198z M192,193.1
	c0,7.2-5.9,13.1-13.1,13.1h-56.6c-7.2,0-13.2-5.9-13.2-13.1V173c0-7.2,5.9-13.1,13.2-13.1h56.6c7.2,0,13.1,5.9,13.1,13.1V193.1z
	 M84,141.3c-2.6,0-5.1-1.9-5-4.4l3.8-36.7c1.8-9.2,2.1-18.4,11.2-18.4h113.4c9.2,0,8.6,9.4,10.7,18.6l4.3,36.6
	c0.1,2.4-1.8,4.4-4.3,4.4L84,141.3z M220.2,198.6c-7.7,0-13.9-6.2-13.9-13.9s6.2-13.9,13.9-13.9s13.9,6.2,13.9,13.9
	C234.1,192.4,227.9,198.6,220.2,198.6z"/>
</svg>
