<?xml version="1.0" encoding="utf-8"?>
<!-- Generator: Adobe Illustrator 26.3.1, SVG Export Plug-In . SVG Version: 6.00 Build 0)  -->
<svg version="1.1" id="Layer_1" xmlns="http://www.w3.org/2000/svg" xmlns:xlink="http://www.w3.org/1999/xlink" x="0px" y="0px"
	 viewBox="0 0 302.4 302.4" style="enable-background:new 0 0 302.4 302.4;" xml:space="preserve">
<metadata><?xpacket begin="﻿" id="W5M0MpCehiHzreSzNTczkc9d"?>
<x:xmpmeta xmlns:x="adobe:ns:meta/" x:xmptk="Adobe XMP Core 8.0-c001 1.000000, 0000/00/00-00:00:00        ">
   <rdf:RDF xmlns:rdf="http://www.w3.org/1999/02/22-rdf-syntax-ns#">
      <rdf:Description rdf:about=""
            xmlns:dc="http://purl.org/dc/elements/1.1/"
            xmlns:prism="http://prismstandard.org/namespaces/basic/2.1/"
            xmlns:tiff="http://ns.adobe.com/tiff/1.0/"
            xmlns:bsam="http://www.bsam.blog">
         <dc:modified>2025-09-09T17:13:45.780Z</dc:modified>
         <dc:format>image/svg+xml</dc:format>
         <prism:Date>2025-09-08T19:23:00.000+02:00</prism:Date>
         <tiff:ImageWidth>302</tiff:ImageWidth>
         <tiff:ImageLength>302</tiff:ImageLength>
         <bsam:rightsLimitedUnlimited>unlimited</bsam:rightsLimitedUnlimited>
         <bsam:subDigitalAssetType>
            <rdf:Bag>
               <rdf:li>enterprise:digital-asset-type/image/icon</rdf:li>
            </rdf:Bag>
         </bsam:subDigitalAssetType>
         <bsam:industry>
            <rdf:Bag>
               <rdf:li>enterprise:industry/generic-all-industries</rdf:li>
            </rdf:Bag>
         </bsam:industry>
         <bsam:assetOwner>
            <rdf:Bag>
               <rdf:li>enterprise:business-unit/webfleet</rdf:li>
            </rdf:Bag>
         </bsam:assetOwner>
         <bsam:usageCountry>
            <rdf:Bag>
               <rdf:li>enterprise:region-country/global</rdf:li>
            </rdf:Bag>
         </bsam:usageCountry>
      </rdf:Description>
   </rdf:RDF>
</x:xmpmeta>
                                                                                                    
                                                                                                    
                                                                                                    
                                                                                                    
                                                                                                    
                                                                                                    
                                                                                                    
                                                                                                    
                                                                                                    
                           
<?xpacket end="w"?></metadata>
<g>
	<path d="M269.5,171.6c-8,0-14.4,6.5-14.4,14.4c0,8,6.5,14.4,14.4,14.4s14.4-6.5,14.4-14.4C283.9,178.1,277.5,171.6,269.5,171.6z"/>
	<path d="M144.7,171.6c-8,0-14.4,6.5-14.4,14.4c0,8,6.5,14.4,14.4,14.4c8,0,14.4-6.5,14.4-14.4C159.1,178.1,152.7,171.6,144.7,171.6
		z"/>
	<path d="M34,171.6c-8,0-14.4,6.5-14.4,14.4c0,8,6.5,14.4,14.4,14.4S48.4,194,48.4,186C48.4,178.1,42,171.6,34,171.6z"/>
	<path d="M173.7,172.8h-5c-0.6,0-1.1-0.5-1.1-1.1s0.5-1.1,1.1-1.1h4c0.4-18.1-4.6-16.8-27.4-26.8c-10.8-9.1-23.2-26.1-35.1-26.1h-96
		c-4.1,0-6.9,3.4-7.4,7.4l-2.8,24.9l-0.2,2.1l-1.2,10.1l-1.4,2L1,171.6c0,7.5,7.3,15.3,14.8,17.4c-0.2-1-0.3-2-0.3-3
		c0-10.2,8.3-18.5,18.5-18.5s18.5,8.3,18.5,18.5c0,1.3-0.1,2.5-0.4,3.7h74.5c-0.2-1.2-0.4-2.5-0.4-3.7c0-10.2,8.3-18.5,18.5-18.5
		s18.5,8.3,18.5,18.5c0,1.3-0.1,2.5-0.4,3.7h4.6c4.1,0,6.3-3.3,6.3-7.4L173.7,172.8L173.7,172.8z M133.4,146.9l-34.1-0.3
		c-3-0.2-5.5-2.5-5.5-5.5v-13c0-1.8,1.5-3.3,3.3-3.3c8.7,0,14.2-0.4,19,0.9c9.7,2.8,13.4,8.8,20.2,16.1
		C137.9,143.6,136.2,147.2,133.4,146.9z"/>
	<path d="M295,172.3c-0.5,0-1-0.4-1-1s0.4-1,1-1h4.5c0.1-27.1-2.2-22.7-10.3-28.6c-3.4-8.9-8-21-11.4-26.6c-3.1-5-9-5.4-29.7-5.2
		h-6.9l0.1,62.8h-64.5v11.4c0,3.7-1.7,7-4.9,8l80.2,0l-0.5-1.7c-0.4-1.4-0.6-3-0.6-4.5c0-10.2,8.3-18.5,18.5-18.5
		c10.2,0,18.5,8.3,18.5,18.5c0,1.6-0.2,3.1-0.6,4.5l-0.4,1.6l6,0.1c4.8,0,8.4-5.6,8.4-10.5v-9.4L295,172.3L295,172.3z M280.8,141.6
		h-29.9c-1.3,0-2.4-1-2.4-2.3V119c0-1.2,1.1-2.3,2.4-2.3l20.9,0.4c2,0,3.2,1.2,4.2,2.8s2.5,4.7,4,8.2c1.5,3.5,3.2,9.3,3.2,11.1
		C283.2,140.5,282.1,141.6,280.8,141.6z"/>
	<path d="M110.9,114.7c12.9,0,24.9,17,36.5,26.9c23.8,10.4,27.7,9.7,28.2,27.6h61.9v-67.2h-31.3h-88.4h-1.5c-4.4,0-8,3.6-8.1,8v4.7
		C108.3,114.7,110.9,114.7,110.9,114.7z"/>
</g>
</svg>
