<?xml version="1.0" encoding="utf-8"?>
<!-- Generator: Adobe Illustrator 26.3.1, SVG Export Plug-In . SVG Version: 6.00 Build 0)  -->
<svg version="1.1" id="Layer_1" xmlns="http://www.w3.org/2000/svg" xmlns:xlink="http://www.w3.org/1999/xlink" x="0px" y="0px"
	 viewBox="0 0 302.4 302.4" style="enable-background:new 0 0 302.4 302.4;" xml:space="preserve">
<metadata><?xpacket begin="﻿" id="W5M0MpCehiHzreSzNTczkc9d"?>
<x:xmpmeta xmlns:x="adobe:ns:meta/" x:xmptk="Adobe XMP Core 8.0-c001 1.000000, 0000/00/00-00:00:00        ">
   <rdf:RDF xmlns:rdf="http://www.w3.org/1999/02/22-rdf-syntax-ns#">
      <rdf:Description rdf:about=""
            xmlns:dc="http://purl.org/dc/elements/1.1/"
            xmlns:prism="http://prismstandard.org/namespaces/basic/2.1/"
            xmlns:tiff="http://ns.adobe.com/tiff/1.0/"
            xmlns:bsam="http://www.bsam.blog">
         <dc:modified>2025-09-09T17:30:21.099Z</dc:modified>
         <dc:format>image/svg+xml</dc:format>
         <prism:Date>2025-09-08T19:23:00.000+02:00</prism:Date>
         <tiff:ImageWidth>302</tiff:ImageWidth>
         <tiff:ImageLength>302</tiff:ImageLength>
         <bsam:rightsLimitedUnlimited>unlimited</bsam:rightsLimitedUnlimited>
         <bsam:subDigitalAssetType>
            <rdf:Bag>
               <rdf:li>enterprise:digital-asset-type/image/icon</rdf:li>
            </rdf:Bag>
         </bsam:subDigitalAssetType>
         <bsam:industry>
            <rdf:Bag>
               <rdf:li>enterprise:industry/generic-all-industries</rdf:li>
            </rdf:Bag>
         </bsam:industry>
         <bsam:assetOwner>
            <rdf:Bag>
               <rdf:li>enterprise:business-unit/webfleet</rdf:li>
            </rdf:Bag>
         </bsam:assetOwner>
         <bsam:usageCountry>
            <rdf:Bag>
               <rdf:li>enterprise:region-country/global</rdf:li>
            </rdf:Bag>
         </bsam:usageCountry>
      </rdf:Description>
   </rdf:RDF>
</x:xmpmeta>
                                                                                                    
                                                                                                    
                                                                                                    
                                                                                                    
                                                                                                    
                                                                                                    
                                                                                                    
                                                                                                    
                                                                                                    
                                                                                                    
                                                                                                    
                                                                                                    
                                                                                                    
                                                                                                    
                                                                                                    
                                                                                                    
                                                                                                    
                                                                                                    
                                                                            
<?xpacket end="w"?></metadata>
<g>
	<path d="M221.2,66.3c-17.9-17.9-42.7-29-70-29s-52.1,11.1-70.1,29s-29,42.7-29,70.1c0,27.4,11.1,52.1,29,70.1
		c17.9,17.9,70,58.7,70,58.7s52.1-40.8,70.1-58.7s29-42.7,29-70.1C250.3,109,239.2,84.2,221.2,66.3z M151.2,215.6
		c-43.8,0-79.2-35.5-79.2-79.2s35.5-79.2,79.2-79.2s79.2,35.5,79.2,79.2C230.4,180.1,195,215.6,151.2,215.6z"/>
	<g>
		<path d="M198.4,123.5l-3.4-3.4c-1-1-2.2-3-2.7-4.3l-6.4-19c-1.8-5.5-8-9.9-13.8-9.9h-42c-5.8,0-12,4.5-13.8,9.9l-6.3,19
			c-0.5,1.4-1.7,3.3-2.7,4.3c-0.9,0.9-2.1,2.1-3.4,3.4c-2.9,2.9-5.2,9.9-5.2,15.7v26.2v5.2c0,2.9,2.3,5.2,5.2,5.2h10.5
			c2.9,0,5.2-2.4,5.2-5.2v-5.2h63v5.2c0,2.9,2.4,5.2,5.2,5.2h10.5c2.9,0,5.2-2.4,5.2-5.2v-31.5C203.7,133.5,201.3,126.4,198.4,123.5
			z M111.8,149.8c-4.3,0-7.9-3.5-7.9-7.9s3.5-7.9,7.9-7.9c4.3,0,7.9,3.5,7.9,7.9S116.2,149.8,111.8,149.8z M169.6,155h-36.7
			c-1.4,0-2.6-1.2-2.6-2.6s1.2-2.6,2.6-2.6h36.7c1.4,0,2.6,1.2,2.6,2.6S171,155,169.6,155z M117.4,118.3c-1.4,0-2.2-1.1-1.8-2.5
			l5.8-17.4c1.1-3.3,5.3-6.4,8.8-6.4h42c3.5,0,7.7,3,8.8,6.4l5.8,17.4c0.5,1.4-0.4,2.5-1.8,2.5H117.4z M190.5,149.8
			c-4.4,0-7.9-3.5-7.9-7.9s3.5-7.9,7.9-7.9c4.4,0,7.9,3.5,7.9,7.9S194.9,149.8,190.5,149.8z"/>
	</g>
</g>
</svg>
