<?xml version="1.0" encoding="utf-8"?>
<!-- Generator: Adobe Illustrator 26.3.1, SVG Export Plug-In . SVG Version: 6.00 Build 0)  -->
<svg version="1.1" id="Layer_1" xmlns="http://www.w3.org/2000/svg" xmlns:xlink="http://www.w3.org/1999/xlink" x="0px" y="0px"
	 viewBox="0 0 302.4 302.4" style="enable-background:new 0 0 302.4 302.4;" xml:space="preserve">
<metadata><?xpacket begin="﻿" id="W5M0MpCehiHzreSzNTczkc9d"?>
<x:xmpmeta xmlns:x="adobe:ns:meta/" x:xmptk="Adobe XMP Core 8.0-c001 1.000000, 0000/00/00-00:00:00        ">
   <rdf:RDF xmlns:rdf="http://www.w3.org/1999/02/22-rdf-syntax-ns#">
      <rdf:Description rdf:about=""
            xmlns:dc="http://purl.org/dc/elements/1.1/"
            xmlns:prism="http://prismstandard.org/namespaces/basic/2.1/"
            xmlns:tiff="http://ns.adobe.com/tiff/1.0/"
            xmlns:bsam="http://www.bsam.blog">
         <dc:modified>2025-09-09T17:26:31.598Z</dc:modified>
         <dc:format>image/svg+xml</dc:format>
         <prism:Date>2025-09-08T19:23:00.000+02:00</prism:Date>
         <tiff:ImageWidth>302</tiff:ImageWidth>
         <tiff:ImageLength>302</tiff:ImageLength>
         <bsam:rightsLimitedUnlimited>unlimited</bsam:rightsLimitedUnlimited>
         <bsam:subDigitalAssetType>
            <rdf:Bag>
               <rdf:li>enterprise:digital-asset-type/image/icon</rdf:li>
            </rdf:Bag>
         </bsam:subDigitalAssetType>
         <bsam:industry>
            <rdf:Bag>
               <rdf:li>enterprise:industry/generic-all-industries</rdf:li>
            </rdf:Bag>
         </bsam:industry>
         <bsam:assetOwner>
            <rdf:Bag>
               <rdf:li>enterprise:business-unit/webfleet</rdf:li>
            </rdf:Bag>
         </bsam:assetOwner>
         <bsam:usageCountry>
            <rdf:Bag>
               <rdf:li>enterprise:region-country/global</rdf:li>
            </rdf:Bag>
         </bsam:usageCountry>
      </rdf:Description>
   </rdf:RDF>
</x:xmpmeta>
                                                                                                    
                                                                                                    
                                                                                                    
                                                                                                    
                                                                                                    
                                                                                                    
                                                                                                    
                                                                                                    
                                                                                                    
                                                                                                    
                                                                                                    
                                                                                                    
                                                                                                    
                                                                                                    
                                                                                                    
                                                                                                    
                                                                                                    
                                                                                                    
                                                                            
<?xpacket end="w"?></metadata>
<style type="text/css">
	.st0{fill-rule:evenodd;clip-rule:evenodd;}
</style>
<g>
	<path class="st0" d="M237.8,195.2c-12,0-21.8,9.8-21.8,21.8c0,12,9.8,21.8,21.8,21.8c12,0,21.8-9.8,21.8-21.8
		C259.6,205,249.9,195.2,237.8,195.2z"/>
	<path class="st0" d="M70.6,195.2c-12,0-21.8,9.8-21.8,21.8c0,12,9.8,21.8,21.8,21.8s21.8-9.8,21.8-21.8
		C92.4,205,82.7,195.2,70.6,195.2z"/>
	<g>
		<path d="M274.1,198.1c-0.8,0-1.6-0.7-1.6-1.6c0-0.9,0.7-1.6,1.6-1.6h6c0.6-27.3-7-26.4-41.4-41.4c-16.3-13.8-35-39.5-53-39.5H40.7
			c-6.2,0-10.5,5.1-11.2,11.2l-4.3,37.5l-0.4,3.2l-1.8,15.3l-2.1,3.1l-0.3,10.9c0,11.4,11.1,23.1,22.4,26.3c-0.2-1.5-0.4-3-0.4-4.5
			c0-15.4,12.5-27.9,27.9-27.9s27.9,12.5,27.9,27.9c0,1.9-0.2,3.8-0.6,5.6h112.5c-0.4-1.8-0.6-3.7-0.6-5.6
			c0-15.4,12.5-27.9,27.9-27.9s27.9,12.5,27.9,27.9c0,1.9-0.2,3.8-0.6,5.6h6.9c6.2,0,9.5-5,9.5-11.2v-13.4L274.1,198.1L274.1,198.1z
			 M220.7,157.9l-51.5-0.4c-4.6-0.3-8.4-3.8-8.4-8.4v-19.7c0-2.8,2.3-5,5-5c13.2,0,21.5-0.6,28.6,1.4c14.7,4.2,20.3,13.3,30.4,24.2
			C227.5,152.9,225.1,158.3,220.7,157.9z"/>
	</g>
</g>
</svg>
