<?xml version="1.0" encoding="utf-8"?>
<!-- Generator: Adobe Illustrator 26.3.1, SVG Export Plug-In . SVG Version: 6.00 Build 0)  -->
<svg version="1.1" id="Layer_1" xmlns="http://www.w3.org/2000/svg" xmlns:xlink="http://www.w3.org/1999/xlink" x="0px" y="0px"
	 viewBox="0 0 302.4 302.4" style="enable-background:new 0 0 302.4 302.4;" xml:space="preserve">
<metadata><?xpacket begin="﻿" id="W5M0MpCehiHzreSzNTczkc9d"?>
<x:xmpmeta xmlns:x="adobe:ns:meta/" x:xmptk="Adobe XMP Core 8.0-c001 1.000000, 0000/00/00-00:00:00        ">
   <rdf:RDF xmlns:rdf="http://www.w3.org/1999/02/22-rdf-syntax-ns#">
      <rdf:Description rdf:about=""
            xmlns:dc="http://purl.org/dc/elements/1.1/"
            xmlns:prism="http://prismstandard.org/namespaces/basic/2.1/"
            xmlns:tiff="http://ns.adobe.com/tiff/1.0/"
            xmlns:bsam="http://www.bsam.blog">
         <dc:modified>2025-09-09T17:16:41.531Z</dc:modified>
         <dc:format>image/svg+xml</dc:format>
         <prism:Date>2025-09-08T19:23:00.000+02:00</prism:Date>
         <tiff:ImageWidth>302</tiff:ImageWidth>
         <tiff:ImageLength>302</tiff:ImageLength>
         <bsam:rightsLimitedUnlimited>unlimited</bsam:rightsLimitedUnlimited>
         <bsam:subDigitalAssetType>
            <rdf:Bag>
               <rdf:li>enterprise:digital-asset-type/image/icon</rdf:li>
            </rdf:Bag>
         </bsam:subDigitalAssetType>
         <bsam:industry>
            <rdf:Bag>
               <rdf:li>enterprise:industry/generic-all-industries</rdf:li>
            </rdf:Bag>
         </bsam:industry>
         <bsam:assetOwner>
            <rdf:Bag>
               <rdf:li>enterprise:business-unit/webfleet</rdf:li>
            </rdf:Bag>
         </bsam:assetOwner>
         <bsam:usageCountry>
            <rdf:Bag>
               <rdf:li>enterprise:region-country/global</rdf:li>
            </rdf:Bag>
         </bsam:usageCountry>
      </rdf:Description>
   </rdf:RDF>
</x:xmpmeta>
                                                                                                    
                                                                                                    
                                                                                                    
                                                                                                    
                                                                                                    
                                                                                                    
                                                                                                    
                                                                                                    
                                                                                                    
                           
<?xpacket end="w"?></metadata>
<path d="M237.9,107.3c-3-19.6-17.1-35.5-35.3-39.8c-5.3-20.4-22.8-34.2-44.1-34.2c-21.3,0-38.7,14.7-44.1,36.5
	c-19.8,2.6-34.9,17.8-38.7,38.6c-24,1.8-42.3,22.2-42.3,48c0,27,20.1,48.2,45.8,48.2h23.1L83,233.4c-2.3,3.5-1.4,8.3,2.1,10.6l0,0
	c3.5,2.4,8.3,1.4,10.6-2.1l24.9-37.3h20.9l-37.8,56.6c-2.3,3.5-1.4,8.3,2.1,10.6s8.3,1.4,10.6-2.1l43.4-65.1h20.9L148,253.9
	c-2.4,3.5-1.4,8.3,2.1,10.6c3.5,2.4,8.3,1.4,10.6-2.1l38.6-57.8h24c24.8,0,45.8-22.9,45.8-49.9C269.1,133.5,256,114.1,237.9,107.3z
	 M223.3,189.3H79.1c-17.6,0-31.4-14.4-31.4-32.8c0-18.4,13.8-32.9,31.4-32.9h9.7l0.4-7.2c1-18.5,13.8-31.5,31.1-31.6l6.2,0l0.9-6.5
	c2.3-17.4,15.1-29.5,31-29.5c16,0,28.7,11,31,26.8l0.9,5.9l5.5,0.6c15.4,1.6,27.5,15.3,28.2,31.8l0.2,5.9l5.4,1.2
	c14.2,3.3,25,17.8,25,33.9C254.7,173.4,240.3,189.3,223.3,189.3z"/>
</svg>
