<?xml version="1.0" encoding="utf-8"?>
<!-- Generator: Adobe Illustrator 27.2.0, SVG Export Plug-In . SVG Version: 6.00 Build 0)  -->
<svg version="1.1" id="Layer_3" xmlns="http://www.w3.org/2000/svg" xmlns:xlink="http://www.w3.org/1999/xlink" x="0px" y="0px"
	 viewBox="0 0 302.4 302.4" style="enable-background:new 0 0 302.4 302.4;" xml:space="preserve">
<metadata><?xpacket begin="﻿" id="W5M0MpCehiHzreSzNTczkc9d"?>
<x:xmpmeta xmlns:x="adobe:ns:meta/" x:xmptk="Adobe XMP Core 8.0-c001 1.000000, 0000/00/00-00:00:00        ">
   <rdf:RDF xmlns:rdf="http://www.w3.org/1999/02/22-rdf-syntax-ns#">
      <rdf:Description rdf:about=""
            xmlns:dc="http://purl.org/dc/elements/1.1/"
            xmlns:prism="http://prismstandard.org/namespaces/basic/2.1/"
            xmlns:tiff="http://ns.adobe.com/tiff/1.0/"
            xmlns:bsam="http://www.bsam.blog">
         <dc:modified>2025-09-09T17:21:24.652Z</dc:modified>
         <dc:format>image/svg+xml</dc:format>
         <prism:Date>2025-09-08T19:23:00.000+02:00</prism:Date>
         <tiff:ImageWidth>302</tiff:ImageWidth>
         <tiff:ImageLength>302</tiff:ImageLength>
         <bsam:rightsLimitedUnlimited>unlimited</bsam:rightsLimitedUnlimited>
         <bsam:subDigitalAssetType>
            <rdf:Bag>
               <rdf:li>enterprise:digital-asset-type/image/icon</rdf:li>
            </rdf:Bag>
         </bsam:subDigitalAssetType>
         <bsam:industry>
            <rdf:Bag>
               <rdf:li>enterprise:industry/generic-all-industries</rdf:li>
            </rdf:Bag>
         </bsam:industry>
         <bsam:assetOwner>
            <rdf:Bag>
               <rdf:li>enterprise:business-unit/webfleet</rdf:li>
            </rdf:Bag>
         </bsam:assetOwner>
         <bsam:usageCountry>
            <rdf:Bag>
               <rdf:li>enterprise:region-country/global</rdf:li>
            </rdf:Bag>
         </bsam:usageCountry>
      </rdf:Description>
   </rdf:RDF>
</x:xmpmeta>
                                                                                                    
                                                                                                    
                                                                                                    
                                                                                                    
                                                                                                    
                                                                                                    
                                                                                                    
                                                                                                    
                                                                                                    
                           
<?xpacket end="w"?></metadata>
<g>
	<circle cx="150.4" cy="152.6" r="26.8"/>
	<path d="M248.3,164.2c0.5-4,0.8-8.1,0.8-12.3c0-54.4-44.3-98.6-98.6-98.6c-4.1,0-8.2,0.3-12.1,0.7c-3.1-12.6-5.9-21.1-8.3-20.6
		c-8.5,1.9-14.2,12.2-16.1,26.8c-36.4,14.5-62.2,50.1-62.2,91.6c0,23.5,8.3,45.1,22,62.1c-9,9.1-14.6,15.9-13,17.6
		c6,6.2,17.7,5.7,31.1-0.3c16.4,12.1,36.6,19.3,58.5,19.3c41.4,0,76.9-25.6,91.5-61.8c12.6,3.5,21.6,5.3,22.3,2.9
		C266.8,183.2,260.4,173,248.3,164.2z M78.2,209.5C65.5,193.7,58,173.6,58,151.8c0-37.8,22.8-70.4,55.4-84.7c-0.3,6.2,0,12.9,1,20
		c-22.7,12.7-38,36.9-38,64.7c0,16.8,5.7,32.4,15.1,44.8C86.7,201.2,82.2,205.5,78.2,209.5z M82.4,151.9c0-24.7,13.2-46.3,32.9-58.2
		c0.2,1.2,0.5,2.4,0.7,3.7c2.7,12.3,7,23.3,12,32.1c5.8-5.5,13.6-8.9,22.2-8.9c0.8,0,1.7,0,2.5,0.1c-1.9-9.1-4.2-19.5-6.4-29.9
		c-0.5-2.2-0.9-4.4-1.4-6.5c1.8-0.1,3.6-0.2,5.4-0.2c36.6,0,66.5,29.1,67.9,65.3c-1-0.3-2-0.7-3.1-1c-12.2-3.7-24-5.4-34.2-5.2
		c1,3,1.5,6.3,1.5,9.6c0,6-1.7,11.7-4.6,16.5c8.6,2.7,18.4,5.7,28.2,8.7c2,0.6,4.1,1.3,6.1,1.9c-10.7,23.6-34.4,40.1-62,40.1
		c-11,0-21.5-2.7-30.7-7.4c1-0.9,1.9-1.8,2.8-2.7c8.7-8.4,15.6-17.3,20.3-25.9c-9.2-2.2-16.8-8.3-21-16.4c-6.5,6.1-13.6,13-20.8,20
		c-1.7,1.6-3.4,3.3-5.1,4.9C87.5,181.1,82.4,167.1,82.4,151.9z M150.4,244.4c-19.4,0-37.4-6-52.3-16.2c5.4-3,11-6.8,16.5-11.3
		c10.6,5.9,22.8,9.2,35.7,9.2c30.3,0,56.4-18.3,67.9-44.4c6.2,1.9,12.2,3.7,17.7,5.4C222.1,220.6,189,244.4,150.4,244.4z
		 M242.5,160.3c-5.3-3.3-11.3-6.3-18-8.9c-0.2-40.7-33.4-73.7-74.1-73.7c-2.3,0-4.5,0.1-6.7,0.3c-1.4-6.3-2.7-12.5-4-18
		c3.5-0.4,7.1-0.6,10.7-0.6c51,0,92.5,41.5,92.5,92.5C242.9,154.7,242.8,157.5,242.5,160.3z"/>
</g>
</svg>
