<?xml version="1.0" encoding="utf-8"?>
<!-- Generator: Adobe Illustrator 26.3.1, SVG Export Plug-In . SVG Version: 6.00 Build 0)  -->
<svg version="1.1" id="Layer_1" xmlns="http://www.w3.org/2000/svg" xmlns:xlink="http://www.w3.org/1999/xlink" x="0px" y="0px"
	 viewBox="0 0 453.5 453.5" style="enable-background:new 0 0 453.5 453.5;" xml:space="preserve">
<metadata><?xpacket begin="﻿" id="W5M0MpCehiHzreSzNTczkc9d"?>
<x:xmpmeta xmlns:x="adobe:ns:meta/" x:xmptk="Adobe XMP Core 8.0-c001 1.000000, 0000/00/00-00:00:00        ">
   <rdf:RDF xmlns:rdf="http://www.w3.org/1999/02/22-rdf-syntax-ns#">
      <rdf:Description rdf:about=""
            xmlns:dc="http://purl.org/dc/elements/1.1/"
            xmlns:prism="http://prismstandard.org/namespaces/basic/2.1/"
            xmlns:tiff="http://ns.adobe.com/tiff/1.0/"
            xmlns:bsam="http://www.bsam.blog">
         <dc:modified>2025-09-09T17:28:49.326Z</dc:modified>
         <dc:format>image/svg+xml</dc:format>
         <prism:Date>2025-09-08T19:23:00.000+02:00</prism:Date>
         <tiff:ImageWidth>454</tiff:ImageWidth>
         <tiff:ImageLength>454</tiff:ImageLength>
         <bsam:rightsLimitedUnlimited>unlimited</bsam:rightsLimitedUnlimited>
         <bsam:subDigitalAssetType>
            <rdf:Bag>
               <rdf:li>enterprise:digital-asset-type/image/icon</rdf:li>
            </rdf:Bag>
         </bsam:subDigitalAssetType>
         <bsam:industry>
            <rdf:Bag>
               <rdf:li>enterprise:industry/generic-all-industries</rdf:li>
            </rdf:Bag>
         </bsam:industry>
         <bsam:assetOwner>
            <rdf:Bag>
               <rdf:li>enterprise:business-unit/webfleet</rdf:li>
            </rdf:Bag>
         </bsam:assetOwner>
         <bsam:usageCountry>
            <rdf:Bag>
               <rdf:li>enterprise:region-country/global</rdf:li>
            </rdf:Bag>
         </bsam:usageCountry>
      </rdf:Description>
   </rdf:RDF>
</x:xmpmeta>
                                                                                                    
                                                                                                    
                                                                                                    
                                                                                                    
                                                                                                    
                                                                                                    
                                                                                                    
                                                                                                    
                                                                                                    
                                                                                                    
                                                                                                    
                                                                                                    
                                                                                                    
                                                                                                    
                                                                                                    
                                                                                                    
                                                                                                    
                                                                                                    
                                                                            
<?xpacket end="w"?></metadata>
<g>
	<path d="M316.5,127.3h-209c-5.2,0-9.4,4.2-9.4,9.4V294c0,5.2,4.2,9.4,9.4,9.4h209c5.2,0,9.4-4.2,9.4-9.4V136.7
		C325.9,131.5,321.7,127.3,316.5,127.3z M315.5,272.3H108.4v-21.9h29.4l-0.3-1.1c-0.2-1-0.4-2-0.4-3c0-6.8,5.5-12.2,12.2-12.2
		c6.8,0,12.2,5.5,12.2,12.2c0,1-0.1,2-0.4,3l-0.3,1.1l4,0c3.2,0,5.6-3.7,5.6-6.9v-6.2h-4.2c-0.3,0-0.6-0.3-0.6-0.6s0.3-0.6,0.6-0.6
		h2.9c0.1-17.9-1.5-15-6.8-18.9c-2.3-5.9-5.3-13.9-7.5-17.6c-2.1-3.3-5.9-3.6-19.7-3.4h-4.6l0.1,41.6h-22.3v-2.4h19.8v-44.5h-19.8
		v-52.9h207.1V272.3z M135.4,215.3v-13.4c0-0.8,0.7-1.5,1.6-1.5l13.8,0.3c1.3,0,2.1,0.8,2.8,1.9c0.7,1.1,1.7,3.1,2.6,5.4
		c1,2.3,2.1,6.1,2.1,7.4c0,0.8-0.7,1.5-1.6,1.5h-19.8C136.2,216.8,135.4,216.1,135.4,215.3z"/>
	<path d="M234.9,313.7h-44.3c-7.8,0-14,11.6-14,20.8H249C249,325.3,242.7,313.7,234.9,313.7z"/>
	<path d="M286.9,236.7c-5.3,0-9.5,4.3-9.5,9.6s4.3,9.6,9.5,9.6s9.5-4.3,9.5-9.6C296.4,240.9,292.2,236.7,286.9,236.7z"/>
	<path d="M213.6,236.7c-5.3,0-9.6,4.3-9.6,9.6s4.3,9.6,9.6,9.6s9.6-4.3,9.6-9.6C223.2,240.9,218.9,236.7,213.6,236.7z"/>
	<path d="M201.6,248.2c-0.1-0.6-0.2-1.3-0.2-2c0-6.8,5.5-12.2,12.2-12.2c6.8,0,12.2,5.5,12.2,12.2c0,0.9-0.1,1.7-0.2,2.5h49.3
		c-0.2-0.8-0.2-1.6-0.2-2.5c0-6.8,5.5-12.2,12.2-12.2s12.2,5.5,12.2,12.2c0,0.9-0.1,1.7-0.2,2.5h3c2.7,0,4.2-2.2,4.2-4.9v-5.9h-3.3
		c-0.4,0-0.7-0.3-0.7-0.7c0-0.4,0.3-0.7,0.7-0.7h2.6c0.3-11.9-3.1-11.6-18.1-18.1c-7.1-6-15.3-17.3-23.2-17.3h-63.5
		c-2.7,0-4.6,2.2-4.9,4.9l-1.9,16.4l-0.2,1.4l-0.8,6.7l-0.9,1.4l-0.1,4.8C191.8,241.6,196.6,246.8,201.6,248.2z M253.1,207.8
		c0-1.2,1-2.2,2.2-2.2c5.8,0,9.4-0.3,12.5,0.6c6.4,1.9,8.9,5.8,13.3,10.6c1.1,1.2,0,3.6-1.9,3.4l-22.6-0.2c-2-0.1-3.7-1.6-3.7-3.7
		L253.1,207.8L253.1,207.8z"/>
	<path d="M412.1,236.7c-5.3,0-9.5,4.3-9.5,9.5c0,5.3,4.3,9.6,9.5,9.6s9.5-4.3,9.5-9.6C421.6,240.9,417.4,236.7,412.1,236.7z"/>
	<path d="M347.8,236.7c-5.3,0-9.5,4.3-9.5,9.5c0,5.3,4.3,9.6,9.5,9.6c5.3,0,9.5-4.3,9.5-9.6C357.3,240.9,353,236.7,347.8,236.7z"/>
	<path d="M430.5,238.8h-3.3c-0.4,0-0.7-0.3-0.7-0.7c0-0.4,0.3-0.7,0.7-0.7h3c-2-5.6-10.2-9.9-28.8-9.9c-9.5-5.8-18.8-13-30-13
		c-11.6,0-12.1-0.1-24.7,0.8c-7.2,0.5-4.1,0.3-7.1,5.4c-1,1.7-5.1,4.4-7.9,7.7l-0.7,1c-0.8,1.2-0.6,2.6-0.3,4.4v8.6
		c-0.3,2.9,3.8,7.2,5.5,8.1c-0.5-1.4-0.7-2.6-0.7-4.1c0-6.8,5.5-12.2,12.2-12.2c6.8,0,12.2,5.5,12.2,12.2c0,1.4-0.3,2.8-0.7,4.1
		c2.4,0,38.4,0,41.3,0c-0.5-1.3-0.7-2.7-0.7-4.1c0-6.8,5.5-12.2,12.2-12.2c6.8,0,12.2,5.5,12.2,12.2c0,1.4-0.3,2.8-0.7,4.1
		c0.9,0,1.5,0,1.5,0c3.4,0,5.5-2.1,5.5-5.4v-5.2C430.6,239.4,430.5,239.1,430.5,238.8z M363.3,225.8c-6.2-0.1-13.3,0-15.4,0
		c-3.2,0-3.2-1.7-1.8-2.7c7-5,11-5.9,17.2-6L363.3,225.8z M367.5,226.3c-0.1-0.1-1.2-0.4-1.4-0.5c0,0-1.3-8.7-1.2-8.7
		c2.5-0.1,5.2-0.1,8.6,0.1c6.8,0.2,17.1,5.3,23.1,11.1C381.2,228.4,373.6,229.1,367.5,226.3z"/>
	<path d="M64.5,236.7c-5.3,0-9.5,4.3-9.5,9.5c0,5.3,4.3,9.5,9.5,9.5c5.3,0,9.5-4.3,9.5-9.5C74.1,240.9,69.8,236.7,64.5,236.7z"/>
	<path d="M76.6,247.4c-0.2,1.8,0.8,3,1.9,3h14.7v-12.8H73C76.2,240.4,77,243.8,76.6,247.4z"/>
	<path d="M149.4,236.7c-5.3,0-9.5,4.3-9.5,9.5c0,5.3,4.3,9.5,9.5,9.5c5.3,0,9.5-4.3,9.5-9.5S154.6,236.7,149.4,236.7z"/>
	<path d="M45.7,190.6c-2.9,0-5.3,2.4-5.4,5.3l0,39.2h19.1c0.1,0,0.1,0,0.2-0.1c0.2-0.1,0.3-0.1,0.5-0.2c0.2-0.1,0.4-0.1,0.6-0.2
		c0.2-0.1,0.4-0.1,0.7-0.2c0.2-0.1,0.4-0.1,0.6-0.1c0.1,0,0.2,0,0.3-0.1c0.7-0.1,1.5-0.2,2.2-0.2c0.8,0,1.5,0.1,2.2,0.2
		c0.1,0,0.2,0,0.3,0.1c0.2,0,0.4,0.1,0.5,0.1c0.2,0.1,0.5,0.1,0.7,0.2c0.2,0.1,0.3,0.1,0.5,0.2c0.2,0.1,0.4,0.1,0.6,0.2
		c0.1,0,0.1,0,0.2,0.1h23.7v-44.5H46.7L45.7,190.6L45.7,190.6z"/>
	<path d="M56,237.5H40.3c0,0,0,1.3,0.3,4.3c0.6,6.1,6.3,8.8,12.3,8.6c-0.3-1-0.7-2.2-0.7-4.1C52.3,242.8,53.7,239.7,56,237.5z"/>
</g>
</svg>
