<?xml version="1.0" encoding="utf-8"?>
<!-- Generator: Adobe Illustrator 26.3.1, SVG Export Plug-In . SVG Version: 6.00 Build 0)  -->
<svg version="1.1" id="Layer_1" xmlns="http://www.w3.org/2000/svg" xmlns:xlink="http://www.w3.org/1999/xlink" x="0px" y="0px"
	 viewBox="0 0 302.4 302.4" style="enable-background:new 0 0 302.4 302.4;" xml:space="preserve">
<metadata><?xpacket begin="﻿" id="W5M0MpCehiHzreSzNTczkc9d"?>
<x:xmpmeta xmlns:x="adobe:ns:meta/" x:xmptk="Adobe XMP Core 8.0-c001 1.000000, 0000/00/00-00:00:00        ">
   <rdf:RDF xmlns:rdf="http://www.w3.org/1999/02/22-rdf-syntax-ns#">
      <rdf:Description rdf:about=""
            xmlns:dc="http://purl.org/dc/elements/1.1/"
            xmlns:prism="http://prismstandard.org/namespaces/basic/2.1/"
            xmlns:tiff="http://ns.adobe.com/tiff/1.0/"
            xmlns:bsam="http://www.bsam.blog">
         <dc:modified>2025-09-09T17:19:11.204Z</dc:modified>
         <dc:format>image/svg+xml</dc:format>
         <prism:Date>2025-09-08T19:23:00.000+02:00</prism:Date>
         <tiff:ImageWidth>302</tiff:ImageWidth>
         <tiff:ImageLength>302</tiff:ImageLength>
         <bsam:rightsLimitedUnlimited>unlimited</bsam:rightsLimitedUnlimited>
         <bsam:subDigitalAssetType>
            <rdf:Bag>
               <rdf:li>enterprise:digital-asset-type/image/icon</rdf:li>
            </rdf:Bag>
         </bsam:subDigitalAssetType>
         <bsam:industry>
            <rdf:Bag>
               <rdf:li>enterprise:industry/generic-all-industries</rdf:li>
            </rdf:Bag>
         </bsam:industry>
         <bsam:assetOwner>
            <rdf:Bag>
               <rdf:li>enterprise:business-unit/webfleet</rdf:li>
            </rdf:Bag>
         </bsam:assetOwner>
         <bsam:usageCountry>
            <rdf:Bag>
               <rdf:li>enterprise:region-country/global</rdf:li>
            </rdf:Bag>
         </bsam:usageCountry>
      </rdf:Description>
   </rdf:RDF>
</x:xmpmeta>
                                                                                                    
                                                                                                    
                                                                                                    
                                                                                                    
                                                                                                    
                                                                                                    
                                                                                                    
                                                                                                    
                                                                                                    
                           
<?xpacket end="w"?></metadata>
<g>
	<circle cx="49.2" cy="134.7" r="9.4"/>
	<circle cx="66" cy="176.6" r="9.4"/>
	<circle cx="63.9" cy="92.8" r="9.4"/>
	<circle cx="107.9" cy="78.1" r="9.4"/>
	<circle cx="149.8" cy="94.9" r="9.4"/>
	<g>
		<path d="M128,99.9c-19.7-11.4-44.8-4.6-56.2,15.1c-11.2,19.5-4.7,44.3,14.4,55.8c4.7-4.2,11.1-6.9,20-6.9
			c0-16.8,15.3-30.1,32-30.1c0-6.1,2.6-10.8,6.8-14.6C141.7,111.3,135.9,104.5,128,99.9z"/>
	</g>
	<path d="M234.3,168.3c-0.7-15.7-12.8-28.5-28.4-30c-2.3-14.9-15.2-25.6-31.2-25.6c-16.1,0-28.9,11.6-31.2,27.7
		c-17.5,0.1-30.4,12.5-31.3,29.9h-2.4c-17.7,0-31.6,13.7-31.6,31.2c0,17.5,13.9,31.2,31.6,31.2h34c8.7,6.9,19.7,11,31.6,11
		s22.9-4.1,31.6-11h20.9c17.1,0,31.6-14.9,31.6-32.5C259.5,185,248.6,171.4,234.3,168.3z"/>
</g>
</svg>
