<?xml version="1.0" encoding="utf-8"?>
<!-- Generator: Adobe Illustrator 26.3.1, SVG Export Plug-In . SVG Version: 6.00 Build 0)  -->
<svg version="1.1" id="Layer_1" xmlns="http://www.w3.org/2000/svg" xmlns:xlink="http://www.w3.org/1999/xlink" x="0px" y="0px"
	 viewBox="0 0 302.4 302.4" style="enable-background:new 0 0 302.4 302.4;" xml:space="preserve">
<metadata><?xpacket begin="﻿" id="W5M0MpCehiHzreSzNTczkc9d"?>
<x:xmpmeta xmlns:x="adobe:ns:meta/" x:xmptk="Adobe XMP Core 8.0-c001 1.000000, 0000/00/00-00:00:00        ">
   <rdf:RDF xmlns:rdf="http://www.w3.org/1999/02/22-rdf-syntax-ns#">
      <rdf:Description rdf:about=""
            xmlns:dc="http://purl.org/dc/elements/1.1/"
            xmlns:prism="http://prismstandard.org/namespaces/basic/2.1/"
            xmlns:tiff="http://ns.adobe.com/tiff/1.0/"
            xmlns:bsam="http://www.bsam.blog">
         <dc:modified>2025-09-09T17:29:35.228Z</dc:modified>
         <dc:format>image/svg+xml</dc:format>
         <prism:Date>2025-09-08T19:23:00.000+02:00</prism:Date>
         <tiff:ImageWidth>302</tiff:ImageWidth>
         <tiff:ImageLength>302</tiff:ImageLength>
         <bsam:rightsLimitedUnlimited>unlimited</bsam:rightsLimitedUnlimited>
         <bsam:subDigitalAssetType>
            <rdf:Bag>
               <rdf:li>enterprise:digital-asset-type/image/icon</rdf:li>
            </rdf:Bag>
         </bsam:subDigitalAssetType>
         <bsam:industry>
            <rdf:Bag>
               <rdf:li>enterprise:industry/generic-all-industries</rdf:li>
            </rdf:Bag>
         </bsam:industry>
         <bsam:assetOwner>
            <rdf:Bag>
               <rdf:li>enterprise:business-unit/webfleet</rdf:li>
            </rdf:Bag>
         </bsam:assetOwner>
         <bsam:usageCountry>
            <rdf:Bag>
               <rdf:li>enterprise:region-country/global</rdf:li>
            </rdf:Bag>
         </bsam:usageCountry>
      </rdf:Description>
   </rdf:RDF>
</x:xmpmeta>
                                                                                                    
                                                                                                    
                                                                                                    
                                                                                                    
                                                                                                    
                                                                                                    
                                                                                                    
                                                                                                    
                                                                                                    
                                                                                                    
                                                                                                    
                                                                                                    
                                                                                                    
                                                                                                    
                                                                                                    
                                                                                                    
                                                                                                    
                                                                                                    
                                                                            
<?xpacket end="w"?></metadata>
<style type="text/css">
	.st0{fill-rule:evenodd;clip-rule:evenodd;}
</style>
<path class="st0" d="M151.2,257.6c-16.6,0-32.2-3.8-46.2-10.5c0,0-9.6-4.8-16.1-10.4c2.5-1.6,13.3-7.6,13.3-7.6
	c7.6-5,24.4-10.1,33.4-12c8.2-1.8,25-0.1,39.1-1.4c9.3-0.9,22.1-3.8,22.5-14.3c0.1-3.2,0.3-4.1,3.1-6.1c2.2-1.6,2.8-3.1,3.6-5.8
	c1-3.7-0.9-7.5-0.7-11.2c0.2-3.8,3-5.9,3.5-9.6c0.7-5.9-3.8-9.6-3.7-15.4c0.1-3.7,1.4-7.1-0.1-11c-1.6-4.2-5.7-7.2-9.9-9
	c-5.9-2.5-11.6-0.3-17.3-1.8c-0.4-0.1-11.8-3-11.8-3c-8.3-2.1-4.9-6.6-2.2-13c6.1-14.2,15.1-30.5,5.2-45.2
	c-3.2-4.7-8.9-10.2-13.6-3.7c-1.5,2-0.3,6.4-0.6,8.8c-0.6,4.8-1.7,9.6-3.3,14.2c-5,14.2-17.2,25.8-24,39.4
	c-8,15.9-13.3,30.9-29.7,40.2c-2.2,1.2-4.4,2.4-6.6,3.5l-39.1,10.8c-3.2-10.1-4.9-20.9-4.9-32.1c0-58.8,47.7-106.4,106.4-106.4
	s106.4,47.7,106.4,106.4C257.6,210,210,257.6,151.2,257.6z"/>
</svg>
