<?xml version="1.0" encoding="UTF-8"?>
<svg id="Layer_1" xmlns="http://www.w3.org/2000/svg" version="1.1" viewBox="0 0 453.5 453.5">
  <!-- Generator: Adobe Illustrator 29.5.1, SVG Export Plug-In . SVG Version: 2.1.0 Build 141)  -->
  <metadata><?xpacket begin="﻿" id="W5M0MpCehiHzreSzNTczkc9d"?>
<x:xmpmeta xmlns:x="adobe:ns:meta/" x:xmptk="Adobe XMP Core 8.0-c001 1.000000, 0000/00/00-00:00:00        ">
   <rdf:RDF xmlns:rdf="http://www.w3.org/1999/02/22-rdf-syntax-ns#">
      <rdf:Description rdf:about=""
            xmlns:dc="http://purl.org/dc/elements/1.1/"
            xmlns:prism="http://prismstandard.org/namespaces/basic/2.1/"
            xmlns:tiff="http://ns.adobe.com/tiff/1.0/"
            xmlns:bsam="http://www.bsam.blog">
         <dc:modified>2025-09-09T17:23:16.275Z</dc:modified>
         <dc:format>image/svg+xml</dc:format>
         <prism:Date>2025-09-08T19:23:00.000+02:00</prism:Date>
         <tiff:ImageWidth>454</tiff:ImageWidth>
         <tiff:ImageLength>454</tiff:ImageLength>
         <bsam:rightsLimitedUnlimited>unlimited</bsam:rightsLimitedUnlimited>
         <bsam:subDigitalAssetType>
            <rdf:Bag>
               <rdf:li>enterprise:digital-asset-type/image/icon</rdf:li>
            </rdf:Bag>
         </bsam:subDigitalAssetType>
         <bsam:industry>
            <rdf:Bag>
               <rdf:li>enterprise:industry/generic-all-industries</rdf:li>
            </rdf:Bag>
         </bsam:industry>
         <bsam:assetOwner>
            <rdf:Bag>
               <rdf:li>enterprise:business-unit/webfleet</rdf:li>
            </rdf:Bag>
         </bsam:assetOwner>
         <bsam:usageCountry>
            <rdf:Bag>
               <rdf:li>enterprise:region-country/global</rdf:li>
            </rdf:Bag>
         </bsam:usageCountry>
      </rdf:Description>
   </rdf:RDF>
</x:xmpmeta>
                                                                                                    
                                                                                                    
                                                                                                    
                                                                                                    
                                                                                                    
                                                                                                    
                                                                                                    
                                                                                                    
                                                                                                    
                           
<?xpacket end="w"?></metadata>
<defs>
    <style>
      .st0 {
        fill-rule: evenodd;
      }

      .st1 {
        opacity: .3;
      }
    </style>
  </defs>
  <path d="M239.7,294.2c0-9.2-6.3-20.7-14-20.7h-44.2c-7.7,0-14,11.6-14,20.7h72.3Z"/>
  <g>
    <path class="st0" d="M277.5,196.6c-5.3,0-9.5,4.3-9.5,9.5s4.3,9.5,9.5,9.5,9.5-4.3,9.5-9.5-4.3-9.5-9.5-9.5Z"/>
    <path class="st0" d="M204.4,196.6c-5.3,0-9.5,4.3-9.5,9.5s4.3,9.5,9.5,9.5,9.5-4.3,9.5-9.5-4.3-9.5-9.5-9.5Z"/>
    <path d="M293.3,197.9c-.4,0-.7-.3-.7-.7s.3-.7.7-.7h2.6c.3-11.9-3.1-11.5-18.1-18.1-7.1-6-15.3-17.3-23.2-17.3h-63.3c-2.7,0-4.6,2.2-4.9,4.9l-1.9,16.4-.2,1.4-.8,6.7-.9,1.3v4.8c-.1,5,4.7,10.1,9.7,11.5-.1-.6-.2-1.3-.2-2,0-6.7,5.5-12.2,12.2-12.2s12.2,5.5,12.2,12.2,0,1.7-.3,2.5h49.2c-.2-.8-.3-1.6-.3-2.5,0-6.7,5.5-12.2,12.2-12.2s12.2,5.5,12.2,12.2,0,1.7-.3,2.5h3c2.7,0,4.2-2.2,4.2-4.9v-5.9h-3.3ZM270,180.3l-22.5-.2c-2-.1-3.7-1.6-3.7-3.7v-8.6c0-1.2,1-2.2,2.2-2.2,5.8,0,9.4-.3,12.5.6,6.4,1.9,8.9,5.8,13.3,10.6,1.1,1.2,0,3.6-1.9,3.4Z"/>
  </g>
  <g class="st1">
    <path d="M404.1,196.6c-5.3,0-9.5,4.3-9.5,9.5s4.3,9.5,9.5,9.5,9.5-4.3,9.5-9.5-4.3-9.5-9.5-9.5Z"/>
    <path d="M339.9,196.6c-5.3,0-9.5,4.3-9.5,9.5s4.3,9.5,9.5,9.5,9.5-4.3,9.5-9.5-4.3-9.5-9.5-9.5Z"/>
    <path d="M422.4,198.7h-3.3c-.4,0-.7-.3-.7-.7s.3-.7.7-.7h3c-2-5.6-10.2-9.8-28.7-9.8-9.4-5.8-18.7-13-29.9-13-11.6,0-12,0-24.6.8-7.2.5-4.1.3-7.1,5.3-1,1.7-5.1,4.4-7.9,7.7l-1,1.4c-.8,1.2-1.3,2.5-1.3,3.9v8.5c0,4.1,5.1,7.3,6.8,8.1-.5-1.3-.7-2.6-.7-4.1,0-6.7,5.5-12.2,12.2-12.2s12.2,5.5,12.2,12.2-.3,2.8-.7,4.1c2.4,0,38.3,0,41.2,0-.5-1.3-.7-2.7-.7-4.1,0-6.7,5.5-12.2,12.2-12.2s12.2,5.5,12.2,12.2-.3,2.8-.7,4.1c.9,0,1.5,0,1.5,0,3.3,0,5.5-2.1,5.5-5.4v-5.2c0-.3,0-.7,0-1ZM355.4,185.8c-6.2,0-13.3,0-15.3,0-3.2,0-3.2-1.7-1.8-2.7,6.9-5,11-5.8,17.2-6v8.6ZM359.6,186.3c-.1,0-1.2-.4-1.4-.5,0,0-1.3-8.7-1.2-8.7,2.5,0,5.2,0,8.6,0,6.7.3,17.1,5.3,23,11.1-15.4,0-23,.8-29-2Z"/>
  </g>
  <path class="st1" d="M55.6,196.6c-5.3,0-9.5,4.3-9.5,9.5s4.3,9.5,9.5,9.5,9.5-4.3,9.5-9.5-4.3-9.5-9.5-9.5Z"/>
  <path class="st1" d="M64.1,197.5c3.2,2.8,4,6.2,3.6,9.8-.2,1.7.8,3,1.9,3h14.6s0-12.8,0-12.8h-20.2Z"/>
  <g>
    <path d="M307.1,87.5H98.5c-5.2,0-9.4,4.2-9.4,9.4v156.9c0,5.2,4.2,9.4,9.4,9.4h208.6c5.2,0,9.4-4.2,9.4-9.4V96.8c0-5.2-4.2-9.4-9.4-9.4ZM306.1,232.2H99.4v-21.9h29.3s-.3-1.1-.3-1.1c-.2-1-.4-2-.4-3,0-6.7,5.5-12.2,12.2-12.2s12.2,5.5,12.2,12.2-.1,2-.4,3l-.3,1.2h4c3.2,0,5.6-3.8,5.6-6.9v-6.2h-4.2c-.3,0-.7-.3-.7-.6s.3-.7.7-.7h2.9c0-17.9-1.5-15-6.8-18.9-2.3-5.8-5.2-13.9-7.5-17.5-2-3.3-5.9-3.6-19.6-3.4h-4.5v41.5c0,0-22.2,0-22.2,0v-2.4h19.8v-44.4h-19.8v-52.8h206.7v134.4ZM126.4,175.3v-13.4c0-.8.7-1.5,1.6-1.5l13.8.3c1.3,0,2.1.8,2.8,1.9.7,1.1,1.7,3.1,2.6,5.4,1,2.3,2.1,6.1,2.1,7.4s-.7,1.5-1.6,1.5h-19.7c-.9,0-1.6-.7-1.6-1.5Z"/>
    <path d="M140.3,196.6c-5.3,0-9.5,4.3-9.5,9.5s4.3,9.5,9.5,9.5,9.5-4.3,9.5-9.5-4.3-9.5-9.5-9.5Z"/>
  </g>
  <path class="st1" d="M37.8,150.6h-1c-2.9,0-5.3,2.4-5.3,5.3v39.1h19.1c0,0,.1,0,.2,0,.2,0,.4-.1.5-.2.2,0,.4-.1.6-.2.2,0,.4-.1.7-.2.2,0,.4-.1.6-.2,0,0,.2,0,.3,0,.7-.1,1.5-.2,2.2-.2s1.5,0,2.2.2c.1,0,.2,0,.3,0,.2,0,.4,0,.5.1.2,0,.5.1.7.2.2,0,.3.1.5.2.2,0,.4.1.6.2,0,0,.1,0,.2,0h23.9v-44.4h-46.6Z"/>
  <path class="st1" d="M47.1,197.4h-15.7s0,1.3.3,4.3c.6,6.1,6.3,8.8,12.3,8.6-.3-1-.7-2.2-.7-4.1,0-3.4,1.4-6.5,3.7-8.7Z"/>
  <g>
    <path d="M56.9,303.6h7.5l.8,21.9,13.2-21.9h6.2l1.5,21.9,12.7-21.9h8.1l-20,32.5h-6.7l-1.6-20.7-12.8,20.7h-6.6l-2.3-32.5Z"/>
    <path d="M115.8,303.6h24.4l-1.7,6.3h-17.3l-1.8,6.6h15.2l-1.7,6.2h-15.2l-1.9,6.8h17.5l-1.7,6.3h-24.6l8.8-32.3Z"/>
    <path d="M151.6,303.6h12.7c7.7,0,11.1,3.6,11.1,7.9s-2.8,7.1-7,8c2.7,1.2,4.6,3.2,4.6,6.5,0,5.8-5,9.8-14,9.8h-16.1l8.8-32.3ZM160,329.6c3.6,0,5.8-1.6,5.8-4.1s-1.5-3-4.5-3h-7.9l-1.9,7.1h8.4ZM162.3,316.6c3.7,0,5.9-1.2,5.9-3.9s-1.4-2.9-4.5-2.9h-6.8l-1.8,6.8h7.2Z"/>
    <path d="M189.7,303.6h24.9l-1.8,6.5h-17.7l-1.9,6.9h15.6l-1.7,6.5h-15.6l-3.4,12.5h-7.2l8.8-32.3Z"/>
    <path d="M225,303.6h7.2l-7,25.8h16.3l-1.8,6.5h-23.5l8.8-32.3Z"/>
    <path d="M257.8,303.6h24.4l-1.7,6.3h-17.3l-1.8,6.6h15.2l-1.7,6.2h-15.2l-1.9,6.8h17.5l-1.7,6.3h-24.6l8.8-32.3Z"/>
    <path d="M293.6,303.6h24.4l-1.7,6.3h-17.3l-1.8,6.6h15.2l-1.7,6.2h-15.2l-1.9,6.8h17.5l-1.7,6.3h-24.6l8.8-32.3Z"/>
    <path d="M334.4,310.1h-9.9l1.8-6.5h27.1l-1.8,6.5h-9.9l-7,25.7h-7.2l7-25.7Z"/>
  </g>
  <g>
    <path d="M208.8,358.8h-4.3l-1.9,7.3h-3.7l5.6-20.8h7.6c2.9,0,5,.7,6.3,2,1,1,1.5,2.3,1.5,3.9s-.7,3.6-1.9,4.8c-1,1-2.8,2-5.2,2.5l3.9,7.6h-4.2l-3.6-7.3ZM210,355.6c2.2,0,3.9-.6,4.9-1.6.7-.7,1-1.5,1-2.5s-.3-1.4-.7-1.9c-.7-.7-1.8-1-3.5-1h-4.5l-1.9,7h4.7Z"/>
    <path d="M232.2,345.3h15.3l-.9,3.3h-11.6l-1.5,5.4h10.3l-.9,3.2h-10.3l-1.5,5.6h11.8l-.9,3.3h-15.4l5.6-20.8Z"/>
    <path d="M265.6,345.1h3.5l3.5,21h-3.7l-.8-5h-9.8l-3.4,5h-4l14.8-21ZM267.6,357.8l-1.3-8.4-5.8,8.4h7.2Z"/>
    <path d="M287.2,345.3h5.6c3.8,0,6.5,1,8.1,2.7s2.3,3.5,2.3,6.1-1.2,6-3.4,8.1c-2.5,2.5-6.2,3.9-10.8,3.9h-7.5l5.6-20.8ZM292.6,348.6h-2.6l-3.8,14.1h3.4c3.1,0,5.8-1,7.6-2.8,1.5-1.5,2.3-3.5,2.3-5.7s-.5-2.9-1.5-3.8-2.9-1.8-5.4-1.8Z"/>
    <path d="M316.8,357.8l-4.6-12.5h4.1l3.1,9.4,8.2-9.4h4.5l-11.7,12.9-2.1,7.9h-3.7l2.2-8.3Z"/>
  </g>
</svg>