<?xml version="1.0" encoding="utf-8"?>
<!-- Generator: Adobe Illustrator 26.3.1, SVG Export Plug-In . SVG Version: 6.00 Build 0)  -->
<svg version="1.1" id="Layer_1" xmlns="http://www.w3.org/2000/svg" xmlns:xlink="http://www.w3.org/1999/xlink" x="0px" y="0px"
	 viewBox="0 0 453.5 453.5" style="enable-background:new 0 0 453.5 453.5;" xml:space="preserve">
<metadata><?xpacket begin="﻿" id="W5M0MpCehiHzreSzNTczkc9d"?>
<x:xmpmeta xmlns:x="adobe:ns:meta/" x:xmptk="Adobe XMP Core 8.0-c001 1.000000, 0000/00/00-00:00:00        ">
   <rdf:RDF xmlns:rdf="http://www.w3.org/1999/02/22-rdf-syntax-ns#">
      <rdf:Description rdf:about=""
            xmlns:dc="http://purl.org/dc/elements/1.1/"
            xmlns:prism="http://prismstandard.org/namespaces/basic/2.1/"
            xmlns:tiff="http://ns.adobe.com/tiff/1.0/"
            xmlns:bsam="http://www.bsam.blog">
         <dc:modified>2025-09-09T17:14:41.092Z</dc:modified>
         <dc:format>image/svg+xml</dc:format>
         <prism:Date>2025-09-08T19:23:00.000+02:00</prism:Date>
         <tiff:ImageWidth>454</tiff:ImageWidth>
         <tiff:ImageLength>454</tiff:ImageLength>
         <bsam:rightsLimitedUnlimited>unlimited</bsam:rightsLimitedUnlimited>
         <bsam:subDigitalAssetType>
            <rdf:Bag>
               <rdf:li>enterprise:digital-asset-type/image/icon</rdf:li>
            </rdf:Bag>
         </bsam:subDigitalAssetType>
         <bsam:industry>
            <rdf:Bag>
               <rdf:li>enterprise:industry/generic-all-industries</rdf:li>
            </rdf:Bag>
         </bsam:industry>
         <bsam:assetOwner>
            <rdf:Bag>
               <rdf:li>enterprise:business-unit/webfleet</rdf:li>
            </rdf:Bag>
         </bsam:assetOwner>
         <bsam:usageCountry>
            <rdf:Bag>
               <rdf:li>enterprise:region-country/global</rdf:li>
            </rdf:Bag>
         </bsam:usageCountry>
      </rdf:Description>
   </rdf:RDF>
</x:xmpmeta>
                                                                                                    
                                                                                                    
                                                                                                    
                                                                                                    
                                                                                                    
                                                                                                    
                                                                                                    
                                                                                                    
                                                                                                    
                           
<?xpacket end="w"?></metadata>
<style type="text/css">
	.st0{fill-rule:evenodd;clip-rule:evenodd;}
	.st1{opacity:0.3;}
	.st2{opacity:0.3;enable-background:new    ;}
</style>
<g>
	<path d="M248.9,334.3c0-9.2-6.3-20.7-14-20.7h-44.2c-7.7,0-14,11.6-14,20.7H248.9z"/>
	<g>
		<path class="st0" d="M286.8,236.6c-5.3,0-9.5,4.3-9.5,9.5s4.3,9.5,9.5,9.5s9.5-4.3,9.5-9.5S292.1,236.6,286.8,236.6z"/>
		<path class="st0" d="M213.7,236.6c-5.3,0-9.5,4.3-9.5,9.5s4.3,9.5,9.5,9.5s9.5-4.3,9.5-9.5S218.9,236.6,213.7,236.6z"/>
		<g>
			<path d="M302.6,237.9c-0.4,0-0.7-0.3-0.7-0.7c0-0.4,0.3-0.7,0.7-0.7h2.6c0.3-11.9-3.1-11.5-18.1-18.1c-7.1-6-15.3-17.3-23.2-17.3
				h-63.4c-2.7,0-4.6,2.2-4.9,4.9l-1.9,16.4l-0.2,1.4l-0.8,6.7l-0.9,1.4l-0.1,4.8c0,5,4.9,10.1,9.8,11.5c-0.1-0.6-0.2-1.3-0.2-2
				c0-6.7,5.5-12.2,12.2-12.2s12.2,5.5,12.2,12.2c0,0.9-0.1,1.7-0.2,2.5h49.2c-0.2-0.8-0.2-1.6-0.2-2.5c0-6.7,5.5-12.2,12.2-12.2
				s12.2,5.5,12.2,12.2c0,0.9-0.1,1.7-0.2,2.5h3c2.7,0,4.2-2.2,4.2-4.9v-5.9H302.6z M279.3,220.3l-22.5-0.2c-2-0.1-3.7-1.6-3.7-3.7
				v-8.6c0-1.2,1-2.2,2.2-2.2c5.8,0,9.4-0.3,12.5,0.6c6.4,1.9,8.9,5.8,13.3,10.6C282.3,218.1,281.2,220.5,279.3,220.3z"/>
		</g>
	</g>
	<g class="st1">
		<path d="M413.4,236.7c-5.3,0-9.5,4.3-9.5,9.5s4.3,9.5,9.5,9.5s9.5-4.3,9.5-9.5C423,240.9,418.7,236.7,413.4,236.7z"/>
		<path d="M349.2,236.7c-5.3,0-9.5,4.3-9.5,9.5s4.3,9.5,9.5,9.5s9.5-4.3,9.5-9.5C358.7,240.9,354.5,236.7,349.2,236.7z"/>
		<path d="M431.8,238.7h-3.3c-0.4,0-0.7-0.3-0.7-0.7s0.3-0.7,0.7-0.7h3c-2-5.6-10.2-9.9-28.7-9.9c-9.5-5.8-18.7-13-29.9-13
			c-11.6,0-12-0.1-24.6,0.8c-7.2,0.5-4.1,0.3-7.1,5.3c-1,1.7-5.1,4.4-7.9,7.7l-1,1.4c-0.8,1.2-1.3,2.5-1.3,3.9v8.5
			c0,4.1,5.1,7.3,6.8,8.1c-0.5-1.4-0.7-2.6-0.7-4.1c0-6.7,5.5-12.2,12.2-12.2s12.2,5.5,12.2,12.2c0,1.4-0.3,2.8-0.7,4.1
			c2.4,0,38.3,0,41.3,0c-0.5-1.3-0.7-2.7-0.7-4.1c0-6.7,5.5-12.2,12.2-12.2s12.2,5.5,12.2,12.2c0,1.4-0.3,2.8-0.7,4.1
			c0.9,0,1.5,0,1.5,0c3.4,0,5.5-2.1,5.5-5.4v-5.2C431.9,239.4,431.9,239.1,431.8,238.7z M364.8,225.8c-6.2-0.1-13.3,0-15.3,0
			c-3.2,0-3.2-1.7-1.8-2.6c7-5,11-5.8,17.2-6L364.8,225.8z M369,226.3c-0.1-0.1-1.2-0.4-1.4-0.5c0,0-1.3-8.7-1.2-8.7
			c2.5-0.1,5.2-0.1,8.6,0.1c6.7,0.2,17.1,5.3,23.1,11.1C382.5,228.4,375,229.1,369,226.3z"/>
	</g>
	<g>
		<path d="M316.4,127.4H107.7c-5.2,0-9.4,4.2-9.4,9.4v157c0,5.2,4.2,9.4,9.4,9.4h208.7c5.2,0,9.4-4.2,9.4-9.4v-157
			C325.8,131.6,321.6,127.4,316.4,127.4z M315.4,272.2H108.6v-21.9H138l-0.3-1.1c-0.2-1-0.4-2-0.4-3c0-6.7,5.5-12.2,12.2-12.2
			s12.2,5.5,12.2,12.2c0,1-0.1,2-0.4,3l-0.3,1.1l4,0c3.2,0,5.6-3.7,5.6-6.9v-6.2h-4.2c-0.3,0-0.6-0.3-0.6-0.6s0.3-0.6,0.6-0.6h2.9
			c0.1-17.9-1.5-15-6.8-18.9c-2.3-5.9-5.2-13.9-7.5-17.5c-2-3.3-5.9-3.6-19.6-3.4h-4.5l0.1,41.5h-22.3V235h19.8v-44.4h-19.8v-52.9
			h206.8L315.4,272.2L315.4,272.2z M135.6,215.3v-13.4c0-0.8,0.7-1.5,1.6-1.5l13.8,0.3c1.3,0,2.1,0.8,2.8,1.9
			c0.7,1.1,1.7,3.1,2.6,5.4c0.9,2.3,2.1,6.1,2.1,7.4c0,0.8-0.7,1.5-1.6,1.5h-19.7C136.3,216.8,135.6,216.2,135.6,215.3z"/>
		<path d="M149.5,236.7c-5.3,0-9.5,4.3-9.5,9.5s4.3,9.5,9.5,9.5s9.5-4.3,9.5-9.5C159,240.9,154.8,236.7,149.5,236.7z"/>
	</g>
	<g>
		<path class="st2" d="M64.8,236.7c-5.3,0-9.5,4.3-9.5,9.5s4.3,9.5,9.5,9.5c5.3,0,9.5-4.3,9.5-9.5C74.3,240.9,70.1,236.7,64.8,236.7
			z"/>
		<path class="st2" d="M73.3,237.5c3.2,2.8,4,6.2,3.6,9.8c-0.2,1.8,0.8,3,1.9,3h14.6v-12.8H73.3z"/>
		<path class="st2" d="M47,190.6h-1c-2.9,0-5.3,2.4-5.3,5.3l0,39.1h19.1c0.1,0,0.1,0,0.2-0.1c0.2-0.1,0.3-0.1,0.5-0.2
			c0.2-0.1,0.4-0.1,0.5-0.2c0.2-0.1,0.4-0.1,0.7-0.2c0.2-0.1,0.4-0.1,0.6-0.1c0.1,0,0.2,0,0.3-0.1c0.7-0.1,1.4-0.2,2.2-0.2
			c0.8,0,1.5,0.1,2.2,0.2c0.1,0,0.2,0,0.3,0.1c0.2,0,0.4,0.1,0.5,0.1c0.2,0.1,0.5,0.1,0.7,0.2c0.2,0.1,0.3,0.1,0.5,0.2
			c0.2,0.1,0.4,0.1,0.6,0.2c0.1,0,0.1,0,0.2,0.1h23.9v-44.4L47,190.6L47,190.6z"/>
		<path class="st2" d="M56.3,237.5H40.7c0,0,0,1.3,0.3,4.2c0.6,6.1,6.3,8.8,12.3,8.6c-0.3-1-0.7-2.2-0.7-4.1
			C52.6,242.8,54,239.6,56.3,237.5z"/>
	</g>
	<g>
		<g>
			<path d="M66,343.7h7.5l0.8,21.9l13.2-22h6.2l1.5,22l12.7-21.9h8.1l-20,32.5h-6.7l-1.6-20.7L75,376.2h-6.6L66,343.7z"/>
			<path d="M125,343.7h24.4l-1.7,6.3h-17.3l-1.8,6.6h15.2l-1.7,6.2h-15.2l-1.9,6.8h17.6l-1.7,6.3h-24.7L125,343.7z"/>
			<path d="M160.8,343.7h12.7c7.7,0,11.1,3.6,11.1,7.9c0,4.3-2.8,7.1-7,8c2.7,1.2,4.6,3.2,4.6,6.5c0,5.8-5,9.8-14.1,9.8h-16.1
				L160.8,343.7z M169.2,369.7c3.6,0,5.8-1.6,5.8-4.1c0-1.9-1.5-3-4.5-3h-7.9l-1.9,7.1H169.2z M171.5,356.7c3.7,0,5.9-1.2,5.9-3.9
				c0-1.7-1.4-2.9-4.5-2.9h-6.8l-1.8,6.8L171.5,356.7L171.5,356.7z"/>
			<path d="M198.9,343.7h24.9l-1.8,6.5h-17.7l-1.9,6.9h15.6l-1.7,6.5h-15.6l-3.4,12.5h-7.2L198.9,343.7z"/>
			<path d="M234.3,343.7h7.2l-7,25.8h16.3L249,376h-23.5L234.3,343.7z"/>
			<path d="M267.1,343.7h24.4l-1.7,6.3h-17.3l-1.8,6.6h15.2l-1.7,6.2H269l-1.9,6.8h17.6l-1.7,6.3h-24.7L267.1,343.7z"/>
			<path d="M302.9,343.7h24.4l-1.7,6.3h-17.3l-1.8,6.6h15.2l-1.7,6.2h-15.2l-1.9,6.8h17.6l-1.7,6.3h-24.7L302.9,343.7z"/>
			<path d="M343.8,350.2h-10l1.8-6.5h27.1l-1.8,6.5h-10l-7,25.7h-7.2L343.8,350.2z"/>
		</g>
	</g>
	<g>
		<path d="M381,345.8c0,1.7-0.7,3.5-1.9,4.7c-1.2,1.2-2.7,1.9-4.5,1.9c-3.2,0-5.2-2.3-5.2-5.2c0-1.7,0.7-3.5,1.9-4.7
			c1.2-1.2,2.7-1.9,4.5-1.9C379,340.6,381,342.9,381,345.8z M378.6,350.1c1.1-1.1,1.8-2.7,1.8-4.4c0-2.5-1.7-4.6-4.6-4.6
			c-1.6,0-3,0.6-4,1.7c-1.1,1.1-1.8,2.7-1.8,4.3c0,2.5,1.7,4.6,4.6,4.6C376.2,351.8,377.5,351.1,378.6,350.1z M373.2,349.4H372
			l1.6-6.2h2.3c0.9,0,1.5,0.2,1.9,0.6c0.3,0.3,0.5,0.7,0.5,1.2c0,0.5-0.2,1.1-0.6,1.4c-0.3,0.3-0.7,0.6-1.4,0.7l1,2.3H376l-0.9-2.1
			h-1.4L373.2,349.4z M375.4,346.2c0.7,0,1.1-0.1,1.4-0.4c0.2-0.2,0.3-0.4,0.3-0.7c0-0.2,0-0.4-0.2-0.5c-0.2-0.2-0.5-0.3-1-0.3h-1.2
			l-0.5,2L375.4,346.2L375.4,346.2z"/>
	</g>
</g>
</svg>
