<?xml version="1.0" encoding="utf-8"?>
<!-- Generator: Adobe Illustrator 26.3.1, SVG Export Plug-In . SVG Version: 6.00 Build 0)  -->
<svg version="1.1" id="Layer_1" xmlns="http://www.w3.org/2000/svg" xmlns:xlink="http://www.w3.org/1999/xlink" x="0px" y="0px"
	 viewBox="0 0 302.4 302.4" style="enable-background:new 0 0 302.4 302.4;" xml:space="preserve">
<metadata><?xpacket begin="﻿" id="W5M0MpCehiHzreSzNTczkc9d"?>
<x:xmpmeta xmlns:x="adobe:ns:meta/" x:xmptk="Adobe XMP Core 8.0-c001 1.000000, 0000/00/00-00:00:00        ">
   <rdf:RDF xmlns:rdf="http://www.w3.org/1999/02/22-rdf-syntax-ns#">
      <rdf:Description rdf:about=""
            xmlns:dc="http://purl.org/dc/elements/1.1/"
            xmlns:prism="http://prismstandard.org/namespaces/basic/2.1/"
            xmlns:tiff="http://ns.adobe.com/tiff/1.0/"
            xmlns:bsam="http://www.bsam.blog">
         <dc:modified>2025-09-09T17:14:47.091Z</dc:modified>
         <dc:format>image/svg+xml</dc:format>
         <prism:Date>2025-09-08T19:23:00.000+02:00</prism:Date>
         <tiff:ImageWidth>302</tiff:ImageWidth>
         <tiff:ImageLength>302</tiff:ImageLength>
         <bsam:rightsLimitedUnlimited>unlimited</bsam:rightsLimitedUnlimited>
         <bsam:subDigitalAssetType>
            <rdf:Bag>
               <rdf:li>enterprise:digital-asset-type/image/icon</rdf:li>
            </rdf:Bag>
         </bsam:subDigitalAssetType>
         <bsam:industry>
            <rdf:Bag>
               <rdf:li>enterprise:industry/generic-all-industries</rdf:li>
            </rdf:Bag>
         </bsam:industry>
         <bsam:assetOwner>
            <rdf:Bag>
               <rdf:li>enterprise:business-unit/webfleet</rdf:li>
            </rdf:Bag>
         </bsam:assetOwner>
         <bsam:usageCountry>
            <rdf:Bag>
               <rdf:li>enterprise:region-country/global</rdf:li>
            </rdf:Bag>
         </bsam:usageCountry>
      </rdf:Description>
   </rdf:RDF>
</x:xmpmeta>
                                                                                                    
                                                                                                    
                                                                                                    
                                                                                                    
                                                                                                    
                                                                                                    
                                                                                                    
                                                                                                    
                                                                                                    
                           
<?xpacket end="w"?></metadata>
<g>
	<g>
		<g>
			<g>
				<path d="M74.7,156.6L74.7,156.6c0-3.5,1.5-6.9,4.2-9.4c41.2-39.1,103.3-39.2,144.6-0.2c2.7,2.6,4.2,5.9,4.2,9.4
					c0,5.3-3.5,10.4-8.6,12.6c-4.9,2.1-10.5,1.1-14.5-2.6c-30.5-28.8-76.4-28.8-106.8,0.1c-4,3.8-9.5,4.8-14.5,2.7
					C78.2,167,74.7,161.9,74.7,156.6z"/>
			</g>
		</g>
		<g>
			<g>
				<path d="M38.4,120.3L38.4,120.3c0-3.5,1.5-6.8,4.1-9.4c60.9-58.9,156.4-59,217.4-0.2c2.7,2.6,4.1,5.9,4.1,9.4
					c0,5.4-3.5,10.5-8.7,12.7c-5,2.1-10.5,1.1-14.4-2.8c-50.4-48.5-129.1-48.4-179.4,0.2c-3.9,3.8-9.5,4.9-14.4,2.8
					C41.9,130.8,38.4,125.7,38.4,120.3z"/>
			</g>
		</g>
	</g>
	<circle cx="151.3" cy="204.2" r="31.5"/>
</g>
</svg>
