<?xml version="1.0" encoding="UTF-8"?>
<svg id="Layer_1" xmlns="http://www.w3.org/2000/svg" version="1.1" viewBox="0 0 40 40">
  <!-- Generator: Adobe Illustrator 29.8.1, SVG Export Plug-In . SVG Version: 2.1.1 Build 2)  -->
  <defs>
    <style>
      .st0 {
        fill: red;
      }

      .st1 {
        fill: #f3f3f3;
      }
    </style>
  </defs>
  <rect class="st1" width="40" height="40"/>
  <path class="st0" d="M17.8,23.8c-1.6-.9-3.7-2.4-4.5-4.2-.8-1.8-.6-3.9-.3-6.1.1-.7,0-1.5-.3-2.2-.9-1.9-3.1-2.7-5-1.8s-2.7,3.1-1.8,5c.3.7.9,1.3,1.5,1.6,1.9,1.2,3.7,2.3,4.5,4.2.8,1.8.6,4.4.3,6.2-.1.7,0,1.5.3,2.2.9,1.9,3.1,2.7,5,1.8,1.9-.9,2.7-3.1,1.8-5-.3-.7-.8-1.3-1.5-1.7h0ZM27.9,23.8c-1.6-.9-3.7-2.4-4.5-4.2-.8-1.8-.6-3.9-.3-6.1.1-.7,0-1.5-.3-2.2-.9-1.9-3.1-2.7-5-1.8s-2.7,3.1-1.8,5c.3.7.9,1.3,1.5,1.6,1.9,1.2,3.7,2.3,4.5,4.2.8,1.8.6,4.4.3,6.2-.1.7,0,1.5.3,2.2.9,1.9,3.1,2.7,5,1.8,1.9-.9,2.7-3.1,1.8-5-.3-.7-.8-1.3-1.5-1.7h0ZM33.9,10.6c-1.3-1.7-3.6-2-5.3-.7-1.2.9-1.7,2.5-1.4,3.9.7,2.7,1.1,4.5,1.3,5.2.1.5.7.9,1.2.8.2,0,.4-.2.6-.3.5-.6,1.7-2,3.5-4.1,1.1-1.3,1.2-3.3.1-4.7h0Z"/>
</svg>