<?xml version="1.0" encoding="UTF-8"?>
<svg id="Layer_1" xmlns="http://www.w3.org/2000/svg" version="1.1" viewBox="0 0 40 40">
  <!-- Generator: Adobe Illustrator 29.8.1, SVG Export Plug-In . SVG Version: 2.1.1 Build 2)  -->
  <defs>
    <style>
      .st0 {
        fill: #fff;
      }
    </style>
  </defs>
  <path class="st0" d="M35,18c0-4.1-3.4-7.5-7.5-7.5s-2,.2-2.8.6c2.1,2.2,3.4,5.1,3.4,8.4s-.6,4.3-1.6,6c3,.7,7.6.7,8.6.7h0s-2.5-2.6-2.5-2.6c1.5-1.4,2.5-3.4,2.5-5.6h0Z"/>
  <path class="st0" d="M15.8,10.9c4.8,0,8.7,3.9,8.7,8.7s-2,6.4-5,7.8h0s0,0,0,0h0c-2.3,1.1-6.6,1.8-9.6,1.8l1.8-1.8-1.6-1.4c-1.8-1.6-2.9-4-2.9-6.4,0-4.8,3.9-8.7,8.7-8.7M15.8,8.8c-6,0-10.8,4.8-10.8,10.7s1.4,6,3.6,7.9l-3.6,3.7h0c1.7,0,10.3,0,14.2-1.5.3-.1.7-.2,1-.4,0,0,0,0,.1,0h0c3.7-1.7,6.2-5.4,6.2-9.7,0-5.9-4.8-10.7-10.8-10.7h0Z"/>
</svg>