<?xml version="1.0" encoding="UTF-8"?>
<svg id="Layer_1" xmlns="http://www.w3.org/2000/svg" version="1.1" viewBox="0 0 40 40">
  <!-- Generator: Adobe Illustrator 29.8.1, SVG Export Plug-In . SVG Version: 2.1.1 Build 2)  -->
  <defs>
    <style>
      .st0 {
        fill: #fff;
      }
    </style>
  </defs>
  <path class="st0" d="M36,17.8c0-4.4-3.6-8-8-8s-2.1.2-3,.6c2.2,2.3,3.6,5.5,3.6,9s-.6,4.5-1.7,6.4c3.2.7,8.1.7,9.2.7h0s-2.7-2.8-2.7-2.8c1.6-1.5,2.7-3.6,2.7-5.9h0Z"/>
  <path class="st0" d="M15.5,10.2c5.1,0,9.3,4.1,9.3,9.2s-2.1,6.8-5.4,8.4h0s0,0,0,0h0c-2.4,1.2-7,1.9-10.3,1.9l1.9-2-1.7-1.5c-1.9-1.8-3.1-4.2-3.1-6.8,0-5.1,4.2-9.2,9.3-9.2M15.5,8c-6.4,0-11.5,5.1-11.5,11.4s1.5,6.4,3.8,8.5l-3.8,4h0c1.8,0,11,0,15.1-1.6.4-.1.7-.3,1.1-.4,0,0,0,0,.2,0h0c3.9-1.8,6.6-5.8,6.6-10.4,0-6.3-5.1-11.4-11.5-11.4h0Z"/>
</svg>