<?xml version="1.0" encoding="UTF-8"?>
<svg id="Layer_1" xmlns="http://www.w3.org/2000/svg" version="1.1" viewBox="0 0 40 40">
  <!-- Generator: Adobe Illustrator 29.8.1, SVG Export Plug-In . SVG Version: 2.1.1 Build 2)  -->
  <defs>
    <style>
      .st0 {
        fill: #ed2224;
      }
    </style>
  </defs>
  <path class="st0" d="M16.9,24.6c-1.5-.9-3.5-2.2-4.3-3.9-.8-1.7-.6-3.7-.3-5.8.1-.7,0-1.4-.3-2.1-.8-1.8-3-2.5-4.7-1.7-1.8.8-2.5,3-1.7,4.7.3.7.8,1.2,1.4,1.5,1.8,1.1,3.5,2.2,4.3,3.9.8,1.7.6,4.1.3,5.8-.1.7,0,1.4.3,2.1.8,1.8,3,2.5,4.7,1.7s2.5-3,1.7-4.7c-.3-.7-.8-1.2-1.4-1.6ZM26.4,24.6c-1.5-.9-3.5-2.2-4.3-3.9-.8-1.7-.6-3.7-.3-5.8.1-.7,0-1.4-.3-2.1-.8-1.8-3-2.5-4.7-1.7-1.8.8-2.5,3-1.7,4.7.3.7.8,1.2,1.4,1.5,1.8,1.1,3.5,2.2,4.3,3.9.8,1.7.6,4.1.3,5.8-.1.7,0,1.4.3,2.1.8,1.8,3,2.5,4.7,1.7,1.8-.8,2.5-3,1.7-4.7-.3-.7-.8-1.2-1.4-1.6ZM32.1,12.2c-1.2-1.6-3.4-1.9-5-.7-1.2.9-1.6,2.3-1.3,3.7q.9,3.8,1.2,4.9c.1.5.6.9,1.2.7.2,0,.4-.2.6-.3q.7-.8,3.3-3.8c1.1-1.2,1.2-3.1.1-4.4Z"/>
</svg>